<svg xmlns="http://www.w3.org/2000/svg" viewBox="0 0 779.66 364.59"><g style="isolation:isolate"><g id="building"><polygon points="64.75 169.95 82.78 206.7 109.23 361.9 64.75 362.93 64.75 169.95" style="fill:#a2a2a2;fill-rule:evenodd"/><polygon points="20.74 362.93 19.74 183.83 64.75 169.95 64.75 362.93 20.74 362.93" style="fill:#a2a2a2;fill-rule:evenodd"/><path d="M119.59,203.23s-23.94,54.84-19,172.5H151.9V250.93c0-23.58-16.12-51.92-32.31-47.7Z" transform="translate(-99.82 -12.79)" style="fill:#a2a2a2;fill-rule:evenodd"/><g style="mix-blend-mode:soft-light"><rect x="0.09" y="353.24" width="51.99" height="0.5" style="fill:#a2a2a2"/><path d="M151.86,352.42a202.82,202.82,0,0,0-51.87,0l-.08-.49a202.37,202.37,0,0,1,52,0Z" transform="translate(-99.82 -12.79)" style="fill:#a2a2a2"/><path d="M100,338.66l-.19-.47c.18-.07,18.55-7.28,52.09-1.8l-.09.49C118.48,331.42,100.22,338.58,100,338.66Z" transform="translate(-99.82 -12.79)" style="fill:#a2a2a2"/><path d="M100.31,324.83l-.23-.46c.18-.08,18.16-8.63,51.86-1.91l-.09.49C118.31,316.26,100.48,324.74,100.31,324.83Z" transform="translate(-99.82 -12.79)" style="fill:#a2a2a2"/><path d="M100.83,312.55l-.31-.4c.12-.1,12.55-9.29,51.41-3.8l-.07.5C113.26,303.4,101,312.45,100.83,312.55Z" transform="translate(-99.82 -12.79)" style="fill:#a2a2a2"/><path d="M101.69,298.91l-.38-.33c.36-.42,9.39-10.19,50.61-5.77l0,.5C111,288.92,101.77,298.81,101.69,298.91Z" transform="translate(-99.82 -12.79)" style="fill:#a2a2a2"/><path d="M103.07,283.11l-.41-.3c.34-.46,8.65-11.21,49.27-6.25l-.07.5C111.62,272.14,103.15,283,103.07,283.11Z" transform="translate(-99.82 -12.79)" style="fill:#a2a2a2"/><path d="M104.89,267.48l-.36-.35c.11-.12,11.48-11.42,47.41-5.57l-.09.5C116.19,256.26,105,267.36,104.89,267.48Z" transform="translate(-99.82 -12.79)" style="fill:#a2a2a2"/><path d="M107.81,248.87l-.37-.34c.1-.12,10.87-11.53,43.93-5.7l-.08.5C118.49,237.54,107.91,248.75,107.81,248.87Z" transform="translate(-99.82 -12.79)" style="fill:#a2a2a2"/><path d="M111.41,231.3l-.35-.36c.09-.09,9.85-9.13,35.9-4.54l-.08.5C121.07,222.35,111.5,231.21,111.41,231.3Z" transform="translate(-99.82 -12.79)" style="fill:#a2a2a2"/><path d="M115.4,216.23l-.46-.19c.11-.28,3-6.92,23.48-4.36l-.06.5C118.35,209.67,115.43,216.17,115.4,216.23Z" transform="translate(-99.82 -12.79)" style="fill:#a2a2a2"/></g><path d="M103.78,274.68a17.13,17.13,0,0,1,9.5-4.05l0,28.7s11.75-1.2,17.64-.64l3.3-50H144l.89-26.52s-9.22-21.81-25.32-19A272,272,0,0,0,103.78,274.68Z" transform="translate(-99.82 -12.79)" style="fill:#a2a2a2;fill-rule:evenodd;mix-blend-mode:screen;opacity:0.68"/><path d="M164.6,321.54l-6.85-10.73a20.86,20.86,0,0,1-3.16-11.46l.75-43.58a21.16,21.16,0,0,1,2.07-8.77l7.19-14.78L171.27,250a21,21,0,0,1,1.34,7.87l-.94,44.89a21.1,21.1,0,0,1-2.12,8.79Zm-.06-88.05-6.68,13.73a20.6,20.6,0,0,0-2,8.55l-.76,43.59a20.38,20.38,0,0,0,3.08,11.18l6.37,10,4.56-9.23a20.44,20.44,0,0,0,2.06-8.58l.94-44.88a20.4,20.4,0,0,0-1.3-7.69Z" transform="translate(-99.82 -12.79)" style="fill:#a2a2a2"/><path d="M100.57,375.73s-1.65-60.07,1.7-86.46l4.44-1.64s-7.39,56,8.46,88.1Z" transform="translate(-99.82 -12.79)" style="fill:#a2a2a2;fill-rule:evenodd;mix-blend-mode:screen;opacity:0.5"/><path d="M120.17,306.84l.55-14.33s6.14-.28,8.74-.43L129,306.84Z" transform="translate(-99.82 -12.79)" style="fill:#a2a2a2;fill-rule:evenodd;mix-blend-mode:screen;opacity:0.2"/><polygon points="31.14 307.32 31.69 294.05 38.54 294.37 38.54 307.32 31.14 307.32" style="fill:#a2a2a2;fill-rule:evenodd;mix-blend-mode:screen;opacity:0.2"/><path d="M107.67,279.66v-14s8.55-6.53,30.72-5.37l0,15.23S120.59,273.94,107.67,279.66Z" transform="translate(-99.82 -12.79)" style="fill:#a2a2a2;fill-rule:evenodd;mix-blend-mode:screen;opacity:0.5"/><path d="M129.48,241.41l.92-16.07a61.92,61.92,0,0,1,10.51.44v15.63A59,59,0,0,0,129.48,241.41Z" transform="translate(-99.82 -12.79)" style="fill:#a2a2a2;fill-rule:evenodd;mix-blend-mode:screen;opacity:0.2"/><polygon points="15.35 264.15 15.35 249.61 7.85 252.87 7.85 266.87 15.35 264.15" style="fill:#a2a2a2;fill-rule:evenodd;mix-blend-mode:screen;opacity:0.8"/><path d="M103.78,351.68l-.91-14.19s8.1-1.73,9.44-1.91v14.93Z" transform="translate(-99.82 -12.79)" style="fill:#a2a2a2;fill-rule:evenodd;mix-blend-mode:screen;opacity:0.5"/><polygon points="17.31 337.89 17.31 322.48 26.09 321.79 25 337.72 17.31 337.89" style="fill:#a2a2a2;fill-rule:evenodd;mix-blend-mode:screen;opacity:0.5"/><path d="M100.57,375.73s-1.63-31.79-.09-47l93.7,14.68,4.51,31.95Z" transform="translate(-99.82 -12.79)" style="fill:#a2a2a2;fill-rule:evenodd;mix-blend-mode:screen"/><path d="M548.63,376.12H655s6.16-363.26-85.76-363.21Z" transform="translate(-99.82 -12.79)" style="fill:#bfbfbf;fill-rule:evenodd"/><path d="M487.86,376.12S502.74,21.59,569.27,12.91c58-7.57,40.79,363.21,40.79,363.21Z" transform="translate(-99.82 -12.79)" style="fill:#bfbfbf;fill-rule:evenodd"/><path d="M598,309.93l-24.35,37.51H515.86L503,315.5c-.34-71,24.2-275.08,61-279.26a9.76,9.76,0,0,1,6.42,1.54C603.55,58.31,604,271.47,598,309.93Z" transform="translate(-99.82 -12.79)" style="fill:#bfbfbf;fill-rule:evenodd"/><path d="M598,309.93l-24.35,37.51h-52L509.37,317c-.34-71,24.2-275.08,61-279.25h0C603.55,58.31,604,271.47,598,309.93Z" transform="translate(-99.82 -12.79)" style="fill:#bfbfbf;fill-rule:evenodd"/><rect x="491.63" y="361.53" width="32.72" height="0.5" transform="translate(-153.62 619.77) rotate(-61.19)" style="fill:#bfbfbf"/><rect x="583.55" y="344.2" width="0.5" height="35.15" transform="translate(-201.5 391.57) rotate(-35.34)" style="fill:#bfbfbf"/><rect x="604.69" y="305.18" width="0.5" height="14.96" transform="translate(-6.81 748.9) rotate(-68.59)" style="fill:#bfbfbf"/><polygon points="391.1 314.68 390.75 314.31 402.98 302.52 403.32 302.88 391.1 314.68" style="fill:#bfbfbf"/><rect x="556.1" y="24.29" width="23.45" height="0.5" transform="translate(374.33 572.33) rotate(-82.99)" style="fill:#bfbfbf"/><rect x="596.08" y="134.16" width="12.78" height="0.5" transform="translate(-100.12 254.65) rotate(-25.02)" style="fill:#bfbfbf"/><rect x="518.07" y="128.5" width="0.5" height="10.25" transform="translate(-32.73 408.75) rotate(-47)" style="fill:#bfbfbf"/><g style="mix-blend-mode:soft-light"><rect x="403.38" y="192.67" width="309.59" height="0.54" transform="translate(231.47 725.4) rotate(-86.48)" style="fill:#bfbfbf"/><rect x="428.67" y="201.69" width="291.41" height="0.54" transform="translate(241.72 751.73) rotate(-86.89)" style="fill:#bfbfbf"/><rect x="470.55" y="216.97" width="233.7" height="0.54" transform="translate(245.07 781.87) rotate(-87.51)" style="fill:#bfbfbf"/><rect x="395.62" y="197.98" width="299.23" height="0.54" transform="matrix(0.08, -1, 1, 0.08, 206.24, 714.03)" style="fill:#bfbfbf"/><rect x="396.62" y="212.21" width="272.95" height="0.54" transform="translate(179.04 714.17) rotate(-85.43)" style="fill:#bfbfbf"/><rect x="433.56" y="236.15" width="169.52" height="0.54" transform="translate(136.16 718.43) rotate(-84.81)" style="fill:#bfbfbf"/><rect x="412.02" y="310.06" width="77.58" height="0.54" style="fill:#bfbfbf"/><rect x="410.72" y="269.3" width="89.6" height="0.54" style="fill:#bfbfbf"/><rect x="514.45" y="234.49" width="86.31" height="0.54" transform="translate(-103.15 -4.7) rotate(-0.83)" style="fill:#bfbfbf"/><rect x="519.75" y="189.81" width="80.18" height="0.54" transform="translate(-106.35 7.68) rotate(-2.08)" style="fill:#bfbfbf"/><rect x="525.9" y="149.02" width="71.67" height="0.54" transform="translate(-109.53 30.32) rotate(-4.36)" style="fill:#bfbfbf"/><polygon points="434.43 99.2 434.38 98.66 493.43 93.36 493.48 93.9 434.43 99.2" style="fill:#bfbfbf"/><polygon points="447.68 54.84 447.61 54.31 484.56 49.52 484.63 50.06 447.68 54.84" style="fill:#bfbfbf"/></g><path d="M524.24,162.29l-8.16,98.78,24.31,1.41L545.11,200,558,196.3l-1.29,20.94,17-1.76,5.35-97.4h14.29s-5.49-72.5-20.59-72.5C556.85,45.58,531.39,112.49,524.24,162.29Z" transform="translate(-99.82 -12.79)" style="fill:#bfbfbf;fill-rule:evenodd;mix-blend-mode:screen;opacity:0.68"/><polygon points="427.62 269.57 431.47 222.03 442.66 222.03 455.33 222.03 452.84 269.57 427.62 269.57" style="fill:#bfbfbf;fill-rule:evenodd;mix-blend-mode:screen;opacity:0.2"/><polygon points="470.14 269.57 472.75 222.03 486.85 221.53 484.78 269.57 470.14 269.57" style="fill:#bfbfbf;fill-rule:evenodd;mix-blend-mode:screen;opacity:0.2"/><polygon points="446.36 178.05 449.11 137.8 460.61 136.5 458.36 177.28 446.36 178.05" style="fill:#bfbfbf;fill-rule:evenodd;mix-blend-mode:screen;opacity:0.5"/><polygon points="463.53 96.28 466.36 51.8 482.2 50.1 479.36 94.8 463.53 96.28" style="fill:#bfbfbf;fill-rule:evenodd;mix-blend-mode:screen;opacity:0.2"/><polygon points="435.99 310.33 439.03 270.13 452.84 269.57 450.81 310.02 435.99 310.33" style="fill:#bfbfbf;fill-rule:evenodd;mix-blend-mode:screen;opacity:0.5"/><path d="M509.37,317s6.86-109,12.33-138.71l42,42.92-7.25,126.2h-36Z" transform="translate(-99.82 -12.79)" style="fill:#bfbfbf;fill-rule:evenodd;mix-blend-mode:screen;opacity:0.5"/><polygon points="410.82 363.32 418.51 351.96 474.56 351.96 482.55 363.32 410.82 363.32" style="fill:#bfbfbf;fill-rule:evenodd"/><polygon points="410.82 363.32 418.51 351.96 424.86 351.96 417.84 363.35 410.82 363.32" style="fill:#bfbfbf;fill-rule:evenodd"/><path d="M642.84,376.14s0-269.72-47.25-351.6a45.83,45.83,0,0,0-9.74-7.3s49.63,45.34,47.07,358.88Z" transform="translate(-99.82 -12.79)" style="fill:#bfbfbf;fill-rule:evenodd"/><path d="M487.86,376.12s5.76-93.7,9.93-129.5l151.85-20.55S655,345.93,655,376.12Z" transform="translate(-99.82 -12.79)" style="fill:#bfbfbf;fill-rule:evenodd;mix-blend-mode:screen"/><path d="M516.08,178.32l83.21,119,1.46-26.3L521.09,154A207,207,0,0,0,516.08,178.32Z" transform="translate(-99.82 -12.79)" style="fill:#bfbfbf;fill-rule:evenodd"/><path d="M527.43,123.9l2.9-17.48L585.78,67a142.34,142.34,0,0,1,4,18Z" transform="translate(-99.82 -12.79)" style="fill:#bfbfbf;fill-rule:evenodd"/><polygon points="427.62 111.11 431.43 112.22 490.61 75.54 489.99 72.2 427.62 111.11" style="fill:#bfbfbf;fill-rule:evenodd"/><polygon points="421.27 141.24 425.43 143.06 500.91 249.69 500.94 258.22 421.27 141.24" style="fill:#bfbfbf;fill-rule:evenodd"/><polygon points="86.99 362.84 124.73 62.09 174.42 46.93 166.62 363.32 86.99 362.84" style="fill:#999;fill-rule:evenodd"/><polygon points="174.42 46.93 174.42 46.93 192.73 114.07 190.73 308.63 206.72 363.32 166.62 363.32 174.42 46.93" style="fill:#999;fill-rule:evenodd"/><path d="M276.61,150.83l-2.17,65.77a25.83,25.83,0,0,0,2.25,11.49l3.67,8.07a25.77,25.77,0,0,1,2.26,11.11l-1,54.25a24.67,24.67,0,0,0,7.09,18.06l1.88,1.84,2-194.56-7.37,6A24.19,24.19,0,0,0,276.61,150.83Z" transform="translate(-99.82 -12.79)" style="fill:#999;fill-rule:evenodd"/><path d="M219.09,120.64C172.46,194,172.86,312.81,179.6,376.12l64.92-1,2.54-129.77a12.93,12.93,0,0,1,2.76-7.71l9.37-11.67a12.93,12.93,0,0,0,2.75-7.64l1.75-57.67c.82-27-21.65-47.12-44.6-40Z" transform="translate(-99.82 -12.79)" style="fill:#999;fill-rule:evenodd"/><path d="M253.87,375.09l-.51,0,3.47-110.85a46.66,46.66,0,0,1,6.89-23.7l6.48-10.44,4.92,10.79a20.36,20.36,0,0,1,1.8,8.41v67.57a20.44,20.44,0,0,0,5.81,14.5l15.41,15.25-.36.35-15.4-15.24a20.94,20.94,0,0,1-6-14.86V249.28a20,20,0,0,0-1.76-8.21l-4.52-9.92-6,9.63a46.24,46.24,0,0,0-6.82,23.45Z" transform="translate(-99.82 -12.79)" style="fill:#999"/><path d="M262.28,334.05v-63.7a50.9,50.9,0,0,1,5.09-22.28l2.34-4.76-2.58,106.28-2.53-5.24A23.82,23.82,0,0,1,262.28,334.05Z" transform="translate(-99.82 -12.79)" style="fill:#999;fill-rule:evenodd"/><path d="M269.71,243.31l2.46,6.76a15.1,15.1,0,0,1,.89,5.39l-1.48,78.93a25.69,25.69,0,0,1-2.1,9.76l-2.35,5.44Z" transform="translate(-99.82 -12.79)" style="fill:#999;fill-rule:evenodd"/><g style="mix-blend-mode:soft-light"><rect x="178.16" y="361.47" width="66.67" height="0.5" transform="translate(-113 -4.76) rotate(-2.11)" style="fill:#999"/><path d="M177.08,345.85l-.06-.5c21.93-2.63,42.31-3.54,68.14-3.07v.5C219.34,342.3,199,343.22,177.08,345.85Z" transform="translate(-99.82 -12.79)" style="fill:#999"/><path d="M176.55,328.17l-.06-.5c24.13-2.79,42.19-3.46,69-2.56l0,.5C218.69,324.71,200.65,325.38,176.55,328.17Z" transform="translate(-99.82 -12.79)" style="fill:#999"/><path d="M176.41,310.79l-.13-.48c30-8,69.23-5.11,69.62-5.08l0,.5C245.47,305.7,206.36,302.82,176.41,310.79Z" transform="translate(-99.82 -12.79)" style="fill:#999"/><path d="M176.63,292.16l-.22-.45c.25-.12,25.55-12.15,69.89-6.19l-.07.5C202.06,280.08,176.88,292,176.63,292.16Z" transform="translate(-99.82 -12.79)" style="fill:#999"/><path d="M177.84,271.23l-.27-.43c.23-.14,23-14.32,69.19-8.58l-.07.5C200.74,257,178.07,271.08,177.84,271.23Z" transform="translate(-99.82 -12.79)" style="fill:#999"/><path d="M179.94,247.88l-.23-.45c.29-.15,29.76-15.43,70.14-10.08l-.06.5C209.57,232.53,180.23,247.72,179.94,247.88Z" transform="translate(-99.82 -12.79)" style="fill:#999"/><path d="M182.76,227.25l-.28-.42c.26-.18,27.11-17.87,79.6-12.55l-.05.5C209.72,209.48,183,227.07,182.76,227.25Z" transform="translate(-99.82 -12.79)" style="fill:#999"/><path d="M186.94,204.83l-.26-.43c.31-.19,31.95-19.16,75.65-11.29l-.09.5C218.73,185.77,187.25,204.64,186.94,204.83Z" transform="translate(-99.82 -12.79)" style="fill:#999"/><path d="M192.3,183.34l-.29-.41c.27-.2,28.08-19.94,71.49-15.34l-.05.5C220.25,163.52,192.58,183.14,192.3,183.34Z" transform="translate(-99.82 -12.79)" style="fill:#999"/><path d="M200.26,159.23l-.27-.43c.27-.17,27.47-16.35,62-12.2l0,.5C227.57,143,200.52,159.06,200.26,159.23Z" transform="translate(-99.82 -12.79)" style="fill:#999"/><path d="M211,135.1l-.22-.46c.22-.1,21.86-10.42,39.06-7.46l-.08.5C232.74,124.74,211.23,135,211,135.1Z" transform="translate(-99.82 -12.79)" style="fill:#999"/></g><path d="M176.34,316.36s-6.71-116,42.75-195.72A32.65,32.65,0,0,1,251.56,129a551.41,551.41,0,0,0-16.65,99.6s-16.23-.13-28.46,4.63l1.23-24-10.19,2.49s-5.7,41.17-5.34,101Z" transform="translate(-99.82 -12.79)" style="fill:#999;fill-rule:evenodd;mix-blend-mode:screen;opacity:0.68"/><path d="M179.6,376.12s-6.89-58.54-1.08-121.77l8.29-2.81s5.34,87.91,44.26,123.54Z" transform="translate(-99.82 -12.79)" style="fill:#999;fill-rule:evenodd;mix-blend-mode:screen;opacity:0.5"/><rect x="156.4" y="278.89" width="6.07" height="0.5" style="fill:#999"/><path d="M195.35,200.32l4.78-21.79s13.27-6.45,19.89-7.46L217,193.76A192.72,192.72,0,0,0,195.35,200.32Z" transform="translate(-99.82 -12.79)" style="fill:#999;fill-rule:evenodd;mix-blend-mode:screen;opacity:0.8"/><polygon points="126.7 179.25 129.67 156.16 140.99 154.35 137.48 178.69 126.7 179.25" style="fill:#999;fill-rule:evenodd;mix-blend-mode:screen;opacity:0.5"/><path d="M221.8,261.13,222.86,237s15.08-1.6,17.95-.23l-1.38,25S227.64,260.51,221.8,261.13Z" transform="translate(-99.82 -12.79)" style="fill:#999;fill-rule:evenodd;mix-blend-mode:screen;opacity:0.2"/><polygon points="82.81 332.17 82.81 314.45 94.36 313.57 94.36 330.96 82.81 332.17" style="fill:#999;fill-rule:evenodd;mix-blend-mode:screen;opacity:0.2"/><path d="M182.62,309.06l-.1-19.4s15.66-4.52,26.53-5l-.71,21S199.08,305.85,182.62,309.06Z" transform="translate(-99.82 -12.79)" style="fill:#999;fill-rule:evenodd;mix-blend-mode:screen;opacity:0.5"/><polygon points="124.73 348.46 124.73 329.62 142.29 329.62 140.99 347.73 124.73 348.46" style="fill:#999;fill-rule:evenodd;mix-blend-mode:screen;opacity:0.5"/><polygon points="115.01 292.44 115.01 271.47 129.32 271.27 127.82 292.44 115.01 292.44" style="fill:#999;fill-rule:evenodd;mix-blend-mode:screen;opacity:0.2"/><path d="M179.59,375.73s-5-49.63-3.07-72.88l112.15,16.73,17.86,56.54Z" transform="translate(-99.82 -12.79)" style="fill:#999;fill-rule:evenodd;mix-blend-mode:screen"/><polygon points="561.27 364.57 559.01 226.8 589.18 112.11 672.93 107.98 640.77 226.08 636.4 364.57 561.27 364.57" style="fill:#d0d0d0;fill-rule:evenodd"/><polygon points="672.93 107.98 660.07 364.57 633.14 364.57 640.77 226.08 672.93 107.98" style="fill:#d0d0d0;fill-rule:evenodd"/><path d="M673.15,377.37l-5.72-311S698,23.66,746.57,51.63L724.26,377.37Z" transform="translate(-99.82 -12.79)" style="fill:#d0d0d0;fill-rule:evenodd"/><path d="M733.83,234.65l30.64-113.47,1.92-30.62c-3.24-35.94-12.75-50.29-17.24-57.32Z" transform="translate(-99.82 -12.79)" style="fill:#d0d0d0;fill-rule:evenodd"/><g style="mix-blend-mode:soft-light"><rect x="679.04" y="55.55" width="0.54" height="321.82" transform="translate(-101.47 -7.53) rotate(-0.44)" style="fill:#d0d0d0"/><rect x="527.41" y="211.51" width="331.18" height="0.54" transform="translate(378.83 891.2) rotate(-89.79)" style="fill:#d0d0d0"/><rect x="543.35" y="209.49" width="335.35" height="0.54" transform="translate(380.96 901.63) rotate(-88.34)" style="fill:#d0d0d0"/><rect x="559.67" y="211.26" width="332.07" height="0.54" transform="matrix(0.05, -1, 1, 0.05, 380.45, 913.69)" style="fill:#d0d0d0"/><path d="M671.7,85.27l-.37-.4c.21-.19,21.4-19.66,69.81-9l-.12.53C692.92,65.8,671.91,85.07,671.7,85.27Z" transform="translate(-99.82 -12.79)" style="fill:#d0d0d0"/><path d="M672.34,113.13l-.41-.35c.14-.17,14.68-16.42,67.39-10.7l-.06.53C686.84,96.93,672.48,113,672.34,113.13Z" transform="translate(-99.82 -12.79)" style="fill:#d0d0d0"/><path d="M673,143.28l-.45-.29c.39-.63,10.36-15.54,64.58-9.53l0,.54C683.31,128,673.14,143.13,673,143.28Z" transform="translate(-99.82 -12.79)" style="fill:#d0d0d0"/><path d="M673.64,171.65l-.38-.38c.15-.16,16.16-15.93,61.91-8.35l-.08.53C689.61,155.92,673.8,171.49,673.64,171.65Z" transform="translate(-99.82 -12.79)" style="fill:#d0d0d0"/><path d="M674.21,199.64l-.27-.47c.23-.13,23.57-13.83,59.07-6.53l-.11.53C697.6,185.91,674.45,199.5,674.21,199.64Z" transform="translate(-99.82 -12.79)" style="fill:#d0d0d0"/><path d="M674.93,232.68l-.23-.48c.2-.1,19.93-9.18,56-4.38l-.07.53C694.73,223.58,675.12,232.59,674.93,232.68Z" transform="translate(-99.82 -12.79)" style="fill:#d0d0d0"/><path d="M675.55,263.36l-.1-.53c.3-.06,30-5.76,53.11-3.43l-.06.53C705.51,257.61,675.85,263.3,675.55,263.36Z" transform="translate(-99.82 -12.79)" style="fill:#d0d0d0"/><path d="M676.09,287l-.12-.53c.21-.05,21.43-4.84,50.91-2.64l0,.53C697.45,282.19,676.3,287,676.09,287Z" transform="translate(-99.82 -12.79)" style="fill:#d0d0d0"/><polygon points="577.21 306.04 577.19 305.5 624.82 303.35 624.84 303.88 577.21 306.04" style="fill:#d0d0d0"/><rect x="577.69" y="339.47" width="44.67" height="0.54" style="fill:#d0d0d0"/><rect x="551.96" y="210.1" width="334.25" height="0.54" transform="translate(380.4 907.71) rotate(-87.72)" style="fill:#d0d0d0"/><rect x="535.03" y="210.1" width="334.04" height="0.54" transform="matrix(0.02, -1, 1, 0.02, 379.14, 895.69)" style="fill:#d0d0d0"/><rect x="684.87" y="51.05" width="0.54" height="326.32" transform="translate(-100.99 -9) rotate(-0.32)" style="fill:#d0d0d0"/></g><polygon points="646.75 38.83 643.08 36.85 620.66 364.57 624.45 364.57 646.75 38.83" style="fill:#d0d0d0;fill-rule:evenodd"/><path d="M667.43,66.34l5.72,311h4.91L671,62.12S667.41,65.05,667.43,66.34Z" transform="translate(-99.82 -12.79)" style="fill:#d0d0d0;fill-rule:evenodd"/><path d="M678.47,159l-3.65,54.49,12.7-1.72V143.14s9.42-3.52,17.46-3.28l-.69,33.6,17.61-.41,3.81-53.66S690.25,46.19,678.47,159Z" transform="translate(-99.82 -12.79)" style="fill:#d0d0d0;fill-rule:evenodd;mix-blend-mode:screen;opacity:0.68"/><path d="M678.06,55.56l1.36,175.2,12.86-2.67,1.44-181.9S682.5,51.07,678.06,55.56Z" transform="translate(-99.82 -12.79)" style="fill:#d0d0d0;fill-rule:evenodd;mix-blend-mode:screen;opacity:0.68"/><path d="M678.06,377.37l-3.24-123.69s8.1-4.12,27.2-4.61l-2.18,84,22.34,3.06-1.7,41.26Z" transform="translate(-99.82 -12.79)" style="fill:#d0d0d0;fill-rule:evenodd;mix-blend-mode:screen;opacity:0.5"/><path d="M678.47,108.19V80.48s16.46-9.09,36.32-7.33l-.64,28A75,75,0,0,0,678.47,108.19Z" transform="translate(-99.82 -12.79)" style="fill:#d0d0d0;fill-rule:evenodd;mix-blend-mode:screen;opacity:0.5"/><path d="M693,162.9l.72-29a57.48,57.48,0,0,1,19.51-1.44l-.81,28.68A62.1,62.1,0,0,0,693,162.9Z" transform="translate(-99.82 -12.79)" style="fill:#d0d0d0;fill-rule:evenodd;mix-blend-mode:screen;opacity:0.5"/><polygon points="610.72 213.89 611.21 177.96 626.86 179.01 624.83 215.29 610.72 213.89" style="fill:#d0d0d0;fill-rule:evenodd;mix-blend-mode:screen;opacity:0.5"/><path d="M679.75,286V262.35s17.12-3.06,29.83-2.69l-.68,23.87A117.71,117.71,0,0,0,679.75,286Z" transform="translate(-99.82 -12.79)" style="fill:#d0d0d0;fill-rule:evenodd;mix-blend-mode:screen;opacity:0.5"/><polygon points="607.18 340.39 608.12 304.37 620.78 303.21 619 339.59 607.18 340.39" style="fill:#d0d0d0;fill-rule:evenodd;mix-blend-mode:screen;opacity:0.5"/><polygon points="561.27 364.57 560.85 287.52 663.61 294.05 660.07 364.57 561.27 364.57" style="fill:#d0d0d0;fill-rule:evenodd;mix-blend-mode:screen"/><path d="M740.11,152s-21.42-63.14-45.44-61.45-21.22,80.9-21.22,80.9h-4.09L667.43,46.19S700,2.24,749.15,33.24Z" transform="translate(-99.82 -12.79)" style="fill:#d0d0d0;fill-rule:evenodd"/><path d="M677.51,377.37h1.8l-1.8-216.26s.55-78.37,26.6-68.08c0,0-30.76-25.66-30.76,69.87Z" transform="translate(-99.82 -12.79)" style="fill:#d0d0d0;fill-rule:evenodd"/><path d="M669.16,146.59h-.5c.1-3.22,2.89-78.84,23.55-84.7,3.18-.91,6.63-.22,10.23,2,17.71,11.12,35.93,58.34,38.89,75.3l-.5.08c-2.94-16.89-21.07-63.9-38.65-75-3.48-2.18-6.79-2.86-9.83-2C672,68.12,669.18,145.81,669.16,146.59Z" transform="translate(-99.82 -12.79)" style="fill:#d0d0d0"/><rect x="592.21" y="14.17" width="0.5" height="35.16" style="fill:#d0d0d0"/><rect x="713.09" y="100.4" width="16.86" height="0.5" transform="translate(332.54 756.52) rotate(-74.56)" style="fill:#d0d0d0"/><polygon points="582.84 103.18 577.24 103.18 572.71 95.52 573.15 95.27 577.53 102.67 582.84 102.67 582.84 103.18" style="fill:#d0d0d0"/><polygon points="661.93 363.96 659.43 167.6 666.34 167.29 679.2 175.22 747.49 174.37 750.56 164.44 756.22 164.44 779.4 193.92 769.75 363.96 661.93 363.96" style="fill:#b9b9b9;fill-rule:evenodd"/><polygon points="756.22 164.44 742.78 363.96 769.75 363.96 779.66 189.47 756.22 164.44" style="fill:#b9b9b9;fill-rule:evenodd"/><polygon points="666.34 167.29 666.34 363.96 678.02 363.96 679.2 175.22 666.34 167.29" style="fill:#b9b9b9;fill-rule:evenodd"/><path d="M779,188s23.88-19.85,68.29-.85L835.56,376.75H777.84Z" transform="translate(-99.82 -12.79)" style="fill:#b9b9b9;fill-rule:evenodd"/><g style="mix-blend-mode:soft-light"><rect x="689.72" y="279.67" width="193.64" height="0.54" transform="translate(395.29 1049.51) rotate(-89.16)" style="fill:#b9b9b9"/><rect x="704.94" y="277.64" width="197.74" height="0.54" transform="translate(405.76 1061.62) rotate(-88.54)" style="fill:#b9b9b9"/><rect x="724.53" y="278.48" width="196.24" height="0.54" transform="translate(405.83 1074.64) rotate(-87.31)" style="fill:#b9b9b9"/><rect x="740.42" y="280.95" width="191.49" height="0.54" transform="translate(398.18 1083.23) rotate(-86.05)" style="fill:#b9b9b9"/><path d="M779.08,204.69l-.33-.43c.21-.16,21.63-16,67.69-2.1l-.15.52C800.52,188.86,779.29,204.53,779.08,204.69Z" transform="translate(-99.82 -12.79)" style="fill:#b9b9b9"/><path d="M778.9,226.78l-.24-.48c.22-.12,23.15-11.42,66.3-.31l-.14.52C801.87,215.45,779.13,226.66,778.9,226.78Z" transform="translate(-99.82 -12.79)" style="fill:#b9b9b9"/><path d="M843.24,252.39c-45-7.77-64.17-.1-64.36,0l-.21-.5c.2-.08,19.53-7.81,64.66,0Z" transform="translate(-99.82 -12.79)" style="fill:#b9b9b9"/><path d="M841.78,277.26c-42.91-7.34-63-.09-63.22,0l-.19-.5c.2-.07,20.42-7.38,63.51,0Z" transform="translate(-99.82 -12.79)" style="fill:#b9b9b9"/><path d="M840.25,300.58c-37.19-6.63-61.62-.08-61.86,0l-.15-.52c.25-.07,24.8-6.65,62.1,0Z" transform="translate(-99.82 -12.79)" style="fill:#b9b9b9"/><path d="M838.84,323.7c-25.8-2.71-41.67-2.36-60.36-.85l0-.54c18.25-1.48,34.73-1.85,60.45.85Z" transform="translate(-99.82 -12.79)" style="fill:#b9b9b9"/><rect x="678.02" y="336.17" width="59.43" height="0.54" style="fill:#b9b9b9"/><rect x="714.46" y="277.19" width="196.71" height="0.54" transform="translate(400.4 1064.63) rotate(-87.5)" style="fill:#b9b9b9"/><rect x="695.44" y="278.53" width="195.93" height="0.54" transform="translate(403.2 1055.24) rotate(-89.16)" style="fill:#b9b9b9"/><rect x="733.49" y="279.66" width="193.97" height="0.54" transform="translate(400.2 1078.83) rotate(-86.48)" style="fill:#b9b9b9"/></g><path d="M779,188l-.24,127.25,16-1.08,1.92-56.39s11.84-1.63,18.32,0v26.84l14.72.72L833,216.44l7.28-1.65L841.83,188S811.89,168.18,779,188Z" transform="translate(-99.82 -12.79)" style="fill:#b9b9b9;fill-rule:evenodd;mix-blend-mode:screen;opacity:0.68"/><polygon points="722.84 363.96 729.92 275.73 741.21 275.73 735.75 363.96 722.84 363.96" style="fill:#b9b9b9;fill-rule:evenodd;mix-blend-mode:screen;opacity:0.5"/><polygon points="678.02 363.96 678.02 248.89 696.76 248.89 692.09 363.96 678.02 363.96" style="fill:#b9b9b9;fill-rule:evenodd;mix-blend-mode:screen;opacity:0.5"/><path d="M786,298.82l.52-23.71s12.45-1.44,17.28-1.42l-.49,23.63A107.73,107.73,0,0,0,786,298.82Z" transform="translate(-99.82 -12.79)" style="fill:#b9b9b9;fill-rule:evenodd;mix-blend-mode:screen;opacity:0.2"/><path d="M804.55,248.62l.68-27.28s15.42-.24,20,1.32l-1.32,26.88A80.11,80.11,0,0,0,804.55,248.62Z" transform="translate(-99.82 -12.79)" style="fill:#b9b9b9;fill-rule:evenodd;mix-blend-mode:screen;opacity:0.2"/><polygon points="702.22 336.44 702.22 308.65 719.42 309.63 719.37 337.54 702.22 336.44" style="fill:#b9b9b9;fill-rule:evenodd;mix-blend-mode:screen;opacity:0.5"/><polygon points="661.93 363.96 661.19 305.77 772.89 308.63 769.75 363.96 661.93 363.96" style="fill:#b9b9b9;fill-rule:evenodd;mix-blend-mode:screen"/><path d="M340.65,253.16s4.06,5.06,46.37,5.06,53.69-4.05,53.69-4.05-16.6-13.45-51.21-13.45S340.65,253.16,340.65,253.16Z" transform="translate(-99.82 -12.79)" style="fill:#bbb;fill-rule:evenodd"/><path d="M347.74,264.56l1.39-10.41s14.52-6.25,42.65-6.25c31.13,0,41.33,7.29,41.33,7.29l.51,13.19Z" transform="translate(-99.82 -12.79)" style="fill:#bbb;fill-rule:evenodd"/><path d="M314.64,350.75l-11,25.37h99.32S369.15,339.55,314.64,350.75Z" transform="translate(-99.82 -12.79)" style="fill:#bbb;fill-rule:evenodd"/><path d="M309,351.63S321.89,321,386.9,321s125.77,55.09,125.77,55.09H394.56S366.9,341.3,309,351.63Z" transform="translate(-99.82 -12.79)" style="fill:#bbb;fill-rule:evenodd"/><path d="M317.22,341.29a78.65,78.65,0,0,1,21.58-3.14,91.2,91.2,0,0,1,21.71,2.36A93.67,93.67,0,0,1,371,343.59c3.45,1.2,6.75,2.77,10.14,4.09a146.91,146.91,0,0,0,20.78,6.55,118.65,118.65,0,0,0,21.55,3,80.7,80.7,0,0,0,21.64-1.8,40.5,40.5,0,0,0,10.17-3.71,14.77,14.77,0,0,0,2.22-1.52,3.13,3.13,0,0,0,1.33-2.12c.16-1.76-.87-3.42-2-4.78a37.53,37.53,0,0,0-8.45-6.78,89.77,89.77,0,0,0-9.61-5.18,89.07,89.07,0,0,1,9.71,5,35.76,35.76,0,0,1,8.62,6.72,10.94,10.94,0,0,1,1.54,2.31,5.16,5.16,0,0,1,.57,2.74,2.77,2.77,0,0,1-.14.72,2.82,2.82,0,0,1-.35.64,5.59,5.59,0,0,1-1,1,14.58,14.58,0,0,1-2.27,1.57,40.34,40.34,0,0,1-10.27,3.81,80.92,80.92,0,0,1-21.78,1.92,112.29,112.29,0,0,1-21.67-3A147.26,147.26,0,0,1,381,348.18c-3.4-1.35-6.68-2.93-10.11-4.13a92.84,92.84,0,0,0-32.05-5.6A78.68,78.68,0,0,0,317.22,341.29Z" transform="translate(-99.82 -12.79)" style="fill:#bbb"/><path d="M309,351.63l5.64,1.29s45.13-10.8,79.92,23.2C394.56,376.12,367.83,340.26,309,351.63Z" transform="translate(-99.82 -12.79)" style="fill:#bbb;fill-rule:evenodd"/><path d="M312,356.74l-8.42,19.38h57.06l-.71-3.21S340.89,356.74,312,356.74Z" transform="translate(-99.82 -12.79)" style="fill:#bbb;fill-rule:evenodd;mix-blend-mode:screen;opacity:0.30000000000000004"/><path d="M424.89,376.12s6.3-11,26.79-11.94,38,11.94,38,11.94Z" transform="translate(-99.82 -12.79)" style="fill:#bbb;fill-rule:evenodd"/><path d="M435.46,367.75s19.48-7.94,43.79,8.37h10.46S461.22,355.57,435.46,367.75Z" transform="translate(-99.82 -12.79)" style="fill:#bbb;fill-rule:evenodd"/><path d="M341.77,265.85s10,16.38,42.45,20.38h9.7s35-4,45-20.38c0,0-16.17-5.44-50.75-5.44S341.77,265.85,341.77,265.85Z" transform="translate(-99.82 -12.79)" style="fill:#bbb;fill-rule:evenodd"/><path d="M341.77,265.85s10.28,13,34.33,12.46a84.55,84.55,0,0,0,44-13.86s-14-3.45-42.87-4c0,0,36.66-1.5,61.65,5.44,0,0-5.4,10.13-26.89,16.75l-43.65.26S348.7,277.2,341.77,265.85Z" transform="translate(-99.82 -12.79)" style="fill:#bbb;fill-rule:evenodd;mix-blend-mode:multiply;opacity:0.5"/><path d="M340.65,253.16s15.44-60.08,49.49-60.08,50.57,61.09,50.57,61.09C413.07,241.84,365.64,242.52,340.65,253.16Z" transform="translate(-99.82 -12.79)" style="fill:#bbb;fill-rule:evenodd"/><path d="M396.3,323l-15.56-1.27L381.86,304l.39-6.24v-.12l.54-8.61,0-.33.15-2.44s7.16-2.91,12.5,0l.06,2.46V289l.2,8.76v.07l.31,13.92Z" transform="translate(-99.82 -12.79)" style="fill:#bbb;fill-rule:evenodd"/><path d="M412,282.6l-1.13,8h0l-.28.2a3.56,3.56,0,0,1-.36.25l-.5.33-.46.3a80.63,80.63,0,0,1-13.52,6l-1.3.45-.1,0H384.24c-.66-.12-1.32-.29-2-.48a47.86,47.86,0,0,1-8.44-3.43c-2.76-1.39-4.84-2.68-5.39-3l-.09-.06,0,0h0v0l.08-8.3a81.2,81.2,0,0,1,21.22-2.58C405,280.28,412,282.6,412,282.6Z" transform="translate(-99.82 -12.79)" style="fill:#bbb;fill-rule:evenodd"/><path d="M410.86,290.63h0l-.28.2a3.56,3.56,0,0,1-.36.25l-.5.33-.46.3a57.3,57.3,0,0,1-13.51,6.08l-1.31.38-.1,0H384.24c-.15,0-.88-.25-2-.6a76.59,76.59,0,0,1-8.45-3.31,37.25,37.25,0,0,1-5.39-3l-.09-.06,0,0h0A67.64,67.64,0,0,1,382.8,289a116.2,116.2,0,0,1,12.73,0A137,137,0,0,1,410.86,290.63Z" transform="translate(-99.82 -12.79)" style="fill:#bbb;fill-rule:evenodd;mix-blend-mode:multiply;opacity:0.5"/><path d="M437,243.13s-12.13-10.82-48.9-7.93c-28.64,2.26-11.92-38.26,8.16-37.59S428.35,223,437,243.13Z" transform="translate(-99.82 -12.79)" style="fill:#bbb;fill-rule:evenodd"/><path d="M410.87,290.62h0l-.28.2a3.56,3.56,0,0,1-.36.25l-.5.33-.46.3a57.3,57.3,0,0,1-13.51,6.08l.31,13.92C391.24,305,381.86,304,381.86,304l.39-6.24a47.86,47.86,0,0,1-8.44-3.43,37.25,37.25,0,0,1-5.39-3l-.09-.06,0,0v0h0a63.87,63.87,0,0,1,14.55-2.49,101.42,101.42,0,0,1,12.71,0A114.71,114.71,0,0,1,410.87,290.62Z" transform="translate(-99.82 -12.79)" style="fill:#bbb;fill-rule:evenodd;mix-blend-mode:multiply;opacity:0.5"/><path d="M337.85,329s16-7.81,47.21,2.44c34.89,11.47,59.48,9.3,41.47-4.16C426.53,327.23,388.14,311.73,337.85,329Z" transform="translate(-99.82 -12.79)" style="fill:#bbb;fill-rule:evenodd"/><polygon points="289.52 180.3 291.29 118.49 292.22 118.49 292.22 180.28 289.52 180.3" style="fill:#bbb;fill-rule:evenodd"/><g style="mix-blend-mode:soft-light"><path d="M423.32,216.7c-17.56-12.79-45.76-6.62-46.05-6.55l-.07-.33c.28-.06,28.64-6.28,46.32,6.6Z" transform="translate(-99.82 -12.79)" style="fill:#bbb"/><path d="M430.81,229c-23.55-10.62-57.61-5.42-57.95-5.37l-.05-.33c.34-.05,34.49-5.26,58.14,5.39Z" transform="translate(-99.82 -12.79)" style="fill:#bbb"/><path d="M429.19,239.14a122.6,122.6,0,0,0-18.46-36.21l.27-.21A122.85,122.85,0,0,1,429.51,239Z" transform="translate(-99.82 -12.79)" style="fill:#bbb"/><path d="M410.7,235.21c-4.44-23.65-10.46-37.17-10.52-37.31l.3-.14c.06.14,6.1,13.69,10.55,37.39Z" transform="translate(-99.82 -12.79)" style="fill:#bbb"/><path d="M393.49,234.88c-1.1-12.91-5.09-35.26-5.13-35.49l.33-.06c0,.23,4,22.59,5.14,35.52Z" transform="translate(-99.82 -12.79)" style="fill:#bbb"/></g><path d="M433.11,255.19l.36,9.26s-28.53-20-84.34-10.3c0,0,11.53-6.25,42.65-6.25S433.11,255.19,433.11,255.19Z" transform="translate(-99.82 -12.79)" style="fill:#bbb;fill-rule:evenodd;mix-blend-mode:multiply;opacity:0.5"/><path d="M374.46,230.09s15.87-2.85,27.4-.74l-5.56-31.74s-9.3-1.31-17.48,10.06S372.66,227.93,374.46,230.09Z" transform="translate(-99.82 -12.79)" style="fill:#bbb;fill-rule:evenodd;mix-blend-mode:screen;opacity:0.5"/><path d="M340.65,253.16s18.26-9.83,55.37-14.07c34.21-3.91,21.68-36.45,4.31-44.11,0,0,23.35,8.45,38.56,57.91l-5.76,2.84c-3.78-3.59-21.91-7.73-44.61-7.8-13.58,0-35,5-39.62,7.94C346.35,255.4,340.22,253.55,340.65,253.16Z" transform="translate(-99.82 -12.79)" style="fill:#bbb;fill-rule:evenodd;mix-blend-mode:multiply;opacity:0.5"/><path d="M309,351.63s29-19,56.72-7.11c30.58,13.13,42.36,19.67,78.95,17.26,23.6-1.55,30.89-12.38,30.89-12.38s27.39,17.67,37.11,26.72H394.56S375,354,346.4,351.14,309,351.63,309,351.63Z" transform="translate(-99.82 -12.79)" style="fill:#bbb;fill-rule:evenodd;mix-blend-mode:multiply;opacity:0.30000000000000004"/><path d="M333.74,337.42s10.37-7.91,19.54-11.29c0,0,18-.4,31.78,5.26l-13.95,10.94S357.19,333.45,333.74,337.42Z" transform="translate(-99.82 -12.79)" style="fill:#bbb;fill-rule:evenodd;mix-blend-mode:soft-light"/><path d="M316.24,349.69l14.64-9.93s19.08-2.63,37.82,4.76l-9.3,7.9S337.51,346.65,316.24,349.69Z" transform="translate(-99.82 -12.79)" style="fill:#bbb;fill-rule:evenodd;mix-blend-mode:soft-light"/></g></g></svg>