<svg xmlns="http://www.w3.org/2000/svg" viewBox="0 0 1904.52 514.92"><g style="isolation:isolate"><g id="Layer_1" data-name="Layer 1"><polygon points="1703.03 4.73 1697.97 4.73 1695.44 9.11 1697.97 13.49 1703.03 13.49 1705.56 9.11 1703.03 4.73" style="fill:#d1d3d4;mix-blend-mode:multiply"/><polygon points="1763.46 79.23 1755.03 79.23 1750.82 86.53 1755.03 93.83 1763.46 93.83 1767.68 86.53 1763.46 79.23" style="fill:#d1d3d4;mix-blend-mode:multiply"/><polygon points="1805.68 68.57 1785.28 68.57 1775.08 86.24 1785.28 103.91 1805.68 103.91 1815.88 86.24 1805.68 68.57" style="fill:#d1d3d4;mix-blend-mode:multiply"/><polygon points="1785.26 23.37 1778.57 23.37 1775.22 29.17 1778.57 34.97 1785.26 34.97 1788.61 29.17 1785.26 23.37" style="fill:#d1d3d4;mix-blend-mode:multiply"/><polygon points="1537.7 4.67 1531.43 4.67 1528.3 10.1 1531.43 15.53 1537.7 15.53 1540.84 10.1 1537.7 4.67" style="fill:#d1d3d4;mix-blend-mode:multiply"/><polygon points="1679.91 41.52 1650.1 41.52 1635.19 67.34 1650.1 93.16 1679.91 93.16 1694.81 67.34 1679.91 41.52" style="fill:#d1d3d4;mix-blend-mode:multiply"/><polygon points="1681.11 6.75 1675.11 6.75 1672.11 11.94 1675.11 17.14 1681.11 17.14 1684.11 11.94 1681.11 6.75" style="fill:#d1d3d4;mix-blend-mode:multiply"/><polygon points="1889.35 76.95 1885.77 76.95 1883.99 80.04 1885.77 83.13 1889.35 83.13 1891.13 80.04 1889.35 76.95" style="fill:#d1d3d4;mix-blend-mode:multiply"/><polygon points="1467.16 24.56 1462.91 24.56 1460.79 28.24 1462.91 31.92 1467.16 31.92 1469.29 28.24 1467.16 24.56" style="fill:#d1d3d4;mix-blend-mode:multiply"/><polygon points="1709.31 26.35 1705.14 26.35 1703.05 29.96 1705.14 33.57 1709.31 33.57 1711.39 29.96 1709.31 26.35" style="fill:#d1d3d4;mix-blend-mode:multiply"/><polygon points="1620.06 41.97 1602.74 41.97 1594.08 56.97 1602.74 71.97 1620.06 71.97 1628.72 56.97 1620.06 41.97" style="fill:#d1d3d4;mix-blend-mode:multiply"/><polygon points="1801.39 120.97 1775.84 120.97 1763.07 143.1 1775.84 165.22 1801.39 165.22 1814.16 143.1 1801.39 120.97" style="fill:#d1d3d4;mix-blend-mode:multiply"/><polygon points="1850.92 95.07 1832.04 95.07 1822.6 111.42 1832.04 127.77 1850.92 127.77 1860.36 111.42 1850.92 95.07" style="fill:#d1d3d4;mix-blend-mode:multiply"/><polygon points="1831.91 4.5 1827.95 4.5 1825.97 7.93 1827.95 11.36 1831.91 11.36 1833.89 7.93 1831.91 4.5" style="fill:#d1d3d4;mix-blend-mode:multiply"/><polygon points="1752.84 70.14 1725.87 70.14 1712.39 93.49 1725.87 116.85 1752.84 116.85 1766.32 93.49 1752.84 70.14" style="fill:#d1d3d4;mix-blend-mode:multiply"/><polygon points="1845.19 131.03 1839.11 131.03 1836.07 136.3 1839.11 141.57 1845.19 141.57 1848.23 136.3 1845.19 131.03" style="fill:#d1d3d4;mix-blend-mode:multiply"/><polygon points="1819.58 43.24 1791.4 43.24 1777.32 67.64 1791.4 92.04 1819.58 92.04 1833.66 67.64 1819.58 43.24" style="fill:#d1d3d4;mix-blend-mode:multiply"/><polygon points="1857.43 64.12 1829.47 64.12 1815.5 88.33 1829.47 112.53 1857.43 112.53 1871.4 88.33 1857.43 64.12" style="fill:#d1d3d4;mix-blend-mode:multiply"/><polygon points="1782.54 59.36 1767.01 59.36 1759.24 72.81 1767.01 86.26 1782.54 86.26 1790.31 72.81 1782.54 59.36" style="fill:#d1d3d4;mix-blend-mode:multiply"/><polygon points="1743.04 20.03 1728.02 20.03 1720.51 33.04 1728.02 46.05 1743.04 46.05 1750.56 33.04 1743.04 20.03" style="fill:#d1d3d4;mix-blend-mode:multiply"/><g style="mix-blend-mode:multiply"><path d="M1832.58,107.55l11,19-11,19h-21.94l-11-19,11-19h21.94m.83-1.43h-23.59L1798,126.55,1809.82,147h23.59l11.79-20.43-11.79-20.43Z" transform="translate(0.52 -0.31)" style="fill:#d1d3d4"/></g><g style="mix-blend-mode:multiply"><path d="M1834.59,74.23l14.11,24.44-14.11,24.43h-28.21l-14.11-24.43,14.11-24.44h28.21m1.06-1.83h-30.33l-15.17,26.27,15.17,26.27h30.33l15.17-26.27L1835.65,72.4Z" transform="translate(0.52 -0.31)" style="fill:#d1d3d4"/></g><g style="mix-blend-mode:multiply"><path d="M1865.3,92.79l2.35,4.07-2.35,4.07h-4.69l-2.35-4.07,2.35-4.07h4.69m.18-.3h-5l-2.52,4.37,2.52,4.37h5l2.52-4.37-2.52-4.37Z" transform="translate(0.52 -0.31)" style="fill:#d1d3d4"/></g><g style="mix-blend-mode:multiply"><path d="M1565.3,7.58l4,6.94-4,6.93h-8l-4-6.93,4-6.94h8m.3-.52H1557l-4.31,7.46L1557,22h8.61l4.3-7.45-4.3-7.46Z" transform="translate(0.52 -0.31)" style="fill:#d1d3d4"/></g><g style="mix-blend-mode:multiply"><path d="M1524.72,25.42l1.68,2.9-1.68,2.91h-3.35l-1.68-2.91,1.68-2.9h3.35m.12-.22h-3.6l-1.8,3.12,1.8,3.12h3.6l1.81-3.12-1.81-3.12Z" transform="translate(0.52 -0.31)" style="fill:#d1d3d4"/></g><g style="mix-blend-mode:multiply"><path d="M1829.44,4.35l11.72,20.3L1829.44,45H1806l-11.72-20.31L1806,4.35h23.45m.88-1.52h-25.21l-12.6,21.82,12.6,21.83h25.21l12.6-21.83-12.6-21.82Z" transform="translate(0.52 -0.31)" style="fill:#d1d3d4"/></g><g style="mix-blend-mode:multiply"><path d="M1405.26,10.71l1.85,3.21-1.85,3.2h-3.7l-1.85-3.2,1.85-3.21h3.7m.14-.24h-4l-2,3.45,2,3.44h4l2-3.44-2-3.45Z" transform="translate(0.52 -0.31)" style="fill:#d1d3d4"/></g><g style="mix-blend-mode:multiply"><path d="M1757.89,32.66l2.06,3.57-2.06,3.57h-4.12l-2.06-3.57,2.06-3.57h4.12m.15-.27h-4.43l-2.21,3.84,2.21,3.83H1758l2.22-3.83L1758,32.39Z" transform="translate(0.52 -0.31)" style="fill:#d1d3d4"/></g><g style="mix-blend-mode:multiply"><path d="M1860.89,7.65l2.17,3.77-2.17,3.76h-4.35l-2.17-3.76,2.17-3.77h4.35m.16-.28h-4.67L1854,11.42l2.34,4.05h4.67l2.34-4.05-2.34-4Z" transform="translate(0.52 -0.31)" style="fill:#d1d3d4"/></g><g style="mix-blend-mode:multiply"><path d="M1657.52,43l2.86,4.94-2.86,5h-5.71l-2.85-5,2.85-4.94h5.71m.22-.37h-6.14l-3.07,5.31,3.07,5.32h6.14l3.06-5.32-3.06-5.31Z" transform="translate(0.52 -0.31)" style="fill:#d1d3d4"/></g><g style="mix-blend-mode:multiply"><path d="M1834.52,49.2l3.28,5.66-3.28,5.67H1828l-3.27-5.67L1828,49.2h6.54m.25-.43h-7l-3.52,6.09,3.52,6.1h7l3.52-6.1-3.52-6.09Z" transform="translate(0.52 -0.31)" style="fill:#d1d3d4"/></g><g style="mix-blend-mode:multiply"><path d="M1901.26,93.92l2.38,4.13-2.38,4.13h-4.77l-2.38-4.13,2.38-4.13h4.77m.18-.31h-5.13l-2.56,4.44,2.56,4.44h5.13l2.56-4.44-2.56-4.44Z" transform="translate(0.52 -0.31)" style="fill:#d1d3d4"/></g><g style="mix-blend-mode:multiply"><path d="M1555.42,31l2.63,4.55-2.63,4.56h-5.26l-2.63-4.56,2.63-4.55h5.26m.2-.35H1550l-2.83,4.9,2.83,4.9h5.65l2.83-4.9-2.83-4.9Z" transform="translate(0.52 -0.31)" style="fill:#d1d3d4"/></g><g style="mix-blend-mode:multiply"><path d="M1719,51.23l14.49,25.1L1719,101.44h-29l-14.49-25.11L1690,51.23h29m1.09-1.88H1688.9l-15.58,27,15.58,27h31.16l15.58-27-15.58-27Z" transform="translate(0.52 -0.31)" style="fill:#d1d3d4"/></g><g style="mix-blend-mode:multiply"><path d="M1797.71,85.07,1809.22,105l-11.51,19.93h-23L1763.19,105l11.51-19.93h23m.86-1.5h-24.74L1761.46,105l12.37,21.42h24.74L1810.94,105l-12.37-21.43Z" transform="translate(0.52 -0.31)" style="fill:#d1d3d4"/></g><g style="mix-blend-mode:multiply"><path d="M1583.11,24.66l3.9,6.76-3.9,6.75h-7.8l-3.9-6.75,3.9-6.76h7.8m.29-.51H1575l-4.2,7.27,4.2,7.26h8.38l4.2-7.26-4.2-7.27Z" transform="translate(0.52 -0.31)" style="fill:#d1d3d4"/></g><g style="mix-blend-mode:multiply"><path d="M1873.22,15.44l13.85,24-13.85,24h-27.7l-13.85-24,13.85-24h27.7m1-1.8h-29.78l-14.89,25.79,14.89,25.78h29.78l14.89-25.78-14.89-25.79Z" transform="translate(0.52 -0.31)" style="fill:#d1d3d4"/></g><g style="mix-blend-mode:multiply"><path d="M1498.36,2.07l7.84,13.58-7.84,13.58h-15.68l-7.84-13.58,7.84-13.58h15.68m.59-1h-16.86l-8.43,14.6,8.43,14.6H1499l8.43-14.6L1499,1.05Z" transform="translate(0.52 -0.31)" style="fill:#d1d3d4"/></g><g style="mix-blend-mode:multiply"><path d="M1891.17,146.12l1.81,3.13-1.81,3.13h-3.62l-1.81-3.13,1.81-3.13h3.62m.14-.24h-3.89l-2,3.37,2,3.37h3.89l1.94-3.37-1.94-3.37Z" transform="translate(0.52 -0.31)" style="fill:#d1d3d4"/></g><g style="mix-blend-mode:multiply"><path d="M1884.61,103.34l1.68,2.92-1.68,2.91h-3.37l-1.68-2.91,1.68-2.92h3.37m.12-.22h-3.62l-1.8,3.14,1.8,3.13h3.62l1.81-3.13-1.81-3.14Z" transform="translate(0.52 -0.31)" style="fill:#d1d3d4"/></g><g style="mix-blend-mode:multiply"><path d="M1672.12,2.82l14,24.31-14,24.31h-28.07l-14-24.31,14-24.31h28.07M1673.17,1H1643l-15.09,26.13L1643,53.27h30.17l15.09-26.14L1673.17,1Z" transform="translate(0.52 -0.31)" style="fill:#d1d3d4"/></g><g style="mix-blend-mode:multiply"><path d="M1721.08,98.76l6.71,11.63L1721.08,122h-13.44l-6.72-11.63,6.72-11.63h13.44m.5-.88h-14.44l-7.22,12.51,7.22,12.51h14.44l7.22-12.51-7.22-12.51Z" transform="translate(0.52 -0.31)" style="fill:#d1d3d4"/></g><g style="mix-blend-mode:multiply"><path d="M1683.94,35.63l2.44,4.23-2.44,4.22h-4.88l-2.43-4.22,2.43-4.23h4.88m.18-.31h-5.24l-2.62,4.54,2.62,4.54h5.24l2.62-4.54-2.62-4.54Z" transform="translate(0.52 -0.31)" style="fill:#d1d3d4"/></g><g style="mix-blend-mode:multiply"><path d="M1688.89,65.08l6.39,11.08-6.39,11.08h-12.8l-6.39-11.08,6.39-11.08h12.8m.48-.83h-13.76l-6.87,11.91,6.87,11.91h13.76l6.87-11.91-6.87-11.91Z" transform="translate(0.52 -0.31)" style="fill:#d1d3d4"/></g><g style="mix-blend-mode:multiply"><path d="M1612,11.89l13.77,23.85L1612,59.58h-27.53l-13.77-23.84,13.77-23.85H1612m1-1.79h-29.6l-14.8,25.64,14.8,25.63h29.6l14.8-25.63-14.8-25.64Z" transform="translate(0.52 -0.31)" style="fill:#d1d3d4"/></g><g style="mix-blend-mode:multiply"><path d="M1778.4,37.63l8.45,14.64L1778.4,66.9h-16.9l-8.45-14.63,8.45-14.64h16.9m.64-1.1h-18.17l-9.09,15.74L1760.87,68H1779l9.08-15.73L1779,36.53Z" transform="translate(0.52 -0.31)" style="fill:#d1d3d4"/></g><g style="mix-blend-mode:multiply"><path d="M1758.71,91.09l14.56,25.23-14.56,25.24h-29.14L1715,116.32l14.56-25.23h29.14m1.09-1.89h-31.32l-15.66,27.12,15.66,27.13h31.32l15.66-27.13L1759.8,89.2Z" transform="translate(0.52 -0.31)" style="fill:#d1d3d4"/></g><g style="mix-blend-mode:multiply"><path d="M1882.17,29.78l2.41,4.18-2.41,4.18h-4.83L1874.92,34l2.42-4.18h4.83m.18-.31h-5.19l-2.6,4.49,2.6,4.5h5.19l2.59-4.5-2.59-4.49Z" transform="translate(0.52 -0.31)" style="fill:#d1d3d4"/></g><g style="mix-blend-mode:multiply"><path d="M1724.12,33.85,1736.34,55l-12.22,21.17h-24.44L1687.46,55l12.22-21.17h24.44m.92-1.58h-26.27L1685.63,55l13.14,22.76H1725L1738.18,55,1725,32.27Z" transform="translate(0.52 -0.31)" style="fill:#d1d3d4"/></g><g style="mix-blend-mode:multiply"><path d="M1630.78,2.91,1643.54,25l-12.76,22.11h-25.54L1592.47,25l12.77-22.12h25.54m1-1.66h-27.45L1590.55,25l13.73,23.77h27.45L1645.46,25,1631.73,1.25Z" transform="translate(0.52 -0.31)" style="fill:#d1d3d4"/></g><g style="mix-blend-mode:multiply"><path d="M1592.41,8.71a.7.7,0,0,1-.7.7.7.7,0,0,1-.71-.7.71.71,0,0,1,.71-.71A.7.7,0,0,1,1592.41,8.71Z" transform="translate(0.52 -0.31)" style="fill:#d1d3d4"/></g><g style="mix-blend-mode:multiply"><path d="M1693.39,100.44a1.33,1.33,0,1,1-1.33-1.33A1.33,1.33,0,0,1,1693.39,100.44Z" transform="translate(0.52 -0.31)" style="fill:#d1d3d4"/></g><g style="mix-blend-mode:multiply"><circle cx="1898.6" cy="21.56" r="1.85" style="fill:#d1d3d4"/></g><g style="mix-blend-mode:multiply"><path d="M1461.15,7.21a.4.4,0,0,1-.79,0,.4.4,0,0,1,.79,0Z" transform="translate(0.52 -0.31)" style="fill:#d1d3d4"/></g><g style="mix-blend-mode:multiply"><path d="M1749.17,150.92a2.72,2.72,0,1,1-2.72-2.72A2.72,2.72,0,0,1,1749.17,150.92Z" transform="translate(0.52 -0.31)" style="fill:#d1d3d4"/></g><g style="mix-blend-mode:multiply"><path d="M1425.82,8.25a1.14,1.14,0,1,1-1.14-1.14A1.14,1.14,0,0,1,1425.82,8.25Z" transform="translate(0.52 -0.31)" style="fill:#d1d3d4"/></g><g style="mix-blend-mode:multiply"><path d="M1803.75,118.35a.6.6,0,0,1-1.2,0,.6.6,0,0,1,1.2,0Z" transform="translate(0.52 -0.31)" style="fill:#d1d3d4"/></g><g style="mix-blend-mode:multiply"><path d="M1724.4,12.58a.38.38,0,0,1-.37.37.37.37,0,0,1-.36-.37.36.36,0,0,1,.36-.36A.37.37,0,0,1,1724.4,12.58Z" transform="translate(0.52 -0.31)" style="fill:#d1d3d4"/></g><g style="mix-blend-mode:multiply"><circle cx="1796.41" cy="11.22" r="0.53" style="fill:#d1d3d4"/></g><g style="mix-blend-mode:multiply"><circle cx="1507.95" cy="6.84" r="0.78" style="fill:#d1d3d4"/></g><g style="mix-blend-mode:multiply"><path d="M1766.72,134.32a.35.35,0,1,1-.69,0,.35.35,0,1,1,.69,0Z" transform="translate(0.52 -0.31)" style="fill:#d1d3d4"/></g><g style="mix-blend-mode:multiply"><path d="M1542.34,51.61a.8.8,0,0,1-1.6,0,.8.8,0,0,1,1.6,0Z" transform="translate(0.52 -0.31)" style="fill:#d1d3d4"/></g><g style="mix-blend-mode:multiply"><path d="M1791.85,52.66a.39.39,0,1,1-.38-.38A.38.38,0,0,1,1791.85,52.66Z" transform="translate(0.52 -0.31)" style="fill:#d1d3d4"/></g><g style="mix-blend-mode:multiply"><circle cx="1742.03" cy="6.62" r="1.57" style="fill:#d1d3d4"/></g><g style="mix-blend-mode:multiply"><path d="M1853.36,69a1.07,1.07,0,1,1-1.07-1.07A1.06,1.06,0,0,1,1853.36,69Z" transform="translate(0.52 -0.31)" style="fill:#d1d3d4"/></g><g style="mix-blend-mode:multiply"><path d="M1615.53,83.67a1.42,1.42,0,1,1-1.41-1.41A1.41,1.41,0,0,1,1615.53,83.67Z" transform="translate(0.52 -0.31)" style="fill:#d1d3d4"/></g><g style="mix-blend-mode:multiply"><path d="M1766.63,107.32a.5.5,0,0,1-1,0,.5.5,0,1,1,1,0Z" transform="translate(0.52 -0.31)" style="fill:#d1d3d4"/></g><g style="mix-blend-mode:multiply"><path d="M1896.3,46.92a.65.65,0,0,1-1.3,0,.65.65,0,0,1,1.3,0Z" transform="translate(0.52 -0.31)" style="fill:#d1d3d4"/></g><g style="mix-blend-mode:multiply"><path d="M1442.14,18.86a2.07,2.07,0,1,1-2.07-2.07A2.07,2.07,0,0,1,1442.14,18.86Z" transform="translate(0.52 -0.31)" style="fill:#d1d3d4"/></g><g style="mix-blend-mode:multiply"><path d="M1865.63,147.84a2.6,2.6,0,1,1-2.6-2.6A2.59,2.59,0,0,1,1865.63,147.84Z" transform="translate(0.52 -0.31)" style="fill:#d1d3d4"/></g><g style="mix-blend-mode:multiply"><path d="M1635.47,16.91a.56.56,0,1,1-.56-.55A.56.56,0,0,1,1635.47,16.91Z" transform="translate(0.52 -0.31)" style="fill:#d1d3d4"/></g><g style="mix-blend-mode:multiply"><path d="M1745.05,64.88a1.8,1.8,0,1,1-1.8-1.8A1.81,1.81,0,0,1,1745.05,64.88Z" transform="translate(0.52 -0.31)" style="fill:#d1d3d4"/></g><g style="mix-blend-mode:multiply"><path d="M1839.74,154.62a.39.39,0,1,1-.77,0,.39.39,0,1,1,.77,0Z" transform="translate(0.52 -0.31)" style="fill:#d1d3d4"/></g><g style="mix-blend-mode:multiply"><path d="M1653.87,7.2a2.06,2.06,0,1,1-2.06-2A2.06,2.06,0,0,1,1653.87,7.2Z" transform="translate(0.52 -0.31)" style="fill:#d1d3d4"/></g><g style="mix-blend-mode:multiply"><path d="M1894.38,128a.36.36,0,1,1-.36-.36A.36.36,0,0,1,1894.38,128Z" transform="translate(0.52 -0.31)" style="fill:#d1d3d4"/></g><g style="mix-blend-mode:multiply"><path d="M1825,76.61a1,1,0,1,1-1-1A.95.95,0,0,1,1825,76.61Z" transform="translate(0.52 -0.31)" style="fill:#d1d3d4"/></g><g style="mix-blend-mode:multiply"><circle cx="1721.26" cy="86.44" r="1.85" style="fill:#d1d3d4"/></g><g style="mix-blend-mode:multiply"><path d="M1900.11,65.72a.48.48,0,1,1-.47-.48A.47.47,0,0,1,1900.11,65.72Z" transform="translate(0.52 -0.31)" style="fill:#d1d3d4"/></g><g style="mix-blend-mode:multiply"><circle cx="1839.76" cy="30.42" r="0.42" style="fill:#d1d3d4"/></g><g style="mix-blend-mode:multiply"><path d="M1866.53,123.75a.49.49,0,1,1-.49-.49A.49.49,0,0,1,1866.53,123.75Z" transform="translate(0.52 -0.31)" style="fill:#d1d3d4"/></g><g style="mix-blend-mode:multiply"><circle cx="1885" cy="9.45" r="0.97" style="fill:#d1d3d4"/></g><g style="mix-blend-mode:multiply"><path d="M1875.4,62.75a.89.89,0,1,1-.89-.88A.88.88,0,0,1,1875.4,62.75Z" transform="translate(0.52 -0.31)" style="fill:#d1d3d4"/></g><g style="mix-blend-mode:multiply"><path d="M1815.64,148.87a.32.32,0,0,1-.32.32.32.32,0,0,1-.33-.32.33.33,0,0,1,.33-.33A.32.32,0,0,1,1815.64,148.87Z" transform="translate(0.52 -0.31)" style="fill:#d1d3d4"/></g><g style="mix-blend-mode:multiply"><circle cx="1633.86" cy="50.78" r="1.64" style="fill:#d1d3d4"/></g><g style="mix-blend-mode:multiply"><circle cx="1809.61" cy="41.92" r="0.4" style="fill:#d1d3d4"/></g><g style="mix-blend-mode:multiply"><path d="M1763.89,11a1.16,1.16,0,1,1-1.16-1.17A1.16,1.16,0,0,1,1763.89,11Z" transform="translate(0.52 -0.31)" style="fill:#d1d3d4"/></g><polygon points="40.78 385.48 37.61 385.48 36.02 388.22 37.61 390.96 40.78 390.96 42.36 388.22 40.78 385.48" style="fill:#d1d3d4;mix-blend-mode:multiply"/><polygon points="107.52 385.74 104.17 385.74 102.5 388.63 104.17 391.53 107.52 391.53 109.19 388.63 107.52 385.74" style="fill:#d1d3d4;mix-blend-mode:multiply"/><polygon points="118.27 421.37 98.28 421.37 88.29 438.67 98.28 455.98 118.27 455.98 128.26 438.67 118.27 421.37" style="fill:#d1d3d4;mix-blend-mode:multiply"/><polygon points="40.32 460.15 15.6 460.15 3.24 481.56 15.6 502.97 40.32 502.97 52.68 481.56 40.32 460.15" style="fill:#d1d3d4;mix-blend-mode:multiply"/><polygon points="345.75 499.3 342.64 499.3 341.08 502 342.64 504.7 345.75 504.7 347.31 502 345.75 499.3" style="fill:#d1d3d4;mix-blend-mode:multiply"/><polygon points="99.31 398.65 92.55 398.65 89.17 404.51 92.55 410.36 99.31 410.36 102.69 404.51 99.31 398.65" style="fill:#d1d3d4;mix-blend-mode:multiply"/><polygon points="198.37 498.37 191.51 498.37 188.07 504.32 191.51 510.26 198.37 510.26 201.81 504.32 198.37 498.37" style="fill:#d1d3d4;mix-blend-mode:multiply"/><polygon points="281 448.39 275.73 448.39 273.09 452.96 275.73 457.52 281 457.52 283.64 452.96 281 448.39" style="fill:#d1d3d4;mix-blend-mode:multiply"/><polygon points="57.42 473.97 46.21 473.97 40.61 483.68 46.21 493.38 57.42 493.38 63.03 483.68 57.42 473.97" style="fill:#d1d3d4;mix-blend-mode:multiply"/><polygon points="275.47 469.63 272.39 469.63 270.85 472.3 272.39 474.97 275.47 474.97 277.01 472.3 275.47 469.63" style="fill:#d1d3d4;mix-blend-mode:multiply"/><polygon points="175.68 400.38 172.11 400.38 170.33 403.47 172.11 406.56 175.68 406.56 177.46 403.47 175.68 400.38" style="fill:#d1d3d4;mix-blend-mode:multiply"/><polygon points="247.4 476.21 229.44 476.21 220.46 491.76 229.44 507.31 247.4 507.31 256.38 491.76 247.4 476.21" style="fill:#d1d3d4;mix-blend-mode:multiply"/><polygon points="170.38 462.13 144.44 462.13 131.47 484.6 144.44 507.06 170.38 507.06 183.34 484.6 170.38 462.13" style="fill:#d1d3d4;mix-blend-mode:multiply"/><polygon points="219.04 429.25 209.38 429.25 204.55 437.62 209.38 445.98 219.04 445.98 223.87 437.62 219.04 429.25" style="fill:#d1d3d4;mix-blend-mode:multiply"/><polygon points="238.32 455.69 215.15 455.69 203.57 475.76 215.15 495.82 238.32 495.82 249.91 475.76 238.32 455.69" style="fill:#d1d3d4;mix-blend-mode:multiply"/><polygon points="61.3 445.08 56.81 445.08 54.56 448.97 56.81 452.86 61.3 452.86 63.54 448.97 61.3 445.08" style="fill:#d1d3d4;mix-blend-mode:multiply"/><polygon points="189.62 447.67 178.46 447.67 172.88 457.33 178.46 466.99 189.62 466.99 195.19 457.33 189.62 447.67" style="fill:#d1d3d4;mix-blend-mode:multiply"/><polygon points="150.15 431.54 143.15 431.54 139.66 437.59 143.15 443.65 150.15 443.65 153.65 437.59 150.15 431.54" style="fill:#d1d3d4;mix-blend-mode:multiply"/><polygon points="114.79 483.22 106.72 483.22 102.68 490.21 106.72 497.21 114.79 497.21 118.83 490.21 114.79 483.22" style="fill:#d1d3d4;mix-blend-mode:multiply"/><polygon points="41.67 375.37 16.45 375.37 3.84 397.21 16.45 419.05 41.67 419.05 54.28 397.21 41.67 375.37" style="fill:#d1d3d4;mix-blend-mode:multiply"/><polygon points="88.92 385.8 85.27 385.8 83.44 388.97 85.27 392.14 88.92 392.14 90.75 388.97 88.92 385.8" style="fill:#d1d3d4;mix-blend-mode:multiply"/><polygon points="88.86 421.31 66.9 421.31 55.91 440.34 66.9 459.36 88.86 459.36 99.85 440.34 88.86 421.31" style="fill:#d1d3d4;mix-blend-mode:multiply"/><polygon points="174.09 505.76 171.12 505.76 169.63 508.34 171.12 510.91 174.09 510.91 175.58 508.34 174.09 505.76" style="fill:#d1d3d4;mix-blend-mode:multiply"/><polygon points="150.34 460.3 146.21 460.3 144.15 463.88 146.21 467.45 150.34 467.45 152.4 463.88 150.34 460.3" style="fill:#d1d3d4;mix-blend-mode:multiply"/><polygon points="114.56 453.82 91.43 453.82 79.86 473.86 91.43 493.89 114.56 493.89 126.12 473.86 114.56 453.82" style="fill:#d1d3d4;mix-blend-mode:multiply"/><polygon points="211.13 487.07 207.76 487.07 206.08 489.99 207.76 492.9 211.13 492.9 212.82 489.99 211.13 487.07" style="fill:#d1d3d4;mix-blend-mode:multiply"/><polygon points="20.89 457.02 14.88 457.02 11.87 462.23 14.88 467.44 20.89 467.44 23.9 462.23 20.89 457.02" style="fill:#d1d3d4;mix-blend-mode:multiply"/><polygon points="196.56 469.55 184.16 469.55 177.96 480.29 184.16 491.03 196.56 491.03 202.76 480.29 196.56 469.55" style="fill:#d1d3d4;mix-blend-mode:multiply"/><polygon points="282.6 482.73 270.62 482.73 264.62 493.11 270.62 503.49 282.6 503.49 288.59 493.11 282.6 482.73" style="fill:#d1d3d4;mix-blend-mode:multiply"/><polygon points="276.38 505.68 273.39 505.68 271.9 508.27 273.39 510.86 276.38 510.86 277.88 508.27 276.38 505.68" style="fill:#d1d3d4;mix-blend-mode:multiply"/><polygon points="312.32 464.09 307.44 464.09 305 468.32 307.44 472.56 312.32 472.56 314.77 468.32 312.32 464.09" style="fill:#d1d3d4;mix-blend-mode:multiply"/><polygon points="54.26 424.56 46.09 424.56 42.01 431.64 46.09 438.71 54.26 438.71 58.35 431.64 54.26 424.56" style="fill:#d1d3d4;mix-blend-mode:multiply"/><polygon points="16.95 380.64 6.61 380.64 1.44 389.6 6.61 398.55 16.95 398.55 22.13 389.6 16.95 380.64" style="fill:#d1d3d4;mix-blend-mode:multiply"/><polygon points="75.62 479.12 69.94 479.12 67.1 484.05 69.94 488.97 75.62 488.97 78.47 484.05 75.62 479.12" style="fill:#d1d3d4;mix-blend-mode:multiply"/><g style="mix-blend-mode:multiply"><path d="M243.35,457.13l2.57,4.46L243.35,466H238.2l-2.57-4.45,2.57-4.46h5.15m.19-.34H238l-2.77,4.8,2.77,4.79h5.53l2.77-4.79-2.77-4.8Z" transform="translate(0.52 -0.31)" style="fill:#d1d3d4"/></g><g style="mix-blend-mode:multiply"><path d="M131.17,451l3.24,5.61-3.24,5.6h-6.46l-3.24-5.6,3.24-5.61h6.46m.25-.42h-7l-3.47,6,3.47,6h7l3.47-6-3.47-6Z" transform="translate(0.52 -0.31)" style="fill:#d1d3d4"/></g><g style="mix-blend-mode:multiply"><path d="M265.18,456.14l12.35,21.39-12.35,21.39h-24.7l-12.35-21.39,12.35-21.39h24.7m.93-1.6H239.56l-13.28,23,13.28,23h26.55l13.28-23-13.28-23Z" transform="translate(0.52 -0.31)" style="fill:#d1d3d4"/></g><g style="mix-blend-mode:multiply"><path d="M140.43,486.28l5.06,8.77-5.06,8.77H130.3l-5.06-8.77,5.06-8.77h10.13m.38-.66H129.92l-5.44,9.43,5.44,9.43h10.89l5.45-9.43-5.45-9.43Z" transform="translate(0.52 -0.31)" style="fill:#d1d3d4"/></g><g style="mix-blend-mode:multiply"><path d="M56.38,400.7,59,405.26l-2.63,4.55H51.12l-2.64-4.55,2.64-4.56h5.26m.19-.34H50.92l-2.83,4.9,2.83,4.9h5.65l2.83-4.9-2.83-4.9Z" transform="translate(0.52 -0.31)" style="fill:#d1d3d4"/></g><g style="mix-blend-mode:multiply"><path d="M132.42,474.36l2.28,3.93-2.28,3.94h-4.54l-2.27-3.94,2.27-3.93h4.54m.18-.3h-4.89l-2.44,4.23,2.44,4.23h4.89l2.44-4.23-2.44-4.23Z" transform="translate(0.52 -0.31)" style="fill:#d1d3d4"/></g><g style="mix-blend-mode:multiply"><path d="M123.67,388.81l1.55,2.69-1.55,2.69h-3.1L119,391.5l1.56-2.69h3.1m.12-.2h-3.34l-1.67,2.89,1.67,2.89h3.34l1.66-2.89-1.66-2.89Z" transform="translate(0.52 -0.31)" style="fill:#d1d3d4"/></g><g style="mix-blend-mode:multiply"><path d="M72.07,448.24l10.66,18.48L72.07,485.2H50.73L40.06,466.72l10.67-18.48H72.07m.8-1.38H49.93L38.46,466.72l11.47,19.86H72.87l11.46-19.86L72.87,446.86Z" transform="translate(0.52 -0.31)" style="fill:#d1d3d4"/></g><g style="mix-blend-mode:multiply"><path d="M83.83,461.26l1.42,2.46-1.42,2.47H81l-1.42-2.47L81,461.26h2.85m.1-.19H80.87l-1.53,2.65,1.53,2.65h3.06l1.53-2.65-1.53-2.65Z" transform="translate(0.52 -0.31)" style="fill:#d1d3d4"/></g><g style="mix-blend-mode:multiply"><path d="M257.09,499.39l1.89,3.28L257.09,506h-3.78l-1.89-3.28,1.89-3.28h3.78m.14-.24h-4.06l-2,3.52,2,3.52h4.06l2-3.52-2-3.52Z" transform="translate(0.52 -0.31)" style="fill:#d1d3d4"/></g><g style="mix-blend-mode:multiply"><path d="M307.33,470.46,315.15,484l-7.82,13.55H291.69L283.87,484l7.82-13.54h15.64m.58-1H291.1L282.69,484l8.41,14.56h16.81L316.32,484l-8.41-14.56Z" transform="translate(0.52 -0.31)" style="fill:#d1d3d4"/></g><g style="mix-blend-mode:multiply"><path d="M44,426.48l12.06,20.89L44,468.26H19.9L7.84,447.37,19.9,426.48H44m.91-1.57H19L6,447.37l13,22.46H44.93l13-22.46-13-22.46Z" transform="translate(0.52 -0.31)" style="fill:#d1d3d4"/></g><g style="mix-blend-mode:multiply"><path d="M88.07,492.8l1.39,2.4-1.39,2.4H85.3l-1.39-2.4,1.39-2.4h2.77m.1-.18h-3L83.7,495.2l1.49,2.58h3l1.49-2.58-1.49-2.58Z" transform="translate(0.52 -0.31)" style="fill:#d1d3d4"/></g><g style="mix-blend-mode:multiply"><path d="M37.6,418.34l1.63,2.82L37.6,424H34.34l-1.62-2.82,1.62-2.82H37.6m.12-.21h-3.5l-1.75,3,1.75,3h3.5l1.76-3-1.76-3Z" transform="translate(0.52 -0.31)" style="fill:#d1d3d4"/></g><g style="mix-blend-mode:multiply"><path d="M226.4,446.75l1.72,3-1.72,3H223l-1.72-3,1.72-3h3.44m.13-.22h-3.7l-1.85,3.2,1.85,3.21h3.7l1.85-3.21-1.85-3.2Z" transform="translate(0.52 -0.31)" style="fill:#d1d3d4"/></g><g style="mix-blend-mode:multiply"><path d="M175.42,489.06l3,5.18-3,5.17h-6l-3-5.17,3-5.18h6m.23-.39h-6.43L166,494.24l3.21,5.56h6.43l3.21-5.56-3.21-5.57Z" transform="translate(0.52 -0.31)" style="fill:#d1d3d4"/></g><g style="mix-blend-mode:multiply"><path d="M10.26,436.59l3.25,5.64-3.25,5.64H3.74L.49,442.23l3.25-5.64h6.52m.24-.42h-7L0,442.23l3.5,6.06h7l3.5-6.06-3.5-6.06Z" transform="translate(0.52 -0.31)" style="fill:#d1d3d4"/></g><g style="mix-blend-mode:multiply"><path d="M22.75,502.58l1.69,2.92-1.69,2.91H19.39L17.7,505.5l1.69-2.92h3.36m.13-.22H19.26l-1.81,3.14,1.81,3.13h3.62l1.81-3.13-1.81-3.14Z" transform="translate(0.52 -0.31)" style="fill:#d1d3d4"/></g><g style="mix-blend-mode:multiply"><path d="M185.67,422.92l10.84,18.78-10.84,18.78H164L153.14,441.7,164,422.92h21.69m.81-1.41H163.17L151.51,441.7l11.66,20.19h23.31l11.66-20.19-11.66-20.19Z" transform="translate(0.52 -0.31)" style="fill:#d1d3d4"/></g><g style="mix-blend-mode:multiply"><path d="M367.73,500.8l2.73,4.74-2.73,4.74h-5.47l-2.74-4.74,2.74-4.74h5.47m.2-.36h-5.88l-2.94,5.1,2.94,5.09h5.88l2.94-5.09-2.94-5.1Z" transform="translate(0.52 -0.31)" style="fill:#d1d3d4"/></g><g style="mix-blend-mode:multiply"><path d="M138.36,401l7.06,12.24-7.06,12.23H124.23l-7.06-12.23L124.23,401h14.13m.53-.92H123.7l-7.59,13.16,7.59,13.15h15.19l7.59-13.15-7.59-13.16Z" transform="translate(0.52 -0.31)" style="fill:#d1d3d4"/></g><g style="mix-blend-mode:multiply"><path d="M168.65,443.09l1.6,2.76-1.6,2.76h-3.19l-1.59-2.76,1.59-2.76h3.19m.12-.21h-3.43l-1.71,3,1.71,3h3.43l1.72-3-1.72-3Z" transform="translate(0.52 -0.31)" style="fill:#d1d3d4"/></g><g style="mix-blend-mode:multiply"><path d="M124.77,500.46l3.49,6-3.49,6h-7l-3.49-6,3.49-6h7M125,500h-7.5l-3.75,6.5,3.75,6.5H125l3.76-6.5L125,500Z" transform="translate(0.52 -0.31)" style="fill:#d1d3d4"/></g><g style="mix-blend-mode:multiply"><path d="M211.15,462.61l1.85,3.2L211.15,469h-3.69l-1.85-3.21,1.85-3.2h3.69m.14-.24h-4l-2,3.44,2,3.45h4l2-3.45-2-3.44Z" transform="translate(0.52 -0.31)" style="fill:#d1d3d4"/></g><g style="mix-blend-mode:multiply"><path d="M329.85,479.62l1.52,2.64-1.52,2.63h-3l-1.52-2.63,1.52-2.64h3m.11-.19H326.7l-1.64,2.83,1.64,2.83H330l1.64-2.83L330,479.43Z" transform="translate(0.52 -0.31)" style="fill:#d1d3d4"/></g><g style="mix-blend-mode:multiply"><circle cx="170.75" cy="385.56" r="0.33" style="fill:#d1d3d4"/></g><g style="mix-blend-mode:multiply"><path d="M140.92,386.75a1,1,0,1,1-1.91,0,1,1,0,0,1,1.91,0Z" transform="translate(0.52 -0.31)" style="fill:#d1d3d4"/></g><g style="mix-blend-mode:multiply"><circle cx="43.55" cy="502.49" r="1.26" style="fill:#d1d3d4"/></g><g style="mix-blend-mode:multiply"><path d="M356.05,482.44a.38.38,0,0,1-.37.37.37.37,0,0,1-.37-.37.36.36,0,0,1,.37-.37A.37.37,0,0,1,356.05,482.44Z" transform="translate(0.52 -0.31)" style="fill:#d1d3d4"/></g><g style="mix-blend-mode:multiply"><path d="M260.86,452.49a2.16,2.16,0,1,1-2.16-2.16A2.16,2.16,0,0,1,260.86,452.49Z" transform="translate(0.52 -0.31)" style="fill:#d1d3d4"/></g><g style="mix-blend-mode:multiply"><circle cx="200.95" cy="447.33" r="0.53" style="fill:#d1d3d4"/></g><g style="mix-blend-mode:multiply"><path d="M318.51,495.63a.31.31,0,0,1-.31.31.31.31,0,0,1-.31-.31.3.3,0,0,1,.31-.31A.31.31,0,0,1,318.51,495.63Z" transform="translate(0.52 -0.31)" style="fill:#d1d3d4"/></g><g style="mix-blend-mode:multiply"><path d="M13.31,490.09a1.82,1.82,0,1,1-1.82-1.82A1.82,1.82,0,0,1,13.31,490.09Z" transform="translate(0.52 -0.31)" style="fill:#d1d3d4"/></g><g style="mix-blend-mode:multiply"><path d="M237,508.76a.55.55,0,0,1-.55.54.55.55,0,0,1,0-1.09A.55.55,0,0,1,237,508.76Z" transform="translate(0.52 -0.31)" style="fill:#d1d3d4"/></g><g style="mix-blend-mode:multiply"><path d="M319.82,509.44a.81.81,0,1,1-.81-.82A.81.81,0,0,1,319.82,509.44Z" transform="translate(0.52 -0.31)" style="fill:#d1d3d4"/></g><g style="mix-blend-mode:multiply"><path d="M67.09,421a.29.29,0,1,1-.29-.29A.29.29,0,0,1,67.09,421Z" transform="translate(0.52 -0.31)" style="fill:#d1d3d4"/></g><g style="mix-blend-mode:multiply"><path d="M41.76,464.75A1.73,1.73,0,1,1,40,463,1.72,1.72,0,0,1,41.76,464.75Z" transform="translate(0.52 -0.31)" style="fill:#d1d3d4"/></g><g style="mix-blend-mode:multiply"><circle cx="199.01" cy="430.22" r="0.76" style="fill:#d1d3d4"/></g><g style="mix-blend-mode:multiply"><circle cx="69.51" cy="505.72" r="2.26" style="fill:#d1d3d4"/></g><g style="mix-blend-mode:multiply"><path d="M149.49,506.65a.43.43,0,0,1-.44.44.44.44,0,0,1-.44-.44.44.44,0,0,1,.44-.44A.44.44,0,0,1,149.49,506.65Z" transform="translate(0.52 -0.31)" style="fill:#d1d3d4"/></g><g style="mix-blend-mode:multiply"><path d="M5.36,504.76a.71.71,0,1,1-.71-.71A.71.71,0,0,1,5.36,504.76Z" transform="translate(0.52 -0.31)" style="fill:#d1d3d4"/></g><g style="mix-blend-mode:multiply"><path d="M5.05,472.05a.29.29,0,0,1-.28.28.28.28,0,0,1-.28-.28.27.27,0,0,1,.28-.28A.28.28,0,0,1,5.05,472.05Z" transform="translate(0.52 -0.31)" style="fill:#d1d3d4"/></g><g style="mix-blend-mode:multiply"><circle cx="20.47" cy="430.02" r="0.66" style="fill:#d1d3d4"/></g><g style="mix-blend-mode:multiply"><path d="M300.06,450a1.19,1.19,0,1,1-1.19-1.19A1.18,1.18,0,0,1,300.06,450Z" transform="translate(0.52 -0.31)" style="fill:#d1d3d4"/></g><g style="mix-blend-mode:multiply"><path d="M69.09,392.72a1.22,1.22,0,0,1-2.44,0,1.22,1.22,0,0,1,2.44,0Z" transform="translate(0.52 -0.31)" style="fill:#d1d3d4"/></g><g style="mix-blend-mode:multiply"><circle cx="168.35" cy="467.48" r="0.31" style="fill:#d1d3d4"/></g><g style="mix-blend-mode:multiply"><path d="M107.58,423.23a.38.38,0,0,1-.37.37.37.37,0,0,1-.37-.37.36.36,0,0,1,.37-.37A.37.37,0,0,1,107.58,423.23Z" transform="translate(0.52 -0.31)" style="fill:#d1d3d4"/></g><g style="mix-blend-mode:multiply"><circle cx="99.99" cy="507.1" r="1.46" style="fill:#d1d3d4"/></g><g style="mix-blend-mode:multiply"><circle cx="386.68" cy="507.32" r="0.28" style="fill:#d1d3d4"/></g><g style="mix-blend-mode:multiply"><circle cx="153.39" cy="395.34" r="1.74" style="fill:#d1d3d4"/></g><g style="mix-blend-mode:multiply"><path d="M10.37,411.75a1.9,1.9,0,1,1-1.9-1.89A1.9,1.9,0,0,1,10.37,411.75Z" transform="translate(0.52 -0.31)" style="fill:#d1d3d4"/></g><g style="mix-blend-mode:multiply"><circle cx="220.03" cy="503.94" r="0.41" style="fill:#d1d3d4"/></g><g style="mix-blend-mode:multiply"><circle cx="298.53" cy="501.07" r="0.29" style="fill:#d1d3d4"/></g><polygon points="1861.03 368.43 1864.21 368.43 1865.8 371.59 1864.21 374.75 1861.02 374.75 1859.43 371.59 1861.03 368.43" style="fill:#e6e7e8;mix-blend-mode:multiply"/><polygon points="1793.93 368.71 1797.29 368.71 1798.97 372.05 1797.29 375.38 1793.93 375.38 1792.25 372.05 1793.93 368.71" style="fill:#e6e7e8;mix-blend-mode:multiply"/><polygon points="1783.12 409.75 1803.21 409.75 1813.25 429.69 1803.2 449.62 1783.11 449.61 1773.07 429.68 1783.12 409.75" style="fill:#e6e7e8;mix-blend-mode:multiply"/><polygon points="1861.46 454.44 1886.31 454.45 1898.73 479.11 1886.3 503.76 1861.45 503.75 1849.03 479.09 1861.46 454.44" style="fill:#e6e7e8;mix-blend-mode:multiply"/><polygon points="1554.4 499.45 1557.54 499.45 1559.1 502.56 1557.54 505.67 1554.4 505.67 1552.83 502.56 1554.4 499.45" style="fill:#e6e7e8;mix-blend-mode:multiply"/><polygon points="1802.18 383.59 1808.98 383.6 1812.37 390.34 1808.97 397.08 1802.18 397.08 1798.78 390.34 1802.18 383.59" style="fill:#e6e7e8;mix-blend-mode:multiply"/><polygon points="1702.56 498.42 1709.46 498.42 1712.91 505.27 1709.46 512.11 1702.56 512.11 1699.11 505.26 1702.56 498.42" style="fill:#e6e7e8;mix-blend-mode:multiply"/><polygon points="1619.51 440.83 1624.81 440.83 1627.46 446.09 1624.81 451.35 1619.51 451.35 1616.86 446.09 1619.51 440.83" style="fill:#e6e7e8;mix-blend-mode:multiply"/><polygon points="1844.26 470.34 1855.53 470.35 1861.17 481.53 1855.53 492.71 1844.26 492.71 1838.63 481.52 1844.26 470.34" style="fill:#e6e7e8;mix-blend-mode:multiply"/><polygon points="1625.07 465.3 1628.16 465.3 1629.71 468.37 1628.16 471.44 1625.07 471.44 1623.52 468.37 1625.07 465.3" style="fill:#e6e7e8;mix-blend-mode:multiply"/><polygon points="1725.4 385.56 1728.99 385.56 1730.78 389.12 1728.99 392.68 1725.4 392.68 1723.61 389.12 1725.4 385.56" style="fill:#e6e7e8;mix-blend-mode:multiply"/><polygon points="1653.28 472.87 1671.34 472.88 1680.36 490.8 1671.33 508.71 1653.28 508.7 1644.25 490.79 1653.28 472.87" style="fill:#e6e7e8;mix-blend-mode:multiply"/><polygon points="1730.72 456.69 1756.79 456.69 1769.83 482.57 1756.78 508.43 1730.71 508.43 1717.67 482.55 1730.72 456.69" style="fill:#e6e7e8;mix-blend-mode:multiply"/><polygon points="1681.81 418.8 1691.52 418.81 1696.37 428.44 1691.51 438.07 1681.81 438.07 1676.95 428.43 1681.81 418.8" style="fill:#e6e7e8;mix-blend-mode:multiply"/><polygon points="1662.41 449.25 1685.71 449.25 1697.35 472.37 1685.7 495.48 1662.4 495.47 1650.76 472.36 1662.41 449.25" style="fill:#e6e7e8;mix-blend-mode:multiply"/><polygon points="1840.38 437.08 1844.89 437.08 1847.15 441.56 1844.89 446.03 1840.38 446.03 1838.12 441.55 1840.38 437.08" style="fill:#e6e7e8;mix-blend-mode:multiply"/><polygon points="1711.38 440.02 1722.59 440.02 1728.2 451.15 1722.59 462.27 1711.38 462.27 1705.77 451.14 1711.38 440.02" style="fill:#e6e7e8;mix-blend-mode:multiply"/><polygon points="1751.06 421.45 1758.09 421.45 1761.61 428.43 1758.09 435.41 1751.06 435.4 1747.54 428.43 1751.06 421.45" style="fill:#e6e7e8;mix-blend-mode:multiply"/><polygon points="1786.59 480.99 1794.71 480.99 1798.77 489.04 1794.71 497.1 1786.59 497.1 1782.53 489.04 1786.59 480.99" style="fill:#e6e7e8;mix-blend-mode:multiply"/><polygon points="1860.13 356.79 1885.48 356.8 1898.15 381.96 1885.47 407.11 1860.11 407.1 1847.44 381.94 1860.13 356.79" style="fill:#e6e7e8;mix-blend-mode:multiply"/><polygon points="1812.62 368.8 1816.3 368.8 1818.13 372.44 1816.3 376.09 1812.62 376.09 1810.78 372.44 1812.62 368.8" style="fill:#e6e7e8;mix-blend-mode:multiply"/><polygon points="1812.67 409.69 1834.76 409.7 1845.8 431.61 1834.75 453.52 1812.66 453.51 1801.62 431.6 1812.67 409.69" style="fill:#e6e7e8;mix-blend-mode:multiply"/><polygon points="1726.97 506.93 1729.96 506.93 1731.45 509.9 1729.96 512.86 1726.97 512.86 1725.47 509.9 1726.97 506.93" style="fill:#e6e7e8;mix-blend-mode:multiply"/><polygon points="1750.86 454.58 1755.01 454.58 1757.09 458.7 1755.01 462.82 1750.86 462.82 1748.79 458.7 1750.86 454.58" style="fill:#e6e7e8;mix-blend-mode:multiply"/><polygon points="1786.84 447.13 1810.09 447.14 1821.71 470.21 1810.08 493.28 1786.82 493.27 1775.2 470.2 1786.84 447.13" style="fill:#e6e7e8;mix-blend-mode:multiply"/><polygon points="1689.74 485.39 1693.13 485.39 1694.82 488.75 1693.13 492.12 1689.74 492.12 1688.05 488.75 1689.74 485.39" style="fill:#e6e7e8;mix-blend-mode:multiply"/><polygon points="1880.99 450.83 1887.04 450.83 1890.06 456.83 1887.04 462.83 1880.99 462.83 1877.97 456.83 1880.99 450.83" style="fill:#e6e7e8;mix-blend-mode:multiply"/><polygon points="1704.39 465.23 1716.86 465.23 1723.09 477.6 1716.85 489.96 1704.39 489.96 1698.16 477.59 1704.39 465.23" style="fill:#e6e7e8;mix-blend-mode:multiply"/><polygon points="1617.89 480.38 1629.94 480.38 1635.96 492.34 1629.94 504.29 1617.89 504.29 1611.87 492.33 1617.89 480.38" style="fill:#e6e7e8;mix-blend-mode:multiply"/><polygon points="1624.14 506.81 1627.14 506.81 1628.64 509.8 1627.14 512.78 1624.14 512.77 1622.64 509.79 1624.14 506.81" style="fill:#e6e7e8;mix-blend-mode:multiply"/><polygon points="1588.02 458.91 1592.93 458.91 1595.38 463.78 1592.93 468.65 1588.02 468.65 1585.56 463.78 1588.02 458.91" style="fill:#e6e7e8;mix-blend-mode:multiply"/><polygon points="1847.46 413.44 1855.67 413.44 1859.77 421.59 1855.66 429.74 1847.45 429.74 1843.35 421.59 1847.46 413.44" style="fill:#e6e7e8;mix-blend-mode:multiply"/><polygon points="1884.97 362.87 1895.37 362.87 1900.57 373.19 1895.37 383.5 1884.97 383.5 1879.77 373.18 1884.97 362.87" style="fill:#e6e7e8;mix-blend-mode:multiply"/><polygon points="1825.97 476.28 1831.68 476.28 1834.54 481.95 1831.68 487.62 1825.96 487.62 1823.11 481.95 1825.97 476.28" style="fill:#e6e7e8;mix-blend-mode:multiply"/><g style="mix-blend-mode:multiply"><path d="M1656.31,450.85l-2.59,5.14,2.59,5.13h5.17l2.59-5.14-2.58-5.13h-5.18m-.19-.38h5.56l2.78,5.52-2.78,5.52h-5.57l-2.78-5.52,2.79-5.52Z" transform="translate(0.52 -0.31)" style="fill:#e6e7e8"/></g><g style="mix-blend-mode:multiply"><path d="M1769.08,443.85l-3.25,6.45,3.25,6.46h6.5l3.25-6.45-3.24-6.45h-6.51m-.24-.48h7l3.49,6.94-3.49,6.93h-7l-3.5-6.94,3.5-6.93Z" transform="translate(0.52 -0.31)" style="fill:#e6e7e8"/></g><g style="mix-blend-mode:multiply"><path d="M1634.36,449.71l-12.42,24.64L1634.35,499h24.83l12.42-24.63-12.41-24.64h-24.83m-.93-1.85h26.7l13.34,26.49-13.36,26.48h-26.69l-13.34-26.49,13.35-26.49Z" transform="translate(0.52 -0.31)" style="fill:#e6e7e8"/></g><g style="mix-blend-mode:multiply"><path d="M1759.77,484.46l-5.1,10.1,5.09,10.1H1770l5.09-10.1-5.09-10.1h-10.18m-.38-.76h10.94l5.47,10.86-5.47,10.86h-10.95l-5.47-10.86,5.48-10.86Z" transform="translate(0.52 -0.31)" style="fill:#e6e7e8"/></g><g style="mix-blend-mode:multiply"><path d="M1844.29,385.92l-2.64,5.24,2.64,5.25h5.29l2.64-5.24-2.64-5.25h-5.29m-.2-.4h5.69l2.84,5.65-2.84,5.64h-5.69l-2.84-5.64,2.84-5.64Z" transform="translate(0.52 -0.31)" style="fill:#e6e7e8"/></g><g style="mix-blend-mode:multiply"><path d="M1767.82,470.73l-2.29,4.53,2.29,4.53h4.56l2.29-4.53-2.29-4.53h-4.56m-.17-.34h4.91l2.45,4.87-2.46,4.87h-4.9l-2.46-4.87,2.46-4.87Z" transform="translate(0.52 -0.31)" style="fill:#e6e7e8"/></g><g style="mix-blend-mode:multiply"><path d="M1776.65,372.21l-1.57,3.09,1.56,3.1h3.12l1.56-3.1-1.56-3.09h-3.11m-.12-.23h3.35l1.68,3.32-1.68,3.33h-3.35l-1.68-3.33,1.68-3.32Z" transform="translate(0.52 -0.31)" style="fill:#e6e7e8"/></g><g style="mix-blend-mode:multiply"><path d="M1828.5,440.67l-10.72,21.27,10.71,21.28h21.45L1860.67,462,1850,440.67H1828.5m-.8-1.6h23.06L1862.28,462l-11.53,22.88h-23.06l-11.52-22.88,11.53-22.87Z" transform="translate(0.52 -0.31)" style="fill:#e6e7e8"/></g><g style="mix-blend-mode:multiply"><path d="M1816.68,455.65l-1.43,2.84,1.43,2.84h2.86l1.43-2.84-1.43-2.84h-2.86m-.11-.21h3.08l1.53,3.05-1.54,3.05h-3.07l-1.54-3.05,1.54-3.05Z" transform="translate(0.52 -0.31)" style="fill:#e6e7e8"/></g><g style="mix-blend-mode:multiply"><path d="M1642.49,499.53l-1.91,3.77,1.9,3.78h3.81l1.9-3.77-1.9-3.78h-3.8m-.15-.28h4.09l2,4.06-2,4.05h-4.09l-2-4.06,2-4.05Z" transform="translate(0.52 -0.31)" style="fill:#e6e7e8"/></g><g style="mix-blend-mode:multiply"><path d="M1592,466.19l-7.86,15.6,7.85,15.6h15.73l7.86-15.6-7.85-15.6H1592m-.59-1.17h16.91l8.44,16.78-8.45,16.77h-16.91L1583,481.79,1591.4,465Z" transform="translate(0.52 -0.31)" style="fill:#e6e7e8"/></g><g style="mix-blend-mode:multiply"><path d="M1856.7,415.61l-12.13,24.06,12.12,24.06h24.25l12.13-24.05L1881,415.62H1856.7m-.91-1.81h26.07l13,25.87-13,25.86h-26.07l-13-25.86,13-25.87Z" transform="translate(0.52 -0.31)" style="fill:#e6e7e8"/></g><g style="mix-blend-mode:multiply"><path d="M1812.4,492l-1.39,2.76,1.39,2.77h2.79l1.39-2.76-1.39-2.77h-2.79m-.1-.21h3l1.49,3-1.5,3h-3l-1.5-3,1.5-3Z" transform="translate(0.52 -0.31)" style="fill:#e6e7e8"/></g><g style="mix-blend-mode:multiply"><path d="M1863.16,406.24l-1.64,3.25,1.64,3.24h3.27l1.64-3.25-1.64-3.25h-3.27M1863,406h3.52l1.76,3.5-1.77,3.49H1863l-1.75-3.49L1863,406Z" transform="translate(0.52 -0.31)" style="fill:#e6e7e8"/></g><g style="mix-blend-mode:multiply"><path d="M1673.36,438.91l-1.73,3.43,1.73,3.43h3.46l1.73-3.43-1.73-3.43h-3.46m-.13-.26H1677l1.86,3.69L1677,446h-3.72l-1.86-3.69,1.86-3.69Z" transform="translate(0.52 -0.31)" style="fill:#e6e7e8"/></g><g style="mix-blend-mode:multiply"><path d="M1724.59,487.65l-3,6,3,6h6l3-6-3-6h-6m-.23-.45h6.46l3.23,6.41-3.23,6.41h-6.46l-3.23-6.41,3.23-6.41Z" transform="translate(0.52 -0.31)" style="fill:#e6e7e8"/></g><g style="mix-blend-mode:multiply"><path d="M1890.64,427.26l-3.27,6.5,3.27,6.49h6.55l3.27-6.49-3.27-6.5h-6.55m-.24-.48h7l3.51,7-3.52,7h-7l-3.52-7,3.52-7Z" transform="translate(0.52 -0.31)" style="fill:#e6e7e8"/></g><g style="mix-blend-mode:multiply"><path d="M1878.06,503.26l-1.69,3.36,1.69,3.36h3.39l1.69-3.36-1.69-3.36h-3.39m-.13-.25h3.64l1.82,3.61-1.82,3.61h-3.64l-1.82-3.61,1.82-3.61Z" transform="translate(0.52 -0.31)" style="fill:#e6e7e8"/></g><g style="mix-blend-mode:multiply"><path d="M1714.31,411.47,1703.4,433.1l10.9,21.63h21.8L1747,433.11l-10.9-21.64h-21.8m-.82-1.63h23.44l11.71,23.26-11.72,23.25h-23.44l-11.72-23.26,11.73-23.26Z" transform="translate(0.52 -0.31)" style="fill:#e6e7e8"/></g><g style="mix-blend-mode:multiply"><path d="M1531.26,501.12l-2.75,5.46,2.75,5.45h5.5l2.75-5.46-2.75-5.46h-5.5m-.2-.41H1537l3,5.87-3,5.87h-5.91l-3-5.86,3-5.87Z" transform="translate(0.52 -0.31)" style="fill:#e6e7e8"/></g><g style="mix-blend-mode:multiply"><path d="M1761.88,386.25l-7.11,14.09,7.1,14.09h14.2l7.1-14.09-7.09-14.09h-14.2m-.54-1.06h15.27l7.63,15.15-7.64,15.14h-15.27l-7.63-15.15,7.64-15.15Z" transform="translate(0.52 -0.31)" style="fill:#e6e7e8"/></g><g style="mix-blend-mode:multiply"><path d="M1731.41,434.7l-1.6,3.18,1.6,3.18h3.2l1.61-3.18-1.6-3.19h-3.21m-.12-.24h3.45l1.72,3.42-1.73,3.41h-3.44l-1.72-3.42,1.72-3.42Z" transform="translate(0.52 -0.31)" style="fill:#e6e7e8"/></g><g style="mix-blend-mode:multiply"><path d="M1775.51,500.79l-3.51,7,3.5,7h7l3.51-7-3.51-7h-7m-.27-.53h7.55l3.77,7.48-3.78,7.49h-7.54l-3.77-7.48,3.77-7.49Z" transform="translate(0.52 -0.31)" style="fill:#e6e7e8"/></g><g style="mix-blend-mode:multiply"><path d="M1688.68,457.18l-1.86,3.69,1.85,3.69h3.72l1.86-3.69-1.85-3.69h-3.72m-.14-.28h4l2,4-2,4h-4l-2-4,2-4Z" transform="translate(0.52 -0.31)" style="fill:#e6e7e8"/></g><g style="mix-blend-mode:multiply"><path d="M1569.35,476.74l-1.53,3,1.53,3h3.05l1.53-3-1.53-3h-3.05m-.12-.23h3.29l1.64,3.26-1.64,3.26h-3.29l-1.64-3.26,1.64-3.26Z" transform="translate(0.52 -0.31)" style="fill:#e6e7e8"/></g><g style="mix-blend-mode:multiply"><ellipse cx="1730.37" cy="368.5" rx="0.33" ry="0.38" style="fill:#e6e7e8"/></g><g style="mix-blend-mode:multiply"><path d="M1759.31,369.83a1,1,0,1,0,1-1.1A1,1,0,0,0,1759.31,369.83Z" transform="translate(0.52 -0.31)" style="fill:#e6e7e8"/></g><g style="mix-blend-mode:multiply"><ellipse cx="1858.2" cy="503.2" rx="1.27" ry="1.45" style="fill:#e6e7e8"/></g><g style="mix-blend-mode:multiply"><path d="M1543,480a.38.38,0,1,0,.75,0,.38.38,0,1,0-.75,0Z" transform="translate(0.52 -0.31)" style="fill:#e6e7e8"/></g><g style="mix-blend-mode:multiply"><path d="M1638.71,445.5a2.19,2.19,0,1,0,2.17-2.48A2.35,2.35,0,0,0,1638.71,445.5Z" transform="translate(0.52 -0.31)" style="fill:#e6e7e8"/></g><g style="mix-blend-mode:multiply"><ellipse cx="1699.99" cy="439.62" rx="0.54" ry="0.61" style="fill:#e6e7e8"/></g><g style="mix-blend-mode:multiply"><path d="M1580.75,495.18a.31.31,0,1,0,.31-.36A.33.33,0,0,0,1580.75,495.18Z" transform="translate(0.52 -0.31)" style="fill:#e6e7e8"/></g><g style="mix-blend-mode:multiply"><path d="M1887.56,488.88a1.85,1.85,0,1,0,1.83-2.1A2,2,0,0,0,1887.56,488.88Z" transform="translate(0.52 -0.31)" style="fill:#e6e7e8"/></g><g style="mix-blend-mode:multiply"><path d="M1662.73,510.32a.6.6,0,0,0,.55.63.59.59,0,0,0,.55-.63.59.59,0,0,0-.55-.63A.6.6,0,0,0,1662.73,510.32Z" transform="translate(0.52 -0.31)" style="fill:#e6e7e8"/></g><g style="mix-blend-mode:multiply"><path d="M1579.42,511.08a.82.82,0,1,0,1.63,0,.82.82,0,1,0-1.63,0Z" transform="translate(0.52 -0.31)" style="fill:#e6e7e8"/></g><g style="mix-blend-mode:multiply"><path d="M1833.52,409.34a.29.29,0,1,0,.29-.33A.31.31,0,0,0,1833.52,409.34Z" transform="translate(0.52 -0.31)" style="fill:#e6e7e8"/></g><g style="mix-blend-mode:multiply"><path d="M1859,459.69a1.75,1.75,0,1,0,1.73-2A1.87,1.87,0,0,0,1859,459.69Z" transform="translate(0.52 -0.31)" style="fill:#e6e7e8"/></g><g style="mix-blend-mode:multiply"><ellipse cx="1701.95" cy="419.93" rx="0.76" ry="0.87" style="fill:#e6e7e8"/></g><g style="mix-blend-mode:multiply"><ellipse cx="1832.1" cy="506.92" rx="2.27" ry="2.61" style="fill:#e6e7e8"/></g><g style="mix-blend-mode:multiply"><path d="M1750.65,507.92a.45.45,0,1,0,.45-.51A.48.48,0,0,0,1750.65,507.92Z" transform="translate(0.52 -0.31)" style="fill:#e6e7e8"/></g><g style="mix-blend-mode:multiply"><path d="M1895.54,505.77a.78.78,0,0,0,.72.82.82.82,0,1,0-.72-.82Z" transform="translate(0.52 -0.31)" style="fill:#e6e7e8"/></g><g style="mix-blend-mode:multiply"><path d="M1895.87,468.1a.28.28,0,1,0,.56,0,.28.28,0,1,0-.56,0Z" transform="translate(0.52 -0.31)" style="fill:#e6e7e8"/></g><g style="mix-blend-mode:multiply"><ellipse cx="1881.43" cy="419.74" rx="0.67" ry="0.76" style="fill:#e6e7e8"/></g><g style="mix-blend-mode:multiply"><path d="M1599.31,442.65a1.2,1.2,0,1,0,1.19-1.36A1.28,1.28,0,0,0,1599.31,442.65Z" transform="translate(0.52 -0.31)" style="fill:#e6e7e8"/></g><g style="mix-blend-mode:multiply"><path d="M1831.51,376.72a1.24,1.24,0,1,0,1.23-1.41A1.33,1.33,0,0,0,1831.51,376.72Z" transform="translate(0.52 -0.31)" style="fill:#e6e7e8"/></g><g style="mix-blend-mode:multiply"><ellipse cx="1732.75" cy="462.84" rx="0.31" ry="0.36" style="fill:#e6e7e8"/></g><g style="mix-blend-mode:multiply"><path d="M1792.81,411.85a.38.38,0,1,0,.75,0,.38.38,0,1,0-.75,0Z" transform="translate(0.52 -0.31)" style="fill:#e6e7e8"/></g><g style="mix-blend-mode:multiply"><ellipse cx="1801.47" cy="508.5" rx="1.46" ry="1.68" style="fill:#e6e7e8"/></g><g style="mix-blend-mode:multiply"><ellipse cx="1513.25" cy="508.68" rx="0.29" ry="0.33" style="fill:#e6e7e8"/></g><g style="mix-blend-mode:multiply"><ellipse cx="1747.81" cy="379.76" rx="1.75" ry="2" style="fill:#e6e7e8"/></g><g style="mix-blend-mode:multiply"><path d="M1890.54,398.66a1.93,1.93,0,1,0,1.91-2.19A2.06,2.06,0,0,0,1890.54,398.66Z" transform="translate(0.52 -0.31)" style="fill:#e6e7e8"/></g><g style="mix-blend-mode:multiply"><ellipse cx="1680.79" cy="504.83" rx="0.41" ry="0.47" style="fill:#e6e7e8"/></g><g style="mix-blend-mode:multiply"><ellipse cx="1601.88" cy="501.5" rx="0.3" ry="0.34" style="fill:#e6e7e8"/></g><polygon points="249.66 6.06 255.93 6.06 259.06 12.64 255.93 19.23 249.66 19.23 246.53 12.64 249.66 6.06" style="fill:#e6e7e8;mix-blend-mode:multiply"/><polygon points="174.76 118 185.2 118 190.42 128.97 185.2 139.94 174.75 139.94 169.54 128.97 174.76 118" style="fill:#e6e7e8;mix-blend-mode:multiply"/><polygon points="122.46 101.97 147.74 101.97 160.37 128.53 147.72 155.08 122.45 155.07 109.82 128.52 122.46 101.97" style="fill:#e6e7e8;mix-blend-mode:multiply"/><polygon points="147.77 34.06 156.07 34.06 160.21 42.77 156.06 51.48 147.77 51.48 143.62 42.77 147.77 34.06" style="fill:#e6e7e8;mix-blend-mode:multiply"/><polygon points="454.47 6.02 462.24 6.02 466.12 14.19 462.24 22.35 454.47 22.35 450.58 14.18 454.47 6.02" style="fill:#e6e7e8;mix-blend-mode:multiply"/><polygon points="278.29 61.36 315.22 61.37 333.68 100.17 315.2 138.97 278.27 138.96 259.81 100.16 278.29 61.36" style="fill:#e6e7e8;mix-blend-mode:multiply"/><polygon points="276.81 9.1 284.24 9.1 287.96 16.91 284.24 24.72 276.81 24.72 273.09 16.91 276.81 9.1" style="fill:#e6e7e8;mix-blend-mode:multiply"/><polygon points="18.81 114.53 23.23 114.54 25.45 119.19 23.23 123.83 18.81 123.83 16.6 119.18 18.81 114.53" style="fill:#e6e7e8;mix-blend-mode:multiply"/><polygon points="541.86 35.94 547.12 35.94 549.76 41.47 547.12 47 541.86 47 539.22 41.47 541.86 35.94" style="fill:#e6e7e8;mix-blend-mode:multiply"/><polygon points="241.87 38.56 247.04 38.56 249.62 43.98 247.03 49.41 241.87 49.41 239.29 43.98 241.87 38.56" style="fill:#e6e7e8;mix-blend-mode:multiply"/><polygon points="352.43 62.05 373.89 62.06 384.61 84.6 373.88 107.14 352.42 107.14 341.7 84.59 352.43 62.05" style="fill:#e6e7e8;mix-blend-mode:multiply"/><polygon points="127.76 180.72 159.41 180.73 175.23 213.98 159.39 247.23 127.74 247.22 111.92 213.97 127.76 180.72" style="fill:#e6e7e8;mix-blend-mode:multiply"/><polygon points="66.41 141.78 89.8 141.79 101.49 166.37 89.79 190.94 66.39 190.93 54.71 166.35 66.41 141.78" style="fill:#e6e7e8;mix-blend-mode:multiply"/><polygon points="90 5.68 94.9 5.68 97.35 10.83 94.9 15.98 89.99 15.98 87.54 10.83 90 5.68" style="fill:#e6e7e8;mix-blend-mode:multiply"/><polygon points="187.93 104.35 221.34 104.35 238.03 139.46 221.32 174.55 187.91 174.54 171.21 139.44 187.93 104.35" style="fill:#e6e7e8;mix-blend-mode:multiply"/><polygon points="73.5 195.83 81.03 195.83 84.79 203.75 81.02 211.66 73.49 211.66 69.73 203.74 73.5 195.83" style="fill:#e6e7e8;mix-blend-mode:multiply"/><polygon points="105.25 63.9 140.16 63.91 157.6 100.58 140.14 137.24 105.24 137.24 87.8 100.56 105.25 63.9" style="fill:#e6e7e8;mix-blend-mode:multiply"/><polygon points="58.36 95.27 92.99 95.28 110.29 131.66 92.97 168.03 58.34 168.02 41.04 131.64 58.36 95.27" style="fill:#e6e7e8;mix-blend-mode:multiply"/><polygon points="151.13 88.14 170.38 88.14 179.99 108.36 170.37 128.57 151.12 128.57 141.51 108.35 151.13 88.14" style="fill:#e6e7e8;mix-blend-mode:multiply"/><polygon points="200.08 29.04 218.69 29.05 228 48.6 218.68 68.16 200.07 68.15 190.77 48.59 200.08 29.04" style="fill:#e6e7e8;mix-blend-mode:multiply"/><g style="mix-blend-mode:multiply"><path d="M88,160.38l-13.6,28.55,13.59,28.56h27.18L128.71,189l-13.58-28.56H88m-1-2.14h29.22l14.6,30.7-14.61,30.69H86.91l-14.6-30.71,14.62-30.69Z" transform="translate(0.52 -0.31)" style="fill:#e6e7e8"/></g><g style="mix-blend-mode:multiply"><path d="M85.47,110.31,68,147l17.47,36.73h35l17.49-36.72-17.47-36.73h-35m-1.31-2.76h37.58l18.78,39.49-18.8,39.48H84.14L65.36,147l18.8-39.48Z" transform="translate(0.52 -0.31)" style="fill:#e6e7e8"/></g><g style="mix-blend-mode:multiply"><path d="M47.42,138.2l-2.91,6.11,2.91,6.11h5.81l2.91-6.11-2.9-6.11H47.42m-.22-.46h6.25l3.13,6.57-3.13,6.57H47.2l-3.13-6.57,3.13-6.57Z" transform="translate(0.52 -0.31)" style="fill:#e6e7e8"/></g><g style="mix-blend-mode:multiply"><path d="M419.12,10.24l-5,10.42,5,10.42H429l5-10.42-5-10.42h-9.92m-.37-.79h10.66l5.33,11.2-5.33,11.21H418.74l-5.33-11.2,5.34-11.21Z" transform="translate(0.52 -0.31)" style="fill:#e6e7e8"/></g><g style="mix-blend-mode:multiply"><path d="M469.38,37.05l-2.08,4.37,2.08,4.36h4.15l2.08-4.36-2.07-4.36h-4.16m-.15-.32h4.46l2.23,4.69-2.23,4.69h-4.47L467,41.42l2.24-4.69Z" transform="translate(0.52 -0.31)" style="fill:#e6e7e8"/></g><g style="mix-blend-mode:multiply"><path d="M91.88,5.3,77.35,35.81,91.87,66.32h29l14.53-30.51L120.93,5.31H91.88M90.79,3H122l15.6,32.8L122,68.62H90.78L75.17,35.81,90.79,3Z" transform="translate(0.52 -0.31)" style="fill:#e6e7e8"/></g><g style="mix-blend-mode:multiply"><path d="M617.38,15l-2.29,4.81,2.29,4.82H622l2.29-4.81L622,15h-4.58m-.17-.36h4.92l2.47,5.18L622.13,25h-4.92l-2.47-5.18,2.47-5.17Z" transform="translate(0.52 -0.31)" style="fill:#e6e7e8"/></g><g style="mix-blend-mode:multiply"><path d="M180.51,47.86,178,53.22l2.55,5.37h5.11l2.55-5.36-2.55-5.37h-5.11m-.19-.4h5.49l2.74,5.77L185.81,59h-5.49l-2.75-5.77,2.75-5.76Z" transform="translate(0.52 -0.31)" style="fill:#e6e7e8"/></g><g style="mix-blend-mode:multiply"><path d="M52.92,10.25l-2.69,5.66,2.69,5.66h5.39L61,15.91l-2.69-5.66H52.92m-.2-.42h5.79l2.89,6.08L58.51,22H52.72l-2.9-6.08,2.9-6.08Z" transform="translate(0.52 -0.31)" style="fill:#e6e7e8"/></g><g style="mix-blend-mode:multiply"><path d="M304.85,63.41l-3.54,7.43,3.54,7.43h7.07l3.54-7.43-3.54-7.43h-7.07m-.26-.55h7.6l3.8,8-3.8,8h-7.61l-3.8-8,3.81-8Z" transform="translate(0.52 -0.31)" style="fill:#e6e7e8"/></g><g style="mix-blend-mode:multiply"><path d="M85.57,72.69l-4.06,8.52,4,8.52h8.11l4-8.52-4-8.52h-8.1m-.31-.64H94l4.35,9.16L94,90.37H85.26L80.9,81.21l4.36-9.16Z" transform="translate(0.52 -0.31)" style="fill:#e6e7e8"/></g><g style="mix-blend-mode:multiply"><path d="M2.88,139.88l-3,6.21,3,6.2H8.78l3-6.2-3-6.21H2.88m-.23-.46H9l3.18,6.67L9,152.76H2.65l-3.17-6.67,3.17-6.67Z" transform="translate(0.52 -0.31)" style="fill:#e6e7e8"/></g><g style="mix-blend-mode:multiply"><path d="M431.34,45.43l-3.26,6.84,3.26,6.85h6.52l3.26-6.85-3.26-6.84h-6.52m-.24-.52h7l3.5,7.36-3.5,7.36h-7l-3.51-7.36,3.51-7.36Z" transform="translate(0.52 -0.31)" style="fill:#e6e7e8"/></g><g style="mix-blend-mode:multiply"><path d="M228.72,75.79l-18,37.72,18,37.72h35.9l18-37.72L264.63,75.8H228.72M227.38,73H266l19.29,40.55L266,154.07h-38.6l-19.29-40.55L227.38,73Z" transform="translate(0.52 -0.31)" style="fill:#e6e7e8"/></g><g style="mix-blend-mode:multiply"><path d="M131.16,126.61l-14.26,30,14.25,29.95h28.51l14.26-30-14.25-29.95H131.16m-1.07-2.25h30.65l15.32,32.2-15.33,32.2H130.08l-15.32-32.2,15.33-32.2Z" transform="translate(0.52 -0.31)" style="fill:#e6e7e8"/></g><g style="mix-blend-mode:multiply"><path d="M397,35.9l-4.83,10.15L397,56.21h9.66l4.84-10.16L406.71,35.9H397m-.36-.77h10.39l5.19,10.91L407.07,57h-10.4l-5.19-10.92,5.2-10.92Z" transform="translate(0.52 -0.31)" style="fill:#e6e7e8"/></g><g style="mix-blend-mode:multiply"><path d="M37.64,22,20.47,58,37.62,94H71.94L89.1,58,72,22H37.64m-1.29-2.71H73.24L91.68,58,73.22,96.76H36.33L17.9,58,36.35,19.24Z" transform="translate(0.52 -0.31)" style="fill:#e6e7e8"/></g><g style="mix-blend-mode:multiply"><path d="M502.05,2l-9.72,20.4L502,42.79h19.42l9.72-20.41L521.47,2H502.05M501.32.44H522.2l10.44,21.94L522.19,44.33H501.31L490.87,22.38,501.32.44Z" transform="translate(0.52 -0.31)" style="fill:#e6e7e8"/></g><g style="mix-blend-mode:multiply"><path d="M15.35,218.33,13.11,223l2.24,4.71h4.48L22.08,223l-2.24-4.71H15.35m-.17-.36H20L22.41,223,20,228.1H15.18L12.77,223,15.18,218Z" transform="translate(0.52 -0.31)" style="fill:#e6e7e8"/></g><g style="mix-blend-mode:multiply"><path d="M23.5,154.05l-2.08,4.38,2.08,4.38h4.17l2.09-4.38-2.09-4.38H23.5m-.16-.33h4.49l2.24,4.71-2.24,4.71H23.34l-2.24-4.71,2.24-4.71Z" transform="translate(0.52 -0.31)" style="fill:#e6e7e8"/></g><g style="mix-blend-mode:multiply"><path d="M286.78,3.05,269.39,39.58l17.37,36.53h34.78L338.93,39.6,321.56,3.06H286.78M285.48.31h37.38L341.54,39.6l-18.7,39.27H285.46L266.78,39.58,285.48.31Z" transform="translate(0.52 -0.31)" style="fill:#e6e7e8"/></g><g style="mix-blend-mode:multiply"><path d="M226.1,147.2l-8.33,17.49,8.32,17.48h16.64l8.33-17.49-8.32-17.48H226.1m-.63-1.31h17.89l8.95,18.8-9,18.79H225.46l-8.94-18.8,8.95-18.8Z" transform="translate(0.52 -0.31)" style="fill:#e6e7e8"/></g><g style="mix-blend-mode:multiply"><path d="M272.12,52.35l-3,6.35,3,6.35h6l3-6.35-3-6.34h-6.05m-.22-.47h6.49l3.25,6.82-3.25,6.82h-6.5l-3.24-6.82,3.25-6.82Z" transform="translate(0.52 -0.31)" style="fill:#e6e7e8"/></g><g style="mix-blend-mode:multiply"><path d="M266,96.61l-7.93,16.65L266,129.91h15.85l7.93-16.65-7.92-16.65H266m-.6-1.25h17l8.52,17.9-8.53,17.9h-17l-8.51-17.9,8.52-17.9Z" transform="translate(0.52 -0.31)" style="fill:#e6e7e8"/></g><g style="mix-blend-mode:multiply"><path d="M361.21,16.7,344.14,52.53l17.05,35.84H395.3l17.07-35.83L395.32,16.71H361.21M359.93,14H396.6l18.33,38.53L396.58,91.07H359.91L341.58,52.53,359.93,14Z" transform="translate(0.52 -0.31)" style="fill:#e6e7e8"/></g><g style="mix-blend-mode:multiply"><path d="M155.1,55.33l-10.47,22,10.46,22H176l10.47-22L176,55.34H155.1m-.78-1.65h22.5l11.25,23.64L176.81,101H154.3L143.06,77.32l11.26-23.64Z" transform="translate(0.52 -0.31)" style="fill:#e6e7e8"/></g><g style="mix-blend-mode:multiply"><path d="M179.48,135.68l-18.06,37.91,18,37.92h36.09l18.06-37.91-18-37.92H179.48m-1.36-2.85h38.81l19.39,40.77-19.41,40.76H178.1l-19.39-40.77,19.41-40.76Z" transform="translate(0.52 -0.31)" style="fill:#e6e7e8"/></g><g style="mix-blend-mode:multiply"><path d="M26.55,43.5l-3,6.28,3,6.29h6l3-6.29-3-6.28h-6M26.33,43h6.43L36,49.78l-3.22,6.76H26.32l-3.21-6.76L26.33,43Z" transform="translate(0.52 -0.31)" style="fill:#e6e7e8"/></g><g style="mix-blend-mode:multiply"><path d="M222.34,49.67,207.2,81.47l15.13,31.82H252.6l15.15-31.8L252.62,49.68H222.34m-1.13-2.39h32.55L270,81.49l-16.28,34.19H221.19l-16.27-34.2,16.29-34.19Z" transform="translate(0.52 -0.31)" style="fill:#e6e7e8"/></g><g style="mix-blend-mode:multiply"><path d="M338,3.2,322.18,36.43,338,69.67h31.63l15.83-33.23L369.64,3.21H338M336.81.7h34l17,35.73-17,35.73h-34l-17-35.73L336.81.7Z" transform="translate(0.52 -0.31)" style="fill:#e6e7e8"/></g><g style="mix-blend-mode:multiply"><path d="M385.52,11.92a.89.89,0,1,0,1.75,0,.89.89,0,1,0-1.75,0Z" transform="translate(0.52 -0.31)" style="fill:#e6e7e8"/></g><g style="mix-blend-mode:multiply"><path d="M260.4,149.74a1.67,1.67,0,1,0,1.64-2A1.84,1.84,0,0,0,260.4,149.74Z" transform="translate(0.52 -0.31)" style="fill:#e6e7e8"/></g><g style="mix-blend-mode:multiply"><ellipse cx="7.37" cy="31.29" rx="2.29" ry="2.78" style="fill:#e6e7e8"/></g><g style="mix-blend-mode:multiply"><path d="M548.14,9.71a.5.5,0,1,0,1,0,.5.5,0,1,0-1,0Z" transform="translate(0.52 -0.31)" style="fill:#e6e7e8"/></g><g style="mix-blend-mode:multiply"><path d="M191.28,225.59c0,2.26,1.5,4.08,3.36,4.08s3.37-1.82,3.37-4.08-1.51-4.08-3.37-4.08S191.28,223.34,191.28,225.59Z" transform="translate(0.52 -0.31)" style="fill:#e6e7e8"/></g><g style="mix-blend-mode:multiply"><path d="M591.91,11.29a1.44,1.44,0,1,0,2.82,0,1.44,1.44,0,1,0-2.82,0Z" transform="translate(0.52 -0.31)" style="fill:#e6e7e8"/></g><g style="mix-blend-mode:multiply"><path d="M123.66,176.63a.76.76,0,1,0,.75-.9A.84.84,0,0,0,123.66,176.63Z" transform="translate(0.52 -0.31)" style="fill:#e6e7e8"/></g><g style="mix-blend-mode:multiply"><path d="M222,17.7a.52.52,0,0,0,.46.55.56.56,0,0,0,0-1.1A.52.52,0,0,0,222,17.7Z" transform="translate(0.52 -0.31)" style="fill:#e6e7e8"/></g><g style="mix-blend-mode:multiply"><ellipse cx="133.97" cy="15.79" rx="0.66" ry="0.8" style="fill:#e6e7e8"/></g><g style="mix-blend-mode:multiply"><ellipse cx="491.34" cy="9.3" rx="0.96" ry="1.17" style="fill:#e6e7e8"/></g><g style="mix-blend-mode:multiply"><path d="M169.53,200.64a.44.44,0,1,0,.86,0,.44.44,0,1,0-.86,0Z" transform="translate(0.52 -0.31)" style="fill:#e6e7e8"/></g><g style="mix-blend-mode:multiply"><path d="M447.55,76.4a1,1,0,1,0,1-1.2A1.1,1.1,0,0,0,447.55,76.4Z" transform="translate(0.52 -0.31)" style="fill:#e6e7e8"/></g><g style="mix-blend-mode:multiply"><path d="M138.43,77.92a.49.49,0,1,0,.48-.58A.54.54,0,0,0,138.43,77.92Z" transform="translate(0.52 -0.31)" style="fill:#e6e7e8"/></g><g style="mix-blend-mode:multiply"><ellipse cx="201.34" cy="8.9" rx="1.95" ry="2.37" style="fill:#e6e7e8"/></g><g style="mix-blend-mode:multiply"><path d="M62.23,102.44a1.34,1.34,0,1,0,1.32-1.6A1.49,1.49,0,0,0,62.23,102.44Z" transform="translate(0.52 -0.31)" style="fill:#e6e7e8"/></g><g style="mix-blend-mode:multiply"><path d="M356.86,124.56a1.78,1.78,0,1,0,1.75-2.12A2,2,0,0,0,356.86,124.56Z" transform="translate(0.52 -0.31)" style="fill:#e6e7e8"/></g><g style="mix-blend-mode:multiply"><path d="M169.65,160.06a.63.63,0,1,0,.62-.76A.7.7,0,0,0,169.65,160.06Z" transform="translate(0.52 -0.31)" style="fill:#e6e7e8"/></g><g style="mix-blend-mode:multiply"><path d="M9,69.25a.91.91,0,0,0,.8,1,1,1,0,0,0,0-2A.9.9,0,0,0,9,69.25Z" transform="translate(0.52 -0.31)" style="fill:#e6e7e8"/></g><g style="mix-blend-mode:multiply"><path d="M571.68,27.22a2.62,2.62,0,1,0,5.14,0,2.62,2.62,0,1,0-5.14,0Z" transform="translate(0.52 -0.31)" style="fill:#e6e7e8"/></g><g style="mix-blend-mode:multiply"><path d="M47,220.93c0,2.16,1.44,3.91,3.22,3.91s3.22-1.75,3.22-3.91S52,217,50.21,217,47,218.77,47,220.93Z" transform="translate(0.52 -0.31)" style="fill:#e6e7e8"/></g><g style="mix-blend-mode:multiply"><path d="M332.19,24.24a.7.7,0,1,0,1.37,0,.7.7,0,1,0-1.37,0Z" transform="translate(0.52 -0.31)" style="fill:#e6e7e8"/></g><g style="mix-blend-mode:multiply"><path d="M196.41,96.29a2.27,2.27,0,1,0,2.23-2.71A2.49,2.49,0,0,0,196.41,96.29Z" transform="translate(0.52 -0.31)" style="fill:#e6e7e8"/></g><g style="mix-blend-mode:multiply"><path d="M79.06,231.12a.54.54,0,0,0,.48.59.6.6,0,1,0-.48-.59Z" transform="translate(0.52 -0.31)" style="fill:#e6e7e8"/></g><g style="mix-blend-mode:multiply"><path d="M309.39,9.64a2.59,2.59,0,1,0,5.09,0,2.59,2.59,0,1,0-5.09,0Z" transform="translate(0.52 -0.31)" style="fill:#e6e7e8"/></g><g style="mix-blend-mode:multiply"><path d="M11.39,191.05a.45.45,0,1,0,.44-.54A.5.5,0,0,0,11.39,191.05Z" transform="translate(0.52 -0.31)" style="fill:#e6e7e8"/></g><g style="mix-blend-mode:multiply"><path d="M97.36,113.89a1.2,1.2,0,1,0,1.18-1.44A1.32,1.32,0,0,0,97.36,113.89Z" transform="translate(0.52 -0.31)" style="fill:#e6e7e8"/></g><g style="mix-blend-mode:multiply"><ellipse cx="227.04" cy="128.85" rx="2.29" ry="2.78" style="fill:#e6e7e8"/></g><g style="mix-blend-mode:multiply"><path d="M4.31,97.5a.66.66,0,0,0,.58.71.73.73,0,0,0,0-1.43A.66.66,0,0,0,4.31,97.5Z" transform="translate(0.52 -0.31)" style="fill:#e6e7e8"/></g><g style="mix-blend-mode:multiply"><ellipse cx="80.26" cy="44.63" rx="0.53" ry="0.64" style="fill:#e6e7e8"/></g><g style="mix-blend-mode:multiply"><path d="M45.89,184.72a.61.61,0,1,0,.6-.73A.68.68,0,0,0,45.89,184.72Z" transform="translate(0.52 -0.31)" style="fill:#e6e7e8"/></g><g style="mix-blend-mode:multiply"><ellipse cx="24.22" cy="13.1" rx="1.2" ry="1.46" style="fill:#e6e7e8"/></g><g style="mix-blend-mode:multiply"><path d="M34.93,93.05A1.11,1.11,0,1,0,36,91.72,1.22,1.22,0,0,0,34.93,93.05Z" transform="translate(0.52 -0.31)" style="fill:#e6e7e8"/></g><g style="mix-blend-mode:multiply"><path d="M108.92,222.48a.41.41,0,1,0,.41-.49A.46.46,0,0,0,108.92,222.48Z" transform="translate(0.52 -0.31)" style="fill:#e6e7e8"/></g><g style="mix-blend-mode:multiply"><ellipse cx="335.33" cy="75.29" rx="2.03" ry="2.46" style="fill:#e6e7e8"/></g><g style="mix-blend-mode:multiply"><ellipse cx="117.6" cy="61.92" rx="0.5" ry="0.6" style="fill:#e6e7e8"/></g><g style="mix-blend-mode:multiply"><path d="M173.08,15.34a1.47,1.47,0,1,0,2.88,0,1.47,1.47,0,1,0-2.88,0Z" transform="translate(0.52 -0.31)" style="fill:#e6e7e8"/></g></g></g></svg>