<svg id="_Layer_" data-name="&lt;Layer&gt;" xmlns="http://www.w3.org/2000/svg" viewBox="0 0 2274.49 1582.98"><path d="M2237.26,1790.51c-189.35,25.11-384.42,14.65-783-11.63-223.81-14.76-673.82,9.69-898.44,11.63-163.76,1.41-296.53-128.13-296.53-286.18V518.67c0-158,133-295.47,296.53-286.17,151.82,8.63,375.13,42.81,607.91,21.88,276.86-24.89,802.37-46,1073.53-21.88,163.07,14.53,296.52,128.12,296.52,286.17v985.66C2533.78,1662.38,2399.5,1769,2237.26,1790.51Z" transform="translate(-259.29 -221.86)" style="fill:#deebe9"/><ellipse cx="1059.8" cy="1357.28" rx="855.27" ry="82.91" style="fill:#bed5dc"/><path d="M967.47,968.09h0a4.18,4.18,0,0,0,5.89.18l25.88-24.34a4.17,4.17,0,0,0,.18-5.88h0a4.17,4.17,0,0,0-5.88-.18l-25.89,24.34A4.19,4.19,0,0,0,967.47,968.09Z" transform="translate(-259.29 -221.86)" style="fill:#f7b686"/><path d="M960.17,960.33h0a4.18,4.18,0,0,0,5.89.18L995,933.29a4.17,4.17,0,0,0,.18-5.88h0a4.17,4.17,0,0,0-5.88-.18l-28.94,27.22A4.18,4.18,0,0,0,960.17,960.33Z" transform="translate(-259.29 -221.86)" style="fill:#f7b686"/><path d="M943.15,972.41l1.46.22a5.06,5.06,0,0,0,5.71-4.26l3.86-26.68a5.05,5.05,0,0,0-4.26-5.71l-1.46-.21a5,5,0,0,0-5.7,4.26l-3.87,26.68A5,5,0,0,0,943.15,972.41Z" transform="translate(-259.29 -221.86)" style="fill:#f7b686"/><path d="M952.87,952.57h0a4.18,4.18,0,0,0,5.89.18L982,930.93a4.17,4.17,0,0,0,.18-5.88h0a4.17,4.17,0,0,0-5.88-.18l-23.2,21.82A4.18,4.18,0,0,0,952.87,952.57Z" transform="translate(-259.29 -221.86)" style="fill:#f7b686"/><path d="M957.69,987.22s23.19-5.27,30.41-20.56c2.49-5.29-19.62-27.54-25.88-25.6s-20.49,18.21-20.49,18.21Z" transform="translate(-259.29 -221.86)" style="fill:#f7b686"/><path d="M974.7,975.82h0a4.15,4.15,0,0,0,5.87.18l23.15-21.77a4.16,4.16,0,0,0,.19-5.87h0a4.15,4.15,0,0,0-5.87-.18L974.88,970A4.17,4.17,0,0,0,974.7,975.82Z" transform="translate(-259.29 -221.86)" style="fill:#f7b686"/><path d="M940.83,952.35c-41.14,21.52-101.91,49.22-157.85,59-13,2.27-18,3-25.67,3.19-6.22.19-12.95,11.36-12.74,22,.2,10,7.22,18.58,14.72,19.75,5.6.88,11.49.46,26-1.84,50.34-8,107.65-30.29,175.64-68.18Z" transform="translate(-259.29 -221.86)" style="fill:#f7b686"/><path d="M708.19,1546.43s.33,13.4,9.4,17.19,35.36,7.19,25.54,15.81c-5.64,5-32.2,1.75-39.7,1.75s-14.54,3.27-20.11-1.75c-6.13-5.52,0-33,0-33s6.47,3.37,12.29,3.22C704,1549.43,708.19,1546.43,708.19,1546.43Z" transform="translate(-259.29 -221.86)" style="fill:#2f1a31"/><path d="M604,1546.42s.34,13.41,9.41,17.19,35.36,7.2,25.54,15.82c-5.64,4.94-32.2,1.75-39.7,1.75s-14.54,3.26-20.11-1.75c-6.13-5.53,0-33,0-33s6.47,3.37,12.29,3.22C599.82,1549.43,604,1546.42,604,1546.42Z" transform="translate(-259.29 -221.86)" style="fill:#2f1a31"/><path d="M775.61,1178.9s1.68,56.12-16.23,163.77c-12.94,77.72-28.2,156-35.69,193.58A29.28,29.28,0,0,1,696.33,1560l-7.2.29c-14.47.58-26.22-11.85-25.16-26.64l18.17-254,4.48-83.6Z" transform="translate(-259.29 -221.86)" style="fill:#436e8e"/><path d="M618.38,1221.59c0,6.88,38.44,10.69,86.11,10.43s85.56-2.42,85.56-9.3-37.9-15.87-85.56-15.61S618.38,1214.71,618.38,1221.59Z" transform="translate(-259.29 -221.86)" style="fill:#2f1a31"/><path d="M738.17,1226.7l-117.8,316.58A32.55,32.55,0,0,1,590,1566.4l-6.07.1c-14.33.25-25.28-13-22.67-27.42l61.42-313.78c.8-3.62,13.56-5.28,17.18-5.58C669.91,1217.22,740,1213.29,738.17,1226.7Z" transform="translate(-259.29 -221.86)" style="fill:#436e8e"/><path d="M660.88,1038.65s18.71-35.48,65.82-26.92c22.27,4,46,11.49,51.37,52.49,4.85,36.8,17.52,87.29,12,158.5,0,0-75.08-28.23-171.67-1.71,0,0,3.6-104.55,20.93-164C644.18,1040.23,654.58,1050,660.88,1038.65Z" transform="translate(-259.29 -221.86)" style="fill:#9bbcb6"/><path d="M622.43,1017.51l36,40.4s109.06,30.94,120.22,10.24c16.47-30.56-1.07-60.44-1.07-60.44s-40.28,1.46-59.92,1.79c-7.12.11-24-1.4-31-1.63C637.87,1006.27,622.43,1017.51,622.43,1017.51Z" transform="translate(-259.29 -221.86)" style="fill:#9bbcb6"/><path d="M673.09,1404l-1.65-.39,24.84-106.15a64.31,64.31,0,0,1,29.06-35.89l.85,1.47a62.59,62.59,0,0,0-28.28,34.88Z" transform="translate(-259.29 -221.86)" style="fill:#020202"/><path d="M738.44,1000.35l-.12-.54c.06,0,6.19-1.38,8-5.5.93-2.14.56-4.67-1.12-7.53-.79-1.34-1.52-2.55-2.18-3.67-4.6-7.66-6.32-10.53-4.9-16.7l.55.12c-1.38,6,.18,8.56,4.82,16.3.67,1.11,1.4,2.33,2.19,3.67,1.77,3,2.16,5.72,1.15,8C744.9,998.92,738.7,1000.3,738.44,1000.35Z" transform="translate(-259.29 -221.86)" style="fill:#e28569"/><path d="M738.4,966.47a28.18,28.18,0,0,0,3.84,19.72c6.15,10.17-.91,17.37-9.45,13.34s-12,6.87-22.92.58S738.4,966.47,738.4,966.47Z" transform="translate(-259.29 -221.86)" style="fill:#e28569"/><path d="M686.66,1007.87a13.23,13.23,0,0,0,10.94-7.67l6.21-13.65,1.8-4,10.59-23.3L714,983.61l-1.35,14.59-.39,4.16a6.65,6.65,0,0,0,5.35,7.12l0,0c1.75,3,4.11,9-3.36,11.18-8.79,2.6-22.77-4.56-27.67-12.8Z" transform="translate(-259.29 -221.86)" style="fill:#f7b686"/><path d="M703.79,986.14c0,.14,0,.27,0,.41.42,7.86,8.74,11.7,8.74,11.7l.06,0L714,983.61c-2.55-1-6.19-2-8.35-1C704.48,983.11,703.75,984.2,703.79,986.14Z" transform="translate(-259.29 -221.86)" style="fill:#2f1a31"/><path d="M740.11,963.67c.31-15.59-9.68-28.43-22.32-28.69s-23.13,12.18-23.44,27.77,9.67,28.43,22.31,28.69S739.79,979.26,740.11,963.67Z" transform="translate(-259.29 -221.86)" style="fill:#f7b686"/><path d="M697.32,967.07c2.54,2.52,6.16,2.85,8.08.73s1.42-5.9-1.12-8.42-6.16-2.86-8.08-.73S694.78,964.54,697.32,967.07Z" transform="translate(-259.29 -221.86)" style="fill:#f7b686"/><path d="M729.18,981.72a49.43,49.43,0,0,1-15.58-2.88s-.8,7.69,7.65,8.38C726.17,987.62,729.18,981.72,729.18,981.72Z" transform="translate(-259.29 -221.86)" style="fill:#db6b49"/><path d="M729.18,981.72s-1.92,1.53-6.34,1.43-9.24-4.31-9.24-4.31S723,981.62,729.18,981.72Z" transform="translate(-259.29 -221.86)" style="fill:#fff"/><path d="M719.43,963.53a.53.53,0,0,0,.36-.31.52.52,0,0,0-.28-.68,5.63,5.63,0,0,0-6.76,1.37.51.51,0,0,0,0,.73.56.56,0,0,0,.74,0,8.91,8.91,0,0,1,5.61-1.14A.54.54,0,0,0,719.43,963.53Z" transform="translate(-259.29 -221.86)" style="fill:#060633"/><path d="M715.2,969.16c-.06,1.24.61,2.29,1.51,2.33s1.69-.92,1.75-2.16-.61-2.28-1.51-2.33S715.26,967.92,715.2,969.16Z" transform="translate(-259.29 -221.86)" style="fill:#060633"/><path d="M738,966.61a.51.51,0,0,0,.45-.14.53.53,0,0,0,0-.74,5.64,5.64,0,0,0-6.78-1.31.53.53,0,0,0-.27.68.57.57,0,0,0,.68.28,8.89,8.89,0,0,1,5.63,1.09A.49.49,0,0,0,738,966.61Z" transform="translate(-259.29 -221.86)" style="fill:#060633"/><path d="M731.89,970.21c-.53,1.12-.3,2.35.52,2.73s1.9-.21,2.43-1.33.31-2.35-.51-2.73S732.43,969.09,731.89,970.21Z" transform="translate(-259.29 -221.86)" style="fill:#060633"/><path d="M727.41,940.3s-.69,9.78-13,11.2-20.8,6.43-19.33,15.27,20.81,27.52,6.17,34.31-11.28-6.35-27-3.61-18.18-18.28-7.12-30.24,7.33-44.26,47.86-42,25,34.31,25,34.31S727.16,951.11,727.41,940.3Z" transform="translate(-259.29 -221.86)" style="fill:#e28569"/><path d="M697.09,1002.81l-.12-.31c3-1.15,4.81-2.82,5.49-5.12,1.86-6.38-5.54-16.39-12.07-25.21-1.73-2.34-3.37-4.56-4.82-6.67-4-5.88-4.26-12.8-.59-18.06,4.07-5.84,11.64-8.2,19.75-6.15,15,3.8,21.47-5.14,21.53-5.23l.28.19c-.07.09-6.68,9.22-21.89,5.36-8-2-15.41.29-19.4,6-3.64,5.22-3.42,11.84.59,17.68,1.45,2.11,3.08,4.32,4.82,6.66,6.57,8.89,14,19,12.11,25.5C702.08,999.84,700.16,1001.64,697.09,1002.81Z" transform="translate(-259.29 -221.86)" style="fill:#fff"/><path d="M736,985.08a6.53,6.53,0,0,1-3.48-1.1c-4.86-3.16-6.53-12.44-3.72-20.67h0c1.72-5,4.82-8.78,8.28-10a6.52,6.52,0,0,1,5.93.7c4.86,3.15,6.53,12.41,3.72,20.66-1.72,5.06-4.82,8.79-8.28,10A7,7,0,0,1,736,985.08Zm-6.24-21.43c-2.66,7.81-1.18,16.56,3.32,19.49a5.7,5.7,0,0,0,5,.58c3.17-1.09,6-4.6,7.65-9.35,2.67-7.82,1.19-16.57-3.31-19.48a5.64,5.64,0,0,0-5-.59c-3.18,1.1-6,4.59-7.66,9.35Z" transform="translate(-259.29 -221.86)" style="fill:#6f4975"/><g style="opacity:0.30000000000000004"><path d="M702.43,957.39c-2,8,.76,16.74,6.16,19.46s11.4-1.57,13.4-9.59-.76-16.74-6.16-19.46S704.43,949.37,702.43,957.39Z" transform="translate(-259.29 -221.86)" style="fill:#fff"/></g><g style="opacity:0.30000000000000004"><path d="M728.56,964c-2,8.06.27,16.89,5.08,19.72S744,982.3,746,974.24s-.27-16.89-5.08-19.72S730.56,955.93,728.56,964Z" transform="translate(-259.29 -221.86)" style="fill:#fff"/></g><path d="M712.43,977.94a8.39,8.39,0,0,1-3.63-.93c-6-2.93-9-12.3-6.86-20.88h0c1.26-5,4-8.78,7.56-10.41a8.37,8.37,0,0,1,7.43.09c6,2.94,9,12.31,6.85,20.87-1.26,5-4,8.8-7.57,10.44A8.87,8.87,0,0,1,712.43,977.94Zm.86-32a7.61,7.61,0,0,0-3.36.73c-3.22,1.49-5.84,5.13-7,9.75h0c-2.07,8.13.77,17,6.31,19.72a7.61,7.61,0,0,0,6.54.08c3.22-1.48,5.85-5.13,7-9.76,2.06-8.13-.78-17-6.31-19.72A7.6,7.6,0,0,0,713.29,945.91Z" transform="translate(-259.29 -221.86)" style="fill:#6f4975"/><path d="M729.58,967a.9.9,0,0,1-.6-.23h0a8.57,8.57,0,0,0-6.8-1.34,1,1,0,0,1-1.1-.78.94.94,0,0,1,.77-1.09,10.28,10.28,0,0,1,8.37,1.76,1,1,0,0,1,.09,1.34A.88.88,0,0,1,729.58,967Z" transform="translate(-259.29 -221.86)" style="fill:#6f4975"/><path d="M622.18,1017.77c-3.8,3.66,0,14,12.78,26.5s18.74,17,24.26,10.87c3.65-4,3.24-20.71-10-31.21C639,1015.78,624.88,1015.17,622.18,1017.77Z" transform="translate(-259.29 -221.86)" style="fill:#2f1a31"/><path d="M641.63,1219.57s64.49-10.68,127.54,3.23a5.86,5.86,0,0,1,4.58,6.28l-2.23,23.53-66-16.42Z" transform="translate(-259.29 -221.86)" style="fill:#436e8e"/><path d="M521.74,1224.13h0a4.16,4.16,0,0,0-4.72,3.51l-5.17,35.15a4.16,4.16,0,0,0,3.51,4.72h0a4.16,4.16,0,0,0,4.72-3.51l5.17-35.15A4.18,4.18,0,0,0,521.74,1224.13Z" transform="translate(-259.29 -221.86)" style="fill:#f7b686"/><path d="M532.28,1225.68h0a4.16,4.16,0,0,0-4.72,3.51l-5.78,39.31a4.16,4.16,0,0,0,3.51,4.72h0a4.16,4.16,0,0,0,4.72-3.51l5.78-39.31A4.17,4.17,0,0,0,532.28,1225.68Z" transform="translate(-259.29 -221.86)" style="fill:#f7b686"/><path d="M538.12,1205.63l-1.28.75a5,5,0,0,0-1.82,6.88l13.54,23.31a5,5,0,0,0,6.88,1.82l1.28-.74a5,5,0,0,0,1.82-6.88L545,1207.46A5,5,0,0,0,538.12,1205.63Z" transform="translate(-259.29 -221.86)" style="fill:#f7b686"/><path d="M542.82,1227.23h0a4.16,4.16,0,0,0-4.72,3.51l-4.64,31.51A4.18,4.18,0,0,0,537,1267h0a4.16,4.16,0,0,0,4.72-3.51l4.63-31.51A4.16,4.16,0,0,0,542.82,1227.23Z" transform="translate(-259.29 -221.86)" style="fill:#f7b686"/><path d="M517.53,1203.05s-14.9,18.54-11.07,35c1.33,5.7,32.49,9.41,36.19,4s4.75-27,4.75-27Z" transform="translate(-259.29 -221.86)" style="fill:#f7b686"/><path d="M511.28,1222.56h0a4.16,4.16,0,0,0-4.72,3.5l-4.62,31.45a4.16,4.16,0,0,0,3.5,4.71h0a4.17,4.17,0,0,0,4.72-3.5l4.62-31.45A4.16,4.16,0,0,0,511.28,1222.56Z" transform="translate(-259.29 -221.86)" style="fill:#f7b686"/><path d="M552.4,1219.92c18.88-42.41,49.31-101.87,87.06-144.31,8.74-9.83,12.22-13.46,18.13-18.44,4.75-4,3.1-17-3.68-25.16-6.35-7.7-17.19-10.08-23.8-6.34-4.94,2.79-9.29,6.77-19.22,17.57-34.48,37.53-65.56,90.6-95.32,162.52Z" transform="translate(-259.29 -221.86)" style="fill:#f7b686"/><g style="opacity:0.5"><path d="M573.74,1126.89a5.63,5.63,0,0,1-2.67-.64,5.93,5.93,0,0,1-2.89-3.7c-.82-2.75-.25-6.32,1.54-9.53,3-5.42,8.29-8.12,12-6.15a5.94,5.94,0,0,1,2.89,3.69c.82,2.76.25,6.32-1.54,9.54C580.77,1124.32,577,1126.89,573.74,1126.89Zm5.39-18.61c-2.55,0-5.71,2.26-7.63,5.73-1.52,2.74-2,5.72-1.36,8a4,4,0,0,0,1.87,2.48c2.67,1.4,6.94-1,9.32-5.34,1.52-2.74,2-5.72,1.36-8a4,4,0,0,0-1.87-2.48A3.59,3.59,0,0,0,579.13,1108.28Z" transform="translate(-259.29 -221.86)" style="fill:#e08b65"/></g><path d="M971,950.57l4,29.88a20.87,20.87,0,0,0,23.45,17.92l36.33-4.86a20.87,20.87,0,0,0,17.93-23.46l-2.84-21.13a20.87,20.87,0,0,1,12-21.77c1.6-.72,3.18-1.48,4.76-2.26a20.72,20.72,0,0,1,23.25,3.46l14.22,13.13a20.88,20.88,0,0,0,29.5-1.18l24.86-26.94a20.87,20.87,0,0,0-1.16-29.48l-14.23-13.15a20.74,20.74,0,0,1-5.29-22.88c.65-1.62,1.28-3.26,1.87-4.9a20.84,20.84,0,0,1,20.74-13.76l21.28,1.14a20.87,20.87,0,0,0,22-19.74l2-36.61a20.88,20.88,0,0,0-19.73-22l-30.11-1.62a21,21,0,0,1-18.26-13.1,146.76,146.76,0,0,0-9.1-18.5,21,21,0,0,1,2.59-24.84l16.1-17.44A20.87,20.87,0,0,0,1146,647l-26.93-24.85a20.88,20.88,0,0,0-29.5,1.18l-21.65,23.45a20.87,20.87,0,0,1-21.67,5.82c-1.86-.6-3.74-1.16-5.62-1.68a20.76,20.76,0,0,1-14.95-17.3l-4.5-33.73A20.88,20.88,0,0,0,997.71,582l-36.35,4.86a20.88,20.88,0,0,0-17.93,23.46l3.88,29a20.9,20.9,0,0,1-11.49,21.5l-.27.13a20.81,20.81,0,0,1-23.36-3.4L892,638.88a20.88,20.88,0,0,0-29.51,1.17l-24.87,27a20.88,20.88,0,0,0,1.18,29.5L859,715.11a20.8,20.8,0,0,1,5.25,23l-.12.3A20.88,20.88,0,0,1,843.6,751.6L814.43,750a20.87,20.87,0,0,0-22,19.74l-1.94,36.63a20.87,20.87,0,0,0,19.74,22l34,1.81a20.76,20.76,0,0,1,18.44,13.53c.67,1.83,1.37,3.65,2.12,5.45a20.86,20.86,0,0,1-4.08,22.06l-21.67,23.45a20.88,20.88,0,0,0,1.17,29.5L867.18,949a20.87,20.87,0,0,0,29.5-1.17l16.11-17.44a21,21,0,0,1,24.54-4.57,146.91,146.91,0,0,0,19.16,7.57A21,21,0,0,1,971,950.57Zm-27.56-97.1c-31.28-28.88-30.3-94.85-1.42-126.13s83.88-25.86,115.12,3,22.13,84.79-6.75,116.07S974.74,882.35,943.46,853.47Z" transform="translate(-259.29 -221.86)" style="fill:#e28569"/><path d="M1063.85,1374.48a209.22,209.22,0,0,0,11.08,27.45,30.14,30.14,0,0,1-6.32,35.32l-24.9,23.33a30,30,0,0,0-1.39,42.41l36,38.47a30,30,0,0,0,42.41,1.37l33.48-31.38a30,30,0,0,1,31.66-6.09q3.9,1.58,7.86,3a29.86,29.86,0,0,1,19.64,26.36l2.94,48.83a30,30,0,0,0,31.75,28.14l52.63-3.16a30,30,0,0,0,28.15-31.77l-2.55-41.91a30,30,0,0,1,18.71-29.63l.43-.18a30,30,0,0,1,33.15,7.31l26.93,28.79a30,30,0,0,0,42.41,1.4l38.49-36a30,30,0,0,0,1.39-42.42l-27-28.79a29.93,29.93,0,0,1-5.12-33.55l.18-.37a30,30,0,0,1,30.78-16.74l41.68,5.27a30,30,0,0,0,33.53-26l6.61-52.31a30,30,0,0,0-26-33.53L1494,1272a29.85,29.85,0,0,1-25-21.31c-.77-2.7-1.6-5.38-2.48-8.06a30,30,0,0,1,8.15-31.2l33.48-31.36a30,30,0,0,0,1.39-42.41l-36-38.45a30,30,0,0,0-42.41-1.39l-24.89,23.32a30.16,30.16,0,0,1-35.69,4,211.17,211.17,0,0,0-26.68-12.9,30.11,30.11,0,0,1-19-26.1l-2.64-43.27a30,30,0,0,0-31.76-28.12l-52.61,3.19a30,30,0,0,0-28.13,31.76l1.85,30.58a30,30,0,0,1-19.56,30q-3.54,1.29-7,2.73a29.8,29.8,0,0,1-32.93-7.37l-19-20.31a30,30,0,0,0-42.39-1.38l-38.46,36a30,30,0,0,0-1.39,42.41l19,20.3A29.82,29.82,0,0,1,1075,1216q-1.67,3.4-3.21,6.86a30,30,0,0,1-31.15,17.54l-30.41-3.85a30,30,0,0,0-33.54,26l-6.6,52.27a30,30,0,0,0,26,33.52l43,5.46A30.14,30.14,0,0,1,1063.85,1374.48Zm124-135.89c44.66-41.83,125-55.56,166.75-10.9s50.15,123.64,5.55,165.43-139.47,43.92-181.3-.75S1143.23,1280.38,1187.88,1238.59Z" transform="translate(-259.29 -221.86)" style="fill:#96b4e0"/><path d="M2186.39,1173.75a15.87,15.87,0,0,1-15.67-13.73l-2.95-22a13.21,13.21,0,0,0-9.09-10.88c-1.29-.4-2.61-.84-3.91-1.3a13,13,0,0,0-4.32-.74,13.24,13.24,0,0,0-9.7,4.26l-16,17.4a15.82,15.82,0,0,1-22.36.91l-18.75-17.28a15.83,15.83,0,0,1-.91-22.37l13.77-14.92a13.22,13.22,0,0,0,1.86-15.31l-.1-.18a13.16,13.16,0,0,0-13.33-6.74l-18.9,2.55a16.93,16.93,0,0,1-2.13.14,15.86,15.86,0,0,1-15.67-13.71l-3.4-25.28a15.83,15.83,0,0,1,13.58-17.8l18.91-2.53a13.22,13.22,0,0,0,11.08-10l0-.19a13.2,13.2,0,0,0-5.83-14.27L2065.35,979a15.84,15.84,0,0,1-5-21.81l13.52-21.63a15.83,15.83,0,0,1,21.81-5l20,12.54a13.2,13.2,0,0,0,7,2,12.89,12.89,0,0,0,7.42-2.32c1.12-.77,2.28-1.54,3.44-2.28a13.25,13.25,0,0,0,5.9-12.91l-3-22a15.84,15.84,0,0,1,13.57-17.79l25.25-3.4a17.05,17.05,0,0,1,2.13-.14A15.87,15.87,0,0,1,2193.15,898l2.19,16.35a13.23,13.23,0,0,0,11.07,11.28,104.67,104.67,0,0,1,14.12,3.38,13.58,13.58,0,0,0,4,.62,13.23,13.23,0,0,0,9.7-4.23L2248.5,910a15.83,15.83,0,0,1,22.36-.9l18.74,17.29a15.83,15.83,0,0,1,.9,22.36l-10.05,10.89a13.11,13.11,0,0,0-1.66,15.65c.62,1.06,1.23,2.13,1.82,3.22a13.17,13.17,0,0,0,13.27,6.63l13.34-1.78a16.89,16.89,0,0,1,2.12-.14A15.87,15.87,0,0,1,2325,996.91l3.4,25.26a15.85,15.85,0,0,1-13.58,17.8l-13.34,1.79a13.15,13.15,0,0,0-11.06,9.91c-.28,1.21-.58,2.41-.91,3.6a13.12,13.12,0,0,0,5.74,14.64l12.57,7.86a15.82,15.82,0,0,1,5,21.81l-13.51,21.6a15.83,15.83,0,0,1-21.8,5l-17.78-11.11a13.15,13.15,0,0,0-7-2,13.37,13.37,0,0,0-7.27,2.15,102.55,102.55,0,0,1-12.71,7,13.21,13.21,0,0,0-7.68,13.8l2.2,16.36a15.83,15.83,0,0,1-13.58,17.79l-25.27,3.39A15.11,15.11,0,0,1,2186.39,1173.75Zm-35.94-51.28a15.57,15.57,0,0,1,5.2.89c1.27.45,2.55.88,3.81,1.27a15.84,15.84,0,0,1,10.91,13l3,22a13.24,13.24,0,0,0,13.07,11.45h0a13.16,13.16,0,0,0,1.77-.12l25.27-3.39a13.21,13.21,0,0,0,11.32-14.84l-2.2-16.36a15.85,15.85,0,0,1,9.19-16.54,100.71,100.71,0,0,0,12.39-6.81,16,16,0,0,1,8.69-2.57,15.77,15.77,0,0,1,8.35,2.39L2279,1124a13.2,13.2,0,0,0,18.18-4.2l13.51-21.61a13.2,13.2,0,0,0-4.2-18.19l-12.57-7.85a15.73,15.73,0,0,1-6.88-17.56c.31-1.16.61-2.33.88-3.51a15.81,15.81,0,0,1,13.27-11.92l13.34-1.79a13.2,13.2,0,0,0,11.32-14.84l-3.4-25.26a13.17,13.17,0,0,0-14.83-11.32l-13.35,1.79a16.62,16.62,0,0,1-2.11.14,15.66,15.66,0,0,1-13.81-8.13c-.57-1.06-1.17-2.1-1.77-3.13a15.72,15.72,0,0,1,2-18.77L2288.57,947a13.19,13.19,0,0,0-.75-18.65L2269.08,911a13.2,13.2,0,0,0-18.65.74l-14.22,15.41a15.89,15.89,0,0,1-16.47,4.33,100.81,100.81,0,0,0-13.76-3.28,15.85,15.85,0,0,1-13.24-13.53l-2.2-16.35A13.18,13.18,0,0,0,2175.7,887l-25.25,3.4a13.22,13.22,0,0,0-11.32,14.84l3,22a15.86,15.86,0,0,1-7.09,15.47c-1.13.72-2.25,1.47-3.35,2.23a15.48,15.48,0,0,1-8.92,2.79,15.88,15.88,0,0,1-8.42-2.42l-20-12.54a13.17,13.17,0,0,0-18.19,4.19l-13.52,21.62a13.21,13.21,0,0,0,4.19,18.19L2084,987.54a15.84,15.84,0,0,1,7,17.1l0,.2a15.85,15.85,0,0,1-13.28,12l-18.91,2.54a13.19,13.19,0,0,0-11.33,14.84l3.4,25.28a13.19,13.19,0,0,0,14.85,11.31l18.9-2.55a16.65,16.65,0,0,1,2.12-.14,15.76,15.76,0,0,1,13.86,8.22l.1.19a15.81,15.81,0,0,1-2.23,18.35l-13.77,14.92a13.2,13.2,0,0,0,.75,18.66l18.76,17.28a13.21,13.21,0,0,0,18.65-.76l16-17.4A15.88,15.88,0,0,1,2150.45,1122.47Z" transform="translate(-259.29 -221.86)" style="fill:#436e8e"/><path d="M2190.9,1087.36c-28.51,0-60.26-28.06-64.11-56.66-1.9-14.18,3.14-28.64,14.2-40.73a66.75,66.75,0,0,1,39.6-21,40.11,40.11,0,0,1,5.47-.37c28.45,0,51.49,29.26,55.16,56.58a56.87,56.87,0,0,1-9.57,40.64,51,51,0,0,1-35.21,21.21A40.49,40.49,0,0,1,2190.9,1087.36Zm-4.84-116.17a38.18,38.18,0,0,0-5.12.34,64.06,64.06,0,0,0-38,20.22c-10.52,11.5-15.33,25.21-13.53,38.6,1.73,12.9,9.69,26.49,21.83,37.29s26.67,17.09,39.67,17.09a38.56,38.56,0,0,0,5.19-.34,48.35,48.35,0,0,0,33.41-20.13,54.24,54.24,0,0,0,9.12-38.77C2235.09,999.27,2213.13,971.19,2186.06,971.19Z" transform="translate(-259.29 -221.86)" style="fill:#436e8e"/><path d="M1996.35,802.84l60.92-1.65a42.2,42.2,0,0,0,41-43.3l-2-74.06A42.19,42.19,0,0,0,2053,642.78l-43.08,1.16a42.15,42.15,0,0,1-41.16-28.87q-1.66-5.05-3.53-10.06a41.9,41.9,0,0,1,11.93-46l29.44-25.76a42.2,42.2,0,0,0,4-59.55L1961.75,418a42.18,42.18,0,0,0-59.5-4l-29.48,25.77a41.92,41.92,0,0,1-47.11,5.73q-4.7-2.49-9.46-4.8A42.15,42.15,0,0,1,1793,396.06l6.85-42.53a42.2,42.2,0,0,0-34.95-48.37l-73.18-11.78a42.2,42.2,0,0,0-48.36,34.94l-9.71,60.19a42.35,42.35,0,0,1-30.23,33.88,296.28,296.28,0,0,0-39.13,14.33,42.42,42.42,0,0,1-49.38-10.54l-31.59-36.1a42.19,42.19,0,0,0-59.55-3.95L1368,434.92a42.2,42.2,0,0,0-4,59.54L1406.58,543a42.2,42.2,0,0,1,7.06,44.8q-2.4,5.43-4.59,10.93a42,42,0,0,1-38,26.35l-68.74,1.81a42.2,42.2,0,0,0-41.07,43.3l2,74.11a42.2,42.2,0,0,0,43.3,41.06l59.06-1.58a42.21,42.21,0,0,1,40.74,27.7l.21.55a42.09,42.09,0,0,1-11.84,46.24L1353,894.79a42.2,42.2,0,0,0-4,59.56l48.85,55.77a42.19,42.19,0,0,0,59.55,3.94l41.69-36.53a42.06,42.06,0,0,1,47.4-5.62l.58.31a42.2,42.2,0,0,1,22.06,44.06l-9.39,58.29a42.19,42.19,0,0,0,35,48.38l73.2,11.74a42.2,42.2,0,0,0,48.35-35l10.9-67.91a42,42,0,0,1,31.16-34.17q5.73-1.42,11.41-3.09a42.14,42.14,0,0,1,43.45,12.92l42.49,48.57a42.18,42.18,0,0,0,59.54,4L1971,1011.2a42.18,42.18,0,0,0,4-59.53l-31.61-36.12a42.42,42.42,0,0,1-3.93-50.31,294.45,294.45,0,0,0,19.33-36.87A42.39,42.39,0,0,1,1996.35,802.84Zm-201.07,34.57c-64.75,56.68-197.12,40.59-253.8-24.17s-34-174.12,30.76-230.73,175.15-26.3,231.83,38.46S1860,780.73,1795.28,837.41Z" transform="translate(-259.29 -221.86)" style="fill:#bed5dc"/><path d="M1681.31,1181.74a43.79,43.79,0,0,1-6.94-.56l-73.21-11.74a43.47,43.47,0,0,1-36-49.83l9.4-58.29a41,41,0,0,0-21.4-42.74l-.59-.31a40.8,40.8,0,0,0-46,5.45l-41.69,36.53a43.45,43.45,0,0,1-61.34-4l-48.84-55.78a43.47,43.47,0,0,1,4.07-61.34l41.76-36.53A41,41,0,0,0,1412,857.71l-.21-.55a41.1,41.1,0,0,0-39.51-26.87l-59.07,1.58a43.22,43.22,0,0,1-44.6-42.29l-2-74.11a43.46,43.46,0,0,1,42.3-44.6l68.74-1.82a40.63,40.63,0,0,0,36.84-25.55c1.46-3.68,3-7.37,4.61-11a41,41,0,0,0-6.85-43.45l-42.5-48.55a43.51,43.51,0,0,1,4.07-61.32l55.72-48.8a43.47,43.47,0,0,1,61.34,4.08l31.59,36.09a40.84,40.84,0,0,0,30.77,13.9,41.67,41.67,0,0,0,17.14-3.68,299.44,299.44,0,0,1,39.3-14.39,41.32,41.32,0,0,0,29.33-32.87l9.71-60.18a43.26,43.26,0,0,1,42.85-36.55,43.94,43.94,0,0,1,7,.56l73.18,11.78a43.45,43.45,0,0,1,36,49.82l-6.85,42.54a40.62,40.62,0,0,0,22.52,43.29c3.18,1.54,6.37,3.16,9.49,4.82a40,40,0,0,0,18.65,4.62,41.1,41.1,0,0,0,27-10.19l29.48-25.77a43.46,43.46,0,0,1,61.3,4.09l48.81,55.75a43.44,43.44,0,0,1-4.08,61.33l-29.44,25.76a40.8,40.8,0,0,0-11.57,44.6c1.24,3.35,2.43,6.75,3.54,10.1a40.81,40.81,0,0,0,39.92,28l43.09-1.16A43.21,43.21,0,0,1,2104.25,729l2,74.05A43.53,43.53,0,0,1,2064,847.7L2003,849.35a41.32,41.32,0,0,0-36.48,24.77,298.38,298.38,0,0,1-19.41,37A41,41,0,0,0,1951,960l31.61,36.12a43.47,43.47,0,0,1-4.08,61.33l-55.77,48.81A43.43,43.43,0,0,1,1894.1,1117h0a43.52,43.52,0,0,1-32.73-14.85l-42.49-48.57A41.15,41.15,0,0,0,1788,1039.4a39.6,39.6,0,0,0-11.2,1.61c-3.79,1.11-7.65,2.15-11.47,3.1a40.66,40.66,0,0,0-30.21,33.14l-10.9,67.91A43.25,43.25,0,0,1,1681.31,1181.74ZM1533.58,1011a43.21,43.21,0,0,1,20.16,5l.57.3a43.47,43.47,0,0,1,22.73,45.39l-9.39,58.29a40.92,40.92,0,0,0,33.92,46.93l73.2,11.74a40.9,40.9,0,0,0,46.89-33.92l10.91-67.92a43.17,43.17,0,0,1,32.1-35.19c3.78-.94,7.61-2,11.36-3.08a42.52,42.52,0,0,1,11.92-1.71,43.69,43.69,0,0,1,32.84,15l42.49,48.57a41,41,0,0,0,30.82,14h0A40.92,40.92,0,0,0,1921,1104.3l55.77-48.81a40.93,40.93,0,0,0,3.84-57.75L1949,961.62a43.52,43.52,0,0,1-4-51.81,293.93,293.93,0,0,0,19.25-36.71A43.87,43.87,0,0,1,2003,846.81l60.91-1.65a41,41,0,0,0,39.8-42l-2-74.06a40.68,40.68,0,0,0-42-39.81l-43.09,1.16a43.38,43.38,0,0,1-42.39-29.74c-1.11-3.33-2.29-6.7-3.52-10A43.34,43.34,0,0,1,1983,603.3l29.43-25.75a40.92,40.92,0,0,0,3.84-57.76L1967.46,464a40.93,40.93,0,0,0-57.72-3.85L1880.26,486a43.59,43.59,0,0,1-28.7,10.82,42.48,42.48,0,0,1-19.84-4.92c-3.09-1.64-6.26-3.25-9.41-4.78a43.16,43.16,0,0,1-23.92-46l6.85-42.53a40.91,40.91,0,0,0-33.89-46.91l-73.18-11.79a42.55,42.55,0,0,0-6.56-.52,40.73,40.73,0,0,0-40.35,34.41L1641.55,434a43.86,43.86,0,0,1-31.13,34.9,295.48,295.48,0,0,0-39,14.27,44.24,44.24,0,0,1-18.17,3.9,43.4,43.4,0,0,1-32.68-14.77L1489,436.16a40.91,40.91,0,0,0-57.76-3.84l-55.72,48.8a41,41,0,0,0-3.83,57.74l42.5,48.55a43.55,43.55,0,0,1,7.26,46.15c-1.58,3.56-3.12,7.22-4.57,10.87a43.17,43.17,0,0,1-39.13,27.15L1309,673.4a40.92,40.92,0,0,0-39.83,42l2,74.11a40.73,40.73,0,0,0,42,39.82l59.06-1.58a43.7,43.7,0,0,1,42,28.53l.21.56a43.59,43.59,0,0,1-12.19,47.62L1360.45,941a40.94,40.94,0,0,0-3.84,57.76l48.85,55.78a40.94,40.94,0,0,0,57.76,3.82l41.69-36.54A43.47,43.47,0,0,1,1533.58,1011Z" transform="translate(-259.29 -221.86)" style="fill:#436e8e"/><path d="M1592.79,671.57c-2.88,5.12-31.78,49.89-25.73,93.68l31.46-11.37,14.37-59Z" transform="translate(-259.29 -221.86)" style="fill:#f7b686"/><path d="M1718.4,653.22s-19.32-34.67-66.37-25.08-72.72,76.92-60,210.29c0,0,74.74-29.71,171.92-5.76C1764,832.67,1748,703.51,1718.4,653.22Z" transform="translate(-259.29 -221.86)" style="fill:#e28569"/><path d="M1754.29,639.21l-33.07,33s-84.78,22.91-108.33,22.63-32.81-17.48-32.81-17.48,19.87-31.47,60.08-45.71a119.35,119.35,0,0,1,11.87-3.52,120.71,120.71,0,0,1,21-3C1714.66,622.62,1754.29,639.21,1754.29,639.21Z" transform="translate(-259.29 -221.86)" style="fill:#e28569"/><path d="M1754.29,639.21c5.28,5.75-2.87,12-12,21.14s-18.56,14.43-21.07,11.87,2.87-12,12-21.13S1751.86,636.58,1754.29,639.21Z" transform="translate(-259.29 -221.86)" style="fill:#2f1a31"/><path d="M1725.62,672.36s-.5-6.6,7.79-15A50.24,50.24,0,0,1,1749,647.13a4.83,4.83,0,0,1,6.43,2.71l2.65,6.84-12.35,7.94Z" transform="translate(-259.29 -221.86)" style="fill:#f7b686"/><path d="M1667.18,794.64s102-55.29,138.59,5c27.07,44.65-13.62,86.22-164.55,82,0,0-14.92-7-11.28-43.23C1631.38,824.08,1667.18,794.64,1667.18,794.64Z" transform="translate(-259.29 -221.86)" style="fill:#6f4975"/><path d="M1667.18,794.64S1531.31,739,1504.42,773.77c-30.9,40-1.27,107.89,142,83.62l17.45-19Z" transform="translate(-259.29 -221.86)" style="fill:#6f4975"/><path d="M1641.05,881.89c-16.75-11.95-11.45-43.19-11.39-43.5l0-.17.16-.05L1733,800.63l.2.53-103,37.49c-.39,2.44-4.65,31.47,11.2,42.78Z" transform="translate(-259.29 -221.86)" style="fill:#020202"/><path d="M1629.07,848.4s-25,1-36.81,6.79-5.48,19.85,18.41,19.48,22.07-3.94,22.07-3.94S1628.2,858.37,1629.07,848.4Z" transform="translate(-259.29 -221.86)" style="fill:#2f1a31"/><path d="M1661.12,797.29c-8.29,0-15.1-2.1-20.63-6.26-10.43-7.87-12.37-20.42-10.85-28.77l10-5.8c.5-2.74,19.76,7.44,19.72,7.42s9.2,2.67,40.76-13.46c22-11.23,33.05-27.17,33.86-48.73.61-16.25-6.63-25.38-8.34-29.33-.23-.53,10.62-11.4,10.31-12.51l8.13-4.13c-.26-.94,7.82-4.12,7.7-4.39l6.28,5.35a104.62,104.62,0,0,1,8.83,46.27c-.88,23.54-10.6,56-51.89,77.14C1692.46,791.6,1674.78,797.29,1661.12,797.29Z" transform="translate(-259.29 -221.86)" style="fill:#f7b686"/><path d="M1654.42,798.61h-88a4.27,4.27,0,0,1-4.06-2.91L1544,741.06a4.25,4.25,0,0,1,4.06-5.59h84.67a8.94,8.94,0,0,1,8.5,6.09L1658.49,793A4.26,4.26,0,0,1,1654.42,798.61Z" transform="translate(-259.29 -221.86)" style="fill:#2f1a31"/><path d="M1648.9,798.61h-88.05a4.27,4.27,0,0,1-4.06-2.91l-18.29-54.64a4.25,4.25,0,0,1,4.06-5.59h84.67a9,9,0,0,1,8.5,6.09L1653,793A4.25,4.25,0,0,1,1648.9,798.61Z" transform="translate(-259.29 -221.86)" style="fill:#2f1a31"/><path d="M1587.21,765.25c0-2.07,2.39-2.92,4.48-2.92s5.5,2.28,5.48,5.18c0,3.14-2.48,3.55-4.57,3.55S1587.21,767.89,1587.21,765.25Z" transform="translate(-259.29 -221.86)" style="fill:#deebe9"/><path d="M1301.52,569H1422a5.09,5.09,0,0,1,5.09,5.09v0a2.59,2.59,0,0,1-2.59,2.59h-123a0,0,0,0,1,0,0V569A0,0,0,0,1,1301.52,569Z" style="fill:#2f1a31"/><path d="M1642.64,763.09c-.05-.16-4.36-16.36-7.16-21.39s-6.16-6-6.19-6l.15-.55c.15,0,3.67,1.06,6.54,6.23s7,20.86,7.21,21.53Z" transform="translate(-259.29 -221.86)" style="fill:#436e8e"/><path d="M1655.65,791.18c-3.26,0-4.08-1.45-4.11-1.51l-6.88-20.54.54-.18,6.87,20.49h0s.74,1.16,3.58,1.16Z" transform="translate(-259.29 -221.86)" style="fill:#436e8e"/><path d="M1740.28,749.92a2.84,2.84,0,0,1-1.42-.37c-2.16-1.26-2.1-5.3.13-9.2,1.46-2.54,3.54-4.44,5.44-5a3.1,3.1,0,0,1,2.4.23c2.15,1.26,2.09,5.3-.14,9.2h0c-1.46,2.55-3.54,4.44-5.43,4.95A3.86,3.86,0,0,1,1740.28,749.92Zm5.13-13.51a3,3,0,0,0-.69.09c-1.58.43-3.44,2.16-4.73,4.42-1.85,3.24-2.11,6.74-.56,7.64a2,2,0,0,0,1.53.12c1.59-.43,3.45-2.16,4.74-4.42h0c1.85-3.24,2.1-6.74.55-7.64A1.64,1.64,0,0,0,1745.41,736.41Z" transform="translate(-259.29 -221.86)" style="fill:#e08b65"/><path d="M1673.76,625c-5.78-.17-10.17-.76-13.5-4.68L1650,608.22l-3-3.53L1629.34,584l9.26,24.25,5.56,14.55,1.76,4.6c1.19,3.13-.39,4.59-1.5,8.25-.45,1.48-3.49,10.6,4.43,10.66,9.86.07,22.33-11.39,25.06-21.29Z" transform="translate(-259.29 -221.86)" style="fill:#f7b686"/><path d="M1652.83,600.44s19.41-18.65,8.21-34.4-14,25.27-14,25.27l3.13,9.48Z" transform="translate(-259.29 -221.86)" style="fill:#2f1a31"/><path d="M1649.87,607.8c0,.14.07.28.1.42,1.8,8.18-5.75,14.57-5.75,14.57l-.06,0-5.56-14.55c2.36-1.77,5.84-3.91,8.37-3.52C1648.29,604.9,1649.35,605.8,1649.87,607.8Z" transform="translate(-259.29 -221.86)" style="fill:#2f1a31"/><path d="M1608.78,597.67c-4.37-14.58,1.78-29.37,13.76-33s25.22,5.18,29.6,19.76-1.78,29.36-13.76,33S1613.16,612.25,1608.78,597.67Z" transform="translate(-259.29 -221.86)" style="fill:#f7b686"/><path d="M1648,582.29s-6.18,4.5-11.36.7-8.85-7.4-20.45-1.56-24.29,3.21-26.64-3.36,3.18-11.61,10.47-11.28-1.54-3.67,3.52-10.58,17.93.21,24.3-3.22,29.08-6.4,33.16,13Z" transform="translate(-259.29 -221.86)" style="fill:#2f1a31"/><path d="M1652.89,586.19a4.67,4.67,0,0,1-6.39,1.73,4.77,4.77,0,0,1-1-6.6,4.66,4.66,0,0,1,6.39-1.73A4.77,4.77,0,0,1,1652.89,586.19Z" transform="translate(-259.29 -221.86)" style="fill:#f7b686"/><path d="M1602.4,575.79a4.58,4.58,0,0,1-1.24-.15c-2.62-.66-3.35-2-3.16-3.09s1.69-2.38,4-2.14a9,9,0,0,0,5.37-.82l.45.72a9.69,9.69,0,0,1-5.9,1c-1.73-.18-3,.61-3.1,1.44s.82,1.69,2.54,2.12c4.47,1.13,12.17-5.81,12.25-5.88l.57.63C1613.89,569.84,1607.28,575.79,1602.4,575.79Z" transform="translate(-259.29 -221.86)" style="fill:#fff"/><path d="M1622.44,559.51c-4.71,0-8.94-2-9.3-2.47l.62-.57c.43.36,7.33,3.7,13.23,1.39a50.81,50.81,0,0,0,5.38-2.58c3.43-1.81,6.4-3.38,9.78-2.72l-.16.84c-3.1-.61-5.93.9-9.22,2.63a51.64,51.64,0,0,1-5.47,2.62A13.34,13.34,0,0,1,1622.44,559.51Z" transform="translate(-259.29 -221.86)" style="fill:#fff"/><path d="M1655.16,565c-1.31,0-3.57-2-4.13-3.16-.45-.91,0-1.32.22-1.46,1.7-1.07,4.16,2.27,4.63,3l.07.14c.27,1-.16,1.37-.45,1.48A1,1,0,0,1,1655.16,565Zm-3.18-4a.54.54,0,0,0-.28.08c0,.07,0,.52.86,1.37a4.94,4.94,0,0,0,2.63,1.68,1.08,1.08,0,0,0,0-.39C1654.28,562.57,1652.82,561.05,1652,561.05Z" transform="translate(-259.29 -221.86)" style="fill:#fff"/><path d="M1626.11,591.75a.46.46,0,0,1-.34-.23.47.47,0,0,1,.18-.63,4.93,4.93,0,0,1,6.06.57.46.46,0,0,1,.07.65.51.51,0,0,1-.65.07,7.79,7.79,0,0,0-5-.48A.42.42,0,0,1,1626.11,591.75Z" transform="translate(-259.29 -221.86)" style="fill:#060633"/><path d="M1630.35,596.34c.17,1.1-.32,2.08-1.11,2.21s-1.56-.66-1.73-1.75a1.8,1.8,0,0,1,1.11-2.21C1629.4,594.47,1630.18,595.25,1630.35,596.34Z" transform="translate(-259.29 -221.86)" style="fill:#060633"/><path d="M1610.07,597.57a.33.33,0,0,1-.32-.11.55.55,0,0,1-.09-.64,3.2,3.2,0,0,1,4.48-1.46.53.53,0,0,1,.27.58.34.34,0,0,1-.43.28,4.77,4.77,0,0,0-3.73,1.21A.31.31,0,0,1,1610.07,597.57Z" transform="translate(-259.29 -221.86)" style="fill:#060633"/><path d="M1615.83,600.16a1.8,1.8,0,0,1-.2,2.46c-.67.42-1.69,0-2.26-1a1.8,1.8,0,0,1,.19-2.46C1614.24,598.79,1615.25,599.21,1615.83,600.16Z" transform="translate(-259.29 -221.86)" style="fill:#060633"/><path d="M1629,611.77a12.36,12.36,0,0,1-2.78-.29.32.32,0,1,1,.16-.62c.32.08,7.79,1.9,11.47-4.59a.32.32,0,0,1,.44-.13.34.34,0,0,1,.12.44A10.3,10.3,0,0,1,1629,611.77Z" transform="translate(-259.29 -221.86)" style="fill:#020202"/><path d="M1639,607.72a.32.32,0,0,1-.3-.22,3.65,3.65,0,0,0-1.83-1.84l-.09-.06a.32.32,0,0,1-.09-.45.34.34,0,0,1,.45-.09,4.42,4.42,0,0,1,2.17,2.24.32.32,0,0,1-.21.4Z" transform="translate(-259.29 -221.86)" style="fill:#020202"/><rect x="1592.38" y="683.5" width="16.63" height="1.41" transform="translate(191.26 1769.08) rotate(-71.79)" style="fill:#2f1a31"/><path d="M1613.25,615.78a7.54,7.54,0,0,1-.94-.06c-3.4-.46-6.94-3.34-9.46-7.71-4.1-7.09-4.28-16-.41-19.82a6.12,6.12,0,0,1,5.29-1.75c3.41.45,7,3.33,9.47,7.7h0c4.1,7.09,4.28,16,.41,19.82A6.07,6.07,0,0,1,1613.25,615.78Zm-6.44-28.45a5.18,5.18,0,0,0-3.7,1.54c-3.58,3.55-3.33,11.93.57,18.67,2.37,4.11,5.65,6.81,8.76,7.23a5.19,5.19,0,0,0,4.49-1.49c3.59-3.55,3.33-11.92-.56-18.66-2.37-4.11-5.65-6.82-8.76-7.23A5.49,5.49,0,0,0,1606.81,587.33Z" transform="translate(-259.29 -221.86)" style="fill:#fff"/><g style="opacity:0.30000000000000004"><path d="M1640.27,583.72c3.32,7,2.4,15.63-2,19.17s-10.75.67-14.06-6.38-2.4-15.64,2-19.17S1637,576.66,1640.27,583.72Z" transform="translate(-259.29 -221.86)" style="fill:#fff"/></g><g style="opacity:0.30000000000000004"><path d="M1617.53,594.7c3.33,7.09,2.88,15.69-1,19.21s-9.73.63-13.06-6.45-2.88-15.69,1-19.21S1614.2,587.62,1617.53,594.7Z" transform="translate(-259.29 -221.86)" style="fill:#fff"/></g><path d="M1633.24,604.78a8.7,8.7,0,0,1-1.94-.23c-3.56-.84-6.81-3.84-8.9-8.24-3.58-7.52-2.49-16.77,2.42-20.61a7.78,7.78,0,0,1,6.77-1.48c3.56.85,6.81,3.85,8.9,8.24h0c3.58,7.53,2.49,16.78-2.42,20.61A7.75,7.75,0,0,1,1633.24,604.78ZM1629.66,575a6.78,6.78,0,0,0-4.25,1.51c-4.58,3.57-5.54,12.3-2.14,19.44,1.93,4.07,5,7,8.25,7.72a6.83,6.83,0,0,0,6-1.3c4.58-3.58,5.54-12.3,2.14-19.45h0c-1.93-4.07-5-7-8.25-7.71A7.27,7.27,0,0,0,1629.66,575Z" transform="translate(-259.29 -221.86)" style="fill:#fff"/><path d="M1617,597.72a.85.85,0,0,1-.54-.19.88.88,0,0,1-.17-1.24,9.63,9.63,0,0,1,7.35-3.21h0a.9.9,0,0,1,0,1.79,7.9,7.9,0,0,0-6,2.51A.91.91,0,0,1,1617,597.72Z" transform="translate(-259.29 -221.86)" style="fill:#fff"/><path d="M1373.66,1590.32s.42,12.07,8.62,15.4,31.89,6.19,23.12,14c-5,4.5-29,1.84-35.73,1.91s-13.07,3.06-18.13-1.41c-5.56-4.93-.27-29.72-.27-29.72s5.86,3,11.1,2.79C1369.92,1593.06,1373.66,1590.32,1373.66,1590.32Z" transform="translate(-259.29 -221.86)" style="fill:#2f1a31"/><path d="M1445.75,1584.23s.54,12.06,8.78,15.3,32,5.84,23.28,13.78c-5,4.56-29,2.16-35.71,2.29s-13,3.2-18.14-1.21c-5.62-4.86-.59-29.72-.59-29.72s5.88,2.92,11.12,2.68C1442,1587,1445.75,1584.23,1445.75,1584.23Z" transform="translate(-259.29 -221.86)" style="fill:#2f1a31"/><path d="M1440.13,1594.14a26.25,26.25,0,0,0,23.54-27.6c-4.53-79.19-11.44-119.12-37.79-152.4-16.93-21.38-41.78-41.77-71.74-53.1-25.82-9.77-47.63-14-76-13.57-46.25.75-67.43,9.22-67.43,9.22-29.2,74.46,25.65,80,65.84,78.93l4-.08c24.36-.28,67.93,2.67,86,25.54,14.34,18.11,25.31,44.23,34.24,113a24.57,24.57,0,0,0,26.85,21.3Z" transform="translate(-259.29 -221.86)" style="fill:#6f4975"/><path d="M1373.71,1603.22a26.24,26.24,0,0,0,23.54-27.61c-4.53-79.18-11.43-119.12-37.78-152.39-16.93-21.38-41.14-36.67-71.94-45.43-22-6.26-47.51-9.2-75.87-8.75-46.25.75-67.36-3.27-67.36-3.27-30.4,94.79,104.47,65.08,142.88,101.63,16.74,15.93,38.32,47,47.26,115.79a24.57,24.57,0,0,0,26.85,21.3Z" transform="translate(-259.29 -221.86)" style="fill:#6f4975"/><path d="M1286.57,1233c3.59,4.75,38.73,45.71,38.67,90.48l-33.12-7.1-22.52-57.26Z" transform="translate(-259.29 -221.86)" style="fill:#f7b686"/><path d="M1158,1231.86s14.64-37.44,63.16-34.27,82.41,22.71,87.9,158.29c0,0-67-4.58-144.09,39.63-13,7.45-33.1,5.68-33.75-9.27C1129.92,1356.46,1136.7,1299.69,1158,1231.86Z" transform="translate(-259.29 -221.86)" style="fill:#ced891"/><path d="M1115.29,1237.31l42.51,14s88.2,11.36,111.8,7.85,30.52-22,30.52-22-24.25-28.86-66.56-37.62a118,118,0,0,0-12.39-1.91c-7.19-.72-14.11-1.46-21.18-.8C1130.83,1203.24,1115.29,1237.31,1115.29,1237.31Z" transform="translate(-259.29 -221.86)" style="fill:#ced891"/><path d="M1115.29,1237.31c-2.34,5.06,7.6,10,19.8,14.63s23.11,5.72,24.38,2.32-7.6-9.94-19.8-14.63S1116.81,1234,1115.29,1237.31Z" transform="translate(-259.29 -221.86)" style="fill:#2f1a31"/><path d="M1235.25,1368.56c8.32-1.13,14.87-4.17,19.84-9.11,9.39-9.33,9.61-22.18,7-30.35l-10.81-4.46c-.88-2.68-18.81,10.18-18.78,10.16s-8.85,3.93-42.74-7.92c-23.59-8.26-36.89-22.73-40.66-44.25-2.84-16.22,2.52-24.47,3.69-28.67.16-.56-2.83-7.66-15.42-12-13.6-4.67-18.6-1.21-18.6-1.21a106,106,0,0,0-2.52,47.65c4.11,23.5,18.33,54.77,62.65,70.28C1203,1367.15,1221.54,1370.44,1235.25,1368.56Z" transform="translate(-259.29 -221.86)" style="fill:#f7b686"/><path d="M1242.66,1372.46l89.16-1.41a4.33,4.33,0,0,0,4.07-3l17.65-55.63a4.3,4.3,0,0,0-4.2-5.59l-85.74,1.35a9.06,9.06,0,0,0-8.51,6.3l-16.63,52.39A4.31,4.31,0,0,0,1242.66,1372.46Z" transform="translate(-259.29 -221.86)" style="fill:#2f1a31"/><path d="M1248.26,1372.37l89.16-1.41a4.33,4.33,0,0,0,4.06-3l17.65-55.63a4.3,4.3,0,0,0-4.2-5.59l-85.74,1.35a9.09,9.09,0,0,0-8.51,6.31l-16.62,52.38A4.31,4.31,0,0,0,1248.26,1372.37Z" transform="translate(-259.29 -221.86)" style="fill:#2f1a31"/><path d="M1310.2,1337.6c0-2.1-2.47-2.92-4.59-2.88s-5.53,2.39-5.46,5.33c.07,3.18,2.56,3.55,4.67,3.52S1310.24,1340.28,1310.2,1337.6Z" transform="translate(-259.29 -221.86)" style="fill:#deebe9"/><path d="M1215.33,1365.07l122-1.93.12,7.82-124.54,2a2.62,2.62,0,0,1-2.66-2.58v0A5.16,5.16,0,0,1,1215.33,1365.07Z" transform="translate(-259.29 -221.86)" style="fill:#2f1a31"/><path d="M1254,1336.3l-.56-.14c.17-.68,4.17-16.7,7-21.91s6.37-6.37,6.52-6.41l.16.56s-3.47,1.07-6.17,6.12S1254.07,1336.14,1254,1336.3Z" transform="translate(-259.29 -221.86)" style="fill:#436e8e"/><path d="M1241.3,1365v-.58c2.93,0,3.63-1.27,3.64-1.28l6.6-20.81.55.17-6.62,20.86C1245.41,1363.42,1244.61,1364.9,1241.3,1365Z" transform="translate(-259.29 -221.86)" style="fill:#436e8e"/><g style="opacity:0.30000000000000004"><path d="M1148.85,1331.92a4.53,4.53,0,0,1-.52,0c-2-.25-4.32-1.87-6.13-4.23-2.78-3.61-3.39-7.65-1.4-9.21a3.09,3.09,0,0,1,2.37-.56c2,.25,4.32,1.87,6.13,4.22,2.78,3.61,3.39,7.66,1.4,9.21A2.89,2.89,0,0,1,1148.85,1331.92Zm-6.21-12.91a1.81,1.81,0,0,0-1.13.35c-1.43,1.12-.7,4.6,1.6,7.59h0c1.61,2.09,3.71,3.58,5.36,3.79a2,2,0,0,0,1.52-.33c1.43-1.12.7-4.6-1.6-7.59-1.61-2.09-3.71-3.57-5.36-3.78Z" transform="translate(-259.29 -221.86)" style="fill:#e08b65"/></g><path d="M1212.5,1191l7.46-12.81,2.17-3.73,12.77-21.93-4.46,23.71-2.68,14.24-.85,4.5c-.57,3.06,1.13,4.12,2.77,7.28.66,1.27,5,9.09-2.29,10.48-9.08,1.74-23.21-7.33-27.4-15.9C1200,1196.79,1210.09,1195.09,1212.5,1191Z" transform="translate(-259.29 -221.86)" style="fill:#f7b686"/><path d="M1255.77,1148a32,32,0,0,1-3,12.89c-3.15,6.82-6.37-12.48-6.37-12.48Z" transform="translate(-259.29 -221.86)" style="fill:#56335b"/><path d="M1253.19,1163.1c1.38-14.27-7.11-26.78-19-27.92s-22.56,9.5-23.94,23.78,7.11,26.79,19,27.93S1251.81,1177.38,1253.19,1163.1Z" transform="translate(-259.29 -221.86)" style="fill:#f7b686"/><path d="M1211.45,1151.6l10.41,1.29a7.62,7.62,0,0,0,6.25-2.06c2.83-2.78,5.72-3.87,15.12-1.33,11.9,3.22,21.47-2.11,24.22-8.09s-2.34-11.86-9.07-10.2-2.42-5.23-8-7.36c-10.49-4-14.44,3.89-23.25,1.58-11.55-3-34.41,1-29.26,23.73Z" transform="translate(-259.29 -221.86)" style="fill:#2f1a31"/><path d="M1233.1,1160.23a.47.47,0,0,0,.27-.28.44.44,0,0,0-.28-.55,4.74,4.74,0,0,0-5.55,1.66.44.44,0,0,0,.06.62.49.49,0,0,0,.61-.06,7.54,7.54,0,0,1,4.61-1.39A.45.45,0,0,0,1233.1,1160.23Z" transform="translate(-259.29 -221.86)" style="fill:#060633"/><path d="M1230,1165.26c0,1,.69,1.86,1.44,1.83s1.34-.9,1.3-1.94-.69-1.86-1.45-1.83S1230,1164.22,1230,1165.26Z" transform="translate(-259.29 -221.86)" style="fill:#060633"/><path d="M1249.13,1162.6a.35.35,0,0,0,.28-.16.51.51,0,0,0,0-.61,3.06,3.06,0,0,0-4.45-.51.51.51,0,0,0-.14.59.32.32,0,0,0,.45.17,4.59,4.59,0,0,1,3.7.42A.35.35,0,0,0,1249.13,1162.6Z" transform="translate(-259.29 -221.86)" style="fill:#060633"/><path d="M1244.24,1166.06a1.7,1.7,0,0,0,.64,2.25c.71.26,1.57-.33,1.93-1.3a1.7,1.7,0,0,0-.63-2.25C1245.47,1164.5,1244.6,1165.09,1244.24,1166.06Z" transform="translate(-259.29 -221.86)" style="fill:#060633"/><path d="M1197.84,1149.16s3.52,16.76,13.22,20.17c0,0-5.39-13.4,13.19-16.51C1224.25,1152.82,1209.25,1146.77,1197.84,1149.16Z" transform="translate(-259.29 -221.86)" style="fill:#56335b"/><path d="M1209.94,1160.76a4.22,4.22,0,1,0-.3-6.28A4.46,4.46,0,0,0,1209.94,1160.76Z" transform="translate(-259.29 -221.86)" style="fill:#f7b686"/><path d="M1224.25,1152.82s-4.29,12.39-2.25,15.39,18.86,8,27.54,6.73h0A17,17,0,0,1,1232,1188.5a24.59,24.59,0,0,1-8.15-1.91h0c-5.35-2.26-10.24-5.82-11.35-11.52-.34-1.74,3.94-11,3.94-11s2.07-5.51-.55-9.23C1215.91,1154.88,1220.52,1152.33,1224.25,1152.82Z" transform="translate(-259.29 -221.86)" style="fill:#56335b"/><path d="M1244.28,1178.55a44.24,44.24,0,0,1-13.94-2.08s-.48,6.86,7.06,7.21C1241.78,1183.89,1244.28,1178.55,1244.28,1178.55Z" transform="translate(-259.29 -221.86)" style="fill:#fff"/><path d="M1257.5,1130a3.29,3.29,0,0,1-3-3.57l.58.08c0,.09-.27,2.37,2.51,2.92Z" transform="translate(-259.29 -221.86)" style="fill:#2f1a31"/><path d="M1247.41,1146.92l0-.29c.14,0,13.78-.85,15.83-7.3.57-1.82.55-3.13-.08-4-1-1.38-3.44-1.39-5.59-1.37h-1v-.29h1c2.22,0,4.72,0,5.82,1.49.7.95.74,2.34.13,4.26-.88,2.76-3.94,4.93-8.87,6.28A39.59,39.59,0,0,1,1247.41,1146.92Z" transform="translate(-259.29 -221.86)" style="fill:#fff"/><path d="M1230.92,1128.44a26.29,26.29,0,0,1-9.35-1.8l.1-.28a24,24,0,0,0,14.47,1.18,16.18,16.18,0,0,0,5.3-2.29l.18.23A18.93,18.93,0,0,1,1230.92,1128.44Z" transform="translate(-259.29 -221.86)" style="fill:#fff"/><path d="M1394.24,1531.08h-.53a214.77,214.77,0,0,0-10.52-62.9c-6.35-19.07-15.23-35.2-26.4-48a100.22,100.22,0,0,0-52.28-31.74l.13-.51a100.64,100.64,0,0,1,52.55,31.91c11.22,12.8,20.14,29,26.51,48.13A215.15,215.15,0,0,1,1394.24,1531.08Z" transform="translate(-259.29 -221.86)" style="fill:#020202"/><path d="M970.82,841.9,877.9,749A101.08,101.08,0,0,0,806,719.19H689.75v-1.91H806a102.94,102.94,0,0,1,73.29,30.36l92.92,92.91Z" transform="translate(-259.29 -221.86)" style="fill:#436e8e"/><path d="M681.38,718.7c0-4,4.47-6.93,8.37-7.64,5.26-.95,7.17,3.21,7.17,7.18s-3.21,8.24-7.17,8.24S681.38,722.67,681.38,718.7Z" transform="translate(-259.29 -221.86)" style="fill:#436e8e"/><path d="M963.72,841.23c0-4,4.47-6.93,8.37-7.64,5.26-1,7.17,3.21,7.17,7.17s-3.21,8.25-7.17,8.25S963.72,845.19,963.72,841.23Z" transform="translate(-259.29 -221.86)" style="fill:#436e8e"/><path d="M993.39,734.28l-1.7-.87L1046,628a72.68,72.68,0,0,1,27.14-29.27A103.69,103.69,0,0,1,1126.36,584h116.21V586H1126.36a101.8,101.8,0,0,0-52.24,14.43,70.84,70.84,0,0,0-26.42,28.5Z" transform="translate(-259.29 -221.86)" style="fill:#436e8e"/><path d="M1250.94,585.47c0-4-4.47-6.93-8.37-7.64-5.26-1-7.17,3.21-7.17,7.17s3.21,8.25,7.17,8.25S1250.94,589.43,1250.94,585.47Z" transform="translate(-259.29 -221.86)" style="fill:#436e8e"/><path d="M1000.31,733.84c0-4-4.47-6.93-8.37-7.63-5.26-1-7.17,3.21-7.17,7.17s3.21,8.25,7.17,8.25S1000.31,737.81,1000.31,733.84Z" transform="translate(-259.29 -221.86)" style="fill:#436e8e"/><rect x="298.5" y="320.25" width="228.94" height="141.33" rx="10.82" style="fill:#bed5dc"/><path d="M682.24,636.24l7.57-17.81a4.16,4.16,0,0,1,6.27-1.75L706.2,624a4.17,4.17,0,0,0,6.42-2.14l5.82-18.76a4.16,4.16,0,0,1,5.35-2.69l5.58,2a4.18,4.18,0,0,0,4.72-1.45l.88-1.2a4.16,4.16,0,0,1,7.51,2.48v35.66a4.16,4.16,0,0,1-4.16,4.16H686.07A4.16,4.16,0,0,1,682.24,636.24Z" transform="translate(-259.29 -221.86)" style="fill:#e28569"/><path d="M745.77,653.79h-.13l-155.77-2.56a7.76,7.76,0,0,1-7.66-7.27l-3.16-45.24a7.82,7.82,0,0,1,7.64-8.36l158.93-3a7.82,7.82,0,0,1,8,7.82V646a7.8,7.8,0,0,1-7.81,7.82Zm0-64.92h-.12l-158.93,3a6.28,6.28,0,0,0-6.16,6.73l3.16,45.25a6.28,6.28,0,0,0,6.18,5.86l155.77,2.55a6.14,6.14,0,0,0,4.52-1.8,6.28,6.28,0,0,0,1.88-4.5v-50.8a6.3,6.3,0,0,0-6.3-6.3Z" transform="translate(-259.29 -221.86)" style="fill:#deebe9"/><path d="M656.35,625h-56.3c-1.24,0-3.14-1.29-3.31-2.52-.34-2.52,2.07-3.24,3.31-3.24l56.3,1.26a2.26,2.26,0,0,1,2.25,2.25h0A2.26,2.26,0,0,1,656.35,625Z" transform="translate(-259.29 -221.86)" style="fill:#deebe9"/><path d="M641.72,614.45H599.23a2.94,2.94,0,0,1-2.5-2,2.32,2.32,0,0,1,2.5-2.6l42.49,1a1.76,1.76,0,0,1,1.7,1.81h0A1.76,1.76,0,0,1,641.72,614.45Z" transform="translate(-259.29 -221.86)" style="fill:#deebe9"/><path d="M641.72,635.69H599.23a3,3,0,0,1-2.5-2,2.32,2.32,0,0,1,2.5-2.6l42.49,1a1.76,1.76,0,0,1,1.7,1.81h0A1.76,1.76,0,0,1,641.72,635.69Z" transform="translate(-259.29 -221.86)" style="fill:#deebe9"/><path d="M641.18,563.93H584.89c-1.24,0-3.15-1.3-3.31-2.52-.34-2.52,2.06-3.24,3.3-3.24l56.3,1.25a2.25,2.25,0,0,1,2.25,2.25h0A2.26,2.26,0,0,1,641.18,563.93Z" transform="translate(-259.29 -221.86)" style="fill:#deebe9"/><path d="M626.56,574.58H584.07a2.93,2.93,0,0,1-2.5-2,2.32,2.32,0,0,1,2.5-2.6l42.49,1a1.77,1.77,0,0,1,1.7,1.81h0A1.76,1.76,0,0,1,626.56,574.58Z" transform="translate(-259.29 -221.86)" style="fill:#deebe9"/><rect x="1740.85" y="1003.71" width="228.94" height="141.33" rx="10.82" style="fill:#bed5dc"/><path d="M2124.59,1319.71l7.57-17.82a4.16,4.16,0,0,1,6.27-1.74l10.12,7.33a4.15,4.15,0,0,0,6.41-2.13l5.83-18.76a4.17,4.17,0,0,1,5.35-2.7l5.57,1.95a4.17,4.17,0,0,0,4.72-1.45l.89-1.2a4.17,4.17,0,0,1,7.51,2.48v35.66a4.17,4.17,0,0,1-4.17,4.17h-52.24A4.16,4.16,0,0,1,2124.59,1319.71Z" transform="translate(-259.29 -221.86)" style="fill:#e28569"/><path d="M2188.12,1337.25H2188l-155.77-2.55a7.78,7.78,0,0,1-7.67-7.27l-3.16-45.25a7.82,7.82,0,0,1,7.65-8.36l158.93-3a7.8,7.8,0,0,1,8,7.81v50.81a7.8,7.8,0,0,1-7.81,7.81Zm0-64.92H2188l-158.93,3a6.31,6.31,0,0,0-6.17,6.74l3.16,45.24a6.26,6.26,0,0,0,6.19,5.86l155.76,2.56a6.32,6.32,0,0,0,6.41-6.3v-50.81a6.3,6.3,0,0,0-6.3-6.3Z" transform="translate(-259.29 -221.86)" style="fill:#deebe9"/><path d="M2098.69,1308.49H2042.4c-1.24,0-3.15-1.29-3.31-2.52-.34-2.51,2.07-3.23,3.3-3.23l56.3,1.25a2.26,2.26,0,0,1,2.26,2.25h0A2.26,2.26,0,0,1,2098.69,1308.49Z" transform="translate(-259.29 -221.86)" style="fill:#deebe9"/><path d="M2084.07,1297.92h-42.49a2.93,2.93,0,0,1-2.5-2,2.32,2.32,0,0,1,2.5-2.6l42.49,1a1.76,1.76,0,0,1,1.7,1.81h0A1.77,1.77,0,0,1,2084.07,1297.92Z" transform="translate(-259.29 -221.86)" style="fill:#deebe9"/><path d="M2084.07,1319.15h-42.49a2.93,2.93,0,0,1-2.5-2,2.33,2.33,0,0,1,2.5-2.61l42.49,1a1.76,1.76,0,0,1,1.7,1.81h0A1.77,1.77,0,0,1,2084.07,1319.15Z" transform="translate(-259.29 -221.86)" style="fill:#deebe9"/><path d="M2083.53,1247.39h-56.3c-1.23,0-3.14-1.29-3.31-2.52-.33-2.52,2.07-3.24,3.31-3.24l56.3,1.25a2.26,2.26,0,0,1,2.25,2.26h0A2.26,2.26,0,0,1,2083.53,1247.39Z" transform="translate(-259.29 -221.86)" style="fill:#deebe9"/><path d="M2068.91,1258h-42.5a2.94,2.94,0,0,1-2.5-2,2.33,2.33,0,0,1,2.5-2.6l42.5,1a1.76,1.76,0,0,1,1.69,1.81h0A1.76,1.76,0,0,1,2068.91,1258Z" transform="translate(-259.29 -221.86)" style="fill:#deebe9"/><rect x="848" y="268.13" width="122.01" height="75.32" rx="5.76" style="fill:#bed5dc"/><path d="M1204.62,530.71h-75.8c-1.67,0-4.24-1.74-4.46-3.39-.45-3.39,2.79-4.36,4.46-4.36l75.8,1.68a3.05,3.05,0,0,1,3,3h0A3,3,0,0,1,1204.62,530.71Z" transform="translate(-259.29 -221.86)" style="fill:#deebe9"/><path d="M1184.93,516.47h-57.21c-1.26,0-3.2-1.4-3.37-2.73-.34-2.72,2.11-3.5,3.36-3.5l57.22,1.35a2.38,2.38,0,0,1,2.29,2.44h0A2.38,2.38,0,0,1,1184.93,516.47Z" transform="translate(-259.29 -221.86)" style="fill:#deebe9"/><path d="M1184.93,545.06h-57.21c-1.26,0-3.2-1.4-3.37-2.72-.34-2.73,2.11-3.51,3.36-3.51l57.22,1.36a2.37,2.37,0,0,1,2.29,2.43h0A2.38,2.38,0,0,1,1184.93,545.06Z" transform="translate(-259.29 -221.86)" style="fill:#deebe9"/><rect x="1920.16" y="511.97" width="122.01" height="75.32" rx="5.76" style="fill:#bed5dc"/><path d="M2276.79,774.55H2201c-1.67,0-4.23-1.74-4.45-3.39-.46-3.39,2.78-4.36,4.45-4.36l75.81,1.68a3,3,0,0,1,3,3h0A3,3,0,0,1,2276.79,774.55Z" transform="translate(-259.29 -221.86)" style="fill:#deebe9"/><path d="M2257.1,760.31h-57.22c-1.26,0-3.2-1.4-3.36-2.73-.35-2.72,2.1-3.5,3.36-3.5l57.22,1.35a2.38,2.38,0,0,1,2.29,2.44h0A2.38,2.38,0,0,1,2257.1,760.31Z" transform="translate(-259.29 -221.86)" style="fill:#deebe9"/><path d="M2257.1,788.9h-57.22c-1.26,0-3.2-1.4-3.36-2.72-.35-2.73,2.1-3.51,3.36-3.51L2257.1,784a2.37,2.37,0,0,1,2.29,2.43h0A2.38,2.38,0,0,1,2257.1,788.9Z" transform="translate(-259.29 -221.86)" style="fill:#deebe9"/><path d="M289.83,576.06H445.55a8.12,8.12,0,0,1,8.12,8.12v89.91a8.13,8.13,0,0,1-8.12,8.13H289.83a8.12,8.12,0,0,1-8.12-8.12V584.18A8.13,8.13,0,0,1,289.83,576.06Z" style="fill:#bed5dc"/><path d="M678.19,855.31H571.35c-2.35,0-6-2.45-6.28-4.78-.64-4.78,3.92-6.15,6.27-6.15l106.85,2.38a4.28,4.28,0,0,1,4.27,4.27h0A4.28,4.28,0,0,1,678.19,855.31Z" transform="translate(-259.29 -221.86)" style="fill:#deebe9"/><path d="M650.44,835.23H569.79c-1.77,0-4.5-2-4.74-3.84-.48-3.84,3-4.93,4.74-4.93l80.65,1.9a3.35,3.35,0,0,1,3.22,3.44h0A3.34,3.34,0,0,1,650.44,835.23Z" transform="translate(-259.29 -221.86)" style="fill:#deebe9"/><path d="M650.44,875.53H569.79c-1.77,0-4.5-2-4.74-3.84-.48-3.84,3-4.94,4.74-4.94l80.65,1.91a3.35,3.35,0,0,1,3.22,3.44h0A3.34,3.34,0,0,1,650.44,875.53Z" transform="translate(-259.29 -221.86)" style="fill:#deebe9"/><path d="M1706.81,1256.34h0a3.89,3.89,0,0,0-2.59,4.83l9.56,31.65a3.87,3.87,0,0,0,4.82,2.59h0a3.87,3.87,0,0,0,2.59-4.82l-9.55-31.66A3.89,3.89,0,0,0,1706.81,1256.34Z" transform="translate(-259.29 -221.86)" style="fill:#f7b686"/><path d="M1716.3,1253.48h0a3.89,3.89,0,0,0-2.59,4.83l10.69,35.39a3.87,3.87,0,0,0,4.82,2.59h0a3.87,3.87,0,0,0,2.59-4.82l-10.68-35.4A3.89,3.89,0,0,0,1716.3,1253.48Z" transform="translate(-259.29 -221.86)" style="fill:#f7b686"/><path d="M1713.29,1234.28l-.78,1.14a4.68,4.68,0,0,0,1.19,6.51l20.62,14.29a4.71,4.71,0,0,0,6.52-1.19l.78-1.13a4.7,4.7,0,0,0-1.18-6.52l-20.63-14.28A4.7,4.7,0,0,0,1713.29,1234.28Z" transform="translate(-259.29 -221.86)" style="fill:#f7b686"/><path d="M1725.8,1250.61h0a3.89,3.89,0,0,0-2.59,4.83l8.56,28.38a3.89,3.89,0,0,0,4.83,2.59h0a3.89,3.89,0,0,0,2.59-4.83l-8.57-28.38A3.88,3.88,0,0,0,1725.8,1250.61Z" transform="translate(-259.29 -221.86)" style="fill:#f7b686"/><path d="M1694.93,1240.26s-5.22,21.51,4.53,33.86c3.37,4.27,31.08-4.93,32-10.95s-6.67-24.62-6.67-24.62Z" transform="translate(-259.29 -221.86)" style="fill:#f7b686"/><path d="M1697.38,1259.16h0a3.88,3.88,0,0,0-2.59,4.82l8.55,28.31a3.88,3.88,0,0,0,4.82,2.59h0a3.89,3.89,0,0,0,2.58-4.82l-8.55-28.32A3.87,3.87,0,0,0,1697.38,1259.16Z" transform="translate(-259.29 -221.86)" style="fill:#f7b686"/><path d="M1731,1240.67c36.11-23.73,1.24-105.31,16.24-156,3.48-11.75,5-16.18,8-22.71,2.42-5.26-4.1-15.5-13-19.74-8.4-4-28.55-1.35-30.15,1.31-24.3,40.56-29.75,114.77-17.64,199.77C1694.35,1243.31,1715.48,1250.85,1731,1240.67Z" transform="translate(-259.29 -221.86)" style="fill:#96a7e2"/><path d="M1788.53,1540.11s-.31,12.23-8.59,15.69-32.26,6.56-23.3,14.42c5.15,4.52,29.38,1.6,36.22,1.6s13.27,3,18.35-1.6c5.6-5,0-30.11,0-30.11s-5.9,3.08-11.21,2.94C1792.35,1542.85,1788.53,1540.11,1788.53,1540.11Z" transform="translate(-259.29 -221.86)" style="fill:#2f1a31"/><path d="M1717.11,1170.93s-1.65,55.21,16,161.12c12.72,76.46,27.73,153.5,35.1,190.44a28.82,28.82,0,0,0,26.92,23.4l7.07.28c14.24.57,25.8-11.66,24.76-26.2l-17.87-249.89-4.41-82.25Z" transform="translate(-259.29 -221.86)" style="fill:#6f4975"/><path d="M1891.8,1538.35s4.76,11.27-1.36,17.83-26.7,19.26-15.3,22.74c6.55,2,27.43-10.64,33.67-13.46s13.32-2.74,16.06-9c3-6.89-12.39-27.44-12.39-27.44s-4.12,5.23-9,7.29C1896.41,1539.27,1891.8,1538.35,1891.8,1538.35Z" transform="translate(-259.29 -221.86)" style="fill:#2f1a31"/><path d="M1790.27,1176.06s2.88,55.16,29.12,159.27c18.94,75.16,40.21,150.71,50.58,186.92a28.83,28.83,0,0,0,28.74,21.12l7.08-.3c14.24-.6,24.76-13.73,22.53-28.14L1890,1267.34l-11.13-81.61Z" transform="translate(-259.29 -221.86)" style="fill:#6f4975"/><path d="M1891.71,1231.44c-.17,6.66-40.45,9.3-90.26,7.75s-89.63-8.44-89.46-15.1,40.26-10.58,90.07-9S1891.88,1224.78,1891.71,1231.44Z" transform="translate(-259.29 -221.86)" style="fill:#2f1a31"/><path d="M1879.51,1042.87s-8.81-34.92-73.8-35.27c-93.72-.51-85,85.61-93.72,216.49,0,0,92.32-13.06,179.76,5.71C1891.75,1229.8,1899.87,1096.21,1879.51,1042.87Z" transform="translate(-259.29 -221.86)" style="fill:#96a7e2"/><path d="M1903.5,1037.86l-42.45,23.48s-92.94,8.45-117.61,4.38-31.45-22.18-31.45-22.18,26.28-27.19,71-34.45q6.3-1,13.06-1.49a127.8,127.8,0,0,1,22.58.45C1875.19,1014.43,1903.5,1037.86,1903.5,1037.86Z" transform="translate(-259.29 -221.86)" style="fill:#96a7e2"/><path d="M1719.84,1229.47s54-15.88,165.76,5.92l.86,16.08-163.87,5.79Z" transform="translate(-259.29 -221.86)" style="fill:#6f4975"/><path d="M1756.53,1224.48s23.89-.59,33.12,19c0,0-5.15-19.55,4.9-19.25,4.15.12-4.16-2.68-4.16-2.68Z" transform="translate(-259.29 -221.86)" style="fill:#2f1a31"/><path d="M1911.64,1229.8c-3.91-43-35.72-155.63-39.43-161.8-3-5,2.36-15.85,10.79-21,7.91-4.88,18.13-11.09,20.5-9.09,33.41,28.17,62.16,131.09,53.1,188.13Z" transform="translate(-259.29 -221.86)" style="fill:#96a7e2"/><path d="M1778.31,941.89a35.63,35.63,0,0,0,0,14.78c1.71,8.23,10.08-12,10.08-12Z" transform="translate(-259.29 -221.86)" style="fill:#56335b"/><path d="M1826.81,1009.12c-6.72,8.29-18.8,7.12-28.25,3-7.59-3.36-6.5-3.29-5.46-4.52,2.58-3,4.7-3.74,4.84-7.22l.19-4.56,0-.56.24-5.94.42-10.25,1.1-26.95,8.41,27.09,1.43,4.61,4.9,15.84C1816.23,1004.72,1826.76,1009.11,1826.81,1009.12Z" transform="translate(-259.29 -221.86)" style="fill:#f7b686"/><path d="M1811.05,988a19.87,19.87,0,0,1-12.92,7.75l0-.56.24-5.94Z" transform="translate(-259.29 -221.86)" style="fill:#2f1a31"/><path d="M1777.32,959c2.08-15.9,14.47-27.39,27.66-25.66s22.19,16,20.1,31.93-14.47,27.4-27.66,25.66S1775.23,975,1777.32,959Z" transform="translate(-259.29 -221.86)" style="fill:#f7b686"/><path d="M1796.38,961.16a.49.49,0,0,1-.06-.93,5.28,5.28,0,0,1,6.33,1.33.49.49,0,0,1,0,.69.53.53,0,0,1-.69,0,8.34,8.34,0,0,0-5.27-1.1A.55.55,0,0,1,1796.38,961.16Z" transform="translate(-259.29 -221.86)" style="fill:#060633"/><path d="M1783.42,961a.34.34,0,0,1-.29-.2.59.59,0,0,1,.09-.68,3.43,3.43,0,0,1,5-.13.57.57,0,0,1,.1.67.36.36,0,0,1-.52.15,5.16,5.16,0,0,0-4.16.1A.27.27,0,0,1,1783.42,961Z" transform="translate(-259.29 -221.86)" style="fill:#060633"/><path d="M1785.73,974.35a49.19,49.19,0,0,0,15.71,1.24s-1.2,7.6-9.5,6.08C1787.11,980.79,1785.73,974.35,1785.73,974.35Z" transform="translate(-259.29 -221.86)" style="fill:#fff"/><path d="M1805.56,1013.4s-11.42-3.53-14.46-.79-.8,15.28,4.46,16.4S1810.75,1016.42,1805.56,1013.4Z" transform="translate(-259.29 -221.86)" style="fill:#e28569"/><path d="M1798.85,1010.44s14.9-5.27,17.81-10.54,18.34,6.91,18.07,10.54-28.06,23.8-29.88,21.25S1795.21,1013.89,1798.85,1010.44Z" transform="translate(-259.29 -221.86)" style="fill:#a5b9ef"/><path d="M1798.85,1010.44s-2.23-5.53-1.15-8.53c0,0,.7-2.64-1.57-2.46s-14.62,8.81-15.71,11.44-1.27,15,2.72,15.9,13.63-12.36,14.77-13.68A3.63,3.63,0,0,0,1798.85,1010.44Z" transform="translate(-259.29 -221.86)" style="fill:#a5b9ef"/><path d="M1792.36,1024.15s-39.28,101.82-36.66,144.49c0,0,2.77,24.91,20.42,38.35,0,0,23.83-15.62,27-38.35,2.63-18.67-9-126.87-2.29-141.81Z" transform="translate(-259.29 -221.86)" style="fill:#e28569"/><path d="M1795.65,1029.28h-.1c-3.46-.06-5.35-6.84-5.43-7.12l.53-.15c0,.07,1.86,6.67,4.91,6.72h.08c3.11,0,5.9-2.88,5.93-2.91l.39.37C1801.84,1026.32,1799,1029.28,1795.65,1029.28Z" transform="translate(-259.29 -221.86)" style="fill:#2f1a31"/><path d="M1811.43,944.33a23.85,23.85,0,0,1-18.52,9.73s-1.51-.56.67-1.94,5.29-5.19,4.47-6.37-10.22,11.62-20,11c0,0-13.61-.47-5.7-8.58,4.9-5,0-24.88,32.49-26.7,4.75-.27,15,.35,18.82,7.69,0,0,12.91-.4,15.54,15.21,4,23.48-17.53,32.09-17.53,32.09s5.32-19.93-.55-17.35c-7.54,3.32-11.53-1-8.27-5.28S1816.91,940.89,1811.43,944.33Z" transform="translate(-259.29 -221.86)" style="fill:#2f1a31"/><path d="M1825,967.36a4.71,4.71,0,1,1,1.9-6.77A5,5,0,0,1,1825,967.36Z" transform="translate(-259.29 -221.86)" style="fill:#f7b686"/><path d="M1833.87,930.15a.55.55,0,0,1-.38-.16c-3.55-3.54-9-2.19-9-2.18a.53.53,0,0,1-.66-.39.54.54,0,0,1,.39-.66c.24-.06,6.07-1.53,10.06,2.46a.55.55,0,0,1,0,.77A.59.59,0,0,1,1833.87,930.15Z" transform="translate(-259.29 -221.86)" style="fill:#2f1a31"/><path d="M1822.51,924.84h-.07a.55.55,0,0,1-.47-.61c0-.13.3-2.87-3.94-4.32a.54.54,0,0,1-.34-.69.55.55,0,0,1,.69-.34c5.13,1.76,4.69,5.34,4.67,5.5A.55.55,0,0,1,1822.51,924.84Z" transform="translate(-259.29 -221.86)" style="fill:#2f1a31"/><path d="M1956.6,1226c.26,6.23-9.64,11.81-22.13,12.46s-22.82-3.86-23.09-10.09,9.64-11.81,22.13-12.46S1956.33,1219.76,1956.6,1226Z" transform="translate(-259.29 -221.86)" style="fill:#2f1a31"/><path d="M1951.4,1228.88c.21,4.8-7.42,9.1-17,9.61s-17.58-3-17.78-7.78,7.42-9.1,17-9.6S1951.2,1224.09,1951.4,1228.88Z" transform="translate(-259.29 -221.86)" style="fill:#f7b686"/><path d="M1941.31,1246.14h0a4.14,4.14,0,0,1,3.74,4.48l-3.15,35.06a4.12,4.12,0,0,1-4.47,3.74h0a4.12,4.12,0,0,1-3.74-4.47l3.14-35.07A4.14,4.14,0,0,1,1941.31,1246.14Z" transform="translate(-259.29 -221.86)" style="fill:#f7b686"/><path d="M1930.79,1245.2h0a4.13,4.13,0,0,1,3.74,4.47l-3.52,39.22a4.12,4.12,0,0,1-4.47,3.74h0a4.13,4.13,0,0,1-3.74-4.47l3.51-39.22A4.15,4.15,0,0,1,1930.79,1245.2Z" transform="translate(-259.29 -221.86)" style="fill:#f7b686"/><path d="M1929.79,1224.53l1.06,1a5,5,0,0,1,.17,7l-18.43,19.33a5,5,0,0,1-7,.17l-1.07-1a5,5,0,0,1-.16-7l18.43-19.34A5,5,0,0,1,1929.79,1224.53Z" transform="translate(-259.29 -221.86)" style="fill:#f7b686"/><path d="M1920.27,1244.26h0a4.12,4.12,0,0,1,3.74,4.47l-2.81,31.44a4.15,4.15,0,0,1-4.48,3.74h0a4.14,4.14,0,0,1-3.74-4.48l2.82-31.44A4.12,4.12,0,0,1,1920.27,1244.26Z" transform="translate(-259.29 -221.86)" style="fill:#f7b686"/><path d="M1950.23,1226.81s10.08,21.31,2.58,36.28c-2.6,5.18-33.48,1.56-35.8-4.51s1.66-27.11,1.66-27.11Z" transform="translate(-259.29 -221.86)" style="fill:#f7b686"/><path d="M1951.75,1247.05h0a4.11,4.11,0,0,1,3.73,4.46l-2.81,31.37a4.13,4.13,0,0,1-4.46,3.74h0a4.14,4.14,0,0,1-3.74-4.47l2.82-31.37A4.11,4.11,0,0,1,1951.75,1247.05Z" transform="translate(-259.29 -221.86)" style="fill:#f7b686"/><path d="M1711.45,1224.13c-.08-.93-7.61-93.56,19.25-151l1,.46c-26.74,57.12-19.23,149.47-19.15,150.4Z" transform="translate(-259.29 -221.86)" style="fill:#2f1a31"/><path d="M1892.82,1141a158.29,158.29,0,0,0-21.89-49.63l.89-.63a159.93,159.93,0,0,1,22.06,50Z" transform="translate(-259.29 -221.86)" style="fill:#2f1a31"/><path d="M1784.37,966.59c.13,1,.85,1.8,1.6,1.7s1.25-1,1.12-2-.85-1.8-1.6-1.7S1784.24,965.56,1784.37,966.59Z" transform="translate(-259.29 -221.86)" style="fill:#060633"/><path d="M1796.77,967c.13,1,.85,1.8,1.6,1.7s1.25-1,1.12-2-.85-1.79-1.6-1.69S1796.64,965.92,1796.77,967Z" transform="translate(-259.29 -221.86)" style="fill:#060633"/><path d="M1551,1508.93s-18.88-17.87-12.38-28,17.45,21.87,17.45,21.87-5.68-37.89,6.09-38.55,0,38.55,0,38.55,4.37-9.14,8.63-9.71,3,7.75-4.57,15.89Z" transform="translate(-259.29 -221.86)" style="fill:#bed5dc"/><path d="M1570.06,1509.7a.76.76,0,0,1-.53-.2.77.77,0,0,1,0-1.09c6.6-7.07,8.56-13.86,7.43-16.05a1.35,1.35,0,0,0-1.59-.69c-3.62.48-7.86,7.8-9.19,10.58a.78.78,0,0,1-1,.39.77.77,0,0,1-.46-.94c.1-.34,10-33.69,4-41.34a3.54,3.54,0,0,0-3.2-1.4,5.1,5.1,0,0,0-3.79,2.07c-7.11,8.73-2.45,40.45-2.4,40.77a.77.77,0,0,1-1.49.37c-2.45-7.16-10-25.87-15.53-26.53-1.06-.13-2,.49-2.89,1.89-6.94,10.88,13.71,30.65,13.92,30.84a.77.77,0,0,1-1.06,1.12,82,82,0,0,1-9.89-11.7c-6.07-8.92-7.51-16-4.27-21.09,1.22-1.92,2.69-2.79,4.37-2.59,3.27.39,7.11,5.2,11.4,14.28,1.2,2.54,2.27,5.09,3.14,7.26-1-10-2-28.79,3.5-35.59a6.65,6.65,0,0,1,4.9-2.64,5.08,5.08,0,0,1,4.5,2c5,6.29.49,26.84-2.13,37,2-2.86,4.62-5.89,7.36-6.26a2.87,2.87,0,0,1,3.16,1.52c1.57,3-.88,10.53-7.68,17.8A.76.76,0,0,1,1570.06,1509.7Z" transform="translate(-259.29 -221.86)" style="fill:#6f4975"/><path d="M860.46,1611.75s-27.85-26.37-18.27-41.4S868,1602.62,868,1602.62s-8.39-55.91,9-56.88,0,56.88,0,56.88,6.44-13.49,12.73-14.32,4.49,11.43-6.74,23.45Z" transform="translate(-259.29 -221.86)" style="fill:#bed5dc"/><path d="M888.66,1612.88a1.13,1.13,0,0,1-.83-1.91c9.75-10.42,12.64-20.44,11-23.67a2,2,0,0,0-2.34-1c-5.35.71-11.6,11.51-13.56,15.62a1.14,1.14,0,0,1-2.12-.82c0-.13,3.78-12.65,6.33-26.46,3.33-18,3.18-29.95-.45-34.54a5.25,5.25,0,0,0-4.73-2.06,7.55,7.55,0,0,0-5.6,3c-10.48,12.88-3.6,59.7-3.53,60.17a1.14,1.14,0,0,1-2.2.53c-3.61-10.55-14.77-38.17-22.92-39.14-1.55-.19-2.94.72-4.26,2.79-10.25,16.06,20.24,45.22,20.55,45.51a1.15,1.15,0,0,1,0,1.61,1.13,1.13,0,0,1-1.61,0c-1.32-1.24-32.15-30.76-20.9-48.38,1.81-2.84,4-4.13,6.45-3.83,8,1,16.74,19.84,21.45,31.65-1.49-14.77-3-42.37,5.17-52.39a9.8,9.8,0,0,1,7.24-3.88,7.49,7.49,0,0,1,6.64,2.92c7.3,9.27.72,39.6-3.16,54.59,2.88-4.21,6.83-8.69,10.87-9.23a4.24,4.24,0,0,1,4.67,2.24c2.94,5.71-3.46,17.84-11.33,26.26A1.15,1.15,0,0,1,888.66,1612.88Z" transform="translate(-259.29 -221.86)" style="fill:#6f4975"/><path d="M960.42,1509.78s-18.29-17.32-12-27.18,16.91,21.19,16.91,21.19-5.5-36.72,5.91-37.36,0,37.36,0,37.36,4.22-8.86,8.35-9.41,2.95,7.51-4.42,15.4Z" transform="translate(-259.29 -221.86)" style="fill:#bed5dc"/><path d="M978.94,1510.53a.74.74,0,0,1-.51-.2.76.76,0,0,1,0-1.06c6.4-6.84,8.3-13.42,7.2-15.54-.18-.36-.53-.81-1.54-.68-3.51.47-7.61,7.56-8.9,10.25a.75.75,0,0,1-1.39-.53c.1-.33,9.71-32.64,3.86-40.06a3.44,3.44,0,0,0-3.1-1.35,5,5,0,0,0-3.68,2c-6.88,8.46-2.37,39.2-2.32,39.51a.75.75,0,0,1-.56.84.74.74,0,0,1-.88-.49c-2.38-6.93-9.7-25.06-15.05-25.7-1-.13-1.94.48-2.8,1.83-6.73,10.55,13.29,29.7,13.49,29.89a.75.75,0,1,1-1,1.08c-.86-.82-21.11-20.2-13.72-31.77,1.19-1.86,2.61-2.71,4.23-2.51,3.18.38,6.89,5,11,13.84,1.16,2.46,2.2,4.92,3,7-1-9.68-2-27.89,3.39-34.49a6.43,6.43,0,0,1,4.75-2.55,5,5,0,0,1,4.37,1.92c4.79,6.09.47,26-2.08,35.85,1.89-2.77,4.49-5.71,7.14-6.07a2.79,2.79,0,0,1,3.06,1.47c1.52,3-.85,10.2-7.44,17.25A.71.71,0,0,1,978.94,1510.53Z" transform="translate(-259.29 -221.86)" style="fill:#6f4975"/><path d="M499.38,1564.7s-18.29-17.32-12-27.18,16.91,21.19,16.91,21.19-5.51-36.72,5.9-37.36,0,37.36,0,37.36,4.23-8.86,8.36-9.41,3,7.51-4.42,15.4Z" transform="translate(-259.29 -221.86)" style="fill:#bed5dc"/><path d="M517.9,1565.45a.75.75,0,0,1-.54-1.26c6.4-6.85,8.29-13.43,7.2-15.55A1.31,1.31,0,0,0,523,1548c-3.51.47-7.62,7.56-8.9,10.25a.75.75,0,0,1-1,.38.74.74,0,0,1-.44-.91c.09-.33,9.7-32.64,3.86-40.06a3.45,3.45,0,0,0-3.11-1.35,4.92,4.92,0,0,0-3.67,2c-6.88,8.46-2.37,39.2-2.32,39.51a.77.77,0,0,1-.56.84.76.76,0,0,1-.89-.49c-2.37-6.93-9.7-25.06-15.05-25.7-1-.13-1.93.48-2.8,1.83-6.73,10.55,13.29,29.69,13.49,29.89a.73.73,0,0,1,0,1,.73.73,0,0,1-1,0c-.87-.82-21.11-20.2-13.73-31.77,1.19-1.86,2.61-2.71,4.24-2.51,3.17.38,6.89,5,11,13.83,1.17,2.47,2.21,4.93,3.05,7-1-9.68-2-27.89,3.39-34.49a6.41,6.41,0,0,1,4.75-2.55,4.92,4.92,0,0,1,4.36,1.92c4.8,6.08.47,26-2.07,35.84,1.89-2.76,4.48-5.71,7.14-6.06a2.79,2.79,0,0,1,3.06,1.47c1.52,3-.85,10.2-7.44,17.25A.75.75,0,0,1,517.9,1565.45Z" transform="translate(-259.29 -221.86)" style="fill:#6f4975"/><path d="M2070.44,1570.21s-34.67-32.82-22.74-51.52,32.06,40.16,32.06,40.16-10.44-69.59,11.18-70.8,0,70.8,0,70.8,8-16.79,15.85-17.83,5.59,14.24-8.39,29.19Z" transform="translate(-259.29 -221.86)" style="fill:#bed5dc"/><path d="M2105.54,1571.63a1.45,1.45,0,0,1-1-.38,1.41,1.41,0,0,1-.06-2c12.13-13,15.72-25.45,13.65-29.47-.34-.66-1-1.52-2.92-1.27-6.66.88-14.44,14.32-16.88,19.43a1.41,1.41,0,0,1-2.63-1c0-.15,4.7-15.75,7.88-32.92,4.14-22.41,3.95-37.28-.56-43a6.52,6.52,0,0,0-5.89-2.56,9.34,9.34,0,0,0-7,3.79c-13,16-4.49,74.3-4.4,74.89a1.41,1.41,0,0,1-1.07,1.58,1.4,1.4,0,0,1-1.67-.91c-4.5-13.14-18.39-47.51-28.53-48.73-1.94-.22-3.66.91-5.31,3.48-12.74,20,25.19,56.28,25.58,56.65a1.41,1.41,0,1,1-2,2c-1.64-1.55-40-38.28-26-60.22,2.25-3.53,5-5.14,8-4.77,10,1.2,20.83,24.69,26.69,39.4-1.85-18.38-3.71-52.74,6.44-65.21a12.21,12.21,0,0,1,9-4.83,9.32,9.32,0,0,1,8.27,3.64c9.1,11.54.89,49.29-3.93,67.94,3.59-5.24,8.5-10.82,13.53-11.49a5.29,5.29,0,0,1,5.81,2.79c3.66,7.11-4.3,22.2-14.11,32.69A1.4,1.4,0,0,1,2105.54,1571.63Z" transform="translate(-259.29 -221.86)" style="fill:#6f4975"/><path d="M1638.37,1613.15s-28.9-27.36-19-42.94,26.73,33.47,26.73,33.47-8.71-58,9.32-59,0,59,0,59,6.68-14,13.2-14.86,4.66,11.86-7,24.33Z" transform="translate(-259.29 -221.86)" style="fill:#bed5dc"/><path d="M1667.62,1614.33a1.19,1.19,0,0,1-.86-2c10.11-10.81,13.11-21.21,11.38-24.56a2.06,2.06,0,0,0-2.43-1.06c-5.55.74-12,11.94-14.07,16.2a1.18,1.18,0,0,1-2.19-.85c0-.13,3.92-13.13,6.56-27.44,3.45-18.68,3.29-31.07-.46-35.84a5.47,5.47,0,0,0-4.91-2.14,7.83,7.83,0,0,0-5.81,3.17c-10.87,13.36-3.73,61.92-3.66,62.41a1.18,1.18,0,0,1-.89,1.32,1.16,1.16,0,0,1-1.39-.76c-3.75-11-15.33-39.6-23.78-40.61-1.6-.19-3.06.75-4.42,2.9-10.63,16.66,21,46.91,21.31,47.21a1.18,1.18,0,1,1-1.62,1.71c-1.37-1.29-33.35-31.91-21.68-50.19,1.88-2.94,4.13-4.28,6.69-4,5,.6,10.88,8,17.44,21.86,1.84,3.9,3.49,7.79,4.82,11.11-1.55-15.29-3.13-44.06,5.35-54.48a10.18,10.18,0,0,1,7.51-4,7.77,7.77,0,0,1,6.89,3c7.58,9.62.74,41.08-3.27,56.63,3-4.37,7.08-9,11.27-9.58a4.4,4.4,0,0,1,4.84,2.32c3,5.93-3.58,18.51-11.75,27.25A1.2,1.2,0,0,1,1667.62,1614.33Z" transform="translate(-259.29 -221.86)" style="fill:#6f4975"/><path d="M1092.64,1613.21s-12.74-12.06-8.35-18.93,11.78,14.76,11.78,14.76-3.84-25.57,4.11-26,0,26,0,26,2.94-6.17,5.82-6.55,2,5.23-3.09,10.72Z" transform="translate(-259.29 -221.86)" style="fill:#bed5dc"/><path d="M1093.89,1613.73a.54.54,0,0,1-.36-.14c-.6-.57-14.7-14.07-9.56-22.13a3.09,3.09,0,0,1,3-1.75c3.67.44,7.65,9.07,9.81,14.48-.68-6.76-1.36-19.38,2.36-24a4.51,4.51,0,0,1,3.31-1.78,3.41,3.41,0,0,1,3,1.34c3.34,4.24.33,18.11-1.44,25,1.31-1.93,3.12-4,5-4.23a2,2,0,0,1,2.13,1c1.06,2.06-.59,7.11-5.18,12a.52.52,0,0,1-.74,0,.51.51,0,0,1,0-.73c4.46-4.77,5.78-9.35,5-10.83a.91.91,0,0,0-1.07-.47c-2.44.33-5.3,5.27-6.2,7.14a.52.52,0,0,1-.66.26.53.53,0,0,1-.31-.63c.07-.23,6.76-22.73,2.69-27.9a2.41,2.41,0,0,0-2.16-.94,3.45,3.45,0,0,0-2.56,1.4c-4.79,5.88-1.65,27.29-1.61,27.51a.51.51,0,0,1-.4.58.52.52,0,0,1-.61-.33c-1.65-4.83-6.76-17.46-10.48-17.9-.71-.09-1.35.33-2,1.27-4.69,7.35,9.25,20.68,9.39,20.81a.52.52,0,0,1,0,.74A.5.5,0,0,1,1093.89,1613.73Z" transform="translate(-259.29 -221.86)" style="fill:#6f4975"/></svg>