<?xml version="1.0" encoding="utf-8"?>
<!-- Generator: Adobe Illustrator 26.0.1, SVG Export Plug-In . SVG Version: 6.00 Build 0)  -->
<svg version="1.1" id="Layer_1" xmlns="http://www.w3.org/2000/svg" xmlns:xlink="http://www.w3.org/1999/xlink" x="0px" y="0px"
	 viewBox="0 0 394 295" style="enable-background:new 0 0 394 295;" xml:space="preserve">
<style type="text/css">
	.st0{fill:#FEBB12;}
	.st1{opacity:0.09;}
	.st2{fill:#4B2062;}
	.st3{opacity:0.09;fill:#4B2062;enable-background:new    ;}
	.st4{opacity:0.45;fill:#FFD96F;enable-background:new    ;}
	.st5{fill:none;stroke:#01A2CB;stroke-miterlimit:10;}
	.st6{fill:#1B1A1B;}
	.st7{fill:#EE2524;}
	.st8{fill:#01A2CB;}
	.st9{fill:none;stroke:#FEBB12;stroke-miterlimit:10;}
	.st10{fill:#050708;}
	.st11{fill:none;stroke:#4B2062;stroke-width:2;stroke-miterlimit:10;}
	.st12{fill:#ED1A39;}
	.st13{fill:#FDB614;}
	.st14{fill:none;stroke:#4B2062;stroke-miterlimit:10;}
	.st15{opacity:0.2;fill:#FEF7E7;enable-background:new    ;}
	.st16{fill:#FBB615;}
</style>
<g>
	<g>
		<g>
			<g>
				<path class="st0" d="M301.27,195.94c26.1,0.93,51.56,13.77,68.16,34.44c0.35,0.44,1.01-0.14,0.66-0.58
					c-6.53-8.12-14.43-15.06-23.19-20.54c-13.68-8.58-29.51-13.62-45.55-14.19C300.78,195.04,300.71,195.92,301.27,195.94z"/>
			</g>
			<path class="st0" d="M321.48,199.09c10-9.73,24.02-20.34,38.99-20.58c6.62-0.67,11.61,5.32,5.57,10.48
				C353.65,198.23,336.51,197.59,321.48,199.09"/>
			<path class="st0" d="M347.32,210.11c9.12-5.88,21.43-11.8,32.94-9.63c5.17,0.53,8.09,5.9,2.7,8.9
				C372.08,214.5,359.05,211.32,347.32,210.11"/>
			<path class="st0" d="M350.85,212.16c8.17,2.43,18.11,6.53,25.63,12.28c6.83,3.45,22.58,25.15,5.08,22.32
				C367.58,240.33,359.59,224.78,350.85,212.16"/>
			<path class="st0" d="M330.2,201.2c8.07,8.74,16.8,21.28,17.84,34.44c0.92,5.4-2.83,11.08-7.44,5.58
				C332.8,230.1,332.32,214.75,330.2,201.2"/>
			<path class="st0" d="M315.16,196.94c5.18,5.61,10.78,13.65,11.45,22.09c0.59,3.46-1.82,7.11-4.77,3.58
				C316.83,215.48,316.53,205.63,315.16,196.94"/>
		</g>
		<g class="st1">
			<g>
				<path class="st2" d="M194.1,242.38c-7.77,14.92-21.95,26.16-38.01,30.06C169.87,271.37,189.57,255.8,194.1,242.38L194.1,242.38z
					"/>
			</g>
			<path class="st2" d="M186.73,253.26c2.61,8.52,4.58,19.62,0.55,28.39c-1.47,4.04-6.17,5.27-7.35,0.32
				C178.27,272.2,183.39,262.42,186.73,253.26"/>
			<path class="st2" d="M173.46,265.22c0.72,6.93,0.57,15.74-3.83,21.83c-1.73,2.86-5.52,3.07-5.67-0.9
				C164.14,278.4,169.52,271.71,173.46,265.22"/>
			<path class="st2" d="M171.34,266.71c-5.92,6.56-14.33,13.83-23.76,14.61c-4.14,0.7-7.54-2.87-3.93-6.38
				C151.09,268.61,161.92,268.28,171.34,266.71"/>
			<path class="st2" d="M183.14,257.75c-7.08,2.26-16.45,3.86-24.02,0.8c-3.24-0.96-5.34-4.72-1.02-5.88
				C166.43,251.22,175.05,255.21,183.14,257.75"/>
			<path class="st2" d="M189.68,250.19c-4.54,1.45-10.55,2.47-15.41,0.51c-2.08-0.62-3.43-3.03-0.66-3.77
				C178.96,246.01,184.49,248.56,189.68,250.19"/>
		</g>
		<g class="st1">
			<g>
				<path class="st2" d="M234.77,50.56c6.98-15.32,20.56-27.32,36.39-32.09C257.46,20.3,238.6,36.92,234.77,50.56L234.77,50.56z"/>
			</g>
			<path class="st2" d="M241.55,39.29c-3.04-8.36-5.59-19.34-2.03-28.32c1.26-4.11,5.89-5.6,7.32-0.72
				C249.02,19.91,244.43,29.96,241.55,39.29"/>
			<path class="st2" d="M254.19,26.63c-1.08-6.89-1.39-15.69,2.68-22c1.58-2.95,5.35-3.36,5.71,0.6
				C262.81,12.96,257.79,19.93,254.19,26.63"/>
			<path class="st2" d="M256.23,25.02c5.57-6.86,13.59-14.6,22.96-15.89c4.11-0.93,7.67,2.45,4.26,6.15
				C276.35,22.02,265.56,22.93,256.23,25.02"/>
			<path class="st2" d="M244.91,34.62c6.96-2.64,16.22-4.75,23.94-2.12c3.29,0.78,5.58,4.42,1.33,5.81
				C261.95,40.22,253.12,36.71,244.91,34.62"/>
			<path class="st2" d="M238.77,42.53c4.46-1.7,10.41-3.04,15.36-1.36c2.11,0.5,3.58,2.84,0.85,3.73
				C249.7,46.11,244.04,43.86,238.77,42.53"/>
		</g>
		<g>
			<g>
				<path class="st0" d="M88.93,78.91c-22.89,5.8-48.1,1.09-67.5-12.67c-0.41-0.29-0.84,0.38-0.43,0.67
					c7.63,5.4,16.16,9.43,25.09,11.98C58.84,82.25,78.71,84.42,88.93,78.91L88.93,78.91z"/>
			</g>
			<path class="st0" d="M70.62,81.29c-6.34,10.98-15.97,23.74-28.91,27.74c-5.59,2.25-11.36-1.69-7.36-7.69
				C42.88,90.17,57.92,86.39,70.62,81.29"/>
			<path class="st0" d="M45.52,78.25c-6.5,7.41-15.78,15.67-26.29,16.7c-4.62,0.85-8.45-3.07-4.48-7.05
				C22.96,80.7,35.04,80.17,45.52,78.25"/>
			<path class="st0" d="M41.95,77.37C29.5,77.19,13.92,74.98,4.09,65.46c-4.69-3.85-4.23-10.95,2.85-10.37
				C20.64,57.13,31.32,68.62,41.95,77.37"/>
			<path class="st0" d="M62.53,81.66c-9.11-5.55-19.72-14.23-23.79-25.39c-2.09-4.45-0.21-10.34,5.12-6.73
				C53.32,57.22,57.42,70.43,62.53,81.66"/>
			<path class="st0" d="M76.62,81.56C70.77,78,63.96,72.43,61.36,65.27c-1.34-2.86-0.14-6.63,3.29-4.32
				C70.7,65.88,73.34,74.35,76.62,81.56"/>
		</g>
	</g>
	<g>
		<polygon class="st3" points="136.38,25.23 56.67,151.53 216.1,150.18 		"/>
		<path class="st4" d="M196.33,199.85c-1.2,71.69-105.23,71.69-106.42,0C91.1,128.15,195.14,128.17,196.33,199.85z"/>
		<rect x="193.1" y="77.5" class="st4" width="147.46" height="140.73"/>
	</g>
	<rect x="251.64" y="47.48" class="st5" width="123.52" height="117.87"/>
	<g>
		<rect x="59.9" y="219.72" class="st6" width="22.83" height="23.41"/>
		<rect x="82.73" y="219.72" class="st0" width="22.83" height="23.41"/>
		<rect x="105.56" y="219.72" class="st7" width="22.83" height="23.41"/>
		<rect x="128.39" y="219.72" class="st8" width="22.83" height="23.41"/>
	</g>
	<g>
		<path class="st9" d="M300.69,226.09c-0.44,26.67-39.15,26.67-39.59,0C261.55,199.42,300.25,199.43,300.69,226.09z"/>
		<g>
			<g>
				<g>
					<path class="st10" d="M280.88,199.85c0,0.47,0,0.94,0,1.42c0,1.27,0,2.54,0,3.81c0,1.88,0,3.77,0,5.65c0,2.3,0,4.6,0,6.9
						c0,2.51,0,5.02,0,7.53c0,2.55,0,5.1,0,7.65c0,2.36,0,4.72,0,7.08c0,2,0,4,0,6.01c0,1.44,0,2.88,0,4.32c0,0.68-0.02,1.36,0,2.04
						c0,0.03,0,0.06,0,0.09c0,0.74,1.15,0.75,1.15,0c0-0.47,0-0.94,0-1.42c0-1.27,0-2.54,0-3.81c0-1.88,0-3.77,0-5.65
						c0-2.3,0-4.6,0-6.9c0-2.51,0-5.02,0-7.53c0-2.55,0-5.1,0-7.65c0-2.36,0-4.72,0-7.08c0-2,0-4,0-6.01c0-1.44,0-2.88,0-4.32
						c0-0.68,0.02-1.36,0-2.04c0-0.03,0-0.06,0-0.09C282.04,199.11,280.88,199.11,280.88,199.85L280.88,199.85z"/>
				</g>
			</g>
			<g>
				<g>
					<path class="st10" d="M307.06,225.52c-0.46,0-0.92,0-1.38,0c-1.24,0-2.48,0-3.72,0c-1.84,0-3.68,0-5.52,0
						c-2.25,0-4.48,0-6.73,0c-2.45,0-4.9,0-7.35,0c-2.49,0-4.97,0-7.46,0c-2.31,0-4.6,0-6.91,0c-1.95,0-3.91,0-5.86,0
						c-1.4,0-2.81,0-4.21,0c-0.66,0-1.33-0.01-1.99,0c-0.03,0-0.06,0-0.09,0c-0.74,0-0.75,1.15,0,1.15c0.46,0,0.92,0,1.38,0
						c1.24,0,2.48,0,3.72,0c1.84,0,3.68,0,5.52,0c2.25,0,4.48,0,6.73,0c2.45,0,4.9,0,7.35,0c2.49,0,4.97,0,7.46,0
						c2.31,0,4.6,0,6.91,0c1.95,0,3.91,0,5.86,0c1.4,0,2.81,0,4.21,0c0.66,0,1.33,0.01,1.99,0c0.03,0,0.06,0,0.09,0
						C307.81,226.67,307.81,225.52,307.06,225.52L307.06,225.52z"/>
				</g>
			</g>
		</g>
	</g>
	<g>
		<g>
			<path class="st7" d="M44.23,185.75c-17.43-0.1-17.43-27.23,0-27.32C61.66,158.51,61.66,185.66,44.23,185.75z M44.23,159.1
				c-16.56,0.09-16.56,25.88,0,25.98C60.79,184.98,60.79,159.18,44.23,159.1z"/>
		</g>
		<g>
			<g>
				<g>
					<path class="st10" d="M44.09,154.85c0,11.47,0,22.95,0,34.41c-0.07,0.7,1,0.77,1.01,0.06c0-11.47,0-22.95,0-34.41
						C45.17,154.21,44.1,154.14,44.09,154.85L44.09,154.85z"/>
				</g>
			</g>
			<g>
				<g>
					<path class="st10" d="M61.42,171.56c-11.19,0-22.39,0-33.58,0c-0.68-0.07-0.75,1.03-0.05,1.04c11.19,0,22.39,0,33.58,0
						C62.04,172.67,62.11,171.57,61.42,171.56L61.42,171.56z"/>
				</g>
			</g>
		</g>
	</g>
	<path class="st7" d="M301.88,34.37h31.61c2.13,0,3.96,1.57,4.33,3.72c1.67,11.11,2.97,26.14,17.32,26.14
		c-1.09-55.76-1.48-38.78-53.01-41.51c-13.66-0.02-48.35,0.02-62.4,0c-5.95,0-10.84,4.79-11.11,10.88l-1.34,30.62l0,0
		c14.65,0.01,15.67-15.6,17.44-26.8c0.31-1.77,1.81-3.05,3.56-3.05h32.26c0.64,43.98,0.64,88.98,0.01,132.69
		c-7.9,1.24-23.73-0.33-23.47,11.91l0,0c20.27,0,47.99,0,68.26,0c0.27-12.23-15.58-10.67-23.47-11.91
		C301.24,123.07,301.24,78.06,301.88,34.37z"/>
	<g>
		<path class="st11" d="M135.26,207.83c-0.74-0.78-53.15,1.51-52.82-0.82l3.01-20.1c0.05-0.35,0.35-0.6,0.69-0.6
			c0.71,0.57,44.82-1.08,44.94,0.57C131.08,186.88,135.26,207.83,135.26,207.83L135.26,207.83z"/>
		<path class="st11" d="M155.14,115.6c-1.49,0.38-42.4-78.21-43.94-69.91v62.94c6.67,1.73,5.29,12.57-1.7,12.37
			c-7.08,0.2-8.35-10.83-1.54-12.41V45.5c-1.14-8.63-46.26,72.05-47.15,70.65c-1.18,1.15,24.51,61.31,24.42,62.47
			c0.19,0.47,0.65,0.79,1.15,0.79h43.71c0.51,0,0.96-0.32,1.15-0.81C131.17,177.5,156.23,116.7,155.14,115.6z"/>
	</g>
	<g>
		<path class="st11" d="M42.49,40.85c0,0,59.8-61.29,134.55,0"/>
		<path class="st2" d="M44.6,42.42c0.08,5.2-7.89,5.2-7.81,0C36.71,37.22,44.67,37.22,44.6,42.42z"/>
		<path class="st2" d="M180.95,42.42c0.08,5.2-7.89,5.2-7.81,0C173.06,37.22,181.02,37.22,180.95,42.42z"/>
		<rect x="106.46" y="10.22" class="st2" width="6.61" height="6.77"/>
	</g>
	<g>
		<g>
			<path class="st8" d="M63.27,272.99c31.44,27.53,66.73,16.28,83.34,0.05l0.89,0.91c-16.99,16.59-52.93,28.08-85.02,0.05
				L63.27,272.99z"/>
		</g>
		<g>
			<path class="st8" d="M145.74,272.52c-0.05-3.25,4.94-3.25,4.89,0C150.68,275.77,145.7,275.77,145.74,272.52z"/>
		</g>
		<g>
			<path class="st8" d="M60.44,272.52c-0.05-3.25,4.94-3.25,4.89,0C65.37,275.77,60.39,275.77,60.44,272.52z"/>
		</g>
		<g>
			<rect x="102.9" y="288.43" class="st8" width="4.14" height="4.24"/>
		</g>
	</g>
	<g>
		<g>
			<path class="st8" d="M387.61,110.67c-21.11-18.48-44.82-10.93-55.97-0.03l-0.6-0.61c11.41-11.14,35.55-18.85,57.1-0.03
				L387.61,110.67z"/>
		</g>
		<g>
			<path class="st8" d="M332.23,110.99c0.03,2.19-3.32,2.19-3.29,0C328.91,108.81,332.26,108.81,332.23,110.99z"/>
		</g>
		<g>
			<path class="st8" d="M389.52,110.99c0.03,2.19-3.32,2.19-3.29,0C386.2,108.81,389.55,108.81,389.52,110.99z"/>
		</g>
		<g>
			<rect x="358.22" y="97.46" class="st8" width="2.78" height="2.85"/>
		</g>
	</g>
	<g>
		<g>
			<g>
				<path class="st2" d="M191.38,111.18l-13.71,2.87c-0.41,0.28-0.57-5.99-0.34-5.82l11.64-2.44
					C189.36,105.67,191.19,111.05,191.38,111.18L191.38,111.18z"/>
				<path class="st2" d="M191.77,85.83c-0.39,0.18-15.06-18.04-15.22-15.96l3.3,16.55c1.85,0.08,2.05,3.01,0.2,3.35
					c-1.85,0.44-2.77-2.39-1.05-3.18l-3.31-16.59c-0.69-1.98-8.57,21.21-8.66,21.49c0.31,0.15,9.5,15.15,10.01,14.91l11.49-2.41
					c0.14-0.03,0.24-0.14,0.26-0.28C188.72,103.43,192.11,86.06,191.77,85.83z"/>
			</g>
			<polygon class="st12" points="205.48,181.84 191.59,184.75 177.44,113.88 191.34,110.96 			"/>
		</g>
		<g>
			<polygon class="st13" points="214,163.15 199.83,163.54 197.95,91.22 212.12,90.84 			"/>
			<g>
				<path class="st14" d="M212.13,91.06l-13.99,0.38c-0.44,0.2,0.46-6,0.66-5.79l11.88-0.32C211.08,85.27,211.96,90.89,212.13,91.06
					L212.13,91.06z"/>
				<path class="st14" d="M216.82,66.16c-0.41,0.11-11.76-20.45-12.28-18.44l0.44,16.89c1.8,0.41,1.51,3.33-0.37,3.33
					c-1.9,0.11-2.31-2.84-0.5-3.32l-0.44-16.92c-0.28-2.15-12.01,19.29-12.18,19.62c0.28,0.2,6.78,16.62,7.32,16.47l11.73-0.32
					c0.14,0,0.26-0.09,0.3-0.23C210.82,82.95,217.12,66.44,216.82,66.16z"/>
			</g>
		</g>
		<g>
			<polygon class="st2" points="236.24,110.26 222.44,106.75 223.86,100.83 237.55,104.47 			"/>
			<polygon class="st12" points="219.31,180.26 205.55,176.76 222.53,106.55 236.3,110.04 			"/>
			<g>
				<path class="st14" d="M237.44,102.25l2.48-11.07l-3.88-13.68c-8.5,10.59-8.41,7.63-11.33,21.51L237.44,102.25z"/>
				<line class="st14" x1="231.02" y1="83.52" x2="238.22" y2="85.17"/>
			</g>
		</g>
		<g>
			<path class="st2" d="M212.18,253.69c-19.03,1.43-38.79-1.33-39.92-25.25v-67.83c0-1.88,1.48-3.4,3.32-3.4h58.78
				c1.86,0,3.37,1.54,3.37,3.45v66.84C237.73,241.97,226.29,253.69,212.18,253.69z"/>
			<rect x="172.26" y="167.6" class="st15" width="65.46" height="8.96"/>
			<rect x="172.26" y="182.52" class="st15" width="65.46" height="8.96"/>
		</g>
	</g>
	<g>
		<line class="st11" x1="359.77" y1="147.86" x2="359.77" y2="291.06"/>
		<line class="st11" x1="377.38" y1="275.19" x2="184.28" y2="275.19"/>
	</g>
	<g>
		<path class="st2" d="M326.64,265.77c-1.3-5.66-3.72-8.14-9.23-9.46c5.52-1.5,7.78-3.82,9.23-9.46c0.98,5.24,4.12,8.46,9.23,9.46
			C330.3,258.22,328.58,259.33,326.64,265.77z"/>
		<path class="st16" d="M384.95,184.71c-0.75-3.57-2.57-5.43-6.05-6.2c3.43-0.84,5.23-2.69,6.05-6.2c0.54,3.3,2.83,5.64,6.05,6.2
			C387.56,179.6,386.06,180.71,384.95,184.71z"/>
		<g>
			<path class="st16" d="M300.88,269.14c-6.09,0.08-6.09-9.71,0-9.62C306.97,259.43,306.97,269.23,300.88,269.14z M300.88,260.96
				c-4.27-0.06-4.27,6.8,0,6.74C305.15,267.76,305.15,260.9,300.88,260.96z"/>
		</g>
		<g>
			<path class="st16" d="M390.96,155.77c-2.69,0.04-2.69-4.29,0-4.25C393.65,151.48,393.65,155.82,390.96,155.77z M390.96,152.16
				c-1.88-0.03-1.88,3,0,2.98C392.85,155.16,392.85,152.14,390.96,152.16z"/>
		</g>
		<g>
			<path class="st16" d="M245.95,257.3c-2.69,0.04-2.69-4.29,0-4.25C248.64,253.01,248.64,257.34,245.95,257.3z M245.95,253.69
				c-1.88-0.03-1.88,3,0,2.98C247.83,256.69,247.83,253.66,245.95,253.69z"/>
		</g>
	</g>
	<g>
		<path class="st16" d="M191.86,26.46c-1.3-5.66-3.72-8.14-9.23-9.46c5.52-1.5,7.78-3.82,9.23-9.46c0.98,5.24,4.12,8.46,9.23,9.46
			C195.52,18.91,193.79,20.02,191.86,26.46z"/>
		<path class="st7" d="M22.33,128.21c-1.3-5.66-3.72-8.14-9.23-9.46c5.52-1.5,7.78-3.82,9.23-9.46c0.98,5.24,4.12,8.46,9.23,9.46
			C25.99,120.65,24.27,121.76,22.33,128.21z"/>
		<path class="st2" d="M84.69,268.43c-0.81-3.82-2.74-5.8-6.47-6.63c3.66-0.9,5.59-2.88,6.47-6.63c0.58,3.53,3.03,6.04,6.47,6.63
			C87.42,263.02,85.92,264.09,84.69,268.43z"/>
		<g>
			<path class="st16" d="M213.14,38.41c-6.09,0.08-6.09-9.71,0-9.62C219.23,28.7,219.23,38.5,213.14,38.41z M213.14,30.23
				c-4.27-0.06-4.27,6.8,0,6.74C217.4,37.03,217.4,30.17,213.14,30.23z"/>
		</g>
		<g>
			<path class="st16" d="M40.7,224.54c-6.09,0.08-6.09-9.71,0-9.62C46.78,214.83,46.78,224.62,40.7,224.54z M40.7,216.36
				c-4.27-0.06-4.27,6.8,0,6.74C44.95,223.15,44.95,216.3,40.7,216.36z"/>
		</g>
		<g>
			<path class="st16" d="M102.9,259.72c-2.69,0.04-2.69-4.29,0-4.25C105.59,255.43,105.59,259.75,102.9,259.72z M102.9,256.11
				c-1.88-0.03-1.88,3,0,2.98C104.78,259.11,104.78,256.08,102.9,256.11z"/>
		</g>
		<g>
			<path class="st16" d="M80.89,46.67c-2.69,0.04-2.69-4.29,0-4.25C83.58,42.38,83.58,46.71,80.89,46.67z M80.89,43.05
				c-1.88-0.03-1.88,3,0,2.98C82.77,46.05,82.77,43.03,80.89,43.05z"/>
		</g>
		<g>
			<path class="st16" d="M216.1,12.35c-2.69,0.04-2.69-4.29,0-4.25C218.79,8.06,218.79,12.38,216.1,12.35z M216.1,8.73
				c-1.88-0.03-1.88,3,0,2.98C217.98,11.74,217.98,8.71,216.1,8.73z"/>
		</g>
		<g>
			<path class="st16" d="M38.14,144.3c-6.09,0.08-6.09-9.71,0-9.62C44.24,134.59,44.24,144.39,38.14,144.3z M38.14,136.12
				c-4.27-0.06-4.27,6.8,0,6.74C42.41,142.91,42.41,136.06,38.14,136.12z"/>
		</g>
	</g>
</g>
</svg>
