<?xml version="1.0" encoding="utf-8"?>
<!-- Generator: Adobe Illustrator 26.0.1, SVG Export Plug-In . SVG Version: 6.00 Build 0)  -->
<svg version="1.1" id="Layer_1" xmlns="http://www.w3.org/2000/svg" xmlns:xlink="http://www.w3.org/1999/xlink" x="0px" y="0px"
	 viewBox="0 0 394 295" style="enable-background:new 0 0 394 295;" xml:space="preserve">
<style type="text/css">
	.st0{fill:#F2E6DC;}
	.st1{fill:#D3BBA3;}
	.st2{fill:#E7D0BF;}
	.st3{fill:#373F45;}
	.st4{fill:#F7F1EB;}
	.st5{fill:#2E353B;}
	.st6{fill:#FFFFFF;}
	.st7{fill:#D87355;}
	.st8{fill:#EFBC72;}
	.st9{fill:#8B865D;}
	.st10{fill:#BC8271;}
	.st11{fill:#84534E;}
	.st12{fill:#85534E;}
</style>
<g id="Video_design_1_">
	<circle class="st0" cx="196.38" cy="148.88" r="146.51"/>
	<g>
		<circle class="st1" cx="273.41" cy="65.67" r="34.55"/>
		<path class="st1" d="M278.01,131.83c-35.1,0-63.65-28.55-63.65-63.65c0-35.1,28.55-63.65,63.65-63.65s63.65,28.55,63.65,63.65
			C341.66,103.27,313.11,131.83,278.01,131.83z M278.01,5.24c-34.71,0-62.94,28.24-62.94,62.94c0,34.71,28.24,62.94,62.94,62.94
			s62.94-28.24,62.94-62.94C340.96,33.47,312.72,5.24,278.01,5.24z"/>
		<path class="st2" d="M209.15,66.79c0,34.96,28.34,63.3,63.3,63.3s63.3-28.34,63.3-63.3c0-34.96-28.34-63.3-63.3-63.3
			S209.15,31.83,209.15,66.79z M290.34,32.28c0,10.88-8.82,19.71-19.71,19.71s-19.71-8.82-19.71-19.71
			c0-10.88,8.82-19.71,19.71-19.71S290.34,21.39,290.34,32.28z M287.54,65.79c-0.3-10.88,8.27-19.95,19.15-20.25
			c10.88-0.3,19.95,8.27,20.25,19.15c0.3,10.88-8.27,19.95-19.15,20.25C296.91,85.25,287.84,76.68,287.54,65.79z M253.25,101.84
			c0-10.88,8.82-19.71,19.71-19.71c10.88,0,19.71,8.82,19.71,19.71c0,10.88-8.82,19.71-19.71,19.71
			C262.07,121.55,253.25,112.72,253.25,101.84z M217.58,69.89c-0.3-10.88,8.27-19.95,19.15-20.25c10.88-0.3,19.95,8.27,20.25,19.15
			c0.3,10.88-8.27,19.95-19.15,20.25S217.88,80.77,217.58,69.89z"/>
	</g>
	<g>
		<g>
			<g>
				
					<rect x="52.67" y="67.37" transform="matrix(-1 -1.224647e-16 1.224647e-16 -1 303.5234 284.9488)" class="st3" width="198.18" height="150.21"/>
				
					<rect x="88.9" y="43.58" transform="matrix(-1.836970e-16 1 -1 -1.836970e-16 288.2133 -15.31)" class="st4" width="125.73" height="185.74"/>
				
					<ellipse transform="matrix(0.984 -0.1784 0.1784 0.984 -34.6255 30.4112)" class="st5" cx="151.76" cy="207.71" rx="3.73" ry="3.73"/>
			</g>
			<path class="st3" d="M52.67,221.65c0,8.6,6.97,15.57,15.57,15.57h207.73c8.6,0,15.57-6.97,15.57-15.57H52.67z"/>
			<path class="st0" d="M104.84,235.96c-7,0-12.69-5.69-12.69-12.69c0-0.19,0.16-0.35,0.35-0.35c0.2,0,0.35,0.16,0.35,0.35
				c0,6.61,5.38,11.99,11.99,11.99c0.2,0,0.35,0.16,0.35,0.35S105.03,235.96,104.84,235.96z"/>
			<path class="st5" d="M177.48,225.33c0,3.65,2.96,6.61,6.61,6.61h23.29c3.65,0,6.61-2.96,6.61-6.61H177.48z"/>
		</g>
		<g>
			<g>
				<g>
					<ellipse class="st6" cx="150.51" cy="135.99" rx="21.48" ry="21.52"/>
				</g>
				<polygon class="st7" points="163.16,135.99 142.94,124.29 142.94,147.69 				"/>
			</g>
			<rect x="69.55" y="179.69" class="st6" width="164.94" height="7.91"/>
			<g>
				<g>
					<ellipse class="st6" cx="211.07" cy="135.99" rx="19.17" ry="19.21"/>
				</g>
				<polygon class="st7" points="223.85,135.99 209.54,127.71 209.54,144.27 				"/>
				<rect x="202.37" y="127.71" class="st7" width="2.89" height="16.56"/>
			</g>
			<g>
				<g>
					<ellipse class="st6" cx="91.65" cy="135.99" rx="19.17" ry="19.21"/>
				</g>
				<polygon class="st7" points="78.87,135.99 93.18,127.71 93.18,144.27 				"/>
				
					<rect x="97.46" y="127.71" transform="matrix(-1 -1.224647e-16 1.224647e-16 -1 197.8104 271.9801)" class="st7" width="2.89" height="16.56"/>
			</g>
		</g>
	</g>
	<g>
		<path class="st6" d="M195.72,47.93h-62.22c-6.22,0-11.26-5.04-11.26-11.26v-1.71c0-6.22,5.04-11.26,11.26-11.26h62.22
			c6.22,0,11.26,5.04,11.26,11.26v1.71C206.97,42.89,201.93,47.93,195.72,47.93z"/>
		<g>
			<polygon class="st8" points="128.83,87.64 144.77,37.03 94.16,52.97 103.96,62.77 84.25,82.49 99.31,97.55 119.02,77.83 			"/>
			<g>
				<path class="st3" d="M146.82,30.98c-0.2,0-0.35-0.16-0.35-0.35v-6.92c0-0.19,0.16-0.35,0.35-0.35c0.2,0,0.35,0.16,0.35,0.35
					v6.92C147.17,30.82,147.01,30.98,146.82,30.98z"/>
				<path class="st3" d="M146.82,46.78c-0.2,0-0.35-0.16-0.35-0.35v-6.92c0-0.19,0.16-0.35,0.35-0.35c0.2,0,0.35,0.16,0.35,0.35
					v6.92C147.17,46.62,147.01,46.78,146.82,46.78z"/>
				<path class="st3" d="M142.38,35.42h-6.92c-0.2,0-0.35-0.16-0.35-0.35s0.16-0.35,0.35-0.35h6.92c0.2,0,0.35,0.16,0.35,0.35
					S142.57,35.42,142.38,35.42z"/>
				<path class="st3" d="M158.18,35.42h-6.92c-0.2,0-0.35-0.16-0.35-0.35s0.16-0.35,0.35-0.35h6.92c0.2,0,0.35,0.16,0.35,0.35
					S158.37,35.42,158.18,35.42z"/>
			</g>
		</g>
	</g>
	<g>
		<path class="st3" d="M279.11,208.53c5.05,5.65,10.87,13.38,15.8,23.39c9.78,19.86,10.94,52.09,10.75,62.7c-19.6,0-35.69,0-55.3,0
			c-0.2-4.53-0.41-22.78-0.61-27.31c-4.17,2.2-20.13,24.85-22.44,27.28c-20.86,0-44.91,0-65.77,0
			c13.05-17.64,35.81-43.51,51.83-56.47c-1.16-6.32-2.32-10.94-3.48-17.26C232.97,216.75,256.04,212.64,279.11,208.53z"/>
		<g>
			<path class="st9" d="M191.55,210.69l3.85,32.59l94.45-26.54l-18.96-28.44l19.59-1.26c-0.21-13.7-0.36-24.08-0.57-37.78
				c-22.63,0.59-42.72,2.7-64.06,5.7c-20.6,2.9-47.32,12.23-67.9,24.7l17.08,35.45L191.55,210.69z"/>
			<g>
				<path class="st10" d="M289.96,152.44c5.8,0.21,45.25-1.43,50.31,8.68c5.31,10.62-23.63,55.88-33.5,68.42
					c-0.77,2.12-2.24,5.17-5.21,7.43c-3.39,2.57-5.48,1.64-9.48,3.79c-6.75,3.64-7.35,10.06-9.92,9.17
					c-1.76-0.61-1.57-4.37-0.51-7.75c1.09-3.47,3.26-5.26,2.84-5.69c-0.45-0.47-2.42,1.63-5.1,4.01c-1.25,1.11-2.8,6.26-5.33,5.78
					c-2.02-0.38-1.75-6.14,1.1-10.29c2.01-2.93,5.35-3.83,5.06-4.41c-0.22-0.44-2.19,0.14-3.75,1.15c-2.56,1.66-4.21,6.92-6.53,6.43
					c-2.27-0.47-1.95-5.5,0.43-9.48c2-3.36,5.77-4.17,5.42-4.9c-0.25-0.51-2.01-0.5-5.53,0.63c-2.94,0.94-8.04,4.66-9.48,1.74
					c-1.21-2.46,4.05-6.5,9.59-9.32c3.67-1.87,7.61-3.33,9.84-4.27c-1.09-0.69-2.81-1.67-5.06-2.53c-4.01-1.53-5.64-1.56-5.95-3.47
					c-0.31-1.97,3.02-2.76,6.91-2.65c4.64,0.14,7.9,2.08,9.94,2.8c4.06-7.37,8.11-14.75,12.17-22.12c-2.21,0.16-5.55,0.28-7.77,0.44
					C290.36,175.52,289.95,164.66,289.96,152.44z"/>
				<path class="st3" d="M298.28,185.75c-0.06,0-0.11-0.01-0.16-0.04c-0.17-0.09-0.24-0.3-0.15-0.48l8.42-16
					c0.09-0.17,0.3-0.24,0.48-0.15c0.17,0.09,0.24,0.3,0.15,0.48l-8.42,16C298.53,185.68,298.41,185.75,298.28,185.75z"/>
			</g>
			<g>
				<polygon class="st2" points="307.82,218.82 229.05,231.39 223.35,194.56 302.13,181.98 				"/>
				<g>
					<polygon class="st6" points="303.13,181.91 224.35,194.48 222.25,180.92 301.03,168.34 					"/>
					<polygon class="st1" points="225.49,194.18 235.95,192.51 240.88,178.21 230.43,179.87 					"/>
					<polygon class="st1" points="246.26,190.87 256.72,189.2 261.66,174.89 251.2,176.56 					"/>
					<polygon class="st1" points="266.54,187.63 277,185.96 281.94,171.65 271.48,173.32 					"/>
					<polygon class="st1" points="300.6,168.67 292.42,169.98 287.48,184.29 297.94,182.62 301.1,171.9 					"/>
					<path class="st11" d="M224.35,194.83c-0.07,0-0.15-0.02-0.21-0.07c-0.08-0.06-0.13-0.14-0.14-0.23l-2.1-13.56
						c-0.03-0.19,0.1-0.37,0.29-0.4L300.97,168c0.09-0.01,0.19,0.01,0.26,0.06c0.08,0.06,0.13,0.14,0.14,0.23l2.1,13.56
						c0.03,0.19-0.1,0.37-0.29,0.4l-78.77,12.57C224.39,194.83,224.37,194.83,224.35,194.83z M222.66,181.21l1.99,12.86l78.08-12.46
						l-1.99-12.86L222.66,181.21z"/>
				</g>
				<g>
					<polygon class="st6" points="297.65,156.88 221.52,180.98 217.5,167.87 293.63,143.77 					"/>
					<polygon class="st1" points="222.61,180.51 232.71,177.31 235.46,162.18 225.36,165.37 					"/>
					<polygon class="st1" points="242.68,174.16 252.78,170.96 255.54,155.82 245.43,159.02 					"/>
					<polygon class="st1" points="262.28,167.96 272.38,164.76 275.14,149.62 265.03,152.82 					"/>
					<polygon class="st1" points="293.52,143.8 285.27,146.41 282.52,161.55 292.62,158.35 294.55,147.17 					"/>
					<path class="st11" d="M221.52,181.33c-0.06,0-0.11-0.01-0.16-0.04c-0.08-0.04-0.15-0.12-0.17-0.21l-4.02-13.11
						c-0.06-0.19,0.05-0.38,0.23-0.44l76.13-24.1c0.09-0.03,0.19-0.02,0.27,0.02c0.08,0.04,0.15,0.12,0.17,0.21l4.02,13.11
						c0.06,0.19-0.05,0.38-0.23,0.44l-76.13,24.1C221.59,181.32,221.55,181.33,221.52,181.33z M217.94,168.1l3.81,12.43l75.46-23.88
						l-3.81-12.43L217.94,168.1z"/>
				</g>
				<path class="st11" d="M230.09,231.45c-0.07,0-0.15-0.02-0.21-0.07c-0.08-0.06-0.13-0.14-0.14-0.23l-5.7-36.83
					c-0.03-0.19,0.1-0.37,0.29-0.4c0.2-0.03,0.37,0.1,0.4,0.29l5.64,36.48l78.08-12.46l-5.64-36.49c-0.03-0.19,0.1-0.37,0.29-0.4
					c0.19-0.03,0.37,0.1,0.4,0.29l5.7,36.83c0.03,0.19-0.1,0.37-0.29,0.4l-78.77,12.57C230.13,231.45,230.11,231.45,230.09,231.45z"
					/>
				<polygon class="st11" points="226.32,187.62 230.09,187.02 227.83,172.44 224.07,173.04 				"/>
			</g>
			<g>
				<path class="st10" d="M144.56,201.99c7.39,19.66,67.23,6.93,82.86,3.72c2.24,0.26,5.63,0.31,8.98-1.34
					c3.82-1.88,3.92-4.17,7.64-6.78c6.27-4.41,12.28-2.07,12.64-4.76c0.24-1.85-3.2-3.36-6.7-3.93c-3.59-0.58-6.16,0.56-6.36,0
					c-0.22-0.62,2.54-1.43,5.87-2.77c1.55-0.62,6.85,0.3,7.56-2.17c0.56-1.97-4.71-4.31-9.69-3.62c-3.53,0.49-5.82,3.07-6.21,2.55
					c-0.29-0.39,1.11-1.9,2.71-2.83c2.63-1.55,8.07-0.66,8.67-2.95c0.59-2.25-4.05-4.21-8.67-3.86c-3.9,0.29-6.32,3.29-6.81,2.65
					c-0.34-0.45,0.46-2.02,3.04-4.66c2.16-2.2,7.77-5.1,5.8-7.7c-1.66-2.19-7.62,0.71-12.63,4.4c-3.32,2.45-6.39,5.31-8.23,6.89
					c-0.13-1.28-0.24-3.26,0-5.65c0.43-4.27,1.14-5.74-0.44-6.87c-1.63-1.16-3.82,1.46-5.46,4.99c-1.96,4.21-1.68,7.99-1.94,10.14
					c-8.41,0.32-46.64,0.8-55.05,1.13C150.85,180.38,140.58,191.4,144.56,201.99z"/>
			</g>
		</g>
		<g>
			<path class="st10" d="M227.87,166.03h-1.24c-4.51,0-8.16-3.65-8.16-8.16v-16.94c0-4.51,3.65-8.16,8.16-8.16h1.24
				c4.51,0,8.16,3.65,8.16,8.16v16.94C236.03,162.38,232.38,166.03,227.87,166.03z"/>
			<path class="st10" d="M228.65,110.43c0.8-0.08,8.45-0.7,13.06,4.53c3.43,3.89,3.84,8.89,3.27,17.38
				c-0.68,10-2.48,15.88-5.36,17.85c-4.55,3.12-18.17-3.86-23.29-12.58c-3.7-6.3-3.28-14.42,0.63-20.65
				C220.85,110.74,228.14,110.48,228.65,110.43z"/>
			<g>
				<path class="st6" d="M246.77,123.78c-0.01,0.07,0.03,0.12,0.02,0.19c0,0,0,0,0,0.01c0.17,0.92,0.36,1.89,0.7,2.77
					c0.15,0.39,0.41,0.61,0.59,0.96c0.13,0.26,0.26,0.5,0.4,0.75c2.21-2.18,3.06-5,3.06-5S249.27,123.14,246.77,123.78z"/>
				<path class="st3" d="M239.4,131.11c0.03,0.04,0.07,0.08,0.1,0.11c0.74,0.08,4.44,0.37,7.45-1.55c0.56-0.36,1.07-0.78,1.52-1.22
					c0.04-0.25,0.06-0.51,0.06-0.78c0-1.55-0.68-2.94-1.76-3.9c-0.93,0.24-1.9,0.62-2.81,1.2
					C240.9,126.93,239.61,130.48,239.4,131.11z"/>
			</g>
			<g>
				<path class="st6" d="M229.24,130.04c-0.02,1.11,0.17,1.95,0.77,2.82c2.63-0.16,4.7-1.19,4.7-1.19s-2.03-2.81-5.21-4.1
					C229.22,128.33,229.25,129.26,229.24,130.04z"/>
				<path class="st3" d="M229.5,127.57c-0.36-0.14-0.72-0.26-1.11-0.36c-3.87-0.97-7.68,0.94-7.68,0.94s2.46,3.49,6.32,4.46
					c1,0.25,1.99,0.31,2.92,0.26C230.77,131.18,230.63,129.14,229.5,127.57z"/>
			</g>
			<path class="st12" d="M216.95,109.64c-2.46-0.2-6.94,1.96-8.66,5.9c-3.64,8.36,2.09,19.97,10.16,27.05
				c0.27-3.25-0.93-12.59,0.61-14.81c1.92-2.75,2.46-5.46,1.62-8.51c10.39,0.9,14.01,0.62,14.17-0.2c0.16-0.85-3.34-2.56-3.34-2.56
				s8.02,3.21,8.66,2.16c0.2-0.33,0.31-1.36-2.82-4.07c6.92,4.62,7.63,4.29,7.94,3.97c0.91-0.96-0.52-6.58-4.53-11.12
				c-2.26-2.56-6.2-4.36-10.63-4.53C222.26,102.66,217.74,107.38,216.95,109.64z"/>
			<g>
				
					<ellipse transform="matrix(0.904 -0.4274 0.4274 0.904 -36.0725 105.0924)" class="st10" cx="216.04" cy="132.89" rx="4.92" ry="5.82"/>
				<path class="st3" d="M214.08,134.83c-0.11,0-0.22-0.05-0.29-0.15c-0.13-0.18-0.24-0.37-0.33-0.57
					c-0.78-1.65-0.26-3.54,1.16-4.21c0.36-0.17,0.74-0.25,1.14-0.24c0.19,0,0.35,0.17,0.35,0.36c0,0.19-0.16,0.35-0.35,0.35
					c-0.02,0-0.03,0-0.05,0c-0.27,0-0.53,0.06-0.78,0.17c-1.07,0.51-1.44,1.97-0.83,3.27c0.08,0.16,0.17,0.32,0.27,0.46
					c0.11,0.16,0.07,0.38-0.09,0.49C214.22,134.81,214.15,134.83,214.08,134.83z"/>
			</g>
			<path class="st3" d="M240.05,136.83c-0.07,0-0.14-0.02-0.2-0.06c-0.16-0.11-0.21-0.33-0.1-0.49c0.26-0.39,0.36-0.75,0.31-1.06
				c-0.06-0.31-0.25-0.49-0.6-0.81c-0.26-0.23-0.58-0.53-0.88-0.95c-0.38-0.54-0.64-1.18-0.77-1.9c-0.03-0.19,0.09-0.38,0.29-0.41
				c0.19-0.03,0.38,0.09,0.41,0.29c0.11,0.62,0.33,1.16,0.65,1.62c0.25,0.36,0.53,0.61,0.77,0.84c0.37,0.34,0.72,0.65,0.82,1.21
				c0.09,0.5-0.05,1.03-0.41,1.58C240.27,136.78,240.16,136.83,240.05,136.83z"/>
			<path class="st3" d="M237.2,141.7c-0.33,0-0.7-0.05-1.08-0.17c-1.31-0.44-1.9-1.51-2.04-1.82c-0.08-0.18-0.01-0.39,0.17-0.47
				c0.18-0.08,0.39-0.01,0.47,0.17c0.12,0.25,0.59,1.11,1.63,1.45c0.93,0.31,1.73,0.02,2.04-0.12c0.18-0.08,0.39,0,0.47,0.17
				c0.08,0.18,0,0.39-0.17,0.47C238.42,141.5,237.88,141.7,237.2,141.7z"/>
			<path class="st3" d="M234.4,151.05c-0.03,0-0.06,0-0.1-0.01c-10.6-2.96-13.3-7.53-13.41-7.73c-0.1-0.17-0.04-0.39,0.13-0.48
				c0.17-0.1,0.39-0.04,0.48,0.13c0.03,0.05,2.71,4.53,12.98,7.4c0.19,0.05,0.3,0.25,0.25,0.43
				C234.69,150.94,234.55,151.05,234.4,151.05z"/>
		</g>
	</g>
	<g>
		<path class="st3" d="M131.75,285.79c-3.93,0-7.12-3.19-7.12-7.12v-2.09h14.25v2.09C138.88,282.61,135.69,285.79,131.75,285.79z"/>
		<path class="st8" d="M151.03,248.64c0-10.9-9.05-19.69-20.04-19.26c-9.8,0.38-17.86,8.23-18.47,18.01
			c-0.48,7.57,3.43,14.28,9.42,17.83l0.35,6.03c0.29,5.02,4.44,8.95,9.47,8.95c5.03,0,9.19-3.92,9.47-8.95l0.35-6.03
			C147.23,261.87,151.03,255.7,151.03,248.64z"/>
		<path class="st3" d="M136.57,274.69c-0.01,0-0.03,0-0.04,0c-0.19-0.02-0.33-0.2-0.31-0.39l2.99-24.45l-3.58,2.03
			c-0.12,0.07-0.28,0.06-0.39-0.03l-3.27-2.49l-3.28,2.62c-0.1,0.08-0.23,0.1-0.35,0.05l-4.04-1.59l3.54,23.82
			c0.03,0.19-0.1,0.37-0.3,0.4c-0.19,0.03-0.37-0.1-0.4-0.3l-3.63-24.42c-0.02-0.12,0.03-0.25,0.13-0.33
			c0.1-0.08,0.23-0.1,0.35-0.05l4.42,1.74l3.33-2.67c0.13-0.1,0.31-0.1,0.43-0.01l3.31,2.51l3.99-2.26
			c0.12-0.07,0.26-0.06,0.37,0.01c0.11,0.07,0.17,0.2,0.15,0.34l-3.07,25.14C136.9,274.56,136.75,274.69,136.57,274.69z"/>
	</g>
</g>
</svg>
