<?xml version="1.0" encoding="utf-8"?>
<!-- Generator: Adobe Illustrator 26.0.1, SVG Export Plug-In . SVG Version: 6.00 Build 0)  -->
<svg version="1.1" id="Layer_1" xmlns="http://www.w3.org/2000/svg" xmlns:xlink="http://www.w3.org/1999/xlink" x="0px" y="0px"
	 viewBox="0 0 394 295" style="enable-background:new 0 0 394 295;" xml:space="preserve">
<style type="text/css">
	.st0{fill:#95A5B7;}
	.st1{fill:#D8DEE8;}
	.st2{fill:url(#SVGID_1_);}
	.st3{fill:url(#SVGID_00000013910411854023383180000009696353065796529284_);}
	.st4{fill:url(#SVGID_00000150803257821620783640000009615896042779575711_);}
	.st5{fill:url(#SVGID_00000068677868753046836340000002725000284619566235_);}
	.st6{fill:url(#SVGID_00000053532068577271409880000015911145783864552107_);}
	.st7{fill:#FFFFFF;}
	.st8{fill:url(#SVGID_00000009581728762754793760000013422506371913277847_);}
	.st9{fill:url(#SVGID_00000122694251097076554300000008639252587802022561_);}
	.st10{opacity:0.68;}
	.st11{opacity:0.68;fill:#FFFFFF;enable-background:new    ;}
	.st12{fill:url(#SVGID_00000041274169025669453090000008376944232116881077_);}
	.st13{fill:url(#SVGID_00000049222845408351840690000009408935785629430441_);}
	.st14{fill:url(#SVGID_00000080167223166548745780000003654748809183457934_);}
	.st15{fill:url(#SVGID_00000016759166228357702750000002313566572892401549_);}
	.st16{fill:url(#SVGID_00000007387324121390560290000003732292362391793048_);}
	.st17{fill:url(#SVGID_00000139982946172081466630000013499639870178768553_);}
	.st18{opacity:0.3;}
	.st19{fill:url(#SVGID_00000096033077744480838950000013041878704285215167_);}
	.st20{fill:url(#SVGID_00000013164391309203138860000015581208252073286560_);}
	.st21{fill:url(#SVGID_00000124867953699528509940000012947430155041703087_);}
	.st22{fill:url(#SVGID_00000106117551999020191140000017742949009413261974_);}
	.st23{fill:url(#SVGID_00000128451588979585097700000009436692509706539146_);}
	.st24{fill:url(#SVGID_00000166642245271093782990000016143530321054593156_);}
	.st25{opacity:0.3;fill:url(#SVGID_00000137848062874205076000000016779423562188260994_);enable-background:new    ;}
	.st26{fill:url(#SVGID_00000108301744097652710530000017031273852955756690_);}
	.st27{fill:url(#SVGID_00000026161259644663357960000002087822984941262014_);}
	.st28{fill:url(#SVGID_00000130627387242176752550000002537612790812509058_);}
	.st29{fill:url(#SVGID_00000163780954996717637400000002076102206003395497_);}
	.st30{fill:url(#SVGID_00000087378318953769467740000008653870950885220246_);}
	.st31{fill:url(#SVGID_00000048491102138888763010000009632838987302981311_);}
	.st32{opacity:0.3;fill:url(#SVGID_00000052069921693136760050000007751315090660945329_);enable-background:new    ;}
	.st33{fill:url(#SVGID_00000016791435383171763770000005390494593689344161_);}
	.st34{clip-path:url(#SVGID_00000118367374279477840340000000298343402718741695_);}
	.st35{opacity:0.5;}
	.st36{fill:url(#SVGID_00000173855417144532121870000001061456093102757287_);}
	.st37{clip-path:url(#SVGID_00000072267891769912751420000018437884121078318232_);}
	.st38{fill:url(#SVGID_00000058554952586935391190000000850095564911005103_);}
	.st39{fill:url(#SVGID_00000052817497945873814180000003468722630244165762_);}
	.st40{fill:url(#SVGID_00000008109051541264604140000003469459908595639463_);}
	.st41{fill:url(#SVGID_00000137120255108848314730000003524118794318800256_);}
	.st42{fill:url(#SVGID_00000023992241413066806030000008378755037161617316_);}
	.st43{fill:url(#SVGID_00000101805359122095374180000012656911041214254217_);}
	.st44{fill:url(#SVGID_00000129167449751281503700000007762758715146377895_);}
	.st45{fill:url(#SVGID_00000168798383028858083930000010149287542603565222_);}
	.st46{opacity:0.48;}
</style>
<g>
	<g id="Layer_1_00000023998853357186219960000015266660511365773724_">
		<path class="st0" d="M228.08,72.89h-8.83c-0.6-5.73-1.98-11.35-4.1-16.7l7.47-4.33c2.08-1.24,2.77-3.91,1.56-6L221,40.27
			c-1.12-2.09-3.72-2.89-5.82-1.77c-0.02,0.01-0.03,0.02-0.05,0.03l-7.38,4.19c-3.45-4.83-7.54-9.16-12.17-12.88l4.24-7.28
			c1.21-2.15,0.5-4.87-1.61-6.16l-5.65-3.5c-2.02-1.31-4.72-0.74-6.03,1.28c-0.03,0.04-0.05,0.08-0.08,0.13l-4.25,7.21
			c-5.58-2.6-11.5-4.41-17.59-5.37V7.6c-0.04-2.56-2.06-4.64-4.61-4.78l-6.88-0.31c-2.44-0.16-4.54,1.68-4.7,4.12
			c-0.01,0.09-0.01,0.19-0.01,0.28v8.65c-6.31,0.52-12.51,1.94-18.41,4.21l-4.59-7.82c-1.36-2.32-4.28-3.19-6.69-2l-6.29,3.22
			c-2.23,1.11-3.13,3.82-2.01,6.05c0.06,0.12,0.12,0.24,0.19,0.35l4.76,8c-5.2,3.67-9.85,8.07-13.8,13.07L93,35.8
			c-2.39-1.41-5.46-0.7-7,1.6l-3.78,6.06c-1.34,2.22-0.63,5.1,1.58,6.44c0.1,0.06,0.2,0.12,0.31,0.17L93,55.02
			c-2.5,5.77-4.14,11.89-4.86,18.14H77.46c-2.77-0.08-5.1,2.09-5.21,4.86v7.13c0.12,2.76,2.45,4.9,5.21,4.78l11-0.13
			c0.9,6.11,2.71,12.05,5.35,17.63l-9.71,5.49c-2.32,1.2-3.24,4.05-2.04,6.37c0.05,0.09,0.1,0.18,0.15,0.27l3.78,6
			c1.56,2.29,4.64,2.95,7,1.51l9.78-5.67c3.92,4.63,8.46,8.68,13.5,12.06l-5.66,9.56c-1.3,2.1-0.66,4.85,1.44,6.16
			c0.12,0.08,0.25,0.15,0.38,0.21l6.29,3.13c2.43,1.15,5.33,0.25,6.69-2.07l5.59-9.61c5.62,1.98,11.48,3.19,17.42,3.61v10.71
			c0,2.4,1.94,4.35,4.35,4.35c0.12,0,0.24,0,0.36-0.01l6.88-0.41c2.56-0.18,4.57-2.28,4.64-4.85v-10.58
			c5.75-0.98,11.35-2.72,16.65-5.15l5.19,8.73c1.26,2.03,3.93,2.66,5.96,1.41c0.05-0.03,0.1-0.06,0.15-0.1l5.65-3.58
			c2.1-1.3,2.81-4.01,1.61-6.17l-5-8.58c4.49-3.56,8.5-7.68,11.94-12.26l8.4,4.64c2.11,1.12,4.73,0.32,5.86-1.79
			c0-0.01,0.01-0.02,0.01-0.03l3.14-5.69c1.19-2.07,0.49-4.72-1.56-5.94l-8.13-4.6c2.22-5.24,3.73-10.74,4.48-16.38l9.07-0.11
			c2.38-0.07,4.26-2.03,4.23-4.41v-6.4C232.34,74.88,230.45,72.93,228.08,72.89C228.08,72.89,228.08,72.89,228.08,72.89z
			 M156.58,125.6c-26.14,1-48-19.32-48-45.34s21.87-46.58,48-45.94c25.24,0.61,45.09,20.91,45.09,45.35S181.82,124.66,156.58,125.6z
			"/>
		<polygon class="st0" points="127.34,9.63 121.05,9.41 118.88,15.05 		"/>
		<polygon class="st0" points="189.71,12.23 196.97,12.3 196.97,17.66 		"/>
		<polygon class="st0" points="217.35,38.04 224.59,38.33 222.78,42.38 		"/>
		<polygon class="st0" points="228.71,72.97 236.01,73.55 233.62,77.09 		"/>
		<polygon class="st0" points="216.56,123.07 223.65,124.08 224.51,118.3 		"/>
		<polygon class="st0" points="189.45,149.17 195.81,150.33 196.31,145.63 		"/>
		<polygon class="st0" points="157.63,160.45 151.92,159.44 156.84,152.14 		"/>
		<polygon class="st0" points="126.69,154.31 120.04,152.93 125.17,146.72 		"/>
		<polygon class="st0" points="89.31,35.15 96.25,35.37 93.5,40.43 		"/>
		<polygon class="st0" points="75.5,89.6 81.86,90.54 81.36,85.33 		"/>
		<polygon class="st0" points="89.16,127.7 95.38,128.71 95.89,124.59 		"/>
		<path class="st1" d="M235.21,73.47h-8.9c-0.6-5.77-1.99-11.43-4.13-16.83l7.53-4.36c2.06-1.25,2.75-3.9,1.57-6l-3.16-5.69
			c-1.14-2.12-3.78-2.91-5.89-1.77c-0.01,0.01-0.03,0.01-0.04,0.02l-7.43,4.18c-3.48-4.88-7.6-9.25-12.27-13l4.28-7.35
			c1.21-2.17,0.49-4.9-1.63-6.2l-5.7-3.45c-2.03-1.33-4.75-0.75-6.08,1.28c-0.03,0.04-0.06,0.09-0.08,0.13L189,21.67
			c-5.63-2.62-11.6-4.43-17.74-5.4V7.64c-0.04-2.59-2.09-4.7-4.68-4.82l-6.93-0.31c-2.46-0.17-4.58,1.69-4.75,4.15
			c-0.01,0.1-0.01,0.19-0.01,0.29v8.71c-6.36,0.53-12.61,1.96-18.57,4.25l-4.63-7.89c-1.38-2.33-4.32-3.2-6.75-2l-6.33,3.25
			c-2.25,1.13-3.16,3.86-2.03,6.11c0.06,0.12,0.12,0.23,0.19,0.34l4.8,8.06c-5.25,3.72-9.94,8.18-13.91,13.24L99,36.07
			c-2.4-1.38-5.45-0.67-7,1.62l-3.81,6.1c-1.37,2.22-0.69,5.14,1.53,6.51c0.09,0.06,0.18,0.11,0.28,0.16l9,5
			c-2.53,5.82-4.18,11.98-4.9,18.29H83.34c-2.8-0.09-5.15,2.1-5.25,4.9v7.17c0.09,2.76,2.4,4.92,5.16,4.83c0.03,0,0.06,0,0.09,0
			l11.05-0.14c0.91,6.16,2.73,12.15,5.39,17.78L90,113.82c-2.34,1.21-3.26,4.08-2.05,6.43c0.05,0.09,0.1,0.18,0.15,0.27l3.81,6
			c1.57,2.27,4.63,2.93,7,1.51l9.86-5.72c3.95,4.67,8.53,8.77,13.61,12.17l-5.69,9.64c-1.32,2.11-0.67,4.9,1.45,6.21
			c0.13,0.08,0.26,0.15,0.39,0.22l6.33,3.16c2.45,1.15,5.38,0.24,6.75-2.1l5.64-9.68c5.66,1.99,11.57,3.22,17.56,3.64v10.79
			c0,2.42,1.96,4.39,4.38,4.4c0.13,0,0.25-0.01,0.38-0.02l6.93-0.42c2.59-0.17,4.62-2.29,4.68-4.88v-10.63
			c5.8-0.99,11.44-2.74,16.79-5.19l5.23,8.8c1.26,2.05,3.95,2.69,6,1.42c0.05-0.03,0.11-0.07,0.16-0.1l5.7-3.61
			c2.12-1.31,2.83-4.04,1.63-6.22l-5.08-8.65c4.52-3.59,8.55-7.74,12-12.36l8.47,4.68c2.14,1.13,4.8,0.31,5.93-1.83l3.16-5.74
			c1.21-2.09,0.51-4.77-1.57-6l-8.2-4.64c2.26-5.27,3.79-10.83,4.56-16.51l9.14-0.11c2.4-0.07,4.3-2.05,4.27-4.45v-6.44
			C239.41,75.51,237.56,73.56,235.21,73.47z M163.12,126.6c-26.35,1-48.4-19.47-48.4-45.7s22.05-47,48.4-46.32
			c25.45,0.62,45.46,21.08,45.46,45.72S188.57,125.66,163.12,126.6L163.12,126.6z"/>
		<path class="st0" d="M318.15,73.53l-4.75-0.89c0.26-3.14,0.08-6.3-0.52-9.39l4.45-1.57c1.23-0.46,1.87-1.82,1.44-3.06l-1.11-3.35
			c-0.4-1.25-1.73-1.94-2.98-1.54c-0.01,0-0.01,0-0.02,0.01l-4.39,1.51c-1.37-2.95-3.15-5.69-5.27-8.15l3-3.49
			c0.86-1.04,0.75-2.57-0.25-3.48l-2.68-2.45c-0.95-0.91-2.46-0.88-3.37,0.07c-0.02,0.02-0.04,0.05-0.06,0.07l-3,3.45
			c-2.74-1.96-5.74-3.53-8.92-4.66l0.87-4.6c0.21-1.37-0.66-2.67-2-3l-3.59-0.9c-1.29-0.34-2.62,0.43-2.96,1.72
			c-0.02,0.06-0.03,0.13-0.04,0.19l-0.87,4.65c-3.45-0.35-6.93-0.22-10.34,0.4l-1.67-4.67c-0.51-1.38-1.99-2.13-3.4-1.74L262,29.74
			c-1.31,0.36-2.08,1.73-1.72,3.04c0.02,0.08,0.05,0.16,0.08,0.24l1.75,4.78c-3.17,1.45-6.11,3.35-8.74,5.64l-4.14-3.48
			c-1.14-0.99-2.85-0.92-3.91,0.15l-2.65,2.91c-0.94,1.05-0.85,2.67,0.2,3.61c0.05,0.04,0.1,0.09,0.15,0.13l4.29,3.55
			c-1.93,2.85-3.43,5.98-4.45,9.27l-5.74-1.07c-1.48-0.32-2.95,0.61-3.29,2.09l-0.72,3.83c-0.22,1.49,0.8,2.87,2.28,3.09
			c0.01,0,0.02,0,0.04,0.01l5.9,1c-0.12,3.37,0.25,6.74,1.1,10l-5.76,2c-1.37,0.42-2.14,1.87-1.72,3.24
			c0.01,0.04,0.03,0.09,0.05,0.13l1.43,3.6c0.6,1.37,2.17,2.03,3.57,1.52l5.83-2.06c1.63,2.88,3.65,5.52,6,7.85l-4,4.57
			c-0.91,1-0.84,2.55,0.16,3.46c0.06,0.05,0.12,0.1,0.18,0.15l3.06,2.32c1.19,0.86,2.85,0.67,3.81-0.44l4-4.6
			c2.82,1.63,5.85,2.88,9,3.7l-1.04,5.76c-0.24,1.29,0.61,2.54,1.9,2.78c0.07,0.01,0.14,0.02,0.2,0.03l3.74,0.47
			c1.41,0.19,2.72-0.75,3-2.14l1.07-5.69c3.19,0.05,6.38-0.32,9.48-1.09l1.91,5.22c0.47,1.22,1.83,1.83,3.05,1.36
			c0.03-0.01,0.07-0.03,0.1-0.04l3.4-1.35c1.26-0.49,1.92-1.88,1.49-3.16l-1.86-5.1c2.77-1.46,5.35-3.27,7.66-5.39l4,3.35
			c1.03,0.81,2.53,0.64,3.35-0.39l2.26-2.74c0.85-1,0.74-2.49-0.24-3.36l-3.91-3.29c1.73-2.59,3.11-5.4,4.09-8.35l4.89,0.85
			c1.28,0.2,2.49-0.66,2.72-1.94l0.64-3.45c0.28-1.26-0.52-2.5-1.77-2.78C318.16,73.53,318.15,73.53,318.15,73.53z M274.37,94.65
			c-13.68-1.86-23.26-14.46-21.4-28.14c0.05-0.36,0.11-0.73,0.17-1.09c2.62-14,16.46-22.84,30.45-19.86
			c13.32,2.71,22.05,15.55,19.67,28.94C300.59,87.88,287.84,96.77,274.37,94.65z"/>
		<polygon class="st0" points="270.36,29.33 267,28.58 265.26,31.39 		"/>
		<polygon class="st0" points="303.64,37.03 307.54,37.8 306.99,40.67 		"/>
		<polygon class="st0" points="315.9,53.7 319.76,54.59 318.38,56.58 		"/>
		<polygon class="st0" points="318.48,73.63 322.35,74.67 320.71,76.34 		"/>
		<polygon class="st0" points="306.89,99.35 310.6,100.61 311.65,97.58 		"/>
		<polygon class="st0" points="289.67,110.65 292.98,111.91 293.72,109.43 		"/>
		<polygon class="st0" points="271.42,113.5 268.46,112.38 271.84,108.95 		"/>
		<polygon class="st0" points="255.4,107.07 251.96,105.66 255.35,102.83 		"/>
		<polygon class="st0" points="247.33,39.22 251.04,40.03 249.05,42.48 		"/>
		<polygon class="st0" points="234.41,67.1 237.73,68.25 237.99,65.4 		"/>
		<polygon class="st0" points="237.91,88.97 241.15,90.14 241.84,87.98 		"/>
		<path class="st1" d="M321.93,74.55l-4.79-0.89c0.26-3.17,0.08-6.35-0.53-9.47l4.49-1.58c1.24-0.46,1.89-1.83,1.46-3.08l-1.13-3.38
			c-0.4-1.25-1.74-1.94-2.99-1.54c0,0-0.01,0-0.01,0L314,56.13c-1.38-2.97-3.16-5.74-5.29-8.22l3-3.52c0.88-1.04,0.77-2.59-0.25-3.5
			l-2.7-2.47c-0.96-0.92-2.48-0.89-3.39,0.07c-0.02,0.02-0.04,0.05-0.07,0.07l-3,3.47c-2.77-1.98-5.8-3.56-9-4.7l0.87-4.63
			c0.24-1.39-0.63-2.73-2-3.07l-3.7-0.87c-1.31-0.33-2.63,0.46-2.97,1.76c-0.01,0.05-0.02,0.1-0.03,0.15l-0.88,4.69
			c-3.48-0.36-6.98-0.22-10.42,0.41l-1.71-4.75c-0.53-1.39-2.03-2.14-3.46-1.72l-3.74,1.11c-1.32,0.38-2.08,1.76-1.7,3.08
			c0.02,0.07,0.04,0.14,0.07,0.21l1.76,4.82c-3.19,1.46-6.16,3.37-8.81,5.68l-4.17-3.51c-1.15-1-2.88-0.93-3.95,0.16l-2.66,2.9
			c-0.95,1.06-0.86,2.69,0.2,3.64c0.05,0.04,0.1,0.09,0.15,0.13l4.32,3.58c-1.95,2.87-3.45,6.02-4.47,9.34l-5.79-1.08
			c-1.5-0.33-2.98,0.61-3.32,2.11l-0.73,3.86c-0.23,1.5,0.8,2.89,2.29,3.12c0.02,0,0.03,0,0.05,0.01l6,1
			c-0.14,3.41,0.23,6.81,1.1,10.11l-5.8,2c-1.38,0.41-2.17,1.87-1.75,3.25c0.02,0.05,0.03,0.11,0.05,0.16l1.44,3.64
			c0.61,1.39,2.21,2.06,3.63,1.52l5.83-2.05c1.66,2.92,3.72,5.58,6.12,7.93l-4,4.61c-0.92,1.01-0.85,2.57,0.16,3.49
			c0.06,0.05,0.12,0.1,0.18,0.15l3.09,2.34c1.2,0.87,2.87,0.68,3.84-0.44l4-4.64c2.85,1.64,5.9,2.89,9.08,3.73l-1.09,5.8
			c-0.25,1.3,0.6,2.55,1.9,2.8c0.07,0.01,0.14,0.02,0.21,0.03l3.77,0.48c1.41,0.17,2.71-0.76,3-2.15l1.08-5.75
			c3.22,0.06,6.43-0.31,9.55-1.09l1.93,5.26c0.48,1.23,1.86,1.84,3.09,1.37c0.03-0.01,0.06-0.02,0.09-0.04l3.43-1.36
			c1.27-0.49,1.93-1.9,1.5-3.19l-1.86-5.16c2.8-1.47,5.39-3.3,7.72-5.43l4.09,3.37c1.04,0.82,2.55,0.65,3.37-0.39l2.27-2.79
			c0.85-1.01,0.74-2.51-0.24-3.39l-3.94-3.31c1.74-2.61,3.13-5.45,4.11-8.43l4.93,0.87c1.31,0.2,2.54-0.69,2.75-2l0.65-3.48
			C324,76.02,323.18,74.81,321.93,74.55z M277.79,95.85c-13.8-1.88-23.46-14.6-21.58-28.4c0.05-0.36,0.11-0.72,0.17-1.07
			c2.64-14.1,16.6-23,30.7-20c13.43,2.73,22.24,15.68,19.84,29.18C304.21,89.03,291.37,97.98,277.79,95.85L277.79,95.85z"/>
		
			<linearGradient id="SVGID_1_" gradientUnits="userSpaceOnUse" x1="136.919" y1="141.3048" x2="182.229" y2="146.0348" gradientTransform="matrix(1 0 0 -1 -50.06 292.52)">
			<stop  offset="0" style="stop-color:#27274F"/>
			<stop  offset="1" style="stop-color:#464D8E"/>
		</linearGradient>
		<path class="st2" d="M68.19,245.42c-5.41,0.32-9.84-3.46-9.84-8.43V57.91c0-5,4.43-8.85,9.84-8.65l255.5,9.27
			c4.26,0.27,7.56,3.83,7.5,8.1v155.6c0.03,4.29-3.23,7.89-7.5,8.27L68.19,245.42z"/>
		
			<linearGradient id="SVGID_00000163754648979569076450000001870335662445874574_" gradientUnits="userSpaceOnUse" x1="233.5306" y1="2.8538" x2="243.1306" y2="16.6038" gradientTransform="matrix(1 0 0 -1 -50.06 292.52)">
			<stop  offset="0" style="stop-color:#464D8E"/>
			<stop  offset="1" style="stop-color:#27274F"/>
		</linearGradient>
		<path style="fill:url(#SVGID_00000163754648979569076450000001870335662445874574_);" d="M234.77,265.25
			c-4.17-1.53-7.22-5.16-8-9.53l-5.94-30.87l-50.83,1.9l-6.25,32.15c-0.88,4.51,2.63,9,6.67,10.68l21.27,8.73
			c3.93,1.63,8.2,2.28,12.44,1.9l44.95-4c1.35-0.16,2.41-1.24,2.53-2.59c0.15-1.39,1.07-2.95-0.18-3.39L234.77,265.25z"/>
		
			<linearGradient id="SVGID_00000133528754984589085940000017817903120138084769_" gradientUnits="userSpaceOnUse" x1="262.5761" y1="6.3997" x2="247.8862" y2="86.1597" gradientTransform="matrix(1 0 0 -1 -50.06 292.52)">
			<stop  offset="0" style="stop-color:#464D8E"/>
			<stop  offset="1" style="stop-color:#27274F"/>
		</linearGradient>
		<path style="fill:url(#SVGID_00000133528754984589085940000017817903120138084769_);" d="M235.27,263.37
			c-4.16-1.48-7.2-5.07-8-9.41l-5.93-30.48l-49.61,1.88l-6.25,31.75c-0.91,4.38,1.4,8.79,5.52,10.54l21.25,8.62
			c3.93,1.61,8.19,2.25,12.42,1.87l44.91-4c1.34-0.14,2.4-1.21,2.52-2.56c0.17-1.35-0.62-2.63-1.89-3.1L235.27,263.37z"/>
		
			<linearGradient id="SVGID_00000121270481204017532990000002997932896543202970_" gradientUnits="userSpaceOnUse" x1="298.8141" y1="226.5653" x2="372.3441" y2="331.5053" gradientTransform="matrix(1 0 0 -1 -50.06 292.52)">
			<stop  offset="0" style="stop-color:#464D8E"/>
			<stop  offset="1" style="stop-color:#27274F"/>
		</linearGradient>
		<path style="fill:url(#SVGID_00000121270481204017532990000002997932896543202970_);" d="M70.22,245.42
			c-5.42,0.32-9.84-3.46-9.84-8.43V57.91c0-5,4.42-8.85,9.84-8.65l255.5,9.27c4.26,0.27,7.55,3.83,7.49,8.1v155.6
			c0.04,4.29-3.22,7.88-7.49,8.27L70.22,245.42z"/>
		
			<linearGradient id="SVGID_00000145749805974741359370000011289357923605920908_" gradientUnits="userSpaceOnUse" x1="266.9213" y1="214.0954" x2="174.9513" y2="-78.0046" gradientTransform="matrix(1 0 0 -1 -50.06 292.52)">
			<stop  offset="0" style="stop-color:#464D8E"/>
			<stop  offset="1" style="stop-color:#27274F"/>
		</linearGradient>
		<path style="fill:url(#SVGID_00000145749805974741359370000011289357923605920908_);" d="M325.72,62.19l-255.5-8.76
			c-2.66-0.21-5,1.77-5.21,4.44c0,0.05-0.01,0.1-0.01,0.15v178.72c0.1,2.6,2.29,4.64,4.9,4.54c0.12,0,0.24-0.01,0.35-0.03
			l255.5-14.41c2.28-0.21,4.02-2.13,4-4.42V66.52C329.79,64.23,328.01,62.32,325.72,62.19z"/>
		<path class="st7" d="M70.22,226.02c-1.02,0.08-1.92-0.69-2-1.71c0-0.02,0-0.04,0-0.06V58.16c0.05-1.05,0.94-1.86,1.99-1.81
			c0,0,0.01,0,0.01,0l255.5,8.4c0.89,0.06,1.58,0.8,1.57,1.69v145.33c0.01,0.9-0.68,1.65-1.57,1.72L70.22,226.02z"/>
		
			<linearGradient id="SVGID_00000023267537513039374550000003904188594332598443_" gradientUnits="userSpaceOnUse" x1="221.8091" y1="198.7188" x2="135.5891" y2="20.9287" gradientTransform="matrix(1 0 0 -1 0 295)">
			<stop  offset="0" style="stop-color:#D091C0"/>
			<stop  offset="1" style="stop-color:#8173B5"/>
		</linearGradient>
		<polygon style="fill:url(#SVGID_00000023267537513039374550000003904188594332598443_);" points="317.02,204.53 81.43,214.88 
			81.43,81.17 317.02,86.12 		"/>
		
			<linearGradient id="SVGID_00000117663335126232742160000006282927451454813094_" gradientUnits="userSpaceOnUse" x1="199.0409" y1="219.8483" x2="193.9509" y2="177.7383" gradientTransform="matrix(1 0 0 -1 0 295)">
			<stop  offset="0" style="stop-color:#F59087"/>
			<stop  offset="1" style="stop-color:#EB73AC"/>
		</linearGradient>
		<polygon style="fill:url(#SVGID_00000117663335126232742160000006282927451454813094_);" points="317.02,82.07 81.43,76.61 
			81.43,65.19 317.02,71.96 		"/>
		<path class="st7" d="M299.12,76.56c0.01,0.69-0.54,1.26-1.23,1.27c-0.01,0-0.03,0-0.04,0c-0.71-0.03-1.28-0.62-1.27-1.34
			c-0.01-0.7,0.54-1.27,1.24-1.28c0.01,0,0.02,0,0.03,0C298.57,75.25,299.13,75.84,299.12,76.56z"/>
		<path class="st7" d="M304.34,76.69c0.01,0.69-0.54,1.26-1.23,1.27c-0.01,0-0.03,0-0.04,0c-0.71-0.03-1.27-0.62-1.26-1.33
			c-0.02-0.69,0.53-1.26,1.22-1.28c0.01,0,0.03,0,0.04,0C303.78,75.38,304.35,75.98,304.34,76.69z"/>
		<path class="st7" d="M309.52,76.83c0.02,0.68-0.52,1.24-1.2,1.26c-0.02,0-0.03,0-0.05,0c-0.72-0.02-1.28-0.61-1.27-1.33
			c-0.02-0.68,0.52-1.25,1.21-1.27c0.02,0,0.03,0,0.05,0C308.97,75.52,309.53,76.12,309.52,76.83z"/>
		<g class="st10">
			<polygon class="st7" points="269.34,183.19 86.57,188.93 86.57,84.65 269.34,88.18 			"/>
		</g>
		<polygon class="st11" points="314.5,115.8 272.53,115.61 272.53,88.25 314.5,89.06 		"/>
		<polygon class="st7" points="314.5,120.7 272.53,120.62 272.53,118.57 314.5,118.7 		"/>
		<polygon class="st7" points="298.89,124.16 272.53,124.16 272.53,122.11 298.89,122.14 		"/>
		<polygon class="st11" points="314.5,155.04 272.53,155.74 272.53,128.38 314.5,128.29 		"/>
		<polygon class="st7" points="314.5,159.94 272.53,160.75 272.53,158.71 314.5,157.94 		"/>
		<polygon class="st7" points="298.89,163.73 272.53,164.29 272.53,162.25 298.89,161.71 		"/>
		<polygon class="st11" points="314.5,194.28 272.53,195.88 272.53,168.52 314.5,167.53 		"/>
		<polygon class="st7" points="314.5,199.17 272.53,200.89 272.53,198.84 314.5,197.17 		"/>
		<polygon class="st7" points="298.89,203.3 272.53,204.43 272.53,202.38 298.89,201.28 		"/>
		<polygon class="st7" points="213.05,195.99 86.57,200.68 86.57,193.82 213.05,189.55 		"/>
		<polygon class="st7" points="269.34,193.9 251.29,194.57 251.29,188.26 269.34,187.65 		"/>
		<polygon class="st7" points="248.5,194.67 230.05,195.35 230.05,188.98 248.5,188.35 		"/>
		<polygon class="st7" points="144.43,206.58 86.57,208.97 86.57,205.54 144.43,203.25 		"/>
		
			<linearGradient id="SVGID_00000098899706182591012250000005622306162474124711_" gradientUnits="userSpaceOnUse" x1="115.4104" y1="168.3285" x2="82.3804" y2="9.9385" gradientTransform="matrix(-1 0 0 -1 392.08 292.52)">
			<stop  offset="0" style="stop-color:#FFC649"/>
			<stop  offset="1" style="stop-color:#F36F56"/>
		</linearGradient>
		<path style="fill:url(#SVGID_00000098899706182591012250000005622306162474124711_);" d="M269.29,169.6
			c-2.87-3.07,5.09-14.6,9.35-19.65c3.72-4.42,7.54-9,12.24-8.38c4.12,0.51,8.13,4.85,8.37,9
			C299.9,161.8,273.38,173.96,269.29,169.6z"/>
		
			<linearGradient id="SVGID_00000132053221068537024970000016376475734934150531_" gradientUnits="userSpaceOnUse" x1="-1147.2495" y1="-15.9667" x2="-1137.3552" y2="-15.9667" gradientTransform="matrix(1 0.03 0.03 -1 1441.5299 308.48)">
			<stop  offset="0" style="stop-color:#464D8E"/>
			<stop  offset="1" style="stop-color:#27274F"/>
		</linearGradient>
		<path style="fill:url(#SVGID_00000132053221068537024970000016376475734934150531_);" d="M303.8,288.02
			c0.54,0.44,0.64,1.54,0.71,2.26c0.03,0.2,0.03,0.39,0,0.59c-0.26,0.83-1.87,0.92-4.38,1.17c-4,0.41-5.15,0.72-5.46,0.13
			s0.41-1.46,0.49-1.56c0.54-0.56,1.24-0.93,2-1.07c1.88-0.61,3.14-0.95,3.53-1.05C303.05,287.89,303.45,287.77,303.8,288.02z"/>
		<path class="st1" d="M301.44,284.43l-0.39,4.53c0.72,0.57,1.69,0.69,2.52,0.31l1-4.45L301.44,284.43z"/>
		
			<linearGradient id="SVGID_00000095327026769168753700000008655351263068626578_" gradientUnits="userSpaceOnUse" x1="-653.6031" y1="-118.4741" x2="-643.1004" y2="-118.4741" gradientTransform="matrix(0.96 0.27 0.27 -0.96 921.47 349.92)">
			<stop  offset="0" style="stop-color:#464D8E"/>
			<stop  offset="1" style="stop-color:#27274F"/>
		</linearGradient>
		<path style="fill:url(#SVGID_00000095327026769168753700000008655351263068626578_);" d="M272.31,287.48
			c0.67,0.74,0.77,1.83,0.24,2.68c-0.56,0.64-1.39,0.16-3.76,0.23c-2.53,0.08-3.19,0.68-4.91,0.2c-0.69-0.19-1.92-0.65-1.9-1.15
			s0.64-0.53,2.73-1.23c1.16-0.47,2.36-0.85,3.58-1.15C269.87,286.8,271.46,286.53,272.31,287.48z"/>
		<path class="st1" d="M270.69,283.35l-1.27,4.22c0.67,0.62,1.64,0.82,2.5,0.51l1.88-4.1L270.69,283.35z"/>
		
			<linearGradient id="SVGID_00000128467924778771924530000001631421703464043184_" gradientUnits="userSpaceOnUse" x1="126.0595" y1="22.2592" x2="98.0295" y2="85.4592" gradientTransform="matrix(-1 0 0 -1 392.08 292.52)">
			<stop  offset="0" style="stop-color:#9682BC"/>
			<stop  offset="1" style="stop-color:#6167AF"/>
		</linearGradient>
		<path style="fill:url(#SVGID_00000128467924778771924530000001631421703464043184_);" d="M282,190.84
			c-0.2,15.89-1.36,31.75-3.47,47.5c-2.08,15.58-5.09,31.02-9,46.24l4.86,1.31c5.52-4.96,9.59-11.31,11.8-18.39
			c1.55-5.3,1-8,2-14.53c1.57-10.36,4.74-15.79,8-24.15c4.15-10.7,6.94-21.87,8.31-33.26L282,190.84z"/>
		
			<linearGradient id="SVGID_00000023261955601224022890000017196005372238924714_" gradientUnits="userSpaceOnUse" x1="-213.6444" y1="-65.2202" x2="-241.6844" y2="-2.0202" gradientTransform="matrix(-0.99 -0.12 0.12 -0.99 76.87 181.9)">
			<stop  offset="0" style="stop-color:#9682BC"/>
			<stop  offset="1" style="stop-color:#6167AF"/>
		</linearGradient>
		<path style="fill:url(#SVGID_00000023261955601224022890000017196005372238924714_);" d="M296.6,189.48
			c0.99,18.06,1.79,36.45,2.42,55.16c0.47,14.05,0.81,27.92,1,41.6l5,0.62c2.27-4.23,4.01-8.72,5.18-13.37
			c1.77-7.09,1.36-11.29,2.13-18.64c0.87-8.23,2.13-10,4.37-20.42c4.54-21.09,6.81-31.63,1.75-38.19
			C316.8,194.11,311.65,188.77,296.6,189.48z"/>
		
			<linearGradient id="SVGID_00000001666014166671438990000006605141237567907489_" gradientUnits="userSpaceOnUse" x1="103.9705" y1="170.7184" x2="70.9405" y2="12.3284" gradientTransform="matrix(-1 0 0 -1 392.08 292.52)">
			<stop  offset="0" style="stop-color:#FFC649"/>
			<stop  offset="1" style="stop-color:#F36F56"/>
		</linearGradient>
		<path style="fill:url(#SVGID_00000001666014166671438990000006605141237567907489_);" d="M320.72,144.1
			c-5.39-1.51-10.92-2.44-16.51-2.76c-9.93-0.56-14.89-0.84-18.4,1.53c-8.12,5.45-1.84,18.05-5.16,49.27
			c-0.47,4.46-0.58,8.95-0.92,13.42c-0.57,7.4-0.7,7.81-0.19,8.56c3.23,4.7,15.28-2.39,32.95,0.41c9.88,1.57,14.36,5.18,17.07,2.58
			c3.15-3,0.45-11.22-1.89-18.26c-2.67-8.09-4.32-8.19-5.84-14.28c-1.59-6.36-0.63-9.63-0.38-19.67
			C321.61,157.96,321.36,151.01,320.72,144.1z"/>
		<g class="st18">
			
				<linearGradient id="SVGID_00000024682399420371575010000006315707651113860254_" gradientUnits="userSpaceOnUse" x1="75.5744" y1="35.2555" x2="88.1144" y2="94.8055" gradientTransform="matrix(-1 0 0 -1 392.08 292.52)">
				<stop  offset="0" style="stop-color:#FFC649"/>
				<stop  offset="1" style="stop-color:#F36F56"/>
			</linearGradient>
			<path style="fill:url(#SVGID_00000024682399420371575010000006315707651113860254_);" d="M296.7,202.72
				c4.62-0.36,7.61,2.25,11.6,0.21c5.46-2.79,7.22-11.46,6.87-17.6c-0.53-9.34-5.86-11.8-4.94-17.83c0.5-3.26,2.83-7.59,11.19-12
				c0.11,3.73,0.09,6.9,0,9.42c-0.25,10-1.21,13.31,0.38,19.67c1.52,6.09,3.17,6.19,5.84,14.28c2.34,7,5,15.22,1.89,18.26
				c-2.71,2.6-7.19-1-17.07-2.58c-15.22-2.42-26.27,2.51-31.1,0.91C287.23,205.79,292.52,203.02,296.7,202.72z"/>
		</g>
		
			<linearGradient id="SVGID_00000112599582759984065670000014256976209139288719_" gradientUnits="userSpaceOnUse" x1="81.3398" y1="175.4386" x2="48.3098" y2="17.0486" gradientTransform="matrix(-1 0 0 -1 392.08 292.52)">
			<stop  offset="0" style="stop-color:#FFC649"/>
			<stop  offset="1" style="stop-color:#F36F56"/>
		</linearGradient>
		<path style="fill:url(#SVGID_00000112599582759984065670000014256976209139288719_);" d="M314.42,144.74
			c3.3-2.71,9.93,0.36,11.7,1.18c9.88,4.57,18.76,16.89,16.56,29.91c-0.33,1.95-1.86,11.08-9.59,15.51c-7,4-16.4,3-23.95-2.69
			l-3.09-2.75l-3.05-3.29c2.39-1.99,5.15-3.51,8.11-4.47c5-1.62,8.68,1.29,11-0.92c1.6-1.53,1.61-4.22,1.21-5.85
			c-0.8-3.29-3.7-4.22-6.12-6.55C311.52,159.33,310.48,148.02,314.42,144.74z"/>
		
			<linearGradient id="SVGID_00000118398196472256796270000017591815151270052258_" gradientUnits="userSpaceOnUse" x1="109.5044" y1="87.0064" x2="104.1544" y2="102.1564" gradientTransform="matrix(-1 0 0 -1 392.08 292.52)">
			<stop  offset="0" style="stop-color:#321944"/>
			<stop  offset="1" style="stop-color:#8B3B78"/>
		</linearGradient>
		<polygon style="fill:url(#SVGID_00000118398196472256796270000017591815151270052258_);" points="267.05,187.24 311.24,186.58 
			299.49,192.25 266.93,190.12 		"/>
		
			<linearGradient id="SVGID_00000104696585412969152700000001782949458327816587_" gradientUnits="userSpaceOnUse" x1="86.1583" y1="108.9596" x2="88.1183" y2="95.4096" gradientTransform="matrix(-1 0 0 -1 392.08 292.52)">
			<stop  offset="0" style="stop-color:#321944"/>
			<stop  offset="1" style="stop-color:#8B3B78"/>
		</linearGradient>
		<path style="fill:url(#SVGID_00000104696585412969152700000001782949458327816587_);" d="M312.79,187.75L312.79,187.75
			c-0.01,0.82-0.52,1.56-1.29,1.85l-14.12,5.54l-0.07-3.84l13.92-4.72c0.65-0.19,1.32,0.18,1.51,0.83
			C312.77,187.52,312.79,187.64,312.79,187.75z"/>
		<path class="st7" d="M306,185.14c0.27-0.06-1.32-3.23-2.57-2.87s-7.37,3.91-7.92,5.37l-0.56,1.46c1.45,0.12,2.91,0,4.32-0.35
			C300.92,188.2,303.78,185.63,306,185.14z"/>
		
			<linearGradient id="SVGID_00000158009198199399033290000006121040139024216451_" gradientUnits="userSpaceOnUse" x1="124.995" y1="107.7718" x2="114.5751" y2="122.5718" gradientTransform="matrix(-1 0 0 -1 392.08 292.52)">
			<stop  offset="0" style="stop-color:#464D8E"/>
			<stop  offset="1" style="stop-color:#27274F"/>
		</linearGradient>
		<path style="fill:url(#SVGID_00000158009198199399033290000006121040139024216451_);" d="M296.14,164.37l3.12,28.37
			c-0.13,1.21-1.05,2.19-2.25,2.39l-45.7-2.81c-0.75-0.04-1.37-0.59-1.5-1.33l-5.74-27.39c-0.17-1,1.63-2,2.64-2l47.88,1.35
			C295.39,162.97,296.05,163.58,296.14,164.37z"/>
		
			<linearGradient id="SVGID_00000087395072248351683740000017014929237288891315_" gradientUnits="userSpaceOnUse" x1="104.9999" y1="83.2787" x2="127.8099" y2="129.6087" gradientTransform="matrix(-1 0 0 -1 392.08 292.52)">
			<stop  offset="0" style="stop-color:#321944"/>
			<stop  offset="1" style="stop-color:#8B3B78"/>
		</linearGradient>
		<path style="fill:url(#SVGID_00000087395072248351683740000017014929237288891315_);" d="M295.1,165.2l3.11,28.36
			c0.09,0.88-0.55,1.68-1.43,1.77c-0.08,0.01-0.16,0.01-0.24,0.01l-46.27-2.19c-0.75-0.04-1.37-0.59-1.5-1.33L244,164.3
			c-0.15-0.87,0.44-1.7,1.31-1.85c0.1-0.02,0.21-0.03,0.31-0.02l47.89,1.34C294.33,163.78,295.01,164.39,295.1,165.2z"/>
		
			<linearGradient id="SVGID_00000074426740700372264670000002240070751133001146_" gradientUnits="userSpaceOnUse" x1="93.8211" y1="112.9577" x2="143.9304" y2="112.9577" gradientTransform="matrix(-1 0 0 -1 392.08 292.52)">
			<stop  offset="0" style="stop-color:#321944"/>
			<stop  offset="1" style="stop-color:#8B3B78"/>
		</linearGradient>
		<path style="opacity:0.3;fill:url(#SVGID_00000074426740700372264670000002240070751133001146_);enable-background:new    ;" d="
			M267.92,186.5c4.05-1.71,2.62-5,7.39-9c6.3-5.37,12.71-3,15-7.2c0.7-1.29,1-3.31-0.19-6.57l3.47,0.09
			c0.8,0.02,1.46,0.63,1.55,1.43l3.11,28.36c0.09,0.88-0.55,1.68-1.43,1.77c-0.08,0.01-0.16,0.01-0.24,0.01l-46.27-2.19
			c-0.75-0.04-1.37-0.59-1.5-1.33l-0.66-3.8c1.56-0.88,3.25-1.52,5-1.89C259.94,184.75,263.27,188.47,267.92,186.5z"/>
		<path class="st1" d="M247.35,189.18c-0.06-0.19,0.05-0.4,0.24-0.46c0.03-0.01,0.06-0.01,0.09-0.02c1-0.05,3.24-0.07,4.5,0.7
			c1.62,1,3.73,2.82,2,3.73l-1.66,0.86c-0.08,0.03-0.16,0.03-0.24,0c-0.59-0.13-3.06-0.68-3.33-0.81
			C248.3,191.9,247.77,190.56,247.35,189.18z"/>
		<path class="st7" d="M303.47,130.5c-0.03,2.31,0.17,4.61,0.61,6.88c0.36,1.83,0.61,2.3,0.94,2.68c0.49,0.58,1.24,1.07,5.45,2.11
			c2.3,0.57,2.59,0.55,2.64,0.78c0.25,1.11-6,4.9-12.47,4c-3.95-0.55-7.55-2.81-7.33-4s4.17-0.55,5.35-2.7
			c0.82-1.51-0.1-3.64-1.18-5.4C298.53,132.86,302.42,132.47,303.47,130.5z"/>
		
			<linearGradient id="SVGID_00000111170012820324821840000000626164106700755903_" gradientUnits="userSpaceOnUse" x1="-1353.6577" y1="311.1038" x2="-1361.1377" y2="330.1038" gradientTransform="matrix(1 3.665183e-03 3.665183e-03 -1 1659.6588 461.5644)">
			<stop  offset="0" style="stop-color:#321944"/>
			<stop  offset="1" style="stop-color:#6D3B78"/>
		</linearGradient>
		<path style="fill:url(#SVGID_00000111170012820324821840000000626164106700755903_);" d="M296.13,131.67
			c-0.99-1.45-0.95-3.36,0.08-4.78c0.84-0.9,2.02-1.42,3.25-1.44c2.53-0.29,5.72,0.76,6.83,3.09c0.65,1.37-0.77,4.24-1,4.75
			s-0.71,0.78-1.13,1.22c-0.59,0.62-1.5,1.59-3,3.21c-0.14-0.59-0.34-1.16-0.58-1.72c-0.31-0.71-0.71-1.39-1.19-2
			C298.08,132.38,297,132.84,296.13,131.67z"/>
		<path class="st7" d="M303.3,136.35c-1.1,1.66-3.01,2.62-5,2.51c-3-0.19-3.4-6.83-1.51-8.24c0.89-0.52,1.94-0.65,2.93-0.38
			c0.6,0.17,0.81,0.43,1.8,0.69s1.18,0.13,1.46,0.37s0.6,1,0,2.95c0.4-0.53,1.09-0.76,1.73-0.57c0.16,0.09,0.29,0.22,0.39,0.38
			C305.57,134.82,304.88,135.79,303.3,136.35z"/>
		
			<linearGradient id="SVGID_00000006683364801843564900000010951432577476264639_" gradientUnits="userSpaceOnUse" x1="-1355.9611" y1="310.1846" x2="-1363.451" y2="329.2046" gradientTransform="matrix(1 3.665183e-03 3.665183e-03 -1 1659.6588 461.5644)">
			<stop  offset="0" style="stop-color:#321944"/>
			<stop  offset="1" style="stop-color:#6D3B78"/>
		</linearGradient>
		<path style="fill:url(#SVGID_00000006683364801843564900000010951432577476264639_);" d="M303.16,130.9
			c-0.15,0.1,0.29,0.64,0.32,1.39c-0.09,1.66-1.3,3.05-2.93,3.37c-0.89,0.09-1.14-0.45-2.61-0.61c-0.72-0.07-1.45-0.03-2.16,0.13
			c-0.54,1.42-0.12,3.03,1.05,4c1.01,0.53,2.2,0.57,3.24,0.11c1-0.28,1.86-0.91,2.43-1.78c0.72-1.27,0-2,0.84-2.88
			c0.57-0.41,1.08-0.89,1.5-1.45c0.11-0.18,0.21-0.37,0.3-0.57C304.37,131.75,303.36,130.74,303.16,130.9z"/>
		<path class="st7" d="M296.86,135.77c0.55,0.24,1.15,0.33,1.74,0.28c0,0,0.11,0,0.12,0c-0.34,0.36-0.86,0.51-1.34,0.39
			c-0.46-0.13-0.82-0.57-0.76-0.68S296.75,135.76,296.86,135.77z"/>
		
			<linearGradient id="SVGID_00000146478832736074249060000004461709569150580129_" gradientUnits="userSpaceOnUse" x1="340.7775" y1="275.3101" x2="250.0475" y2="155.3701" gradientTransform="matrix(1 0 0 -1 -50.06 292.52)">
			<stop  offset="0" style="stop-color:#321944"/>
			<stop  offset="1" style="stop-color:#8B3B78"/>
		</linearGradient>
		<path style="fill:url(#SVGID_00000146478832736074249060000004461709569150580129_);" d="M308.85,56.34l-0.46,47.88
			c-0.09,7.5-6.21,13.52-13.71,13.49H193.09c-8.08,0-14.55-6.25-14.4-14.09l0.08-4.85v-1l0.82-44.2c0.27-7.48,6.32-13.46,13.8-13.65
			h1.19l100.89,2.59C302.95,42.71,308.9,48.86,308.85,56.34z"/>
		
			<linearGradient id="SVGID_00000074428837082784967350000004639273687614673032_" gradientUnits="userSpaceOnUse" x1="316.5304" y1="293.5428" x2="225.8504" y2="173.6628" gradientTransform="matrix(1 0 0 -1 -50.06 292.52)">
			<stop  offset="0" style="stop-color:#321944"/>
			<stop  offset="1" style="stop-color:#8B3B78"/>
		</linearGradient>
		<path style="fill:url(#SVGID_00000074428837082784967350000004639273687614673032_);" d="M202.86,117.71h-50.45
			c-0.55-0.03-0.97-0.5-0.94-1.05c0.02-0.28,0.15-0.55,0.37-0.73l25.38-16.16l1.55-1l7.67-4.88l1.11-0.81L202.86,117.71z"/>
		
			<linearGradient id="SVGID_00000122689219618067048320000013417385195031653039_" gradientUnits="userSpaceOnUse" x1="339.2577" y1="275.2899" x2="248.5377" y2="155.3499" gradientTransform="matrix(1 0 0 -1 -50.06 292.52)">
			<stop  offset="0" style="stop-color:#D091C0"/>
			<stop  offset="1" style="stop-color:#8173B5"/>
		</linearGradient>
		<path style="fill:url(#SVGID_00000122689219618067048320000013417385195031653039_);" d="M307.3,56.34l-0.46,48
			c-0.08,7.42-6.08,13.41-13.5,13.48c-0.06,0-0.13-0.11-0.2-0.11H191.55c-8.09,0-14.55-6.25-14.41-14.09l0.08-3.85v-1l0.84-45.19
			c0.28-7.85,6.87-13.98,14.72-13.7c0.04,0,0.08,0,0.11,0h0.49h1.51l99,2.54C301.42,42.61,307.39,48.81,307.3,56.34z"/>
		
			<linearGradient id="SVGID_00000136375800656630889220000005498782317484655234_" gradientUnits="userSpaceOnUse" x1="314.7935" y1="293.2805" x2="224.2935" y2="173.6404" gradientTransform="matrix(1 0 0 -1 -50.06 292.52)">
			<stop  offset="0" style="stop-color:#D091C0"/>
			<stop  offset="1" style="stop-color:#8173B5"/>
		</linearGradient>
		<path style="fill:url(#SVGID_00000136375800656630889220000005498782317484655234_);" d="M201.32,117.71h-50.45
			c-0.55-0.03-0.97-0.5-0.94-1.05c0.02-0.28,0.15-0.55,0.37-0.73l26.93-17.16l1.56-1l7.22-4.6l0.43,0.6L201.32,117.71z"/>
		<path class="st7" d="M230,74.02v-4.87l-9.86,5.81l-7.33,4.34v2.87L230,91.09v-4.87l-12.1-5.71l4.28-2.3L230,74.02z"/>
		<path class="st7" d="M243.65,65.26l-7,21.22l-2.89,8.78l5,0.05l2.62-7.93l7.35-22.19L243.65,65.26z"/>
		<path class="st7" d="M252.5,68.91v5l12.8,6.55l-12.8,5.85v5l6-2.89l12.76-6.19v-3L252.5,68.91z"/>
		
			<linearGradient id="SVGID_00000070094996302311160810000002312529562135014284_" gradientUnits="userSpaceOnUse" x1="294.4455" y1="220.5962" x2="238.2781" y2="146.3425" gradientTransform="matrix(1 0 0 -1 -50.06 292.52)">
			<stop  offset="0" style="stop-color:#D091C0"/>
			<stop  offset="1" style="stop-color:#8173B5"/>
		</linearGradient>
		<path style="opacity:0.3;fill:url(#SVGID_00000070094996302311160810000002312529562135014284_);enable-background:new    ;" d="
			M293,117.93v-0.22H150.87c-0.55-0.03-0.97-0.5-0.94-1.05c0.02-0.28,0.15-0.55,0.37-0.73l26.93-17.16l0.84-45.17
			c0.27-7.84,6.85-13.97,14.69-13.7c0.05,0,0.1,0,0.14,0.01h1.68l0.32,0.05c7.54,1.2,16.3,5.11,19,16.38
			c1.81,7.51,3.38,13.72,6.17,18.61c0.65,1.14,1.38,2.23,2.21,3.25c3.14,3.87,7.57,6.63,14.38,8.27c1.46,0.35,3,0.65,4.73,0.9
			c3.66,0.51,7.35,0.79,11.05,0.84c1,0,2,0,3,0c1,0,1.82,0,2.76,0.1C279.47,89.82,280.77,107.51,293,117.93z"/>
		
			<linearGradient id="SVGID_00000024706693111443783980000007740753193025253033_" gradientUnits="userSpaceOnUse" x1="126.3802" y1="76.4978" x2="194.1696" y2="76.4978" gradientTransform="matrix(1 0 0 -1 -50.06 292.52)">
			<stop  offset="0" style="stop-color:#FFC649"/>
			<stop  offset="1" style="stop-color:#F36F56"/>
		</linearGradient>
		<path style="fill:url(#SVGID_00000024706693111443783980000007740753193025253033_);" d="M144.11,274.7
			c-5.25-5.55-12.09-14.46-14.7-26.64c-3.42-16,3.44-23.54,4.3-50.19c0.54-16.86,0.75-28.62-7.36-35.4
			c-6.35-5.32-17.06-6.94-23.86-2.76c-5.65,3.47-9.27,11.34-10.58,17c-1.06,4.65-0.63,8.09-3.48,10.4s-5.81,0.76-8.51,2.47
			c-5.47,3.49-3.18,16.23-2.81,18.29c4.12,22.92,24,39.39,32.8,46.47C120.29,262.72,131.8,269.57,144.11,274.7z"/>
		<g>
			<defs>
				<path id="SVGID_00000175287346109144152620000006632274244764285860_" d="M144.11,274.7c-5.25-5.55-12.09-14.46-14.7-26.64
					c-3.42-16,3.44-23.54,4.3-50.19c0.54-16.86,0.75-28.62-7.36-35.4c-6.35-5.32-17.06-6.94-23.86-2.76
					c-5.65,3.47-9.27,11.34-10.58,17c-1.06,4.65-0.63,8.09-3.48,10.4s-5.81,0.76-8.51,2.47c-5.47,3.49-3.18,16.23-2.81,18.29
					c4.12,22.92,24,39.39,32.8,46.47C120.29,262.72,131.8,269.57,144.11,274.7z"/>
			</defs>
			<clipPath id="SVGID_00000021833335966400358490000006868703093598657420_">
				<use xlink:href="#SVGID_00000175287346109144152620000006632274244764285860_"  style="overflow:visible;"/>
			</clipPath>
			<g style="clip-path:url(#SVGID_00000021833335966400358490000006868703093598657420_);">
				<g class="st35">
					<path class="st7" d="M150.2,279.29l0.22-0.49c-16.59-7.46-37.14-20.54-40.78-40.47c-1.34-7.33-0.27-14.78,1.21-25.1
						c0.95-6.42,2.34-12.77,4.17-19c1.82-6.61,3.27-11.83,2.94-19.55c-0.43-8.17-2.57-16.16-6.27-23.46l-0.48,0.24
						c3.68,7.23,5.79,15.15,6.21,23.25c0.33,7.63-1.1,12.82-2.92,19.38c-1.83,6.26-3.23,12.64-4.18,19.09
						c-1.43,10-2.57,17.85-1.21,25.26c1.73,9.49,7.47,18.34,17,26.32C133.45,270.67,141.55,275.56,150.2,279.29z"/>
					<path class="st7" d="M111.42,207.45l0.29-0.1c4.26-1.8,8.17-4.33,11.56-7.48c7.77-7.12,12.5-16.96,13.22-27.48l-0.54-0.05
						c-0.69,10.38-5.34,20.09-13,27.13c-3.27,3.03-7.03,5.48-11.11,7.26c-2.62-11.61-8.46-22.25-16.84-30.71
						c-3.39-3.48-7.32-6.4-11.63-8.64l-0.22,0.48c4.26,2.23,8.14,5.12,11.49,8.56c5.63,5.59,13.09,15.46,16.67,30.73L111.42,207.45z
						"/>
					<path class="st7" d="M108.88,229.79l0.12-0.16c4.06-5.08,8.54-9.81,13.4-14.14c7.38-6.43,23.85-7.84,24-7.85v-0.53
						c-0.16,0-16.81,1.43-24.32,8c-4.84,4.3-9.31,9.01-13.35,14.07c-16.84-6.32-32.73-47.49-32.9-47.91l-0.5,0.19
						c2.95,7.45,6.35,14.72,10.17,21.77c8.2,15,16,23.91,23.2,26.49L108.88,229.79z"/>
					<path class="st7" d="M123.69,262.57l-0.24-0.48c-3.92-7.86-2.81-15.8,3.3-23.61c2.96-3.7,6.49-6.89,10.47-9.46l-0.28-0.46
						c-4.02,2.61-7.6,5.84-10.6,9.57c-6,7.72-7.29,15.9-3.6,23.71c-6.21-1.36-12.28-3.29-18.14-5.76c-9.65-4-23.33-11.39-33.7-23.61
						l-20.13-23.72l-0.41,0.34l20.14,23.74c10.43,12.3,24.19,19.71,33.9,23.75c6.05,2.57,12.33,4.54,18.76,5.9L123.69,262.57z"/>
				</g>
			</g>
		</g>
		
			<linearGradient id="SVGID_00000172398693962436800550000006038773279057192858_" gradientUnits="userSpaceOnUse" x1="152.9397" y1="83.0884" x2="133.0297" y2="29.6184" gradientTransform="matrix(1 0 0 -1 -50.06 292.52)">
			<stop  offset="0" style="stop-color:#9682BC"/>
			<stop  offset="1" style="stop-color:#6167AF"/>
		</linearGradient>
		<path style="fill:url(#SVGID_00000172398693962436800550000006038773279057192858_);" d="M127.35,279.16
			c-12,1.6-27.42,1.93-42.87-2.82c-3.94-1.21-28.3-8.7-26.91-19.54c0.48-3.82,3.76-4.82,4.5-9.92c0.88-6-3.15-8.48-6.61-15.42
			c-2.06-4.14-8.11-16.26-1.4-24.25c4-4.77,12.39-7.85,19.15-7.16c9.92,1,14.43,10,21.79,25.28c6.52,13.55,5.75,17.18,10.62,26.86
			C109.23,259.37,115.55,269.09,127.35,279.16z"/>
		<g>
			<defs>
				<path id="SVGID_00000047036092612039744660000011194702980143828141_" d="M127.35,279.16c-12,1.6-27.42,1.93-42.87-2.82
					c-3.94-1.21-28.3-8.7-26.91-19.54c0.48-3.82,3.76-4.82,4.5-9.92c0.88-6-3.15-8.48-6.61-15.42c-2.06-4.14-8.11-16.26-1.4-24.25
					c4-4.77,12.39-7.85,19.15-7.16c9.92,1,14.43,10,21.79,25.28c6.52,13.55,5.75,17.18,10.62,26.86
					C109.23,259.37,115.55,269.09,127.35,279.16z"/>
			</defs>
			<clipPath id="SVGID_00000003104140742469086550000008057900243396009135_">
				<use xlink:href="#SVGID_00000047036092612039744660000011194702980143828141_"  style="overflow:visible;"/>
			</clipPath>
			<g style="clip-path:url(#SVGID_00000003104140742469086550000008057900243396009135_);">
				<g class="st35">
					<path class="st7" d="M148.94,282.45c10.35-0.08,20.59-2.17,30.14-6.17l-0.2-0.49c-11.91,5.04-24.9,7-37.77,5.69
						c-44.39-4.92-66.24-51.84-71.88-66.11c-3.2-8.09-4-17.41-2.28-27.68l-0.52-0.09c-1.71,10.37-0.94,19.78,2.3,28
						c4.64,11.74,13.1,28.73,27,43c13.4,13.72,28.64,21.61,45.29,23.45C143.65,282.33,146.29,282.46,148.94,282.45z"/>
					<path class="st7" d="M80.39,238.46l0.13-0.2c2.06-3.59,3.66-7.42,4.76-11.4c1.76-6.22,3.06-15.59-0.69-24.86l-0.49,0.2
						c3.69,9.13,2.4,18.36,0.67,24.5c-1.08,3.86-2.62,7.58-4.58,11.07c-27.45-13.28-29.59-32.17-29.6-37.65v-0.28l-0.53,0.07v0.21
						c0,5.58,2.18,24.82,30.12,38.24L80.39,238.46z"/>
					<path class="st7" d="M79.24,260.81c5.6-0.05,11.17-0.87,16.55-2.42h0.14v-0.14c3.11-11.58,3.46-23.74,1-35.48l-4.07-19.94
						l-0.53,0.11l4.07,19.94c2.41,11.6,2.1,23.61-0.92,35.07c-15.16,4.21-25.72,2-31.92-0.53c-3.77-1.45-7.17-3.73-9.94-6.67
						l-0.41,0.33c0.13,0.17,3.27,4,10.11,6.82C68.38,259.92,73.79,260.9,79.24,260.81z"/>
				</g>
			</g>
		</g>
		
			<linearGradient id="SVGID_00000102545839982196965180000012569305552716655523_" gradientUnits="userSpaceOnUse" x1="359.9542" y1="96.9991" x2="422.5449" y2="96.9991" gradientTransform="matrix(0.9993 0.0372 0.0372 -0.9993 -273.0636 320.849)">
			<stop  offset="0" style="stop-color:#464D8E"/>
			<stop  offset="1" style="stop-color:#27274F"/>
		</linearGradient>
		<path style="fill:url(#SVGID_00000102545839982196965180000012569305552716655523_);" d="M142.89,189.52l8.28,92.95
			c0.16,1.37-0.8,2.61-2.17,2.78l-44.82,4.62c-2.68,0.14-4.1-1.31-4.22-2.77L92,190.59c-0.12-1.43,1.21-2.77,3.86-2.87l44.41-0.65
			C141.64,187.09,142.78,188.15,142.89,189.52z"/>
		
			<linearGradient id="SVGID_00000020378292231498823580000011511285089471445387_" gradientUnits="userSpaceOnUse" x1="387.0951" y1="82.0113" x2="395.7451" y2="106.0013" gradientTransform="matrix(0.9993 0.0372 0.0372 -0.9993 -273.0636 320.849)">
			<stop  offset="0" style="stop-color:#464D8E"/>
			<stop  offset="1" style="stop-color:#27274F"/>
		</linearGradient>
		<path style="fill:url(#SVGID_00000020378292231498823580000011511285089471445387_);" d="M144.92,189.29l8.36,93.51
			c0.16,1.37-0.81,2.62-2.18,2.8l-46.51,4.29c-1.45,0.1-2.71-0.99-2.81-2.44c0,0,0,0,0,0l-8-97.09c-0.14-1.32,0.82-2.5,2.14-2.64
			c0.07-0.01,0.15-0.01,0.22-0.01l46.18-0.89C143.69,186.86,144.81,187.93,144.92,189.29z"/>
		<path class="st7" d="M143.89,194.45l7.73,86.67c0.15,1.27-0.73,2.43-2,2.61l-43.72,4c-1.35,0.1-2.53-0.92-2.63-2.27l-7.47-89.82
			c-0.13-1.24,0.78-2.35,2.02-2.48c0.06-0.01,0.12-0.01,0.18-0.01l43.45-1C142.73,192.18,143.79,193.17,143.89,194.45z"/>
		
			<linearGradient id="SVGID_00000029023397439365794370000017242685680117281199_" gradientUnits="userSpaceOnUse" x1="157.7762" y1="73.1077" x2="190.3162" y2="120.3177" gradientTransform="matrix(1 0 0 -1 -50.06 292.52)">
			<stop  offset="0" style="stop-color:#F59087"/>
			<stop  offset="1" style="stop-color:#EB73AC"/>
		</linearGradient>
		<path style="fill:url(#SVGID_00000029023397439365794370000017242685680117281199_);" d="M143.89,194.45
			c-0.1-1.28-1.16-2.28-2.45-2.3l-43.45,1c-1.25,0.03-2.23,1.07-2.2,2.32c0,0.06,0.01,0.12,0.01,0.17l1.06,12.85l48.14-1.16
			L143.89,194.45z"/>
		
			<linearGradient id="SVGID_00000177482010360455275970000006497888425853586861_" gradientUnits="userSpaceOnUse" x1="389.094" y1="148.8454" x2="335.964" y2="4.9753" gradientTransform="matrix(0.9993 0.0372 0.0372 -0.9993 -273.0636 320.849)">
			<stop  offset="0" style="stop-color:#FFC649"/>
			<stop  offset="1" style="stop-color:#F36F56"/>
		</linearGradient>
		<path style="fill:url(#SVGID_00000177482010360455275970000006497888425853586861_);" d="M120.7,190.08
			c0.05,0.44-0.27,0.85-0.71,0.9c-0.02,0-0.05,0-0.08,0c-0.49,0-0.89-0.38-0.93-0.86c-0.06-0.44,0.26-0.84,0.69-0.89
			c0.03,0,0.06-0.01,0.09-0.01C120.25,189.22,120.66,189.59,120.7,190.08z"/>
		
			<linearGradient id="SVGID_00000132782917631093380820000004315793829964725681_" gradientUnits="userSpaceOnUse" x1="-431.6589" y1="42.517" x2="-406.8289" y2="-11.313" gradientTransform="matrix(1 0 -0.1 -0.99 544.69 260.53)">
			<stop  offset="0" style="stop-color:#D091C0"/>
			<stop  offset="1" style="stop-color:#8173B5"/>
		</linearGradient>
		<polygon style="fill:url(#SVGID_00000132782917631093380820000004315793829964725681_);" points="126.71,242.91 104.97,243.99 
			101.97,213.26 123.83,212.71 		"/>
		
			<linearGradient id="SVGID_00000027580345559020466950000004332098795667408021_" gradientUnits="userSpaceOnUse" x1="-418.9961" y1="60.8529" x2="-390.4161" y2="-1.1071" gradientTransform="matrix(1 0 -0.1 -0.99 544.69 260.53)">
			<stop  offset="0" style="stop-color:#D091C0"/>
			<stop  offset="1" style="stop-color:#8173B5"/>
		</linearGradient>
		<polygon style="fill:url(#SVGID_00000027580345559020466950000004332098795667408021_);" points="142.83,242.12 130.06,242.75 
			127.2,212.62 140.04,212.29 		"/>
		
			<linearGradient id="SVGID_00000180326979412566386160000004023225125808977792_" gradientUnits="userSpaceOnUse" x1="-430.3584" y1="27.6372" x2="-410.5784" y2="-15.2428" gradientTransform="matrix(1 0 -0.1 -0.99 544.69 260.53)">
			<stop  offset="0" style="stop-color:#D091C0"/>
			<stop  offset="1" style="stop-color:#8173B5"/>
		</linearGradient>
		<polygon style="fill:url(#SVGID_00000180326979412566386160000004023225125808977792_);" points="145.08,266.15 107.39,268.74 
			105.36,247.98 143.19,246 		"/>
		
			<linearGradient id="SVGID_00000009569110332352063250000012849849815474836126_" gradientUnits="userSpaceOnUse" x1="-426.8345" y1="1.2877" x2="-413.6445" y2="-27.3123" gradientTransform="matrix(1 0 -0.1 -0.99 544.69 260.53)">
			<stop  offset="0" style="stop-color:#D091C0"/>
			<stop  offset="1" style="stop-color:#8173B5"/>
		</linearGradient>
		<polygon style="fill:url(#SVGID_00000009569110332352063250000012849849815474836126_);" points="146.25,278.7 108.65,281.66 
			107.74,272.36 145.41,269.67 		"/>
		<g class="st46">
			<path class="st7" d="M133.75,253.48c-4.51-15.75-17.65-14.17-21.58-28.41c-3.23-11.69,4.21-17.85-0.3-27.64
				c-2.1-4.24-5.5-7.69-9.71-9.84l-6,0.12c-1.33,0.01-2.39,1.1-2.37,2.43c0,0.07,0.01,0.15,0.01,0.22l8,97.09
				c0.1,1.45,1.36,2.54,2.81,2.44c0,0,0,0,0,0l38.13-3.52c-2.73-3.43-4.88-7.29-6.35-11.43C133,265.32,136.24,262.19,133.75,253.48z
				"/>
		</g>
	</g>
</g>
</svg>
