<?xml version="1.0" encoding="utf-8"?>
<!-- Generator: Adobe Illustrator 21.0.0, SVG Export Plug-In . SVG Version: 6.00 Build 0)  -->
<svg version="1.1" id="Layer_1" xmlns="http://www.w3.org/2000/svg" xmlns:xlink="http://www.w3.org/1999/xlink" x="0px" y="0px"
	 viewBox="0 0 40.9 38.1" style="enable-background:new 0 0 40.9 38.1;" xml:space="preserve">
<style type="text/css">
	.st0{fill:#D6B469;}
</style>
<path class="st0" d="M-38.8,32.5v-2.7c2.7-0.4,5.2-1.5,7.3-3.1l1.9,1.9c0.4,0.4,1.1,0.4,1.5,0l2-2c0.4-0.4,0.4-1.1,0-1.5l-1.9-1.9
	c1.6-2.1,2.6-4.6,3-7.3h2.7c0.6,0,1.1-0.5,1.1-1.1v-2.8c0-0.6-0.5-1.1-1.1-1.1h-2.7c-0.4-2.7-1.5-5.2-3-7.3l1.9-1.9
	c0.4-0.4,0.4-1.1,0-1.5l-2-2c-0.4-0.4-1.1-0.4-1.5,0l-1.9,1.9c-2.1-1.6-4.6-2.6-7.3-3.1v-2.7c0-0.6-0.5-1.1-1.1-1.1h-2.8
	c-0.6,0-1.1,0.5-1.1,1.1v2.7c-2.7,0.4-5.2,1.5-7.4,3l-1.9-1.9c-0.4-0.4-1.1-0.4-1.5,0l-2,2c-0.4,0.4-0.4,1.1,0,1.5l1.9,1.9
	c-1.6,2.1-2.7,4.6-3.1,7.4h-2.6c-0.6,0-1.1,0.5-1.1,1.1v2.8c0,0.6,0.5,1.1,1.1,1.1h2.6c0.4,2.7,1.5,5.3,3.1,7.4l-1.9,1.9
	c-0.4,0.4-0.4,1.1,0,1.5l2,2c0.4,0.4,1.1,0.4,1.5,0l1.9-1.9c2.1,1.6,4.6,2.6,7.4,3v2.7c0,0.6,0.5,1.1,1.1,1.1h2.8
	C-39.2,33.5-38.8,33.1-38.8,32.5z M-47.1,13.5c0-3.2,2.6-5.8,5.8-5.8c3.2,0,5.8,2.6,5.8,5.8s-2.6,5.8-5.8,5.8
	C-44.5,19.3-47.1,16.7-47.1,13.5z"/>
<path class="st0" d="M25.6,10.3C25.6,10.3,25.5,10.3,25.6,10.3c-0.1,0-0.1-0.1-0.1-0.1c-1.5-0.8-3.2-1.3-5-1.3c-1.8,0-3.5,0.5-5,1.3
	c0,0,0,0-0.1,0c0,0,0,0-0.1,0c-3,1.8-5,5-5,8.7s2,7,5,8.7c0,0,0,0,0.1,0c0,0,0,0,0.1,0c1.5,0.8,3.2,1.3,5,1.3c1.8,0,3.5-0.5,5-1.3
	c0,0,0,0,0.1,0c0,0,0,0,0.1,0c3-1.8,5-5,5-8.7C30.6,15.3,28.6,12.1,25.6,10.3z M20.5,10.6c1.2,0,2.4,0.3,3.4,0.7l-2.3,3.9
	c-0.4-0.1-0.8-0.2-1.2-0.2c-0.4,0-0.8,0.1-1.2,0.2L17,11.4C18.1,10.9,19.2,10.6,20.5,10.6z M22.6,19c0,1.2-1,2.2-2.2,2.2
	c-1.2,0-2.2-1-2.2-2.2c0-1.2,1-2.2,2.2-2.2C21.7,16.9,22.6,17.8,22.6,19z M15.5,12.2l2.3,3.9c-0.6,0.5-1,1.2-1.2,2h-4.5
	C12.3,15.7,13.6,13.6,15.5,12.2z M12.1,19.9h4.5c0.2,0.8,0.6,1.5,1.2,2l-2.3,3.9C13.6,24.5,12.3,22.4,12.1,19.9z M20.5,27.5
	c-1.2,0-2.4-0.3-3.4-0.7l2.3-3.9c0.4,0.1,0.8,0.2,1.2,0.2c0.4,0,0.8-0.1,1.2-0.2l2.3,3.9C22.8,27.2,21.7,27.5,20.5,27.5z M25.4,25.9
	l-2.3-3.9c0.6-0.5,1-1.2,1.2-2h4.5C28.6,22.4,27.3,24.5,25.4,25.9z M24.3,18.2c-0.2-0.8-0.6-1.5-1.2-2l2.3-3.9
	c1.9,1.4,3.2,3.5,3.4,5.9H24.3z M33.4,17.2c-0.1,0-0.1,0-0.2,0c-0.4,0-0.8-0.3-0.8-0.7c-1-4.7-4.7-8.4-9.4-9.4
	c-0.5-0.1-0.8-0.6-0.7-1c0.1-0.5,0.6-0.8,1-0.7c5.4,1.1,9.6,5.4,10.8,10.8C34.2,16.6,33.9,17.1,33.4,17.2z M18.6,32
	c-0.1,0.4-0.4,0.7-0.8,0.7c-0.1,0-0.1,0-0.2,0c-5.4-1.1-9.6-5.4-10.8-10.8c-0.1-0.5,0.2-0.9,0.7-1c0.5-0.1,0.9,0.2,1,0.7
	c1,4.7,4.7,8.4,9.4,9.4C18.4,31.1,18.7,31.6,18.6,32z M20.4,18.2L20.4,18.2c0.5,0,0.9,0.4,0.9,0.9s-0.4,0.9-0.9,0.9
	s-0.9-0.4-0.9-0.9S20,18.2,20.4,18.2z M20.5,1.7C10.9,1.7,3.1,9.5,3.1,19s7.8,17.3,17.3,17.3c9.6,0,17.3-7.8,17.3-17.3
	S30,1.7,20.5,1.7z M20.5,34.7c-8.6,0-15.6-7-15.6-15.6s7-15.6,15.6-15.6c8.6,0,15.6,7,15.6,15.6S29.1,34.7,20.5,34.7z"/>
</svg>
