<?xml version="1.0" encoding="utf-8"?>
<!-- Generator: Adobe Illustrator 21.0.0, SVG Export Plug-In . SVG Version: 6.00 Build 0)  -->
<svg version="1.1" id="Layer_1" xmlns="http://www.w3.org/2000/svg" xmlns:xlink="http://www.w3.org/1999/xlink" x="0px" y="0px"
	 viewBox="0 0 40.9 38.1" style="enable-background:new 0 0 40.9 38.1;" xml:space="preserve">
<style type="text/css">
	.st0{fill:#D6B469;}
</style>
<path class="st0" d="M-38.8,32.5v-2.7c2.7-0.4,5.2-1.5,7.3-3.1l1.9,1.9c0.4,0.4,1.1,0.4,1.5,0l2-2c0.4-0.4,0.4-1.1,0-1.5l-1.9-1.9
	c1.6-2.1,2.6-4.6,3-7.3h2.7c0.6,0,1.1-0.5,1.1-1.1v-2.8c0-0.6-0.5-1.1-1.1-1.1h-2.7c-0.4-2.7-1.5-5.2-3-7.3l1.9-1.9
	c0.4-0.4,0.4-1.1,0-1.5l-2-2c-0.4-0.4-1.1-0.4-1.5,0l-1.9,1.9c-2.1-1.6-4.6-2.6-7.3-3.1v-2.7c0-0.6-0.5-1.1-1.1-1.1h-2.8
	c-0.6,0-1.1,0.5-1.1,1.1v2.7c-2.7,0.4-5.2,1.5-7.4,3l-1.9-1.9c-0.4-0.4-1.1-0.4-1.5,0l-2,2c-0.4,0.4-0.4,1.1,0,1.5l1.9,1.9
	c-1.6,2.1-2.7,4.6-3.1,7.4h-2.6c-0.6,0-1.1,0.5-1.1,1.1v2.8c0,0.6,0.5,1.1,1.1,1.1h2.6c0.4,2.7,1.5,5.3,3.1,7.4l-1.9,1.9
	c-0.4,0.4-0.4,1.1,0,1.5l2,2c0.4,0.4,1.1,0.4,1.5,0l1.9-1.9c2.1,1.6,4.6,2.6,7.4,3v2.7c0,0.6,0.5,1.1,1.1,1.1h2.8
	C-39.2,33.5-38.8,33.1-38.8,32.5z M-47.1,13.5c0-3.2,2.6-5.8,5.8-5.8c3.2,0,5.8,2.6,5.8,5.8s-2.6,5.8-5.8,5.8
	C-44.5,19.3-47.1,16.7-47.1,13.5z"/>
<g id="surface1">
	<path class="st0" d="M32,7.9V4.7c0-1.6-1.3-2.9-2.9-2.9h-23c-1.6,0-2.9,1.3-2.9,2.9v12.7c0,1.5,1.1,2.7,2.6,2.8l2.2,5.6
		c0.6,1.5,2.2,2.2,3.7,1.6l13.5-5.2c-0.9,2.4-0.7,5.2,0.7,7.4l0.3,0.5v5.6c0,0.3,0.3,0.6,0.6,0.6h10.4c0.3,0,0.6-0.3,0.6-0.6v-19
		c0-2-0.8-3.9-2.2-5.3L32,7.9z M32,11.3l1.7,4.5c0.3,0.9-0.1,1.9-1,2.2l-1,0.4c0.2-0.4,0.2-0.8,0.2-1.2V11.3z M4.3,17.3V4.7
		c0-1,0.8-1.7,1.7-1.7h23c1,0,1.7,0.8,1.7,1.7v3.7h0l0,0v9c0,0.1,0,0.2,0,0.3l-5.3-5.3c-1.2-1.2-3.1-1.2-4.3,0
		c-1.2,1.1-1.3,3-0.2,4.3l2.2,2.5H6.1C5.1,19,4.3,18.3,4.3,17.3z M11.7,20.2l-4.1,1.6L7,20.2H11.7z M11.2,26.4
		c-0.9,0.3-1.9-0.1-2.2-1l-1-2.5l6.9-2.6v0h9.5l0.7,0.8L11.2,26.4z M36.6,35.2h-9.2v-4.6h9.2V35.2z M36.6,29.4h-9.5L26.8,29
		c-1.4-2.2-1.5-5.1-0.1-7.4c0.1-0.2,0.1-0.5-0.1-0.7l-4.7-5.1c-0.7-0.8-0.7-2,0.1-2.7c0.8-0.7,1.9-0.7,2.7,0l9.2,9.2l0.8-0.8
		l-2.1-2.1l0.6-0.2c1.5-0.6,2.2-2.2,1.6-3.7l-1.9-5.1l1.9,1.9c1.2,1.2,1.9,2.8,1.9,4.5V29.4z"/>
	<path class="st0" d="M9.8,9.8c0.8,0,1.5-0.7,1.5-1.5V5.6c0-0.8-0.7-1.5-1.5-1.5H7c-0.8,0-1.5,0.7-1.5,1.5v2.8
		c0,0.8,0.7,1.5,1.5,1.5H9.8z M6.6,8.4V7.5h1.2V6.4H6.6V5.6c0-0.2,0.2-0.3,0.3-0.3h2.8c0.2,0,0.3,0.2,0.3,0.3v0.8H8.9v1.2h1.2v0.8
		c0,0.2-0.2,0.3-0.3,0.3H7C6.8,8.7,6.6,8.5,6.6,8.4z"/>
	<path class="st0" d="M6.1,11.6h2.3v1.2H6.1V11.6z"/>
	<path class="st0" d="M6.1,15h2.3v1.2H6.1V15z"/>
	<path class="st0" d="M16.4,15h2.3v1.2h-2.3V15z"/>
	<path class="st0" d="M9.5,11.6h2.3v1.2H9.5V11.6z"/>
	<path class="st0" d="M13,11.6h2.3v1.2H13V11.6z"/>
	<path class="st0" d="M16.4,11.6h2.3v1.2h-2.3V11.6z"/>
	<path class="st0" d="M27.4,4.7h1.2v1.7h-1.2V4.7z"/>
	<path class="st0" d="M25.1,4.7h1.2v1.7h-1.2V4.7z"/>
	<path class="st0" d="M22.8,4.7h1.2v1.7h-1.2V4.7z"/>
	<path class="st0" d="M20.5,4.7h1.2v1.7h-1.2V4.7z"/>
	<path class="st0" d="M28.5,31.7h1.2v1.2h-1.2V31.7z"/>
</g>
</svg>
