<?xml version="1.0" encoding="utf-8"?>
<!-- Generator: Adobe Illustrator 21.0.0, SVG Export Plug-In . SVG Version: 6.00 Build 0)  -->
<svg version="1.1" id="Layer_1" xmlns="http://www.w3.org/2000/svg" xmlns:xlink="http://www.w3.org/1999/xlink" x="0px" y="0px"
	 viewBox="0 0 40.9 38.1" style="enable-background:new 0 0 40.9 38.1;" xml:space="preserve">
<style type="text/css">
	.st0{fill:#D6B469;}
</style>
<path class="st0" d="M-38.8,32.5v-2.7c2.7-0.4,5.2-1.5,7.3-3.1l1.9,1.9c0.4,0.4,1.1,0.4,1.5,0l2-2c0.4-0.4,0.4-1.1,0-1.5l-1.9-1.9
	c1.6-2.1,2.6-4.6,3-7.3h2.7c0.6,0,1.1-0.5,1.1-1.1v-2.8c0-0.6-0.5-1.1-1.1-1.1h-2.7c-0.4-2.7-1.5-5.2-3-7.3l1.9-1.9
	c0.4-0.4,0.4-1.1,0-1.5l-2-2c-0.4-0.4-1.1-0.4-1.5,0l-1.9,1.9c-2.1-1.6-4.6-2.6-7.3-3.1v-2.7c0-0.6-0.5-1.1-1.1-1.1h-2.8
	c-0.6,0-1.1,0.5-1.1,1.1v2.7c-2.7,0.4-5.2,1.5-7.4,3l-1.9-1.9c-0.4-0.4-1.1-0.4-1.5,0l-2,2c-0.4,0.4-0.4,1.1,0,1.5l1.9,1.9
	c-1.6,2.1-2.7,4.6-3.1,7.4h-2.6c-0.6,0-1.1,0.5-1.1,1.1v2.8c0,0.6,0.5,1.1,1.1,1.1h2.6c0.4,2.7,1.5,5.3,3.1,7.4l-1.9,1.9
	c-0.4,0.4-0.4,1.1,0,1.5l2,2c0.4,0.4,1.1,0.4,1.5,0l1.9-1.9c2.1,1.6,4.6,2.6,7.4,3v2.7c0,0.6,0.5,1.1,1.1,1.1h2.8
	C-39.2,33.5-38.8,33.1-38.8,32.5z M-47.1,13.5c0-3.2,2.6-5.8,5.8-5.8c3.2,0,5.8,2.6,5.8,5.8s-2.6,5.8-5.8,5.8
	C-44.5,19.3-47.1,16.7-47.1,13.5z"/>
<g>
	<g>
		<path class="st0" d="M38.9,7.6C38.9,7.6,38.9,7.6,38.9,7.6L38.9,7.6h-2.5V6.7c0-0.3-0.2-0.6-0.5-0.7c-1.7-0.5-3.6-0.7-5.4-0.7
			c-3,0-7,0.7-10,3.7c-3-3.1-7.1-3.7-10-3.7C8.6,5.3,6.8,5.5,5.1,6C4.7,6.1,4.5,6.4,4.5,6.7v0.9H2c-0.4,0-0.7,0.3-0.7,0.7v23.7
			c0,0.4,0.3,0.7,0.7,0.7c0.1,0,0.3,0,0.4-0.1c0.1,0,7.5-4.1,17.9-1.5h0.1h0.1c0.1,0,0.1,0,0.2,0c10.4-2.6,17.8,1.4,17.9,1.5
			c0.2,0.1,0.5,0.1,0.7,0c0.2-0.1,0.4-0.4,0.4-0.6V8.3C39.6,7.9,39.3,7.6,38.9,7.6z M2.8,30.9V9.1h1.8v18.6c0,0.4,0.3,0.7,0.7,0.8
			c0,0,0.1,0,0.1,0c1.5-0.2,3.1-0.4,4.6-0.4c2.2,0,4.3,0.3,6.3,1C11.8,28.5,7.1,29.1,2.8,30.9z M10,26.6c-1.4,0-2.7,0.1-4,0.3V7.3
			C7.4,7,8.9,6.8,10.4,6.8c2.8,0,6.6,0.6,9.3,3.6l0,18.5C18.2,28,15.1,26.6,10,26.6z M21.2,10.5c2.7-3,6.5-3.6,9.3-3.6
			c1.5,0,3,0.2,4.4,0.5v19.6c-1.3-0.2-2.7-0.3-4-0.3c-5.1,0-8.1,1.4-9.7,2.4V10.5z M38.1,30.9c-4.3-1.8-9-2.4-13.7-1.8
			c2.1-0.7,4.2-1,6.4-1c1.6,0,3.1,0.1,4.7,0.4c0.4,0.1,0.8-0.2,0.8-0.6c0,0,0-0.1,0-0.1V9.1h1.8L38.1,30.9z"/>
	</g>
</g>
</svg>
