<?xml version="1.0" encoding="utf-8"?>
<!-- Generator: Adobe Illustrator 21.0.0, SVG Export Plug-In . SVG Version: 6.00 Build 0)  -->
<svg version="1.1" id="Layer_1" xmlns="http://www.w3.org/2000/svg" xmlns:xlink="http://www.w3.org/1999/xlink" x="0px" y="0px"
	 viewBox="0 0 40.9 38.1" style="enable-background:new 0 0 40.9 38.1;" xml:space="preserve">
<style type="text/css">
	.st0{fill:#D6B469;}
</style>
<path class="st0" d="M-38.8,32.5v-2.7c2.7-0.4,5.2-1.5,7.3-3.1l1.9,1.9c0.4,0.4,1.1,0.4,1.5,0l2-2c0.4-0.4,0.4-1.1,0-1.5l-1.9-1.9
	c1.6-2.1,2.6-4.6,3-7.3h2.7c0.6,0,1.1-0.5,1.1-1.1v-2.8c0-0.6-0.5-1.1-1.1-1.1h-2.7c-0.4-2.7-1.5-5.2-3-7.3l1.9-1.9
	c0.4-0.4,0.4-1.1,0-1.5l-2-2c-0.4-0.4-1.1-0.4-1.5,0l-1.9,1.9c-2.1-1.6-4.6-2.6-7.3-3.1v-2.7c0-0.6-0.5-1.1-1.1-1.1h-2.8
	c-0.6,0-1.1,0.5-1.1,1.1v2.7c-2.7,0.4-5.2,1.5-7.4,3l-1.9-1.9c-0.4-0.4-1.1-0.4-1.5,0l-2,2c-0.4,0.4-0.4,1.1,0,1.5l1.9,1.9
	c-1.6,2.1-2.7,4.6-3.1,7.4h-2.6c-0.6,0-1.1,0.5-1.1,1.1v2.8c0,0.6,0.5,1.1,1.1,1.1h2.6c0.4,2.7,1.5,5.3,3.1,7.4l-1.9,1.9
	c-0.4,0.4-0.4,1.1,0,1.5l2,2c0.4,0.4,1.1,0.4,1.5,0l1.9-1.9c2.1,1.6,4.6,2.6,7.4,3v2.7c0,0.6,0.5,1.1,1.1,1.1h2.8
	C-39.2,33.5-38.8,33.1-38.8,32.5z M-47.1,13.5c0-3.2,2.6-5.8,5.8-5.8c3.2,0,5.8,2.6,5.8,5.8s-2.6,5.8-5.8,5.8
	C-44.5,19.3-47.1,16.7-47.1,13.5z"/>
<g>
	<g>
		<g>
			<path class="st0" d="M24.9,23.6v-5.1c0-0.9-0.8-1.7-1.7-1.7H7.6c-0.9,0-1.7,0.8-1.7,1.7v5.1c-1.3,0.3-2.2,1.4-2.2,2.7v3.4v5.6
				c0,0.3,0.3,0.6,0.6,0.6h2.2c0.3,0,0.6-0.3,0.6-0.6v-1.7h16.8v1.7c0,0.3,0.3,0.6,0.6,0.6h2.2c0.3,0,0.6-0.3,0.6-0.6v-5.6v-3.4
				C27.2,25,26.2,23.8,24.9,23.6z M7,18.5c0-0.3,0.3-0.6,0.6-0.6h15.7c0.3,0,0.6,0.3,0.6,0.6v5h-1.1v-2.2c0-0.9-0.8-1.7-1.7-1.7
				h-3.4c-0.9,0-1.7,0.8-1.7,1.7v2.2h-1.1v-2.2c0-0.9-0.8-1.7-1.7-1.7H9.8c-0.9,0-1.7,0.8-1.7,1.7v2.2H7V18.5z M21.6,21.3v2.2h-4.5
				v-2.2c0-0.3,0.3-0.6,0.6-0.6H21C21.3,20.7,21.6,21,21.6,21.3z M13.7,21.3v2.2H9.3v-2.2c0-0.3,0.3-0.6,0.6-0.6h3.4
				C13.5,20.7,13.7,21,13.7,21.3z M26,34.7h-1.1V33c0-0.3-0.3-0.6-0.6-0.6H6.5c-0.3,0-0.6,0.3-0.6,0.6v1.7H4.8v-4.5H26V34.7z
				 M26,29.1H4.8v-2.8c0-0.9,0.8-1.7,1.7-1.7h2.2h5.6h2.2h5.6h2.2c0.9,0,1.7,0.8,1.7,1.7V29.1z"/>
		</g>
	</g>
	<g>
		<g>
			<path class="st0" d="M36.7,23.5h-7.8c-0.3,0-0.6,0.3-0.6,0.6v4.5v3.9h1.1v-3.4h6.7v3.4h1.1v-3.9v-4.5
				C37.2,23.8,37,23.5,36.7,23.5z M36.1,28h-6.7v-3.4h6.7V28z"/>
		</g>
	</g>
	<g>
		<g>
			<rect x="31.6" y="25.8" class="st0" width="2.2" height="1.1"/>
		</g>
	</g>
	<g>
		<g>
			<path class="st0" d="M35.5,18.9l-1.1-3.4c-0.1-0.2-0.3-0.4-0.5-0.4h-2.2c-0.2,0-0.5,0.2-0.5,0.4L30,18.9c-0.1,0.2,0,0.4,0.1,0.5
				c0.1,0.1,0.3,0.2,0.5,0.2h1.7v1.7h-1.1v1.1h3.4v-1.1h-1.1v-1.7H35c0.2,0,0.3-0.1,0.5-0.2C35.6,19.2,35.6,19,35.5,18.9z
				 M31.3,18.5l0.7-2.2h1.4l0.7,2.2H31.3z"/>
		</g>
	</g>
	<g>
		<g>
			<path class="st0" d="M36.9,9.6L20.7,2.3c-0.1-0.1-0.3-0.1-0.5,0L4,9.6c-0.2,0.1-0.3,0.3-0.3,0.5v6.7h1.1v-6.4l15.7-7l15.7,7v6.4
				h1.1v-6.7C37.2,9.9,37.1,9.7,36.9,9.6z"/>
		</g>
	</g>
	<g>
		<g>
			<path class="st0" d="M24.3,10l-1.1,0.2c0,0.2,0,0.3,0,0.5c0,1.5-1.3,2.8-2.8,2.8s-2.8-1.3-2.8-2.8s1.3-2.8,2.8-2.8
				c0.3,0,0.6,0.1,0.9,0.2L21.8,7c-0.4-0.1-0.9-0.2-1.3-0.2c-2.2,0-3.9,1.8-3.9,3.9s1.8,3.9,3.9,3.9s3.9-1.8,3.9-3.9
				C24.4,10.4,24.4,10.2,24.3,10z"/>
		</g>
	</g>
	<g>
		<g>
			<path class="st0" d="M24,6.9l-3.5,3.5l-0.7-0.7l-0.8,0.8l1.1,1.1c0.1,0.1,0.3,0.2,0.4,0.2c0.1,0,0.3-0.1,0.4-0.2l3.9-3.9L24,6.9z
				"/>
		</g>
	</g>
</g>
</svg>
