<?xml version="1.0" encoding="utf-8"?>
<!-- Generator: Adobe Illustrator 21.0.0, SVG Export Plug-In . SVG Version: 6.00 Build 0)  -->
<svg version="1.1" id="Layer_1" xmlns="http://www.w3.org/2000/svg" xmlns:xlink="http://www.w3.org/1999/xlink" x="0px" y="0px"
	 viewBox="0 0 40.9 38.1" style="enable-background:new 0 0 40.9 38.1;" xml:space="preserve">
<style type="text/css">
	.st0{fill:#D6B469;}
</style>
<g>
	<path class="st0" d="M11.4,34.4H4.8v-5.8h4.7c0.4,0,0.7-0.3,0.7-0.7V18c0-0.4-0.3-0.7-0.7-0.7H4.8v-4.6h11V14
		c0,0.4,0.3,0.7,0.7,0.7s0.7-0.3,0.7-0.7v-1.9c0-0.2-0.1-0.4-0.3-0.6L13.1,9V4.6c0-0.4-0.3-0.7-0.7-0.7H8.3c-0.4,0-0.7,0.3-0.7,0.7
		V9l-3.8,2.6c-0.2,0.1-0.3,0.3-0.3,0.6V35c0,0.4,0.3,0.7,0.7,0.7h7.2c0.4,0,0.7-0.3,0.7-0.7S11.7,34.4,11.4,34.4z M8.9,18.7v8.6h-4
		v-8.6H8.9L8.9,18.7z M8.5,10h3.7l2.1,1.4H6.4L8.5,10z M9,5.2h2.8v3.4H9V5.2z"/>
	<path class="st0" d="M23.3,15.6H13.3c-0.4,0-0.7,0.3-0.7,0.7v20.6c0,0.4,0.3,0.7,0.7,0.7h10.1c0.4,0,0.7-0.3,0.7-0.7V16.2
		C24,15.9,23.7,15.6,23.3,15.6z M22.7,19.5h-0.8v-2.6h0.8V19.5z M16.1,19.5v-2.6h1.5v2.6H16.1z M19,16.9h1.5v2.6H19V16.9z
		 M14.7,16.9v2.6h-0.8v-2.6H14.7z M13.9,36.2V20.9h8.7v15.3H13.9z"/>
	<path class="st0" d="M36.7,3.9H24.4l-0.9-2.9c-0.1-0.4-0.5-0.6-0.8-0.4l-3.4,1C19,1.7,18.8,2,18.8,2.2c0,0.3,0.1,0.5,0.4,0.7
		l3.6,1.9l-2.9,2.9c-0.1,0.1-0.2,0.3-0.2,0.5v6c0,0.4,0.3,0.7,0.7,0.7c0.4,0,0.7-0.3,0.7-0.7V8.4l3.1-3.1h11.9v24.1h-1.5
		c-0.4,0-0.7,0.3-0.7,0.7c0,0.4,0.3,0.7,0.7,0.7h2.2c0.4,0,0.7-0.3,0.7-0.7V4.6C37.4,4.3,37.1,3.9,36.7,3.9z M21.2,2.5l1.1-0.4
		l0.4,1.1L21.2,2.5z"/>
	<path class="st0" d="M31,23v-1.8c0-0.4-0.3-0.7-0.7-0.7h-2.4c-0.4,0-0.7,0.3-0.7,0.7V23l-2.1,2c-0.1,0.1-0.2,0.3-0.2,0.5v9.4
		c0,0.4,0.3,0.7,0.7,0.7h7.1c0.4,0,0.7-0.3,0.7-0.7v-9.4c0-0.2-0.1-0.4-0.2-0.5L31,23z M28.2,24h1.8l0.9,0.8h-3.6L28.2,24z
		 M28.6,21.9h1v0.7h-1V21.9z M26.3,34.3v-8.1H32v8.1H26.3z"/>
	<path class="st0" d="M21,25.1h-5.4c-0.4,0-0.7,0.3-0.7,0.7v5.7c0,0.4,0.3,0.7,0.7,0.7H21c0.4,0,0.7-0.3,0.7-0.7v-5.7
		C21.7,25.4,21.4,25.1,21,25.1z M20.3,30.7h-4v-4.3h4L20.3,30.7L20.3,30.7z"/>
</g>
<path class="st0" d="M-38.8,32.5v-2.7c2.7-0.4,5.2-1.5,7.3-3.1l1.9,1.9c0.4,0.4,1.1,0.4,1.5,0l2-2c0.4-0.4,0.4-1.1,0-1.5l-1.9-1.9
	c1.6-2.1,2.6-4.6,3-7.3h2.7c0.6,0,1.1-0.5,1.1-1.1v-2.8c0-0.6-0.5-1.1-1.1-1.1h-2.7c-0.4-2.7-1.5-5.2-3-7.3l1.9-1.9
	c0.4-0.4,0.4-1.1,0-1.5l-2-2c-0.4-0.4-1.1-0.4-1.5,0l-1.9,1.9c-2.1-1.6-4.6-2.6-7.3-3.1v-2.7c0-0.6-0.5-1.1-1.1-1.1h-2.8
	c-0.6,0-1.1,0.5-1.1,1.1v2.7c-2.7,0.4-5.2,1.5-7.4,3l-1.9-1.9c-0.4-0.4-1.1-0.4-1.5,0l-2,2c-0.4,0.4-0.4,1.1,0,1.5l1.9,1.9
	c-1.6,2.1-2.7,4.6-3.1,7.4h-2.6c-0.6,0-1.1,0.5-1.1,1.1v2.8c0,0.6,0.5,1.1,1.1,1.1h2.6c0.4,2.7,1.5,5.3,3.1,7.4l-1.9,1.9
	c-0.4,0.4-0.4,1.1,0,1.5l2,2c0.4,0.4,1.1,0.4,1.5,0l1.9-1.9c2.1,1.6,4.6,2.6,7.4,3v2.7c0,0.6,0.5,1.1,1.1,1.1h2.8
	C-39.2,33.5-38.8,33.1-38.8,32.5z M-47.1,13.5c0-3.2,2.6-5.8,5.8-5.8c3.2,0,5.8,2.6,5.8,5.8s-2.6,5.8-5.8,5.8
	C-44.5,19.3-47.1,16.7-47.1,13.5z"/>
</svg>
