<?xml version="1.0" encoding="utf-8"?>
<!-- Generator: Adobe Illustrator 21.0.0, SVG Export Plug-In . SVG Version: 6.00 Build 0)  -->
<svg version="1.1" id="Layer_1" xmlns="http://www.w3.org/2000/svg" xmlns:xlink="http://www.w3.org/1999/xlink" x="0px" y="0px"
	 viewBox="0 0 40.9 38.1" style="enable-background:new 0 0 40.9 38.1;" xml:space="preserve">
<style type="text/css">
	.st0{fill:#D6B469;}
</style>
<path class="st0" d="M-38.8,32.5v-2.7c2.7-0.4,5.2-1.5,7.3-3.1l1.9,1.9c0.4,0.4,1.1,0.4,1.5,0l2-2c0.4-0.4,0.4-1.1,0-1.5l-1.9-1.9
	c1.6-2.1,2.6-4.6,3-7.3h2.7c0.6,0,1.1-0.5,1.1-1.1v-2.8c0-0.6-0.5-1.1-1.1-1.1h-2.7c-0.4-2.7-1.5-5.2-3-7.3l1.9-1.9
	c0.4-0.4,0.4-1.1,0-1.5l-2-2c-0.4-0.4-1.1-0.4-1.5,0l-1.9,1.9c-2.1-1.6-4.6-2.6-7.3-3.1v-2.7c0-0.6-0.5-1.1-1.1-1.1h-2.8
	c-0.6,0-1.1,0.5-1.1,1.1v2.7c-2.7,0.4-5.2,1.5-7.4,3l-1.9-1.9c-0.4-0.4-1.1-0.4-1.5,0l-2,2c-0.4,0.4-0.4,1.1,0,1.5l1.9,1.9
	c-1.6,2.1-2.7,4.6-3.1,7.4h-2.6c-0.6,0-1.1,0.5-1.1,1.1v2.8c0,0.6,0.5,1.1,1.1,1.1h2.6c0.4,2.7,1.5,5.3,3.1,7.4l-1.9,1.9
	c-0.4,0.4-0.4,1.1,0,1.5l2,2c0.4,0.4,1.1,0.4,1.5,0l1.9-1.9c2.1,1.6,4.6,2.6,7.4,3v2.7c0,0.6,0.5,1.1,1.1,1.1h2.8
	C-39.2,33.5-38.8,33.1-38.8,32.5z M-47.1,13.5c0-3.2,2.6-5.8,5.8-5.8c3.2,0,5.8,2.6,5.8,5.8s-2.6,5.8-5.8,5.8
	C-44.5,19.3-47.1,16.7-47.1,13.5z"/>
<g>
	<path class="st0" d="M35.9,27.5l-2.7-2.3v1.6h-9.4v-7.8h1.6v3.7h3.4v1.6l2.7-2.1l-2.7-2.3v1.6h-2.3v-2.6h3.3c3.2,0,5.7-2.6,5.7-5.7
		s-2.6-5.7-5.7-5.7c0,0,0,0,0,0c0-0.2,0-0.3,0-0.5c0-3.2-2.6-5.7-5.7-5.7c-2.1,0-4,1.2-5,2.9c-0.7-0.3-1.4-0.4-2.1-0.4
		c-2.5,0-4.6,1.6-5.4,3.8c-0.1,0-0.3,0-0.4,0c-3.2,0-5.7,2.6-5.7,5.7s2.6,5.7,5.7,5.7h3.3v2.6h-2.3v-1.6l-2.7,2.3l2.7,2.1v-1.6h3.4
		v-3.7h1.6v7.8H7.6v-1.6L5,27.5l2.7,2.1V28h10.5v-8.9h1.8v15h-1.6l2.2,2.7l2.2-2.7H21v-15h1.8V28h10.5v1.6L35.9,27.5z"/>
</g>
</svg>
