<?xml version="1.0" encoding="utf-8"?>
<!-- Generator: Adobe Illustrator 21.0.0, SVG Export Plug-In . SVG Version: 6.00 Build 0)  -->
<svg version="1.1" id="Layer_1" xmlns="http://www.w3.org/2000/svg" xmlns:xlink="http://www.w3.org/1999/xlink" x="0px" y="0px"
	 viewBox="0 0 40.9 38.1" style="enable-background:new 0 0 40.9 38.1;" xml:space="preserve">
<style type="text/css">
	.st0{fill:#D6B469;}
</style>
<path class="st0" d="M-38.8,32.5v-2.7c2.7-0.4,5.2-1.5,7.3-3.1l1.9,1.9c0.4,0.4,1.1,0.4,1.5,0l2-2c0.4-0.4,0.4-1.1,0-1.5l-1.9-1.9
	c1.6-2.1,2.6-4.6,3-7.3h2.7c0.6,0,1.1-0.5,1.1-1.1v-2.8c0-0.6-0.5-1.1-1.1-1.1h-2.7c-0.4-2.7-1.5-5.2-3-7.3l1.9-1.9
	c0.4-0.4,0.4-1.1,0-1.5l-2-2c-0.4-0.4-1.1-0.4-1.5,0l-1.9,1.9c-2.1-1.6-4.6-2.6-7.3-3.1v-2.7c0-0.6-0.5-1.1-1.1-1.1h-2.8
	c-0.6,0-1.1,0.5-1.1,1.1v2.7c-2.7,0.4-5.2,1.5-7.4,3l-1.9-1.9c-0.4-0.4-1.1-0.4-1.5,0l-2,2c-0.4,0.4-0.4,1.1,0,1.5l1.9,1.9
	c-1.6,2.1-2.7,4.6-3.1,7.4h-2.6c-0.6,0-1.1,0.5-1.1,1.1v2.8c0,0.6,0.5,1.1,1.1,1.1h2.6c0.4,2.7,1.5,5.3,3.1,7.4l-1.9,1.9
	c-0.4,0.4-0.4,1.1,0,1.5l2,2c0.4,0.4,1.1,0.4,1.5,0l1.9-1.9c2.1,1.6,4.6,2.6,7.4,3v2.7c0,0.6,0.5,1.1,1.1,1.1h2.8
	C-39.2,33.5-38.8,33.1-38.8,32.5z M-47.1,13.5c0-3.2,2.6-5.8,5.8-5.8c3.2,0,5.8,2.6,5.8,5.8s-2.6,5.8-5.8,5.8
	C-44.5,19.3-47.1,16.7-47.1,13.5z"/>
<g>
	<path class="st0" d="M35.6,15.6h-24l23-6.7c0.2-0.1,0.3-0.2,0.4-0.3c0.1-0.2,0.1-0.4,0.1-0.5l-1.2-4.2c-0.5-1.7-2-2.8-3.8-2.8
		c-0.4,0-0.7,0.1-1.1,0.2L7.4,7.5c-1,0.3-1.8,1-2.3,1.9c-0.5,0.9-0.6,2-0.3,3l1.2,4.1v16.8c0,2.2,1.8,3.9,3.9,3.9h8.4
		c0.4,0,0.7-0.3,0.7-0.7s-0.3-0.7-0.7-0.7H9.9c-1.4,0-2.5-1.1-2.5-2.5v-9.6H11h0h0h5.5h0h0H22h0h0h5.5h0h0h7.4v9.6
		c0,1.4-1.1,2.5-2.5,2.5h-8.4c-0.4,0-0.7,0.3-0.7,0.7s0.3,0.7,0.7,0.7h8.4c2.2,0,3.9-1.8,3.9-3.9V16.3C36.3,15.9,36,15.6,35.6,15.6z
		 M23.2,22.2l3-5.2h3.9l-3,5.2H23.2z M17.7,22.2l3-5.2h3.9l-3,5.2H17.7z M12.2,22.2l3-5.2H19l-3,5.2H12.2z M14.8,13.1l-5-4.8
		l3.7-1.1c0,0,0.1,0.1,0.1,0.1l5,4.8l-3.7,1.1C14.9,13.1,14.8,13.1,14.8,13.1z M24.2,4.2l5,4.8l-3.7,1.1c0,0-0.1-0.1-0.1-0.1l-5-4.8
		l3.7-1.1C24.1,4.1,24.2,4.2,24.2,4.2z M18.9,5.7l5,4.8l-3.7,1.1c0,0-0.1-0.1-0.1-0.1l-5-4.8l3.7-1.1C18.8,5.7,18.9,5.7,18.9,5.7z
		 M29.5,2.6c0.2-0.1,0.5-0.1,0.7-0.1c1.1,0,2.1,0.7,2.4,1.8l1,3.5l-2.8,0.8c0,0-0.1-0.1-0.1-0.1l-5-4.8L29.5,2.6z M6.3,10
		c0.3-0.6,0.9-1,1.5-1.2l0.4-0.1c0,0,0.1,0.1,0.1,0.1l5,4.8l-6.2,1.8l-1-3.5C5.9,11.3,6,10.6,6.3,10z M7.3,17h6.2l-3,5.2H7.3V17z
		 M28.7,22.2l3-5.2h3.2v5.2H28.7z"/>
	<path class="st0" d="M26,29.5c0-0.3-0.1-0.5-0.4-0.6l-6.2-3.6c-0.2-0.1-0.5-0.1-0.7,0c-0.2,0.1-0.4,0.4-0.4,0.6v7.1
		c0,0.3,0.1,0.5,0.4,0.6c0.1,0.1,0.2,0.1,0.4,0.1c0.1,0,0.2,0,0.4-0.1l6.2-3.6C25.8,30,26,29.8,26,29.5z M19.8,31.9v-4.7l4.1,2.3
		L19.8,31.9z"/>
	<path class="st0" d="M21.1,35.6c-0.4,0-0.7,0.3-0.7,0.7s0.3,0.7,0.7,0.7c0.4,0,0.7-0.3,0.7-0.7S21.5,35.6,21.1,35.6z"/>
</g>
</svg>
