<?xml version="1.0" encoding="utf-8"?>
<!-- Generator: Adobe Illustrator 21.0.0, SVG Export Plug-In . SVG Version: 6.00 Build 0)  -->
<svg version="1.1" id="Layer_1" xmlns="http://www.w3.org/2000/svg" xmlns:xlink="http://www.w3.org/1999/xlink" x="0px" y="0px"
	 viewBox="0 0 40.9 38.1" style="enable-background:new 0 0 40.9 38.1;" xml:space="preserve">
<style type="text/css">
	.st0{fill:#D6B469;}
</style>
<path class="st0" d="M-38.8,32.5v-2.7c2.7-0.4,5.2-1.5,7.3-3.1l1.9,1.9c0.4,0.4,1.1,0.4,1.5,0l2-2c0.4-0.4,0.4-1.1,0-1.5l-1.9-1.9
	c1.6-2.1,2.6-4.6,3-7.3h2.7c0.6,0,1.1-0.5,1.1-1.1v-2.8c0-0.6-0.5-1.1-1.1-1.1h-2.7c-0.4-2.7-1.5-5.2-3-7.3l1.9-1.9
	c0.4-0.4,0.4-1.1,0-1.5l-2-2c-0.4-0.4-1.1-0.4-1.5,0l-1.9,1.9c-2.1-1.6-4.6-2.6-7.3-3.1v-2.7c0-0.6-0.5-1.1-1.1-1.1h-2.8
	c-0.6,0-1.1,0.5-1.1,1.1v2.7c-2.7,0.4-5.2,1.5-7.4,3l-1.9-1.9c-0.4-0.4-1.1-0.4-1.5,0l-2,2c-0.4,0.4-0.4,1.1,0,1.5l1.9,1.9
	c-1.6,2.1-2.7,4.6-3.1,7.4h-2.6c-0.6,0-1.1,0.5-1.1,1.1v2.8c0,0.6,0.5,1.1,1.1,1.1h2.6c0.4,2.7,1.5,5.3,3.1,7.4l-1.9,1.9
	c-0.4,0.4-0.4,1.1,0,1.5l2,2c0.4,0.4,1.1,0.4,1.5,0l1.9-1.9c2.1,1.6,4.6,2.6,7.4,3v2.7c0,0.6,0.5,1.1,1.1,1.1h2.8
	C-39.2,33.5-38.8,33.1-38.8,32.5z M-47.1,13.5c0-3.2,2.6-5.8,5.8-5.8c3.2,0,5.8,2.6,5.8,5.8s-2.6,5.8-5.8,5.8
	C-44.5,19.3-47.1,16.7-47.1,13.5z"/>
<g>
	<path class="st0" d="M34.1,22.3l-0.2,0.1c-0.7-0.9-2-1.2-3-0.7c0,0,0,0,0,0l-0.4,0.2c-1-0.9-2.5-1-3.7-0.3l-2.3,1.2h-3.1
		c-0.7,0-1.3-0.2-1.9-0.4l-0.4-0.2c-2.4-1.2-5.3-0.9-7.5,0.7c0,0,0,0,0,0l-1,0.9c-0.4,0.3-0.8,0.6-1.3,0.7l-0.6-1.9
		c-0.1-0.2-0.2-0.3-0.4-0.3H3.3c-0.3,0-0.5,0.2-0.5,0.5c0,0,0,0,0,0.1l1.6,13.4c0,0.2,0.2,0.4,0.5,0.4h7.4c0.3,0,0.5-0.2,0.5-0.5
		c0,0,0-0.1,0-0.1l-1-3.2l3-1.9c0.4-0.2,0.9-0.3,1.3-0.2c0,0,0,0,0,0l6.1,1.1c1.7,0.3,3.4,0.1,4.9-0.7c0,0,0,0,0.1,0l10.6-7.3
		c0.2-0.1,0.3-0.4,0.1-0.6C37.2,22,35.5,21.5,34.1,22.3z M31.4,22.4c0.6-0.3,1.3-0.1,1.7,0.4l-4,2.2l-0.2,0.1
		c-0.1-0.4-0.3-0.7-0.6-1L31.4,22.4z M27.2,22.3C27.2,22.3,27.3,22.3,27.2,22.3c0.7-0.4,1.6-0.4,2.4,0l-2,1.1
		c-0.4-0.3-0.8-0.5-1.3-0.6L27.2,22.3z M5.4,35.7L3.8,23.2h4.1l3.8,12.5H5.4z M26.7,30.4c-1.3,0.6-2.8,0.9-4.3,0.6l-6.1-1.1
		c-0.7-0.2-1.4-0.1-2,0.3c0,0,0,0,0,0L11.5,32l-2-6.6c0.6-0.2,1.2-0.5,1.7-0.9l1-0.9c1.9-1.4,4.4-1.7,6.5-0.6l0.4,0.2
		c0.7,0.3,1.5,0.5,2.3,0.5h4.1c1.2,0,2.3,0.9,2.5,2.1l-3-0.1c-1.1,0-2.1,0-3.2,0.1c-0.2,0-0.4,0.3-0.4,0.5c0,0.2,0.3,0.4,0.5,0.4
		c1-0.1,2-0.2,3-0.1l3.5,0.2c0,0,0,0,0,0c0.3,0,0.5-0.2,0.5-0.5c0-0.1,0-0.1,0-0.2l0.5-0.3l5-2.7c0.8-0.4,1.8-0.3,2.4,0.4L26.7,30.4
		z"/>
	<path class="st0" d="M6.8,33.8c0,0.8,0.6,1.4,1.4,1.4s1.4-0.6,1.4-1.4c0-0.8-0.6-1.4-1.4-1.4C7.5,32.4,6.8,33,6.8,33.8z M8.3,33.3
		c0.3,0,0.5,0.2,0.5,0.5s-0.2,0.5-0.5,0.5c-0.3,0-0.5-0.2-0.5-0.5C7.7,33.5,8,33.3,8.3,33.3L8.3,33.3z"/>
	<path class="st0" d="M23.9,6.4V4.9c0-1.9-1.6-3.5-3.5-3.5C18.5,1.5,17,3,17,4.9v1.5c0,1.9,1.6,3.5,3.5,3.5
		C22.4,9.9,23.9,8.3,23.9,6.4z M17.9,6.4V4.9c0-1.4,1.2-2.5,2.6-2.5c1.4,0,2.5,1.1,2.5,2.5v1.5C23,7.8,21.9,9,20.4,9
		C19,9,17.9,7.8,17.9,6.4z"/>
	<path class="st0" d="M14.9,19.3H26c0.3,0,0.5-0.2,0.5-0.5l0,0v-1h7.7c0.3,0,0.5-0.2,0.5-0.5v-3c0-1.8-1.4-3.3-3.2-3.4
		c-0.2,0-0.4,0.1-0.5,0.3c-0.7,0.9-2.1,1-3,0.3c-0.1-0.1-0.3-0.2-0.4-0.4C27.5,11,27.4,11,27.2,11c-0.6,0-1.2,0.2-1.7,0.5
		c-0.7-0.8-1.6-1.3-2.7-1.3c-0.2,0-0.4,0.1-0.5,0.3c-0.9,1.1-2.4,1.2-3.5,0.3c-0.2-0.1-0.3-0.3-0.4-0.4c-0.1-0.1-0.2-0.2-0.4-0.2
		c-1,0-2,0.4-2.7,1.2c-0.1,0.1-0.1,0.1-0.2,0.2c-0.5-0.3-1-0.5-1.6-0.5c-0.2,0-0.4,0.1-0.5,0.3c-0.7,0.9-2.1,1-2.9,0.3
		c-0.1-0.1-0.3-0.2-0.4-0.4C9.9,11,9.8,11,9.6,11c-1.9,0-3.3,1.6-3.3,3.4v3c0,0.3,0.2,0.5,0.5,0.5h7.7v1
		C14.4,19.1,14.6,19.3,14.9,19.3z M27.1,11.9c1.1,1.2,3,1.4,4.2,0.3c0.1-0.1,0.2-0.2,0.3-0.3c1.2,0.2,2.1,1.2,2.1,2.5v2.5h-7.2V14
		c0-0.6-0.1-1.2-0.4-1.7C26.4,12,26.7,11.9,27.1,11.9L27.1,11.9z M18,11c1.2,1.4,3.3,1.6,4.8,0.3c0.1-0.1,0.2-0.2,0.3-0.3
		c1.5,0.2,2.5,1.4,2.5,2.9v4.4H15.3V14C15.3,12.5,16.5,11.2,18,11z M7.2,16.9v-2.5c0-1.3,1-2.3,2.2-2.5c1.1,1.2,3,1.4,4.2,0.3
		c0.1-0.1,0.2-0.2,0.3-0.3c0.3,0,0.6,0.2,0.9,0.3c-0.3,0.5-0.4,1.1-0.4,1.7v2.9H7.2z"/>
	<path class="st0" d="M32.4,7.8V6.5c0-1.7-1.4-3.1-3.1-3.1s-3.1,1.4-3.1,3.1v1.3c0,1.7,1.4,3.1,3.1,3.1S32.4,9.5,32.4,7.8z
		 M27.1,7.8V6.5c0-1.2,1-2.2,2.2-2.2c1.2,0,2.2,1,2.2,2.2c0,0,0,0,0,0v1.3c0,1.2-1,2.2-2.2,2.2S27.1,9,27.1,7.8
		C27.1,7.8,27.1,7.8,27.1,7.8z"/>
	<path class="st0" d="M14.7,7.8V6.5c0-1.7-1.4-3.1-3.1-3.1S8.5,4.8,8.5,6.5v1.3c0,1.7,1.4,3.1,3.1,3.1S14.7,9.5,14.7,7.8z M9.5,7.8
		V6.5c0-1.2,1-2.2,2.2-2.2c1.2,0,2.2,1,2.2,2.2c0,0,0,0,0,0v1.3c0,1.2-1,2.2-2.2,2.2S9.5,9,9.5,7.8C9.5,7.8,9.5,7.8,9.5,7.8z"/>
</g>
</svg>
