<?xml version="1.0" encoding="utf-8"?>
<!-- Generator: Adobe Illustrator 21.0.0, SVG Export Plug-In . SVG Version: 6.00 Build 0)  -->
<svg version="1.1" id="Layer_1" xmlns="http://www.w3.org/2000/svg" xmlns:xlink="http://www.w3.org/1999/xlink" x="0px" y="0px"
	 viewBox="0 0 40.9 38.1" style="enable-background:new 0 0 40.9 38.1;" xml:space="preserve">
<style type="text/css">
	.st0{fill:#D6B469;}
</style>
<path class="st0" d="M-38.8,32.5v-2.7c2.7-0.4,5.2-1.5,7.3-3.1l1.9,1.9c0.4,0.4,1.1,0.4,1.5,0l2-2c0.4-0.4,0.4-1.1,0-1.5l-1.9-1.9
	c1.6-2.1,2.6-4.6,3-7.3h2.7c0.6,0,1.1-0.5,1.1-1.1v-2.8c0-0.6-0.5-1.1-1.1-1.1h-2.7c-0.4-2.7-1.5-5.2-3-7.3l1.9-1.9
	c0.4-0.4,0.4-1.1,0-1.5l-2-2c-0.4-0.4-1.1-0.4-1.5,0l-1.9,1.9c-2.1-1.6-4.6-2.6-7.3-3.1v-2.7c0-0.6-0.5-1.1-1.1-1.1h-2.8
	c-0.6,0-1.1,0.5-1.1,1.1v2.7c-2.7,0.4-5.2,1.5-7.4,3l-1.9-1.9c-0.4-0.4-1.1-0.4-1.5,0l-2,2c-0.4,0.4-0.4,1.1,0,1.5l1.9,1.9
	c-1.6,2.1-2.7,4.6-3.1,7.4h-2.6c-0.6,0-1.1,0.5-1.1,1.1v2.8c0,0.6,0.5,1.1,1.1,1.1h2.6c0.4,2.7,1.5,5.3,3.1,7.4l-1.9,1.9
	c-0.4,0.4-0.4,1.1,0,1.5l2,2c0.4,0.4,1.1,0.4,1.5,0l1.9-1.9c2.1,1.6,4.6,2.6,7.4,3v2.7c0,0.6,0.5,1.1,1.1,1.1h2.8
	C-39.2,33.5-38.8,33.1-38.8,32.5z M-47.1,13.5c0-3.2,2.6-5.8,5.8-5.8c3.2,0,5.8,2.6,5.8,5.8s-2.6,5.8-5.8,5.8
	C-44.5,19.3-47.1,16.7-47.1,13.5z"/>
<g>
	<g>
		<path class="st0" d="M20.5,0.8C10.4,0.8,2.3,9,2.3,19s8.2,18.2,18.2,18.2S38.7,29.1,38.7,19S30.5,0.8,20.5,0.8z M20.5,35.7
			c-9.2,0-16.6-7.5-16.6-16.6S11.3,2.4,20.5,2.4S37.1,9.9,37.1,19S29.6,35.7,20.5,35.7z"/>
	</g>
</g>
<g>
	<g>
		<path class="st0" d="M29.9,15.1h-5.5V9.6c0-0.4-0.4-0.8-0.8-0.8h-6.3c-0.4,0-0.8,0.4-0.8,0.8v5.5H11c-0.4,0-0.8,0.4-0.8,0.8v6.3
			c0,0.4,0.4,0.8,0.8,0.8h5.5v5.5c0,0.4,0.4,0.8,0.8,0.8h6.3c0.4,0,0.8-0.4,0.8-0.8V23h5.5c0.4,0,0.8-0.4,0.8-0.8v-6.3
			C30.7,15.5,30.3,15.1,29.9,15.1z M29.2,21.4L29.2,21.4h-5.6c-0.4,0-0.8,0.4-0.8,0.8v5.5h-4.7v-5.5c0-0.4-0.4-0.8-0.8-0.8h-5.5
			v-4.7h5.5c0.4,0,0.8-0.4,0.8-0.8v-5.5h4.8v5.5c0,0.4,0.4,0.8,0.8,0.8h5.5V21.4z"/>
	</g>
</g>
</svg>
