<?xml version="1.0" encoding="utf-8"?>
<!-- Generator: Adobe Illustrator 21.0.0, SVG Export Plug-In . SVG Version: 6.00 Build 0)  -->
<svg version="1.1" id="Layer_1" xmlns="http://www.w3.org/2000/svg" xmlns:xlink="http://www.w3.org/1999/xlink" x="0px" y="0px"
	 viewBox="0 0 40.9 38.1" style="enable-background:new 0 0 40.9 38.1;" xml:space="preserve">
<style type="text/css">
	.st0{fill:#D6B469;}
</style>
<path class="st0" d="M-38.8,32.5v-2.7c2.7-0.4,5.2-1.5,7.3-3.1l1.9,1.9c0.4,0.4,1.1,0.4,1.5,0l2-2c0.4-0.4,0.4-1.1,0-1.5l-1.9-1.9
	c1.6-2.1,2.6-4.6,3-7.3h2.7c0.6,0,1.1-0.5,1.1-1.1v-2.8c0-0.6-0.5-1.1-1.1-1.1h-2.7c-0.4-2.7-1.5-5.2-3-7.3l1.9-1.9
	c0.4-0.4,0.4-1.1,0-1.5l-2-2c-0.4-0.4-1.1-0.4-1.5,0l-1.9,1.9c-2.1-1.6-4.6-2.6-7.3-3.1v-2.7c0-0.6-0.5-1.1-1.1-1.1h-2.8
	c-0.6,0-1.1,0.5-1.1,1.1v2.7c-2.7,0.4-5.2,1.5-7.4,3l-1.9-1.9c-0.4-0.4-1.1-0.4-1.5,0l-2,2c-0.4,0.4-0.4,1.1,0,1.5l1.9,1.9
	c-1.6,2.1-2.7,4.6-3.1,7.4h-2.6c-0.6,0-1.1,0.5-1.1,1.1v2.8c0,0.6,0.5,1.1,1.1,1.1h2.6c0.4,2.7,1.5,5.3,3.1,7.4l-1.9,1.9
	c-0.4,0.4-0.4,1.1,0,1.5l2,2c0.4,0.4,1.1,0.4,1.5,0l1.9-1.9c2.1,1.6,4.6,2.6,7.4,3v2.7c0,0.6,0.5,1.1,1.1,1.1h2.8
	C-39.2,33.5-38.8,33.1-38.8,32.5z M-47.1,13.5c0-3.2,2.6-5.8,5.8-5.8c3.2,0,5.8,2.6,5.8,5.8s-2.6,5.8-5.8,5.8
	C-44.5,19.3-47.1,16.7-47.1,13.5z"/>
<g id="Page-1">
	<g id="_x30_33---Insurance">
		<path id="Shape" class="st0" d="M29.9,4.7l-9.2-4c-0.2-0.1-0.3-0.1-0.5,0l-9.2,4c-0.2,0.1-0.4,0.3-0.4,0.6v9.7
			c0,2.2,1,4.2,2.8,5.5l6.4,4.6c0.4,0.3,0.9,0.3,1.3,0l6.4-4.6c1.8-1.3,2.8-3.3,2.8-5.5V5.2C30.3,5,30.2,4.8,29.9,4.7z M29.1,14.9
			c0,1.8-0.9,3.4-2.3,4.5L20.4,24l-6.3-4.6c-1.4-1-2.3-2.7-2.3-4.5V5.6l8.6-3.8l8.6,3.8V14.9z"/>
		<path id="Shape_1_" class="st0" d="M20.2,3.3l-6.8,3C13.2,6.4,13,6.6,13,6.8v8.1c0,1.4,0.7,2.7,1.8,3.5l5.2,3.8
			c0.2,0.2,0.5,0.2,0.7,0l5.2-3.8c1.1-0.8,1.8-2.1,1.8-3.5V6.8c0-0.2-0.1-0.5-0.4-0.6l-6.8-3C20.5,3.2,20.4,3.2,20.2,3.3z M26.6,7.2
			v7.7c0,1-0.5,1.9-1.3,2.5l-4.9,3.5l-4.9-3.5c-0.8-0.6-1.3-1.5-1.3-2.5V7.2l6.2-2.7L26.6,7.2z"/>
		<path id="Shape_2_" class="st0" d="M7.1,21l-1.3-3.1c-0.3-0.6-0.9-1.1-1.6-1.2S2.8,17,2.3,17.5s-0.5,1.3-0.2,2l2.4,5.3
			c0.3,0.7,0.8,1.4,1.3,1.9l3.8,3.8c-0.2,0.2-0.3,0.5-0.3,0.8v4.9c0,0.7,0.6,1.2,1.2,1.2h6.8c0.7,0,1.2-0.6,1.2-1.2v-4.9
			c0-0.7-0.6-1.2-1.2-1.2V29c0-1.5-0.5-2.9-1.4-4c-0.5-0.7-1.2-1.2-2.1-1.5c-1.3-0.5-2.5-1.3-3.5-2.3C9.5,20.4,8.1,20.3,7.1,21z
			 M17.4,36.3h-6.8v-4.9h6.8V36.3z M15,25.7c0.7,0.9,1.1,2.1,1.1,3.3v1.1H11l-4.3-4.3c-0.5-0.5-0.8-1-1.1-1.6L3.3,19
			c-0.1-0.2-0.1-0.5,0.1-0.7c0.1-0.2,0.4-0.3,0.6-0.3c0.3,0,0.6,0.2,0.7,0.4L6,21.6c0.4,0.9,0.9,1.6,1.6,2.3l2.8,2.8
			c0.2,0.2,0.4,0.2,0.6,0.2s0.4-0.2,0.4-0.4c0.1-0.2,0-0.4-0.2-0.6L8.4,23c-0.3-0.3-0.5-0.6-0.8-0.9c0.6-0.5,1.4-0.4,2,0
			c1.2,1.1,2.5,1.9,3.9,2.5C14.2,24.8,14.7,25.2,15,25.7z"/>
		<path id="Shape_3_" class="st0" d="M15.5,33.2h-0.6c-0.3,0-0.6,0.3-0.6,0.6c0,0.3,0.3,0.6,0.6,0.6h0.6c0.3,0,0.6-0.3,0.6-0.6
			C16.1,33.5,15.9,33.2,15.5,33.2z"/>
		<path id="Shape_4_" class="st0" d="M36.3,24.8l2.4-5.3c0.3-0.6,0.2-1.4-0.2-2c-0.4-0.6-1.1-0.9-1.8-0.8c-0.7,0.1-1.3,0.5-1.6,1.2
			L33.8,21c-1-0.7-2.4-0.6-3.4,0.2c-1,1-2.2,1.7-3.5,2.3c-0.8,0.3-1.5,0.8-2.1,1.5c-0.9,1.2-1.4,2.6-1.4,4v1.1
			c-0.7,0-1.2,0.6-1.2,1.2v4.9c0,0.7,0.6,1.2,1.2,1.2h6.8c0.7,0,1.2-0.6,1.2-1.2v-4.9c0-0.3-0.1-0.6-0.3-0.8l3.8-3.8
			C35.6,26.2,36,25.5,36.3,24.8z M30.3,36.3h-6.8v-4.9h6.8V36.3z M29.9,30.1h-5.1V29c0-1.2,0.4-2.3,1.1-3.3c0.4-0.5,0.9-0.9,1.5-1.1
			c1.4-0.6,2.8-1.4,3.9-2.5c0.6-0.5,1.4-0.5,2,0c-0.2,0.3-0.5,0.6-0.8,0.9l-2.8,2.8c-0.2,0.2-0.2,0.6,0,0.9s0.6,0.2,0.9,0l2.8-2.8
			c0.7-0.7,1.2-1.4,1.6-2.3l1.4-3.2c0.1-0.3,0.4-0.4,0.7-0.4c0.2,0,0.5,0.1,0.6,0.3c0.1,0.2,0.2,0.5,0.1,0.7l-2.4,5.3
			c-0.3,0.6-0.6,1.1-1.1,1.6L29.9,30.1z"/>
		<path id="Shape_5_" class="st0" d="M26,33.2h-0.6c-0.3,0-0.6,0.3-0.6,0.6c0,0.3,0.3,0.6,0.6,0.6H26c0.3,0,0.6-0.3,0.6-0.6
			C26.6,33.5,26.3,33.2,26,33.2z"/>
		<path id="Shape_6_" class="st0" d="M17.1,13.6c-0.3-0.2-0.7-0.1-0.9,0.1c-0.2,0.3-0.1,0.7,0.1,0.9l2.5,1.8
			c0.1,0.1,0.2,0.1,0.4,0.1c0,0,0.1,0,0.1,0c0.2,0,0.3-0.1,0.4-0.3l4.9-7.4c0.1-0.2,0.1-0.4,0-0.6C24.6,8.1,24.4,8,24.2,8
			c-0.2,0-0.4,0.1-0.6,0.3l-4.6,6.9L17.1,13.6z"/>
	</g>
</g>
</svg>
