<?xml version="1.0" encoding="utf-8"?>
<!-- Generator: Adobe Illustrator 21.0.0, SVG Export Plug-In . SVG Version: 6.00 Build 0)  -->
<svg version="1.1" id="Layer_1" xmlns="http://www.w3.org/2000/svg" xmlns:xlink="http://www.w3.org/1999/xlink" x="0px" y="0px"
	 viewBox="0 0 40.9 38.1" style="enable-background:new 0 0 40.9 38.1;" xml:space="preserve">
<style type="text/css">
	.st0{fill:#D6B469;}
</style>
<path class="st0" d="M-38.8,32.5v-2.7c2.7-0.4,5.2-1.5,7.3-3.1l1.9,1.9c0.4,0.4,1.1,0.4,1.5,0l2-2c0.4-0.4,0.4-1.1,0-1.5l-1.9-1.9
	c1.6-2.1,2.6-4.6,3-7.3h2.7c0.6,0,1.1-0.5,1.1-1.1v-2.8c0-0.6-0.5-1.1-1.1-1.1h-2.7c-0.4-2.7-1.5-5.2-3-7.3l1.9-1.9
	c0.4-0.4,0.4-1.1,0-1.5l-2-2c-0.4-0.4-1.1-0.4-1.5,0l-1.9,1.9c-2.1-1.6-4.6-2.6-7.3-3.1v-2.7c0-0.6-0.5-1.1-1.1-1.1h-2.8
	c-0.6,0-1.1,0.5-1.1,1.1v2.7c-2.7,0.4-5.2,1.5-7.4,3l-1.9-1.9c-0.4-0.4-1.1-0.4-1.5,0l-2,2c-0.4,0.4-0.4,1.1,0,1.5l1.9,1.9
	c-1.6,2.1-2.7,4.6-3.1,7.4h-2.6c-0.6,0-1.1,0.5-1.1,1.1v2.8c0,0.6,0.5,1.1,1.1,1.1h2.6c0.4,2.7,1.5,5.3,3.1,7.4l-1.9,1.9
	c-0.4,0.4-0.4,1.1,0,1.5l2,2c0.4,0.4,1.1,0.4,1.5,0l1.9-1.9c2.1,1.6,4.6,2.6,7.4,3v2.7c0,0.6,0.5,1.1,1.1,1.1h2.8
	C-39.2,33.5-38.8,33.1-38.8,32.5z M-47.1,13.5c0-3.2,2.6-5.8,5.8-5.8c3.2,0,5.8,2.6,5.8,5.8s-2.6,5.8-5.8,5.8
	C-44.5,19.3-47.1,16.7-47.1,13.5z"/>
<g>
	<g>
		<g>
			<path class="st0" d="M34.8,21.7c-0.2,0-0.5,0-0.7,0.1c-0.2,0.1-0.5,0.2-0.7,0.3l-2.6-1c0.1-0.7,0.2-1.4,0.2-2.1
				c0-2.1-0.6-4.1-1.8-5.8l3.9-3.9c0.4,0.1,0.7,0.1,1.1,0.1c2.3,0,4.2-1.9,4.2-4.2c0-2.3-1.9-4.2-4.2-4.2C31.9,1,30,2.9,30,5.2
				c0,0.4,0,0.7,0.1,1.1l-3.9,3.9c-0.9-0.6-1.9-1.1-3-1.4l0.5-2.4c0.5-0.1,0.9-0.3,1.2-0.6c0.8-0.8,0.8-2.2,0-3
				c-0.4-0.4-0.9-0.6-1.5-0.6c-0.6,0-1.1,0.2-1.5,0.6c-0.4,0.4-0.6,0.9-0.6,1.5c0,0.6,0.2,1.1,0.6,1.5c0.1,0.1,0.3,0.2,0.4,0.3
				l-0.5,2.4c-0.5-0.1-1-0.1-1.5-0.1c-2.8,0-5.5,1.1-7.4,3L8,7.9C8,6.4,6.7,5.2,5.2,5.2C3.7,5.2,2.4,6.5,2.4,8
				c0,1.6,1.3,2.8,2.8,2.8c0.3,0,0.5,0,0.8-0.1l5,3.6c-0.7,1.4-1.1,3.1-1.1,4.7c0,0.9,0.1,1.8,0.3,2.6l-2.4,0.8
				c-0.3-0.4-0.7-0.6-1.1-0.7c-0.2,0-0.4-0.1-0.5-0.1c-1,0-1.8,0.6-2,1.6c-0.3,1.1,0.4,2.3,1.5,2.6c0.2,0,0.4,0.1,0.5,0.1
				c1,0,1.8-0.6,2-1.6c0-0.2,0.1-0.3,0.1-0.5l2.4-0.8c0.5,1.3,1.3,2.4,2.3,3.4l-3.6,5c-1.5,0.1-2.7,1.3-2.7,2.8
				c0,1.6,1.3,2.8,2.8,2.8c1.6,0,2.8-1.3,2.8-2.8c0-0.3,0-0.5-0.1-0.8l3.6-5c1.4,0.7,3.1,1.1,4.7,1.1c1.9,0,3.7-0.5,5.2-1.4l2.1,3.2
				c-0.3,0.4-0.4,0.8-0.4,1.3c0,1.2,0.9,2.1,2.1,2.1c1.2,0,2.1-0.9,2.1-2.1c0-1.2-0.9-2.1-2.1-2.1c-0.2,0-0.3,0-0.5,0.1l-2.1-3.2
				c1.1-0.8,2-1.9,2.7-3.1l2.6,1c0.4,1.2,1.5,2,2.7,2c0.2,0,0.5,0,0.7-0.1c0.7-0.2,1.3-0.7,1.7-1.3c0.4-0.7,0.5-1.4,0.3-2.1
				C37.2,22.6,36.1,21.7,34.8,21.7z M6.9,23.9c-0.1,0.3-0.4,0.5-0.7,0.5c-0.1,0-0.1,0-0.2,0c-0.4-0.1-0.6-0.5-0.5-0.9
				c0.1-0.3,0.4-0.5,0.7-0.5c0.1,0,0.1,0,0.2,0c0.2,0,0.3,0.2,0.4,0.3C6.9,23.6,6.9,23.8,6.9,23.9z M29.5,32.1
				c0.4,0,0.7,0.3,0.7,0.7c0,0.4-0.3,0.7-0.7,0.7c-0.4,0-0.7-0.3-0.7-0.7C28.8,32.4,29.1,32.1,29.5,32.1z M23,3.8
				c0.1-0.1,0.3-0.2,0.5-0.2c0.2,0,0.4,0.1,0.5,0.2c0.3,0.3,0.3,0.7,0,1C23.9,5,23.7,5,23.5,5C23.3,5,23.1,5,23,4.8
				c-0.1-0.1-0.2-0.3-0.2-0.5C22.8,4.1,22.9,4,23,3.8z M36,25.2c-0.2,0.3-0.5,0.6-0.9,0.7c-0.1,0-0.2,0-0.4,0c-0.6,0-1.2-0.4-1.4-1
				c0,0,0-0.1,0-0.1c0-0.2-0.2-0.5-0.4-0.5l-3.5-1.3c-0.3-0.1-0.7,0-0.9,0.3c-0.7,1.4-1.8,2.6-3.1,3.5c0,0,0,0-0.1,0c0,0,0,0-0.1,0
				c-1.5,0.9-3.2,1.5-5,1.5c-1.6,0-3.2-0.4-4.5-1.2c-0.3-0.2-0.7-0.1-0.9,0.2L10.8,33c-0.1,0.2-0.2,0.5-0.1,0.7
				c0.1,0.2,0.1,0.4,0.1,0.6c0,0.8-0.6,1.4-1.4,1.4c-0.8,0-1.4-0.6-1.4-1.4c0-0.8,0.6-1.4,1.4-1.4c0,0,0.1,0,0.1,0
				c0.2,0,0.5-0.1,0.6-0.3l4.2-5.8c0.2-0.3,0.2-0.7-0.1-0.9c-1.9-1.7-3-4.2-3-6.8c0-1.6,0.4-3.2,1.2-4.5c0.2-0.3,0.1-0.7-0.2-0.9
				L6.5,9.4C6.3,9.3,6,9.2,5.8,9.3C5.6,9.4,5.4,9.5,5.2,9.5C4.4,9.5,3.8,8.8,3.8,8c0-0.8,0.6-1.4,1.4-1.4S6.6,7.3,6.6,8
				c0,0,0,0.1,0,0.1c0,0.3,0.1,0.5,0.3,0.6l5.8,4.2c0.3,0.2,0.7,0.2,0.9-0.1c1.7-1.9,4.2-3,6.8-3c0.6,0,1.2,0.1,1.8,0.2c0,0,0,0,0,0
				c0,0,0,0,0,0c1.3,0.3,2.5,0.8,3.6,1.6c0.3,0.2,0.7,0.2,0.9-0.1L31.5,7c0.2-0.2,0.3-0.5,0.2-0.8c-0.1-0.3-0.2-0.7-0.2-1
				c0-1.6,1.3-2.8,2.8-2.8c1.6,0,2.8,1.3,2.8,2.8c0,1.6-1.3,2.8-2.8,2.8c-0.4,0-0.7-0.1-1-0.2c-0.3-0.1-0.6,0-0.8,0.2l-4.6,4.6
				c-0.2,0.2-0.3,0.6-0.1,0.9c1.2,1.6,1.8,3.5,1.8,5.5c0,0.8-0.1,1.6-0.3,2.3c-0.1,0.3,0.1,0.7,0.4,0.8l3.5,1.3
				c0.2,0.1,0.5,0,0.7-0.1c0.2-0.1,0.3-0.2,0.5-0.3c0.1,0,0.2,0,0.4,0c0.6,0,1.2,0.4,1.4,1C36.3,24.5,36.2,24.9,36,25.2z"/>
		</g>
	</g>
	<g>
		<g>
			<path class="st0" d="M17.5,12.6c-0.2-0.3-0.6-0.5-1-0.3c-1.7,1-2.9,2.5-3.5,4.3c-0.1,0.4,0.1,0.8,0.5,0.9c0.1,0,0.1,0,0.2,0
				c0.3,0,0.6-0.2,0.7-0.5c0.5-1.5,1.5-2.7,2.9-3.5C17.6,13.4,17.7,12.9,17.5,12.6z"/>
		</g>
	</g>
	<g>
		<g>
			<path class="st0" d="M13.4,18.3c-0.4,0-0.7,0.3-0.7,0.7v0c0,0.4,0.3,0.7,0.7,0.7c0.4,0,0.7-0.3,0.7-0.7v0
				C14.1,18.6,13.8,18.3,13.4,18.3z"/>
		</g>
	</g>
	<g>
		<g>
			<path class="st0" d="M27.4,20.6c-0.4-0.1-0.8,0.1-0.9,0.5c-0.5,1.5-1.5,2.7-2.9,3.5c-0.3,0.2-0.5,0.6-0.3,1
				c0.1,0.2,0.4,0.4,0.6,0.4c0.1,0,0.2,0,0.4-0.1c1.7-1,2.9-2.5,3.5-4.3C27.9,21.1,27.7,20.7,27.4,20.6z"/>
		</g>
	</g>
	<g>
		<g>
			<path class="st0" d="M27.5,18.3c-0.4,0-0.7,0.3-0.7,0.7v0c0,0.4,0.3,0.7,0.7,0.7c0.4,0,0.7-0.3,0.7-0.7v0
				C28.2,18.7,27.9,18.3,27.5,18.3z"/>
		</g>
	</g>
	<g>
		<g>
			<path class="st0" d="M22.5,13.8c-1.6,0-2.8,1.3-2.8,2.8c0,1.6,1.3,2.8,2.8,2.8c1.6,0,2.8-1.3,2.8-2.8
				C25.3,15.1,24,13.8,22.5,13.8z M22.5,18.1c-0.8,0-1.4-0.6-1.4-1.4s0.6-1.4,1.4-1.4c0.8,0,1.4,0.6,1.4,1.4
				C23.9,17.4,23.3,18.1,22.5,18.1z"/>
		</g>
	</g>
	<g>
		<g>
			<path class="st0" d="M17.7,20c-1.2,0-2.1,0.9-2.1,2.1c0,1.2,0.9,2.1,2.1,2.1c1.2,0,2.1-0.9,2.1-2.1C19.8,21,18.9,20,17.7,20z
				 M17.7,22.9c-0.4,0-0.7-0.3-0.7-0.7c0-0.4,0.3-0.7,0.7-0.7s0.7,0.3,0.7,0.7C18.4,22.6,18.1,22.9,17.7,22.9z"/>
		</g>
	</g>
</g>
</svg>
