<?xml version="1.0" encoding="utf-8"?>
<!-- Generator: Adobe Illustrator 21.0.0, SVG Export Plug-In . SVG Version: 6.00 Build 0)  -->
<svg version="1.1" id="Layer_1" xmlns="http://www.w3.org/2000/svg" xmlns:xlink="http://www.w3.org/1999/xlink" x="0px" y="0px"
	 viewBox="0 0 40.9 38.1" style="enable-background:new 0 0 40.9 38.1;" xml:space="preserve">
<style type="text/css">
	.st0{fill:#D6B469;}
</style>
<path class="st0" d="M-38.8,32.5v-2.7c2.7-0.4,5.2-1.5,7.3-3.1l1.9,1.9c0.4,0.4,1.1,0.4,1.5,0l2-2c0.4-0.4,0.4-1.1,0-1.5l-1.9-1.9
	c1.6-2.1,2.6-4.6,3-7.3h2.7c0.6,0,1.1-0.5,1.1-1.1v-2.8c0-0.6-0.5-1.1-1.1-1.1h-2.7c-0.4-2.7-1.5-5.2-3-7.3l1.9-1.9
	c0.4-0.4,0.4-1.1,0-1.5l-2-2c-0.4-0.4-1.1-0.4-1.5,0l-1.9,1.9c-2.1-1.6-4.6-2.6-7.3-3.1v-2.7c0-0.6-0.5-1.1-1.1-1.1h-2.8
	c-0.6,0-1.1,0.5-1.1,1.1v2.7c-2.7,0.4-5.2,1.5-7.4,3l-1.9-1.9c-0.4-0.4-1.1-0.4-1.5,0l-2,2c-0.4,0.4-0.4,1.1,0,1.5l1.9,1.9
	c-1.6,2.1-2.7,4.6-3.1,7.4h-2.6c-0.6,0-1.1,0.5-1.1,1.1v2.8c0,0.6,0.5,1.1,1.1,1.1h2.6c0.4,2.7,1.5,5.3,3.1,7.4l-1.9,1.9
	c-0.4,0.4-0.4,1.1,0,1.5l2,2c0.4,0.4,1.1,0.4,1.5,0l1.9-1.9c2.1,1.6,4.6,2.6,7.4,3v2.7c0,0.6,0.5,1.1,1.1,1.1h2.8
	C-39.2,33.5-38.8,33.1-38.8,32.5z M-47.1,13.5c0-3.2,2.6-5.8,5.8-5.8c3.2,0,5.8,2.6,5.8,5.8s-2.6,5.8-5.8,5.8
	C-44.5,19.3-47.1,16.7-47.1,13.5z"/>
<g>
	<g>
		<g>
			<path class="st0" d="M36.7,16.8c-0.2-0.1-0.4-0.1-0.6,0l-1.6,0.9L34.1,1.9c0-0.3-0.3-0.6-0.6-0.6h-4.1c-0.3,0-0.6,0.3-0.6,0.6
				l-0.6,19.3l-1.8,1v-4.9c0-0.3-0.3-0.6-0.6-0.6c-0.1,0-0.2,0-0.3,0.1l-9.8,5.4v-4.9c0-0.3-0.3-0.6-0.6-0.6c-0.1,0-0.2,0-0.3,0.1
				L4.2,22.7C4,22.8,3.9,23,3.9,23.2v13c0,0.3,0.3,0.6,0.6,0.6h32c0.3,0,0.6-0.3,0.6-0.6v-19C37,17.1,36.9,16.9,36.7,16.8z
				 M29.9,2.5h3l0,1.2h-3.1L29.9,2.5z M29.8,4.8H33l0.4,13.5l-4,2.2L29.8,4.8z M19.9,35.6h-3.6v-3h3.6V35.6z M24.6,35.6H21v-3h3.6
				V35.6z M35.9,35.6H25.8v-3.6c0-0.3-0.3-0.6-0.6-0.6h-9.5c-0.3,0-0.6,0.3-0.6,0.6v3.6H5V23.5l9.5-5.3v4.9c0,0.3,0.3,0.6,0.6,0.6
				c0.1,0,0.2,0,0.3-0.1l9.8-5.4v4.9c0,0.3,0.3,0.6,0.6,0.6c0.1,0,0.2,0,0.3-0.1l5.6-3.1l2.6-1.4l1.6-0.9V35.6z"/>
		</g>
	</g>
	<g>
		<g>
			<path class="st0" d="M12.2,25H7.4c-0.3,0-0.6,0.3-0.6,0.6v2.4c0,0.3,0.3,0.6,0.6,0.6h4.7c0.3,0,0.6-0.3,0.6-0.6v-2.4
				C12.7,25.2,12.5,25,12.2,25z M11.6,27.3H8v-1.2h3.6V27.3z"/>
		</g>
	</g>
	<g>
		<g>
			<path class="st0" d="M22.8,25h-4.7c-0.3,0-0.6,0.3-0.6,0.6v2.4c0,0.3,0.3,0.6,0.6,0.6h4.7c0.3,0,0.6-0.3,0.6-0.6v-2.4
				C23.4,25.2,23.1,25,22.8,25z M22.2,27.3h-3.6v-1.2h3.6V27.3z"/>
		</g>
	</g>
	<g>
		<g>
			<path class="st0" d="M33.5,25h-4.7c-0.3,0-0.6,0.3-0.6,0.6v2.4c0,0.3,0.3,0.6,0.6,0.6h4.7c0.3,0,0.6-0.3,0.6-0.6v-2.4
				C34.1,25.2,33.8,25,33.5,25z M32.9,27.3h-3.6v-1.2h3.6V27.3z"/>
		</g>
	</g>
</g>
</svg>
