<svg xmlns="http://www.w3.org/2000/svg" xmlns:xlink="http://www.w3.org/1999/xlink" viewBox="0 0 1300.68 1297.77"><defs><linearGradient id="linear-gradient" x1="-537.35" y1="466.09" x2="-158.51" y2="1461.53" gradientTransform="matrix(-0.95, -0.3, -0.3, 0.95, 1198.14, 207.51)" gradientUnits="userSpaceOnUse"><stop offset="0" stop-color="#ff9085"/><stop offset="1" stop-color="#fb6fbb"/></linearGradient><clipPath id="clip-path" transform="translate(-440.69 -455)"><path d="M1110.28,1589.48l-110.95-60s-8.46-96.39,41.25-109.17,54.13-102.22,62-149.64c21.41-128.68,154.93-83.3,195.65-246.45,10.83-43.39,17-129.76,62.17-155.24,51.48-29,72.31,17.19,107.31-9.08,54.69-41.06,127.27-42.62,154.62,20.43,27,62.23-47.48,154.22-189.09,207.84-97.24,50-103.69,70.56-110.06,123-4.46,36.76,6.46,138.11-51.17,163.17s-104.58,55.94-96,100.85C1189.22,1543.55,1110.28,1589.48,1110.28,1589.48Z" style="fill:none"/></clipPath><clipPath id="clip-path-2" transform="translate(-440.69 -455)"><path d="M1051.9,1602.29l98.82,60.24s49.5-39.35,47.09-89.89c-4.91-103.11,85.73-100.22,123.88-104.68,57.53-6.74,105.29-37.77,59.66-91.77s66-107.67,160.5-105.17c92.46,2.45,150.17-160.48-49.45-184.16-119.22-14.15-164.86,93.57-200.83,142.48s-115.41,6.36-127.59,85.49c-10.39,67.59,8.32,132.91-46.83,150.11S1033.3,1521.64,1051.9,1602.29Z" style="fill:none"/></clipPath><linearGradient id="linear-gradient-2" x1="5120.24" y1="454.97" x2="4889.85" y2="1109.74" gradientTransform="matrix(0.85, 0.52, -0.52, 0.85, -2558, -1919.83)" gradientUnits="userSpaceOnUse"><stop offset="0" stop-color="#e38ddd"/><stop offset="1" stop-color="#9571f6"/></linearGradient><linearGradient id="linear-gradient-3" x1="1514.5" y1="1245.13" x2="925.01" y2="2092.53" gradientTransform="matrix(1, 0, 0, 1, 0, 0)" xlink:href="#linear-gradient"/><clipPath id="clip-path-3" transform="translate(-440.69 -455)"><path d="M1221.64,1727.41l-111.71-25.1c-3-17.27-4.71-48.31,20.28-50.25,34.74-2.7,48-59.91,43.4-82.15-5.64-27.52-17.43-91.87,36.21-96.88,44.65-4.18,74.32,2.25,88.89-50.92s51.21-80.39,99.32-66.63c50.62,14.48,107.53-44.76,144.66-12.79,64.68,55.71-27.4,159.91-124,175s-52.41,58.25-59.53,102.81c-9.73,60.83-88.22,30.39-114.8,49.36C1223.53,1684.7,1221.12,1710.93,1221.64,1727.41Z" style="fill:none"/></clipPath><linearGradient id="linear-gradient-4" x1="558.2" y1="1297.99" x2="565.49" y2="1239.69" gradientUnits="userSpaceOnUse"><stop offset="0" stop-color="#26264f"/><stop offset="1" stop-color="#444b8c"/></linearGradient><linearGradient id="linear-gradient-5" x1="968.92" y1="1699.85" x2="1041.8" y2="1568.68" xlink:href="#linear-gradient-4"/><linearGradient id="linear-gradient-6" x1="886.5" y1="1637.69" x2="1128.38" y2="1637.69" xlink:href="#linear-gradient-4"/><linearGradient id="linear-gradient-7" x1="975.86" y1="1664.01" x2="1047.82" y2="1525.54" xlink:href="#linear-gradient-4"/><linearGradient id="linear-gradient-8" x1="875.67" y1="1596.92" x2="1139.09" y2="1596.92" xlink:href="#linear-gradient-4"/><linearGradient id="linear-gradient-9" x1="871.77" y1="1549.33" x2="1143.12" y2="1549.33" xlink:href="#linear-gradient-4"/><linearGradient id="linear-gradient-10" x1="560.01" y1="1073.86" x2="586.73" y2="948.76" xlink:href="#linear-gradient-4"/><linearGradient id="linear-gradient-11" x1="949.39" y1="830.8" x2="1479.53" y2="1672.47" gradientUnits="userSpaceOnUse"><stop offset="0" stop-color="#fcb148"/><stop offset="0.05" stop-color="#fdba46"/><stop offset="0.14" stop-color="#ffc244"/><stop offset="0.32" stop-color="#ffc444"/><stop offset="0.48" stop-color="#fdb946"/><stop offset="0.78" stop-color="#f99c4d"/><stop offset="0.87" stop-color="#f8924f"/><stop offset="1" stop-color="#f8924f"/></linearGradient><linearGradient id="linear-gradient-12" x1="852.54" y1="1478.88" x2="960.63" y2="1163.08" gradientUnits="userSpaceOnUse"><stop offset="0.49" stop-color="#ebeff2"/><stop offset="1" stop-color="#fff"/></linearGradient><linearGradient id="linear-gradient-13" x1="955.88" y1="1514.25" x2="1063.98" y2="1198.46" xlink:href="#linear-gradient-12"/><linearGradient id="linear-gradient-14" x1="814.89" y1="1465.99" x2="922.99" y2="1150.2" xlink:href="#linear-gradient-12"/><linearGradient id="linear-gradient-15" x1="967.99" y1="641.08" x2="862.32" y2="1511.95" xlink:href="#linear-gradient-11"/><clipPath id="clip-path-4" transform="translate(-440.69 -455)"><path d="M1417.77,912.15c0-215.79-183.71-390.71-410.33-390.71a425.68,425.68,0,0,0-179,39c-2.6,33.28,1.44,60.6,7.66,82.58,33.6,118.76,140,117.89,226.25,274.31,66.79,121.17,33.29,176.79,102.11,254.28,23,25.91,49.84,45.65,78.28,60.7,1.16-.83,2.32-1.66,3.5-2.47C1350.11,1159,1417.77,1043.1,1417.77,912.15Z" style="fill:none"/></clipPath><linearGradient id="linear-gradient-16" x1="878.76" y1="1188.62" x2="1182.08" y2="536.93" gradientUnits="userSpaceOnUse"><stop offset="0.01" stop-color="#d8dee8"/><stop offset="1" stop-color="#f4f7fa"/></linearGradient><linearGradient id="linear-gradient-18" x1="790.06" y1="896.41" x2="1305.67" y2="896.41" xlink:href="#linear-gradient-11"/><linearGradient id="linear-gradient-19" x1="355.16" y1="1810.69" x2="372.96" y2="1810.69" gradientTransform="translate(2.04 -81.86) rotate(-9.67)" gradientUnits="userSpaceOnUse"><stop offset="0" stop-color="#f36f56"/><stop offset="1" stop-color="#ffc444"/></linearGradient><linearGradient id="linear-gradient-20" x1="389.57" y1="1737.34" x2="342.88" y2="1901.13" gradientTransform="translate(2.04 -81.86) rotate(-9.67)" gradientUnits="userSpaceOnUse"><stop offset="0" stop-color="#444b8c"/><stop offset="1" stop-color="#26264f"/></linearGradient><linearGradient id="linear-gradient-21" x1="711.24" y1="1490.64" x2="560.28" y2="1614.64" gradientTransform="matrix(1, 0, 0, 1, 0.87, -0.71)" gradientUnits="userSpaceOnUse"><stop offset="0" stop-color="#ab316d"/><stop offset="1" stop-color="#792d3d"/></linearGradient><linearGradient id="linear-gradient-22" x1="648.45" y1="1423.47" x2="607.14" y2="1568.42" gradientTransform="translate(20.8 68.23) rotate(5.37)" xlink:href="#linear-gradient-20"/><linearGradient id="linear-gradient-23" x1="584.75" y1="1590.09" x2="605.76" y2="1590.09" gradientTransform="translate(20.8 68.23) rotate(5.37)" xlink:href="#linear-gradient-19"/><linearGradient id="linear-gradient-24" x1="486.77" y1="1784.74" x2="313.48" y2="1691.37" gradientTransform="translate(2.04 -81.86) rotate(-9.67)" xlink:href="#linear-gradient-21"/><linearGradient id="linear-gradient-25" x1="83.56" y1="1743.49" x2="-83.76" y2="1917.25" gradientTransform="matrix(0.95, -0.3, 0.3, 0.95, -13.43, -149.04)" xlink:href="#linear-gradient-21"/><linearGradient id="linear-gradient-26" x1="70.97" y1="1738.6" x2="-92.87" y2="1908.75" gradientTransform="matrix(0.95, -0.3, 0.3, 0.95, -13.43, -149.04)" xlink:href="#linear-gradient-21"/><linearGradient id="linear-gradient-27" x1="653.91" y1="1265.81" x2="657.95" y2="1091.94" gradientTransform="matrix(1, 0, 0, 1, 0.87, -0.71)" xlink:href="#linear-gradient"/><linearGradient id="linear-gradient-28" x1="-992.86" y1="1150.1" x2="-990.28" y2="1187.64" gradientTransform="matrix(-1, 0, 0, 1, -318.11, -0.43)" xlink:href="#linear-gradient-19"/><linearGradient id="linear-gradient-29" x1="-1034.61" y1="1329.14" x2="-1038.29" y2="1284.95" gradientTransform="matrix(-1, 0.05, 0.05, 1, -503.76, -56.14)" xlink:href="#linear-gradient-20"/><linearGradient id="linear-gradient-30" x1="607.18" y1="1175.11" x2="619.31" y2="1357.07" gradientTransform="matrix(1, 0, 0, 1, 0.87, -0.71)" xlink:href="#linear-gradient-19"/><linearGradient id="linear-gradient-31" x1="3646.9" y1="1795.6" x2="3681.62" y2="1832.2" gradientTransform="translate(-3410.56 403.13) rotate(-14.99)" xlink:href="#linear-gradient-19"/><linearGradient id="linear-gradient-32" x1="-1097.52" y1="1185.12" x2="-1090.25" y2="1208.34" gradientTransform="matrix(-1, 0, 0, 1, -318.11, -0.43)" xlink:href="#linear-gradient-19"/><linearGradient id="linear-gradient-33" x1="516.29" y1="1508.44" x2="738.69" y2="1183.61" gradientTransform="matrix(1, 0, 0, 1, 0.87, -0.71)" xlink:href="#linear-gradient"/><linearGradient id="linear-gradient-34" x1="-1025.97" y1="1259.52" x2="-980.92" y2="1494.13" gradientTransform="matrix(-1, 0, 0, 1, -318.11, -0.43)" xlink:href="#linear-gradient"/><linearGradient id="linear-gradient-35" x1="1964.39" y1="1171.9" x2="1972.52" y2="1275.45" gradientTransform="translate(-626.26)" xlink:href="#linear-gradient-4"/><linearGradient id="linear-gradient-36" x1="1983.71" y1="1229.68" x2="1982.24" y2="1122.73" gradientTransform="translate(-626.26)" gradientUnits="userSpaceOnUse"><stop offset="0" stop-color="#893976"/><stop offset="1" stop-color="#311944"/></linearGradient><linearGradient id="linear-gradient-37" x1="2101.4" y1="1159.79" x2="2109.55" y2="1263.61" gradientTransform="translate(-626.26)" xlink:href="#linear-gradient-4"/><linearGradient id="linear-gradient-38" x1="2109.34" y1="1227.74" x2="2107.87" y2="1120.8" xlink:href="#linear-gradient-36"/><linearGradient id="linear-gradient-39" x1="1334.6" y1="1056.5" x2="1405.3" y2="1056.5" gradientTransform="matrix(1, 0, 0, 1, 0, 0)" xlink:href="#linear-gradient-21"/><linearGradient id="linear-gradient-40" x1="1339.49" y1="1056.5" x2="1405.3" y2="1056.5" gradientTransform="matrix(1, 0, 0, 1, 0, 0)" xlink:href="#linear-gradient-21"/><linearGradient id="linear-gradient-41" x1="1354.23" y1="1048.71" x2="1496.55" y2="1048.71" gradientTransform="matrix(1, 0, 0, 1, 0, 0)" xlink:href="#linear-gradient-21"/><linearGradient id="linear-gradient-42" x1="2089.84" y1="1069.29" x2="2211.39" y2="1180.54" gradientTransform="translate(-333.31 -839.67) rotate(14.31)" xlink:href="#linear-gradient-4"/><linearGradient id="linear-gradient-43" x1="1118.46" y1="650.37" x2="1143.78" y2="650.37" gradientTransform="matrix(1, 0, 0, 1, 0, 0)" xlink:href="#linear-gradient-36"/><linearGradient id="linear-gradient-44" x1="1238.15" y1="766.32" x2="1350.93" y2="1170.46" gradientUnits="userSpaceOnUse"><stop offset="0" stop-color="#aa80f9"/><stop offset="1" stop-color="#6165d7"/></linearGradient><linearGradient id="linear-gradient-45" x1="1369.63" y1="729.63" x2="1482.42" y2="1133.76" xlink:href="#linear-gradient-44"/><linearGradient id="linear-gradient-46" x1="1304.03" y1="809.09" x2="1259.73" y2="882.52" gradientUnits="userSpaceOnUse"><stop offset="0" stop-color="#6165d7"/><stop offset="1" stop-color="#aa80f9"/></linearGradient><linearGradient id="linear-gradient-47" x1="1334.15" y1="806.44" x2="1224.4" y2="864.86" gradientTransform="matrix(1, 0, 0, 1, 0, 0)" xlink:href="#linear-gradient"/><linearGradient id="linear-gradient-48" x1="1284.26" y1="732.1" x2="1271.23" y2="774.73" xlink:href="#linear-gradient-4"/><linearGradient id="linear-gradient-49" x1="1329.91" y1="799.41" x2="1220.71" y2="857.53" gradientTransform="matrix(1, 0, 0, 1, 0, 0)" xlink:href="#linear-gradient"/><linearGradient id="linear-gradient-50" x1="1315.83" y1="844.66" x2="1355.8" y2="844.66" gradientTransform="matrix(1, 0, 0, 1, 0, 0)" xlink:href="#linear-gradient-36"/><linearGradient id="linear-gradient-51" x1="1297.71" y1="844.38" x2="1557.16" y2="844.38" xlink:href="#linear-gradient-44"/><linearGradient id="linear-gradient-52" x1="1381.71" y1="726.26" x2="1494.49" y2="1130.39" xlink:href="#linear-gradient-44"/><linearGradient id="linear-gradient-53" x1="1825.19" y1="722.43" x2="1876.35" y2="648.18" gradientTransform="translate(-614.82 371.98) rotate(-11.85)" xlink:href="#linear-gradient-36"/><linearGradient id="linear-gradient-54" x1="1819.39" y1="685.99" x2="1909.8" y2="631.56" gradientTransform="translate(-614.82 371.98) rotate(-11.85)" xlink:href="#linear-gradient-36"/><linearGradient id="linear-gradient-55" x1="3415.01" y1="1343.67" x2="3071.17" y2="2605.86" gradientTransform="matrix(-1, 0, 0, 1, 4322.61, -455)" xlink:href="#linear-gradient-20"/><linearGradient id="linear-gradient-56" x1="3396.57" y1="1338.65" x2="3052.73" y2="2600.83" gradientTransform="matrix(-1, 0, 0, 1, 4322.61, -455)" xlink:href="#linear-gradient-20"/><linearGradient id="linear-gradient-57" x1="3359.99" y1="1284.72" x2="2959.99" y2="2753.07" gradientTransform="matrix(-1, 0, 0, 1, 4322.61, -455)" xlink:href="#linear-gradient-20"/><linearGradient id="linear-gradient-58" x1="3446.17" y1="1352.16" x2="3102.34" y2="2614.35" gradientTransform="matrix(-1, 0, 0, 1, 4322.61, -455)" xlink:href="#linear-gradient-20"/></defs><g style="isolation:isolate"><g id="Illustration"><path d="M757.86,530.38c-44.41,62.17,5.82,164.25-59.59,210.66-63.68,45.19-140.51-30.78-200.48,8.06-89,57.62-75.65,325.69,51.77,493.51,38.31,50.46,70.56,70.28,84.34,127.05,29.59,121.89-79.65,193.06-59.64,253.4,45.06,135.87,758.73,257,1049.84-146.85,136-188.61,158.9-462.78,41.4-672.44C1453.18,424.92,857.5,390.89,757.86,530.38Z" transform="translate(-440.69 -455)" style="fill:#f4f7fa"/><path d="M1176.08,1475.21c7.55,39.29-16.75,70.66-37.57,90.67-3.56-.87-5.87-.39-9.69-.41-34.41-.17-48.63-8-82.21-13.79-7.23-1.25-27-11.79-34.79-16.65l-14.37-9.33s-6.58-92.62,43.13-105.4,54.13-102.22,62-149.64c21.41-128.68,154.93-83.3,195.65-246.45,10.83-43.39,17-129.77,62.17-155.24,51.48-29,72.31,17.19,107.31-9.08,54.69-41.06,127.27-42.62,154.62,20.43,27,62.23-47.48,154.22-189.09,207.84-97.24,50-103.69,70.56-110.06,123-4.46,36.76,6.46,138.11-51.17,163.17S1167.45,1430.3,1176.08,1475.21Z" transform="translate(-440.69 -455)" style="fill:url(#linear-gradient)"/><g style="clip-path:url(#clip-path)"><g style="mix-blend-mode:soft-light;opacity:0.5"><path d="M1063.46,1557.28l-2.34-.9c5.36-13.9,10.94-27.86,16.57-41.48,41.74-100.85,91.38-194.15,147.55-277.32,47.59-70.47,100.52-134.66,157.32-190.8,45.68-45.14,94.11-85.34,143.92-119.48a841.94,841.94,0,0,1,105-61.77c6-3,12.39-5.65,18.52-8.25,8.18-3.47,16.64-7,24.44-11.3l1.2,2.19c-7.91,4.31-16.43,7.92-24.66,11.41-6.11,2.59-12.42,5.27-18.4,8.2a840.08,840.08,0,0,0-104.74,61.58c-49.69,34.06-98,74.16-143.57,119.2-56.68,56-109.51,120.09-157,190.42-56.08,83-105.64,176.18-147.31,276.87C1074.37,1529.46,1068.81,1543.39,1063.46,1557.28Z" transform="translate(-440.69 -455)" style="fill:#fcfdfe"/><path d="M1318.05,1119.71l-2-1.58c67.7-83.3,72.16-267.19,72.2-269l2.5,0C1390.76,851,1386.28,1035.74,1318.05,1119.71Z" transform="translate(-440.69 -455)" style="fill:#fcfdfe"/><path d="M1149.11,1369.33,1147,1368c39.38-62,178.92-82.71,180.32-82.91l.36,2.48C1326.29,1287.76,1187.87,1308.31,1149.11,1369.33Z" transform="translate(-440.69 -455)" style="fill:#fcfdfe"/><path d="M1129.81,1406.44l-2.32-1c18.15-44.37,19.18-114.58,2.91-197.7-.81-4.18-.81-4.18-.64-4.62l2.33.92-1.17-.46h1.25c0,.29.33,1.86.69,3.69C1149.22,1290.9,1148.13,1361.62,1129.81,1406.44Z" transform="translate(-440.69 -455)" style="fill:#fcfdfe"/><path d="M1073.59,1532l-1.94-1.57c33.13-41.11,111.45-41.12,112.24-41.11v2.5C1183.1,1491.86,1106,1491.87,1073.59,1532Z" transform="translate(-440.69 -455)" style="fill:#fcfdfe"/><path d="M1059.74,1556.56c.88-42.58-10.44-86.79-34.61-135.18l2.24-1.11c24.35,48.75,35.75,93.35,34.87,136.34Z" transform="translate(-440.69 -455)" style="fill:#fcfdfe"/><path d="M1498.89,950l-1.85-1.68c40.21-44.22,72.22-100,82.73-118.32,2.55-4.44,3.45-6,3.86-6.49l1.91,1.61c-.3.37-1.76,2.91-3.6,6.12C1571.39,849.58,1539.29,905.53,1498.89,950Z" transform="translate(-440.69 -455)" style="fill:#fcfdfe"/><path d="M1422.86,1012.17l-1.27-2.15c48.25-28.52,156.72-.26,161.32,1l-.64,2.42C1581.15,1013.1,1470.21,984.18,1422.86,1012.17Z" transform="translate(-440.69 -455)" style="fill:#fcfdfe"/></g></g><g style="clip-path:url(#clip-path-2)"><path d="M1051.9,1602.29l98.82,60.24s49.5-39.35,47.09-89.89c-4.91-103.11,85.73-100.22,123.88-104.68,57.53-6.74,98.71-35.67,67.44-89.77-35.37-61.21,58.24-109.67,152.72-107.17,92.46,2.45,150.17-160.48-49.45-184.16-119.22-14.15-164.86,93.57-200.83,142.48s-115.41,6.36-127.59,85.49c-10.39,67.59,8.32,132.91-46.83,150.11S1033.3,1521.64,1051.9,1602.29Z" transform="translate(-440.69 -455)" style="fill:url(#linear-gradient-2)"/><g style="mix-blend-mode:soft-light;opacity:0.5"><path d="M1089.08,1637.53l2.28.88c.54-1.42,55.29-142.68,151.8-266.35,88.9-113.94,232.46-235.83,411.53-169.47l.85-2.29c-79.72-29.54-159.14-24.88-236.06,13.85-61.45,30.94-121.43,83.58-178.28,156.44C1144.48,1494.56,1089.62,1636.12,1089.08,1637.53Z" transform="translate(-440.69 -455)" style="fill:#beb8f2"/><path d="M1388,1231.73l2.22,1c33.43-74.13,119.34-156,120.2-156.82l-1.68-1.77C1507.91,1075,1421.65,1157.16,1388,1231.73Z" transform="translate(-440.69 -455)" style="fill:#beb8f2"/><path d="M1440,1207.32c96.89-.94,149.71,60,150.23,60.66l1.86-1.57c-.53-.63-54-62.48-152.12-61.53Z" transform="translate(-440.69 -455)" style="fill:#beb8f2"/><path d="M1184.47,1456.35c83.28-84.14,231.75-26.72,233.15-26l1.21-2.12c-1.31-.79-152.08-58.44-236.1,26.44Z" transform="translate(-440.69 -455)" style="fill:#beb8f2"/><path d="M1209.23,1414.28l2.3.82c25.37-71.16-16.65-156.37-17.08-157.22l-2.18,1.09C1192.69,1259.82,1234.24,1344.12,1209.23,1414.28Z" transform="translate(-440.69 -455)" style="fill:#beb8f2"/><path d="M1100.47,1616.37c26.34-36.45,99.47-33.44,100.21-33.41l.11-2.44c-3-.15-75.18-3.11-102.3,34.42Z" transform="translate(-440.69 -455)" style="fill:#beb8f2"/><path d="M1113,1582.74l2.27.9c13.14-33-11.78-94-20-114-1.15-2.83-2.15-5.27-2.24-5.75l-2.41.44a56.58,56.58,0,0,0,2.39,6.23C1101.12,1490.38,1125.75,1550.61,1113,1582.74Z" transform="translate(-440.69 -455)" style="fill:#beb8f2"/></g></g><path d="M1226.44,1693.77l-1.43.28c-28.24,5.36-60,6.24-95.58-.23l-20.52-5.25c-2.17-17.62-1.07-34.77,21.3-36.51,34.74-2.7,48-59.91,43.4-82.15-5.64-27.52-17.43-91.87,36.21-96.88,44.65-4.18,74.32,2.25,88.89-50.92s51.21-80.39,99.32-66.63c50.62,14.48,107.53-44.76,144.66-12.79,64.68,55.71-27.4,159.91-124,175s-52.41,58.25-59.53,102.81c-9.73,60.83-88.22,30.39-114.8,49.36A50.52,50.52,0,0,0,1226.44,1693.77Z" transform="translate(-440.69 -455)" style="fill:url(#linear-gradient-3)"/><g style="clip-path:url(#clip-path-3)"><g style="mix-blend-mode:soft-light;opacity:0.5"><path d="M1173,1698l-2.27-1c73.19-166,226.57-295.58,400.28-338.28l.6,2.41C1398.62,1403.67,1245.88,1532.75,1173,1698Z" transform="translate(-440.69 -455)" style="fill:#fcfdfe"/><path d="M1220.64,1611l-2.42-.53c15.32-69.62-32.34-137-32.82-137.67l2-1.45C1187.9,1472,1236.2,1540.25,1220.64,1611Z" transform="translate(-440.69 -455)" style="fill:#fcfdfe"/><path d="M1187.28,1667.86l-1.88-1.62c47.19-54.74,177.36-35.31,178.67-35.11l-.38,2.45C1362.4,1633.38,1233.57,1614.16,1187.28,1667.86Z" transform="translate(-440.69 -455)" style="fill:#fcfdfe"/><path d="M1339.88,1479.09l-2-1.45c33.59-46.46,17.46-132.88,17.29-133.75l2.43-.47C1357.76,1344.3,1374.09,1431.77,1339.88,1479.09Z" transform="translate(-440.69 -455)" style="fill:#fcfdfe"/><path d="M1435.16,1414.35l-.81-2.34c61.7-21.45,141.83,15.53,142.63,15.91l-1,2.25C1575.13,1429.79,1495.91,1393.24,1435.16,1414.35Z" transform="translate(-440.69 -455)" style="fill:#fcfdfe"/></g></g><path d="M1417.77,912.15c0-215.79-183.71-390.71-410.33-390.71S597.11,696.36,597.11,912.15c0,130.95,67.66,246.85,171.52,317.74,44.06,30.08,70.78,79.65,70.78,133v29.9A117.62,117.62,0,0,0,957,1510.41h100.82a117.62,117.62,0,0,0,117.62-117.63v-29.9c0-53.34,26.72-102.91,70.78-133C1350.11,1159,1417.77,1043.1,1417.77,912.15Z" transform="translate(-440.69 -455)" style="fill:#f4f7fa;opacity:0.75"/><ellipse cx="566.75" cy="1229.61" rx="91.02" ry="48.19" style="fill:url(#linear-gradient-4)"/><path d="M886.5,1598.53v49.21A43.23,43.23,0,0,0,911,1686.81c20.86,10,55.55,20.87,106,19.58,40.9-1.05,67.57-7.73,84.53-14.75a43.93,43.93,0,0,0,26.88-40.7v-27.23Z" transform="translate(-440.69 -455)" style="fill:url(#linear-gradient-5)"/><path d="M886.5,1641.63a47.77,47.77,0,0,0,12.76,8.91c23.4,11.16,176.72,36.11,213.7,22.21a49.92,49.92,0,0,0,12.91-7.13,44.56,44.56,0,0,0,2.51-14.68v-27.23L886.5,1598.53Z" transform="translate(-440.69 -455)" style="mix-blend-mode:multiply;opacity:0.30000000000000004;fill:url(#linear-gradient-6)"/><path d="M897.24,1565a23.08,23.08,0,0,0-25.47,23v1.4a48.49,48.49,0,0,0,27.49,43.83c23.4,11.17,176.72,36.11,213.7,22.21,18.62-7,30.16-23,30.16-42.87v-1.12a23.09,23.09,0,0,0-20.7-23Z" transform="translate(-440.69 -455)" style="fill:url(#linear-gradient-7)"/><path d="M1122.42,1588.49,897.24,1565a23,23,0,0,0-21.57,10.17,48.16,48.16,0,0,0,23.59,24.73c23.4,11.17,183.25,39.36,213.7,25a52.87,52.87,0,0,0,26.13-26.48A23,23,0,0,0,1122.42,1588.49Z" transform="translate(-440.69 -455)" style="mix-blend-mode:multiply;opacity:0.30000000000000004;fill:url(#linear-gradient-8)"/><path d="M888.43,1485.31A16.66,16.66,0,0,0,871.77,1502v38.54a48.51,48.51,0,0,0,27.49,43.84c23.4,11.16,183.25,39.35,213.7,25,18-8.48,30.16-25.77,30.16-45.66V1502a16.67,16.67,0,0,0-16.67-16.67Z" transform="translate(-440.69 -455)" style="fill:url(#linear-gradient-9)"/><ellipse cx="566.75" cy="1042.31" rx="132.32" ry="31.28" style="fill:url(#linear-gradient-10)"/><path d="M1417.77,912.15c0-215.79-183.71-390.71-410.33-390.71S597.11,696.36,597.11,912.15c0,130.95,67.66,246.85,171.52,317.74,44.06,30.08,70.78,79.65,70.78,133v29.9A117.62,117.62,0,0,0,957,1510.41h100.82a117.62,117.62,0,0,0,117.62-117.63v-29.9c0-53.34,26.72-102.91,70.78-133C1350.11,1159,1417.77,1043.1,1417.77,912.15Z" transform="translate(-440.69 -455)" style="fill:url(#linear-gradient-11)"/><ellipse cx="566.75" cy="1017.64" rx="96.82" ry="22.89" style="fill:#f4f7fa;mix-blend-mode:soft-light;opacity:0.5"/><path d="M982.21,1486.63a5.59,5.59,0,0,1-5.54-4.88L905.44,927.83a5.6,5.6,0,0,1,11.1-1.43l71.23,553.92a5.61,5.61,0,0,1-4.84,6.27A5.79,5.79,0,0,1,982.21,1486.63Z" transform="translate(-440.69 -455)" style="fill:url(#linear-gradient-12)"/><path d="M1026.45,1486.63a5.79,5.79,0,0,1-.72,0,5.61,5.61,0,0,1-4.84-6.27l71.23-553.92a5.6,5.6,0,0,1,11.1,1.43L1032,1481.75A5.59,5.59,0,0,1,1026.45,1486.63Z" transform="translate(-440.69 -455)" style="fill:url(#linear-gradient-13)"/><path d="M1084.46,927.38a5.58,5.58,0,0,1-4.68-2.52L1060.12,895a.89.89,0,0,0-1.56,0l-13,21.74a12.08,12.08,0,0,1-20.48.5l-17.82-26.72a.89.89,0,0,0-.77-.44.91.91,0,0,0-.74.41l-15.66,22.63a12.1,12.1,0,0,1-9.92,5.23h0a12.12,12.12,0,0,1-9.94-5.21l-22.57-32.33a1,1,0,0,0-.8-.43.9.9,0,0,0-.75.49l-20.6,35.56a5.59,5.59,0,1,1-9.68-5.61l20.6-35.56a12.09,12.09,0,0,1,20.41-.86l22.57,32.34a.89.89,0,0,0,.76.42h0a.88.88,0,0,0,.74-.41l15.66-22.63a12.07,12.07,0,0,1,20,.2l17.82,26.71c.2.3.5.55.8.44a.86.86,0,0,0,.76-.47l13-21.73a12.08,12.08,0,0,1,20.51-.45l19.66,29.83a5.59,5.59,0,0,1-4.67,8.67Z" transform="translate(-440.69 -455)" style="fill:url(#linear-gradient-14)"/><path d="M1014.89,1220.33c8.79-150.6,262.66-185.84,261.57-320.33-.67-82.83-101.55-144.34-123.09-156.66-158.74-90.79-354.11,14-394.46-60.15-10-18.47-5.34-38.58-2.66-50,4.06-17.3,13.24-33.43,26.86-48.17-112,69.76-186,190.23-186,327.17,0,130.95,67.66,246.85,171.52,317.74,44.06,30.08,70.78,79.65,70.78,133v29.9A117.62,117.62,0,0,0,957,1510.41h100.82a117.62,117.62,0,0,0,117.62-117.63v-23.9c-13.87,10.63-29.81,18-47.28,17.9C1067.56,1386.28,1010.51,1295.26,1014.89,1220.33Z" transform="translate(-440.69 -455)" style="mix-blend-mode:multiply;opacity:0.30000000000000004;fill:url(#linear-gradient-15)"/><ellipse cx="573.31" cy="472.38" rx="353.1" ry="340.52" style="fill:#f4f7fa;mix-blend-mode:soft-light;opacity:0.44"/><g style="clip-path:url(#clip-path-4)"><path d="M1417.77,912.15c0-215.79-183.71-390.71-410.33-390.71S597.11,696.36,597.11,912.15c0,130.95,67.66,246.85,171.52,317.74,44.06,30.08,70.78,79.65,70.78,133v29.9A117.62,117.62,0,0,0,957,1510.41h100.82a117.62,117.62,0,0,0,117.62-117.63v-29.9c0-53.34,26.72-102.91,70.78-133C1350.11,1159,1417.77,1043.1,1417.77,912.15Z" transform="translate(-440.69 -455)" style="fill:url(#linear-gradient-16)"/><path d="M1176.08,1475.21c7.55,39.29-16.75,70.66-37.57,90.67-3.56-.87-5.87-.39-9.69-.41-34.41-.17-48.63-8-82.21-13.79-7.23-1.25-27-11.79-34.79-16.65l-14.37-9.33s-6.58-92.62,43.13-105.4,54.13-102.22,62-149.64c21.41-128.68,154.93-83.3,195.65-246.45,10.83-43.39,17-129.77,62.17-155.24,51.48-29,72.31,17.19,107.31-9.08,54.69-41.06,127.27-42.62,154.62,20.43,27,62.23-47.48,154.22-189.09,207.84-97.24,50-103.69,70.56-110.06,123-4.46,36.76,6.46,138.11-51.17,163.17S1167.45,1430.3,1176.08,1475.21Z" transform="translate(-440.69 -455)" style="opacity:0.30000000000000004;fill:url(#linear-gradient)"/><path d="M828.45,560.49c39.08-.52,92.83,5.49,131.13,41.87,47.87,45.47,25.92,95,58.73,161.51,55.21,112,166.48,71.5,242.94,186.88,69.54,104.94,43.71,238.32,14.68,259-2.6,1.86-33.18,22.66-33.18,22.66h0L790.06,1037.51Z" transform="translate(-440.69 -455)" style="mix-blend-mode:multiply;opacity:0.30000000000000004;fill:url(#linear-gradient-18)"/><path d="M1007.44,1288.3c-105.41,0-204.51-39.1-279.05-110.1S612.77,1012.74,612.77,912.29s41.06-194.88,115.62-265.91S902,536.28,1007.44,536.28s204.51,39.1,279,110.1,115.62,165.46,115.62,265.91-41.06,194.88-115.62,265.91S1112.85,1288.3,1007.44,1288.3Zm0-748.84c-104.58,0-202.9,38.79-276.85,109.23S616,812.72,616,912.29s40.71,193.19,114.63,263.6,172.27,109.22,276.85,109.22,202.9-38.79,276.85-109.22,114.64-164,114.64-263.6-40.72-193.19-114.64-263.6S1112,539.46,1007.44,539.46Z" transform="translate(-440.69 -455)" style="fill:#fff"/><path d="M1007.44,1288.3c-77.35,0-150.05-39.17-204.7-110.29s-84.6-165.36-84.6-265.72,30.05-194.73,84.6-265.72,127.35-110.29,204.7-110.29,150,39.17,204.7,110.29,84.6,165.36,84.6,265.72-30,194.73-84.6,265.72S1084.79,1288.3,1007.44,1288.3Zm0-748.84c-157.76,0-286.11,167.25-286.11,372.83s128.35,372.82,286.11,372.82,286.11-167.24,286.11-372.82S1165.2,539.46,1007.44,539.46Z" transform="translate(-440.69 -455)" style="fill:#fff"/><path d="M1007.44,1288.3c-39.13,0-75.78-39.31-103.21-110.69C877,1106.72,862,1012.49,862,912.29S877,717.86,904.23,647c27.43-71.38,64.08-110.69,103.21-110.69s75.78,39.31,103.2,110.69c27.24,70.89,42.24,165.12,42.24,265.32s-15,194.43-42.24,265.32C1083.22,1249,1046.57,1288.3,1007.44,1288.3Zm0-748.84c-78.44,0-142.26,167.25-142.26,372.83s63.82,372.82,142.26,372.82,142.26-167.24,142.26-372.82S1085.88,539.46,1007.44,539.46Z" transform="translate(-440.69 -455)" style="fill:#fff"/><rect x="565.15" y="82.87" width="3.18" height="748.83" style="fill:#fff"/><path d="M1007.44,956c-105,0-203.8-3.46-278.08-9.75-36.16-3.05-64.56-6.62-84.42-10.59-28.83-5.77-32.17-11-32.17-14.5s3.34-8.74,32.17-14.5c19.86-4,48.26-7.54,84.42-10.6,74.28-6.28,173-9.74,278.08-9.74s203.8,3.46,278.08,9.74c36.16,3.06,64.56,6.63,84.42,10.6,28.83,5.76,32.17,11,32.17,14.5s-3.34,8.73-32.17,14.5c-19.86,4-48.26,7.54-84.42,10.59C1211.24,952.51,1112.48,956,1007.44,956Zm0-66.5c-105,0-203.61,3.46-277.81,9.74C621.44,908.36,616,919.07,616,921.13s5.48,12.77,113.67,21.92c74.2,6.28,172.86,9.73,277.81,9.73s203.61-3.45,277.81-9.73c108.2-9.15,113.68-19.87,113.68-21.92s-5.48-12.77-113.68-21.92C1211.05,892.93,1112.39,889.47,1007.44,889.47Z" transform="translate(-440.69 -455)" style="fill:#fff"/><path d="M1007.44,814.23c-179,0-364.22-16.93-364.22-45.28,0-16.12,58.52-26.56,107.61-32.47,68.55-8.26,159.69-12.81,256.61-12.81s188.06,4.55,256.61,12.81c49.09,5.91,107.61,16.35,107.61,32.47C1371.66,797.3,1186.48,814.23,1007.44,814.23Zm0-87.38c-216,0-361,21.77-361,42.1s145.07,42.1,361,42.1,361-21.77,361-42.1S1223.4,726.85,1007.44,726.85Z" transform="translate(-440.69 -455)" style="fill:#fff"/><path d="M1006.35,638.21c-106.38,0-216.42-13.27-216.42-35.49s110-35.48,216.42-35.48,216.41,13.27,216.41,35.48S1112.72,638.21,1006.35,638.21Zm0-67.79c-127.55,0-213.23,16.7-213.23,32.3S878.8,635,1006.35,635s213.22-16.71,213.22-32.31S1133.89,570.42,1006.35,570.42Z" transform="translate(-440.69 -455)" style="fill:#fff"/><path d="M1007.44,1098.11c-96.92,0-188.06-4.55-256.61-12.81-49.09-5.91-107.61-16.35-107.61-32.47s58.52-26.56,107.61-32.48c68.55-8.26,159.69-12.8,256.61-12.8s188.06,4.54,256.61,12.8c49.09,5.92,107.61,16.35,107.61,32.48s-58.52,26.56-107.61,32.47C1195.5,1093.56,1104.36,1098.11,1007.44,1098.11Zm0-87.38c-216,0-361,21.77-361,42.1s145.07,42.1,361,42.1,361-21.77,361-42.1S1223.4,1010.73,1007.44,1010.73Z" transform="translate(-440.69 -455)" style="fill:#fff"/><path d="M1006.35,1254.54c-106.38,0-216.42-13.27-216.42-35.48s110-35.49,216.42-35.49,216.41,13.27,216.41,35.49S1112.72,1254.54,1006.35,1254.54Zm0-67.79c-127.55,0-213.23,16.7-213.23,32.31s85.68,32.3,213.23,32.3,213.22-16.7,213.22-32.3S1133.89,1186.75,1006.35,1186.75Z" transform="translate(-440.69 -455)" style="fill:#fff"/><circle cx="840.91" cy="341.24" r="15.02" style="fill:#fff"/><circle cx="705.26" cy="355.32" r="15.02" style="fill:#fff"/><circle cx="850.79" cy="487.4" r="15.02" style="fill:#fff"/><circle cx="709.76" cy="495.92" r="15.02" style="fill:#fff"/><circle cx="1369.2" cy="765.21" r="15.02" transform="translate(-629.3 127.22) rotate(-22.5)" style="fill:#fff"/><circle cx="958.54" cy="466.52" r="15.02" style="fill:#fff"/><circle cx="566.75" cy="357.26" r="15.02" style="fill:#fff"/><circle cx="566.75" cy="181.07" r="15.02" style="fill:#fff"/><circle cx="1103.27" cy="632.06" r="15.02" transform="translate(-206.06 1105.6) rotate(-76.72)" style="fill:#fff"/><circle cx="744.14" cy="165.72" r="15.02" style="fill:#fff"/><circle cx="780.18" cy="144.99" r="15.02" style="fill:#fff"/><circle cx="566.75" cy="82.96" r="15.02" style="fill:#fff"/><circle cx="692.75" cy="639.58" r="15.02" style="fill:#fff"/><circle cx="1264.25" cy="1081.23" r="15.02" transform="translate(-834.95 755.65) rotate(-45)" style="fill:#fff"/><circle cx="1367.1" cy="1055.87" r="15.02" transform="translate(-786.89 820.94) rotate(-45)" style="fill:#fff"/></g><path d="M1286.87,1724.4a1.83,1.83,0,0,1-1.82-1.83V1246.92a1.83,1.83,0,1,1,3.65,0v475.65A1.83,1.83,0,0,1,1286.87,1724.4Z" transform="translate(-440.69 -455)" style="fill:#97a6b7"/><path d="M1415,1694.52a1.83,1.83,0,0,1-1.83-1.83V1234.92a1.83,1.83,0,0,1,3.65,0v457.77A1.82,1.82,0,0,1,1415,1694.52Z" transform="translate(-440.69 -455)" style="fill:#97a6b7"/><path d="M1711.29,1715.83a1.83,1.83,0,0,1-1.72-1.2l-171.3-472a1.82,1.82,0,0,1,3.43-1.24l171.3,472a1.81,1.81,0,0,1-1.09,2.33A1.73,1.73,0,0,1,1711.29,1715.83Z" transform="translate(-440.69 -455)" style="fill:#97a6b7"/><path d="M1584.83,1752.77a1.81,1.81,0,0,1-1.74-1.29l-153.75-497.64a1.83,1.83,0,1,1,3.49-1.08l153.74,497.65a1.82,1.82,0,0,1-1.2,2.28A2,2,0,0,1,1584.83,1752.77Z" transform="translate(-440.69 -455)" style="fill:#97a6b7"/><polygon points="972.92 779.45 844.37 788.96 844.37 791.86 991.28 798.44 1101.09 784.99 1101.09 782.1 972.92 779.45" style="fill:#97a6b7"/><polygon points="972.92 776.56 844.37 788.96 991.28 795.55 1101.09 782.1 972.92 776.56" style="fill:#e7ebef"/><path d="M1551.57,1645.11a1.83,1.83,0,0,1-.47-3.59l122.4-32.11a1.83,1.83,0,0,1,.93,3.53L1552,1645.05A1.88,1.88,0,0,1,1551.57,1645.11Z" transform="translate(-440.69 -455)" style="fill:#97a6b7"/><path d="M1516.89,1532.46a1.82,1.82,0,0,1-.32-3.62l120.13-21.27a1.82,1.82,0,1,1,.64,3.59l-120.13,21.27A1.73,1.73,0,0,1,1516.89,1532.46Z" transform="translate(-440.69 -455)" style="fill:#97a6b7"/><path d="M1480.84,1416.19a1.83,1.83,0,0,1-.23-3.64l116.26-15a1.8,1.8,0,0,1,2,1.57,1.83,1.83,0,0,1-1.58,2l-116.25,15Z" transform="translate(-440.69 -455)" style="fill:#97a6b7"/><path d="M1457.74,1335.5a1.83,1.83,0,0,1-.28-3.63l109.31-17.1a1.82,1.82,0,0,1,.56,3.6L1458,1335.48Z" transform="translate(-440.69 -455)" style="fill:#97a6b7"/><path d="M659.12,1631.42l-1.29,20.69s2.94,3.11,8.59,1l6.17-20.32Z" transform="translate(-440.69 -455)" style="fill:url(#linear-gradient-19)"/><path d="M661.72,1646.63s-10.14,4.14-8.17,8.62c1.06,2.41,4.71,7.84,7.87,12.36a11.84,11.84,0,0,0,13.09,4.56c1.64-.49,3.32-1,4.81-1.35a3.21,3.21,0,0,0,.25-6.14,23.79,23.79,0,0,0-4.13-1.12c-3.71-.57-8.82-9.33-9.42-12.84S661.72,1646.63,661.72,1646.63Z" transform="translate(-440.69 -455)" style="fill:url(#linear-gradient-20)"/><path d="M637.32,1432.87c14.93,5.15,70.12,26,82.42,73.84a86.5,86.5,0,0,1,2.42,21.26c.33,48.3-27.75,89.18-48.17,113l-19.32-.32c-3.22-12.32-6.17-30.76-1.56-51.51,7.06-31.7,25.39-39.93,21.85-55.49-6.42-28.26-72-24-78.23-49.28C594.49,1475.19,599.4,1459.68,637.32,1432.87Z" transform="translate(-440.69 -455)" style="fill:url(#linear-gradient-21)"/><path d="M452.79,1722.05l28-.66a1.87,1.87,0,0,0,1.15-3.31,7.13,7.13,0,0,0-5.41-1.75c-5.33.56-17.29-6.9-22.71-5.3-1.77.53-3.21,4.7-3.95,5.85A3.36,3.36,0,0,0,452.79,1722.05Z" transform="translate(-440.69 -455)" style="fill:url(#linear-gradient-22)"/><path d="M465.37,1700.51,453.84,1711a12.84,12.84,0,0,0,9.9,1.72l11.8-8.12Z" transform="translate(-440.69 -455)" style="fill:url(#linear-gradient-23)"/><g style="mix-blend-mode:color-burn;opacity:0.30000000000000004"><path d="M686.85,1557.47c7.74-20.9,17-46.67,6.41-61.29-10.73-14.81-34.23-2.31-57.81-14.23-8.74-4.42-17.73-12.34-25.21-26.67-13.23,13.67-15,22.84-13.51,29,6.19,25.31,71.81,21,78.23,49.28,3.54,15.56-14.79,23.79-21.85,55.49a107.46,107.46,0,0,0,.24,46,159,159,0,0,1,11.32-34.68C673.12,1582.05,678.7,1579.48,686.85,1557.47Z" transform="translate(-440.69 -455)" style="fill:url(#linear-gradient-24)"/></g><path d="M645.87,1426.83a502.58,502.58,0,0,1-72.75,171.87A500.5,500.5,0,0,1,476,1706.41a23.54,23.54,0,0,1-16.91-1.3,160.55,160.55,0,0,1,15.79-47.89c17.83-34.33,33.71-33.23,51.62-63.52,13.11-22.19,17.37-45.75,25.89-92.89,6.58-36.39,6.58-45.09,15.6-55.52C586.17,1424.18,620.4,1423.94,645.87,1426.83Z" transform="translate(-440.69 -455)" style="fill:url(#linear-gradient-25)"/><g style="mix-blend-mode:multiply;opacity:0.30000000000000004"><path d="M481.67,1665c6.36-10,17.65-20.51,39.93-41.15,23-21.33,22.13-17.48,26.66-23.78,20.28-28.22,9.29-58.36,14.3-94.75,2.79-20.3,11.75-46.82,37.84-76.54-12.23,2.26-23.94,7.11-32.46,16.52-10.47,11.55-9.69,22.86-15.6,55.52-8.52,47.14-12.78,70.7-25.89,92.89-17.91,30.29-33.79,29.19-51.62,63.52A160.55,160.55,0,0,0,459,1705.11a23.46,23.46,0,0,0,13.75,2C471.32,1683.26,478.44,1670.08,481.67,1665Z" transform="translate(-440.69 -455)" style="fill:url(#linear-gradient-26)"/></g><path d="M670.35,1155.83s7.47,55.56-51.07,94.75l62.3,14.84s19.93-37.28,5.49-99Z" transform="translate(-440.69 -455)" style="fill:url(#linear-gradient-27)"/><path d="M681.31,1166.38s3.36-8.28,2.81-12-9.42-8.71-15.47-13.85.22,5.17,1.63,7.51,6.35,5.87,5.64,13.84Z" transform="translate(-440.69 -455)" style="fill:url(#linear-gradient-28)"/><path d="M611.61,1208.7c3.06-6,4.32-6,5.07-9.18,1.71-7.24-2.71-16.45-6.46-16.58-2.41-.08-2.61,3.68-7.73,9.54-6.27,7.17-10.07,6.23-13.76,12.46-.86,1.46-4.74,8-2.35,12.91,3,6.24,15.06,7.23,20.08,2.41C608.85,1218,607.84,1216.12,611.61,1208.7Z" transform="translate(-440.69 -455)" style="fill:url(#linear-gradient-29)"/><path d="M602.61,1215.2s2.14,11.45.62,20.76c-1.38,8.42-17,17.16-20,19.67s7.93,5.23,17.94,3.92,37.42-10.09,41.58-15-4.85-2.48-12.43-3.4-14.82-13.63-15-20.12S602.61,1215.2,602.61,1215.2Z" transform="translate(-440.69 -455)" style="fill:url(#linear-gradient-30)"/><path d="M605.87,1223.75s7.67,3.36,14.45-2.07c6.08-4.86-3-19.79-9.14-20-2.06-.06-5.07,1.42-6.85,3.58-1.05,1.28-1.11,2.13-2.87,4.18-1.62,1.89-2.33,2.07-2.58,3-.3,1.15.23,3.08,4.39,6.38-2.08-.38-3.86.16-4.56,1.37a2.67,2.67,0,0,0-.27,1.42C598.69,1223.86,601.64,1224.91,605.87,1223.75Z" transform="translate(-440.69 -455)" style="fill:url(#linear-gradient-31)"/><path d="M774.29,1183.88s4.64-.65,3.19-9.51c-1.13-6.95-.28-9.28,1.37-8s1.87,5.24,1.87,5.24,6-5.1,8.44-11.79,4.05-1,4.58,2.29-3.52,13.72-5.81,15.66-5.63,10.47-5.63,10.47Z" transform="translate(-440.69 -455)" style="fill:url(#linear-gradient-32)"/><path d="M786.66,1186.25l-15.84-11.09c-6.42,39.5-21,55-33.42,61.78-29.92,16.36-56.63-12.78-113.9-.88-15.78,3.28-43.29,9.39-58.54,31.88-4,5.91-5.43,10.39-12.08,52.78-8.5,54.2-8.8,63.65-7.6,75.32,2.2,21.36,3.53,34.3,13.38,45.75,26.15,30.41,81.72,14.72,88.69,12.65,12.87-3.81,32.87-9.74,40.81-26.75,3.74-8,3.34-15.32-2.41-44.58-11.4-58-12.85-61.72-9.67-68.07,10.72-21.43,44.7-9.17,73.4-29.1C766.27,1274.29,785.18,1248.9,786.66,1186.25Z" transform="translate(-440.69 -455)" style="fill:url(#linear-gradient-33)"/><path d="M621.3,1446.71c5.6-11.5-1.93-22.09,6.33-35.9,10.52-17.61,29.47-11.63,36.59-24.64,12.19-22.25-35.8-53.27-26.05-88.68,4.65-16.91,20.9-29.15,34.48-33.79,30.14-10.3,49.87,15.93,78.13,7.73,6.69-2,14.38-6,22.16-14.34-6.87,14.5-15.41,23.26-23.46,28.85-28.7,19.93-62.68,7.67-73.4,29.1-3.18,6.35-1.73,10.1,9.67,68.07,5.75,29.26,6.15,36.58,2.41,44.58-7.94,17-27.94,22.94-40.81,26.75-3.82,1.13-22.2,6.33-42.34,5.83C614,1456.62,618.83,1451.78,621.3,1446.71Z" transform="translate(-440.69 -455)" style="mix-blend-mode:multiply;opacity:0.30000000000000004;fill:url(#linear-gradient-34)"/><path d="M867.85,1080.89c13.09,6.65,29.54.54,36.73-13.63s2.41-31.06-10.68-37.7a21.91,21.91,0,0,0-2.06-.91,166.51,166.51,0,0,0,5.49-23.66c.75,0,1.5,0,2.27-.08,14.93-1.34,26.78-15.07,26.47-30.66s-12.68-27.17-27.62-25.83c-.78.07-1.54.19-2.31.32a153.11,153.11,0,0,0-6.39-22.59c.68-.4,1.37-.81,2-1.28,12.78-9,16.86-26.63,9.12-39.47s-24.37-16-37.15-7c-.65.46-1.27,1-1.88,1.46a134.26,134.26,0,0,0-16.57-15.46c.42-.7.83-1.39,1.2-2.13,7.2-14.18,16.6-29.66,3.4-36.1-30.52-14.89-43.61-2.14-50.81,12-.37.73-.69,1.48-1,2.23a135,135,0,0,0-22.27-4.25c0-.79.08-1.58.07-2.38-.32-15.6,4.31-24-10.68-24.33-32.7-.63-43.72,13.57-43.41,29.16,0,.82.09,1.62.17,2.41a153,153,0,0,0-22,8.17c-.34-.69-.7-1.39-1.1-2.06-7.74-12.84-24.37-16-37.15-7s-16.86,26.63-9.12,39.47c.4.66.83,1.27,1.27,1.88A166.43,166.43,0,0,0,638,899.83c-.63-.4-1.28-.78-2-1.13-13.1-6.64-29.54-.54-36.74,13.64s-2.41,31,10.68,37.7c.68.34,1.37.63,2.07.91a166.19,166.19,0,0,0-5.49,23.66c-.75,0-1.51,0-2.27.08-14.94,1.33-26.79,15.06-26.47,30.66s12.68,27.16,27.61,25.83c.78-.07,1.55-.19,2.31-.33a151.93,151.93,0,0,0,6.4,22.59c-.69.4-1.37.82-2,1.29-12.77,9-16.86,26.62-9.12,39.46s33.37,18.81,46.14,9.85c.66-.46-7.71-3.76-7.11-4.27a135.19,135.19,0,0,0,16.58,15.47c-.42.69-.83,1.39-1.21,2.12-7.19,14.18-2.41,31.06,10.68,37.7s29.54.54,36.73-13.64c.38-.73.7-1.48,1-2.22a134.53,134.53,0,0,0,22.27,4.24c-.05.79-.09,1.58-.07,2.38.31,15.6,12.68,27.16,27.61,25.83s26.79-15.06,26.47-30.66c0-.82-.08-1.61-.16-2.4a151.9,151.9,0,0,0,22-8.18c.34.7.69,1.39,1.1,2.06,7.74,12.84,24.37,16,37.15,7s16.86-26.62,9.12-39.47c-.4-.65-.84-1.27-1.28-1.88a165.6,165.6,0,0,0,15.86-18.4A22,22,0,0,0,867.85,1080.89ZM704.66,1083c-47.54-24.12-64.9-85.4-38.78-136.87s85.83-73.64,133.37-49.52S864.14,982,838,1033.48,752.19,1107.12,704.66,1083Z" transform="translate(-440.69 -455)" style="fill:#d8dee8"/><path d="M899.6,1004.91c14.93-1.34,26.78-15.07,26.47-30.67s-12.68-27.16-27.62-25.82c-.78.07-1.54.19-2.31.32a153.11,153.11,0,0,0-6.39-22.59c.68-.4,1.37-.81,2-1.28,12.78-9,28.59-30.59,19.57-42.57-17.12-22.74-34.82-12.89-47.6-3.94-.65.46-1.27,1-1.88,1.46a135.1,135.1,0,0,0-16.57-15.47c.42-.69.83-1.38,1.2-2.12a29.71,29.71,0,0,0,1.67-23.45q-18.49,32.58-36.46,65.48c37.92,27.78,50,82.53,26.31,129.22-20.07,39.56-60,61.78-99,59-1.74,4.51-3.44,9-5.31,13.52-5.05,12.12-10.79,24-16.53,35.85q5.41,1,10.89,1.59c-.05.79-.09,1.58-.07,2.38.31,15.6,9.79,28.85,36.86,27.41,15-.8,17.54-16.64,17.22-32.24,0-.82-.08-1.61-.16-2.4a151.9,151.9,0,0,0,22-8.18c.34.7.69,1.39,1.1,2.06,7.74,12.84,34.59,18.3,47.36,9.34s6.65-28.92-1.09-41.77c-.4-.65-.84-1.27-1.28-1.88a165.6,165.6,0,0,0,15.86-18.4,22,22,0,0,0,2,1.13c13.09,6.65,29.54.54,36.73-13.64s2.42-31-10.68-37.69a21.91,21.91,0,0,0-2.06-.91,166.51,166.51,0,0,0,5.49-23.66C898.08,1005,898.83,1005,899.6,1004.91Z" transform="translate(-440.69 -455)" style="fill:#d8dee8"/><path d="M881.93,1082.49c13.09,6.65,29.54.54,36.73-13.64s2.42-31-10.68-37.7c-.68-.34-1.37-.63-2.06-.91a166.06,166.06,0,0,0,5.49-23.65c.75,0,1.5,0,2.27-.09,14.93-1.33,26.78-15.06,26.47-30.66S927.47,948.68,912.53,950c-.78.07-1.54.2-2.31.33a153.11,153.11,0,0,0-6.39-22.59c.68-.4,1.37-.81,2-1.28,12.78-9,16.86-26.63,9.12-39.47s-24.37-16-37.15-7c-.65.46-1.27,1-1.88,1.46A135.1,135.1,0,0,0,859.38,866c.42-.69.83-1.39,1.2-2.12,7.2-14.18,2.42-31.06-10.68-37.7s-29.53-.54-36.73,13.64c-.37.73-.69,1.48-1,2.23a134.75,134.75,0,0,0-22.27-4.25c.05-.79.08-1.58.07-2.38-.32-15.6-12.68-27.16-27.62-25.83s-26.78,15.06-26.47,30.66c0,.82.09,1.62.17,2.41a151.85,151.85,0,0,0-22,8.17c-.34-.7-.7-1.39-1.1-2.06-7.74-12.84-24.37-16-37.15-7s-16.86,26.63-9.12,39.47c.4.66.83,1.27,1.27,1.88a167.5,167.5,0,0,0-15.85,18.4,22,22,0,0,0-2-1.13c-13.1-6.64-29.54-.54-36.73,13.64s-2.42,31,10.67,37.7c.68.34,1.37.63,2.07.91a166.38,166.38,0,0,0-5.49,23.65c-.75,0-1.51,0-2.27.09-14.94,1.33-26.79,15.06-26.47,30.66s12.68,27.16,27.61,25.83c.78-.07,1.55-.2,2.31-.33a151.93,151.93,0,0,0,6.4,22.59c-.69.4-1.37.82-2,1.28-12.77,9-16.86,26.63-9.11,39.47s24.37,16,37.15,7c.65-.46,1.27-.95,1.87-1.46a135.19,135.19,0,0,0,16.58,15.47c-.42.69-.83,1.39-1.21,2.12-7.19,14.18-2.41,31.06,10.68,37.7s29.54.54,36.74-13.64c.37-.73.69-1.48,1-2.22a134.53,134.53,0,0,0,22.27,4.24c0,.79-.09,1.58-.07,2.38.32,15.6,12.68,27.16,27.61,25.83s26.79-15.06,26.47-30.66c0-.82-.08-1.61-.16-2.41a150.69,150.69,0,0,0,22-8.17c.34.7.69,1.39,1.1,2.06,7.74,12.84,24.37,16,37.15,7s16.86-26.63,9.12-39.47c-.4-.66-.83-1.27-1.28-1.88a165.6,165.6,0,0,0,15.86-18.4A22,22,0,0,0,881.93,1082.49Zm-163.19,2.1c-47.54-24.12-64.9-85.4-38.78-136.87s85.83-73.64,133.37-49.52,64.89,85.4,38.77,136.88S766.27,1108.72,718.74,1084.59Z" transform="translate(-440.69 -455)" style="fill:#fff"/><path d="M1057.85,1512H957a119.36,119.36,0,0,1-119.23-119.22v-29.9a159.6,159.6,0,0,0-70.08-131.67c-52.14-35.6-95.44-82.93-125.2-136.9a378.15,378.15,0,0,1-47-182.16c0-104.81,42.85-203.33,120.67-277.43s181.24-114.87,291.25-114.87,213.45,40.79,291.25,114.87,120.67,172.62,120.67,277.43a378.15,378.15,0,0,1-47,182.16c-29.76,54-73.06,101.3-125.2,136.9a159.6,159.6,0,0,0-70.08,131.67v29.9A119.36,119.36,0,0,1,1057.85,1512Zm-50.41-989c-109.19,0-211.85,40.49-289.05,114S598.7,808.22,598.7,912.15a375,375,0,0,0,46.62,180.62c29.52,53.53,72.47,100.49,124.2,135.81,44.76,30.55,71.48,80.75,71.48,134.3v29.9a116.17,116.17,0,0,0,116,116h100.81a116.17,116.17,0,0,0,116-116v-29.9c0-53.55,26.72-103.75,71.48-134.3,51.73-35.32,94.68-82.28,124.2-135.81a375,375,0,0,0,46.62-180.62c0-103.93-42.51-201.63-119.69-275.12S1116.63,523,1007.44,523Z" transform="translate(-440.69 -455)" style="fill:#fff"/><circle cx="753.94" cy="828.58" r="15.67" style="fill:#fff"/><circle cx="633.69" cy="919.37" r="11.94" style="fill:#fff"/><polygon points="632.17 923.72 630.24 921.19 753.33 827.04 753.78 826.99 932.74 808.84 933.05 812.01 754.55 830.11 632.17 923.72" style="fill:#fff"/><circle cx="1373.59" cy="1267.9" r="11.94" transform="translate(-821.34 167.16) rotate(-22.5)" style="fill:#fff"/><path d="M1352.84,1223.69s-29.2,14.84-29.67,17.21,18.77-.79,26.63-.45,14.33-2.26,13.62-6-3.46-13.09-3.46-13.09Z" transform="translate(-440.69 -455)" style="fill:url(#linear-gradient-35)"/><path d="M1351.77,1211.65l1.78,14.7s4.62,1.84,7.73-.33l1.32-16.13Z" transform="translate(-440.69 -455)" style="fill:url(#linear-gradient-36)"/><path d="M1489.28,1212l3.4,6.1a8,8,0,0,1,.77,5.7c-1.18,5.07-3.55,15-4.59,17.53-1.41,3.5-20.3,5.59-20.3,5.59s-1.69-2.65,2.24-5.85,6.44-3.71,7.82-8.44,2.31-18.09,2.31-18.09Z" transform="translate(-440.69 -455)" style="fill:url(#linear-gradient-37)"/><path d="M1475.14,1196.51c1.25,1.11,7.31,21.7,7.31,21.7s2,2.81,5.7-1.33,1.69-1.86,1.69-1.86l-.7-20.26Z" transform="translate(-440.69 -455)" style="fill:url(#linear-gradient-38)"/><path d="M1335.71,916.35c-1.54,43.84-1.6,91.48.65,142.37C1338.9,1116,1344,1169,1350.44,1217c2.39.09,4.91.1,7.53,0,1.78,0,3.49-.15,5.15-.28a395.18,395.18,0,0,0,10.82-38.68,412.09,412.09,0,0,0,7.56-45.3c5.62-49.66-1-54,3.59-90.8,4-32.6,9.79-33.87,16.54-80.15,7.32-50.21,1.87-57.74-.78-60.46C1389.57,889.76,1363.07,897.65,1335.71,916.35Z" transform="translate(-440.69 -455)" style="fill:url(#linear-gradient-39)"/><path d="M1400.85,901.35c-10.76-11.05-35.37-4.36-61.36,12.5,29.9,36.12,33.16,59.55,29.58,74.75-4.06,17.18-16.37,22.13-16.32,40.92,0,23.09,18.69,29.2,18.29,53.64-.26,16.15-8.45,16-10.38,35.94-2.29,23.61,8.41,31.74,4.94,49.21-1.49,7.52-5.74,17.34-17.86,27.45.87,7.18,1.77,14.28,2.7,21.24,2.39.09,4.91.1,7.53,0,1.78,0,3.49-.15,5.15-.28a395.18,395.18,0,0,0,10.82-38.68,412.09,412.09,0,0,0,7.56-45.3c5.62-49.66-1-54,3.59-90.8,4-32.6,9.79-33.87,16.54-80.15C1409,911.6,1403.5,904.07,1400.85,901.35Z" transform="translate(-440.69 -455)" style="mix-blend-mode:multiply;opacity:0.30000000000000004;fill:url(#linear-gradient-40)"/><path d="M1354.23,915.61a1025,1025,0,0,1,78.35,157.28,1065.8,1065.8,0,0,1,42.37,131.6,14.28,14.28,0,0,0,8.61,1.5,15.81,15.81,0,0,0,9.77-5.9,316.44,316.44,0,0,0,2.23-69.91,266,266,0,0,0-8.79-52.55c-7.11-25.63-12-27.07-21.27-54.19-9.62-28.15-7.29-35.17-16.5-70.4a501.81,501.81,0,0,0-20.59-61.76Z" transform="translate(-440.69 -455)" style="fill:url(#linear-gradient-41)"/><path d="M1323.28,729.42c-20.52-22.35-31.54-23.19-35-39.45-3.41-16.08,2.38-38.74,17.12-47.77,1.09-.66,12.24-7.25,23.9-2.67,17.62,7,13.1,30.29,30.84,46,15,13.35,35.51,11.88,49.37,10.88,33.37-2.39,42.88-20.59,58-13.44,19,9,12.57,41.55,32,48.61,13,4.71,19.7-8.44,38.17-7.82,21.71.72,40.86,19.83,49.37,39.3,15.56,35.58-1.83,78.34-23.2,101.7-17.55,19.19-49.62,38.24-69.75,27.25-15.9-8.68-16-31.53-31.14-33.13-10.79-1.13-14,10.07-27.83,12.75-22.63,4.41-42.92-20.15-48.45-26.85-15.77-19.1-10.38-27.36-28.13-62.11C1351.55,769,1341.45,749.22,1323.28,729.42Z" transform="translate(-440.69 -455)" style="fill:url(#linear-gradient-42)"/><path d="M1143.78,660.4s-4.81-6.72-7.85-11.72-17.28-19-17.28-19-1.09,2.23,2,5.79,9.51,9.67,8,12.26-5.65,4.86-2.64,9.74,8.25,1.54,10.92,5.46,5.42,8.18,5.42,8.18Z" transform="translate(-440.69 -455)" style="fill:url(#linear-gradient-43)"/><path d="M1145.65,656l-9.72,16.44a176.65,176.65,0,0,0,19.38,42.46c4.49,7.12,18.42,28,42,44.81,32.11,22.86,90.6,44.2,107.73,19.86,15.28-21.71-9.38-69.83-13.93-78.47a113.33,113.33,0,0,1-43.71,12.72c-6.36.49-22.93,1.62-41.58-4.79C1171.29,697.18,1152.12,667.25,1145.65,656Z" transform="translate(-440.69 -455)" style="fill:url(#linear-gradient-44)"/><path d="M1253.66,729.47c1.62,8.12,26.87,3.77,32.08,18.51,2.8,7.9-3.14,12.93-3.39,26.36-.28,15,6.89,23.57,12.39,35.4,8,17.33,8.08,34.31,8.14,68.27.08,48.35-10.61,58.07-1.48,73.66,11.88,20.28,40.4,21.57,48.11,21.92,26.36,1.2,29.49-12.8,58.1-14.48,32.67-1.91,37.33,15.85,60.69,8.28,21.35-6.92,28.53-25.33,45.15-21.52,10.39,2.38,13.14,10.85,22.94,9.93s20-10.68,20.73-20.69c.86-12.44-12.74-28.11-34-28.13-8.47,3.32-22.5,7.18-38.12,2.9-25.57-7-38.88-31.33-53.66-58.34-10.22-18.69-29-53-29.23-98.07-.09-18.57,3-24-1.48-33.93-14.7-32.23-71.73-27.42-76.56-26.95C1285.16,696.33,1251.71,719.67,1253.66,729.47Z" transform="translate(-440.69 -455)" style="fill:url(#linear-gradient-45)"/><path d="M1240.92,770l71.63,3.12a2,2,0,0,1,1.74,1.43L1348,879.26c.48,1.5-1,5.25-2.45,5.08l-70.82-10.77a2,2,0,0,1-1.6-1.37l-35.11-97.7C1237.56,773.06,1239.53,770,1240.92,770Z" transform="translate(-440.69 -455)" style="fill:url(#linear-gradient-46)"/><path d="M1239.81,772.6l71.63,3.13a1.94,1.94,0,0,1,1.74,1.42l33.75,104.67a2.11,2.11,0,0,1-2,2.88l-71.25-8.57a2,2,0,0,1-1.59-1.37l-34.13-99.23A2.13,2.13,0,0,1,1239.81,772.6Z" transform="translate(-440.69 -455)" style="fill:url(#linear-gradient-47)"/><path d="M1259.4,776.5l-2.76-8.35a1.14,1.14,0,0,1,1-1.55h26.08a1.05,1.05,0,0,1,1,.81l2.62,9.22a1.14,1.14,0,0,1-1,1.51l-25.94-.89A1,1,0,0,1,1259.4,776.5Z" transform="translate(-440.69 -455)" style="fill:url(#linear-gradient-48)"/><path d="M1303.49,859.36c-4.65-16.87,3-27.85-4.81-41-11.06-18.54-34.8-10.7-42.19-25.66-2-4-2.94-10-.26-19.42l-16.42-.72a2.13,2.13,0,0,0-1.88,2.93l34.13,99.23a2,2,0,0,0,1.59,1.37l43.31,5.21C1309.24,873.82,1305.38,866.22,1303.49,859.36Z" transform="translate(-440.69 -455)" style="mix-blend-mode:multiply;opacity:0.30000000000000004;fill:url(#linear-gradient-49)"/><path d="M1355.8,846.83s-10.82-2.41-15-5.35-8.6-7.66-14.76-7.4-12.34,3.76-9.5,4.56,8.15,7.11,12.21,9.59,13.33,2.71,15.06,2.57,8.54,4.45,8.54,4.45Z" transform="translate(-440.69 -455)" style="fill:url(#linear-gradient-50)"/><path d="M1523.07,907c-8.47,3.32-22.5,7.18-38.12,2.9-25.57-7-38.88-31.33-53.66-58.34-10.22-18.69-29-53-29.23-98.07-.09-18.57,3-24-1.48-33.93a34.83,34.83,0,0,0-2.48-4.45c-11.17,8.44-15.5,16.89-16.77,24.31-3.08,18.07,11.45,32.83,3.89,48.41-7.24,14.93-25.13,10.8-28.86,23.59-4,13.8,15.78,22.12,16.65,43.44,1,25.59-26.47,38.13-21.65,55.24,4.18,14.84,27.21,13.77,27.2,21.73,0,9.46.71-10.08-27.2-21.73-8.46-3.53-48.27,25.86-53.11,20.7-1,8.34-.85,14.05,3.15,20.89,11.88,20.28,40.4,21.57,48.11,21.92,26.36,1.2,29.49-12.8,58.1-14.48,32.67-1.91,37.33,15.85,60.69,8.28,21.35-6.92,28.53-25.33,45.15-21.52,10.39,2.38,13.14,10.85,22.94,9.93s20-10.68,20.73-20.69C1558,922.67,1544.38,907,1523.07,907Z" transform="translate(-440.69 -455)" style="mix-blend-mode:multiply;opacity:0.30000000000000004;fill:url(#linear-gradient-51)"/><path d="M1355.52,841.81l-10,19.86c5.14,2.81,60,31.86,99.83,3.11,4.92-3.56,18-13,25-31.51,7.77-20.39,3.41-39.35.58-51.66-7-30.48-26.78-62.46-54.86-75.31-10.72-4.9-23.46-7.39-35.43-9.72-10.16-2-26.12-4.41-26.46-2.69-.17.84,3.54,1.91,6.12,3.54,15.82,10-4.27,51.33,14.32,71.14,17.81,19,40.93,15.85,44.66,33.06,1.73,8-1.86,15.19-3.45,18.4C1407,837.91,1383,845.92,1355.52,841.81Z" transform="translate(-440.69 -455)" style="fill:url(#linear-gradient-52)"/><path d="M1318.26,662.87s6.45,21,14.48,24.22,20.72,7,22.31,8.46-42.66,17.51-67.47,10.12h0c7.07-3.46,9-4.57,9-4.57a42.25,42.25,0,0,0,8.72-6.43,37,37,0,0,0,8.42-13.26l-2.32-11.89Z" transform="translate(-440.69 -455)" style="fill:url(#linear-gradient-53)"/><path d="M1321.16,672s-3.74,9.28-12.6,7.86c-7.94-1.28-7.53-23.6-2.14-27.4a9.57,9.57,0,0,1,8.15-.64c1.9.78,7.57,6,6.31,13.57,1.75-1,3.49-.87,4.09.06.77,1.19-.47,3.34-.75,3.82A6.6,6.6,0,0,1,1321.16,672Z" transform="translate(-440.69 -455)" style="fill:url(#linear-gradient-54)"/><polygon points="919.89 1145.24 1024.77 1064.69 1007.08 1042.8 902.38 1123.57 919.89 1145.24" style="fill:url(#linear-gradient-55)"/><polygon points="951.38 1194.56 1067.13 1106.52 1035.06 1066.84 919.68 1155.33 951.38 1194.56" style="fill:url(#linear-gradient-56)"/><polygon points="993.4 1296 1197.73 1296 1153.36 1185.22 1071.27 1113.27 955.89 1201.77 993.4 1296" style="fill:url(#linear-gradient-57)"/><polygon points="752.01 857.25 746.59 850.54 751.93 846.21 901.3 1031.04 910.97 1029.6 914.6 1020.66 765.02 835.57 770.38 831.22 775.82 837.95 1009.68 956.26 1011.32 1029.92 956.38 1072.36 943.03 1082.67 888.84 1124.54 817.76 1105.97 752.01 857.25" style="fill:url(#linear-gradient-58)"/></g></g></svg>