<svg xmlns="http://www.w3.org/2000/svg" xmlns:xlink="http://www.w3.org/1999/xlink" viewBox="0 0 1083.21 561.6"><defs><radialGradient id="radial-gradient" cx="421.01" cy="388.1" r="1088.5" gradientUnits="userSpaceOnUse"><stop offset="0" stop-color="#e2e7e7"/><stop offset="0.03" stop-color="#e4e9e9"/><stop offset="0.28" stop-color="#f3f5f5"/><stop offset="0.57" stop-color="#fcfdfd"/><stop offset="1" stop-color="#fff"/></radialGradient><clipPath id="clip-path" transform="translate(289 61.6)"><rect width="750" height="500" style="fill:none"/></clipPath></defs><g style="isolation:isolate"><g id="BACKGROUND"><g style="mix-blend-mode:overlay"><path d="M254.34,461.55a3.58,3.58,0,0,1,6.1-2.53,3.71,3.71,0,0,1,0,5.06,3.57,3.57,0,0,1-6.1-2.53Z" transform="translate(289 61.6)" style="fill:#fff"/><path d="M114.11,458a3.58,3.58,0,0,1,3.59,3.57h0a3.58,3.58,0,0,1-3.59,3.57h0a3.57,3.57,0,0,1-3.57-3.57h0A3.57,3.57,0,0,1,114.11,458Zm20.55,0a3.57,3.57,0,0,1,3.57,3.57h0a3.57,3.57,0,0,1-3.57,3.57h0a3.57,3.57,0,0,1-3.57-3.57h0A3.57,3.57,0,0,1,134.66,458Zm20.54,0a3.57,3.57,0,0,1,3.57,3.57h0a3.57,3.57,0,0,1-3.57,3.57h0a3.58,3.58,0,0,1-3.58-3.57h0A3.58,3.58,0,0,1,155.2,458Zm20.55,0a3.57,3.57,0,0,1,3.57,3.57h0a3.57,3.57,0,0,1-3.57,3.57h0a3.57,3.57,0,0,1-3.57-3.57h0A3.57,3.57,0,0,1,175.75,458Zm20.54,0a3.57,3.57,0,0,1,3.57,3.57h0a3.57,3.57,0,0,1-3.57,3.57h0a3.57,3.57,0,0,1-3.58-3.57h0A3.57,3.57,0,0,1,196.29,458Zm20.53,0a3.57,3.57,0,0,1,3.58,3.57h0a3.57,3.57,0,0,1-3.58,3.57h0a3.59,3.59,0,0,1-3.57-3.57h0A3.59,3.59,0,0,1,216.82,458Zm20.56,0a3.57,3.57,0,0,1,3.57,3.57h0a3.57,3.57,0,0,1-3.57,3.57h0a3.57,3.57,0,0,1-3.58-3.57h0A3.57,3.57,0,0,1,237.38,458Z" transform="translate(289 61.6)" style="fill:#fff"/><path d="M93.57,443.33a3.57,3.57,0,0,1,3.57,3.57h0a3.57,3.57,0,0,1-3.57,3.57h0A3.57,3.57,0,0,1,90,446.9h0A3.57,3.57,0,0,1,93.57,443.33Zm20.55,0a3.57,3.57,0,0,1,3.58,3.57h0a3.57,3.57,0,0,1-3.58,3.57h0a3.57,3.57,0,0,1-3.57-3.57h0A3.57,3.57,0,0,1,114.12,443.33Zm20.54,0a3.57,3.57,0,0,1,3.57,3.57h0a3.57,3.57,0,0,1-3.57,3.57h0a3.57,3.57,0,0,1-3.57-3.57h0A3.57,3.57,0,0,1,134.66,443.33Zm20.54,0a3.57,3.57,0,0,1,3.57,3.57h0a3.57,3.57,0,0,1-3.57,3.57h0a3.58,3.58,0,0,1-3.58-3.57h0A3.58,3.58,0,0,1,155.2,443.33Zm20.55,0a3.57,3.57,0,0,1,3.57,3.57h0a3.57,3.57,0,0,1-3.57,3.57h0a3.57,3.57,0,0,1-3.57-3.57h0A3.57,3.57,0,0,1,175.75,443.33Zm20.54,0a3.57,3.57,0,0,1,3.57,3.57h0a3.57,3.57,0,0,1-3.57,3.57h0a3.57,3.57,0,0,1-3.58-3.57h0A3.57,3.57,0,0,1,196.29,443.33Zm20.53,0a3.57,3.57,0,0,1,3.58,3.57h0a3.57,3.57,0,0,1-3.58,3.57h0a3.57,3.57,0,0,1-3.57-3.57h0A3.57,3.57,0,0,1,216.82,443.33Zm20.56,0A3.57,3.57,0,0,1,241,446.9h0a3.57,3.57,0,0,1-3.57,3.57h0a3.57,3.57,0,0,1-3.58-3.57h0A3.57,3.57,0,0,1,237.38,443.33Z" transform="translate(289 61.6)" style="fill:#fff"/><path d="M73,428.68a3.57,3.57,0,0,1,3.58,3.57h0A3.58,3.58,0,0,1,73,435.83h0a3.58,3.58,0,0,1-3.57-3.58h0A3.57,3.57,0,0,1,73,428.68Zm20.54,0a3.57,3.57,0,0,1,3.57,3.57h0a3.58,3.58,0,0,1-3.57,3.58h0A3.58,3.58,0,0,1,90,432.25h0A3.57,3.57,0,0,1,93.57,428.68Zm20.55,0a3.56,3.56,0,0,1,3.56,3.57h0a3.57,3.57,0,0,1-3.56,3.58h0a3.58,3.58,0,0,1-3.57-3.58h0A3.57,3.57,0,0,1,114.12,428.68Zm20.54,0a3.57,3.57,0,0,1,3.57,3.57h0a3.58,3.58,0,0,1-3.57,3.58h0a3.58,3.58,0,0,1-3.57-3.58h0A3.57,3.57,0,0,1,134.66,428.68Zm20.54,0a3.57,3.57,0,0,1,3.57,3.57h0a3.58,3.58,0,0,1-3.57,3.58h0a3.59,3.59,0,0,1-3.58-3.58h0A3.58,3.58,0,0,1,155.2,428.68Zm20.55,0a3.57,3.57,0,0,1,3.57,3.57h0a3.58,3.58,0,0,1-3.57,3.58h0a3.58,3.58,0,0,1-3.57-3.58h0A3.57,3.57,0,0,1,175.75,428.68Zm20.54,0a3.57,3.57,0,0,1,3.57,3.57h0a3.58,3.58,0,0,1-3.57,3.58h0a3.58,3.58,0,0,1-3.58-3.58h0A3.57,3.57,0,0,1,196.29,428.68Zm20.53,0a3.57,3.57,0,0,1,3.58,3.57h0a3.58,3.58,0,0,1-3.58,3.58h0a3.58,3.58,0,0,1-3.57-3.58h0A3.57,3.57,0,0,1,216.82,428.68Z" transform="translate(289 61.6)" style="fill:#fff"/><path d="M73,414a3.57,3.57,0,0,1,3.58,3.57h0A3.58,3.58,0,0,1,73,421.18h0a3.58,3.58,0,0,1-3.57-3.58h0A3.57,3.57,0,0,1,73,414Zm20.54,0a3.57,3.57,0,0,1,3.57,3.57h0a3.58,3.58,0,0,1-3.57,3.58h0A3.58,3.58,0,0,1,90,417.6h0A3.57,3.57,0,0,1,93.57,414Zm20.55,0a3.56,3.56,0,0,1,3.56,3.57h0a3.57,3.57,0,0,1-3.56,3.58h0a3.58,3.58,0,0,1-3.57-3.58h0A3.57,3.57,0,0,1,114.12,414Zm20.54,0a3.57,3.57,0,0,1,3.57,3.57h0a3.58,3.58,0,0,1-3.57,3.58h0a3.58,3.58,0,0,1-3.57-3.58h0A3.57,3.57,0,0,1,134.66,414Zm20.54,0a3.57,3.57,0,0,1,3.57,3.57h0a3.58,3.58,0,0,1-3.57,3.58h0a3.59,3.59,0,0,1-3.58-3.58h0A3.58,3.58,0,0,1,155.2,414Zm20.55,0a3.57,3.57,0,0,1,3.57,3.57h0a3.58,3.58,0,0,1-3.57,3.58h0a3.58,3.58,0,0,1-3.57-3.58h0A3.57,3.57,0,0,1,175.75,414Zm20.54,0a3.57,3.57,0,0,1,3.57,3.57h0a3.58,3.58,0,0,1-3.57,3.58h0a3.58,3.58,0,0,1-3.58-3.58h0A3.57,3.57,0,0,1,196.29,414Z" transform="translate(289 61.6)" style="fill:#fff"/><path d="M48.91,417.6a3.58,3.58,0,0,1,6.1-2.53,3.71,3.71,0,0,1,0,5.06,3.58,3.58,0,0,1-6.1-2.53Z" transform="translate(289 61.6)" style="fill:#fff"/><path d="M73,399.38A3.58,3.58,0,0,1,76.61,403h0A3.57,3.57,0,0,1,73,406.53h0A3.57,3.57,0,0,1,69.46,403h0A3.57,3.57,0,0,1,73,399.38Zm20.54,0A3.57,3.57,0,0,1,97.14,403h0a3.57,3.57,0,0,1-3.57,3.57h0A3.57,3.57,0,0,1,90,403h0A3.57,3.57,0,0,1,93.57,399.38Zm20.55,0a3.56,3.56,0,0,1,3.56,3.58h0a3.56,3.56,0,0,1-3.56,3.57h0a3.57,3.57,0,0,1-3.57-3.57h0A3.57,3.57,0,0,1,114.12,399.38Zm20.54,0a3.57,3.57,0,0,1,3.57,3.58h0a3.57,3.57,0,0,1-3.57,3.57h0a3.57,3.57,0,0,1-3.57-3.57h0A3.57,3.57,0,0,1,134.66,399.38Zm20.54,0a3.57,3.57,0,0,1,3.57,3.58h0a3.57,3.57,0,0,1-3.57,3.57h0a3.58,3.58,0,0,1-3.58-3.57h0A3.58,3.58,0,0,1,155.2,399.38Zm20.55,0a3.57,3.57,0,0,1,3.57,3.58h0a3.57,3.57,0,0,1-3.57,3.57h0a3.57,3.57,0,0,1-3.57-3.57h0A3.57,3.57,0,0,1,175.75,399.38Z" transform="translate(289 61.6)" style="fill:#fff"/><path d="M48.91,403a3.58,3.58,0,0,1,6.1-2.54,3.71,3.71,0,0,1,0,5.06,3.58,3.58,0,0,1-6.1-2.52Z" transform="translate(289 61.6)" style="fill:#fff"/></g><g style="mix-blend-mode:overlay"><path d="M636.35,223.59a3.57,3.57,0,0,1,3.59,3.57h0a3.58,3.58,0,0,1-3.59,3.57h0a3.57,3.57,0,0,1-3.57-3.57h0A3.57,3.57,0,0,1,636.35,223.59Zm20.56,0a3.57,3.57,0,0,1,3.57,3.57h0a3.57,3.57,0,0,1-3.57,3.57h0a3.57,3.57,0,0,1-3.58-3.57h0A3.57,3.57,0,0,1,656.91,223.59Zm20.53,0a3.57,3.57,0,0,1,3.58,3.57h0a3.57,3.57,0,0,1-3.58,3.57h0a3.57,3.57,0,0,1-3.57-3.57h0A3.57,3.57,0,0,1,677.44,223.59Zm20.55,0a3.57,3.57,0,0,1,3.58,3.57h0a3.57,3.57,0,0,1-3.58,3.57h0a3.57,3.57,0,0,1-3.57-3.57h0A3.57,3.57,0,0,1,698,223.59Zm20.54,0a3.57,3.57,0,0,1,3.58,3.57h0a3.58,3.58,0,0,1-3.58,3.57h0a3.57,3.57,0,0,1-3.57-3.57h0A3.57,3.57,0,0,1,718.53,223.59Zm20.54,0a3.57,3.57,0,0,1,3.57,3.57h0a3.57,3.57,0,0,1-3.57,3.57h0a3.58,3.58,0,0,1-3.57-3.57h0A3.57,3.57,0,0,1,739.07,223.59Z" transform="translate(289 61.6)" style="fill:#fff"/><path d="M615.82,208.94a3.57,3.57,0,0,1,3.57,3.57h0a3.57,3.57,0,0,1-3.57,3.57h0a3.58,3.58,0,0,1-3.58-3.57h0A3.58,3.58,0,0,1,615.82,208.94Zm20.55,0a3.57,3.57,0,0,1,3.57,3.57h0a3.57,3.57,0,0,1-3.57,3.57h0a3.58,3.58,0,0,1-3.58-3.57h0A3.58,3.58,0,0,1,636.37,208.94Zm20.54,0a3.57,3.57,0,0,1,3.57,3.57h0a3.57,3.57,0,0,1-3.57,3.57h0a3.57,3.57,0,0,1-3.58-3.57h0A3.57,3.57,0,0,1,656.91,208.94Zm20.53,0a3.57,3.57,0,0,1,3.58,3.57h0a3.57,3.57,0,0,1-3.58,3.57h0a3.57,3.57,0,0,1-3.57-3.57h0A3.57,3.57,0,0,1,677.44,208.94Zm20.55,0a3.57,3.57,0,0,1,3.58,3.57h0a3.57,3.57,0,0,1-3.58,3.57h0a3.57,3.57,0,0,1-3.57-3.57h0A3.57,3.57,0,0,1,698,208.94Zm20.54,0a3.58,3.58,0,0,1,3.58,3.57h0a3.58,3.58,0,0,1-3.58,3.57h0a3.57,3.57,0,0,1-3.57-3.57h0A3.57,3.57,0,0,1,718.53,208.94Zm20.54,0a3.57,3.57,0,0,1,3.57,3.57h0a3.57,3.57,0,0,1-3.57,3.57h0a3.57,3.57,0,0,1-3.57-3.57h0A3.57,3.57,0,0,1,739.07,208.94Z" transform="translate(289 61.6)" style="fill:#fff"/><path d="M595.28,194.29a3.57,3.57,0,0,1,3.57,3.57h0a3.57,3.57,0,0,1-3.57,3.57h0a3.57,3.57,0,0,1-3.57-3.57h0A3.57,3.57,0,0,1,595.28,194.29Zm20.54,0a3.57,3.57,0,0,1,3.57,3.57h0a3.57,3.57,0,0,1-3.57,3.57h0a3.58,3.58,0,0,1-3.58-3.57h0A3.58,3.58,0,0,1,615.82,194.29Zm20.55,0a3.56,3.56,0,0,1,3.56,3.57h0a3.56,3.56,0,0,1-3.56,3.57h0a3.58,3.58,0,0,1-3.58-3.57h0A3.58,3.58,0,0,1,636.37,194.29Zm20.54,0a3.57,3.57,0,0,1,3.57,3.57h0a3.57,3.57,0,0,1-3.57,3.57h0a3.57,3.57,0,0,1-3.58-3.57h0A3.57,3.57,0,0,1,656.91,194.29Zm20.53,0a3.57,3.57,0,0,1,3.58,3.57h0a3.57,3.57,0,0,1-3.58,3.57h0a3.57,3.57,0,0,1-3.57-3.57h0A3.57,3.57,0,0,1,677.44,194.29Zm20.55,0a3.57,3.57,0,0,1,3.58,3.57h0a3.57,3.57,0,0,1-3.58,3.57h0a3.57,3.57,0,0,1-3.57-3.57h0A3.57,3.57,0,0,1,698,194.29Zm20.54,0a3.58,3.58,0,0,1,3.58,3.57h0a3.58,3.58,0,0,1-3.58,3.57h0a3.57,3.57,0,0,1-3.57-3.57h0A3.57,3.57,0,0,1,718.53,194.29Zm20.54,0a3.57,3.57,0,0,1,3.57,3.57h0a3.57,3.57,0,0,1-3.57,3.57h0a3.57,3.57,0,0,1-3.57-3.57h0A3.57,3.57,0,0,1,739.07,194.29Z" transform="translate(289 61.6)" style="fill:#fff"/><path d="M595.28,179.64a3.57,3.57,0,0,1,3.57,3.57h0a3.57,3.57,0,0,1-3.57,3.57h0a3.57,3.57,0,0,1-3.57-3.57h0A3.57,3.57,0,0,1,595.28,179.64Zm20.54,0a3.57,3.57,0,0,1,3.57,3.57h0a3.57,3.57,0,0,1-3.57,3.57h0a3.58,3.58,0,0,1-3.58-3.57h0A3.58,3.58,0,0,1,615.82,179.64Zm20.55,0a3.56,3.56,0,0,1,3.56,3.57h0a3.56,3.56,0,0,1-3.56,3.57h0a3.58,3.58,0,0,1-3.58-3.57h0A3.58,3.58,0,0,1,636.37,179.64Zm20.54,0a3.57,3.57,0,0,1,3.57,3.57h0a3.57,3.57,0,0,1-3.57,3.57h0a3.57,3.57,0,0,1-3.58-3.57h0A3.57,3.57,0,0,1,656.91,179.64Zm20.53,0a3.57,3.57,0,0,1,3.58,3.57h0a3.57,3.57,0,0,1-3.58,3.57h0a3.57,3.57,0,0,1-3.57-3.57h0A3.57,3.57,0,0,1,677.44,179.64Zm20.55,0a3.57,3.57,0,0,1,3.58,3.57h0a3.57,3.57,0,0,1-3.58,3.57h0a3.57,3.57,0,0,1-3.57-3.57h0A3.57,3.57,0,0,1,698,179.64Zm20.54,0a3.58,3.58,0,0,1,3.58,3.57h0a3.58,3.58,0,0,1-3.58,3.57h0a3.57,3.57,0,0,1-3.57-3.57h0A3.57,3.57,0,0,1,718.53,179.64Z" transform="translate(289 61.6)" style="fill:#fff"/><path d="M571.16,183.21a3.58,3.58,0,0,1,6.1-2.53,3.71,3.71,0,0,1,0,5.06,3.58,3.58,0,0,1-6.1-2.53Z" transform="translate(289 61.6)" style="fill:#fff"/><path d="M595.28,165a3.57,3.57,0,0,1,3.57,3.57h0a3.58,3.58,0,0,1-3.57,3.58h0a3.58,3.58,0,0,1-3.57-3.58h0A3.57,3.57,0,0,1,595.28,165Zm20.54,0a3.57,3.57,0,0,1,3.57,3.57h0a3.58,3.58,0,0,1-3.57,3.58h0a3.59,3.59,0,0,1-3.58-3.58h0A3.58,3.58,0,0,1,615.82,165Zm20.55,0a3.56,3.56,0,0,1,3.56,3.57h0a3.57,3.57,0,0,1-3.56,3.58h0a3.59,3.59,0,0,1-3.58-3.58h0A3.58,3.58,0,0,1,636.37,165Zm20.54,0a3.57,3.57,0,0,1,3.57,3.57h0a3.58,3.58,0,0,1-3.57,3.58h0a3.58,3.58,0,0,1-3.58-3.58h0A3.57,3.57,0,0,1,656.91,165Zm20.53,0a3.57,3.57,0,0,1,3.58,3.57h0a3.58,3.58,0,0,1-3.58,3.58h0a3.58,3.58,0,0,1-3.57-3.58h0A3.57,3.57,0,0,1,677.44,165ZM698,165a3.57,3.57,0,0,1,3.58,3.57h0a3.58,3.58,0,0,1-3.58,3.58h0a3.58,3.58,0,0,1-3.57-3.58h0A3.57,3.57,0,0,1,698,165Z" transform="translate(289 61.6)" style="fill:#fff"/><path d="M571.16,168.56a3.6,3.6,0,0,1,1.05-2.53,3.59,3.59,0,0,1,5,0,3.71,3.71,0,0,1,0,5.06,3.56,3.56,0,0,1-5,0A3.58,3.58,0,0,1,571.16,168.56Z" transform="translate(289 61.6)" style="fill:#fff"/></g><rect x="289" y="61.6" width="750" height="500" style="fill:url(#radial-gradient)"/></g><g id="OBJECTS"><g style="clip-path:url(#clip-path)"><path d="M-23.31,397.36c-106.57,0-193.28-86.7-193.28-193.28S-129.88,10.8-23.31,10.8,170,97.51,170,204.08,83.26,397.36-23.31,397.36Zm0-381.87c-104,0-188.59,84.6-188.59,188.59s84.6,188.59,188.59,188.59,188.59-84.6,188.59-188.59S80.68,15.49-23.31,15.49Z" transform="translate(289 61.6)" style="fill:#ced6db"/><path d="M-23.31,423.71c-121.11,0-219.63-98.52-219.63-219.63S-144.42-15.55-23.31-15.55,196.32,83,196.32,204.08,97.79,423.71-23.31,423.71ZM-23.31,2C-134.73,2-225.37,92.66-225.37,204.08s90.64,202.06,202.06,202.06S178.75,315.5,178.75,204.08,88.11,2-23.31,2Z" transform="translate(289 61.6)" style="fill:#ced6db"/><path d="M-23.31,463.77c-143.2,0-259.69-116.5-259.69-259.69S-166.51-55.61-23.31-55.61,236.38,60.89,236.38,204.08,119.88,463.77-23.31,463.77Zm0-517.74C-165.6-54-281.37,61.79-281.37,204.08S-165.6,462.14-23.31,462.14,234.75,346.37,234.75,204.08,119-54-23.31-54Z" transform="translate(289 61.6)" style="fill:#ced6db"/><path d="M-23.31,388.75C-125.14,388.75-208,305.91-208,204.08S-125.14,19.41-23.31,19.41s184.67,82.84,184.67,184.67S78.51,388.75-23.31,388.75Zm0-367.7c-100.93,0-183,82.11-183,183s82.1,183,183,183,183-82.11,183-183S77.61,21.05-23.31,21.05Z" transform="translate(289 61.6)" style="fill:#ced6db"/><circle cx="-23.31" cy="204.08" r="155.43" transform="translate(65.5 219.64) rotate(-83.56)" style="fill:#ced6db"/><path d="M-163.22,204.69A139.91,139.91,0,0,1-23.31,64.79,139.91,139.91,0,0,1,116.6,204.69,139.91,139.91,0,0,1-23.31,344.6,139.91,139.91,0,0,1-163.22,204.69Z" transform="translate(289 61.6)" style="fill:#dfe6ea"/><circle cx="-23.31" cy="204.08" r="108.44" transform="translate(62.6 234.88) rotate(-87.89)" style="fill:#ced6db"/><path d="M-120.92,204.51A97.61,97.61,0,0,1-23.31,106.9,97.61,97.61,0,0,1,74.3,204.51a97.61,97.61,0,0,1-97.61,97.61A97.61,97.61,0,0,1-120.92,204.51Z" transform="translate(289 61.6)" style="fill:#eff2f4"/><path d="M-16.5-54.79A6.81,6.81,0,0,1-23.31-48a6.81,6.81,0,0,1-6.81-6.81,6.81,6.81,0,0,1,6.81-6.81A6.81,6.81,0,0,1-16.5-54.79Z" transform="translate(289 61.6)" style="fill:#ced6db"/><path d="M-16.5,463a6.81,6.81,0,0,1-6.81,6.82A6.81,6.81,0,0,1-30.12,463a6.81,6.81,0,0,1,6.81-6.81A6.81,6.81,0,0,1-16.5,463Z" transform="translate(289 61.6)" style="fill:#ced6db"/><path d="M-282.18,210.89a6.81,6.81,0,0,1-6.82-6.81,6.81,6.81,0,0,1,6.82-6.81,6.81,6.81,0,0,1,6.81,6.81A6.81,6.81,0,0,1-282.18,210.89Z" transform="translate(289 61.6)" style="fill:#ced6db"/><path d="M164.56,25.85a6.82,6.82,0,1,1,0-9.64A6.83,6.83,0,0,1,164.56,25.85Z" transform="translate(289 61.6)" style="fill:#ced6db"/><path d="M-201.55,392a6.81,6.81,0,0,1-9.63,0,6.81,6.81,0,0,1,0-9.63,6.81,6.81,0,0,1,9.63,0A6.81,6.81,0,0,1-201.55,392Z" transform="translate(289 61.6)" style="fill:#ced6db"/><path d="M154.92,392a6.81,6.81,0,1,1,9.64,0A6.81,6.81,0,0,1,154.92,392Z" transform="translate(289 61.6)" style="fill:#ced6db"/><path d="M-211.18,25.85a6.82,6.82,0,0,1,0-9.64,6.81,6.81,0,0,1,9.63,0,6.81,6.81,0,0,1,0,9.64A6.83,6.83,0,0,1-211.18,25.85Z" transform="translate(289 61.6)" style="fill:#ced6db"/><rect x="263.68" y="17.82" width="4" height="16.89" style="fill:#ced6db"/><rect x="263.68" y="496.66" width="4" height="16.89" style="fill:#ced6db"/><rect x="-33.67" y="-43.64" width="4" height="16.89" transform="translate(290.21 60.48) rotate(-2)" style="fill:#ced6db"/><rect x="-16.95" y="434.91" width="4" height="16.89" transform="translate(273.58 61.35) rotate(-1.99)" style="fill:#ced6db"/><rect x="-42.01" y="-43.21" width="4" height="16.89" transform="translate(291.32 58.73) rotate(-4)" style="fill:#ced6db"/><rect x="-8.61" y="434.47" width="4" height="16.9" transform="translate(258.09 62.22) rotate(-4)" style="fill:#ced6db"/><rect x="-50.34" y="-42.48" width="4" height="16.89" transform="translate(292.28 56.37) rotate(-5.99)" style="fill:#ced6db"/><rect x="-0.28" y="433.74" width="4" height="16.9" transform="translate(242.78 64.21) rotate(-6)" style="fill:#ced6db"/><rect x="-58.63" y="-41.46" width="4" height="16.89" transform="translate(293.03 53.41) rotate(-7.99)" style="fill:#ced6db"/><rect x="8.01" y="432.73" width="4" height="16.89" transform="translate(227.7 67.29) rotate(-8)" style="fill:#ced6db"/><rect x="-66.89" y="-40.15" width="4" height="16.89" transform="translate(293.51 49.86) rotate(-10)" style="fill:#ced6db"/><rect x="16.26" y="431.42" width="4" height="16.89" transform="translate(212.94 71.45) rotate(-9.99)" style="fill:#ced6db"/><rect x="-75.09" y="-38.56" width="4" height="16.89" transform="translate(293.66 45.75) rotate(-12)" style="fill:#ced6db"/><rect x="24.47" y="429.82" width="4" height="16.9" transform="translate(198.36 76.71) rotate(-12.01)" style="fill:#ced6db"/><rect x="-83.23" y="-36.68" width="4" height="16.89" transform="translate(293.41 41.11) rotate(-14)" style="fill:#ced6db"/><rect x="32.61" y="427.95" width="4" height="16.89" transform="translate(184.43 82.95) rotate(-14)" style="fill:#ced6db"/><rect x="-91.3" y="-34.51" width="4" height="16.89" transform="matrix(0.96, -0.28, 0.28, 0.96, 292.72, 35.98)" style="fill:#ced6db"/><rect x="40.69" y="425.78" width="4" height="16.9" transform="translate(170.88 90.22) rotate(-16.01)" style="fill:#ced6db"/><rect x="-99.3" y="-32.07" width="4" height="16.9" transform="translate(291.53 30.38) rotate(-18)" style="fill:#ced6db"/><rect x="48.68" y="423.34" width="4" height="16.89" transform="translate(158.04 98.4) rotate(-18)" style="fill:#ced6db"/><rect x="-107.2" y="-29.35" width="4" height="16.89" transform="matrix(0.94, -0.34, 0.34, 0.94, 289.8, 24.37)" style="fill:#ced6db"/><rect x="56.58" y="420.62" width="4" height="16.89" transform="translate(145.74 107.53) rotate(-20.01)" style="fill:#ced6db"/><rect x="-115" y="-26.35" width="4" height="16.89" transform="translate(287.48 17.98) rotate(-22)" style="fill:#ced6db"/><rect x="64.38" y="417.62" width="4" height="16.9" transform="translate(134.17 117.53) rotate(-22.01)" style="fill:#ced6db"/><rect x="-122.69" y="-23.09" width="4" height="16.89" transform="translate(284.52 11.25) rotate(-24)" style="fill:#ced6db"/><rect x="72.07" y="414.36" width="4" height="16.9" transform="translate(123.43 128.28) rotate(-24)" style="fill:#ced6db"/><rect x="-130.27" y="-19.56" width="4" height="16.9" transform="translate(280.88 4.24) rotate(-26.01)" style="fill:#ced6db"/><rect x="79.65" y="410.83" width="4" height="16.89" transform="translate(113.41 139.86) rotate(-26.01)" style="fill:#ced6db"/><rect x="-137.71" y="-15.76" width="4" height="16.89" transform="translate(276.54 -2.97) rotate(-28)" style="fill:#ced6db"/><rect x="87.09" y="407.03" width="4" height="16.9" transform="translate(104.31 152.11) rotate(-28.01)" style="fill:#ced6db"/><rect x="-145.02" y="-11.71" width="4" height="16.89" transform="translate(271.46 -10.36) rotate(-30.01)" style="fill:#ced6db"/><rect x="94.4" y="402.98" width="4" height="16.9" transform="matrix(0.87, -0.5, 0.5, 0.87, 96.18, 164.94)" style="fill:#ced6db"/><rect x="-152.18" y="-7.41" width="4" height="16.9" transform="translate(265.62 -17.83) rotate(-32)" style="fill:#ced6db"/><rect x="101.57" y="398.67" width="4" height="16.9" transform="translate(88.97 178.37) rotate(-32)" style="fill:#ced6db"/><rect x="-159.19" y="-2.86" width="4" height="16.89" transform="translate(259.01 -25.33) rotate(-33.99)" style="fill:#ced6db"/><rect x="108.57" y="394.12" width="4" height="16.9" transform="translate(82.77 192.28) rotate(-34)" style="fill:#ced6db"/><rect x="-166.04" y="1.94" width="4" height="16.89" transform="translate(251.55 -32.85) rotate(-36.01)" style="fill:#ced6db"/><rect x="115.42" y="389.33" width="4" height="16.9" transform="translate(77.61 206.59) rotate(-36)" style="fill:#ced6db"/><rect x="-172.71" y="6.96" width="4" height="16.89" transform="translate(243.31 -40.24) rotate(-38)" style="fill:#ced6db"/><rect x="122.09" y="384.3" width="4" height="16.9" transform="translate(73.48 221.29) rotate(-38.01)" style="fill:#ced6db"/><rect x="-179.21" y="12.22" width="4" height="16.89" transform="translate(234.26 -47.46) rotate(-40)" style="fill:#ced6db"/><rect x="128.59" y="379.04" width="4" height="16.9" transform="translate(70.44 236.26) rotate(-40.01)" style="fill:#ced6db"/><rect x="-185.52" y="17.71" width="4" height="16.89" transform="translate(224.36 -54.47) rotate(-42)" style="fill:#ced6db"/><rect x="134.9" y="373.56" width="4" height="16.9" transform="translate(68.53 251.36) rotate(-42.01)" style="fill:#ced6db"/><rect x="-191.63" y="23.41" width="4" height="16.89" transform="translate(213.6 -61.22) rotate(-44.02)" style="fill:#ced6db"/><rect x="141.01" y="367.86" width="4" height="16.9" transform="translate(67.71 266.6) rotate(-44.01)" style="fill:#ced6db"/><rect x="-197.54" y="29.32" width="4" height="16.9" transform="translate(202.13 -67.52) rotate(-46)" style="fill:#ced6db"/><rect x="146.92" y="361.95" width="4" height="16.89" transform="translate(68.01 281.87) rotate(-46.01)" style="fill:#ced6db"/><rect x="-203.24" y="35.43" width="4" height="16.9" transform="translate(189.8 -73.43) rotate(-48)" style="fill:#ced6db"/><rect x="152.62" y="355.84" width="4" height="16.9" transform="translate(69.44 297.03) rotate(-48)" style="fill:#ced6db"/><rect x="-208.72" y="41.73" width="4" height="16.89" transform="translate(176.71 -78.83) rotate(-50)" style="fill:#ced6db"/><rect x="158.1" y="349.53" width="4" height="16.9" transform="translate(71.93 312.23) rotate(-50.02)" style="fill:#ced6db"/><rect x="-213.98" y="48.23" width="4" height="16.9" transform="translate(162.88 -83.65) rotate(-51.99)" style="fill:#ced6db"/><rect x="163.36" y="343.03" width="4" height="16.9" transform="translate(75.57 327.02) rotate(-52)" style="fill:#ced6db"/><rect x="-219.01" y="54.9" width="4" height="16.9" transform="translate(148.26 -87.86) rotate(-54.01)" style="fill:#ced6db"/><rect x="168.39" y="336.36" width="4" height="16.9" transform="translate(80.26 341.67) rotate(-54.01)" style="fill:#ced6db"/><rect x="-223.8" y="61.75" width="4" height="16.9" transform="translate(132.99 -91.35) rotate(-56.01)" style="fill:#ced6db"/><rect x="173.18" y="329.51" width="4" height="16.9" transform="translate(86.03 355.88) rotate(-56.01)" style="fill:#ced6db"/><rect x="-228.35" y="68.76" width="4" height="16.89" transform="translate(117.11 -94.06) rotate(-58)" style="fill:#ced6db"/><rect x="177.73" y="322.51" width="4" height="16.9" transform="translate(92.81 369.68) rotate(-58.01)" style="fill:#ced6db"/><rect x="-232.66" y="75.92" width="4" height="16.89" transform="translate(100.59 -95.97) rotate(-60)" style="fill:#ced6db"/><rect x="182.04" y="315.34" width="4" height="16.9" transform="translate(100.6 382.95) rotate(-60.01)" style="fill:#ced6db"/><rect x="-236.71" y="83.23" width="4" height="16.89" transform="translate(83.53 -96.99) rotate(-62)" style="fill:#ced6db"/><rect x="186.09" y="308.03" width="4" height="16.9" transform="translate(109.34 395.54) rotate(-62)" style="fill:#ced6db"/><rect x="-240.5" y="90.68" width="4" height="16.89" transform="translate(65.92 -97.09) rotate(-64.01)" style="fill:#ced6db"/><rect x="189.88" y="300.59" width="4" height="16.89" transform="translate(119.01 407.67) rotate(-64.01)" style="fill:#ced6db"/><rect x="-244.03" y="98.25" width="4" height="16.89" transform="translate(47.93 -96.21) rotate(-66)" style="fill:#ced6db"/><rect x="193.42" y="293.01" width="4" height="16.9" transform="translate(129.54 419.03) rotate(-66.01)" style="fill:#ced6db"/><rect x="-247.3" y="105.94" width="4" height="16.89" transform="translate(29.53 -94.3) rotate(-68)" style="fill:#ced6db"/><rect x="196.68" y="285.32" width="4" height="16.9" transform="translate(140.87 429.5) rotate(-67.99)" style="fill:#ced6db"/><rect x="-250.3" y="113.75" width="4" height="16.89" transform="translate(10.78 -91.32) rotate(-70)" style="fill:#ced6db"/><rect x="199.68" y="277.52" width="4" height="16.9" transform="translate(152.98 439.3) rotate(-70)" style="fill:#ced6db"/><rect x="-253.02" y="121.65" width="4" height="16.89" transform="translate(-8.18 -87.23) rotate(-72)" style="fill:#ced6db"/><rect x="202.39" y="269.62" width="4" height="16.9" transform="matrix(0.31, -0.95, 0.95, 0.31, 165.78, 448.14)" style="fill:#ced6db"/><rect x="-255.46" y="129.64" width="4" height="16.89" transform="translate(-27.33 -82.01) rotate(-74)" style="fill:#ced6db"/><rect x="204.84" y="261.62" width="4" height="16.9" transform="translate(179.22 456.07) rotate(-74)" style="fill:#ced6db"/><rect x="-257.62" y="137.71" width="4" height="16.89" transform="translate(-46.61 -75.62) rotate(-76)" style="fill:#ced6db"/><rect x="207" y="253.55" width="4" height="16.89" transform="translate(193.21 463) rotate(-76)" style="fill:#ced6db"/><rect x="-259.5" y="145.86" width="4" height="16.89" transform="translate(-65.91 -68.05) rotate(-78)" style="fill:#ced6db"/><rect x="208.88" y="245.41" width="4" height="16.89" transform="translate(207.71 468.93) rotate(-78)" style="fill:#ced6db"/><rect x="-261.1" y="154.06" width="4" height="16.89" transform="translate(-85.16 -59.26) rotate(-80)" style="fill:#ced6db"/><rect x="210.48" y="237.2" width="4" height="16.9" transform="translate(222.67 473.86) rotate(-80)" style="fill:#ced6db"/><rect x="-262.4" y="162.31" width="4" height="16.89" transform="translate(-104.29 -49.26) rotate(-82)" style="fill:#ced6db"/><rect x="211.78" y="228.95" width="4" height="16.9" transform="translate(237.94 477.66) rotate(-82)" style="fill:#ced6db"/><rect x="-263.42" y="170.61" width="4" height="16.89" transform="matrix(0.1, -0.99, 0.99, 0.1, -123.2, -38.03)" style="fill:#ced6db"/><rect x="212.8" y="220.66" width="4" height="16.89" transform="translate(253.49 480.37) rotate(-84)" style="fill:#ced6db"/><rect x="-264.15" y="178.93" width="4" height="16.89" transform="translate(-141.78 -25.61) rotate(-86)" style="fill:#ced6db"/><rect x="213.53" y="212.33" width="4" height="16.89" transform="translate(269.26 482) rotate(-86)" style="fill:#ced6db"/><rect x="-264.59" y="187.28" width="4" height="16.89" transform="translate(-160.04 -11.92) rotate(-88)" style="fill:#ced6db"/><rect x="213.97" y="203.98" width="4" height="16.9" transform="matrix(0.03, -1, 1, 0.03, 285.15, 482.48)" style="fill:#ced6db"/><rect x="17.82" y="263.68" width="16.89" height="4" style="fill:#ced6db"/><rect x="496.66" y="263.68" width="16.9" height="4" style="fill:#ced6db"/><rect x="-271.03" y="210.43" width="16.89" height="4" transform="matrix(1, -0.03, 0.03, 1, 281.42, 52.57)" style="fill:#ced6db"/><rect x="207.52" y="193.72" width="16.9" height="4" transform="translate(282.3 69.26) rotate(-2)" style="fill:#ced6db"/><rect x="-270.6" y="218.78" width="16.89" height="4" transform="translate(272.94 43.84) rotate(-4)" style="fill:#ced6db"/><rect x="207.08" y="185.37" width="16.9" height="4" transform="translate(276.39 77.17) rotate(-4.02)" style="fill:#ced6db"/><rect x="-269.87" y="227.1" width="16.89" height="4" transform="translate(263.56 35.48) rotate(-6.01)" style="fill:#ced6db"/><rect x="206.35" y="177.05" width="16.9" height="4" transform="translate(271.43 85.08) rotate(-6.01)" style="fill:#ced6db"/><rect x="-268.85" y="235.4" width="16.89" height="4" transform="translate(253.36 27.62) rotate(-8.01)" style="fill:#ced6db"/><rect x="205.33" y="168.75" width="16.9" height="4" transform="translate(267.31 93.02) rotate(-8)" style="fill:#ced6db"/><rect x="-267.54" y="243.65" width="16.89" height="4" transform="translate(242.35 20.3) rotate(-10.01)" style="fill:#ced6db"/><rect x="204.02" y="160.5" width="16.9" height="4" transform="translate(263.99 101.01) rotate(-10.01)" style="fill:#ced6db"/><rect x="-265.95" y="251.86" width="16.89" height="4" transform="translate(230.48 13.54) rotate(-12.02)" style="fill:#ced6db"/><rect x="202.43" y="152.3" width="16.9" height="4" transform="translate(261.51 108.85) rotate(-12.01)" style="fill:#ced6db"/><rect x="-264.07" y="260" width="16.89" height="4" transform="translate(218 7.54) rotate(-14)" style="fill:#ced6db"/><rect x="200.55" y="144.15" width="16.9" height="4" transform="translate(259.84 116.52) rotate(-14)" style="fill:#ced6db"/><rect x="-261.91" y="268.07" width="16.89" height="4" transform="translate(204.75 2.21) rotate(-16)" style="fill:#ced6db"/><rect x="198.39" y="136.08" width="16.9" height="4" transform="translate(258.95 123.95) rotate(-16)" style="fill:#ced6db"/><rect x="-259.46" y="276.07" width="16.89" height="4" transform="translate(190.78 -2.36) rotate(-18)" style="fill:#ced6db"/><rect x="195.94" y="128.09" width="16.9" height="4" transform="translate(258.8 131.14) rotate(-18)" style="fill:#ced6db"/><rect x="-256.74" y="283.97" width="16.89" height="4" transform="translate(176.18 -6.08) rotate(-20.01)" style="fill:#ced6db"/><rect x="193.22" y="120.19" width="16.9" height="4" transform="translate(259.36 137.97) rotate(-20.01)" style="fill:#ced6db"/><rect x="-253.75" y="291.77" width="16.89" height="4" transform="translate(161.05 -8.91) rotate(-22.01)" style="fill:#ced6db"/><rect x="190.23" y="112.39" width="16.9" height="4" transform="translate(260.61 144.39) rotate(-22.01)" style="fill:#ced6db"/><rect x="-250.48" y="299.46" width="16.89" height="4" transform="translate(145.45 -10.78) rotate(-24)" style="fill:#ced6db"/><rect x="186.96" y="104.69" width="16.9" height="4" transform="translate(262.49 150.31) rotate(-24)" style="fill:#ced6db"/><rect x="-246.95" y="307.04" width="16.89" height="4" transform="translate(129.37 -11.68) rotate(-26)" style="fill:#ced6db"/><rect x="183.43" y="97.12" width="16.89" height="4" transform="translate(264.96 155.76) rotate(-26)" style="fill:#ced6db"/><rect x="-243.16" y="314.48" width="16.89" height="4" transform="translate(112.91 -11.55) rotate(-28)" style="fill:#ced6db"/><rect x="179.64" y="89.67" width="16.9" height="4" transform="translate(267.97 160.65) rotate(-28.01)" style="fill:#ced6db"/><rect x="-239.1" y="321.79" width="16.89" height="4" transform="translate(96.14 -10.35) rotate(-30.01)" style="fill:#ced6db"/><rect x="175.58" y="82.36" width="16.9" height="4" transform="translate(271.47 164.9) rotate(-29.99)" style="fill:#ced6db"/><rect x="-234.8" y="328.96" width="16.89" height="4" transform="translate(79.19 -8.06) rotate(-32)" style="fill:#ced6db"/><rect x="171.28" y="75.2" width="16.9" height="4" transform="matrix(0.85, -0.53, 0.53, 0.85, 275.4, 168.58)" style="fill:#ced6db"/><rect x="-230.25" y="335.97" width="16.89" height="4" transform="translate(62.06 -4.65) rotate(-34)" style="fill:#ced6db"/><rect x="166.73" y="68.19" width="16.9" height="4" transform="translate(279.7 171.58) rotate(-34)" style="fill:#ced6db"/><rect x="-225.46" y="342.81" width="16.9" height="4" transform="translate(44.86 -0.1) rotate(-36)" style="fill:#ced6db"/><rect x="161.93" y="61.35" width="16.9" height="4" transform="translate(284.3 173.86) rotate(-36)" style="fill:#ced6db"/><rect x="-220.43" y="349.48" width="16.89" height="4" transform="translate(27.66 5.61) rotate(-38)" style="fill:#ced6db"/><rect x="156.9" y="54.67" width="16.9" height="4" transform="translate(289.16 175.42) rotate(-38)" style="fill:#ced6db"/><rect x="-215.17" y="355.98" width="16.89" height="4" transform="translate(10.53 12.48) rotate(-40)" style="fill:#ced6db"/><rect x="151.64" y="48.18" width="16.9" height="4" transform="translate(294.2 176.25) rotate(-40)" style="fill:#ced6db"/><rect x="-209.68" y="362.29" width="16.89" height="4" transform="translate(-6.46 20.52) rotate(-42)" style="fill:#ced6db"/><rect x="146.16" y="41.87" width="16.9" height="4" transform="translate(299.35 176.33) rotate(-42)" style="fill:#ced6db"/><rect x="-203.98" y="368.4" width="16.89" height="4" transform="translate(-23.26 29.75) rotate(-44.01)" style="fill:#ced6db"/><rect x="140.46" y="35.76" width="16.9" height="4" transform="translate(304.56 175.65) rotate(-44)" style="fill:#ced6db"/><rect x="-198.08" y="374.31" width="16.89" height="4" transform="translate(-39.52 40.07) rotate(-45.99)" style="fill:#ced6db"/><rect x="134.55" y="29.85" width="16.9" height="4" transform="translate(309.78 174.24) rotate(-46.02)" style="fill:#ced6db"/><rect x="-191.96" y="380.01" width="16.89" height="4" transform="translate(-55.67 51.64) rotate(-48.01)" style="fill:#ced6db"/><rect x="128.44" y="24.15" width="16.9" height="4" transform="translate(314.88 172.02) rotate(-48.02)" style="fill:#ced6db"/><rect x="-185.65" y="385.49" width="16.89" height="4" transform="matrix(0.64, -0.77, 0.77, 0.64, -71.22, 64.31)" style="fill:#ced6db"/><rect x="122.13" y="18.67" width="16.9" height="4" transform="translate(319.83 169.04) rotate(-50.01)" style="fill:#ced6db"/><rect x="-179.16" y="390.75" width="16.89" height="4" transform="translate(-86.11 78.03) rotate(-52)" style="fill:#ced6db"/><rect x="115.64" y="13.41" width="16.9" height="4" transform="translate(324.54 165.31) rotate(-52)" style="fill:#ced6db"/><rect x="-172.49" y="395.78" width="16.89" height="4" transform="translate(-100.41 92.85) rotate(-54)" style="fill:#ced6db"/><rect x="108.96" y="8.38" width="16.9" height="4" transform="translate(328.99 160.87) rotate(-54)" style="fill:#ced6db"/><rect x="-165.64" y="400.57" width="16.89" height="4" transform="translate(-114.09 108.77) rotate(-56.01)" style="fill:#ced6db"/><rect x="102.12" y="3.59" width="16.9" height="4" transform="translate(333.11 155.74) rotate(-56.01)" style="fill:#ced6db"/><rect x="-158.63" y="405.13" width="16.89" height="4" transform="translate(-126.93 125.67) rotate(-58.01)" style="fill:#ced6db"/><rect x="95.11" y="-0.96" width="16.9" height="4" transform="translate(336.81 149.92) rotate(-58.01)" style="fill:#ced6db"/><rect x="-151.47" y="409.43" width="16.89" height="4" transform="translate(-138.82 143.45) rotate(-60)" style="fill:#ced6db"/><rect x="87.95" y="-5.27" width="16.9" height="4" transform="translate(340.03 143.45) rotate(-60.01)" style="fill:#ced6db"/><rect x="-144.16" y="413.48" width="16.89" height="4" transform="translate(-149.93 162.27) rotate(-62.01)" style="fill:#ced6db"/><rect x="80.64" y="-9.32" width="16.9" height="4" transform="translate(342.74 136.39) rotate(-62.02)" style="fill:#ced6db"/><rect x="-136.71" y="417.28" width="16.89" height="4" transform="translate(-159.84 181.75) rotate(-63.99)" style="fill:#ced6db"/><rect x="73.19" y="-13.11" width="16.9" height="4" transform="translate(344.83 128.74) rotate(-64)" style="fill:#ced6db"/><rect x="-129.14" y="420.81" width="16.89" height="4" transform="translate(-168.87 202.19) rotate(-66)" style="fill:#ced6db"/><rect x="65.62" y="-16.65" width="16.9" height="4" transform="translate(346.32 120.58) rotate(-66)" style="fill:#ced6db"/><rect x="-121.45" y="424.07" width="16.89" height="4" transform="matrix(0.37, -0.93, 0.93, 0.37, -176.76, 223.34)" style="fill:#ced6db"/><rect x="57.92" y="-19.91" width="16.9" height="4" transform="translate(347.12 111.94) rotate(-68.01)" style="fill:#ced6db"/><rect x="-113.64" y="427.07" width="16.89" height="4" transform="translate(-183.47 245.14) rotate(-70.01)" style="fill:#ced6db"/><rect x="50.12" y="-22.91" width="16.9" height="4" transform="translate(347.19 102.89) rotate(-70.01)" style="fill:#ced6db"/><rect x="-105.74" y="429.79" width="16.89" height="4" transform="translate(-188.88 267.41) rotate(-72)" style="fill:#ced6db"/><rect x="42.22" y="-25.63" width="16.9" height="4" transform="translate(346.5 93.47) rotate(-72.02)" style="fill:#ced6db"/><rect x="-97.75" y="432.23" width="16.89" height="4" transform="translate(-193.16 290.41) rotate(-74.02)" style="fill:#ced6db"/><rect x="34.23" y="-28.07" width="16.9" height="4" transform="translate(344.98 83.74) rotate(-74.01)" style="fill:#ced6db"/><rect x="-89.68" y="434.39" width="16.89" height="4" transform="translate(-196.05 313.68) rotate(-76.01)" style="fill:#ced6db"/><rect x="26.16" y="-30.23" width="16.9" height="4" transform="translate(342.63 73.78) rotate(-76.01)" style="fill:#ced6db"/><rect x="-81.54" y="436.27" width="16.89" height="4" transform="translate(-197.59 337.24) rotate(-78)" style="fill:#ced6db"/><rect x="18.01" y="-32.11" width="16.9" height="4" transform="translate(339.41 63.64) rotate(-78)" style="fill:#ced6db"/><rect x="-73.33" y="437.87" width="16.89" height="4" transform="translate(-197.86 361.33) rotate(-80.02)" style="fill:#ced6db"/><rect x="9.81" y="-33.71" width="16.9" height="4" transform="translate(335.32 53.37) rotate(-80.02)" style="fill:#ced6db"/><rect x="-65.08" y="439.18" width="16.89" height="4" transform="matrix(0.14, -0.99, 0.99, 0.14, -196.64, 385.3)" style="fill:#ced6db"/><rect x="1.56" y="-35.01" width="16.9" height="4" transform="translate(330.3 43.09) rotate(-82)" style="fill:#ced6db"/><rect x="-56.78" y="440.2" width="16.89" height="4" transform="translate(-194.07 409.52) rotate(-84)" style="fill:#ced6db"/><rect x="-6.74" y="-36.03" width="16.9" height="4" transform="translate(324.37 32.83) rotate(-84)" style="fill:#ced6db"/><rect x="-48.46" y="440.92" width="16.89" height="4" transform="translate(-190.07 433.68) rotate(-86)" style="fill:#ced6db"/><rect x="-15.06" y="-36.76" width="16.9" height="4" transform="translate(317.51 22.65) rotate(-86.02)" style="fill:#ced6db"/><rect x="-40.11" y="441.36" width="16.89" height="4" transform="translate(-184.67 457.94) rotate(-88.01)" style="fill:#ced6db"/><rect x="-23.41" y="-37.2" width="16.9" height="4" transform="translate(309.73 12.67) rotate(-88.01)" style="fill:#ced6db"/><polygon points="974.63 357.36 968.37 357.36 958.94 347.57 965.19 347.57 974.63 357.36" style="fill:#b0b5b7"/><polygon points="986.41 357.36 980.16 357.36 970.72 347.57 976.98 347.57 986.41 357.36" style="fill:#b0b5b7"/><polygon points="998.2 357.36 991.94 357.36 982.51 347.57 988.76 347.57 998.2 357.36" style="fill:#b0b5b7"/><polygon points="1009.98 357.36 1003.73 357.36 994.29 347.57 1000.54 347.57 1009.98 357.36" style="fill:#b0b5b7"/><polygon points="1021.76 357.36 1015.51 357.36 1006.08 347.57 1012.33 347.57 1021.76 357.36" style="fill:#b0b5b7"/><polygon points="1033.55 357.36 1027.3 357.36 1017.86 347.57 1024.11 347.57 1033.55 357.36" style="fill:#b0b5b7"/><polygon points="1045.33 357.36 1039.08 357.36 1029.65 347.57 1035.9 347.57 1045.33 357.36" style="fill:#b0b5b7"/><polygon points="1057.12 357.36 1050.87 357.36 1041.43 347.57 1047.68 347.57 1057.12 357.36" style="fill:#b0b5b7"/><path d="M769.33,195.22H552L495.79,139H371.29l-59.5-59.5H228.5a.5.5,0,0,1,0-1h83.71l59.5,59.5h124.5l56.22,56.22h216.9a.5.5,0,0,1,.5.5A.5.5,0,0,1,769.33,195.22Z" transform="translate(289 61.6)" style="fill:#ced6db"/><path d="M326.87,142.21H79.33a.5.5,0,0,1,0-1H326.46L397.17,70.5h91.14l52.56,52.57h54.92L730.93-12.07a.5.5,0,0,1,.71,0,.51.51,0,0,1,0,.71L596.21,124.07H540.46L487.89,71.5h-90.3Z" transform="translate(289 61.6)" style="fill:#b0b5b7"/><path d="M769.33,302.06h-189l-143.2-143.2H342.44L282.09,98.5H109a1,1,0,0,1,0-2H282.91l60.36,60.36h94.64l143.2,143.2H769.33a1,1,0,0,1,0,2Z" transform="translate(289 61.6)" style="fill:#b0b5b7"/><path d="M580.78,273.17h-159L307.62,159H147a.5.5,0,0,1,0-1H308L422.21,272.17H580.37l111-111H793.71a.5.5,0,0,1,0,1h-102Z" transform="translate(289 61.6)" style="fill:#b0b5b7"/><path d="M243.54,120.83h-60a.5.5,0,0,1-.5-.5.5.5,0,0,1,.5-.5h59.63l63-63H412.87l43.5,43.5H560.46L675.4-14.6a.48.48,0,0,1,.7,0,.48.48,0,0,1,0,.7L560.87,101.33H456l-43.5-43.5H306.54Z" transform="translate(289 61.6)" style="fill:#ced6db"/><path d="M608.21,330.47H534.82L413.17,208.82H260l-36.19-36.18H74a.5.5,0,0,1-.5-.5.5.5,0,0,1,.5-.5H224.21l36.18,36.18H413.58L535.23,329.47h72.56l76-76h85.55a.5.5,0,0,1,.5.5.5.5,0,0,1-.5.5H684.19Z" transform="translate(289 61.6)" style="fill:#b0b5b7"/><path d="M229.75,62H151a1,1,0,0,1,0-2h77.92l44.67-44.67H444.25l33.67-33.66a1,1,0,0,1,1.41,0,1,1,0,0,1,0,1.41L445.08,17.33H274.41Z" transform="translate(289 61.6)" style="fill:#b0b5b7"/><path d="M-13.33,236.84a1,1,0,0,1-.71-.3,1,1,0,0,1,0-1.41L40.05,181H210.84l47.07,47.07h85.26a1,1,0,0,1,0,2H257.09L210,183H40.88l-53.51,53.5A1,1,0,0,1-13.33,236.84Z" transform="translate(289 61.6)" style="fill:#b0b5b7"/><path d="M198.5,79.5H124.79L84.21,38.92H-13.33a.5.5,0,0,1-.5-.5.5.5,0,0,1,.5-.5h98L125.21,78.5H198.5a.5.5,0,0,1,0,1Z" transform="translate(289 61.6)" style="fill:#b0b5b7"/><path d="M151,120.83H96.79L43.88,67.92H-22a.5.5,0,0,1-.5-.5.5.5,0,0,1,.5-.5H44.29l52.92,52.91H151a.5.5,0,0,1,.5.5A.5.5,0,0,1,151,120.83Z" transform="translate(289 61.6)" style="fill:#b0b5b7"/><path d="M79.89,142.12a.51.51,0,0,1-.36-.15L33.2,95.64H-22a.5.5,0,0,1-.5-.5.5.5,0,0,1,.5-.5H33.61l46.63,46.63a.48.48,0,0,1,0,.7A.5.5,0,0,1,79.89,142.12Z" transform="translate(289 61.6)" style="fill:#b0b5b7"/><path d="M633.2,159.5h-70a1,1,0,0,1,0-2h69.12l59-59h30.72a1,1,0,0,1,0,2H692.22Z" transform="translate(289 61.6)" style="fill:#b0b5b7"/><path d="M608,337.06a7.09,7.09,0,1,1,7.08-7.09A7.09,7.09,0,0,1,608,337.06Zm0-13.17a6.09,6.09,0,1,0,6.08,6.08A6.09,6.09,0,0,0,608,323.89Z" transform="translate(289 61.6)" style="fill:#ced6db"/><circle cx="897" cy="391.58" r="4.61" style="fill:#ced6db"/><path d="M552,201.8a7.08,7.08,0,1,1,7.09-7.08A7.09,7.09,0,0,1,552,201.8Zm0-13.16a6.08,6.08,0,1,0,6.09,6.08A6.08,6.08,0,0,0,552,188.64Z" transform="translate(289 61.6)" style="fill:#ced6db"/><circle cx="841.04" cy="256.32" r="4.61" style="fill:#ced6db"/><path d="M556.08,165.58a7.08,7.08,0,1,1,7.09-7.08A7.09,7.09,0,0,1,556.08,165.58Zm0-13.16a6.08,6.08,0,1,0,6.09,6.08A6.09,6.09,0,0,0,556.08,152.42Z" transform="translate(289 61.6)" style="fill:#ced6db"/><circle cx="845.08" cy="220.1" r="4.61" style="fill:#ced6db"/><path d="M482.27,158.5a4.62,4.62,0,1,1-4.61-4.61A4.61,4.61,0,0,1,482.27,158.5Z" transform="translate(289 61.6)" style="fill:#ced6db"/><circle cx="1009.32" cy="293.41" r="4.61" style="fill:#ced6db"/><path d="M426.08,78.66a7.08,7.08,0,1,1,7.09-7.08A7.09,7.09,0,0,1,426.08,78.66Zm0-13.16a6.08,6.08,0,1,0,6.09,6.08A6.09,6.09,0,0,0,426.08,65.5Z" transform="translate(289 61.6)" style="fill:#ced6db"/><circle cx="715.08" cy="133.18" r="4.61" style="fill:#ced6db"/><path d="M350.33,236.34a7.09,7.09,0,1,1,7.09-7.09A7.1,7.1,0,0,1,350.33,236.34Zm0-13.17a6.09,6.09,0,1,0,6.09,6.08A6.09,6.09,0,0,0,350.33,223.17Z" transform="translate(289 61.6)" style="fill:#b0b5b7"/><circle cx="639.33" cy="290.86" r="4.61" style="fill:#b0b5b7"/><path d="M221.92,86.08A7.08,7.08,0,1,1,229,79,7.09,7.09,0,0,1,221.92,86.08Zm0-13.16A6.08,6.08,0,1,0,228,79,6.09,6.09,0,0,0,221.92,72.92Z" transform="translate(289 61.6)" style="fill:#ced6db"/><circle cx="510.91" cy="140.6" r="4.61" style="fill:#ced6db"/><path d="M145.84,66a5,5,0,1,1,5-5A5,5,0,0,1,145.84,66Zm0-9a4,4,0,1,0,4,4A4,4,0,0,0,145.84,57Z" transform="translate(289 61.6)" style="fill:#b0b5b7"/><path d="M149,61a3.14,3.14,0,1,1-3.14-3.14A3.14,3.14,0,0,1,149,61Z" transform="translate(289 61.6)" style="fill:#b0b5b7"/><path d="M44.08,72.39a5,5,0,1,1,5-5A5,5,0,0,1,44.08,72.39Zm0-9a4,4,0,1,0,4,4A4,4,0,0,0,44.08,63.44Z" transform="translate(289 61.6)" style="fill:#b0b5b7"/><path d="M47.22,67.42a3.14,3.14,0,1,1-3.14-3.14A3.14,3.14,0,0,1,47.22,67.42Z" transform="translate(289 61.6)" style="fill:#b0b5b7"/><path d="M142.24,163.48a5,5,0,1,1,5-5A5,5,0,0,1,142.24,163.48Zm0-9a4,4,0,1,0,4,4A4,4,0,0,0,142.24,154.52Z" transform="translate(289 61.6)" style="fill:#b0b5b7"/><path d="M145.38,158.5a3.14,3.14,0,1,1-3.14-3.14A3.14,3.14,0,0,1,145.38,158.5Z" transform="translate(289 61.6)" style="fill:#b0b5b7"/><path d="M69.52,177.11a5,5,0,1,1,5-5A5,5,0,0,1,69.52,177.11Zm0-9a4,4,0,1,0,4,4A4,4,0,0,0,69.52,168.16Z" transform="translate(289 61.6)" style="fill:#b0b5b7"/><path d="M72.66,172.14A3.14,3.14,0,1,1,69.52,169,3.13,3.13,0,0,1,72.66,172.14Z" transform="translate(289 61.6)" style="fill:#b0b5b7"/><circle cx="573.66" cy="140.6" r="5.58" style="fill:#ced6db"/><circle cx="717.04" cy="99.61" r="5.58" transform="translate(874.04 873) rotate(-87.4)" style="fill:#ced6db"/><path d="M664,194.72a5.59,5.59,0,1,1-5.58-5.58A5.58,5.58,0,0,1,664,194.72Z" transform="translate(289 61.6)" style="fill:#ced6db"/><path d="M640.31,301.06a3.66,3.66,0,1,1-3.65-3.66A3.65,3.65,0,0,1,640.31,301.06Z" transform="translate(289 61.6)" style="fill:#ced6db"/><path d="M481.31,272.67a3.66,3.66,0,1,1-3.65-3.65A3.65,3.65,0,0,1,481.31,272.67Z" transform="translate(289 61.6)" style="fill:#ced6db"/><circle cx="807.04" cy="162.55" r="5.58" style="fill:#ced6db"/><path d="M581.38,102a3.94,3.94,0,1,1-3.94-3.93A3.95,3.95,0,0,1,581.38,102Z" transform="translate(289 61.6)" style="fill:#ced6db"/><path d="M595.44,109.05a4.17,4.17,0,1,1-4.17-4.17A4.17,4.17,0,0,1,595.44,109.05Z" transform="translate(289 61.6)" style="fill:#b0b5b7"/><circle cx="647" cy="269.98" r="7.33" style="fill:#b0b5b7"/><circle cx="841.13" cy="334.28" r="7.33" style="fill:#ced6db"/><path d="M330,141.71a3.42,3.42,0,1,1-3.42-3.42A3.42,3.42,0,0,1,330,141.71Z" transform="translate(289 61.6)" style="fill:#ced6db"/><path d="M213.54,182a3.42,3.42,0,1,1-3.42-3.42A3.42,3.42,0,0,1,213.54,182Z" transform="translate(289 61.6)" style="fill:#b0b5b7"/><path d="M350.7,125.29a7.58,7.58,0,1,1,7.58-7.58A7.6,7.6,0,0,1,350.7,125.29Zm0-14.16a6.58,6.58,0,1,0,6.58,6.58A6.59,6.59,0,0,0,350.7,111.13Z" transform="translate(289 61.6)" style="fill:#ced6db"/><path d="M355.59,117.71a4.9,4.9,0,1,1-4.89-4.9A4.9,4.9,0,0,1,355.59,117.71Z" transform="translate(289 61.6)" style="fill:#ced6db"/><circle cx="472.5" cy="181.94" r="5.58" style="fill:#b0b5b7"/><circle cx="440" cy="181.94" r="5.58" style="fill:#b0b5b7"/><circle cx="368.88" cy="203.22" r="5.58" style="fill:#b0b5b7"/><path d="M38.28,95.14a5.59,5.59,0,1,1-5.58-5.58A5.58,5.58,0,0,1,38.28,95.14Z" transform="translate(289 61.6)" style="fill:#b0b5b7"/><circle cx="555.25" cy="159.11" r="2.17" style="fill:#ced6db"/><circle cx="600.91" cy="140.6" r="3.83" style="fill:#ced6db"/><circle cx="490.41" cy="140.6" r="3.83" style="fill:#b0b5b7"/><circle cx="398" cy="159.11" r="3.83" style="fill:#b0b5b7"/><path d="M529.33,38.92h-314a.51.51,0,0,1-.5-.5.5.5,0,0,1,.5-.5h314a.5.5,0,0,1,.5.5A.5.5,0,0,1,529.33,38.92Z" transform="translate(289 61.6)" style="fill:#ced6db"/><circle cx="501.5" cy="100.02" r="3.83" style="fill:#ced6db"/><circle cx="818.33" cy="100.02" r="3.83" style="fill:#ced6db"/><path d="M578.26,101.44a.54.54,0,0,1-.36-.14.51.51,0,0,1,0-.71L694.39-15.9a.51.51,0,0,1,.71,0,.51.51,0,0,1,0,.71L578.61,101.3A.54.54,0,0,1,578.26,101.44Z" transform="translate(289 61.6)" style="fill:#ced6db"/><path d="M592.74,107.93a.47.47,0,0,1-.35-.15.5.5,0,0,1,0-.71L708.87-9.41a.5.5,0,0,1,.71,0,.48.48,0,0,1,0,.7L593.09,107.78A.47.47,0,0,1,592.74,107.93Z" transform="translate(289 61.6)" style="fill:#b0b5b7"/><path d="M718.53,232.31H550.76L477.3,158.85a.5.5,0,0,1,0-.7.5.5,0,0,1,.71,0l73.16,73.16H718.53a.5.5,0,0,1,0,1Z" transform="translate(289 61.6)" style="fill:#ced6db"/><polygon points="649.59 234.5 643.33 234.5 633.9 224.72 640.15 224.72 649.59 234.5" style="fill:#ced6db"/><polygon points="661.37 234.5 655.12 234.5 645.68 224.72 651.93 224.72 661.37 234.5" style="fill:#ced6db"/><polygon points="673.15 234.5 666.9 234.5 657.47 224.72 663.72 224.72 673.15 234.5" style="fill:#ced6db"/><polygon points="684.94 234.5 678.68 234.5 669.25 224.72 675.5 224.72 684.94 234.5" style="fill:#ced6db"/><polygon points="696.72 234.5 690.47 234.5 681.03 224.72 687.29 224.72 696.72 234.5" style="fill:#ced6db"/><polygon points="708.51 234.5 702.25 234.5 692.82 224.72 699.07 224.72 708.51 234.5" style="fill:#ced6db"/><polygon points="720.29 234.5 714.04 234.5 704.6 224.72 710.86 224.72 720.29 234.5" style="fill:#ced6db"/><polygon points="732.08 234.5 725.82 234.5 716.39 224.72 722.64 224.72 732.08 234.5" style="fill:#ced6db"/><polygon points="535.13 324.58 523.53 324.58 506.04 306.43 517.63 306.43 535.13 324.58" style="fill:#ced6db"/><polygon points="556.99 324.58 545.39 324.58 527.89 306.43 539.49 306.43 556.99 324.58" style="fill:#ced6db"/><polygon points="578.84 324.58 567.25 324.58 549.75 306.43 561.34 306.43 578.84 324.58" style="fill:#ced6db"/><polygon points="600.7 324.58 589.1 324.58 571.6 306.43 583.2 306.43 600.7 324.58" style="fill:#ced6db"/><polygon points="622.55 324.58 610.96 324.58 593.46 306.43 605.05 306.43 622.55 324.58" style="fill:#ced6db"/><polygon points="644.41 324.58 632.81 324.58 615.31 306.43 626.91 306.43 644.41 324.58" style="fill:#ced6db"/><polygon points="666.27 324.58 654.67 324.58 637.17 306.43 648.76 306.43 666.27 324.58" style="fill:#ced6db"/><polygon points="688.12 324.58 676.52 324.58 659.03 306.43 670.62 306.43 688.12 324.58" style="fill:#ced6db"/><polygon points="906.83 75.94 918.43 75.94 935.92 57.78 924.33 57.78 906.83 75.94" style="fill:#ced6db"/><polygon points="884.98 75.94 896.57 75.94 914.07 57.78 902.47 57.78 884.98 75.94" style="fill:#ced6db"/><polygon points="863.12 75.94 874.72 75.94 892.21 57.78 880.62 57.78 863.12 75.94" style="fill:#ced6db"/><polygon points="841.26 75.94 852.86 75.94 870.36 57.78 858.76 57.78 841.26 75.94" style="fill:#ced6db"/><polygon points="819.41 75.94 831 75.94 848.5 57.78 836.91 57.78 819.41 75.94" style="fill:#ced6db"/><polygon points="797.55 75.94 809.15 75.94 826.65 57.78 815.05 57.78 797.55 75.94" style="fill:#ced6db"/><polygon points="775.7 75.94 787.29 75.94 804.79 57.78 793.2 57.78 775.7 75.94" style="fill:#ced6db"/><polygon points="753.84 75.94 765.44 75.94 782.93 57.78 771.34 57.78 753.84 75.94" style="fill:#ced6db"/><polygon points="333.6 275.54 340.71 275.54 350.65 266.24 339.52 255.82 332.41 255.82 343.55 266.24 333.6 275.54" style="fill:#b0b5b7"/><polygon points="344.69 275.54 351.8 275.54 361.74 266.24 350.61 255.82 343.5 255.82 354.64 266.24 344.69 275.54" style="fill:#b0b5b7"/><polygon points="355.79 275.54 362.89 275.54 372.84 266.24 361.7 255.82 354.6 255.82 365.73 266.24 355.79 275.54" style="fill:#b0b5b7"/><polygon points="366.88 275.54 373.98 275.54 383.93 266.24 372.8 255.82 365.69 255.82 376.82 266.24 366.88 275.54" style="fill:#b0b5b7"/><polygon points="377.97 275.54 385.08 275.54 395.02 266.24 383.89 255.82 376.78 255.82 387.92 266.24 377.97 275.54" style="fill:#b0b5b7"/><polygon points="389.06 275.54 396.17 275.54 406.11 266.24 394.98 255.82 387.88 255.82 399.01 266.24 389.06 275.54" style="fill:#b0b5b7"/><polygon points="400.16 275.54 407.26 275.54 417.21 266.24 406.07 255.82 398.97 255.82 410.1 266.24 400.16 275.54" style="fill:#b0b5b7"/><polygon points="411.25 275.54 418.36 275.54 428.3 266.24 417.17 255.82 410.06 255.82 421.19 266.24 411.25 275.54" style="fill:#b0b5b7"/><polygon points="422.34 275.54 429.45 275.54 439.39 266.24 428.26 255.82 421.15 255.82 432.29 266.24 422.34 275.54" style="fill:#b0b5b7"/><polygon points="433.44 275.54 440.54 275.54 450.49 266.24 439.35 255.82 432.25 255.82 443.38 266.24 433.44 275.54" style="fill:#b0b5b7"/><polygon points="444.53 275.54 451.63 275.54 461.58 266.24 450.44 255.82 443.34 255.82 454.47 266.24 444.53 275.54" style="fill:#b0b5b7"/><polygon points="775.24 125.79 781.13 125.79 789.36 118.09 780.14 109.46 774.25 109.46 783.48 118.09 775.24 125.79" style="fill:#ced6db"/><polygon points="784.43 125.79 790.31 125.79 798.55 118.09 789.33 109.46 783.44 109.46 792.66 118.09 784.43 125.79" style="fill:#ced6db"/><polygon points="793.61 125.79 799.5 125.79 807.74 118.09 798.51 109.46 792.63 109.46 801.85 118.09 793.61 125.79" style="fill:#ced6db"/><polygon points="802.8 125.79 808.69 125.79 816.92 118.09 807.7 109.46 801.82 109.46 811.04 118.09 802.8 125.79" style="fill:#ced6db"/><polygon points="811.99 125.79 817.87 125.79 826.11 118.09 816.89 109.46 811 109.46 820.23 118.09 811.99 125.79" style="fill:#ced6db"/><polygon points="821.18 125.79 827.06 125.79 835.3 118.09 826.08 109.46 820.19 109.46 829.41 118.09 821.18 125.79" style="fill:#ced6db"/><polygon points="830.36 125.79 836.25 125.79 844.49 118.09 835.26 109.46 829.38 109.46 838.6 118.09 830.36 125.79" style="fill:#ced6db"/><polygon points="839.55 125.79 845.44 125.79 853.67 118.09 844.45 109.46 838.57 109.46 847.79 118.09 839.55 125.79" style="fill:#ced6db"/><polygon points="848.74 125.79 854.62 125.79 862.86 118.09 853.64 109.46 847.75 109.46 856.98 118.09 848.74 125.79" style="fill:#ced6db"/><polygon points="857.93 125.79 863.81 125.79 872.05 118.09 862.83 109.46 856.94 109.46 866.16 118.09 857.93 125.79" style="fill:#ced6db"/><polygon points="867.11 125.79 873 125.79 881.24 118.09 872.01 109.46 866.13 109.46 875.35 118.09 867.11 125.79" style="fill:#ced6db"/></g></g></g></svg>