<?xml version="1.0" encoding="utf-8"?>
<!-- Generator: Adobe Illustrator 26.0.1, SVG Export Plug-In . SVG Version: 6.00 Build 0)  -->
<svg version="1.1" id="search" xmlns="http://www.w3.org/2000/svg" xmlns:xlink="http://www.w3.org/1999/xlink" x="0px" y="0px"
	 viewBox="0 0 800 400" style="enable-background:new 0 0 800 400;" xml:space="preserve">
<style type="text/css">
	.st0{fill:#FEBB09;}
	.st1{opacity:0.09;}
	.st2{fill:#4B0263;}
	.st3{opacity:0.09;fill:#4B0263;}
	.st4{opacity:0.45;fill:#FFD96E;}
	.st5{fill:none;stroke:#02A2CB;stroke-miterlimit:10;}
	.st6{fill:#1B1A1B;}
	.st7{fill:#FF0B00;}
	.st8{fill:#02A2CB;}
	.st9{fill:none;stroke:#FEBB09;stroke-miterlimit:10;}
	.st10{fill:#010305;}
	.st11{fill:none;stroke:#4B0263;stroke-width:2;stroke-miterlimit:10;}
	.st12{fill:#F60034;}
	.st13{fill:#FEB604;}
	.st14{fill:none;stroke:#4B0263;stroke-miterlimit:10;}
	.st15{opacity:0.2;fill:#FDF6E6;}
	.st16{fill:#FCB610;}
</style>
<g>
	<g>
		<g>
			<g>
				<g>
					<path class="st0" d="M533.96,259.79c34.63,1.23,68.42,18.27,90.45,45.7c0.47,0.58,1.34-0.19,0.87-0.77
						c-8.67-10.77-19.15-19.99-30.77-27.26c-18.16-11.38-39.16-18.07-60.45-18.83C533.32,258.59,533.22,259.76,533.96,259.79z"/>
				</g>
				<path class="st0" d="M560.78,263.97c13.27-12.91,31.87-26.99,51.74-27.31c8.79-0.89,15.41,7.06,7.39,13.91
					C603.47,262.83,580.73,261.98,560.78,263.97"/>
				<path class="st0" d="M595.07,278.59c12.1-7.8,28.44-15.66,43.71-12.78c6.86,0.7,10.74,7.83,3.58,11.81
					C627.93,284.42,610.64,280.2,595.07,278.59"/>
				<path class="st0" d="M599.76,281.31c10.84,3.23,24.03,8.66,34.01,16.3c9.07,4.58,29.96,33.38,6.74,29.62
					C621.96,318.7,611.36,298.06,599.76,281.31"/>
				<path class="st0" d="M572.35,266.77c10.71,11.6,22.3,28.24,23.68,45.7c1.22,7.16-3.75,14.7-9.87,7.4
					C575.8,305.12,575.17,284.75,572.35,266.77"/>
				<path class="st0" d="M552.4,261.11c6.87,7.44,14.31,18.12,15.19,29.31c0.78,4.59-2.41,9.43-6.33,4.75
					C554.62,285.72,554.21,272.65,552.4,261.11"/>
			</g>
			<g class="st1">
				<g>
					<path class="st2" d="M391.74,321.42c-10.31,19.8-29.13,34.71-50.44,39.89C359.59,359.88,385.73,339.22,391.74,321.42
						L391.74,321.42z"/>
				</g>
				<path class="st2" d="M381.97,335.85c3.46,11.31,6.08,26.03,0.73,37.68c-1.95,5.36-8.19,7-9.75,0.43
					C370.74,360.99,377.53,348.01,381.97,335.85"/>
				<path class="st2" d="M364.35,351.73c0.96,9.2,0.76,20.89-5.08,28.97c-2.3,3.79-7.32,4.07-7.53-1.2
					C351.99,369.21,359.13,360.34,364.35,351.73"/>
				<path class="st2" d="M361.54,353.7c-7.85,8.7-19.01,18.35-31.53,19.39c-5.5,0.93-10-3.81-5.22-8.46
					C334.67,356.22,349.04,355.79,361.54,353.7"/>
				<path class="st2" d="M377.2,341.81c-9.4,3-21.83,5.12-31.87,1.06c-4.3-1.28-7.09-6.27-1.35-7.8
					C355.02,333.15,366.47,338.44,377.2,341.81"/>
				<path class="st2" d="M385.88,331.78c-6.03,1.93-14,3.28-20.45,0.68c-2.76-0.82-4.55-4.02-0.87-5
					C371.65,326.23,378.99,329.62,385.88,331.78"/>
			</g>
			<g class="st1">
				<g>
					<path class="st2" d="M445.72,66.86c9.26-20.33,27.29-36.25,48.29-42.59C475.83,26.7,450.8,48.76,445.72,66.86L445.72,66.86z"/>
				</g>
				<path class="st2" d="M454.72,51.91c-4.04-11.1-7.42-25.67-2.69-37.58c1.67-5.45,7.82-7.43,9.72-0.96
					C464.63,26.19,458.53,39.53,454.72,51.91"/>
				<path class="st2" d="M471.49,35.1c-1.43-9.14-1.84-20.82,3.56-29.2c2.1-3.91,7.1-4.46,7.58,0.79
					C482.93,16.96,476.26,26.22,471.49,35.1"/>
				<path class="st2" d="M474.2,32.97c7.39-9.11,18.03-19.37,30.47-21.09c5.45-1.23,10.18,3.25,5.65,8.16
					C500.89,28.99,486.57,30.2,474.2,32.97"/>
				<path class="st2" d="M459.17,45.71c9.23-3.51,21.53-6.3,31.77-2.81c4.36,1.04,7.41,5.87,1.76,7.71
					C481.78,53.14,470.07,48.48,459.17,45.71"/>
				<path class="st2" d="M451.03,56.2c5.92-2.25,13.81-4.04,20.38-1.8c2.8,0.67,4.75,3.77,1.13,4.95
					C465.53,60.96,458.02,57.97,451.03,56.2"/>
			</g>
			<g>
				<g>
					<path class="st0" d="M252.18,104.48c-30.38,7.7-63.83,1.44-89.57-16.81c-0.55-0.39-1.12,0.5-0.57,0.89
						c10.13,7.16,21.44,12.52,33.29,15.9C212.25,108.92,238.62,111.8,252.18,104.48L252.18,104.48z"/>
				</g>
				<path class="st0" d="M227.88,107.64c-8.42,14.57-21.19,31.51-38.37,36.81c-7.42,2.99-15.08-2.24-9.77-10.21
					C191.07,119.43,211.03,114.41,227.88,107.64"/>
				<path class="st0" d="M194.57,103.61c-8.63,9.84-20.94,20.8-34.89,22.16c-6.13,1.13-11.22-4.08-5.95-9.35
					C164.63,106.86,180.66,106.15,194.57,103.61"/>
				<path class="st0" d="M189.84,102.44c-16.52-0.24-37.2-3.17-50.24-15.81c-6.22-5.11-5.61-14.53,3.78-13.76
					C161.55,75.58,175.73,90.83,189.84,102.44"/>
				<path class="st0" d="M217.15,108.13c-12.09-7.36-26.17-18.89-31.57-33.7c-2.78-5.91-0.28-13.72,6.79-8.93
					C204.92,75.7,210.37,93.23,217.15,108.13"/>
				<path class="st0" d="M235.84,108c-7.76-4.72-16.79-12.12-20.25-21.62c-1.78-3.79-0.18-8.8,4.36-5.73
					C227.99,87.19,231.49,98.43,235.84,108"/>
			</g>
		</g>
		<g>
			<polygon class="st3" points="315.15,33.25 209.37,200.85 420.94,199.06 			"/>
			<path class="st4" d="M394.7,264.97c-1.59,95.14-139.65,95.13-141.23,0C255.06,169.83,393.13,169.85,394.7,264.97z"/>
			<rect x="390.42" y="102.61" class="st4" width="195.68" height="186.75"/>
		</g>
		<rect x="468.11" y="62.77" class="st5" width="163.91" height="156.42"/>
		<g>
			<rect x="213.65" y="291.35" class="st6" width="30.3" height="31.06"/>
			<rect x="243.95" y="291.35" class="st0" width="30.3" height="31.06"/>
			<rect x="274.25" y="291.35" class="st7" width="30.3" height="31.06"/>
			<rect x="304.55" y="291.35" class="st8" width="30.3" height="31.06"/>
		</g>
		<g>
			<path class="st9" d="M533.19,299.8c-0.59,35.39-51.95,35.39-52.54,0C481.25,264.41,532.61,264.42,533.19,299.8z"/>
			<g>
				<g>
					<g>
						<path class="st10" d="M506.91,264.97c0,0.63,0,1.25,0,1.88c0,1.69,0,3.37,0,5.06c0,2.5,0,5,0,7.5c0,3.05,0,6.1,0,9.15
							c0,3.33,0,6.66,0,9.99c0,3.38,0,6.77,0,10.15c0,3.13,0,6.27,0,9.4c0,2.66,0,5.31,0,7.97c0,1.91,0,3.82,0,5.73
							c0,0.9-0.02,1.81,0,2.71c0,0.04,0,0.08,0,0.12c0,0.98,1.53,0.99,1.53,0c0-0.63,0-1.25,0-1.88c0-1.69,0-3.37,0-5.06
							c0-2.5,0-5,0-7.5c0-3.05,0-6.1,0-9.15c0-3.33,0-6.66,0-9.99c0-3.38,0-6.77,0-10.15c0-3.13,0-6.27,0-9.4c0-2.66,0-5.31,0-7.97
							c0-1.91,0-3.82,0-5.73c0-0.9,0.02-1.81,0-2.71c0-0.04,0-0.08,0-0.12C508.44,263.99,506.91,263.99,506.91,264.97L506.91,264.97
							z"/>
					</g>
				</g>
				<g>
					<g>
						<path class="st10" d="M541.65,299.04c-0.61,0-1.22,0-1.83,0c-1.65,0-3.29,0-4.94,0c-2.44,0-4.88,0-7.32,0
							c-2.98,0-5.95,0-8.93,0c-3.25,0-6.5,0-9.75,0c-3.3,0-6.6,0-9.9,0c-3.06,0-6.11,0-9.17,0c-2.59,0-5.19,0-7.78,0
							c-1.86,0-3.73,0-5.59,0c-0.88,0-1.76-0.01-2.64,0c-0.04,0-0.08,0-0.12,0c-0.98,0-0.99,1.53,0,1.53c0.61,0,1.22,0,1.83,0
							c1.65,0,3.29,0,4.94,0c2.44,0,4.88,0,7.32,0c2.98,0,5.95,0,8.93,0c3.25,0,6.5,0,9.75,0c3.3,0,6.6,0,9.9,0
							c3.06,0,6.11,0,9.17,0c2.59,0,5.19,0,7.78,0c1.86,0,3.73,0,5.59,0c0.88,0,1.76,0.01,2.64,0c0.04,0,0.08,0,0.12,0
							C542.64,300.57,542.64,299.04,541.65,299.04L541.65,299.04z"/>
					</g>
				</g>
			</g>
		</g>
		<g>
			<g>
				<path class="st7" d="M192.86,246.26c-23.13-0.13-23.13-36.14,0-36.26C215.99,210.12,215.99,246.14,192.86,246.26z M192.86,210.9
					c-21.98,0.12-21.98,34.35,0,34.47C214.84,245.24,214.84,211.01,192.86,210.9z"/>
			</g>
			<g>
				<g>
					<g>
						<path class="st10" d="M192.68,205.26c0,15.22,0,30.45,0,45.67c-0.09,0.93,1.33,1.02,1.34,0.08c0-15.22,0-30.45,0-45.67
							C194.11,204.41,192.69,204.32,192.68,205.26L192.68,205.26z"/>
					</g>
				</g>
				<g>
					<g>
						<path class="st10" d="M215.67,227.44c-14.85,0-29.71,0-44.56,0c-0.9-0.09-0.99,1.37-0.07,1.38c14.85,0,29.71,0,44.56,0
							C216.5,228.91,216.59,227.45,215.67,227.44L215.67,227.44z"/>
					</g>
				</g>
			</g>
		</g>
		<path class="st7" d="M534.78,45.37h41.95c2.83,0,5.25,2.08,5.75,4.93c2.22,14.75,3.94,34.69,22.99,34.69
			c-1.44-73.99-1.97-51.46-70.35-55.09c-18.13-0.02-64.16,0.02-82.81,0c-7.89,0-14.38,6.36-14.74,14.44c0,0-1.78,40.64-1.78,40.64
			l0,0c19.44,0.01,20.79-20.7,23.15-35.56c0.41-2.35,2.4-4.05,4.73-4.05h42.81c0.85,58.37,0.85,118.08,0.01,176.08
			c-10.49,1.65-31.49-0.44-31.15,15.8l0,0c26.9,0,63.68,0,90.58,0c0.36-16.23-20.68-14.16-31.14-15.8
			C533.93,163.08,533.93,103.36,534.78,45.37z"/>
		<g>
			<path class="st11" d="M313.66,275.57c-0.98-1.03-70.53,2-70.1-1.09c0,0,4-26.67,4-26.67c0.07-0.46,0.46-0.8,0.91-0.8
				c0.94,0.75,59.48-1.43,59.64,0.75C308.12,247.77,313.66,275.57,313.66,275.57L313.66,275.57z"/>
			<path class="st11" d="M340.05,153.17c-1.98,0.51-56.27-103.79-58.31-92.77c0,0,0,83.52,0,83.52c8.85,2.29,7.02,16.68-2.25,16.41
				c-9.39,0.26-11.08-14.37-2.05-16.47l0-83.72c-1.51-11.45-61.39,95.62-62.57,93.76c-1.57,1.53,32.53,81.36,32.41,82.9
				c0.25,0.63,0.86,1.05,1.53,1.05h58c0.68,0,1.28-0.42,1.53-1.07C308.24,235.31,341.49,154.63,340.05,153.17z"/>
		</g>
		<g>
			<path class="st11" d="M190.55,53.98c0,0,79.36-81.34,178.55,0"/>
			<path class="st2" d="M193.35,56.06c0.1,6.9-10.47,6.9-10.37,0C182.88,49.16,193.45,49.16,193.35,56.06z"/>
			<path class="st2" d="M374.29,56.06c0.1,6.9-10.47,6.9-10.37,0C363.82,49.16,374.39,49.16,374.29,56.06z"/>
			<rect x="275.44" y="13.33" class="st2" width="8.77" height="8.99"/>
		</g>
		<g>
			<g>
				<path class="st8" d="M218.13,362.04c41.72,36.53,88.56,21.6,110.6,0.06l1.18,1.21c-22.54,22.01-70.24,37.26-112.82,0.06
					L218.13,362.04z"/>
			</g>
			<g>
				<path class="st8" d="M327.57,361.41c-0.06-4.31,6.55-4.31,6.49,0C334.12,365.72,327.51,365.72,327.57,361.41z"/>
			</g>
			<g>
				<path class="st8" d="M214.37,361.41c-0.06-4.31,6.55-4.31,6.49,0C220.92,365.72,214.31,365.72,214.37,361.41z"/>
			</g>
			<g>
				<rect x="270.72" y="382.52" class="st8" width="5.49" height="5.63"/>
			</g>
		</g>
		<g>
			<g>
				<path class="st8" d="M648.54,146.63c-28.02-24.53-59.48-14.5-74.27-0.04l-0.79-0.81c15.14-14.78,47.17-25.02,75.77-0.04
					L648.54,146.63z"/>
			</g>
			<g>
				<path class="st8" d="M575.05,147.05c0.04,2.9-4.4,2.9-4.36,0C570.65,144.16,575.09,144.16,575.05,147.05z"/>
			</g>
			<g>
				<path class="st8" d="M651.07,147.05c0.04,2.9-4.4,2.9-4.36,0C646.67,144.16,651.11,144.16,651.07,147.05z"/>
			</g>
			<g>
				<rect x="609.54" y="129.1" class="st8" width="3.69" height="3.78"/>
			</g>
		</g>
		<g>
			<g>
				<g>
					<path class="st2" d="M388.14,147.31l-18.2,3.81c-0.54,0.37-0.76-7.95-0.45-7.73c0,0,15.45-3.24,15.45-3.24
						C385.46,140,387.88,147.14,388.14,147.31L388.14,147.31z"/>
					<path class="st2" d="M388.65,113.67c-0.52,0.24-19.98-23.94-20.2-21.18c0,0,4.38,21.96,4.38,21.96c2.45,0.11,2.72,4,0.27,4.44
						c-2.45,0.59-3.67-3.17-1.4-4.22l-4.39-22.02c-0.92-2.63-11.37,28.15-11.49,28.52c0.41,0.2,12.61,20.11,13.28,19.79
						c0,0,15.25-3.2,15.25-3.2c0.18-0.04,0.32-0.18,0.35-0.37C384.6,137.02,389.11,113.97,388.65,113.67z"/>
				</g>
				<polygon class="st12" points="406.85,241.08 388.41,244.94 369.64,150.89 388.08,147.02 				"/>
			</g>
			<g>
				<polygon class="st13" points="418.16,216.27 399.35,216.79 396.85,120.82 415.66,120.31 				"/>
				<g>
					<path class="st14" d="M415.67,120.6c0,0-18.57,0.51-18.57,0.51c-0.59,0.27,0.61-7.96,0.88-7.69c0,0,15.76-0.43,15.76-0.43
						C414.28,112.92,415.44,120.38,415.67,120.6C415.67,120.6,415.67,120.6,415.67,120.6z"/>
					<path class="st14" d="M421.89,87.56c-0.55,0.14-15.61-27.14-16.29-24.47c0,0,0.58,22.41,0.58,22.41c2.39,0.55,2,4.42-0.49,4.42
						c-2.52,0.14-3.07-3.77-0.67-4.4l-0.58-22.46c-0.37-2.85-15.94,25.6-16.16,26.04c0.37,0.27,9,22.05,9.72,21.86
						c0,0,15.56-0.42,15.56-0.42c0.18,0,0.34-0.12,0.4-0.3C413.93,109.84,422.29,87.94,421.89,87.56z"/>
				</g>
			</g>
			<g>
				<polygon class="st2" points="447.67,146.08 429.36,141.43 431.24,133.57 449.4,138.4 				"/>
				<polygon class="st12" points="425.2,238.98 406.94,234.34 429.47,141.16 447.74,145.8 				"/>
				<g>
					<path class="st14" d="M449.26,135.45l3.29-14.69l-5.15-18.16c-11.28,14.05-11.16,10.12-15.03,28.54L449.26,135.45z"/>
					<line class="st14" x1="440.74" y1="110.6" x2="450.29" y2="112.79"/>
				</g>
			</g>
			<g>
				<path class="st2" d="M415.74,336.42c-25.25,1.9-51.47-1.77-52.97-33.51c0,0,0-90.01,0-90.01c0-2.49,1.97-4.51,4.4-4.51
					c0,0,78.01,0,78.01,0c2.47,0,4.47,2.05,4.47,4.58v88.7C449.64,320.87,434.46,336.42,415.74,336.42z"/>
				<rect x="362.76" y="222.18" class="st15" width="86.87" height="11.89"/>
				<rect x="362.76" y="241.98" class="st15" width="86.87" height="11.89"/>
			</g>
		</g>
		<g>
			<line class="st11" x1="611.6" y1="195.98" x2="611.6" y2="386.02"/>
			<line class="st11" x1="634.96" y1="364.96" x2="378.72" y2="364.96"/>
		</g>
		<g>
			<path class="st2" d="M567.63,352.46c-1.72-7.51-4.94-10.8-12.25-12.56c7.32-1.99,10.32-5.07,12.25-12.56
				c1.3,6.96,5.47,11.23,12.25,12.56C572.49,342.44,570.2,343.91,567.63,352.46z"/>
			<path class="st16" d="M645.01,244.89c-1-4.74-3.41-7.2-8.03-8.23c4.55-1.11,6.94-3.57,8.03-8.23c0.72,4.38,3.76,7.49,8.03,8.23
				C648.48,238.1,646.48,239.58,645.01,244.89z"/>
			<g>
				<path class="st16" d="M533.45,356.93c-8.08,0.11-8.08-12.89,0-12.77C541.53,344.04,541.53,357.05,533.45,356.93z M533.45,346.07
					c-5.66-0.08-5.66,9.02,0,8.94C539.11,355.09,539.11,345.99,533.45,346.07z"/>
			</g>
			<g>
				<path class="st16" d="M652.99,206.48c-3.57,0.05-3.57-5.69,0-5.64C656.56,200.79,656.56,206.54,652.99,206.48z M652.99,201.69
					c-2.5-0.04-2.5,3.98,0,3.95C655.49,205.67,655.49,201.66,652.99,201.69z"/>
			</g>
			<g>
				<path class="st16" d="M460.55,341.21c-3.57,0.05-3.57-5.69,0-5.64C464.12,335.52,464.12,341.27,460.55,341.21z M460.55,336.42
					c-2.5-0.04-2.5,3.98,0,3.95C463.05,340.4,463.05,336.39,460.55,336.42z"/>
			</g>
		</g>
		<g>
			<path class="st16" d="M388.77,34.88c-1.72-7.51-4.94-10.8-12.25-12.56c7.32-1.99,10.32-5.07,12.25-12.56
				c1.3,6.96,5.47,11.23,12.25,12.56C393.63,24.86,391.34,26.33,388.77,34.88z"/>
			<path class="st7" d="M163.8,169.9c-1.72-7.51-4.94-10.8-12.25-12.56c7.32-1.99,10.32-5.07,12.25-12.56
				c1.3,6.96,5.47,11.23,12.25,12.56C168.65,159.88,166.37,161.35,163.8,169.9z"/>
			<path class="st2" d="M246.55,355.99c-1.07-5.07-3.64-7.7-8.58-8.8c4.86-1.19,7.42-3.82,8.58-8.8c0.77,4.68,4.02,8.01,8.58,8.8
				C250.17,348.8,248.19,350.23,246.55,355.99z"/>
			<g>
				<path class="st16" d="M417.01,50.74c-8.08,0.11-8.08-12.89,0-12.77C425.09,37.85,425.09,50.86,417.01,50.74z M417.01,39.88
					c-5.66-0.08-5.66,9.02,0,8.94C422.67,48.9,422.66,39.8,417.01,39.88z"/>
			</g>
			<g>
				<path class="st16" d="M188.17,297.74c-8.08,0.11-8.08-12.89,0-12.77C196.25,284.85,196.25,297.85,188.17,297.74z M188.17,286.88
					c-5.66-0.08-5.66,9.02,0,8.94C193.82,295.9,193.82,286.8,188.17,286.88z"/>
			</g>
			<g>
				<path class="st16" d="M270.72,344.42c-3.57,0.05-3.57-5.69,0-5.64C274.29,338.73,274.29,344.47,270.72,344.42z M270.72,339.63
					c-2.5-0.04-2.5,3.98,0,3.95C273.22,343.61,273.22,339.6,270.72,339.63z"/>
			</g>
			<g>
				<path class="st16" d="M241.51,61.7c-3.57,0.05-3.57-5.69,0-5.64C245.08,56.01,245.08,61.75,241.51,61.7z M241.51,56.9
					c-2.5-0.04-2.5,3.98,0,3.95C244.01,60.88,244.01,56.87,241.51,56.9z"/>
			</g>
			<g>
				<path class="st16" d="M420.94,16.15c-3.57,0.05-3.57-5.69,0-5.64C424.51,10.46,424.51,16.2,420.94,16.15z M420.94,11.35
					c-2.5-0.04-2.5,3.98,0,3.95C423.44,15.34,423.44,11.32,420.94,11.35z"/>
			</g>
			<g>
				<path class="st16" d="M184.78,191.26c-8.08,0.11-8.08-12.89,0-12.77C192.87,178.37,192.87,191.38,184.78,191.26z M184.78,180.4
					c-5.66-0.08-5.66,9.02,0,8.94C190.44,189.42,190.44,180.32,184.78,180.4z"/>
			</g>
		</g>
	</g>
</g>
</svg>
