<svg id="Layer_1" data-name="Layer 1" xmlns="http://www.w3.org/2000/svg" xmlns:xlink="http://www.w3.org/1999/xlink" viewBox="0 0 392.74 295"><defs><clipPath id="clip-path" transform="translate(0.61)"><rect x="107.47" y="48.57" width="179.01" height="162.43" rx="8.79" style="fill:#9bd2a5;stroke:#263238;stroke-linecap:round;stroke-linejoin:round"/></clipPath><clipPath id="clip-path-2" transform="translate(0.61)"><path d="M265.73,58.92H128.22a156.45,156.45,0,0,0-6.06-28.07H271.8A149.89,149.89,0,0,0,265.73,58.92Z" style="fill:#fff;stroke:#263238;stroke-linecap:round;stroke-linejoin:round"/></clipPath><clipPath id="clip-path-3" transform="translate(0.61)"><rect x="289.23" y="63.35" width="5.52" height="15.44" style="fill:#5f5c5c;stroke:#263238;stroke-linecap:round;stroke-linejoin:round"/></clipPath><clipPath id="clip-path-4" transform="translate(0.61)"><rect x="99.2" y="63.35" width="5.52" height="15.44" transform="translate(203.93 142.13) rotate(180)" style="fill:#5f5c5c;stroke:#263238;stroke-linecap:round;stroke-linejoin:round"/></clipPath><clipPath id="clip-path-5" transform="translate(0.61)"><path d="M265.73,89.25H128.22a72.09,72.09,0,0,1-6.06-28.07H271.8C271.8,74.18,265.73,89.25,265.73,89.25Z" style="fill:#fff;stroke:#263238;stroke-linecap:round;stroke-linejoin:round"/></clipPath><clipPath id="clip-path-6" transform="translate(0.61)"><rect x="109.1" y="56.75" width="4.1" height="28.62" style="fill:#5f5c5c;stroke:#263238;stroke-linecap:round;stroke-linejoin:round"/></clipPath><clipPath id="clip-path-7" transform="translate(0.61)"><rect x="280.76" y="56.75" width="4.1" height="28.62" style="fill:#5f5c5c;stroke:#263238;stroke-linecap:round;stroke-linejoin:round"/></clipPath><clipPath id="clip-path-8" transform="translate(0.61)"><path d="M290.72,90.72v46.83a3,3,0,0,1-3,3H106.21a3,3,0,0,1-3-3V90.72a3,3,0,0,1,3-3h83.63v3s-14.28,12.39-38.92,17c3.52,16,22.81,28.18,46.06,28.18s42.53-12.21,46.06-28.18c-24.65-4.57-38.93-17-38.93-17v-3h83.63A3,3,0,0,1,290.72,90.72Z" style="fill:#9bd2a5;stroke:#263238;stroke-linecap:round;stroke-linejoin:round"/></clipPath></defs><rect width="392.74" height="295" style="fill:none"/><path d="M186.53,7.81C269.72.4,269.86,47.33,307.34,91.06s45.51,63.54,31.38,114S277,294.92,218.07,272.54s-92.65-.89-129.8-20.77S37.32,193.48,64.51,148.21,84,16.94,186.53,7.81Z" transform="translate(0.61)" style="fill:#9bd2a5"/><path d="M186.53,7.81C269.72.4,269.86,47.33,307.34,91.06s45.51,63.54,31.38,114S277,294.92,218.07,272.54s-92.65-.89-129.8-20.77S37.32,193.48,64.51,148.21,84,16.94,186.53,7.81Z" transform="translate(0.61)" style="fill:#fff;opacity:0.7000000000000001"/><path d="M316.81,205.57l-.52,4.67,9.12-10.67a30.64,30.64,0,0,0,3.29.18" transform="translate(0.61)" style="fill:none;stroke:#263238;stroke-linecap:round;stroke-linejoin:round"/><path d="M305.37,173.19a13.69,13.69,0,0,0-2.18,6c-.87,7.8,5.24,15.18,14.48,18.59l-.46,4.2" transform="translate(0.61)" style="fill:none;stroke:#263238;stroke-linecap:round;stroke-linejoin:round"/><path d="M308.92,169.3a20.84,20.84,0,0,0-1.69,1.55" transform="translate(0.61)" style="fill:none;stroke:#263238;stroke-linecap:round;stroke-linejoin:round"/><path d="M343.15,169.3a31.11,31.11,0,0,0-29.6-2.84" transform="translate(0.61)" style="fill:none;stroke:#263238;stroke-linecap:round;stroke-linejoin:round"/><path d="M335.05,199.13c8.75-1.81,15.33-7.37,16.13-14.61.56-5.05-1.81-9.93-6.06-13.67" transform="translate(0.61)" style="fill:none;stroke:#263238;stroke-linecap:round;stroke-linejoin:round"/><path d="M313.55,174.48a5.74,5.74,0,0,0,4.28-.9l3.26,2.52c-.23.07-.21-.41,0-.42s.42.21.59.38a3.34,3.34,0,0,0,3.15.6,12.43,12.43,0,0,1,3.27-.62,7.59,7.59,0,0,1,1.94.44,90.53,90.53,0,0,0,13.79,2.77" transform="translate(0.61)" style="fill:none;stroke:#263238;stroke-linecap:round;stroke-linejoin:round"/><path d="M309.7,179.25c.69,0,4.41,0,4.95-.44l.91,1.58,1-1,.51,2c.76.19.66-1.28,1.31-1.71a.9.9,0,0,1,1.18.35,2.64,2.64,0,0,1,.32,1.33l4.58.37.89.08a2.58,2.58,0,0,1,1.35-1c-.17,1.06,1.16,1.66,2.22,1.88q7.83,1.59,15.74,2.75" transform="translate(0.61)" style="fill:none;stroke:#263238;stroke-linecap:round;stroke-linejoin:round"/><path d="M311.74,186.54c.43.29.94-.26,1.46-.33s.94.33,1.39.56,1.21.14,1.23-.38c.11.68.95.92,1.62,1l17.61,2.47" transform="translate(0.61)" style="fill:none;stroke:#263238;stroke-linecap:round;stroke-linejoin:round"/><path d="M76.09,163.63l7,9.49L81.73,160.7a33.48,33.48,0,0,0,4.82-2.88c7.23-5.23,10.14-13.65,7.49-20.43-1.85-4.73-6.22-7.95-11.72-9.29" transform="translate(0.61)" style="fill:none;stroke:#263238;stroke-linecap:round;stroke-linejoin:round"/><path d="M48.21,148.65a13.7,13.7,0,0,0,.86,6.33c2.86,7.31,11.7,11,21.47,9.72" transform="translate(0.61)" style="fill:none;stroke:#263238;stroke-linecap:round;stroke-linejoin:round"/><path d="M49.55,143.56a17.84,17.84,0,0,0-.77,2.15" transform="translate(0.61)" style="fill:none;stroke:#263238;stroke-linecap:round;stroke-linejoin:round"/><path d="M79.86,127.64a30.07,30.07,0,0,0-14.79,2,29.68,29.68,0,0,0-12.75,9.28" transform="translate(0.61)" style="fill:none;stroke:#263238;stroke-linecap:round;stroke-linejoin:round"/><path d="M56.06,146a5.72,5.72,0,0,0,3.37-2.79l4.06.72c-.18.17-.38-.26-.17-.39s.47,0,.7.07a3.39,3.39,0,0,0,3.06-.93,12.9,12.9,0,0,1,2.61-2.08,8,8,0,0,1,1.92-.51,91.08,91.08,0,0,0,13.5-4" transform="translate(0.61)" style="fill:none;stroke:#263238;stroke-linecap:round;stroke-linejoin:round"/><path d="M54.86,152c.6-.35,3.91-2.05,4.18-2.69l1.54,1c.15-.44.29-.88.44-1.33l1.38,1.51c.75-.19,0-1.44.35-2.13a.92.92,0,0,1,1.22-.23,2.59,2.59,0,0,1,.89,1l4.24-1.79.82-.36a2.7,2.7,0,0,1,.7-1.54c.35,1,1.81.93,2.85.63q7.66-2.22,15.21-4.87" transform="translate(0.61)" style="fill:none;stroke:#263238;stroke-linecap:round;stroke-linejoin:round"/><path d="M60.05,157.5c.52.07.72-.66,1.14-1s1-.14,1.5-.15,1.13-.44.92-.91c.41.55,1.25.37,1.9.14l16.74-6" transform="translate(0.61)" style="fill:none;stroke:#263238;stroke-linecap:round;stroke-linejoin:round"/><rect x="108.08" y="48.57" width="179.01" height="162.43" rx="8.79" style="fill:#9bd2a5"/><g style="clip-path:url(#clip-path)"><path d="M286.48,137.55v67.73a5.72,5.72,0,0,1-5.71,5.72H113.19a5.72,5.72,0,0,1-5.72-5.72V191.87h.36v9a6.54,6.54,0,0,0,6.54,6.54h161.9a6.54,6.54,0,0,0,6.54-6.54V147.59a4.55,4.55,0,0,0-4.55-4.55H107.47v-5.49Z" transform="translate(0.61)" style="opacity:0.2"/></g><rect x="108.08" y="48.57" width="179.01" height="162.43" rx="8.79" style="fill:none;stroke:#263238;stroke-linecap:round;stroke-linejoin:round"/><path d="M270.9,156.83v-7.76A2.88,2.88,0,0,0,268,146.2H125.93a2.88,2.88,0,0,0-2.88,2.87v7.76a2.87,2.87,0,0,1-2.87,2.88h0a2.86,2.86,0,0,0-2.87,2.87v15.31a13.31,13.31,0,0,0,13.31,13.32h0a2.13,2.13,0,0,1,2.14,2.13v4.59a6.39,6.39,0,0,0,6.38,6.39H254.81a6.38,6.38,0,0,0,6.38-6.39v-4.59a2.13,2.13,0,0,1,2.14-2.13h0a13.32,13.32,0,0,0,13.32-13.32V162.58a2.87,2.87,0,0,0-2.88-2.87h0A2.88,2.88,0,0,1,270.9,156.83Z" transform="translate(0.61)" style="fill:#263238"/><path d="M133.94,150.6h-5a2.28,2.28,0,0,0-2.29,2.29v1.27c0,2.64,2.14,6,4.78,6s4.78-3.36,4.78-6v-1.27A2.29,2.29,0,0,0,133.94,150.6Z" transform="translate(0.61)" style="fill:#9bd2a5;stroke:#263238;stroke-linecap:round;stroke-linejoin:round"/><path d="M145.85,150.6h-5a2.29,2.29,0,0,0-2.3,2.29v1.27c0,2.64,2.14,6,4.78,6s4.78-3.36,4.78-6v-1.27A2.29,2.29,0,0,0,145.85,150.6Z" transform="translate(0.61)" style="fill:#9bd2a5;stroke:#263238;stroke-linecap:round;stroke-linejoin:round"/><path d="M157.77,150.6h-5a2.29,2.29,0,0,0-2.3,2.29v1.27c0,2.64,2.14,6,4.78,6s4.78-3.36,4.78-6v-1.27A2.28,2.28,0,0,0,157.77,150.6Z" transform="translate(0.61)" style="fill:#9bd2a5;stroke:#263238;stroke-linecap:round;stroke-linejoin:round"/><path d="M169.68,150.6h-5a2.29,2.29,0,0,0-2.3,2.29v1.27c0,2.64,2.15,6,4.79,6s4.78-3.36,4.78-6v-1.27A2.29,2.29,0,0,0,169.68,150.6Z" transform="translate(0.61)" style="fill:#9bd2a5;stroke:#263238;stroke-linecap:round;stroke-linejoin:round"/><path d="M181.59,150.6h-5a2.29,2.29,0,0,0-2.29,2.29v1.27c0,2.64,2.14,6,4.78,6s4.78-3.36,4.78-6v-1.27A2.29,2.29,0,0,0,181.59,150.6Z" transform="translate(0.61)" style="fill:#9bd2a5;stroke:#263238;stroke-linecap:round;stroke-linejoin:round"/><path d="M193.51,150.6h-5a2.29,2.29,0,0,0-2.3,2.29v1.27c0,2.64,2.14,6,4.78,6s4.78-3.36,4.78-6v-1.27A2.29,2.29,0,0,0,193.51,150.6Z" transform="translate(0.61)" style="fill:#9bd2a5;stroke:#263238;stroke-linecap:round;stroke-linejoin:round"/><path d="M205.42,150.6h-5a2.29,2.29,0,0,0-2.3,2.29v1.27c0,2.64,2.14,6,4.78,6s4.78-3.36,4.78-6v-1.27A2.28,2.28,0,0,0,205.42,150.6Z" transform="translate(0.61)" style="fill:#9bd2a5;stroke:#263238;stroke-linecap:round;stroke-linejoin:round"/><path d="M217.33,150.6h-5a2.28,2.28,0,0,0-2.29,2.29v1.27c0,2.64,2.14,6,4.78,6s4.78-3.36,4.78-6v-1.27A2.29,2.29,0,0,0,217.33,150.6Z" transform="translate(0.61)" style="fill:#9bd2a5;stroke:#263238;stroke-linecap:round;stroke-linejoin:round"/><path d="M229.24,150.6h-5a2.29,2.29,0,0,0-2.29,2.29v1.27c0,2.64,2.14,6,4.78,6s4.78-3.36,4.78-6v-1.27A2.29,2.29,0,0,0,229.24,150.6Z" transform="translate(0.61)" style="fill:#9bd2a5;stroke:#263238;stroke-linecap:round;stroke-linejoin:round"/><path d="M241.16,150.6h-5a2.29,2.29,0,0,0-2.3,2.29v1.27c0,2.64,2.14,6,4.78,6s4.78-3.36,4.78-6v-1.27A2.29,2.29,0,0,0,241.16,150.6Z" transform="translate(0.61)" style="fill:#9bd2a5;stroke:#263238;stroke-linecap:round;stroke-linejoin:round"/><path d="M253.07,150.6h-5a2.29,2.29,0,0,0-2.3,2.29v1.27c0,2.64,2.14,6,4.78,6s4.79-3.36,4.79-6v-1.27A2.29,2.29,0,0,0,253.07,150.6Z" transform="translate(0.61)" style="fill:#9bd2a5;stroke:#263238;stroke-linecap:round;stroke-linejoin:round"/><path d="M265,150.6h-5a2.28,2.28,0,0,0-2.29,2.29v1.27c0,2.64,2.14,6,4.78,6s4.78-3.36,4.78-6v-1.27A2.29,2.29,0,0,0,265,150.6Z" transform="translate(0.61)" style="fill:#9bd2a5;stroke:#263238;stroke-linecap:round;stroke-linejoin:round"/><path d="M133.94,175.84h-5a2.29,2.29,0,0,0-2.29,2.3v1.27c0,2.64,2.14,6,4.78,6s4.78-3.35,4.78-6v-1.27A2.3,2.3,0,0,0,133.94,175.84Z" transform="translate(0.61)" style="fill:#9bd2a5;stroke:#263238;stroke-linecap:round;stroke-linejoin:round"/><path d="M145.85,175.84h-5a2.3,2.3,0,0,0-2.3,2.3v1.27c0,2.64,2.14,6,4.78,6s4.78-3.35,4.78-6v-1.27A2.3,2.3,0,0,0,145.85,175.84Z" transform="translate(0.61)" style="fill:#9bd2a5;stroke:#263238;stroke-linecap:round;stroke-linejoin:round"/><path d="M157.77,175.84h-5a2.3,2.3,0,0,0-2.3,2.3v1.27c0,2.64,2.14,6,4.78,6s4.78-3.35,4.78-6v-1.27A2.29,2.29,0,0,0,157.77,175.84Z" transform="translate(0.61)" style="fill:#9bd2a5;stroke:#263238;stroke-linecap:round;stroke-linejoin:round"/><path d="M169.68,175.84h-5a2.3,2.3,0,0,0-2.3,2.3v1.27c0,2.64,2.15,6,4.79,6s4.78-3.35,4.78-6v-1.27A2.3,2.3,0,0,0,169.68,175.84Z" transform="translate(0.61)" style="fill:#9bd2a5;stroke:#263238;stroke-linecap:round;stroke-linejoin:round"/><path d="M181.59,175.84h-5a2.3,2.3,0,0,0-2.29,2.3v1.27c0,2.64,2.14,6,4.78,6s4.78-3.35,4.78-6v-1.27A2.3,2.3,0,0,0,181.59,175.84Z" transform="translate(0.61)" style="fill:#9bd2a5;stroke:#263238;stroke-linecap:round;stroke-linejoin:round"/><path d="M193.51,175.84h-5a2.3,2.3,0,0,0-2.3,2.3v1.27c0,2.64,2.14,6,4.78,6s4.78-3.35,4.78-6v-1.27A2.3,2.3,0,0,0,193.51,175.84Z" transform="translate(0.61)" style="fill:#9bd2a5;stroke:#263238;stroke-linecap:round;stroke-linejoin:round"/><path d="M205.42,175.84h-5a2.3,2.3,0,0,0-2.3,2.3v1.27c0,2.64,2.14,6,4.78,6s4.78-3.35,4.78-6v-1.27A2.29,2.29,0,0,0,205.42,175.84Z" transform="translate(0.61)" style="fill:#9bd2a5;stroke:#263238;stroke-linecap:round;stroke-linejoin:round"/><path d="M217.33,175.84h-5a2.29,2.29,0,0,0-2.29,2.3v1.27c0,2.64,2.14,6,4.78,6s4.78-3.35,4.78-6v-1.27A2.3,2.3,0,0,0,217.33,175.84Z" transform="translate(0.61)" style="fill:#9bd2a5;stroke:#263238;stroke-linecap:round;stroke-linejoin:round"/><path d="M229.24,175.84h-5a2.3,2.3,0,0,0-2.29,2.3v1.27c0,2.64,2.14,6,4.78,6s4.78-3.35,4.78-6v-1.27A2.3,2.3,0,0,0,229.24,175.84Z" transform="translate(0.61)" style="fill:#9bd2a5;stroke:#263238;stroke-linecap:round;stroke-linejoin:round"/><path d="M241.16,175.84h-5a2.3,2.3,0,0,0-2.3,2.3v1.27c0,2.64,2.14,6,4.78,6s4.78-3.35,4.78-6v-1.27A2.3,2.3,0,0,0,241.16,175.84Z" transform="translate(0.61)" style="fill:#9bd2a5;stroke:#263238;stroke-linecap:round;stroke-linejoin:round"/><path d="M253.07,175.84h-5a2.3,2.3,0,0,0-2.3,2.3v1.27c0,2.64,2.14,6,4.78,6s4.79-3.35,4.79-6v-1.27A2.3,2.3,0,0,0,253.07,175.84Z" transform="translate(0.61)" style="fill:#9bd2a5;stroke:#263238;stroke-linecap:round;stroke-linejoin:round"/><path d="M265,175.84h-5a2.29,2.29,0,0,0-2.29,2.3v1.27c0,2.64,2.14,6,4.78,6s4.78-3.35,4.78-6v-1.27A2.3,2.3,0,0,0,265,175.84Z" transform="translate(0.61)" style="fill:#9bd2a5;stroke:#263238;stroke-linecap:round;stroke-linejoin:round"/><path d="M128,163.63h-5a2.29,2.29,0,0,0-2.3,2.29v1.27c0,2.64,2.14,6,4.78,6s4.78-3.36,4.78-6v-1.27A2.29,2.29,0,0,0,128,163.63Z" transform="translate(0.61)" style="fill:#9bd2a5;stroke:#263238;stroke-linecap:round;stroke-linejoin:round"/><path d="M139.9,163.63h-5a2.29,2.29,0,0,0-2.3,2.29v1.27c0,2.64,2.14,6,4.78,6s4.78-3.36,4.78-6v-1.27A2.28,2.28,0,0,0,139.9,163.63Z" transform="translate(0.61)" style="fill:#9bd2a5;stroke:#263238;stroke-linecap:round;stroke-linejoin:round"/><path d="M151.81,163.63h-5a2.28,2.28,0,0,0-2.29,2.29v1.27c0,2.64,2.14,6,4.78,6s4.78-3.36,4.78-6v-1.27A2.29,2.29,0,0,0,151.81,163.63Z" transform="translate(0.61)" style="fill:#9bd2a5;stroke:#263238;stroke-linecap:round;stroke-linejoin:round"/><path d="M163.72,163.63h-5a2.29,2.29,0,0,0-2.29,2.29v1.27c0,2.64,2.14,6,4.78,6s4.78-3.36,4.78-6v-1.27A2.29,2.29,0,0,0,163.72,163.63Z" transform="translate(0.61)" style="fill:#9bd2a5;stroke:#263238;stroke-linecap:round;stroke-linejoin:round"/><path d="M175.64,163.63h-5a2.29,2.29,0,0,0-2.3,2.29v1.27c0,2.64,2.14,6,4.78,6s4.78-3.36,4.78-6v-1.27A2.29,2.29,0,0,0,175.64,163.63Z" transform="translate(0.61)" style="fill:#9bd2a5;stroke:#263238;stroke-linecap:round;stroke-linejoin:round"/><path d="M187.55,163.63h-5a2.29,2.29,0,0,0-2.3,2.29v1.27c0,2.64,2.14,6,4.78,6s4.78-3.36,4.78-6v-1.27A2.28,2.28,0,0,0,187.55,163.63Z" transform="translate(0.61)" style="fill:#9bd2a5;stroke:#263238;stroke-linecap:round;stroke-linejoin:round"/><path d="M199.46,163.63h-5a2.28,2.28,0,0,0-2.29,2.29v1.27c0,2.64,2.14,6,4.78,6s4.78-3.36,4.78-6v-1.27A2.29,2.29,0,0,0,199.46,163.63Z" transform="translate(0.61)" style="fill:#9bd2a5;stroke:#263238;stroke-linecap:round;stroke-linejoin:round"/><path d="M211.37,163.63h-5a2.29,2.29,0,0,0-2.3,2.29v1.27c0,2.64,2.14,6,4.78,6s4.78-3.36,4.78-6v-1.27A2.29,2.29,0,0,0,211.37,163.63Z" transform="translate(0.61)" style="fill:#9bd2a5;stroke:#263238;stroke-linecap:round;stroke-linejoin:round"/><path d="M223.29,163.63h-5a2.29,2.29,0,0,0-2.3,2.29v1.27c0,2.64,2.14,6,4.78,6s4.78-3.36,4.78-6v-1.27A2.28,2.28,0,0,0,223.29,163.63Z" transform="translate(0.61)" style="fill:#9bd2a5;stroke:#263238;stroke-linecap:round;stroke-linejoin:round"/><path d="M235.2,163.63h-5a2.28,2.28,0,0,0-2.29,2.29v1.27c0,2.64,2.14,6,4.78,6s4.78-3.36,4.78-6v-1.27A2.29,2.29,0,0,0,235.2,163.63Z" transform="translate(0.61)" style="fill:#9bd2a5;stroke:#263238;stroke-linecap:round;stroke-linejoin:round"/><path d="M247.11,163.63h-5a2.29,2.29,0,0,0-2.29,2.29v1.27c0,2.64,2.14,6,4.78,6s4.78-3.36,4.78-6v-1.27A2.29,2.29,0,0,0,247.11,163.63Z" transform="translate(0.61)" style="fill:#9bd2a5;stroke:#263238;stroke-linecap:round;stroke-linejoin:round"/><path d="M259,163.63h-5a2.29,2.29,0,0,0-2.3,2.29v1.27c0,2.64,2.14,6,4.78,6s4.78-3.36,4.78-6v-1.27A2.29,2.29,0,0,0,259,163.63Z" transform="translate(0.61)" style="fill:#9bd2a5;stroke:#263238;stroke-linecap:round;stroke-linejoin:round"/><path d="M270.94,163.63h-5a2.29,2.29,0,0,0-2.3,2.29v1.27c0,2.64,2.14,6,4.78,6s4.78-3.36,4.78-6v-1.27A2.28,2.28,0,0,0,270.94,163.63Z" transform="translate(0.61)" style="fill:#9bd2a5;stroke:#263238;stroke-linecap:round;stroke-linejoin:round"/><rect x="149.94" y="188.55" width="95.3" height="10.84" rx="3.21" style="fill:#9bd2a5;stroke:#263238;stroke-linecap:round;stroke-linejoin:round"/><path d="M254.66,189.19h-5a2.29,2.29,0,0,0-2.29,2.3v1.27c0,2.64,2.14,6,4.78,6s4.78-3.35,4.78-6v-1.27A2.3,2.3,0,0,0,254.66,189.19Z" transform="translate(0.61)" style="fill:#9bd2a5;stroke:#263238;stroke-linecap:round;stroke-linejoin:round"/><path d="M144.26,189.19h-5a2.3,2.3,0,0,0-2.29,2.3v1.27c0,2.64,2.14,6,4.78,6s4.78-3.35,4.78-6v-1.27A2.3,2.3,0,0,0,144.26,189.19Z" transform="translate(0.61)" style="fill:#9bd2a5;stroke:#263238;stroke-linecap:round;stroke-linejoin:round"/><path d="M134.21,154.24a4.11,4.11,0,0,1,.72.06s0-.09,0-.14v-1.27a1,1,0,0,0-1-1h-5a1,1,0,0,0-1,1v1.27c0,1.84,1.35,4.14,2.92,4.61C130.4,156.73,131.5,154.24,134.21,154.24Z" transform="translate(0.61)" style="opacity:0.2"/><path d="M146.4,153.89l.45,0v-1a1,1,0,0,0-1-1h-5a1,1,0,0,0-1,1v1.27c0,2,1.59,4.53,3.32,4.68C142.43,156.75,143.5,153.89,146.4,153.89Z" transform="translate(0.61)" style="opacity:0.2"/><path d="M158.66,153.72h.1v-.84a1,1,0,0,0-1-1h-5a1,1,0,0,0-1,1v1.27c0,2.05,1.69,4.7,3.48,4.7a2.06,2.06,0,0,0,.26,0C154.65,156.73,155.69,153.72,158.66,153.72Z" transform="translate(0.61)" style="opacity:0.2"/><path d="M169.81,153.38a3.85,3.85,0,0,1,.86.09v-.58a1,1,0,0,0-1-1h-5a1,1,0,0,0-1,1v1.27c0,1.92,1.48,4.36,3.14,4.66C165.69,156.72,166.68,153.38,169.81,153.38Z" transform="translate(0.61)" style="opacity:0.2"/><path d="M182.34,153.38h.25v-.5a1,1,0,0,0-1-1h-5a1,1,0,0,0-1,1v1.27c0,2.05,1.69,4.7,3.48,4.7l.27,0C178.21,156.73,179.2,153.38,182.34,153.38Z" transform="translate(0.61)" style="opacity:0.2"/><path d="M194.35,153.46h.15v-.58a1,1,0,0,0-1-1h-5a1,1,0,0,0-1,1v1.27c0,2.05,1.69,4.7,3.48,4.7l.33,0C190.25,156.72,191.25,153.46,194.35,153.46Z" transform="translate(0.61)" style="opacity:0.2"/><path d="M205.84,153.38a5.1,5.1,0,0,1,.57,0v-.53a1,1,0,0,0-1-1h-5a1,1,0,0,0-1,1v1.27c0,2,1.67,4.66,3.45,4.69C201.71,156.75,202.69,153.38,205.84,153.38Z" transform="translate(0.61)" style="opacity:0.2"/><path d="M218.33,153.56v-.67a1,1,0,0,0-1-1h-5a1,1,0,0,0-1,1v1.27c0,2.05,1.68,4.7,3.48,4.7a1.9,1.9,0,0,0,.53-.09C214.41,156.7,215.4,153.64,218.33,153.56Z" transform="translate(0.61)" style="opacity:0.2"/><path d="M229.26,153.29a3.75,3.75,0,0,1,1,.13v-.53a1,1,0,0,0-1-1h-5a1,1,0,0,0-1,1v1.27c0,1.89,1.43,4.28,3.06,4.64C225.12,156.71,226.09,153.29,229.26,153.29Z" transform="translate(0.61)" style="opacity:0.2"/><path d="M241.44,153.29a4,4,0,0,1,.71.07v-.47a1,1,0,0,0-1-1h-5a1,1,0,0,0-1,1v1.27c0,2,1.61,4.57,3.36,4.69C237.29,156.75,238.25,153.29,241.44,153.29Z" transform="translate(0.61)" style="opacity:0.2"/><path d="M253.54,153.64a4.28,4.28,0,0,1,.52,0v-.78a1,1,0,0,0-1-1h-5a1,1,0,0,0-1,1v1.27c0,2,1.61,4.57,3.35,4.69C249.49,156.74,250.52,153.64,253.54,153.64Z" transform="translate(0.61)" style="opacity:0.2"/><path d="M266,153.48v-.59a1,1,0,0,0-1-1h-5a1,1,0,0,0-1,1v1.27c0,2.05,1.69,4.7,3.48,4.7a2,2,0,0,0,.75-.16C262.3,156.67,263.21,153.71,266,153.48Z" transform="translate(0.61)" style="opacity:0.2"/><path d="M134.56,178.26h.38v-.13a1,1,0,0,0-1-1h-5a1,1,0,0,0-1,1v1.27c0,2.05,1.68,4.69,3.48,4.69a2.33,2.33,0,0,0,.37,0C130.32,182,131.23,178.26,134.56,178.26Z" transform="translate(0.61)" style="opacity:0.2"/><path d="M146.22,178.26a4.23,4.23,0,0,1,.63.05v-.17a1,1,0,0,0-1-1h-5a1,1,0,0,0-1,1v1.27c0,2.05,1.69,4.69,3.48,4.69h.15C142,182,142.89,178.26,146.22,178.26Z" transform="translate(0.61)" style="opacity:0.2"/><path d="M158.06,178.43a3.88,3.88,0,0,1,.7.06v-.35a1,1,0,0,0-1-1h-5a1,1,0,0,0-1,1v1.27c0,2,1.66,4.65,3.44,4.69C153.87,182,154.81,178.43,158.06,178.43Z" transform="translate(0.61)" style="opacity:0.2"/><path d="M170.16,178.51a4.06,4.06,0,0,1,.51,0v-.41a1,1,0,0,0-1-1h-5a1,1,0,0,0-1,1v1.27c0,2.05,1.68,4.69,3.48,4.69h.08C166,182,167,178.51,170.16,178.51Z" transform="translate(0.61)" style="opacity:0.2"/><path d="M181.82,178.26a3.8,3.8,0,0,1,.77.07v-.19a1,1,0,0,0-1-1h-5a1,1,0,0,0-1,1v1.27c0,2.05,1.69,4.69,3.48,4.69h0C177.58,182.05,178.48,178.26,181.82,178.26Z" transform="translate(0.61)" style="opacity:0.2"/><path d="M193.92,178.34a3.68,3.68,0,0,1,.58,0v-.25a1,1,0,0,0-1-1h-5a1,1,0,0,0-1,1v1.27c0,2.05,1.69,4.69,3.48,4.69h.13C189.7,182,190.63,178.34,193.92,178.34Z" transform="translate(0.61)" style="opacity:0.2"/><path d="M206.27,178.6h.14v-.47a1,1,0,0,0-1-1h-5a1,1,0,0,0-1,1v1.27c0,2.05,1.69,4.69,3.48,4.69a2.58,2.58,0,0,0,.39,0C202.14,182,203.13,178.6,206.27,178.6Z" transform="translate(0.61)" style="opacity:0.2"/><path d="M218.28,178.34h.05v-.2a1,1,0,0,0-1-1h-5a1,1,0,0,0-1,1v1.27c0,2.05,1.68,4.69,3.48,4.69a2.09,2.09,0,0,0,.6-.1C214.09,181.92,215,178.34,218.28,178.34Z" transform="translate(0.61)" style="opacity:0.2"/><path d="M229.86,178.08l.38,0a1,1,0,0,0-1-1h-5a1,1,0,0,0-1,1v1.27c0,2.05,1.69,4.69,3.48,4.69a2,2,0,0,0,.48-.07C225.59,182,226.46,178.08,229.86,178.08Z" transform="translate(0.61)" style="opacity:0.2"/><path d="M242.13,178.26h0v-.12a1,1,0,0,0-1-1h-5a1,1,0,0,0-1,1v1.27c0,2.05,1.69,4.69,3.48,4.69a1.93,1.93,0,0,0,.67-.12C237.92,181.91,238.85,178.26,242.13,178.26Z" transform="translate(0.61)" style="opacity:0.2"/><path d="M253.8,178.26h.26v-.13a1,1,0,0,0-1-1h-5a1,1,0,0,0-1,1v1.27c0,2.05,1.68,4.69,3.47,4.69a1.84,1.84,0,0,0,.47-.07C249.57,182,250.49,178.26,253.8,178.26Z" transform="translate(0.61)" style="opacity:0.2"/><path d="M265.55,178.77l.43,0v-.65a1,1,0,0,0-1-1h-5a1,1,0,0,0-1,1v1.27c0,2.05,1.69,4.69,3.48,4.69h0C261.46,182,262.47,178.77,265.55,178.77Z" transform="translate(0.61)" style="opacity:0.2"/><path d="M128.9,166.25H129v-.33a1,1,0,0,0-1-1h-5a1,1,0,0,0-1,1v1.27c0,2.05,1.69,4.7,3.48,4.7a1.81,1.81,0,0,0,.51-.08C124.73,169.72,125.7,166.25,128.9,166.25Z" transform="translate(0.61)" style="opacity:0.2"/><path d="M140.56,166.25h.33v-.34a1,1,0,0,0-1-1h-5a1,1,0,0,0-1,1v1.27c0,2.05,1.69,4.7,3.48,4.7l.3,0C136.39,169.77,137.34,166.25,140.56,166.25Z" transform="translate(0.61)" style="opacity:0.2"/><path d="M152.74,166.25h.07v-.33a1,1,0,0,0-1-1h-5a1,1,0,0,0-1,1v1.27c0,2.05,1.68,4.7,3.48,4.7a1.89,1.89,0,0,0,.52-.09C148.58,169.71,149.55,166.25,152.74,166.25Z" transform="translate(0.61)" style="opacity:0.2"/><path d="M164.41,166.16l.31,0v-.26a1,1,0,0,0-1-1h-5a1,1,0,0,0-1,1v1.27c0,2.05,1.69,4.7,3.48,4.7a2.2,2.2,0,0,0,.36,0C160.21,169.77,161.15,166.16,164.41,166.16Z" transform="translate(0.61)" style="opacity:0.2"/><path d="M176,166.25a4.26,4.26,0,0,1,.64.05v-.38a1,1,0,0,0-1-1h-5a1,1,0,0,0-1,1v1.27c0,2.05,1.69,4.7,3.48,4.7h0C171.81,169.8,172.75,166.25,176,166.25Z" transform="translate(0.61)" style="opacity:0.2"/><path d="M188,165.82a3.19,3.19,0,0,1,.54,0,1,1,0,0,0-1-.93h-5a1,1,0,0,0-1,1v1.27c0,2.05,1.69,4.7,3.48,4.7a1.74,1.74,0,0,0,.39,0C183.7,169.85,184.55,165.82,188,165.82Z" transform="translate(0.61)" style="opacity:0.2"/><path d="M200,166.33a3.4,3.4,0,0,1,.45,0v-.44a1,1,0,0,0-1-1h-5a1,1,0,0,0-1,1v1.27c0,2.05,1.69,4.7,3.48,4.7l.13,0C195.86,169.78,196.82,166.33,200,166.33Z" transform="translate(0.61)" style="opacity:0.2"/><path d="M212.37,165.92a1,1,0,0,0-1-1h-5a1,1,0,0,0-1,1v1.27c0,2.05,1.69,4.7,3.48,4.7a2.23,2.23,0,0,0,1-.28C208.55,169.61,209.37,166.16,212.37,165.92Z" transform="translate(0.61)" style="opacity:0.2"/><path d="M224.28,166.17v-.25a1,1,0,0,0-1-1h-5a1,1,0,0,0-1,1v1.27c0,2.05,1.69,4.7,3.48,4.7a2.07,2.07,0,0,0,.84-.2C220.43,169.66,221.31,166.36,224.28,166.17Z" transform="translate(0.61)" style="opacity:0.2"/><path d="M235.78,166l.41,0v-.09a1,1,0,0,0-1-1h-5a1,1,0,0,0-1,1v1.27c0,2.05,1.68,4.7,3.48,4.7a1.57,1.57,0,0,0,.37,0C231.53,169.8,232.43,166,235.78,166Z" transform="translate(0.61)" style="opacity:0.2"/><path d="M248.11,166.42v-.5a1,1,0,0,0-1-1h-5a1,1,0,0,0-1,1v1.27c0,2.05,1.69,4.7,3.48,4.7a2,2,0,0,0,.59-.1C244.13,169.71,245.1,166.5,248.11,166.42Z" transform="translate(0.61)" style="opacity:0.2"/><path d="M259.46,166.07a3.43,3.43,0,0,1,.56.05v-.2a1,1,0,0,0-1-1h-5a1,1,0,0,0-1,1v1.27c0,2.05,1.69,4.7,3.48,4.7l.18,0C255.23,169.82,256.14,166.07,259.46,166.07Z" transform="translate(0.61)" style="opacity:0.2"/><path d="M271.47,166.59a3.44,3.44,0,0,1,.46,0v-.7a1,1,0,0,0-1-1h-5a1,1,0,0,0-1,1v1.27c0,2,1.68,4.67,3.46,4.69C267.39,169.78,268.4,166.59,271.47,166.59Z" transform="translate(0.61)" style="opacity:0.2"/><rect x="192.86" y="147.62" width="8.24" height="92.7" rx="1.21" transform="translate(391.56 -3) rotate(90)" style="opacity:0.2"/><path d="M255.66,192.15v-.66a1,1,0,0,0-1-1h-5a1,1,0,0,0-1,1v1.27c0,2.05,1.68,4.69,3.48,4.69a1.67,1.67,0,0,0,.44-.06C251.63,195.29,252.64,192.17,255.66,192.15Z" transform="translate(0.61)" style="opacity:0.2"/><path d="M144.68,191.72a3.68,3.68,0,0,1,.58.05v-.28a1,1,0,0,0-1-1h-5a1,1,0,0,0-1,1v1.27c0,2.05,1.69,4.69,3.48,4.69h.11C140.47,195.37,141.4,191.72,144.68,191.72Z" transform="translate(0.61)" style="opacity:0.2"/><path d="M117.48,51.84H277.69A6.35,6.35,0,0,1,284,58.19V93.66a0,0,0,0,1,0,0H111.13a0,0,0,0,1,0,0V58.19A6.35,6.35,0,0,1,117.48,51.84Z" style="opacity:0.2"/><path d="M265.73,58.92H128.22a156.45,156.45,0,0,0-6.06-28.07H271.8A149.89,149.89,0,0,0,265.73,58.92Z" transform="translate(0.61)" style="fill:#fff"/><g style="clip-path:url(#clip-path-2)"><path d="M267.09,49.88c-1,5.45-1.36,9-1.36,9H128.22s-.35-3.52-1.37-9Z" transform="translate(0.61)" style="opacity:0.2"/></g><path d="M265.73,58.92H128.22a156.45,156.45,0,0,0-6.06-28.07H271.8A149.89,149.89,0,0,0,265.73,58.92Z" transform="translate(0.61)" style="fill:none;stroke:#263238;stroke-linecap:round;stroke-linejoin:round"/><rect x="129.59" y="82.56" width="134.88" height="55.49" style="fill:#263238"/><g style="opacity:0.4"><path d="M193.06,133.14l.71,0q1.32-20.76,2.65-41.57Q194.74,112.42,193.06,133.14Z" transform="translate(0.61)" style="fill:#fff"/><path d="M190.79,133l.72.06q2.31-20.61,4.64-41.42Q193.47,112.41,190.79,133Z" transform="translate(0.61)" style="fill:#fff"/><path d="M188.53,132.71l.72.08q3.3-20.4,6.63-41.2Q192.19,112.41,188.53,132.71Z" transform="translate(0.61)" style="fill:#fff"/><path d="M186.27,132.37l.72.11q4.27-20.11,8.62-40.89Q190.91,112.38,186.27,132.37Z" transform="translate(0.61)" style="fill:#fff"/><path d="M184,131.94l.72.15q5.23-19.74,10.6-40.51Q189.64,112.36,184,131.94Z" transform="translate(0.61)" style="fill:#fff"/><path d="M181.78,131.43l.72.18c4.11-12.85,8.34-26.2,12.58-40C190.59,105.41,186.12,118.69,181.78,131.43Z" transform="translate(0.61)" style="fill:#fff"/><path d="M179.55,130.83l.72.21c4.72-12.5,9.62-25.65,14.54-39.48C189.64,105.39,184.49,118.47,179.55,130.83Z" transform="translate(0.61)" style="fill:#fff"/><path d="M177.33,130.14c.24.09.49.17.73.24,5.31-12.09,10.88-25,16.48-38.83C188.68,105.36,182.86,118.22,177.33,130.14Z" transform="translate(0.61)" style="fill:#fff"/><path d="M175.13,129.36l.74.27c5.87-11.62,12.11-24.3,18.4-38.09C187.72,105.33,181.22,117.93,175.13,129.36Z" transform="translate(0.61)" style="fill:#fff"/><path d="M173,128.48l.74.31C180.1,117.7,187,105.29,194,91.53,186.75,105.28,179.57,117.6,173,128.48Z" transform="translate(0.61)" style="fill:#fff"/><path d="M170.8,127.48c.25.12.49.25.74.36,6.92-10.49,14.52-22.6,22.2-36.33C185.78,105.24,177.92,117.22,170.8,127.48Z" transform="translate(0.61)" style="fill:#fff"/><path d="M168.68,126.39l.74.4c7.4-9.84,15.67-21.6,24.05-35.29A406.93,406.93,0,0,1,168.68,126.39Z" transform="translate(0.61)" style="fill:#fff"/><path d="M166.59,125.18l.75.44A351.13,351.13,0,0,0,193.2,91.48,319.47,319.47,0,0,1,166.59,125.18Z" transform="translate(0.61)" style="fill:#fff"/><path d="M164.56,123.84l.73.51a280,280,0,0,0,27.64-32.89A254.32,254.32,0,0,1,164.56,123.84Z" transform="translate(0.61)" style="fill:#fff"/><path d="M192.66,91.44a207.4,207.4,0,0,1-30.07,31l.72.56A226.18,226.18,0,0,0,192.66,91.44Z" transform="translate(0.61)" style="fill:#fff"/><path d="M192.4,91.42c-11.5,13.43-22.73,23.22-31.71,29.39.23.21.47.41.71.61A184.9,184.9,0,0,0,192.4,91.42Z" transform="translate(0.61)" style="fill:#fff"/><path d="M192.13,91.4c-12.19,13.32-24.06,22.54-33.24,27.7l.67.67C168.65,114.2,180.24,104.75,192.13,91.4Z" transform="translate(0.61)" style="fill:#fff"/><path d="M191.86,91.38c-12.85,13.17-25.34,21.79-34.67,25.88.22.25.43.49.66.73C167.1,113.46,179.3,104.59,191.86,91.38Z" transform="translate(0.61)" style="fill:#fff"/><path d="M155.65,115.31c.2.26.39.53.6.79,9.35-3.45,22.14-11.7,35.34-24.75C178.11,104.35,165.06,112.32,155.65,115.31Z" transform="translate(0.61)" style="fill:#fff"/><path d="M154.28,113.27c.17.28.36.56.54.84,9.4-2.36,22.72-10,36.51-22.78C177.27,104.09,163.7,111.39,154.28,113.27Z" transform="translate(0.61)" style="fill:#fff"/><path d="M153.11,111.18c.15.29.3.59.46.88,9.39-1.27,23.18-8.19,37.49-20.76C176.51,103.76,162.5,110.39,153.11,111.18Z" transform="translate(0.61)" style="fill:#fff"/><path d="M152.16,109.07c.12.3.25.6.38.89,9.33-.22,23.5-6.45,38.25-18.69C175.84,103.38,161.49,109.31,152.16,109.07Z" transform="translate(0.61)" style="fill:#fff"/><path d="M195.33,133.23H196q.32-20.82.64-41.64Z" transform="translate(0.61)" style="fill:#fff"/><path d="M197.6,133.25h.71q-.67-20.82-1.36-41.64Q197.28,112.42,197.6,133.25Z" transform="translate(0.61)" style="fill:#fff"/><path d="M199.87,133.19l.71,0q-1.68-20.73-3.36-41.55Q198.54,112.42,199.87,133.19Z" transform="translate(0.61)" style="fill:#fff"/><path d="M202.13,133.05l.72-.06q-2.67-20.57-5.36-41.39Q199.82,112.42,202.13,133.05Z" transform="translate(0.61)" style="fill:#fff"/><path d="M204.4,132.83l.71-.09q-3.65-20.33-7.35-41.15Q201.09,112.41,204.4,132.83Z" transform="translate(0.61)" style="fill:#fff"/><path d="M206.66,132.53l.72-.11q-4.63-20-9.35-40.83Q202.36,112.41,206.66,132.53Z" transform="translate(0.61)" style="fill:#fff"/><path d="M208.91,132.14l.72-.13q-5.58-19.62-11.34-40.43Q203.65,112.39,208.91,132.14Z" transform="translate(0.61)" style="fill:#fff"/><path d="M211.16,131.68l.72-.17c-4.34-12.76-8.82-26.07-13.32-39.94C202.81,105.44,207,118.8,211.16,131.68Z" transform="translate(0.61)" style="fill:#fff"/><path d="M213.39,131.12l.73-.2c-5-12.39-10.11-25.5-15.29-39.36C203.76,105.42,208.66,118.6,213.39,131.12Z" transform="translate(0.61)" style="fill:#fff"/><path d="M215.62,130.47l.73-.24C210.81,118.28,205,105.4,199.1,91.55,204.71,105.39,210.29,118.36,215.62,130.47Z" transform="translate(0.61)" style="fill:#fff"/><path d="M217.82,129.73l.74-.27c-6.1-11.46-12.62-24.09-19.19-37.92C205.67,105.36,211.93,118.08,217.82,129.73Z" transform="translate(0.61)" style="fill:#fff"/><path d="M220,128.89l.74-.3c-6.64-10.91-13.84-23.26-21.12-37.06C206.64,105.33,213.58,117.77,220,128.89Z" transform="translate(0.61)" style="fill:#fff"/><path d="M222.17,128l.75-.35c-7.14-10.29-15-22.31-23-36.09C207.61,105.29,215.23,117.43,222.17,128Z" transform="translate(0.61)" style="fill:#fff"/><path d="M224.31,126.91l.74-.4a403.42,403.42,0,0,1-24.88-35C208.58,105.24,216.89,117,224.31,126.91Z" transform="translate(0.61)" style="fill:#fff"/><path d="M226.41,125.75l.75-.45a316.8,316.8,0,0,1-26.72-33.82A350.45,350.45,0,0,0,226.41,125.75Z" transform="translate(0.61)" style="fill:#fff"/><path d="M200.71,91.46a278.06,278.06,0,0,0,27.76,33l.74-.5A254.42,254.42,0,0,1,200.71,91.46Z" transform="translate(0.61)" style="fill:#fff"/><path d="M201,91.44a225.16,225.16,0,0,0,29.5,31.63l.73-.55A207.7,207.7,0,0,1,201,91.44Z" transform="translate(0.61)" style="fill:#fff"/><path d="M201.24,91.42C212.51,105,223.52,115,232.41,121.54l.72-.61C224.12,114.77,212.81,104.94,201.24,91.42Z" transform="translate(0.61)" style="fill:#fff"/><path d="M201.51,91.4c12,13.44,23.64,22.93,32.76,28.49l.69-.68C225.74,114.08,213.78,104.82,201.51,91.4Z" transform="translate(0.61)" style="fill:#fff"/><path d="M201.78,91.38C214.43,104.7,226.73,113.6,236,118.1c.23-.24.45-.49.67-.74C227.32,113.32,214.74,104.66,201.78,91.38Z" transform="translate(0.61)" style="fill:#fff"/><path d="M237.64,116.19c.21-.26.4-.53.6-.8-9.42-2.92-22.59-10.92-36.2-24C215.36,104.52,228.26,112.79,237.64,116.19Z" transform="translate(0.61)" style="fill:#fff"/><path d="M239.09,114.18c.19-.29.38-.57.55-.86-9.43-1.78-23.13-9.1-37.33-22C216.24,104.29,229.68,111.9,239.09,114.18Z" transform="translate(0.61)" style="fill:#fff"/><path d="M240.36,112.09c.16-.29.32-.59.47-.89-9.39-.67-23.55-7.3-38.25-19.9C217,104,231,110.93,240.36,112.09Z" transform="translate(0.61)" style="fill:#fff"/><path d="M202.84,91.27c14.92,12.38,29.25,18.61,38.57,18.7.13-.3.26-.6.38-.9C232.48,109.45,218,103.52,202.84,91.27Z" transform="translate(0.61)" style="fill:#fff"/></g><path d="M177.33,92.6c-2.54,6.52.21,25.5,18.55,25.5s25-13.32,24.26-21.56l24.49-3.94s7.5,20.74-8.44,35.24-71.16,13.57-82.84,2.54-5.2-32.81-5.2-32.81Z" transform="translate(0.61)" style="opacity:0.2"/><path d="M284.82,64.47V59.89a.8.8,0,0,1,.56-.76l3.38-1V53.5a2.06,2.06,0,0,1,2.06-2.06h4a.76.76,0,0,1,.76.76v1.48a.76.76,0,0,1-.76.76h-5.12v4.48a.8.8,0,0,1-.38.68l-2.86,1.73v3.19Z" transform="translate(0.61)" style="fill:#7f7c7c;stroke:#263238;stroke-linecap:round;stroke-linejoin:round"/><rect x="285.43" y="64.47" width="4.41" height="13.2" style="fill:#263238"/><rect x="289.84" y="63.35" width="5.52" height="15.44" style="fill:#5f5c5c"/><g style="clip-path:url(#clip-path-3)"><rect x="289.84" y="72.75" width="5.5" height="6.04" style="opacity:0.2"/></g><rect x="289.84" y="63.35" width="5.52" height="15.44" style="fill:none;stroke:#263238;stroke-linecap:round;stroke-linejoin:round"/><rect x="104.72" y="64.47" width="4.41" height="13.2" transform="translate(214.47 142.13) rotate(180)" style="fill:#263238"/><rect x="99.2" y="63.35" width="5.52" height="15.44" transform="translate(204.54 142.13) rotate(180)" style="fill:#5f5c5c"/><g style="clip-path:url(#clip-path-4)"><rect x="99.81" y="72.75" width="5.52" height="5.89" style="opacity:0.2"/></g><rect x="99.2" y="63.35" width="5.52" height="15.44" transform="translate(204.54 142.13) rotate(180)" style="fill:none;stroke:#263238;stroke-linecap:round;stroke-linejoin:round"/><path d="M108.47,71.85h0a5.38,5.38,0,0,0-1.58-6l-3.25-2.71a2,2,0,0,0-2.86.35L87.91,81.23a2,2,0,0,0-.37,1.15v19.07a1.92,1.92,0,0,0,1.92,1.93h0a1.92,1.92,0,0,0,1.93-1.93V86a1.83,1.83,0,0,1,.34-1.06l9.63-13.4a1.05,1.05,0,0,1,1.53-.18l1.77,1.5a2.43,2.43,0,0,0,1.57.58h0A2.4,2.4,0,0,0,108.47,71.85Z" transform="translate(0.61)" style="fill:#9bd2a5;stroke:#263238;stroke-linecap:round;stroke-linejoin:round"/><circle cx="106.42" cy="69.2" r="0.92" style="fill:#7f7c7c;stroke:#263238;stroke-linecap:round;stroke-linejoin:round"/><rect x="113.84" y="58.09" width="167.5" height="25.94" style="fill:#263238"/><rect x="115.27" y="60.04" width="164.57" height="6.05" rx="1.38" style="fill:#fff;opacity:0.2"/><path d="M265.73,89.25H128.22a72.09,72.09,0,0,1-6.06-28.07H271.8C271.8,74.18,265.73,89.25,265.73,89.25Z" transform="translate(0.61)" style="fill:#fff"/><g style="clip-path:url(#clip-path-5)"><g style="opacity:0.7000000000000001"><path d="M139.37,87.14A12.56,12.56,0,0,0,144.06,86c1.68-1,1.56.91,2.53,1s3.25-.67,4.45-.67.29.74,1.65.67.64.07,1.36-.06l5.82-1s3-.57,3.56-.28,1.38,1.71,2.25,1.32.41-.67,1.73-.67a8.66,8.66,0,0,1,2.4.35s.12-.35.72-.35h1.08s2.29.61,2.65.61,3.06-.61,3.16-.61,2.65-.65,2.65-.65a4.26,4.26,0,0,0,2,1.19c1,.13,2-.13,2.75.2A9.29,9.29,0,0,0,188,87a12.57,12.57,0,0,1,1.73.13A4.51,4.51,0,0,0,192,87a8.73,8.73,0,0,1,4.17-.06c2.18.39,4.18-.61,5.1-.61s4.63.41,5.91.41a55.37,55.37,0,0,0,7,.2c2.35-.26,3.88.32,5.46.32s3.26-.06,3.62-.06a9.92,9.92,0,0,1,4.6-.87c2.5.28.28-.34,1.81,0s2.75.67,3.41.74a8.27,8.27,0,0,0,1.56-.07l2.69-.19h13.37" transform="translate(0.61)" style="fill:none;stroke:#263238;stroke-linecap:round;stroke-linejoin:round"/><path d="M136.58,82s8.28,0,9.78-.13,2.29-.9,3.09-.9,4.83.77,4.83.77a1.37,1.37,0,0,1,1.37-.77c1.1,0,.53.11,1.54.5s.48,0,1,.4a9.4,9.4,0,0,0,2.49.73s3.73.17,3.87-.73,2,.73,2,.73,5.07-.73,7-.73,6.87-.4,6.87-.4,4,.53,4.21.53.85,1.06,1.57.6a3.37,3.37,0,0,1,2.26-.86,10.09,10.09,0,0,1,2.26.86l1.87-1,2.15.13s2.19,1.45,3.75.86A35.88,35.88,0,0,0,202,80.93L204,82.56h1.26l3.74-.73a2.27,2.27,0,0,0,2.45.73c1.58-.46,16.71,0,20.55,0s4.72-1,4.72-1l3,1h14.74" transform="translate(0.61)" style="fill:none;stroke:#263238;stroke-linecap:round;stroke-linejoin:round"/></g><path d="M267.13,85.37c-.8,2.42-1.4,3.88-1.4,3.88H128.22s-.68-1.41-1.59-3.88Z" transform="translate(0.61)" style="opacity:0.2"/><path d="M270,75.22c-.46,2-1,4-1.48,5.71H125.16c-.5-1.7-1-3.62-1.45-5.71Z" transform="translate(0.61)" style="opacity:0.2"/></g><path d="M265.73,89.25H128.22a72.09,72.09,0,0,1-6.06-28.07H271.8C271.8,74.18,265.73,89.25,265.73,89.25Z" transform="translate(0.61)" style="fill:none;stroke:#263238;stroke-linecap:round;stroke-linejoin:round"/><rect x="109.71" y="56.75" width="4.1" height="28.62" style="fill:#5f5c5c"/><g style="clip-path:url(#clip-path-6)"><rect x="109.73" y="76.89" width="3.99" height="8.49" style="opacity:0.2"/></g><rect x="109.71" y="56.75" width="4.1" height="28.62" style="fill:none;stroke:#263238;stroke-linecap:round;stroke-linejoin:round"/><rect x="281.37" y="56.75" width="4.1" height="28.62" style="fill:#5f5c5c"/><g style="clip-path:url(#clip-path-7)"><rect x="281.34" y="76.89" width="4.13" height="8.49" style="opacity:0.2"/></g><rect x="281.37" y="56.75" width="4.1" height="28.62" style="fill:none;stroke:#263238;stroke-linecap:round;stroke-linejoin:round"/><polygon points="281.4 55.55 281.4 76.43 113.77 76.43 113.77 55.55 112.17 55.55 112.17 77.84 283.01 77.84 283.01 55.55 281.4 55.55" style="fill:#7f7c7c;stroke:#263238;stroke-linecap:round;stroke-linejoin:round"/><path d="M290.72,90.72v46.83a3,3,0,0,1-3,3H106.21a3,3,0,0,1-3-3V90.72a3,3,0,0,1,3-3h83.63v3s-14.28,12.39-38.93,17c3.53,16,22.82,28.18,46.07,28.18s42.53-12.21,46.06-28.18c-24.65-4.57-38.93-17-38.93-17v-3h83.63A3,3,0,0,1,290.72,90.72Z" transform="translate(0.61)" style="fill:#9bd2a5;stroke:#263238;stroke-linecap:round;stroke-linejoin:round"/><path d="M290.72,90.72v46.83a3,3,0,0,1-3,3H106.21a3,3,0,0,1-3-3V90.72a3,3,0,0,1,3-3h83.63v3s-14.28,12.39-38.92,17c3.52,16,22.81,28.18,46.06,28.18s42.53-12.21,46.06-28.18c-24.65-4.57-38.93-17-38.93-17v-3h83.63A3,3,0,0,1,290.72,90.72Z" transform="translate(0.61)" style="fill:#9bd2a5"/><g style="clip-path:url(#clip-path-8)"><path d="M286.69,91.44v43.23a2.19,2.19,0,0,1-2.19,2.19H108a2.18,2.18,0,0,1-2.18-2.19V91.44A2.18,2.18,0,0,1,108,89.25h81.84v1.47s-14.28,12.39-38.92,17c3.52,16,22.81,28.18,46.06,28.18s42.53-12.21,46.06-28.18c-24.65-4.57-38.93-17-38.93-17V89.25H284.5A2.19,2.19,0,0,1,286.69,91.44Z" transform="translate(0.61)" style="fill:#fff;opacity:0.2"/></g><path d="M290.72,90.72v46.83a3,3,0,0,1-3,3H106.21a3,3,0,0,1-3-3V90.72a3,3,0,0,1,3-3h83.63v3s-14.28,12.39-38.92,17c3.52,16,22.81,28.18,46.06,28.18s42.53-12.21,46.06-28.18c-24.65-4.57-38.93-17-38.93-17v-3h83.63A3,3,0,0,1,290.72,90.72Z" transform="translate(0.61)" style="fill:none;stroke:#263238;stroke-linecap:round;stroke-linejoin:round"/><path d="M230.74,154.4l8.91,24.86s3.86-27.36,6.15-27.36,7.26,14.95,7.26,14.95,3.06-7.81,6-8.08,5.51,19.17,5.51,19.17l.44,43.17-3.65,65.29S238,260.71,231.2,254.1,217.9,232.91,216,229.93s-2.35-18.44-2.35-18.44a16.61,16.61,0,0,0,3.52-10.67s5.47-9.17,5.13-15.93S221.15,151.88,230.74,154.4Z" transform="translate(0.61)" style="fill-opacity:0.7000000000000001;opacity:0.2"/><path d="M300.9,274.85l-35.31,18.57c0-.19-4.64-7.7-10.25-16.21-2.53-3.85-5.27-7.89-7.86-11.55-4.25-6-9.66-11.16-10.12-12.29-1.37-3.34-11.69-15.91-14-20.81s-2.84-20.07-3.86-23.64,1.9-7,4.25-8.65,4.81-6,4.81-6S226,184.14,225.94,179s-1.78-23.1.31-24.77,4-1,4.49.18c1.71,3.8,3.26,13.36,4.58,17.77s3.8,17.19,5,18.1,3.4-2.53,3.4-2.53.2-10.71.65-15.17l-.65-14.11s-1.25-8.47,1.67-9.27c4-1.11,5.49,1.42,5.94,2.49s2.34,7.21,2.34,7.21l.11.42,0,.13a.64.64,0,0,1,0,.07c0,.11.07.24.1.38s.16.62.25,1c.9,3.49,2.61,10.49,2.54,12.21-.1,2.33-.91,15.22.23,17.9l1.79-17.81s-2.95-13.71-2.1-15.69,4.79.21,5.26,1,4.3,5.49,5,7.28l.67,1.8s.95-4.25,3.17-3.15,2.49,6.52,2.65,8.88,1.76,17.54,2,17.57,2.81,7.91,2.46,13.12c-.73,11.16,1.2,19.44,1.27,23.73S276,241.91,276,241.91h0a25.39,25.39,0,0,1,2.79,6.92c.43,2.31,8,10.65,14.11,17.28h0C297.13,270.69,300.71,274.43,300.9,274.85Z" transform="translate(0.61)" style="fill:#fff"/><path d="M255.35,277.21h0c-2.53-3.85-5.27-7.89-7.86-11.55-4.25-6-9.66-11.16-10.12-12.29-1.37-3.34-11.69-15.91-14-20.81s-2.84-20.07-3.86-23.64,1.9-7,4.25-8.65,4.81-6,4.81-6S226,184.14,225.94,179s-1.78-23.1.31-24.77,4-1,4.49.18c1.71,3.8,3.26,13.36,4.58,17.77s3.8,17.19,5,18.1,3.4-2.53,3.4-2.53.2-10.71.65-15.17l-.65-14.11s-1.25-8.47,1.67-9.27c4-1.11,5.49,1.42,5.94,2.49s2.34,7.21,2.34,7.21l.11.42,0,.13a.64.64,0,0,1,0,.07c0,.11.06.24.1.38s.16.62.25,1a7,7,0,0,0-4.38-3.41c-5.34-1-4.2,4.92-3.69,8.5a24.71,24.71,0,0,1-.17,7.14l1.34-.77c-1,1.73-2.34,16.05-2.34,19.24s-2.53,4.24-4.79,3.31-3.06-15.55-4.78-18.18-6.49,2.39-6.7,7,4.06,18.25,3.05,21.5-1,15.45-1,15.45l-1.24-3.15c.08.43,0,1.88-2.58,6.12a12.67,12.67,0,0,0-1.4,10.44c1.52,3.44,9.53,12.63,10.86,13.56,0,0,1-4,4-2.92a17.57,17.57,0,0,0-2.24,5.34c-.63,2.92,5.74,4.79,7.73,7.58C247.12,259.33,247.92,264.5,255.35,277.21Z" transform="translate(0.61)" style="fill:#9bd2a5;opacity:0.4"/><path d="M292.9,266.13c-6.28-6.32-17.33-12.35-16.66-13.92.9-2.12-.24-6.63-2.17-10.3s.65-9.6.65-9.6l1.19,3.45a29.24,29.24,0,0,0,.33-12.15c-1.22-6.85-2.17-4.44-2.17-4.44s.25-6.17,1.34-9.54,2-11.54.5-16.37-4.68-3.93-5.54-2.26.06,8.15.76,10.27-2.29,5.7-2.35,3-1.2-10.07-1.2-10.07l2.28-14.87-2.28-11.81s.95-4.25,3.17-3.15,2.49,6.52,2.65,8.88,1.76,17.54,2,17.57,2.81,7.91,2.46,13.12c-.73,11.16,1.2,19.44,1.27,23.73S276,241.91,276,241.91h0a25.39,25.39,0,0,1,2.79,6.92c.43,2.31,8,10.65,14.11,17.28Z" transform="translate(0.61)" style="fill:#9bd2a5;opacity:0.4"/><path d="M266.91,165.77c.12.34.23.61.31.83-2.13-4.95-5.77-3.42-6.41-2s1.52,10.15,2,11.5-1.94,12.18-2.3,15.76-1.3,4.31-1.3,4.31c-2.41.18-2.66-6.46-2.69-7.4A8.66,8.66,0,0,0,257,191l1.79-17.81s-2.95-13.71-2.1-15.69,4.79.21,5.26,1S266.22,164,266.91,165.77Z" transform="translate(0.61)" style="fill:#9bd2a5;opacity:0.4"/><path d="M300.9,274.85c-.46-1-21.41-22.11-22.11-26a25.2,25.2,0,0,0-2.81-6.93s3.23-9.89,3.16-14.19-2-12.57-1.27-23.72c.35-5.22-2.21-13.1-2.46-13.13s-1.86-15.21-2-17.57-.42-7.77-2.65-8.88-3.17,3.15-3.17,3.15l-.67-1.8c-.68-1.79-4.52-6.5-5-7.28s-4.42-3-5.26-1,2.1,15.69,2.1,15.69L257,191c-1.15-2.68-.34-15.57-.24-17.9s-3.05-14.21-3.05-14.21-1.88-6.14-2.33-7.21-1.93-3.6-6-2.49c-2.91.8-1.66,9.27-1.66,9.27l.65,14.11c-.44,4.46-.66,15.18-.66,15.18s-2.17,3.44-3.39,2.52-3.7-13.69-5-18.1-2.87-14-4.58-17.77c-.52-1.15-2.4-1.86-4.49-.18s-.35,19.62-.32,24.77,2.62,15.26,2.62,15.26-2.46,4.35-4.8,6-5.27,5.08-4.25,8.66,1.55,18.75,3.86,23.65,12.63,17.46,14,20.8c.46,1.13,5.86,6.3,10.12,12.28,8.35,11.76,18.09,27.5,18.11,27.77" transform="translate(0.61)" style="fill:none;stroke:#263238;stroke-linecap:round;stroke-linejoin:round"/><path d="M228.55,194.25s1.67,8.24,1.61,9.62a61.13,61.13,0,0,0-1.47,10.49,42.15,42.15,0,0,0-2.73,4.85c-.57,1.49-1.57,5.15-1.15,7.19" transform="translate(0.61)" style="fill:none;stroke:#263238;stroke-linecap:round;stroke-linejoin:round"/><path d="M225.52,206.39s4.08,0,3.81,1.75" transform="translate(0.61)" style="fill:none;stroke:#263238;stroke-linecap:round;stroke-linejoin:round"/><path d="M228.69,214.36s-2.62-1.13-3.54.39" transform="translate(0.61)" style="fill:none;stroke:#263238;stroke-linecap:round;stroke-linejoin:round"/><path d="M243.73,187.75s-.19,6.31-1.85,5.81" transform="translate(0.61)" style="fill:none;stroke:#263238;stroke-linecap:round;stroke-linejoin:round"/><path d="M257,191s-.49,3.45.81,4.51" transform="translate(0.61)" style="fill:none;stroke:#263238;stroke-linecap:round;stroke-linejoin:round"/><path d="M267.58,167.57l2.23,10.79c.42,2-2.06,12.6-2,15.35s1.22,6.66,1.06,8.51" transform="translate(0.61)" style="fill:none;stroke:#263238;stroke-linecap:round;stroke-linejoin:round"/><path d="M274.82,233.78s-.59,5.7,1.16,8.13" transform="translate(0.61)" style="fill:none;stroke:#263238;stroke-linecap:round;stroke-linejoin:round"/><path d="M239.65,245.05s-3.9,3.55-2.47,7.93" transform="translate(0.61)" style="fill:none;stroke:#263238;stroke-linecap:round;stroke-linejoin:round"/><path d="M265.31,200.74c.06,2.5-1.42,5.43-1.57,8.89" transform="translate(0.61)" style="fill:none;stroke:#263238;stroke-linecap:round;stroke-linejoin:round"/><path d="M252.87,198.49c.83,2.06-1,6.53-1.26,8.2a10.3,10.3,0,0,0,.43,3.89" transform="translate(0.61)" style="fill:none;stroke:#263238;stroke-linecap:round;stroke-linejoin:round"/><path d="M276.24,205.57c-.34,2.17-1.88,3.73-2.17,10.44" transform="translate(0.61)" style="fill:none;stroke:#263238;stroke-linecap:round;stroke-linejoin:round"/><path d="M238.16,197.86c1.13,1.22.37,7.09.66,8" transform="translate(0.61)" style="fill:none;stroke:#263238;stroke-linecap:round;stroke-linejoin:round"/><path d="M259.15,164.09s3.84-2.81,7.14.5" transform="translate(0.61)" style="fill:none;stroke:#263238;stroke-linecap:round;stroke-linejoin:round"/><path d="M246,157.63s.66-1.12,3.91-.84,3.82,2.1,3.82,2.1" transform="translate(0.61)" style="fill:none;stroke:#263238;stroke-linecap:round;stroke-linejoin:round"/><path d="M236.5,176.78s-1.09-1.61-3.95-1.08-4.14,4.58-4.14,4.58" transform="translate(0.61)" style="fill:#fff;stroke:#263238;stroke-linecap:round;stroke-linejoin:round"/><path d="M275.41,190.87s-2.39-3.46-5.25-2" transform="translate(0.61)" style="fill:none;stroke:#263238;stroke-linecap:round;stroke-linejoin:round"/><path d="M173.7,165.48c4.05,3.12.63,22.27.63,22.27l.36,6.22,6.89-3,3.12,13.32s-.08,4.87,2.48,6.68a170.74,170.74,0,0,1,0,18.93c-.63,8-13.44,17.39-17.82,25.79s-33.12,33.07-33.12,33.07l-24.33-11.58,17.59-71,15.76-20.26,9.34-23.31s1.61,15.23.68,25.47Z" transform="translate(0.61)" style="fill-opacity:0.7000000000000001;opacity:0.2"/><path d="M180.47,208c-.61,2.94.86,19,.6,21.21S168,246,167.37,247.13s-9.21,6.06-11.2,8.39a106.39,106.39,0,0,0-18.48,30.88,0,0,0,0,1,0,0c-.78,1.93-1.53,3.87-2.27,5.81L98.47,270.78c3.1-3.85,6-7.27,8.7-10.38,5.4-6.31,9.64-11.36,11.73-16.13a26.61,26.61,0,0,1,2.2-3.49c.83-1.18,1.58-2.15,1.58-2.15s-2.68-7.56-2.06-9.93-.77-21.9-.77-21.9-1.82-13.28-3.61-16.63a5.6,5.6,0,0,1-.58-2.84c.09-3.06,1.87-6.92,2.74-11.43,1.17-6,.6-9,4.27-6.93s2,14.76,2,14.76L130.15,196c1.46-3,0-11.61-.07-13.66,0-.33,0-.89-.06-1.61-.11-3.53-.35-10.88,0-13.77,0-.16,0-.31.05-.45.45-3,2.05-12.5,3.07-13.56,1.52-1.57,3.92-2.89,6.19.68,1.27,2,.73,18,.73,18s5.25-6.35,6.85-7.9,6.44-4.38,7.73-1.1S151.12,176,151.12,176c1,2.35,1.12,8.85,1.12,8.85s2.26,8.12,3.65,8H156c.4-.09.85-1.56,1.31-3.63,1.14-5.08,2.38-13.77,3.35-14.52l.64-.54a.52.52,0,0,1,.11-.1l.24-.22C164,171.74,169,167,169,167s.36-2.25,4.74-1.56-1.95,13.62-1.95,13.62c-.88,4.11-2.22,14.69-2.22,14.69-.41,4.4-.17,16.22-.17,16.22s2.07-6.88,1.94-9.36,4.11-8.65,5.35-10.24,6.81-1,5.26,2S181.08,205.1,180.47,208Z" transform="translate(0.61)" style="fill:#fff"/><path d="M118.9,244.27a26.61,26.61,0,0,1,2.2-3.49s-2.18,6-2.39,9.25c-.14,2.12-5.72,5.79-11.54,10.37C112.57,254.09,116.81,249,118.9,244.27Z" transform="translate(0.61)" style="fill:#9bd2a5;opacity:0.4"/><path d="M121.1,240.78c.83-1.18,1.58-2.15,1.58-2.15s-2.68-7.56-2.06-9.93-.77-21.9-.77-21.9-1.82-13.28-3.61-16.63l4.17,7.29s-.41,5.76.78,8.92,2.65,12.79,2.65,12.79-1.76,8.1-1.16,11a2.34,2.34,0,0,0,3.29,1.86S127.32,237.39,121.1,240.78Z" transform="translate(0.61)" style="fill:#9bd2a5;opacity:0.4"/><path d="M130.83,185.9c2.88,16.85-2.07,12.19-3.87,8.55s-6-10.52-9.16-9a5.06,5.06,0,0,0-2.14,1.93c.09-3.06,1.87-6.92,2.74-11.43,1.17-6,.6-9,4.27-6.93s2,14.76,2,14.76L130.15,196c1.46-3,0-11.61-.07-13.66,0-.33,0-.89-.06-1.61C130.24,182.28,130.51,184,130.83,185.9Z" transform="translate(0.61)" style="fill:#9bd2a5;opacity:0.4"/><path d="M137.88,169.25s-3.11-4.06-5.8-3.85A2.35,2.35,0,0,0,130,167c0-.16,0-.31.05-.45.45-3,2.05-12.5,3.07-13.56,1.52-1.57,3.92-2.89,6.19.68,1.27,2,.73,18,.73,18s5.25-6.35,6.85-7.9,6.44-4.38,7.73-1.1S151.12,176,151.12,176c1,2.35,1.12,8.85,1.12,8.85s2.26,8.12,3.65,8c-3.06,5.75-5.1-7-5.1-7,.46-2.63-1.16-8.33-1-9.83s-2.82-6.82-7.84-5.35S140.56,192,140.56,192a11.14,11.14,0,0,0-1.68,5.24c-1.55-1.91,0-7.38,0-7.38C137.51,184.63,137.88,169.25,137.88,169.25Z" transform="translate(0.61)" style="fill:#9bd2a5;opacity:0.4"/><path d="M161.25,174.17c-2.14,2.25-1.84,7.93-4,15.06,1.14-5.08,2.38-13.77,3.35-14.52Z" transform="translate(0.61)" style="fill:#9bd2a5;opacity:0.4"/><path d="M180.47,208c-.61,2.94.86,19,.6,21.21S168,246,167.37,247.13s-9.21,6.06-11.2,8.39a106.39,106.39,0,0,0-18.48,30.88,132.76,132.76,0,0,1,5.56-15.26c4.4-9.91,6.2-11.67,8.84-14.5s2.36-8.85,2.36-8.85a25.14,25.14,0,0,1,6-.71c3.35,0,13.28-14.15,16.7-16.63s4-2.48,0-7.95-2.89.88-4.09.64-1.87,2.44-1.87,2.44c-.42-5.58-4-12.1-4.78-13.7s1.84-11.14,1.3-13.79S170,179.33,170,179.33s-.36-6.19-6-6.21a3.73,3.73,0,0,0-2.41.73C164,171.74,169,167,169,167s.36-2.25,4.74-1.56-1.95,13.62-1.95,13.62c-.88,4.11-2.22,14.69-2.22,14.69-.41,4.4-.17,16.22-.17,16.22s2.07-6.88,1.94-9.36,4.11-8.65,5.35-10.24,6.81-1,5.26,2S181.08,205.1,180.47,208Z" transform="translate(0.61)" style="fill:#9bd2a5;opacity:0.4"/><path d="M135.41,292.24c4.55-12,9.64-23.76,20.76-36.73,2-2.32,10.55-7.24,11.19-8.39s13.47-15.7,13.72-17.87S179.86,211,180.47,208s-.1-12.63,1.45-15.64-4-3.57-5.27-2-5.48,7.76-5.35,10.24-1.94,9.36-1.94,9.36-.24-11.82.17-16.22c0,0,1.34-10.58,2.22-14.69,0,0,6.32-12.93,1.95-13.62S169,167,169,167s-7,6.59-8.36,7.66-3.26,17.85-4.65,18.16-3.71-8-3.71-8-.12-6.5-1.12-8.85c0,0,4.77-10.11,3.48-13.39s-6.13-.44-7.73,1.11-6.86,7.89-6.86,7.89.55-16-.72-18c-2.26-3.57-4.68-2.25-6.19-.68-1,1.06-2.62,10.57-3.07,13.57s0,13.77.05,15.82,1.53,10.7.07,13.66l-5.53-12.26s1.72-12.68-2-14.77-3.1.92-4.27,6.94-3.94,10.9-2.16,14.26,3.61,16.65,3.61,16.65,1.38,19.51.77,21.88,2.06,9.94,2.06,9.94a48.94,48.94,0,0,0-3.78,5.64c-3.12,7.12-11,14.86-20.43,26.51" transform="translate(0.61)" style="fill:none;stroke:#263238;stroke-linecap:round;stroke-linejoin:round"/><path d="M140,171.59a6.61,6.61,0,0,0-1.12,3.91c0,2.55,1.67,16.5,1.67,16.5a5.76,5.76,0,0,0-1.28,2.7" transform="translate(0.61)" style="fill:none;stroke:#263238;stroke-linecap:round;stroke-linejoin:round"/><path d="M169.36,210a19.55,19.55,0,0,0,1.79,6.8,7.58,7.58,0,0,1,.52,6.64,23.65,23.65,0,0,0-.57,4.89" transform="translate(0.61)" style="fill:none;stroke:#263238;stroke-linecap:round;stroke-linejoin:round"/><path d="M130.74,193.24s1.17,3.7-1,5.45" transform="translate(0.61)" style="fill:none;stroke:#263238;stroke-linecap:round;stroke-linejoin:round"/><path d="M156,192.86s.23,1.46-1.83,1.59" transform="translate(0.61)" style="fill:none;stroke:#263238;stroke-linecap:round;stroke-linejoin:round"/><path d="M169.78,176.09s-5.16-5.63-9.18-1.39" transform="translate(0.61)" style="fill:none;stroke:#263238;stroke-linecap:round;stroke-linejoin:round"/><path d="M148.86,172.93s-2.38-3-4.45-2.83-4.86,1.44-5.17,3.1" transform="translate(0.61)" style="fill:none;stroke:#263238;stroke-linecap:round;stroke-linejoin:round"/><path d="M172.12,221.64a12,12,0,0,1,1.78,3.94" transform="translate(0.61)" style="fill:none;stroke:#263238;stroke-linecap:round;stroke-linejoin:round"/><path d="M158.7,198.74c-1.6,3-.83,8-1.43,9.44" transform="translate(0.61)" style="fill:none;stroke:#263238;stroke-linecap:round;stroke-linejoin:round"/><path d="M141.72,193.79c.38,1.71-.81,4.51-1,6.57s1.51,5.24,1.2,8.13" transform="translate(0.61)" style="fill:none;stroke:#263238;stroke-linecap:round;stroke-linejoin:round"/><path d="M130.83,200.82a16.26,16.26,0,0,0-1.33,5.34c.08,2.12.82,6.81.82,6.81" transform="translate(0.61)" style="fill:none;stroke:#263238;stroke-linecap:round;stroke-linejoin:round"/><path d="M120.52,200.66a11.2,11.2,0,0,0,.67,5.71,44.85,44.85,0,0,1,2.33,7.37" transform="translate(0.61)" style="fill:none;stroke:#263238;stroke-linecap:round;stroke-linejoin:round"/><path d="M122.68,238.63a3.21,3.21,0,0,0,2.33-2.74" transform="translate(0.61)" style="fill:none;stroke:#263238;stroke-linecap:round;stroke-linejoin:round"/><path d="M156.4,248.84s1.27,4.74-1.18,7.79" transform="translate(0.61)" style="fill:none;stroke:#263238;stroke-linecap:round;stroke-linejoin:round"/><path d="M115.7,186.77s3.61-3.52,6.34-.55" transform="translate(0.61)" style="fill:none;stroke:#263238;stroke-linecap:round;stroke-linejoin:round"/><path d="M130,166.51a4,4,0,0,1,5.82.19" transform="translate(0.61)" style="fill:none;stroke:#263238;stroke-linecap:round;stroke-linejoin:round"/></svg>