<svg xmlns="http://www.w3.org/2000/svg" viewBox="0 0 662.73 489.37"><g id="Background_Complete" data-name="Background Complete"><polygon points="19.99 333.11 127.5 333.11 127.5 488.99 20.73 488.99 19.99 333.11" style="fill:#e0e0e0"/><rect x="66.64" y="342.25" width="106.53" height="154.41" transform="translate(185.1 830.51) rotate(180)" style="fill:#fff"/><path d="M173.9,341.52V497.39h-108V341.52Zm-1.46,154.41V343H67.37v153Z" transform="translate(-54.71 -8.4)" style="fill:#e0e0e0"/><rect x="25.16" y="350.57" width="80.06" height="120.96" style="fill:#fff"/><path d="M79.88,359s0,.2,0,.59,0,1,0,1.72c0,1.53,0,3.76,0,6.64,0,5.82.05,14.26.09,24.93,0,21.33.1,51.53.18,87.08l-.35-.35,80,0h0l-.38.39c0-45.63.06-87.7.08-121l.3.3-58.25-.16L85.58,359l-4.24,0-1.46,0s.46,0,1.4,0l4.18,0,16-.08,58.44-.16h.31V359c0,33.26,0,75.33.07,121v.38h-.39l-80,0h-.36v-.35c.07-35.65.13-65.92.17-87.31,0-10.63.07-19.05.09-24.85,0-2.85,0-5,0-6.57,0-.72,0-1.28,0-1.68S79.88,359,79.88,359Z" transform="translate(-54.71 -8.4)" style="fill:#e0e0e0"/><path d="M66.34,496.66A13.65,13.65,0,0,1,68.06,494c1.14-1.57,2.76-3.73,4.62-6.05s3.62-4.36,4.93-5.8a12.23,12.23,0,0,1,2.27-2.21c.16.14-2.9,3.85-6.61,8.49S66.52,496.8,66.34,496.66Z" transform="translate(-54.71 -8.4)" style="fill:#e0e0e0"/><path d="M66.64,342.25c.17-.13,3.26,3.51,6.92,8.13s6.48,8.46,6.32,8.6-3.27-3.51-6.92-8.13S66.47,342.38,66.64,342.25Z" transform="translate(-54.71 -8.4)" style="fill:#e0e0e0"/><path d="M173.18,342.37l-14,17.22" transform="translate(-54.71 -8.4)" style="fill:#fff"/><path d="M159.23,359.59c-.16-.13,2.83-4.09,6.68-8.85s7.11-8.5,7.27-8.37-2.82,4.1-6.68,8.85S159.39,359.72,159.23,359.59Z" transform="translate(-54.71 -8.4)" style="fill:#e0e0e0"/><path d="M173.17,496.66c-.17.13-3.23-3.47-6.85-8s-6.41-8.38-6.24-8.51,3.23,3.47,6.84,8S173.33,496.53,173.17,496.66Z" transform="translate(-54.71 -8.4)" style="fill:#e0e0e0"/><path d="M125.07,421.22H111l-1.68,3.88a8.66,8.66,0,0,0-.82,3.21,2.66,2.66,0,0,0,1.35,2.47,11.5,11.5,0,0,0,3.91.71v1.08H100.48v-1.08a6,6,0,0,0,3.53-1.78,23.65,23.65,0,0,0,3.41-6l14.26-31.82h.56l14.38,32.7c1.38,3.1,2.5,5.05,3.39,5.86a4.64,4.64,0,0,0,2.82,1.06v1.08H123.54v-1.08h.79a6.08,6.08,0,0,0,3.27-.65,1.57,1.57,0,0,0,.64-1.35,3.8,3.8,0,0,0-.17-1.09c0-.18-.34-.91-.89-2.21Zm-1-2.18-5.94-13.73L112,419Z" transform="translate(-54.71 -8.4)" style="fill:#e0e0e0"/><path d="M166,95.63a2.52,2.52,0,0,1,1.09-.12h.37l-.12.12c0-.42.06-.72.12-.72s.1.3.12.72v.12H167A2.43,2.43,0,0,1,166,95.63Z" transform="translate(-54.71 -8.4)" style="fill:#e0e0e0"/><path d="M163,95.63c0-.07.32-.12.73-.12s.72,0,.72.12-.32.13-.72.13S163,95.7,163,95.63Z" transform="translate(-54.71 -8.4)" style="fill:#e0e0e0"/><path d="M160.12,95.63c0-.07.33-.12.73-.12s.73,0,.73.12-.33.13-.73.13S160.12,95.7,160.12,95.63Z" transform="translate(-54.71 -8.4)" style="fill:#e0e0e0"/><path d="M157.21,95.63c0-.07.32-.12.72-.12s.73,0,.73.12-.32.13-.73.13S157.21,95.7,157.21,95.63Z" transform="translate(-54.71 -8.4)" style="fill:#e0e0e0"/><path d="M154.29,95.63c0-.07.33-.12.73-.12s.73,0,.73.12-.33.13-.73.13S154.29,95.7,154.29,95.63Z" transform="translate(-54.71 -8.4)" style="fill:#e0e0e0"/><path d="M151.38,95.63c0-.07.32-.12.72-.12s.73,0,.73.12-.32.13-.73.13S151.38,95.7,151.38,95.63Z" transform="translate(-54.71 -8.4)" style="fill:#e0e0e0"/><path d="M148.46,95.63c0-.07.33-.12.73-.12s.73,0,.73.12-.33.13-.73.13S148.46,95.7,148.46,95.63Z" transform="translate(-54.71 -8.4)" style="fill:#e0e0e0"/><path d="M145.54,95.63c0-.07.33-.12.73-.12s.73,0,.73.12-.32.13-.73.13S145.54,95.7,145.54,95.63Z" transform="translate(-54.71 -8.4)" style="fill:#e0e0e0"/><path d="M142.63,95.63c0-.07.33-.12.73-.12s.73,0,.73.12-.33.13-.73.13S142.63,95.7,142.63,95.63Z" transform="translate(-54.71 -8.4)" style="fill:#e0e0e0"/><path d="M139.71,95.63c0-.07.33-.12.73-.12s.73,0,.73.12-.32.13-.73.13S139.71,95.7,139.71,95.63Z" transform="translate(-54.71 -8.4)" style="fill:#e0e0e0"/><path d="M136.8,95.63c0-.07.32-.12.73-.12s.73,0,.73.12-.33.13-.73.13S136.8,95.7,136.8,95.63Z" transform="translate(-54.71 -8.4)" style="fill:#e0e0e0"/><path d="M133.88,95.63c0-.07.33-.12.73-.12s.73,0,.73.12-.33.13-.73.13S133.88,95.7,133.88,95.63Z" transform="translate(-54.71 -8.4)" style="fill:#e0e0e0"/><path d="M131,95.63c0-.07.32-.12.73-.12s.73,0,.73.12-.33.13-.73.13S131,95.7,131,95.63Z" transform="translate(-54.71 -8.4)" style="fill:#e0e0e0"/><path d="M128.05,95.63c0-.07.33-.12.73-.12s.73,0,.73.12-.33.13-.73.13S128.05,95.7,128.05,95.63Z" transform="translate(-54.71 -8.4)" style="fill:#e0e0e0"/><path d="M125.14,95.63c0-.07.32-.12.73-.12s.72,0,.72.12-.32.13-.72.13S125.14,95.7,125.14,95.63Z" transform="translate(-54.71 -8.4)" style="fill:#e0e0e0"/><path d="M122.22,95.63c0-.07.33-.12.73-.12s.73,0,.73.12-.33.13-.73.13S122.22,95.7,122.22,95.63Z" transform="translate(-54.71 -8.4)" style="fill:#e0e0e0"/><path d="M119.31,95.63c0-.07.32-.12.72-.12s.73,0,.73.12-.32.13-.73.13S119.31,95.7,119.31,95.63Z" transform="translate(-54.71 -8.4)" style="fill:#e0e0e0"/><path d="M116.39,95.63c0-.07.33-.12.73-.12s.73,0,.73.12-.33.13-.73.13S116.39,95.7,116.39,95.63Z" transform="translate(-54.71 -8.4)" style="fill:#e0e0e0"/><path d="M115.48,93.63c.07,0,.13.32.13.73s-.06.73-.13.73-.13-.33-.13-.73S115.41,93.63,115.48,93.63Z" transform="translate(-54.71 -8.4)" style="fill:#e0e0e0"/><path d="M115.48,90.71c.07,0,.13.33.13.73s-.06.73-.13.73-.13-.33-.13-.73S115.41,90.71,115.48,90.71Z" transform="translate(-54.71 -8.4)" style="fill:#e0e0e0"/><path d="M115.48,87.8c.07,0,.13.32.13.73s-.06.72-.13.72-.13-.32-.13-.72S115.41,87.8,115.48,87.8Z" transform="translate(-54.71 -8.4)" style="fill:#e0e0e0"/><path d="M115.48,84.88c.07,0,.13.33.13.73s-.06.73-.13.73-.13-.33-.13-.73S115.41,84.88,115.48,84.88Z" transform="translate(-54.71 -8.4)" style="fill:#e0e0e0"/><path d="M115.48,82c.07,0,.13.32.13.73s-.06.72-.13.72-.13-.32-.13-.72S115.41,82,115.48,82Z" transform="translate(-54.71 -8.4)" style="fill:#e0e0e0"/><path d="M115.48,79.05c.07,0,.13.33.13.73s-.06.73-.13.73-.13-.33-.13-.73S115.41,79.05,115.48,79.05Z" transform="translate(-54.71 -8.4)" style="fill:#e0e0e0"/><path d="M115.48,76.14c.07,0,.13.32.13.72s-.06.73-.13.73-.13-.32-.13-.73S115.41,76.14,115.48,76.14Z" transform="translate(-54.71 -8.4)" style="fill:#e0e0e0"/><path d="M115.48,73.22c.07,0,.13.33.13.73s-.06.73-.13.73-.13-.33-.13-.73S115.41,73.22,115.48,73.22Z" transform="translate(-54.71 -8.4)" style="fill:#e0e0e0"/><path d="M115.48,70.3c.07,0,.13.33.13.73s-.06.73-.13.73-.13-.32-.13-.73S115.41,70.3,115.48,70.3Z" transform="translate(-54.71 -8.4)" style="fill:#e0e0e0"/><path d="M115.48,67.39c.07,0,.13.33.13.73s-.06.73-.13.73-.13-.33-.13-.73S115.41,67.39,115.48,67.39Z" transform="translate(-54.71 -8.4)" style="fill:#e0e0e0"/><path d="M115.48,64.47c.07,0,.13.33.13.73s-.06.73-.13.73-.13-.32-.13-.73S115.41,64.47,115.48,64.47Z" transform="translate(-54.71 -8.4)" style="fill:#e0e0e0"/><path d="M115.48,61.56c.07,0,.13.33.13.73s-.06.73-.13.73-.13-.33-.13-.73S115.41,61.56,115.48,61.56Z" transform="translate(-54.71 -8.4)" style="fill:#e0e0e0"/><path d="M115.48,58.64c.07,0,.13.33.13.73s-.06.73-.13.73-.13-.33-.13-.73S115.41,58.64,115.48,58.64Z" transform="translate(-54.71 -8.4)" style="fill:#e0e0e0"/><path d="M115.48,55.73c.07,0,.13.32.13.73s-.06.73-.13.73-.13-.33-.13-.73S115.41,55.73,115.48,55.73Z" transform="translate(-54.71 -8.4)" style="fill:#e0e0e0"/><path d="M115.48,52.81c.07,0,.13.33.13.73s-.06.73-.13.73-.13-.33-.13-.73S115.41,52.81,115.48,52.81Z" transform="translate(-54.71 -8.4)" style="fill:#e0e0e0"/><path d="M115.48,49.9c.07,0,.13.32.13.73s-.06.73-.13.73-.13-.33-.13-.73S115.41,49.9,115.48,49.9Z" transform="translate(-54.71 -8.4)" style="fill:#e0e0e0"/><path d="M115.48,47c.07,0,.13.33.13.73s-.06.73-.13.73-.13-.33-.13-.73S115.41,47,115.48,47Z" transform="translate(-54.71 -8.4)" style="fill:#e0e0e0"/><path d="M115.48,44.07c.07,0,.13.32.13.73s-.06.72-.13.72-.13-.32-.13-.72S115.41,44.07,115.48,44.07Z" transform="translate(-54.71 -8.4)" style="fill:#e0e0e0"/><path d="M118,43.7c0,.07-.32.13-.72.13s-.73-.06-.73-.13.32-.12.73-.12S118,43.63,118,43.7Z" transform="translate(-54.71 -8.4)" style="fill:#e0e0e0"/><path d="M121,43.7c0,.07-.33.13-.73.13s-.73-.06-.73-.13.33-.12.73-.12S121,43.63,121,43.7Z" transform="translate(-54.71 -8.4)" style="fill:#e0e0e0"/><path d="M123.87,43.7c0,.07-.33.13-.73.13s-.73-.06-.73-.13.32-.12.73-.12S123.87,43.63,123.87,43.7Z" transform="translate(-54.71 -8.4)" style="fill:#e0e0e0"/><path d="M126.78,43.7c0,.07-.33.13-.73.13s-.73-.06-.73-.13.33-.12.73-.12S126.78,43.63,126.78,43.7Z" transform="translate(-54.71 -8.4)" style="fill:#e0e0e0"/><ellipse cx="74.26" cy="35.3" rx="0.73" ry="0.13" style="fill:#e0e0e0"/><path d="M132.61,43.7c0,.07-.33.13-.73.13s-.73-.06-.73-.13.33-.12.73-.12S132.61,43.63,132.61,43.7Z" transform="translate(-54.71 -8.4)" style="fill:#e0e0e0"/><path d="M135.53,43.7c0,.07-.33.13-.73.13s-.73-.06-.73-.13.33-.12.73-.12S135.53,43.63,135.53,43.7Z" transform="translate(-54.71 -8.4)" style="fill:#e0e0e0"/><ellipse cx="83" cy="35.3" rx="0.73" ry="0.13" style="fill:#e0e0e0"/><path d="M141.36,43.7c0,.07-.33.13-.73.13s-.73-.06-.73-.13.33-.12.73-.12S141.36,43.63,141.36,43.7Z" transform="translate(-54.71 -8.4)" style="fill:#e0e0e0"/><path d="M144.27,43.7c0,.07-.32.13-.73.13s-.73-.06-.73-.13.33-.12.73-.12S144.27,43.63,144.27,43.7Z" transform="translate(-54.71 -8.4)" style="fill:#e0e0e0"/><ellipse cx="91.75" cy="35.3" rx="0.73" ry="0.13" style="fill:#e0e0e0"/><path d="M150.1,43.7c0,.07-.32.13-.73.13s-.72-.06-.72-.13.32-.12.72-.12S150.1,43.63,150.1,43.7Z" transform="translate(-54.71 -8.4)" style="fill:#e0e0e0"/><path d="M153,43.7c0,.07-.33.13-.73.13s-.73-.06-.73-.13.33-.12.73-.12S153,43.63,153,43.7Z" transform="translate(-54.71 -8.4)" style="fill:#e0e0e0"/><ellipse cx="100.49" cy="35.3" rx="0.73" ry="0.13" style="fill:#e0e0e0"/><path d="M158.85,43.7c0,.07-.33.13-.73.13s-.73-.06-.73-.13.33-.12.73-.12S158.85,43.63,158.85,43.7Z" transform="translate(-54.71 -8.4)" style="fill:#e0e0e0"/><path d="M161.76,43.7c0,.07-.32.13-.72.13s-.73-.06-.73-.13.32-.12.73-.12S161.76,43.63,161.76,43.7Z" transform="translate(-54.71 -8.4)" style="fill:#e0e0e0"/><ellipse cx="109.24" cy="35.3" rx="0.73" ry="0.13" style="fill:#e0e0e0"/><path d="M167.41,43.89s-.06-.07-.08-.19l.08.09a3.74,3.74,0,0,1-.54,0c-.41,0-.73-.06-.73-.13s.32-.12.73-.12a2.7,2.7,0,0,1,.54,0l.1,0,0,.06C167.47,43.82,167.44,43.89,167.41,43.89Z" transform="translate(-54.71 -8.4)" style="fill:#e0e0e0"/><ellipse cx="112.7" cy="37.67" rx="0.13" ry="0.73" style="fill:#e0e0e0"/><path d="M167.41,49.72c-.07,0-.13-.32-.13-.73s.06-.73.13-.73.13.33.13.73S167.48,49.72,167.41,49.72Z" transform="translate(-54.71 -8.4)" style="fill:#e0e0e0"/><path d="M167.41,52.64c-.07,0-.13-.33-.13-.73s.06-.73.13-.73.13.33.13.73S167.48,52.64,167.41,52.64Z" transform="translate(-54.71 -8.4)" style="fill:#e0e0e0"/><ellipse cx="112.7" cy="46.42" rx="0.13" ry="0.73" style="fill:#e0e0e0"/><path d="M167.41,58.47c-.07,0-.13-.33-.13-.73s.06-.73.13-.73.13.33.13.73S167.48,58.47,167.41,58.47Z" transform="translate(-54.71 -8.4)" style="fill:#e0e0e0"/><path d="M167.41,61.38c-.07,0-.13-.32-.13-.73s.06-.72.13-.72.13.32.13.72S167.48,61.38,167.41,61.38Z" transform="translate(-54.71 -8.4)" style="fill:#e0e0e0"/><ellipse cx="112.7" cy="55.16" rx="0.13" ry="0.73" style="fill:#e0e0e0"/><path d="M167.41,67.21c-.07,0-.13-.32-.13-.73s.06-.72.13-.72.13.32.13.72S167.48,67.21,167.41,67.21Z" transform="translate(-54.71 -8.4)" style="fill:#e0e0e0"/><path d="M167.41,70.13c-.07,0-.13-.33-.13-.73s.06-.73.13-.73.13.33.13.73S167.48,70.13,167.41,70.13Z" transform="translate(-54.71 -8.4)" style="fill:#e0e0e0"/><ellipse cx="112.7" cy="63.91" rx="0.13" ry="0.73" style="fill:#e0e0e0"/><path d="M167.41,76c-.07,0-.13-.33-.13-.73s.06-.73.13-.73.13.33.13.73S167.48,76,167.41,76Z" transform="translate(-54.71 -8.4)" style="fill:#e0e0e0"/><path d="M167.41,78.88c-.07,0-.13-.33-.13-.73s.06-.73.13-.73.13.32.13.73S167.48,78.88,167.41,78.88Z" transform="translate(-54.71 -8.4)" style="fill:#e0e0e0"/><ellipse cx="112.7" cy="72.66" rx="0.13" ry="0.73" style="fill:#e0e0e0"/><ellipse cx="112.7" cy="75.57" rx="0.13" ry="0.73" style="fill:#e0e0e0"/><path d="M167.41,87.62c-.07,0-.13-.33-.13-.73s.06-.73.13-.73.13.33.13.73S167.48,87.62,167.41,87.62Z" transform="translate(-54.71 -8.4)" style="fill:#e0e0e0"/><ellipse cx="112.7" cy="81.4" rx="0.13" ry="0.73" style="fill:#e0e0e0"/><ellipse cx="112.7" cy="84.32" rx="0.13" ry="0.73" style="fill:#e0e0e0"/><rect x="110.77" y="84.78" width="3.85" height="3.85" style="fill:#e0e0e0"/><rect x="58.85" y="85.31" width="3.85" height="3.85" style="fill:#e0e0e0"/><rect x="110.77" y="33" width="3.85" height="3.85" style="fill:#e0e0e0"/><rect x="58.85" y="33.38" width="3.85" height="3.85" style="fill:#e0e0e0"/><circle cx="634.55" cy="319.71" r="5.96" style="fill:#e0e0e0"/><path d="M701.32,296.39A3.71,3.71,0,1,1,705,300.1,3.71,3.71,0,0,1,701.32,296.39Z" transform="translate(-54.71 -8.4)" style="fill:#e0e0e0"/><path d="M685.43,270.14a3.4,3.4,0,1,1,4.31,2.13A3.4,3.4,0,0,1,685.43,270.14Z" transform="translate(-54.71 -8.4)" style="fill:#e0e0e0"/><circle cx="610.21" cy="380.29" r="5.54" style="fill:#e0e0e0"/><circle cx="611.54" cy="423.58" r="3.97" style="fill:#e0e0e0"/><path d="M664.71,477.59a2.83,2.83,0,1,1-2.83-2.82A2.83,2.83,0,0,1,664.71,477.59Z" transform="translate(-54.71 -8.4)" style="fill:#e0e0e0"/><circle cx="626.69" cy="380.29" r="5.54" style="fill:#e0e0e0"/><circle cx="646.52" cy="419.6" r="3.97" style="fill:#e0e0e0"/><path d="M689.62,472.13a2.82,2.82,0,1,1-2.12-3.38A2.83,2.83,0,0,1,689.62,472.13Z" transform="translate(-54.71 -8.4)" style="fill:#e0e0e0"/><circle cx="671.1" cy="355.75" r="9.16" transform="translate(-109.7 570.33) rotate(-45)" style="fill:#e0e0e0"/><circle cx="616.46" cy="308.28" r="5.96" style="fill:#e0e0e0"/><path d="M657.11,328.11a6,6,0,1,1-6-5.95A6,6,0,0,1,657.11,328.11Z" transform="translate(-54.71 -8.4)" style="fill:#e0e0e0"/><path d="M639.09,359.84a3.71,3.71,0,1,1-3.71-3.71A3.71,3.71,0,0,1,639.09,359.84Z" transform="translate(-54.71 -8.4)" style="fill:#e0e0e0"/><path d="M655,386.09a3.4,3.4,0,1,1-4.31-2.13A3.4,3.4,0,0,1,655,386.09Z" transform="translate(-54.71 -8.4)" style="fill:#e0e0e0"/><path d="M708.34,300.48s-9.5,21.4-13.36,26a21.34,21.34,0,0,1-7-4.17s11.37-21.73,13.32-25.41Z" transform="translate(-54.71 -8.4)" style="fill:#f5f5f5"/><path d="M707.58,291.91c-.14-.45-15-23-15-23l-6.54,4.5,14.23,23.46Z" transform="translate(-54.71 -8.4)" style="fill:#f5f5f5"/><path d="M692,267.48s9.63-2.83,2.89-6.53-8.54,1.06-7.93,4.73l5.32,2" transform="translate(-54.71 -8.4)" style="fill:#f5f5f5"/><path d="M697.3,497.4H650.43a14.83,14.83,0,0,1,14.84-14.84h17.19A14.84,14.84,0,0,1,697.3,497.4Z" transform="translate(-54.71 -8.4)" style="fill:#e0e0e0"/><path d="M671.91,362.67c.15,0,.26,26.94.26,60.17s-.11,60.17-.26,60.17-.26-26.94-.26-60.17S671.77,362.67,671.91,362.67Z" transform="translate(-54.71 -8.4)" style="fill:#e0e0e0"/><path d="M661.32,358.87s-5.49,8.9-4,26.51h28.78s1.78-20.94-5-27Z" transform="translate(-54.71 -8.4)" style="fill:#f5f5f5"/><polygon points="603.79 384.93 616.99 384.93 615.75 422.17 606.71 422.17 603.79 384.93" style="fill:#f5f5f5"/><polygon points="606.52 424.72 603.79 467.46 610.39 468.71 616.3 425.97 606.52 424.72" style="fill:#f5f5f5"/><path d="M655.62,482.56s.08-5.25,5.4-5.45,5.91,5.45,5.91,5.45Z" transform="translate(-54.71 -8.4)" style="fill:#f5f5f5"/><polygon points="623.04 386.37 635.04 380.88 649.41 415.25 641.2 419.01 623.04 386.37" style="fill:#f5f5f5"/><polygon points="641.43 419.6 629.25 460.66 635.4 463.35 650.68 423 641.43 419.6" style="fill:#f5f5f5"/><path d="M681.06,475.38c.34.57,16.24,6.53,16.24,6.53s3.78-3.37-8.12-8.78L686.64,472a3.76,3.76,0,0,0-5.13,2.16Z" transform="translate(-54.71 -8.4)" style="fill:#f5f5f5"/><path d="M656.43,320c-.44.1.37,23.55,5.51,32.24,0,0,18.49-.6,18.94,0s6.43-20.4,5.89-31.68C686.77,320.55,673.78,315.9,656.43,320Z" transform="translate(-54.71 -8.4)" style="fill:#f5f5f5"/><path d="M668.63,283.59s-11.8.26-9.62,15.27,4.61,15,4.68,15.4,14.83-1,14.83-1S686.6,283,668.63,283.59Z" transform="translate(-54.71 -8.4)" style="fill:#f5f5f5"/><path d="M632.07,355.75s9.5-21.4,13.36-26a21.34,21.34,0,0,1,7,4.17s-11.37,21.73-13.32,25.4Z" transform="translate(-54.71 -8.4)" style="fill:#f5f5f5"/><path d="M632.83,364.32c.14.44,15,23,15,23l6.54-4.5-14.23-23.47Z" transform="translate(-54.71 -8.4)" style="fill:#f5f5f5"/><path d="M648.11,389.49s-9.63,10.84-2.89,14.54,8.54-9.07,7.93-12.74l-5.32-2" transform="translate(-54.71 -8.4)" style="fill:#f5f5f5"/><rect x="582.54" y="62.57" width="43.81" height="75.15" style="fill:#fff"/><rect x="582.54" y="62.57" width="43.81" height="6.33" style="fill:#e0e0e0"/><polygon points="593.07 76.8 593.6 83.81 595.56 81.26 598.83 81.12 593.07 76.8" style="fill:#e0e0e0"/><path d="M666.71,85.2l.11.07.31.23,1.2.87,4.2,3.09.18.14h-.23l-3.16.13h-.11l.06,0-2,2.56-.13.17,0-.21c-.13-2-.25-3.78-.33-5.09q-.06-.86-.09-1.44c0-.14,0-.26,0-.37s0-.13,0-.13,0,.06,0,.15l0,.4c0,.39.07.87.13,1.46.11,1.29.25,3,.42,5l-.14,0,2-2.56,0,0h.15l3.17-.12-.05.14-4.08-3.12-1.2-.92-.32-.25Z" transform="translate(-54.71 -8.4)" style="fill:#e0e0e0"/><path d="M646.5,115.73s2.17-2.34,4.91-5.16,5-5.08,5-5-2.16,2.34-4.9,5.16S646.54,115.76,646.5,115.73Z" transform="translate(-54.71 -8.4)" style="fill:#e0e0e0"/><path d="M676.92,110.55a10.26,10.26,0,0,0-.23-1.56,6.43,6.43,0,0,0-2.28-3.55,6.11,6.11,0,0,0-6-.94,5.86,5.86,0,0,0-1.59.9,6,6,0,0,0-1.32,1.38,6.58,6.58,0,0,0,0,7.55,6,6,0,0,0,1.32,1.38,5.86,5.86,0,0,0,1.59.9,6.11,6.11,0,0,0,6-.94,6.46,6.46,0,0,0,2.28-3.55,10.1,10.1,0,0,0,.23-1.57V111a3.2,3.2,0,0,1,0,.49,5.16,5.16,0,0,1-.12.68,6.57,6.57,0,0,1-2.27,3.63,6.23,6.23,0,0,1-6.13,1,6.39,6.39,0,0,1-3-2.32,6.72,6.72,0,0,1,0-7.75,6.25,6.25,0,0,1,1.35-1.41,5.76,5.76,0,0,1,1.64-.91,6.21,6.21,0,0,1,3.41-.29,6.36,6.36,0,0,1,2.72,1.27,6.54,6.54,0,0,1,2.27,3.63,5.34,5.34,0,0,1,.12.67,3.41,3.41,0,0,1,0,.5Z" transform="translate(-54.71 -8.4)" style="fill:#e0e0e0"/><path d="M671.24,127.25s.06,0,.16.12l.45.38,1.72,1.49,0,0,0,0-7.37,8.45,0,0h0l-.89.14-1.59.24-.12,0,0-.12c.2-1,.4-2,.58-2.9v0h0c2-2.35,3.73-4.36,5-5.75a13.88,13.88,0,0,1,2.09-2.13l-.15.13c-.09.1-.23.23-.4.42-.35.38-.85.94-1.46,1.64-1.24,1.42-3,3.43-4.94,5.79l0,0c-.18.92-.37,1.9-.57,2.9l-.1-.1,1.6-.24.88-.13,0,0c3-3.43,5.7-6.45,7.42-8.41v.07l-1.66-1.51-.44-.4Z" transform="translate(-54.71 -8.4)" style="fill:#e0e0e0"/><path d="M655.22,137.5a1.87,1.87,0,0,1,0-.21v-.57c0-.53,0-1.25,0-2.16,0-1.87,0-4.5,0-7.63l.07.07H645l.08-.08h0v5.57c0,1.77,0,3.44,0,5l-.07-.08,7.42,0,2.1,0h0l-2.08,0-7.47,0h-.08v-5c0-.89,0-1.81,0-2.74V127h0l.09-.09h10.34v.08c0,3.15,0,5.79,0,7.68,0,.9,0,1.62,0,2.14,0,.23,0,.41,0,.56A1.31,1.31,0,0,1,655.22,137.5Z" transform="translate(-54.71 -8.4)" style="fill:#e0e0e0"/><path d="M646.5,126.93a16.19,16.19,0,0,1-2.22.08,16.4,16.4,0,0,1-2.23-.08,13.87,13.87,0,0,1,2.23-.09A13.69,13.69,0,0,1,646.5,126.93Z" transform="translate(-54.71 -8.4)" style="fill:#e0e0e0"/><path d="M645,129a35,35,0,0,1,0-5,39.42,39.42,0,0,1,0,5Z" transform="translate(-54.71 -8.4)" style="fill:#e0e0e0"/><path d="M681.06,146.12s0-.13,0-.37v-1.07c0-1,0-2.34,0-4.14,0-3.61,0-8.88,0-15.52,0-13.27,0-32-.06-54l.13.13H637.25l.14-.14c0,28.67,0,55,0,75.15l-.11-.11,32,.05,8.77,0h2.29l.79,0h-3l-8.75,0-32,.05h-.11v-.1c0-20.19,0-46.48,0-75.15v-.14h44.08V71c0,22-.05,40.84-.06,54.14,0,6.63,0,11.88,0,15.49,0,1.79,0,3.17,0,4.11,0,.46,0,.81,0,1S681.06,146.12,681.06,146.12Z" transform="translate(-54.71 -8.4)" style="fill:#e0e0e0"/><path d="M612.55,29.74h-4.23l-9.25-12.88V8.41S592.53,8,593.3,19.07s-.07,8.25-.07,8.25-13.89.06-15.05,1.27c-.84.87-1.22,14.68-1.36,22.17a8.08,8.08,0,0,0,5.74,8.16,6,6,0,0,0,1.5.2c3.46,0,21.17-2.81,21.17-2.81h7.32Z" transform="translate(-54.71 -8.4)" style="fill:#ebebeb"/><polygon points="569.96 19.02 567.36 47.98 560.1 47.98 560.1 19.6 569.96 19.02" style="fill:#ebebeb"/><path d="M79.19,149.54h3l6.52,9.09v6s4.62.28,4.08-7.53,0-5.83,0-5.83,9.81,0,10.62-.89c.59-.62.86-10.36,1-15.65a5.71,5.71,0,0,0-4-5.76,4.29,4.29,0,0,0-1.06-.14c-2.44,0-15,2-15,2H79.19Z" transform="translate(-54.71 -8.4)" style="fill:#ebebeb"/><polygon points="15.92 142.77 17.76 122.33 22.88 122.33 22.88 142.36 15.92 142.77" style="fill:#ebebeb"/></g><g id="Floor"><path d="M717.44,497.14c0,.15-148.37.26-331.35.26s-331.38-.11-331.38-.26,148.34-.26,331.38-.26S717.44,497,717.44,497.14Z" transform="translate(-54.71 -8.4)" style="fill:#263238"/></g><g id="Character"><path d="M448.9,360.54c0,.54,2.88,4,1.73,7.85-.33,1.09-3.16,3.28-3.16,3.28l3,5.29-17.64,7.55-8.87-17.31,17.75-5Z" transform="translate(-54.71 -8.4)" style="fill:#ffbe9d"/><path d="M438.48,340.37a7.77,7.77,0,0,0,1.72-11.12c-1.92-2.27-5.14-3.33-6.58-5.94-1.07-1.92-.92-4.28-.49-6.43a27.9,27.9,0,0,0,1.05-6.49c-.08-2.2-1.16-4.55-3.21-5.33-2.87-1.08-5.87,1.34-7.47,3.95a19.67,19.67,0,0,0-.95,18.43c1.2,2.51,2.93,4.73,4.23,7.18s2.19,5.31,1.5,8" transform="translate(-54.71 -8.4)" style="fill:#f5f5f5"/><path d="M430.31,313a13.71,13.71,0,0,0-1.21,3.65,10.36,10.36,0,0,0,.22,4.12,11.2,11.2,0,0,0,.9,2.26,9.92,9.92,0,0,0,1.58,2.06c1.3,1.25,2.85,2.2,3.83,3.55a7.88,7.88,0,0,1,1.48,4,7.39,7.39,0,0,1-.33,2.88,2.93,2.93,0,0,1-.45,1,10,10,0,0,0,.41-3.8,7.59,7.59,0,0,0-1.5-3.79c-.92-1.25-2.44-2.16-3.8-3.46a9.87,9.87,0,0,1-1.66-2.2,10.68,10.68,0,0,1-.92-2.39,10.33,10.33,0,0,1-.13-4.29,8.7,8.7,0,0,1,1-2.72A3.55,3.55,0,0,1,430.31,313Z" transform="translate(-54.71 -8.4)" style="fill:#263238"/><path d="M425.61,313.39a13.56,13.56,0,0,0-1.22,3.64,10.56,10.56,0,0,0,.23,4.12,11,11,0,0,0,.9,2.26,9.72,9.72,0,0,0,1.58,2.07c1.29,1.24,2.85,2.19,3.83,3.55a7.82,7.82,0,0,1,1.48,4,7.33,7.33,0,0,1-.33,2.87,2.93,2.93,0,0,1-.45,1,10.18,10.18,0,0,0,.41-3.8,7.69,7.69,0,0,0-1.5-3.78c-.92-1.25-2.44-2.17-3.8-3.47a9.81,9.81,0,0,1-1.66-2.19,10.68,10.68,0,0,1-.92-2.39A10.38,10.38,0,0,1,424,317a8.64,8.64,0,0,1,1-2.72A3.11,3.11,0,0,1,425.61,313.39Z" transform="translate(-54.71 -8.4)" style="fill:#263238"/><path d="M433,282.61a4.26,4.26,0,0,1,2.62,2.8,6.31,6.31,0,0,1-.14,3.91,6.06,6.06,0,0,1-1.76,2.73,4,4,0,0,1-3,1,4.85,4.85,0,0,1-3.37-2.42,6.3,6.3,0,0,1-.22-6.57c1.25-1.94,4.13-2.79,6-1.48" transform="translate(-54.71 -8.4)" style="fill:#f5f5f5"/><path d="M448.63,337.06l3.16,28.33a4.15,4.15,0,0,1-3.45,4.56l-17.27,2.87a4.17,4.17,0,0,1-4.78-3.35l-5.06-27.34Z" transform="translate(-54.71 -8.4)" style="fill:#455a64"/><path d="M435.15,344.32l1-.14.9,6.45-1,.15Z" transform="translate(-54.71 -8.4)" style="fill:#263238"/><path d="M437.73,365.57l-1,.12-.32-1.15-1.24.15,0,1.19-.93.11.26-6.59,1.48-.18Zm-2.56-1.78,1-.11-.88-3.22Z" transform="translate(-54.71 -8.4)" style="fill:#263238"/><path d="M440.33,365.26a2.06,2.06,0,0,1-.19-.79l-.12-1c-.07-.6-.3-.8-.76-.75l-.36.05.32,2.63-1,.12-.77-6.47,1.53-.18a1.31,1.31,0,0,1,1.69,1.31l.06.5a1.31,1.31,0,0,1-.51,1.4c.53.15.76.62.84,1.29l.12,1a1.94,1.94,0,0,0,.2.77Zm-1.77-5.42.23,2,.4-.05c.38,0,.59-.23.53-.75l-.08-.64c-.05-.46-.23-.65-.59-.6Z" transform="translate(-54.71 -8.4)" style="fill:#263238"/><path d="M440.85,358.63l3.14-.37.11.92-1.06.13.66,5.54-1,.12-.66-5.54-1.06.13Z" transform="translate(-54.71 -8.4)" style="fill:#263238"/><path d="M437.38,353.63a5.78,5.78,0,0,0-1.76-1.59,1.46,1.46,0,0,0-1.89.38,1.43,1.43,0,0,0,0,1.35,3.35,3.35,0,0,0,.91,1.07,17.4,17.4,0,0,0,3.48,2.28,8.76,8.76,0,0,0,2.11-3.6,2.47,2.47,0,0,0,.11-1.26,1,1,0,0,0-.87-.82,1.81,1.81,0,0,0-1.15.46,3.66,3.66,0,0,0-.93,1.73" transform="translate(-54.71 -8.4)" style="fill:#e8505b"/><path d="M448.93,339.76s-9,9.74-7.48,12.86c.88,1.81,3.28,1.64,4.65-.08s3.16-3.8,4.38-5.26C452.08,345.35,451.85,339.53,448.93,339.76Z" transform="translate(-54.71 -8.4)" style="fill:#ffbe9d"/><path d="M450.69,346.58s-8.19,8-6.85,10.64,3.75,1.07,4.94-.42,2-2.76,3-4C453.2,351.11,453.5,345.61,450.69,346.58Z" transform="translate(-54.71 -8.4)" style="fill:#ffbe9d"/><path d="M451.31,353s-5.83,6.34-4.81,8.37,2.26,1.58,3.16.45,2.07-2.49,2.87-3.45C453.59,357.08,453.19,352.5,451.31,353Z" transform="translate(-54.71 -8.4)" style="fill:#ffbe9d"/><path d="M423.92,366.91,419.26,356l10.89-12.35s2.74,1.73,1.11,5.36-5.74,7-5.74,7l.3,10.92Z" transform="translate(-54.71 -8.4)" style="fill:#ffbe9d"/><path d="M427.69,345.91c0,.28-2.17-.2-5.16,1.06a10.47,10.47,0,0,0-4.29,3.39,9.87,9.87,0,0,0,.9,12.33,10.41,10.41,0,0,0,4.75,2.74c3.13.8,5.19,0,5.25.3,0,.08-.43.39-1.37.64a9.71,9.71,0,0,1-4.12.14,10.81,10.81,0,0,1-5.52-2.8,10.91,10.91,0,0,1-1-14.21,10.8,10.8,0,0,1,5.05-3.56,9.49,9.49,0,0,1,4.1-.47C427.21,345.58,427.71,345.82,427.69,345.91Z" transform="translate(-54.71 -8.4)" style="fill:#455a64"/><path d="M451,346.16a55.25,55.25,0,0,1-6.73,8.12,27.06,27.06,0,0,1,3.16-4.23A26.39,26.39,0,0,1,451,346.16Z" transform="translate(-54.71 -8.4)" style="fill:#eb996e"/><path d="M452,352.67a14,14,0,0,1-2.29,3.44,13.56,13.56,0,0,1-2.87,3,20.6,20.6,0,0,1,2.46-3.3A21,21,0,0,1,452,352.67Z" transform="translate(-54.71 -8.4)" style="fill:#eb996e"/><path d="M446.26,372.6a21.71,21.71,0,0,1-4.28,1.89,21.45,21.45,0,0,1-4.47,1.4,21,21,0,0,1,4.28-1.89A21.45,21.45,0,0,1,446.26,372.6Z" transform="translate(-54.71 -8.4)" style="fill:#eb996e"/><path d="M432.21,442.78s3-35.48,1.36-40-6.46-21.47-6.46-21.47l26.06-7.78s13.31,35.1,17.88,65.89Z" transform="translate(-54.71 -8.4)" style="fill:#263238"/><path d="M424.54,466.37l-32.15-36-.32,43.75,9,23.28H304.42L301.5,443l-6.92-58.27a15.82,15.82,0,0,1,9.91-16.59L331,357.72l37.28,6.83,15,5.7a41.13,41.13,0,0,1,16.34,11.37l45.14,51.62" transform="translate(-54.71 -8.4)" style="fill:#263238"/><path d="M390.14,421.77a49.55,49.55,0,0,0,5.43-.38,22.05,22.05,0,0,0,18.07-16.67,48.81,48.81,0,0,0,.82-5.38,4.75,4.75,0,0,1,.14,1.48,19,19,0,0,1-.42,4,21.55,21.55,0,0,1-18.53,17.09,19.12,19.12,0,0,1-4,.1A4.41,4.41,0,0,1,390.14,421.77Z" transform="translate(-54.71 -8.4)" style="fill:#fff"/><path d="M392.33,472.27c.22,0,.56-15.15.75-33.84s.16-33.86-.07-33.86-.56,15.15-.75,33.85S392.1,472.27,392.33,472.27Z" transform="translate(-54.71 -8.4)" style="fill:#455a64"/><path d="M389.43,483.39,331.32,460A13.25,13.25,0,0,1,323,448.7L318.79,393s.5-23.7-14.3-24.85l-8.42,3.31c-10.88,5.78-13.58,21.63-12.09,33.86,2.1,17.38,3,42,5.33,57.06,1.93,12.33,9,23.19,21.07,26.37l70.73,9Z" transform="translate(-54.71 -8.4)" style="fill:#263238"/><path d="M319.62,401.48a7.39,7.39,0,0,1,.18,1.28c.09.91.22,2.13.38,3.67.29,3.27.71,7.86,1.22,13.51s1.08,12.52,1.73,20.05c.16,1.88.32,3.82.48,5.79a44.74,44.74,0,0,0,.75,6,9.86,9.86,0,0,0,2.88,5.22,19.84,19.84,0,0,0,5.37,3.34c16,6.93,30.79,12.65,41.5,16.67l12.73,4.69,3.46,1.27a7,7,0,0,1,1.19.5,9.89,9.89,0,0,1-1.24-.35l-3.51-1.14c-3-1-7.42-2.51-12.82-4.45C363.14,473.6,348.35,468,332.28,461a20.23,20.23,0,0,1-5.57-3.48,10.75,10.75,0,0,1-3.1-5.61,45,45,0,0,1-.74-6.07c-.15-2-.31-3.9-.46-5.79-.58-7.54-1.11-14.33-1.55-20.07s-.75-10.26-1-13.53c-.09-1.54-.17-2.77-.22-3.68A7,7,0,0,1,319.62,401.48Z" transform="translate(-54.71 -8.4)" style="fill:#455a64"/><path d="M311.18,470.75a8.37,8.37,0,0,1,1.05-3.09A20,20,0,0,1,324,457.59a8.65,8.65,0,0,1,3.23-.56c0,.13-1.2.37-3.05,1.08a22.54,22.54,0,0,0-11.48,9.81C311.73,469.63,311.3,470.8,311.18,470.75Z" transform="translate(-54.71 -8.4)" style="fill:#263238"/><path d="M322.6,428.39s.14,0,.37.16l1,.54a36.72,36.72,0,0,0,4.15,1.76,32.79,32.79,0,0,0,16.29,1.39,32.13,32.13,0,0,0,20.24-12.57A26.75,26.75,0,0,0,370,406.5a18,18,0,0,0-.77-7.45,15.17,15.17,0,0,0-4.19-6.4,12.69,12.69,0,0,0-6.82-3.31,8.12,8.12,0,0,0-6.84,1.92,4.33,4.33,0,0,0-1.33,3.09,5.29,5.29,0,0,0,1.12,3.19,8.72,8.72,0,0,0,5.91,3.09,24,24,0,0,0,12.7-1.82,23.58,23.58,0,0,0,13.38-15,25.16,25.16,0,0,0,1.11-7,27.67,27.67,0,0,0-.33-4.48c-.09-.47-.16-.85-.21-1.16s-.07-.39-.05-.4a18.92,18.92,0,0,1,.89,6,25.24,25.24,0,0,1-1,7.12A24.58,24.58,0,0,1,357,401.34a9.48,9.48,0,0,1-6.4-3.35,6.18,6.18,0,0,1-1.28-3.64,5.15,5.15,0,0,1,1.55-3.63,8.85,8.85,0,0,1,7.48-2.15,13.38,13.38,0,0,1,7.24,3.51,15.89,15.89,0,0,1,4.4,6.73,18.73,18.73,0,0,1,.8,7.76,27.4,27.4,0,0,1-5.48,13.52,32.09,32.09,0,0,1-37.21,11.05A23.7,23.7,0,0,1,322.6,428.39Z" transform="translate(-54.71 -8.4)" style="fill:#fff"/><path d="M284.54,413.53a5.15,5.15,0,0,1,1-1.19,20.9,20.9,0,0,1,3.14-2.73,26.36,26.36,0,0,1,12.85-4.56,24.86,24.86,0,0,1,7.58.32,23,23,0,0,1,5.83,2.05,26,26,0,0,1,3.55,2.16,5.35,5.35,0,0,1,1.17,1c-.08.13-1.82-1.19-4.95-2.64a24.33,24.33,0,0,0-13.1-2.1A27.58,27.58,0,0,0,289,410.06C286.07,412,284.65,413.64,284.54,413.53Z" transform="translate(-54.71 -8.4)" style="fill:#fff"/><path d="M293.84,373.69a23.62,23.62,0,0,0,4.7,3.42,17.14,17.14,0,0,0,6,1.76,15,15,0,0,0,13.54-5.6,16.9,16.9,0,0,0,3-5.48,23,23,0,0,0,.91-5.74,5.06,5.06,0,0,1,.2,1.58,14.34,14.34,0,0,1-.58,4.32,16.49,16.49,0,0,1-3,5.76,15.3,15.3,0,0,1-14.17,5.87,16.6,16.6,0,0,1-6.17-2,14.69,14.69,0,0,1-3.46-2.65A4.82,4.82,0,0,1,293.84,373.69Z" transform="translate(-54.71 -8.4)" style="fill:#fff"/><path d="M344.47,465.3a6,6,0,0,1,.12-1.1,12.55,12.55,0,0,1,1-3,16.57,16.57,0,0,1,8.7-7.55c4.54-2,10.79-2.44,17.08-.61,3.07.91,6.6,2,8.91,5a5.4,5.4,0,0,1,.65,5.46,8.68,8.68,0,0,1-4.14,3.91,13,13,0,0,1-5.5,1.36,8,8,0,0,1-5.28-1.64,6.74,6.74,0,0,1-2.37-4.78,12.11,12.11,0,0,1,.79-5,22.64,22.64,0,0,1,12-12.12,23.41,23.41,0,0,1,11.43-2,16,16,0,0,1,4.18.88c0,.1-1.48-.4-4.2-.58a23.87,23.87,0,0,0-11.18,2.16,23.39,23.39,0,0,0-6.53,4.43,20.89,20.89,0,0,0-5,7.44,11.27,11.27,0,0,0-.73,4.73,6,6,0,0,0,2.11,4.26,7.3,7.3,0,0,0,4.79,1.45,12.41,12.41,0,0,0,5.16-1.29,8,8,0,0,0,3.79-3.53,4.64,4.64,0,0,0-.57-4.7,10.82,10.82,0,0,0-3.89-3.08,26.53,26.53,0,0,0-4.59-1.71c-6.17-1.82-12.22-1.5-16.68.43a16.57,16.57,0,0,0-8.64,7.18A17,17,0,0,0,344.47,465.3Z" transform="translate(-54.71 -8.4)" style="fill:#fff"/><path d="M305.78,486.28c0-.15,2.22-.34,5.58-1.54A27.74,27.74,0,0,0,329.18,465c.85-3.46.82-5.7,1-5.69a5,5,0,0,1,.09,1.57,24.4,24.4,0,0,1-.51,4.25,26.76,26.76,0,0,1-18.19,20.11,23,23,0,0,1-4.18.94A5.86,5.86,0,0,1,305.78,486.28Z" transform="translate(-54.71 -8.4)" style="fill:#fff"/><path d="M287,443a3.26,3.26,0,0,1,.7-.28c.47-.15,1.17-.37,2.08-.6a24.87,24.87,0,0,1,7.91-.8,16.24,16.24,0,0,1,5.38,1.33,12.29,12.29,0,0,1,5,3.94,10.32,10.32,0,0,1,2,6.77,8.37,8.37,0,0,1-1.16,3.64,5.76,5.76,0,0,1-3,2.54,4,4,0,0,1-3.93-.77,5.25,5.25,0,0,1-1.35-3.62,15.52,15.52,0,0,1,1.37-6.92,15.12,15.12,0,0,1,8.47-8,15.34,15.34,0,0,1,7.91-.78,13.58,13.58,0,0,1,2.1.53,2.63,2.63,0,0,1,.69.31c0,.07-1-.31-2.84-.54a15.75,15.75,0,0,0-7.66,1,14.71,14.71,0,0,0-8,7.82,14.89,14.89,0,0,0-1.26,6.59,4.55,4.55,0,0,0,1.12,3.09,3.25,3.25,0,0,0,3.16.6,5,5,0,0,0,2.62-2.21,7.5,7.5,0,0,0,1.06-3.29,9.69,9.69,0,0,0-1.78-6.3,11.91,11.91,0,0,0-4.7-3.77,16.52,16.52,0,0,0-5.16-1.37,26.63,26.63,0,0,0-7.8.56C288,442.76,287,443,287,443Z" transform="translate(-54.71 -8.4)" style="fill:#fff"/><g style="opacity:0.30000000000000004"><path d="M372.73,476.75c-6.22-3.51-12.29-6.2-18.79-9.16s-12.86-6.74-17.11-12.47c-8-10.81-7.11-26.41-15.32-37.07q.81,10.76,1.61,21.51c.49,6.58-.52,13.08,3.72,17.54,3.56,3.77,10.52,6.65,15.44,8.28,9.9,3.26,20.55,8.11,30.45,11.37" transform="translate(-54.71 -8.4)"/></g><path d="M459.53,390.1a4.68,4.68,0,0,1-.72.45c-.49.27-1.19.71-2.07,1.29a31.21,31.21,0,0,0-6.57,6,29.8,29.8,0,0,0-5.89,11.69,14.65,14.65,0,0,0-.06,7.64,8.32,8.32,0,0,0,2,3.44,7.23,7.23,0,0,0,3.53,2,5.27,5.27,0,0,0,3.93-.64,6.5,6.5,0,0,0,2.57-3,6.36,6.36,0,0,0,.49-3.78,7.6,7.6,0,0,0-1.52-3.35,9.11,9.11,0,0,0-5.87-3.38,12.05,12.05,0,0,0-6,.67,15.87,15.87,0,0,0-4.38,2.49,22.82,22.82,0,0,0-2.79,2.62c-.71.78-1.22,1.43-1.57,1.86a5,5,0,0,1-.54.66s0-.07.11-.19.19-.3.35-.53c.32-.46.81-1.12,1.5-1.93a21,21,0,0,1,2.76-2.72,15.76,15.76,0,0,1,4.43-2.61,12.53,12.53,0,0,1,6.19-.75,9.58,9.58,0,0,1,6.18,3.51,8.06,8.06,0,0,1,1.63,3.57,6.88,6.88,0,0,1-.51,4.06,7.08,7.08,0,0,1-2.77,3.22,5.83,5.83,0,0,1-4.31.7,7.66,7.66,0,0,1-3.79-2.18,8.73,8.73,0,0,1-2.14-3.66,15,15,0,0,1,.09-7.89,29.9,29.9,0,0,1,12.81-17.75,24.22,24.22,0,0,1,2.13-1.21A6.55,6.55,0,0,1,459.53,390.1Z" transform="translate(-54.71 -8.4)" style="fill:#fff"/><path d="M349.26,497.41a5.49,5.49,0,0,1-.86-.16l-2.44-.52-9-1.78c-3.81-.74-8.36-1.61-13.39-2.66-2.52-.52-5.15-1.09-7.88-1.74a52.21,52.21,0,0,1-8.32-2.52,27.9,27.9,0,0,1-12.77-10.63,42.25,42.25,0,0,1-5-12.71,60.19,60.19,0,0,1-1.4-9.12c-.07-1.08-.12-1.93-.12-2.5a6.39,6.39,0,0,1,0-.87,5.53,5.53,0,0,1,.1.87c0,.57.12,1.41.22,2.49a69.42,69.42,0,0,0,1.55,9A43.14,43.14,0,0,0,295,477.15a27.63,27.63,0,0,0,12.57,10.41,53.38,53.38,0,0,0,8.23,2.49c2.72.66,5.35,1.24,7.86,1.77L337,494.59c3.8.79,6.88,1.44,9,1.94,1.06.25,1.88.45,2.43.62A4.41,4.41,0,0,1,349.26,497.41Z" transform="translate(-54.71 -8.4)" style="fill:#455a64"/><path d="M391.18,485.68l3.47-1.58,5.35-6.33a8.24,8.24,0,0,1,7.85-2.78l12.45,2.36-3.36,16.42H390.08Z" transform="translate(-54.71 -8.4)" style="fill:#ffbe9d"/><path d="M404.46,279.53c-5.27-3.08-12.4.61-18-1.91-3.38-1.54-5.38-5-8.11-7.5-4.09-3.75-10.66-5.75-16-4.45s-9.11,3.18-11,8.39c-3.78-3.55-12.39.23-16.14,5s-4.42,10.38-4.36,16.41a79.65,79.65,0,0,0,6.37,30.32c.36.84,1,1.84,1.92,1.65.62-.13,1-.78,1.21-1.37,2.07-5,2.67-10.49,3.46-15.86s1.86-10.84,4.7-15.46,7.85-8.27,13.28-8.06c4,.15,7.68,2.33,10.63,5s5.33,6,8.06,8.92,5.93,5.63,9.78,6.72,8.47.24,11-2.89,1.82-8.59-1.81-10.31a7.88,7.88,0,0,0,5.08-14.6Z" transform="translate(-54.71 -8.4)" style="fill:#263238"/><path d="M338.62,299l-8.29,60.27a18.1,18.1,0,0,0,16.35,20.5h0a18.11,18.11,0,0,0,19.51-15.59c.62-4.54,1.15-8.32,1.24-8.79,0,0,15.55.67,18.74-14.36,1.55-7.27,3.51-22.49,5.13-36.28a28.63,28.63,0,0,0-22.84-31.4L367,273C351.15,270.82,340.4,283.06,338.62,299Z" transform="translate(-54.71 -8.4)" style="fill:#ffbe9d"/><path d="M367.5,355.16A35.74,35.74,0,0,1,349,345.65s2.48,11.78,17.79,13.42Z" transform="translate(-54.71 -8.4)" style="fill:#eb996e"/><path d="M384.89,313.94a2.19,2.19,0,0,1-2.51,1.76,2.11,2.11,0,0,1-1.83-2.38,2.19,2.19,0,0,1,2.51-1.76A2.09,2.09,0,0,1,384.89,313.94Z" transform="translate(-54.71 -8.4)" style="fill:#263238"/><path d="M386.58,311.48c-.32.22-1.71-1.31-4-1.77s-4.24.37-4.44,0c-.09-.15.28-.6,1.13-1a6,6,0,0,1,3.62-.37,5.84,5.84,0,0,1,3.14,1.75C386.6,310.82,386.74,311.38,386.58,311.48Z" transform="translate(-54.71 -8.4)" style="fill:#263238"/><path d="M362,310.19a2.2,2.2,0,0,1-2.51,1.76,2.1,2.1,0,0,1-1.83-2.39,2.19,2.19,0,0,1,2.51-1.75A2.09,2.09,0,0,1,362,310.19Z" transform="translate(-54.71 -8.4)" style="fill:#263238"/><path d="M363.73,307.36c-.32.23-1.71-1.31-4-1.76s-4.24.36-4.44,0c-.1-.15.27-.61,1.12-1a6.09,6.09,0,0,1,3.63-.37,5.84,5.84,0,0,1,3.14,1.75C363.75,306.7,363.89,307.26,363.73,307.36Z" transform="translate(-54.71 -8.4)" style="fill:#263238"/><path d="M368.71,326.21a15.92,15.92,0,0,1,3.89.08c.61,0,1.19,0,1.37-.34a3.17,3.17,0,0,0,0-1.83c-.27-1.54-.56-3.16-.85-4.85-1.15-6.9-1.86-12.52-1.58-12.56s1.44,5.51,2.58,12.4c.27,1.7.53,3.32.77,4.87a3.47,3.47,0,0,1-.15,2.38,1.51,1.51,0,0,1-1.15.67,4.14,4.14,0,0,1-1-.06C370.15,326.63,368.69,326.35,368.71,326.21Z" transform="translate(-54.71 -8.4)" style="fill:#263238"/><path d="M361.57,326.45c.38.06-.12,2.57,1.68,4.79s4.52,2.47,4.47,2.82c0,.17-.69.37-1.83.18a6.41,6.41,0,0,1-3.76-2.22,5.55,5.55,0,0,1-1.25-4C361,327,361.4,326.41,361.57,326.45Z" transform="translate(-54.71 -8.4)" style="fill:#263238"/><path d="M366.14,298.4c-.35.59-2.6-.17-5.39-.39s-5.12.09-5.37-.55c-.11-.3.39-.82,1.4-1.25a9.36,9.36,0,0,1,8.2.72C365.9,297.53,366.3,298.12,366.14,298.4Z" transform="translate(-54.71 -8.4)" style="fill:#263238"/><path d="M387.07,304.6c-.51.45-2-.42-3.91-.83s-3.61-.35-3.88-1c-.11-.3.25-.77,1.06-1.13a5.82,5.82,0,0,1,6.28,1.46C387.19,303.8,387.3,304.38,387.07,304.6Z" transform="translate(-54.71 -8.4)" style="fill:#263238"/><path d="M337.62,310.38c-.23-.16-9.74-5.13-11.47,5.24s9,10,9.11,9.67S337.62,310.38,337.62,310.38Z" transform="translate(-54.71 -8.4)" style="fill:#ffbe9d"/><path d="M332.74,320.84s-.2.09-.53.18a1.77,1.77,0,0,1-1.35-.2c-1-.58-1.66-2.47-1.4-4.35a6,6,0,0,1,.94-2.5,2.08,2.08,0,0,1,1.59-1.16.93.93,0,0,1,1,.67c.09.31,0,.51,0,.54s.25-.14.24-.58a1.17,1.17,0,0,0-.3-.72,1.33,1.33,0,0,0-.95-.43,2.59,2.59,0,0,0-2.16,1.29,6.22,6.22,0,0,0-1.11,2.79c-.28,2.1.47,4.23,1.89,4.91a2,2,0,0,0,1.7,0C332.68,321.08,332.78,320.86,332.74,320.84Z" transform="translate(-54.71 -8.4)" style="fill:#eb996e"/><path d="M395.12,302.23A22.19,22.19,0,0,1,376.65,294c-3-3.84-5-8.87-9.29-11.2a12.49,12.49,0,0,0-9.62-.59,24.14,24.14,0,0,0-8.4,5.1c1.38,8.24-2.28,16.4-5.85,24a4.17,4.17,0,0,1-1.68,2.13c-1.41.7-3.08-.4-3.92-1.72-1.35-2.12-1.51-4.77-1.46-7.28a43.34,43.34,0,0,1,3.44-16.69,29.36,29.36,0,0,1,10.84-13,27.89,27.89,0,0,1,20.63-3.42,34.25,34.25,0,0,1,18.07,10.85,20,20,0,0,1,4.88,8.56" transform="translate(-54.71 -8.4)" style="fill:#263238"/><path d="M408.06,284a2.18,2.18,0,0,1-.27.87,4.22,4.22,0,0,1-1.86,1.84,6.72,6.72,0,0,1-4.11.52,11.52,11.52,0,0,1-2.52-.67,5.7,5.7,0,0,1-2.39-1.74,3.71,3.71,0,0,1-.7-3.17,3.23,3.23,0,0,1,2.71-2.19,4,4,0,0,1,1.9.13,3.37,3.37,0,0,1,1.61,1.15,4.77,4.77,0,0,1,.82,3.91,5.55,5.55,0,0,1-2.38,3.45,8.44,8.44,0,0,1-4.16,1.38,13.87,13.87,0,0,1-8.61-2.72,40.24,40.24,0,0,1-6.71-6.11,51,51,0,0,0-6-5.8,15.61,15.61,0,0,0-6.74-3.13,14.79,14.79,0,0,0-6.48.35,18.61,18.61,0,0,0-8.08,4.85,25,25,0,0,0-1.75,1.92c-.37.46-.57.71-.58.7s0-.07.11-.2.21-.32.39-.56a20.12,20.12,0,0,1,1.69-2,18.4,18.4,0,0,1,8.12-5.06,15.18,15.18,0,0,1,6.65-.42,16.06,16.06,0,0,1,7,3.18,50.45,50.45,0,0,1,6.11,5.83,39.42,39.42,0,0,0,6.62,6,13.44,13.44,0,0,0,8.29,2.64,8,8,0,0,0,3.91-1.28,5,5,0,0,0,2.19-3.14,4.34,4.34,0,0,0-.71-3.53,3.16,3.16,0,0,0-3.08-1.14,2.87,2.87,0,0,0-2.4,1.88,3.34,3.34,0,0,0,.62,2.84,5.28,5.28,0,0,0,2.21,1.65,10.78,10.78,0,0,0,2.45.69,6.55,6.55,0,0,0,4-.41,4.28,4.28,0,0,0,1.86-1.7A7.52,7.52,0,0,0,408.06,284Z" transform="translate(-54.71 -8.4)" style="fill:#455a64"/><path d="M331.56,287.53a17.42,17.42,0,0,0,3,1.45,9.24,9.24,0,0,0,3.52.33,15.25,15.25,0,0,0,4.24-1.09,12.31,12.31,0,0,0,5.81-5.22,26.06,26.06,0,0,0,1.33-3.06,2.81,2.81,0,0,1-.13.91,10.18,10.18,0,0,1-.87,2.32,12,12,0,0,1-5.94,5.53,14.92,14.92,0,0,1-4.4,1.09,9.11,9.11,0,0,1-3.68-.46,8.78,8.78,0,0,1-2.2-1.18A2.82,2.82,0,0,1,331.56,287.53Z" transform="translate(-54.71 -8.4)" style="fill:#455a64"/><path d="M330.52,295.08c0-.09,1.18.41,3.15.69a14.37,14.37,0,0,0,13.61-5.54c1.21-1.58,1.68-2.74,1.77-2.7a2.68,2.68,0,0,1-.28.83,13,13,0,0,1-1.19,2.09,13.93,13.93,0,0,1-14,5.69,12.36,12.36,0,0,1-2.3-.66A2.72,2.72,0,0,1,330.52,295.08Z" transform="translate(-54.71 -8.4)" style="fill:#455a64"/><path d="M354.07,315.67a.29.29,0,1,1,.26-.29A.28.28,0,0,1,354.07,315.67Z" transform="translate(-54.71 -8.4)" style="fill:#eb996e"/><path d="M358.69,315.55a.34.34,0,1,1,.27-.33A.31.31,0,0,1,358.69,315.55Z" transform="translate(-54.71 -8.4)" style="fill:#eb996e"/><path d="M361.69,316.07c-.14,0-.25-.21-.23-.44s.15-.42.29-.41.25.21.23.44S361.83,316.08,361.69,316.07Z" transform="translate(-54.71 -8.4)" style="fill:#eb996e"/><path d="M355.69,318.88c-.14,0-.24-.12-.22-.21s.14-.14.29-.12.24.13.22.22S355.83,318.91,355.69,318.88Z" transform="translate(-54.71 -8.4)" style="fill:#eb996e"/><path d="M359.94,318.75a.28.28,0,0,1-.23-.32.26.26,0,1,1,.52.05A.28.28,0,0,1,359.94,318.75Z" transform="translate(-54.71 -8.4)" style="fill:#eb996e"/><ellipse cx="326.85" cy="311.75" rx="0.26" ry="0.29" style="fill:#eb996e"/><path d="M384.63,320.77a.33.33,0,0,1,.07-.65.3.3,0,0,1,.22.35C384.9,320.65,384.77,320.79,384.63,320.77Z" transform="translate(-54.71 -8.4)" style="fill:#eb996e"/><path d="M378.88,320a.25.25,0,0,1-.26-.23.25.25,0,0,1,.26-.23.25.25,0,0,1,.26.23A.24.24,0,0,1,378.88,320Z" transform="translate(-54.71 -8.4)" style="fill:#eb996e"/><path d="M380.51,323.45a.27.27,0,0,1-.31-.23.26.26,0,1,1,.31.23Z" transform="translate(-54.71 -8.4)" style="fill:#eb996e"/><path d="M383.19,323.45a.23.23,0,0,1-.13-.31.24.24,0,0,1,.33-.08.22.22,0,1,1-.2.39Z" transform="translate(-54.71 -8.4)" style="fill:#eb996e"/><path d="M328.06,322.81a6.53,6.53,0,0,0-.75,2.28,3.46,3.46,0,0,0,.69,2.38,3.17,3.17,0,0,0,2.63,1.29,2.9,2.9,0,0,0,2.41-1.6,3.75,3.75,0,0,0,0-2.49,5.26,5.26,0,0,0-1.14-2.1c0-.08,1,.45,1.5,2a4,4,0,0,1,0,2.79,3.32,3.32,0,0,1-2.81,1.92,3.57,3.57,0,0,1-3.05-1.52,3.79,3.79,0,0,1-.68-2.7,4.19,4.19,0,0,1,.65-1.75C327.84,322.94,328,322.79,328.06,322.81Z" transform="translate(-54.71 -8.4)" style="fill:#263238"/><path d="M328.44,321.07s.35.21.43.82a1.5,1.5,0,0,1-.26,1,1.55,1.55,0,0,1-1.14.67,1.41,1.41,0,0,1-1.22-.57,1.19,1.19,0,0,1-.18-1.08c.21-.61.68-.69.68-.63s-.26.26-.32.72a.85.85,0,0,0,.2.7,1,1,0,0,0,.8.34,1.15,1.15,0,0,0,.8-.44,1.27,1.27,0,0,0,.27-.73C328.53,321.42,328.37,321.11,328.44,321.07Z" transform="translate(-54.71 -8.4)" style="fill:#263238"/><polygon points="457.72 424.03 428.42 489 300.82 489 301.34 485.7 345.56 484.96 367.86 424.31 457.72 424.03" style="fill:#455a64"/><path d="M454.06,461.87A5,5,0,0,1,461.3,465a4.87,4.87,0,0,1-4.62,5.82,4.66,4.66,0,0,1-4.68-3.09c-.56-1.94.06-4.83,2.06-5.85" transform="translate(-54.71 -8.4)" style="fill:#ebebeb"/></g><g id="Books"><rect x="133.91" y="414.19" width="17.63" height="20.96" style="fill:#f5f5f5"/><rect x="54.83" y="412.83" width="79.68" height="23.65" style="fill:#e8505b"/><path d="M206.79,423.22h-19.7v-2h19.7a1,1,0,0,1,1,1h0A1,1,0,0,1,206.79,423.22Z" transform="translate(-54.71 -8.4)" style="fill:#e8505b"/><path d="M206.79,444.88h-19.7v-2h19.7a1,1,0,0,1,1,1h0A1,1,0,0,1,206.79,444.88Z" transform="translate(-54.71 -8.4)" style="fill:#e8505b"/><g style="opacity:0.4"><rect x="118.83" y="412.83" width="9.41" height="23.65"/></g><g style="opacity:0.4"><rect x="61.9" y="412.83" width="9.41" height="23.65"/></g><path d="M206.25,426.07c0,.05-3.82.1-8.52.1s-8.53-.05-8.53-.1,3.82-.11,8.53-.11S206.25,426,206.25,426.07Z" transform="translate(-54.71 -8.4)" style="fill:#e0e0e0"/><path d="M206.25,429.21c0,.06-3.82.1-8.52.1s-8.53,0-8.53-.1,3.82-.11,8.53-.11S206.25,429.15,206.25,429.21Z" transform="translate(-54.71 -8.4)" style="fill:#e0e0e0"/><path d="M206.25,433.08c0,.06-3.82.1-8.52.1s-8.53,0-8.53-.1,3.82-.1,8.53-.1S206.25,433,206.25,433.08Z" transform="translate(-54.71 -8.4)" style="fill:#e0e0e0"/><path d="M206.25,437c0,.06-3.82.11-8.52.11s-8.53-.05-8.53-.11,3.82-.1,8.53-.1S206.25,436.89,206.25,437Z" transform="translate(-54.71 -8.4)" style="fill:#e0e0e0"/><path d="M206.25,440.82c0,.06-3.82.11-8.52.11s-8.53-.05-8.53-.11,3.82-.1,8.53-.1S206.25,440.76,206.25,440.82Z" transform="translate(-54.71 -8.4)" style="fill:#e0e0e0"/><g style="opacity:0.2"><rect x="77.92" y="422.55" width="35.85" height="4.26"/></g><rect x="133.46" y="436.94" width="17.9" height="12.77" style="fill:#fafafa"/><rect x="57.47" y="436.47" width="76.19" height="13.7" style="fill:#455a64"/><path d="M187.82,445.81h19.24a.47.47,0,0,0,.46-.47h0a.47.47,0,0,0-.46-.46H187.82Z" transform="translate(-54.71 -8.4)" style="fill:#455a64"/><path d="M133.1,449.25h19.29a.42.42,0,0,1,.42.42v.09a.42.42,0,0,1-.42.42H133.1a0,0,0,0,1,0,0v-.93A0,0,0,0,1,133.1,449.25Z" style="fill:#455a64"/><path d="M206.07,447.77c0,.06-4,.1-8.85.1s-8.85,0-8.85-.1,4-.11,8.85-.11S206.07,447.71,206.07,447.77Z" transform="translate(-54.71 -8.4)" style="fill:#e0e0e0"/><path d="M206.07,450.19c0,.05-4,.1-8.85.1s-8.85-.05-8.85-.1,4-.11,8.85-.11S206.07,450.13,206.07,450.19Z" transform="translate(-54.71 -8.4)" style="fill:#e0e0e0"/><path d="M206.07,452.6c0,.06-4,.11-8.85.11s-8.85,0-8.85-.11,4-.1,8.85-.1S206.07,452.54,206.07,452.6Z" transform="translate(-54.71 -8.4)" style="fill:#e0e0e0"/><path d="M206.07,455c0,.06-4,.1-8.85.1s-8.85,0-8.85-.1,4-.11,8.85-.11S206.07,455,206.07,455Z" transform="translate(-54.71 -8.4)" style="fill:#e0e0e0"/><rect x="135.8" y="451.39" width="18.27" height="34.62" style="fill:#ebebeb"/><rect x="50.03" y="450.17" width="85.77" height="37.54" style="fill:#e8505b"/><path d="M210.22,496.12H188.17v-2.43h22.05a1.21,1.21,0,0,1,1.21,1.21h0A1.22,1.22,0,0,1,210.22,496.12Z" transform="translate(-54.71 -8.4)" style="fill:#e8505b"/><path d="M133.46,450.17h22.16a1.1,1.1,0,0,1,1.1,1.1v.23a1.1,1.1,0,0,1-1.1,1.1H133.46a0,0,0,0,1,0,0v-2.43A0,0,0,0,1,133.46,450.17Z" style="fill:#e8505b"/><path d="M208.79,464.44c0,.06-4.09.1-9.14.1s-9.14,0-9.14-.1,4.09-.11,9.14-.11S208.79,464.38,208.79,464.44Z" transform="translate(-54.71 -8.4)" style="fill:#e0e0e0"/><path d="M208.79,468.88c0,.06-4.09.1-9.14.1s-9.14,0-9.14-.1,4.09-.11,9.14-.11S208.79,468.82,208.79,468.88Z" transform="translate(-54.71 -8.4)" style="fill:#e0e0e0"/><path d="M208.79,473.32c0,.06-4.09.1-9.14.1s-9.14,0-9.14-.1,4.09-.11,9.14-.11S208.79,473.26,208.79,473.32Z" transform="translate(-54.71 -8.4)" style="fill:#e0e0e0"/><path d="M208.79,477.76c0,.06-4.09.1-9.14.1s-9.14,0-9.14-.1,4.09-.11,9.14-.11S208.79,477.7,208.79,477.76Z" transform="translate(-54.71 -8.4)" style="fill:#e0e0e0"/><path d="M208.79,482.2c0,.06-4.09.1-9.14.1s-9.14,0-9.14-.1,4.09-.1,9.14-.1S208.79,482.14,208.79,482.2Z" transform="translate(-54.71 -8.4)" style="fill:#e0e0e0"/><path d="M208.79,486.64c0,.06-4.09.11-9.14.11s-9.14-.05-9.14-.11,4.09-.1,9.14-.1S208.79,486.58,208.79,486.64Z" transform="translate(-54.71 -8.4)" style="fill:#e0e0e0"/><path d="M208.79,491.08c0,.06-4.09.11-9.14.11s-9.14-.05-9.14-.11,4.09-.1,9.14-.1S208.79,491,208.79,491.08Z" transform="translate(-54.71 -8.4)" style="fill:#e0e0e0"/><path d="M134.09,479.4v2.09c0,2.52-1.26,4-3.68,4s-3.69-1.44-3.69-4v-8.17c0-2.52,1.26-4,3.69-4s3.68,1.44,3.68,4v1.52h-2.34v-1.68c0-1.12-.49-1.55-1.28-1.55s-1.28.43-1.28,1.55v8.49c0,1.12.5,1.53,1.28,1.53s1.28-.41,1.28-1.53V479.4Z" transform="translate(-54.71 -8.4)" style="fill:#ebebeb"/><path d="M135.39,473.32c0-2.52,1.33-4,3.75-4s3.75,1.44,3.75,4v8.17c0,2.52-1.32,4-3.75,4s-3.75-1.44-3.75-4Zm2.47,8.33c0,1.12.5,1.55,1.28,1.55s1.28-.43,1.28-1.55v-8.49c0-1.12-.49-1.55-1.28-1.55s-1.28.43-1.28,1.55Z" transform="translate(-54.71 -8.4)" style="fill:#ebebeb"/><path d="M144.49,469.54H147V483H151v2.25h-6.53Z" transform="translate(-54.71 -8.4)" style="fill:#ebebeb"/><path d="M151.9,473.32c0-2.52,1.32-4,3.75-4s3.75,1.44,3.75,4v8.17c0,2.52-1.33,4-3.75,4s-3.75-1.44-3.75-4Zm2.47,8.33c0,1.12.49,1.55,1.28,1.55s1.28-.43,1.28-1.55v-8.49c0-1.12-.5-1.55-1.28-1.55s-1.28.43-1.28,1.55Z" transform="translate(-54.71 -8.4)" style="fill:#ebebeb"/><path d="M163.35,469.54v12.13c0,1.13.49,1.53,1.28,1.53s1.28-.4,1.28-1.53V469.54h2.34v12c0,2.52-1.26,4-3.69,4s-3.68-1.44-3.68-4v-12Z" transform="translate(-54.71 -8.4)" style="fill:#ebebeb"/><path d="M175.09,485.27a5,5,0,0,1-.22-1.94v-2.47c0-1.46-.49-2-1.62-2h-.85v6.41h-2.47V469.54h3.73c2.56,0,3.66,1.19,3.66,3.62v1.23c0,1.62-.52,2.68-1.62,3.19,1.24.52,1.64,1.71,1.64,3.35v2.43a4.61,4.61,0,0,0,.27,1.91Zm-2.69-13.48v4.83h1c.92,0,1.48-.41,1.48-1.66v-1.55c0-1.13-.38-1.62-1.26-1.62Z" transform="translate(-54.71 -8.4)" style="fill:#ebebeb"/><path d="M133.56,450.27h-1.81l.1-.46H136l-.1.46h-1.79l-.93,4.64h-.53Z" transform="translate(-54.71 -8.4)" style="fill:#263238"/><path d="M139.45,451.08l-2.8,4.33c-.47.73-.83.95-1.38.95a1.23,1.23,0,0,1-.91-.34l.27-.38a.89.89,0,0,0,.68.28c.33,0,.59-.15.88-.62l.27-.41-1-3.81H136l.8,3.26,2.09-3.26Z" transform="translate(-54.71 -8.4)" style="fill:#263238"/><path d="M143.72,452.67a2.16,2.16,0,0,1-2.17,2.28,1.44,1.44,0,0,1-1.46-.84l-.44,2.22h-.52l1-5.25h.5l-.12.61a1.92,1.92,0,0,1,1.49-.64A1.55,1.55,0,0,1,143.72,452.67Zm-.53,0a1.12,1.12,0,0,0-1.26-1.2,1.67,1.67,0,0,0-1.65,1.8,1.12,1.12,0,0,0,1.26,1.19A1.67,1.67,0,0,0,143.19,452.7Z" transform="translate(-54.71 -8.4)" style="fill:#263238"/><path d="M144.32,453.32a2.18,2.18,0,0,1,2.22-2.27,1.57,1.57,0,0,1,1.74,1.62,2.17,2.17,0,0,1-2.21,2.28A1.58,1.58,0,0,1,144.32,453.32Zm3.45-.62a1.13,1.13,0,0,0-1.27-1.2,1.69,1.69,0,0,0-1.66,1.8,1.12,1.12,0,0,0,1.26,1.19A1.68,1.68,0,0,0,147.77,452.7Z" transform="translate(-54.71 -8.4)" style="fill:#263238"/><path d="M153.25,451.08l-.67,3.37a2,2,0,0,1-2.24,1.91,2.42,2.42,0,0,1-1.7-.57l.3-.4a2,2,0,0,0,1.44.52,1.5,1.5,0,0,0,1.66-1.38l.09-.42a2,2,0,0,1-1.53.66,1.52,1.52,0,0,1-1.69-1.55,2.12,2.12,0,0,1,2.19-2.17,1.47,1.47,0,0,1,1.49.87l.16-.84Zm-.88,1.54c0-.7-.47-1.12-1.27-1.12a1.63,1.63,0,0,0-1.67,1.69c0,.7.47,1.12,1.27,1.12A1.63,1.63,0,0,0,152.37,452.62Z" transform="translate(-54.71 -8.4)" style="fill:#263238"/><path d="M156.63,451.05l-.1.5h-.14a1.51,1.51,0,0,0-1.55,1.43l-.39,1.94h-.52l.76-3.83h.5l-.14.7A1.73,1.73,0,0,1,156.63,451.05Z" transform="translate(-54.71 -8.4)" style="fill:#263238"/><path d="M161,451.08l-.77,3.83h-.5l.13-.6a2,2,0,0,1-1.5.64,1.55,1.55,0,0,1-1.67-1.63,2.16,2.16,0,0,1,2.17-2.27,1.45,1.45,0,0,1,1.46.83l.16-.8Zm-.86,1.62a1.13,1.13,0,0,0-1.27-1.2,1.69,1.69,0,0,0-1.66,1.8,1.12,1.12,0,0,0,1.26,1.19A1.68,1.68,0,0,0,160.17,452.7Z" transform="translate(-54.71 -8.4)" style="fill:#263238"/><path d="M166,452.67a2.16,2.16,0,0,1-2.18,2.28,1.44,1.44,0,0,1-1.46-.84l-.43,2.22h-.52l1-5.25h.5l-.13.61a2,2,0,0,1,1.5-.64A1.55,1.55,0,0,1,166,452.67Zm-.53,0a1.12,1.12,0,0,0-1.26-1.2,1.67,1.67,0,0,0-1.66,1.8,1.12,1.12,0,0,0,1.26,1.19A1.67,1.67,0,0,0,165.48,452.7Z" transform="translate(-54.71 -8.4)" style="fill:#263238"/><path d="M170.65,452.3a3.44,3.44,0,0,1,0,.43l-.44,2.18h-.52l.44-2.19a2.14,2.14,0,0,0,0-.34c0-.55-.32-.87-1-.87a1.5,1.5,0,0,0-1.56,1.35l-.41,2.05h-.52l1.08-5.41h.52l-.43,2.15a1.9,1.9,0,0,1,1.47-.6A1.2,1.2,0,0,1,170.65,452.3Z" transform="translate(-54.71 -8.4)" style="fill:#263238"/><path d="M175.5,451.08l-2.8,4.33c-.48.73-.84.95-1.39.95a1.23,1.23,0,0,1-.91-.34l.28-.38a.85.85,0,0,0,.67.28c.33,0,.59-.15.89-.62l.27-.41-1-3.81h.53l.79,3.26,2.09-3.26Z" transform="translate(-54.71 -8.4)" style="fill:#263238"/><g style="opacity:0.30000000000000004"><polygon points="71.31 450.17 59.51 487.71 50.03 487.71 50.03 450.17 71.31 450.17"/></g></g><g id="Plant"><path d="M152.15,403.36c-5.55-3.22-8.53-10.71-8.75-16.85s2.33-12.53,7.36-16.05a16.86,16.86,0,0,1,18.29-.15,19,19,0,0,1,8.39,16.53,21.89,21.89,0,0,1-9,16.46" transform="translate(-54.71 -8.4)" style="fill:#e8505b"/><path d="M161,404a8,8,0,0,1-.1-1.41c0-1-.06-2.28-.11-3.82-.08-3.23-.21-7.69-.42-12.62s-.49-9.38-.69-12.6c-.09-1.54-.17-2.82-.23-3.82a8.9,8.9,0,0,1,0-1.41,6.57,6.57,0,0,1,.23,1.39c.11.9.24,2.2.39,3.81.3,3.22.62,7.68.84,12.61s.28,9.4.27,12.63c0,1.62,0,2.93-.06,3.83A6.91,6.91,0,0,1,161,404Z" transform="translate(-54.71 -8.4)" style="fill:#fff"/><path d="M145.05,385.12c0,.15-.9.19-2,.1s-1.95-.28-1.94-.42.9-.19,2-.1S145.06,385,145.05,385.12Z" transform="translate(-54.71 -8.4)" style="fill:#263238"/><path d="M145.35,379.62c-.06.13-.82-.08-1.71-.47s-1.55-.82-1.49-.95.82.08,1.7.47S145.41,379.49,145.35,379.62Z" transform="translate(-54.71 -8.4)" style="fill:#263238"/><path d="M148.18,375.53c-.07.12-.93-.28-1.83-1S144.9,373,145,372.9s.82.49,1.69,1.21S148.26,375.41,148.18,375.53Z" transform="translate(-54.71 -8.4)" style="fill:#263238"/><path d="M151,371.68c-.13.06-.54-.59-.92-1.44s-.58-1.59-.44-1.65.54.59.92,1.44S151.16,371.62,151,371.68Z" transform="translate(-54.71 -8.4)" style="fill:#263238"/><path d="M155.5,368.94c-.13.06-.57-.62-.87-1.57s-.32-1.77-.18-1.79.39.72.68,1.63S155.63,368.88,155.5,368.94Z" transform="translate(-54.71 -8.4)" style="fill:#263238"/><path d="M163,365.86c.14.05.06.63-.18,1.31s-.54,1.18-.68,1.13-.05-.63.19-1.31S162.82,365.81,163,365.86Z" transform="translate(-54.71 -8.4)" style="fill:#263238"/><path d="M168.49,368.23c.09.11-.26.6-.8,1.09s-1.05.81-1.14.71.25-.59.79-1.09S168.39,368.13,168.49,368.23Z" transform="translate(-54.71 -8.4)" style="fill:#263238"/><path d="M173.35,371.38c.09.12-.35.55-1,1s-1.18.65-1.26.54.35-.56,1-1S173.27,371.26,173.35,371.38Z" transform="translate(-54.71 -8.4)" style="fill:#263238"/><path d="M176.81,376.07c.06.13-.62.55-1.52.93s-1.67.59-1.73.45.63-.55,1.52-.93S176.76,375.93,176.81,376.07Z" transform="translate(-54.71 -8.4)" style="fill:#263238"/><path d="M178.17,381.18c0,.14-.67.35-1.55.45s-1.59.08-1.61-.06.68-.34,1.55-.45S178.16,381,178.17,381.18Z" transform="translate(-54.71 -8.4)" style="fill:#263238"/><path d="M178.88,387.47c-.06.14-.79-.06-1.65-.43s-1.5-.78-1.44-.91.79.06,1.65.43S178.94,387.34,178.88,387.47Z" transform="translate(-54.71 -8.4)" style="fill:#263238"/><path d="M178.26,392.87c0,.14-1-.09-2-.73s-1.56-1.4-1.46-1.5.82.47,1.75,1.07S178.31,392.74,178.26,392.87Z" transform="translate(-54.71 -8.4)" style="fill:#263238"/><path d="M175.45,397.79c-.09.11-.83-.32-1.55-1.09s-1.09-1.55-1-1.62.68.53,1.36,1.26S175.54,397.68,175.45,397.79Z" transform="translate(-54.71 -8.4)" style="fill:#263238"/><path d="M148.74,398.37c.07.13-.71.67-1.74,1.2s-1.92.87-2,.74.72-.66,1.75-1.2S148.68,398.24,148.74,398.37Z" transform="translate(-54.71 -8.4)" style="fill:#263238"/><path d="M146.3,393.92c.06.13-.56.55-1.39.92s-1.56.58-1.62.45.57-.54,1.4-.92S146.25,393.79,146.3,393.92Z" transform="translate(-54.71 -8.4)" style="fill:#263238"/><path d="M144.51,390c0,.15-.75.37-1.72.51s-1.78.13-1.8,0,.76-.37,1.73-.51S144.49,389.84,144.51,390Z" transform="translate(-54.71 -8.4)" style="fill:#263238"/><path d="M150.39,387.81c.05.14-.71.49-1.71.6s-1.81-.06-1.8-.2.79-.21,1.74-.32S150.35,387.67,150.39,387.81Z" transform="translate(-54.71 -8.4)" style="fill:#263238"/><path d="M155.28,383c0,.14-.56.44-1.37.52s-1.45-.1-1.43-.24.63-.21,1.38-.28S155.24,382.81,155.28,383Z" transform="translate(-54.71 -8.4)" style="fill:#263238"/><path d="M156.21,379.06c-.05.13-.69,0-1.45-.23s-1.32-.58-1.27-.71.69,0,1.44.22S156.26,378.92,156.21,379.06Z" transform="translate(-54.71 -8.4)" style="fill:#263238"/><path d="M158,375.12c-.1.1-.54-.19-.86-.75s-.35-1.08-.21-1.12.38.37.66.86S158.11,375,158,375.12Z" transform="translate(-54.71 -8.4)" style="fill:#263238"/><path d="M155.84,391.24c0,.14-.52.4-1.25.58a4.93,4.93,0,0,1-1.05.15l-.11-.3c.19,0,.31,0,.34,0s-.05.15-.21.26l-.1-.3a4.46,4.46,0,0,1,1-.35C155.19,391.13,155.81,391.1,155.84,391.24Z" transform="translate(-54.71 -8.4)" style="fill:#263238"/><path d="M156.85,398.15c.05.13-.66.54-1.6.9s-1.73.56-1.79.43.67-.54,1.6-.91S156.8,398,156.85,398.15Z" transform="translate(-54.71 -8.4)" style="fill:#263238"/><path d="M151.33,395.08c0,.13-.43.42-1.06.64s-1.19.28-1.24.14.43-.42,1.07-.64S151.28,394.94,151.33,395.08Z" transform="translate(-54.71 -8.4)" style="fill:#263238"/><path d="M151.75,381c0,.13-.86.05-1.82-.29s-1.66-.8-1.6-.93.84.11,1.77.44S151.79,380.88,151.75,381Z" transform="translate(-54.71 -8.4)" style="fill:#263238"/><path d="M165.11,379.5c.08.12-.39.57-1.05,1s-1.25.68-1.33.56.39-.56,1.05-1S165,379.38,165.11,379.5Z" transform="translate(-54.71 -8.4)" style="fill:#263238"/><path d="M165.83,386.43c0,.14-.46.36-1.09.49s-1.18.13-1.21,0,.46-.36,1.1-.5S165.81,386.29,165.83,386.43Z" transform="translate(-54.71 -8.4)" style="fill:#263238"/><path d="M166.68,394.23c-.06.13-.77-.07-1.58-.45s-1.43-.79-1.36-.92.76.07,1.58.45S166.74,394.1,166.68,394.23Z" transform="translate(-54.71 -8.4)" style="fill:#263238"/><path d="M164.89,401.82c-.11.09-.57-.29-1-.84s-.74-1.08-.63-1.17.57.28,1,.84S165,401.72,164.89,401.82Z" transform="translate(-54.71 -8.4)" style="fill:#263238"/><path d="M164.53,374.39c.08.11-.22.5-.74.76s-1,.27-1,.14.34-.37.81-.61S164.44,374.28,164.53,374.39Z" transform="translate(-54.71 -8.4)" style="fill:#263238"/><path d="M171.07,381.39c.05.13-.56.46-1.38.58s-1.51,0-1.5-.18.65-.23,1.42-.34S171,381.25,171.07,381.39Z" transform="translate(-54.71 -8.4)" style="fill:#263238"/><path d="M169.77,375.11c.06.12-.54.55-1.39.83s-1.6.27-1.62.13.64-.37,1.46-.63S169.7,375,169.77,375.11Z" transform="translate(-54.71 -8.4)" style="fill:#263238"/><path d="M172.5,391.11a6.32,6.32,0,0,1-4.39-.8,7.1,7.1,0,0,1,2.21.29A6.91,6.91,0,0,1,172.5,391.11Z" transform="translate(-54.71 -8.4)" style="fill:#263238"/><path d="M170.07,400.23c-.09.11-.85-.34-1.6-1.1s-1.2-1.52-1.09-1.6.73.5,1.46,1.23S170.16,400.11,170.07,400.23Z" transform="translate(-54.71 -8.4)" style="fill:#263238"/><path d="M159.37,367.69a23.42,23.42,0,0,0-4.56,3.61,22.28,22.28,0,0,0-5.69,12.57,28.15,28.15,0,0,0,.35,7.7,56.7,56.7,0,0,0,1.44,6.18c.5,1.74,1,3.13,1.27,4.1a9.47,9.47,0,0,1,.43,1.51,8.62,8.62,0,0,1-.63-1.44c-.36-.95-.88-2.33-1.42-4.07a51.5,51.5,0,0,1-1.57-6.2,27.92,27.92,0,0,1-.38-7.85A21.93,21.93,0,0,1,154.54,371a16.21,16.21,0,0,1,3.41-2.66,10.9,10.9,0,0,1,1-.54C159.24,367.72,159.37,367.67,159.37,367.69Z" transform="translate(-54.71 -8.4)" style="fill:#fff"/><path d="M166.48,403.7a59.71,59.71,0,0,0,2.34-5.59,31.8,31.8,0,0,0,1.4-14.39,27.33,27.33,0,0,0-2.22-7.66,18.19,18.19,0,0,0-3.78-5.27,13.8,13.8,0,0,0-3.71-2.34c-1-.4-1.54-.5-1.53-.54a1.17,1.17,0,0,1,.43,0,7.75,7.75,0,0,1,1.18.32,12.91,12.91,0,0,1,3.87,2.25,17.78,17.78,0,0,1,4,5.34,26.63,26.63,0,0,1,2.3,7.8,30.55,30.55,0,0,1-1.57,14.58c-.29.9-.67,1.67-.95,2.36s-.61,1.26-.87,1.72A10.66,10.66,0,0,1,166.48,403.7Z" transform="translate(-54.71 -8.4)" style="fill:#fff"/><polygon points="91.59 394.06 120.3 394.06 120.47 399.81 91.59 399.81 91.59 394.06" style="fill:#263238"/><polygon points="94.03 396.94 95.68 414.47 116.67 414.47 118.35 397.13 94.03 396.94" style="fill:#263238"/><path d="M175.19,408.28c0,.15-6.47.26-14.44.26s-14.44-.11-14.44-.26,6.46-.26,14.44-.26S175.19,408.14,175.19,408.28Z" transform="translate(-54.71 -8.4)" style="fill:#455a64"/><path d="M172.27,413.62a4.37,4.37,0,0,1-.62,1.1,15.72,15.72,0,0,1-2.22,2.63l-.13.13-.13-.14a42.39,42.39,0,0,0-5.63-4.93h.32l-2.5,2.19-2.94,2.57-.17.14-.16-.14-4.79-4,.27,0c-1,1.21-1.82,2.22-2.47,3a7,7,0,0,1-1,1.06,7.71,7.71,0,0,1,.8-1.2l2.35-3.13.12-.16.16.13,4.86,3.94h-.33L161,414.2l2.5-2.18.16-.14.16.12a37.29,37.29,0,0,1,5.6,5.09h-.26A28.73,28.73,0,0,0,172.27,413.62Z" transform="translate(-54.71 -8.4)" style="fill:#455a64"/></g><g id="Window"><rect x="493.94" y="392.73" width="99.86" height="72.92" style="fill:#fff"/><rect x="493.94" y="392.73" width="99.86" height="9.11" style="fill:#e8505b"/><path d="M554.07,406a1,1,0,1,1-1-1.14A1.09,1.09,0,0,1,554.07,406Z" transform="translate(-54.71 -8.4)" style="fill:#fff"/><path d="M558.3,406a1,1,0,1,1-1-1.14A1.1,1.1,0,0,1,558.3,406Z" transform="translate(-54.71 -8.4)" style="fill:#fff"/><path d="M562.52,406a1,1,0,1,1-1-1.14A1.09,1.09,0,0,1,562.52,406Z" transform="translate(-54.71 -8.4)" style="fill:#fff"/><rect x="503.43" y="410.77" width="14.23" height="35.8" style="fill:#e8505b"/><rect x="525.38" y="410.77" width="14.23" height="35.8" style="fill:#ebebeb"/><rect x="547.32" y="410.77" width="14.23" height="35.8" style="fill:#fafafa"/><rect x="569.27" y="411.05" width="14.23" height="35.8" style="fill:#e0e0e0"/><rect x="501.79" y="450.52" width="86.26" height="8.18" style="fill:#e8505b"/><polygon points="581.48 457.03 583.34 466.88 584.86 464.13 588.14 469.04 589.78 467.93 586.5 463.02 589.51 462.56 581.48 457.03" style="fill:#263238"/><path d="M648.51,474.05s0-.46,0-1.34,0-2.18,0-3.87c0-3.4,0-8.37-.05-14.72,0-12.7-.06-30.91-.1-53l.19.19-99.85,0h0l.23-.23c0,26.16,0,51,0,72.92l-.21-.2,72,.1,20.49.05,5.45,0h1.43l-1.39,0-5.4,0-20.45.06-72.16.1h-.2v-.21c0-22,0-46.76,0-72.92v-.23h.24l99.85.05h.18v.18c0,22.13-.07,40.38-.09,53.1,0,6.34,0,11.3-.05,14.68,0,1.68,0,3,0,3.84S648.51,474.05,648.51,474.05Z" transform="translate(-54.71 -8.4)" style="fill:#263238"/></g><g id="Design_Tool" data-name="Design Tool"><path d="M657.18,306.15c0,.35-25.66.63-57.3.63s-57.32-.28-57.32-.63,25.66-.63,57.32-.63S657.18,305.8,657.18,306.15Z" transform="translate(-54.71 -8.4)" style="fill:#e8505b"/><rect x="543.85" y="295.3" width="6.77" height="6.77" style="fill:#e8505b"/><path d="M658.47,306.15a2,2,0,1,1-2-2A2,2,0,0,1,658.47,306.15Z" transform="translate(-54.71 -8.4)" style="fill:#e8505b"/><circle cx="487.85" cy="297.75" r="2.01" style="fill:#e8505b"/><path d="M592.23,287.61l8.57,16,1.1,0-.3-12.83a1.41,1.41,0,0,1-1.19-1.34,1.43,1.43,0,0,1,2.86-.07,1.41,1.41,0,0,1-1.13,1.4l.3,12.82,1,0,8.09-16.74c-6.22-.2-7-6.15-7-6.15l-6,.09C598.71,286.76,592.23,287.61,592.23,287.61Z" transform="translate(-54.71 -8.4)" style="fill:#e8505b"/><path d="M648.46,362.29a2.24,2.24,0,0,1,0-.42l0-1.22c0-1.08-.1-2.66-.25-4.7A72.45,72.45,0,0,0,645,339a50.35,50.35,0,0,0-4.91-10.82A38.79,38.79,0,0,0,625,313.87a45.25,45.25,0,0,0-7.09-3,54.24,54.24,0,0,0-7.77-1.79,68.69,68.69,0,0,0-8.2-.68c-11.09-.42-21.77,2.93-29.41,8.76a38.8,38.8,0,0,0-9.25,9.95,46.14,46.14,0,0,0-5.13,10.71c-.33.85-.54,1.71-.78,2.55s-.48,1.64-.67,2.44c-.31,1.61-.7,3.12-.91,4.55s-.42,2.77-.58,4-.2,2.37-.29,3.39-.14,1.92-.16,2.71-.06,1.44-.08,2,0,.93-.06,1.23a2.18,2.18,0,0,1,0,.41,1.85,1.85,0,0,1,0-.41c0-.3,0-.71,0-1.23s0-1.21,0-2,0-1.7.11-2.72.17-2.16.26-3.4.34-2.57.53-4,.57-2.95.88-4.58c.18-.8.43-1.61.65-2.46s.44-1.71.77-2.57a46.38,46.38,0,0,1,5.12-10.83,39.07,39.07,0,0,1,9.32-10.09c7.73-5.92,18.51-9.32,29.72-8.9a68.15,68.15,0,0,1,8.26.69,53.05,53.05,0,0,1,7.85,1.82,45.74,45.74,0,0,1,7.17,3,40.85,40.85,0,0,1,6.21,4.13,40.1,40.1,0,0,1,9,10.39,49.8,49.8,0,0,1,4.9,10.94,70.8,70.8,0,0,1,3,17.05c.11,2,.15,3.63.14,4.71,0,.52,0,.92,0,1.22A1.91,1.91,0,0,1,648.46,362.29Z" transform="translate(-54.71 -8.4)" style="fill:#e8505b"/></g><g id="Clock"><rect x="526.08" y="98.81" width="4.36" height="6.8" transform="translate(6.38 360.76) rotate(-40.7)" style="fill:#263238"/><path d="M530.8,98.23,524,104.09l-4.78-5.56A17.06,17.06,0,0,1,526,92.67Z" transform="translate(-54.71 -8.4)" style="fill:#455a64"/><path d="M525.13,103.11a14.16,14.16,0,0,1-2.7-2.72,14.73,14.73,0,0,1-2.32-3,14.48,14.48,0,0,1,2.71,2.71A14.09,14.09,0,0,1,525.13,103.11Z" transform="translate(-54.71 -8.4)" style="fill:#263238"/><path d="M526.43,102a15.45,15.45,0,0,1-2.68-2.86A21.27,21.27,0,0,1,521.42,96c.14-.13,1.36,1.15,2.73,2.81A14.5,14.5,0,0,1,526.43,102Z" transform="translate(-54.71 -8.4)" style="fill:#263238"/><path d="M528.15,100.5a15.36,15.36,0,0,1-2.68-2.9,18,18,0,0,1-2.32-3.21,13.37,13.37,0,0,1,2.72,2.88A14.37,14.37,0,0,1,528.15,100.5Z" transform="translate(-54.71 -8.4)" style="fill:#263238"/><path d="M529.73,99.11A14.68,14.68,0,0,1,527,96.36a14.61,14.61,0,0,1-2.29-3.08A14.34,14.34,0,0,1,527.44,96,14.61,14.61,0,0,1,529.73,99.11Z" transform="translate(-54.71 -8.4)" style="fill:#263238"/><rect x="580.13" y="99.53" width="4.36" height="6.8" transform="translate(199.72 -397.59) rotate(46.3)" style="fill:#263238"/><path d="M586.42,105.25l-6.2-6.49,5.3-5.07a17.22,17.22,0,0,1,6.21,6.5Z" transform="translate(-54.71 -8.4)" style="fill:#455a64"/><path d="M581.26,99.85A14,14,0,0,1,583.82,97a14,14,0,0,1,2.93-2.47,14.61,14.61,0,0,1-2.56,2.84A14.35,14.35,0,0,1,581.26,99.85Z" transform="translate(-54.71 -8.4)" style="fill:#263238"/><path d="M582.44,101.09a15.18,15.18,0,0,1,2.72-2.83,21.32,21.32,0,0,1,3-2.49c.14.13-1.07,1.42-2.67,2.88A14.59,14.59,0,0,1,582.44,101.09Z" transform="translate(-54.71 -8.4)" style="fill:#263238"/><path d="M584,102.73a15.63,15.63,0,0,1,2.76-2.84,18.61,18.61,0,0,1,3.08-2.48c.12.12-1.11,1.41-2.73,2.87A15.22,15.22,0,0,1,584,102.73Z" transform="translate(-54.71 -8.4)" style="fill:#263238"/><path d="M585.49,104.23a14.09,14.09,0,0,1,2.6-2.82,14.11,14.11,0,0,1,3-2.45,14.09,14.09,0,0,1-2.6,2.82A14.11,14.11,0,0,1,585.49,104.23Z" transform="translate(-54.71 -8.4)" style="fill:#263238"/><rect x="498.61" y="78.7" width="5.16" height="8.05" style="fill:#263238"/><path d="M561.25,89.51H550.62V80.83a20.37,20.37,0,0,1,10.63,0Z" transform="translate(-54.71 -8.4)" style="fill:#e8505b"/><path d="M561.37,80.87a11.51,11.51,0,0,1-10.8,0,18.09,18.09,0,0,0,10.8,0Z" transform="translate(-54.71 -8.4)" style="fill:#263238"/><path d="M554.13,89.49a13.73,13.73,0,0,1-.26-3.72,13.77,13.77,0,0,1,.26-3.73,13.77,13.77,0,0,1,.26,3.73A13.73,13.73,0,0,1,554.13,89.49Z" transform="translate(-54.71 -8.4)" style="fill:#263238"/><path d="M556.15,89.54a13.82,13.82,0,0,1-.26-3.74,13.88,13.88,0,0,1,.26-3.74,13.41,13.41,0,0,1,.26,3.74A13.36,13.36,0,0,1,556.15,89.54Z" transform="translate(-54.71 -8.4)" style="fill:#263238"/><path d="M558.18,89.51a13.41,13.41,0,0,1-.26-3.74,13.36,13.36,0,0,1,.26-3.74,13.82,13.82,0,0,1,.26,3.74A13.88,13.88,0,0,1,558.18,89.51Z" transform="translate(-54.71 -8.4)" style="fill:#263238"/><path d="M559.86,89.51a16.13,16.13,0,0,1-.26-4,16.18,16.18,0,0,1,.26-4,16.18,16.18,0,0,1,.26,4A16.13,16.13,0,0,1,559.86,89.51Z" transform="translate(-54.71 -8.4)" style="fill:#263238"/><path d="M552.22,89.45a15.52,15.52,0,0,1-.26-4,15.59,15.59,0,0,1,.26-4,16.13,16.13,0,0,1,.26,4A16.06,16.06,0,0,1,552.22,89.45Z" transform="translate(-54.71 -8.4)" style="fill:#263238"/><circle cx="500.56" cy="121.81" r="37.55" style="fill:#e8505b"/><circle cx="555.28" cy="129.92" r="31.53" transform="translate(16.06 422.29) rotate(-45)" style="fill:#fafafa"/><path d="M586.81,129.92a5,5,0,0,1,0-.51c0-.36-.06-.86-.1-1.5,0-.33,0-.7-.07-1.1s-.13-.84-.2-1.32a23.42,23.42,0,0,0-.66-3.25,30.17,30.17,0,0,0-3.5-8.35,31.51,31.51,0,0,0-21.17-14.73,28.74,28.74,0,0,0-4-.46c-.68,0-1.36-.09-2-.08l-2.08.11c-.34,0-.69,0-1,.07l-1.05.16c-.69.11-1.4.2-2.1.34a33.57,33.57,0,0,0-4.17,1.23,32,32,0,0,0-4.08,1.79c-.66.36-1.3.78-1.95,1.17a15.09,15.09,0,0,0-1.89,1.3,28.16,28.16,0,0,0-6.61,6.64,30.18,30.18,0,0,0-4.47,8.62,30.94,30.94,0,0,0,0,19.73,30.2,30.2,0,0,0,4.48,8.62,33.55,33.55,0,0,0,3.06,3.63,35.9,35.9,0,0,0,3.55,3,15.09,15.09,0,0,0,1.89,1.3c.65.39,1.29.81,1.95,1.17a32,32,0,0,0,4.08,1.79,33.57,33.57,0,0,0,4.17,1.23c.7.14,1.41.22,2.11.34l1,.16c.35.05.7,0,1,.07l2.07.11c.68,0,1.36-.06,2-.08a30.17,30.17,0,0,0,4-.46A31.45,31.45,0,0,0,582.23,146a30.22,30.22,0,0,0,3.5-8.36,23.42,23.42,0,0,0,.66-3.25c.07-.47.16-.91.2-1.31s0-.77.07-1.11c0-.64.07-1.13.1-1.49a5,5,0,0,1,0-.51s0,.17,0,.51,0,.86,0,1.5c0,.33,0,.7,0,1.11s-.12.84-.18,1.32a23.16,23.16,0,0,1-.62,3.28,29.69,29.69,0,0,1-3.44,8.45,31.71,31.71,0,0,1-21.34,15,29.25,29.25,0,0,1-4,.47c-.68,0-1.37.1-2.07.09l-2.1-.11c-.35,0-.71,0-1.06-.06l-1.06-.16c-.71-.12-1.43-.2-2.14-.34a35.16,35.16,0,0,1-4.24-1.24A32.81,32.81,0,0,1,540.3,158c-.67-.37-1.31-.79-2-1.18a18.71,18.71,0,0,1-1.92-1.32,29.09,29.09,0,0,1-6.73-6.74,31.18,31.18,0,0,1-4.55-8.76,31.43,31.43,0,0,1,0-20.07,30.48,30.48,0,0,1,4.55-8.75,29.31,29.31,0,0,1,6.72-6.74,17.24,17.24,0,0,1,1.92-1.32c.67-.39,1.31-.82,2-1.18a32.07,32.07,0,0,1,4.14-1.81,33.43,33.43,0,0,1,4.24-1.24c.71-.14,1.43-.23,2.14-.34l1.06-.16c.35,0,.71,0,1.06-.07l2.1-.1c.7,0,1.39.06,2.07.08a31.09,31.09,0,0,1,4,.48,31.74,31.74,0,0,1,21.34,15,29.92,29.92,0,0,1,3.44,8.45,23.43,23.43,0,0,1,.62,3.28c.06.48.14.92.18,1.33s0,.77,0,1.11c0,.64,0,1.14,0,1.5S586.81,129.92,586.81,129.92Z" transform="translate(-54.71 -8.4)" style="fill:#263238"/><path d="M582.21,129.43c-2.88,0-5.22-.1-5.23-.31s2.32-.53,5.19-.69,5.21,0,5.22.3S585.08,129.38,582.21,129.43Z" transform="translate(-54.71 -8.4)" style="fill:#263238"/><path d="M574.77,148.5c-2.08-2-3.64-3.73-3.5-3.89s2,1.26,4.18,3.16,3.72,3.64,3.49,3.89S576.84,150.49,574.77,148.5Z" transform="translate(-54.71 -8.4)" style="fill:#263238"/><path d="M556.07,156.84c-.08-2.88,0-5.21.25-5.22s.55,2.3.75,5.17.08,5.22-.25,5.23S556.14,159.71,556.07,156.84Z" transform="translate(-54.71 -8.4)" style="fill:#263238"/><path d="M536.91,149.62c2-2.1,3.69-3.69,3.85-3.55s-1.23,2-3.11,4.21-3.6,3.77-3.85,3.54S534.94,151.71,536.91,149.62Z" transform="translate(-54.71 -8.4)" style="fill:#263238"/><path d="M528.37,131c2.87-.11,5.21,0,5.22.19s-2.3.57-5.17.8-5.2.15-5.23-.19S525.49,131.11,528.37,131Z" transform="translate(-54.71 -8.4)" style="fill:#263238"/><path d="M535.38,111.77c2.12,1.94,3.72,3.65,3.58,3.81s-2-1.21-4.24-3.06-3.81-3.56-3.58-3.81S533.26,109.82,535.38,111.77Z" transform="translate(-54.71 -8.4)" style="fill:#263238"/><path d="M553.89,103c.14,2.87.08,5.21-.13,5.23s-.6-2.29-.86-5.16-.2-5.21.13-5.23S553.76,100.15,553.89,103Z" transform="translate(-54.71 -8.4)" style="fill:#263238"/><path d="M573.21,109.82c-1.92,2.14-3.61,3.77-3.78,3.63s1.19-2.06,3-4.28,3.52-3.84,3.77-3.62S575.13,107.68,573.21,109.82Z" transform="translate(-54.71 -8.4)" style="fill:#263238"/><path d="M582.16,128.24c-2.87.17-5.22.13-5.23-.08s2.29-.62,5.15-.92,5.2-.25,5.23.08S585,128.07,582.16,128.24Z" transform="translate(-54.71 -8.4)" style="fill:#263238"/><path d="M543,95.8a13.73,13.73,0,0,1-1.63.74,36.49,36.49,0,0,0-21.82,27.81,39.11,39.11,0,0,0-.5,4.84A14.28,14.28,0,0,1,519,131a1.47,1.47,0,0,1-.06-.47c0-.3-.06-.75,0-1.33a32.81,32.81,0,0,1,.33-4.88,35.33,35.33,0,0,1,17.68-25.86,31.49,31.49,0,0,1,4.43-2.09c.54-.22,1-.34,1.26-.43A1.73,1.73,0,0,1,543,95.8Z" transform="translate(-54.71 -8.4)" style="fill:#fff"/><path d="M553.51,93.77a17.25,17.25,0,0,1-3.69.61,17.67,17.67,0,0,1-3.72.35,10.93,10.93,0,0,1,3.66-.86A11,11,0,0,1,553.51,93.77Z" transform="translate(-54.71 -8.4)" style="fill:#fff"/><g style="opacity:0.4"><path d="M530.07,148.87s16.34,25.79,41.7,12.58c26.45-13.78,11.84-45.39,11.84-45.39s12.45,25.19-13.35,41.61c-6.42,4.09-13.41,4.09-18.75,3.56C537.87,159.86,530.07,148.87,530.07,148.87Z" transform="translate(-54.71 -8.4)"/></g><path d="M564.07,113.16a110.55,110.55,0,0,1-.42,13.86,17.29,17.29,0,0,1-1,4.9,6.56,6.56,0,0,1-3.29,3.63,4.07,4.07,0,0,1-4.6-.9Z" transform="translate(-54.71 -8.4)" style="fill:#e0e0e0"/><polygon points="499.88 119.03 511.34 99.73 504.42 121.51 500.89 122.57 499.88 119.03" style="fill:#e8505b"/><g style="opacity:0.4"><polygon points="511.34 99.73 502.84 119.45 504.42 121.51 511.34 99.73"/></g><path d="M559.29,131a3.69,3.69,0,1,1-3.69-3.69A3.69,3.69,0,0,1,559.29,131Z" transform="translate(-54.71 -8.4)" style="fill:#fafafa"/><path d="M559.29,131s0-.33-.21-.88a3.75,3.75,0,0,0-1.36-1.91,3.47,3.47,0,1,0,0,5.57,3.75,3.75,0,0,0,1.36-1.91,8.43,8.43,0,0,1,.21-.87,1.87,1.87,0,0,1,0,.92,3.66,3.66,0,0,1-1.33,2.15,3.84,3.84,0,0,1-3.68.62,3.91,3.91,0,0,1,0-7.38,3.82,3.82,0,0,1,3.68.61,3.66,3.66,0,0,1,1.33,2.15A1.92,1.92,0,0,1,559.29,131Z" transform="translate(-54.71 -8.4)" style="fill:#263238"/><circle cx="500.89" cy="122.57" r="2.75" style="fill:#455a64"/></g><g id="Light_Bulb" data-name="Light Bulb"><path d="M456,58.08A28,28,0,1,0,417.85,85.9c.21,3.3.45,7,.45,7l24.46-1.58s-.11-4-.28-7.49A28,28,0,0,0,456,58.08Z" transform="translate(-54.71 -8.4)" style="fill:#e8505b"/><path d="M433.9,91.81s0-.12,0-.34,0-.58,0-1c.05-.89.12-2.2.26-3.89s.34-3.76.72-6.14a41.35,41.35,0,0,1,2-7.93,27,27,0,0,1,2-4.32,5.19,5.19,0,0,1,1.8-1.84,2.9,2.9,0,0,1,2.66-.08,1.9,1.9,0,0,1,.95,1,1.94,1.94,0,0,1,0,1.44,4,4,0,0,1-2,2,7.65,7.65,0,0,1-5.83,0,7.75,7.75,0,0,1-4.24-4.4,5.89,5.89,0,0,1-.37-3.2A2.52,2.52,0,0,1,434.31,61a1.81,1.81,0,0,1,1.48.9,2.48,2.48,0,0,1,.34,1.7,5.47,5.47,0,0,1-1.78,2.9A8.35,8.35,0,0,1,428,68.79a7.26,7.26,0,0,1-5.66-3.68,4.21,4.21,0,0,1-.41-3.36,2.18,2.18,0,0,1,1.15-1.32,2.13,2.13,0,0,1,1.73,0A2.79,2.79,0,0,1,426,61.63a4.35,4.35,0,0,1,.53,1.58,7.93,7.93,0,0,1-.22,3.22,8.33,8.33,0,0,1-3.63,4.93A8.46,8.46,0,0,1,417,72.53a4.5,4.5,0,0,1-2.6-1.17,2.18,2.18,0,0,1-.33-2.68,1.87,1.87,0,0,1,1.22-.7,2.59,2.59,0,0,1,1.35.18,4,4,0,0,1,1.83,1.8c.8,1.47,1.45,2.9,2.12,4.27,2.59,5.48,4.47,10,5.74,13.15.63,1.58,1.11,2.8,1.42,3.64.16.4.27.72.36,1l.11.33s-.06-.11-.15-.32l-.38-.94c-.35-.84-.84-2.05-1.48-3.61-1.31-3.12-3.22-7.64-5.84-13.09-.67-1.36-1.34-2.81-2.13-4.24a3.78,3.78,0,0,0-1.71-1.69,1.9,1.9,0,0,0-2.23.44,1.87,1.87,0,0,0,.32,2.3A4.12,4.12,0,0,0,417,72.23a8.21,8.21,0,0,0,5.51-1.14A8.05,8.05,0,0,0,426,66.34a7.61,7.61,0,0,0,.2-3.08,3,3,0,0,0-1.59-2.47,1.77,1.77,0,0,0-1.46,0,1.85,1.85,0,0,0-1,1.12,3.92,3.92,0,0,0,.39,3.09,6.92,6.92,0,0,0,5.39,3.5,8,8,0,0,0,6.11-2.22,5.12,5.12,0,0,0,1.68-2.7,2.23,2.23,0,0,0-.28-1.48,1.48,1.48,0,0,0-1.21-.73,2,2,0,0,0-1.36.54,2.36,2.36,0,0,0-.71,1.3,5.5,5.5,0,0,0,.35,3,7.39,7.39,0,0,0,9.63,4.28,3.71,3.71,0,0,0,1.89-1.83,1.65,1.65,0,0,0-.78-2.13,2.64,2.64,0,0,0-2.4.07,5,5,0,0,0-1.7,1.74,25.38,25.38,0,0,0-2,4.27,41.54,41.54,0,0,0-2.07,7.87c-.4,2.37-.62,4.43-.78,6.12s-.25,3-.32,3.89c0,.43-.07.77-.08,1S433.9,91.81,433.9,91.81Z" transform="translate(-54.71 -8.4)" style="fill:#263238"/><path d="M441.17,96l-21,1.35a1.58,1.58,0,0,1-1.68-1.47h0A1.59,1.59,0,0,1,420,94.21l21-1.36a1.59,1.59,0,0,1,1.68,1.48h0A1.58,1.58,0,0,1,441.17,96Z" transform="translate(-54.71 -8.4)" style="fill:#263238"/><path d="M441.26,97.38l-21,1.36a1.58,1.58,0,1,0,.2,3.15l2.31-.15,3.43,5.62a2,2,0,0,0,1.86,1l7.51-.48a2.05,2.05,0,0,0,1.73-1.22l2.59-6,1.57-.1a1.58,1.58,0,0,0-.2-3.15Z" transform="translate(-54.71 -8.4)" style="fill:#263238"/><g style="opacity:0.2"><path d="M409,43.26a20.51,20.51,0,0,1,5.35-4.07,15.05,15.05,0,0,1,4.22-1.53c1-.18,1.65-.11,1.72.11.15.49-1.91,1.38-4.64,3.47a24.32,24.32,0,0,0-7.92,10.28,24.27,24.27,0,0,0-1.08,12.93c.6,3.38,1.53,5.43,1.08,5.69-.2.12-.69-.24-1.34-1.08a14.88,14.88,0,0,1-2.09-4,20.43,20.43,0,0,1-1.2-6.61,21.86,21.86,0,0,1,1.43-8.19" transform="translate(-54.71 -8.4)" style="fill:#fff"/></g><g style="opacity:0.2"><path d="M427.11,38.54c-1.77.09-3.37-.29-3.61-1.21-.1-.46.19-1,.8-1.41a5.26,5.26,0,0,1,2.6-.81,5.15,5.15,0,0,1,2.68.5c.66.35,1,.83,1,1.3" transform="translate(-54.71 -8.4)" style="fill:#fff"/></g><path d="M436.94,107.15a14.59,14.59,0,0,1-1.47-.35,12,12,0,0,0-3.6-.22,12.28,12.28,0,0,0-3.48.88,14,14,0,0,1-1.38.62,4.18,4.18,0,0,1,1.27-.84,10.3,10.3,0,0,1,3.56-1,10.42,10.42,0,0,1,3.68.32A4.61,4.61,0,0,1,436.94,107.15Z" transform="translate(-54.71 -8.4)" style="fill:#455a64"/><path d="M439.94,100.7c0,.1-3.78.42-8.47.72s-8.48.47-8.48.38,3.78-.42,8.46-.72S439.94,100.61,439.94,100.7Z" transform="translate(-54.71 -8.4)" style="fill:#455a64"/><path d="M438.79,103.28a12.74,12.74,0,0,1-2.06.34c-1.27.17-3,.35-5,.51s-3.73.24-5,.28a11.13,11.13,0,0,1-2.08,0,15.07,15.07,0,0,1,2.07-.22l5-.38,5-.41A12.86,12.86,0,0,1,438.79,103.28Z" transform="translate(-54.71 -8.4)" style="fill:#455a64"/></g><g id="Photos"><rect x="229.2" y="66.74" width="41.55" height="51.97" transform="translate(70 319.69) rotate(-82.33)" style="fill:#ebebeb"/><path d="M278.5,75.61l-.25,0-.72-.09-2.81-.36-10.55-1.38L227,68.81l.16-.12C225.48,81,223.59,95,221.6,109.87h0l-.13-.17,51.5,7-.14.11c1.7-12.39,3.1-22.67,4.09-29.86.49-3.59.89-6.41,1.15-8.34.14-1,.24-1.69.31-2.2l.12-.76s0,.25-.09.74-.15,1.23-.27,2.18c-.26,1.92-.62,4.74-1.09,8.32-1,7.21-2.32,17.52-4,30l0,.12-.12,0L221.43,110l-.15,0,0-.15h0c2-14.87,3.9-28.92,5.56-41.18l0-.13.13,0,37.27,5.09,10.51,1.45,2.77.39.71.1Z" transform="translate(-54.71 -8.4)" style="fill:#263238"/><rect x="231.78" y="68.57" width="36.32" height="48.32" transform="translate(69.97 319.65) rotate(-82.33)" style="fill:#e8505b"/><polygon points="168.86 99.09 188.6 78.97 197.07 94.37 205.11 87.83 216.75 105.54 168.86 99.09" style="fill:#e8505b"/><path d="M258.44,86.62a3.8,3.8,0,1,1-3.26-4.27A3.81,3.81,0,0,1,258.44,86.62Z" transform="translate(-54.71 -8.4)" style="fill:#e8505b"/><g style="opacity:0.2"><polygon points="168.86 99.09 188.6 78.97 197.07 94.37 205.11 87.83 216.75 105.54 168.86 99.09"/></g><g style="opacity:0.2"><path d="M258.44,86.62a3.8,3.8,0,1,1-3.26-4.27A3.81,3.81,0,0,1,258.44,86.62Z" transform="translate(-54.71 -8.4)"/></g><rect x="266.08" y="31.35" width="62.79" height="78.53" transform="translate(128.98 345.98) rotate(-81.51)" style="fill:#ebebeb"/><path d="M340.94,45.37l-.38,0-1.09-.15-4.22-.61-15.91-2.32L263.24,34l.23-.18c-2.75,18.49-5.91,39.68-9.25,62.1h0l-.19-.25,77.66,11.63-.21.16c2.83-18.69,5.18-34.18,6.82-45,.83-5.42,1.49-9.67,1.93-12.58.23-1.44.4-2.55.52-3.32s.19-1.14.19-1.14,0,.37-.14,1.11-.27,1.86-.47,3.29c-.43,2.9-1,7.14-1.83,12.55l-6.65,45.17,0,.19-.19,0L254,96.09l-.22,0,0-.22h0c3.36-22.42,6.53-43.6,9.3-62.09l0-.2.2,0,56.2,8.5,15.85,2.42,4.17.65,1.07.17Z" transform="translate(-54.71 -8.4)" style="fill:#263238"/><rect x="269.98" y="34.1" width="54.88" height="73.02" transform="translate(128.94 345.93) rotate(-81.51)" style="fill:#e8505b"/><polygon points="202.54 83.95 232.81 53.98 245.28 77.42 257.56 67.72 274.76 94.73 202.54 83.95" style="fill:#e8505b"/><path d="M310.39,61.57A5.75,5.75,0,1,1,305.56,55,5.75,5.75,0,0,1,310.39,61.57Z" transform="translate(-54.71 -8.4)" style="fill:#e8505b"/><g style="opacity:0.2"><polygon points="202.54 83.95 232.81 53.98 245.28 77.42 257.56 67.72 274.76 94.73 202.54 83.95"/></g><g style="opacity:0.2"><path d="M310.39,61.57A5.75,5.75,0,1,1,305.56,55,5.75,5.75,0,0,1,310.39,61.57Z" transform="translate(-54.71 -8.4)"/></g></g><g id="Pantone"><path d="M116.64,304.91l17.12,17.82a3,3,0,0,0,4.21.13l68.11-57.43a3,3,0,0,0,0-4.21L189,243.4a3,3,0,0,0-4.21-.13L116.68,300.7A3,3,0,0,0,116.64,304.91Z" transform="translate(-54.71 -8.4)" style="fill:#f5f5f5"/><path d="M116.64,304.91a2.21,2.21,0,0,1-.42-.51,3,3,0,0,1-.47-1.88,2.92,2.92,0,0,1,.47-1.37,9.37,9.37,0,0,1,1.2-1.27l3.1-3,19.8-19.14c8.38-8.07,18.35-9.67,29.42-20.34l8.51-8.18,4.39-4.23c.76-.71,1.45-1.42,2.27-2.14a3.24,3.24,0,0,1,3.22-.35,4,4,0,0,1,1.32,1l1.09,1.14,2.2,2.29,4.46,4.63,9.1,9.48a3.29,3.29,0,0,1,.75,3.34,3.38,3.38,0,0,1-1,1.44L204.87,259l-4.71,4.52L191,272.32,173.55,289c-11.11,10.63-21.1,20.21-29.5,28.26l-6,5.73a3.12,3.12,0,0,1-3.73.36,7.5,7.5,0,0,1-1.36-1.26l-1.22-1.27-8.17-8.58-5.16-5.43c-.57-.62-1-1.09-1.33-1.42l-.44-.5s.17.15.48.46l1.37,1.39,5.22,5.36,8.24,8.52,1.22,1.26a7,7,0,0,0,1.31,1.2,2.78,2.78,0,0,0,3.34-.33l6-5.76,29.42-28.34L190.6,272l9.2-8.84,4.71-4.53,1.18,6.86a2.72,2.72,0,0,0,.23-4l-9.1-9.48-4.45-4.63-2.2-2.3-1.09-1.14a3.38,3.38,0,0,0-1.16-.89,2.72,2.72,0,0,0-2.7.28c-.74.64-1.49,1.41-2.23,2.11l-4.4,4.22-8.52,8.17C159,268.37,149,270,140.58,278l-19.92,19-3.13,3a9.15,9.15,0,0,0-1.2,1.23,2.94,2.94,0,0,0-.47,1.31,3,3,0,0,0,.4,1.84C116.49,304.74,116.66,304.9,116.64,304.91Z" transform="translate(-54.71 -8.4)" style="fill:#263238"/><polygon points="148.85 255.31 136.48 259.35 118.93 249.31 131.3 237.27 148.85 255.31" style="fill:#e8505b"/><rect x="139.68" y="279.33" width="17.26" height="25.17" transform="translate(-216.27 177.72) rotate(-44.22)" style="fill:#e8505b"/><rect x="153.13" y="266.25" width="17.26" height="25.17" transform="translate(-203.34 183.39) rotate(-44.22)" style="fill:#e8505b"/><polygon points="135.47 260.34 123.09 272.37 105.54 254.33 117.91 250.3 135.47 260.34" style="fill:#e8505b"/><g style="opacity:0.8"><polygon points="148.85 255.31 136.48 259.35 118.93 249.31 131.3 237.27 148.85 255.31"/></g><g style="opacity:0.5"><rect x="139.68" y="279.33" width="17.26" height="25.17" transform="translate(-216.27 177.72) rotate(-44.22)"/></g><g style="opacity:0.6000000000000001"><rect x="153.13" y="266.25" width="17.26" height="25.17" transform="translate(-203.34 183.39) rotate(-44.22)"/></g><g style="opacity:0.7000000000000001"><polygon points="135.47 260.34 123.09 272.37 105.54 254.33 117.91 250.3 135.47 260.34"/></g><path d="M117.79,301.86l12,21.63a3,3,0,0,0,4,1.23l81.47-45.05a3,3,0,0,0,1.08-4l-12-13.62a3,3,0,0,0-4-1.24l-81.48,37.05A3,3,0,0,0,117.79,301.86Z" transform="translate(-54.71 -8.4)" style="fill:#f5f5f5"/><path d="M117.79,301.86a2.66,2.66,0,0,1-.28-.59,3,3,0,0,1,0-1.92,2.82,2.82,0,0,1,.78-1.2,8.64,8.64,0,0,1,1.46-.91l3.73-2.09,23.8-13.25,35.32-19.6c3.33-1.84,6.74,4.27,10.22,2.34l5.27-2.92,1.34-.74a7,7,0,0,1,1.43-.69,3.2,3.2,0,0,1,3.09.81,5.18,5.18,0,0,1,.91,1.35l.76,1.36c.5.92,1-6.17,1.52-5.25,1,1.84,2,3.7,3.08,5.57q3.09,5.61,6.29,11.37a3.32,3.32,0,0,1-.1,3.39,3.26,3.26,0,0,1-1.32,1.13l-1.42.79L208,283.93,197,290l-20.88,11.53-35.39,19.5c-2.53,1.38-4.89,2.72-7.21,3.94a3.11,3.11,0,0,1-3.58-1c-.7-1.06-1.19-2.1-1.76-3.1-2.2-4-4.09-7.45-5.63-10.28s-2.73-5-3.54-6.5l-.91-1.7c-.21-.38-.3-.59-.3-.59s.13.19.34.56.55.95,1,1.68c.84,1.49,2.06,3.66,3.62,6.45l5.71,10.24c.57,1,1.11,2.07,1.75,3a2.8,2.8,0,0,0,3.21.88c2.25-1.21,4.66-2.58,7.16-4l35.33-19.6,20.88-11.56,11-6.11,5.65-3.12,1.42-.79a2.75,2.75,0,0,0,1.13-1,2.8,2.8,0,0,0,.08-2.85l-6.29-11.37-3.07-5.57c-.51-.92-1,6.16-1.52,5.25l-.76-1.36a5,5,0,0,0-.81-1.23,2.7,2.7,0,0,0-2.61-.69,7.57,7.57,0,0,0-1.32.64l-1.33.74-5.28,2.92c-3.49,1.92-6.9-4.2-10.22-2.36l-35.38,19.5L123.6,295.33l-3.75,2a8.42,8.42,0,0,0-1.45.88,2.69,2.69,0,0,0-.77,1.13,3,3,0,0,0-.07,1.87C117.69,301.66,117.81,301.86,117.79,301.86Z" transform="translate(-54.71 -8.4)" style="fill:#263238"/><polygon points="157.43 270.26 142.37 278.7 130.06 256.75 145.12 256.31 157.43 270.26" style="fill:#e8505b"/><rect x="140.8" y="286.82" width="17.26" height="25.17" transform="translate(-182.06 102.93) rotate(-29.28)" style="fill:#e8505b"/><rect x="157.16" y="277.65" width="17.26" height="25.17" transform="translate(-175.48 109.76) rotate(-29.28)" style="fill:#e8505b"/><rect x="173.53" y="268.46" width="17.26" height="25.17" transform="translate(-168.89 116.6) rotate(-29.28)" style="fill:#e8505b"/><g style="opacity:0.5"><polygon points="157.43 270.26 142.37 278.7 130.06 256.75 145.12 256.31 157.43 270.26"/></g><g style="opacity:0.2"><rect x="140.8" y="286.82" width="17.26" height="25.17" transform="translate(-182.06 102.93) rotate(-29.28)"/></g><g style="opacity:0.30000000000000004"><rect x="157.16" y="277.65" width="17.26" height="25.17" transform="translate(-175.48 109.76) rotate(-29.28)"/></g><g style="opacity:0.4"><rect x="173.53" y="268.46" width="17.26" height="25.17" transform="translate(-168.89 116.6) rotate(-29.28)"/></g><path d="M114.79,301.67l5.28,24.14a3,3,0,0,0,3.62,2.29l95.55-20.88a3,3,0,0,0,2.33-3.6l-5.27-24.13a3,3,0,0,0-3.62-2.3l-95.55,20.89A3,3,0,0,0,114.79,301.67Z" transform="translate(-54.71 -8.4)" style="fill:#f5f5f5"/><path d="M114.79,301.67a2.35,2.35,0,0,1-.09-.68,3,3,0,0,1,.65-1.88,3.18,3.18,0,0,1,1.18-.91,11.47,11.47,0,0,1,1.73-.45l4.33-1,27.63-6.12,41-9,11.85-2.6,6.12-1.34,3.11-.68a3.78,3.78,0,0,1,1.68-.09,3.28,3.28,0,0,1,1.55.76,3.2,3.2,0,0,1,1,1.44c.16.57.25,1.07.37,1.6.23,1.06.47,2.13.7,3.19q.71,3.21,1.41,6.46,1.42,6.5,2.88,13.18a3.27,3.27,0,0,1-1.21,3.29,3.76,3.76,0,0,1-1.65.7l-1.65.36-6.55,1.43L198,312.13l-24.22,5.28-41,8.9-8.33,1.81c-.33.06-.65.15-1,.19a3.2,3.2,0,0,1-2.76-1.06,3.44,3.44,0,0,1-.79-1.75c-.12-.6-.25-1.19-.38-1.77-1-4.64-1.85-8.63-2.55-11.9s-1.23-5.79-1.6-7.53c-.17-.85-.3-1.5-.4-2s-.12-.67-.12-.67.07.22.17.66l.46,1.95c.39,1.73,1,4.26,1.69,7.5s1.61,7.26,2.64,11.89c.13.57.26,1.16.39,1.76a3.12,3.12,0,0,0,.72,1.61,2.87,2.87,0,0,0,1.56.9,4,4,0,0,0,1.9-.15l8.32-1.84,41-9,24.21-5.31,12.81-2.8,6.55-1.43,1.65-.36a3.13,3.13,0,0,0,1.45-.6,2.77,2.77,0,0,0,1-2.77q-1.47-6.68-2.88-13.18-.72-3.25-1.41-6.46c-.24-1.06-.47-2.13-.7-3.19-.12-.51-.22-1.08-.35-1.55a2.73,2.73,0,0,0-.81-1.22,2.88,2.88,0,0,0-2.79-.55l-3.1.67-6.12,1.34-11.85,2.58-41,8.9-27.66,6-4.35.92a13,13,0,0,0-1.71.42,3.13,3.13,0,0,0-1.15.86,3.05,3.05,0,0,0-.68,1.81C114.74,301.44,114.81,301.67,114.79,301.67Z" transform="translate(-54.71 -8.4)" style="fill:#263238"/><path d="M114.59,301.77c0,.09-1.2,0-3.3.4a17.82,17.82,0,0,0-8,3.81,17.09,17.09,0,0,0-5.92,11.41,16.76,16.76,0,0,0,31.23,9.74,17.37,17.37,0,0,0,2.32-8.55c0-.53,0-1,0-1.42s-.08-.75-.11-1a2.77,2.77,0,0,1,0-.87,3.39,3.39,0,0,1,.24.84c.06.28.15.62.21,1s.09.9.14,1.44a17,17,0,0,1-2.09,8.92,17.31,17.31,0,0,1-10.57,8.4,17.44,17.44,0,0,1-16-3.42,18.11,18.11,0,0,1-3-3.27,17.54,17.54,0,0,1,3.22-23.79,17.34,17.34,0,0,1,8.42-3.64,15.08,15.08,0,0,1,2.5-.12A2.19,2.19,0,0,1,114.59,301.77Z" transform="translate(-54.71 -8.4)" style="fill:#263238"/><path d="M133.51,311.46a3.76,3.76,0,1,1-4.48-2.87A3.77,3.77,0,0,1,133.51,311.46Z" transform="translate(-54.71 -8.4)" style="fill:#263238"/><rect x="199" y="281.97" width="17.26" height="25.17" transform="translate(-112.81 42.71) rotate(-12.33)" style="fill:#e8505b"/><rect x="180.75" y="285.96" width="17.26" height="25.17" transform="translate(-114.08 38.91) rotate(-12.33)" style="fill:#e8505b"/><rect x="162.41" y="289.97" width="17.26" height="25.17" transform="translate(-115.36 35.09) rotate(-12.33)" style="fill:#e8505b"/><rect x="144.08" y="293.97" width="17.26" height="25.17" transform="translate(-116.64 31.27) rotate(-12.33)" style="fill:#e8505b"/><g style="opacity:0.8"><rect x="144.08" y="293.97" width="17.26" height="25.17" transform="translate(-116.64 31.27) rotate(-12.33)" style="fill:#fff"/></g><g style="opacity:0.6000000000000001"><rect x="162.41" y="289.97" width="17.26" height="25.17" transform="translate(-115.36 35.09) rotate(-12.33)" style="fill:#fff"/></g><g style="opacity:0.4"><rect x="180.75" y="285.96" width="17.26" height="25.17" transform="translate(-114.08 38.91) rotate(-12.33)" style="fill:#fff"/></g></g><g id="Day_Graphic" data-name="Day Graphic"><circle cx="274.16" cy="295.88" r="13.93" transform="translate(-131.78 485.82) rotate(-76.64)" style="fill:#e8505b"/><path d="M274.16,278.46a38.54,38.54,0,0,1-.26-6.27,38.36,38.36,0,0,1,.26-6.26,38.36,38.36,0,0,1,.26,6.26A38.54,38.54,0,0,1,274.16,278.46Z" transform="translate(-54.71 -8.4)" style="fill:#e8505b"/><path d="M273.45,328.33a53.51,53.51,0,0,1-.26-7.4,53.63,53.63,0,0,1,.26-7.4,53.63,53.63,0,0,1,.26,7.4A53.51,53.51,0,0,1,273.45,328.33Z" transform="translate(-54.71 -8.4)" style="fill:#e8505b"/><path d="M253.11,296.1a46,46,0,0,1-9.77,0,46,46,0,0,1,9.77,0Z" transform="translate(-54.71 -8.4)" style="fill:#e8505b"/><path d="M305.15,294.25a35,35,0,0,1-6.08.26,34.9,34.9,0,0,1-6.07-.26,36.13,36.13,0,0,1,6.07-.26A36.2,36.2,0,0,1,305.15,294.25Z" transform="translate(-54.71 -8.4)" style="fill:#e8505b"/><path d="M294.85,279.46a32.39,32.39,0,0,1-5.81,5.81,15.71,15.71,0,0,1,2.72-3.09A16.57,16.57,0,0,1,294.85,279.46Z" transform="translate(-54.71 -8.4)" style="fill:#e8505b"/><path d="M293,313.53a11.73,11.73,0,0,1-2.69-2.32,12.53,12.53,0,0,1-2.33-2.69,12,12,0,0,1,2.69,2.32A12.53,12.53,0,0,1,293,313.53Z" transform="translate(-54.71 -8.4)" style="fill:#e8505b"/><path d="M260.78,308.53a15.83,15.83,0,0,1-2.72,3,15.49,15.49,0,0,1-3.09,2.58,15.69,15.69,0,0,1,2.73-3A15.29,15.29,0,0,1,260.78,308.53Z" transform="translate(-54.71 -8.4)" style="fill:#e8505b"/><path d="M261,282.93c-.14.07-1-1.27-2.29-2.63s-2.63-2.23-2.55-2.37a6.65,6.65,0,0,1,2.93,2A6.58,6.58,0,0,1,261,282.93Z" transform="translate(-54.71 -8.4)" style="fill:#e8505b"/><path d="M473.6,295.88a19.48,19.48,0,0,1,16.75-19.29,20.67,20.67,0,0,0-2.74-.19,19.48,19.48,0,0,0,0,39,20.67,20.67,0,0,0,2.74-.19A19.48,19.48,0,0,1,473.6,295.88Z" transform="translate(-54.71 -8.4)" style="fill:#e8505b"/><path d="M494.54,293.8l.52.87a6,6,0,0,0,2.47,2.28l.91.45-.87.52a5.94,5.94,0,0,0-2.27,2.47l-.46.92-.52-.88a6,6,0,0,0-2.47-2.27l-.91-.45.87-.53a5.88,5.88,0,0,0,2.27-2.47Z" transform="translate(-54.71 -8.4)" style="fill:#e8505b"/><path d="M456.68,305.13l.26.45a3.11,3.11,0,0,0,1.26,1.15l.46.23-.44.27a3,3,0,0,0-1.16,1.25l-.23.46-.26-.44a3,3,0,0,0-1.26-1.15l-.46-.23.44-.27a3,3,0,0,0,1.16-1.25Z" transform="translate(-54.71 -8.4)" style="fill:#e8505b"/><path d="M447.23,296.61l.14.22a1.55,1.55,0,0,0,.62.57l.23.11-.22.14a1.37,1.37,0,0,0-.57.62l-.12.23-.13-.22a1.42,1.42,0,0,0-.62-.57l-.23-.12.22-.13a1.62,1.62,0,0,0,.57-.62Z" transform="translate(-54.71 -8.4)" style="fill:#e8505b"/><path d="M512.45,307.27l.13.22a1.51,1.51,0,0,0,.62.58l.23.11-.22.13a1.51,1.51,0,0,0-.57.63l-.12.23-.13-.22a1.51,1.51,0,0,0-.62-.58l-.23-.11.22-.13a1.51,1.51,0,0,0,.57-.63Z" transform="translate(-54.71 -8.4)" style="fill:#e8505b"/><path d="M501.87,290.45l.14.22a1.42,1.42,0,0,0,.62.57l.23.12-.22.13a1.42,1.42,0,0,0-.57.62l-.12.23-.13-.22a1.55,1.55,0,0,0-.62-.57l-.23-.11.22-.14a1.55,1.55,0,0,0,.57-.62Z" transform="translate(-54.71 -8.4)" style="fill:#e8505b"/><path d="M283,285.32a6.27,6.27,0,0,1-1.12,2.26c-.74,1.16-1.43,2.05-1.56,2a6.35,6.35,0,0,1,1.12-2.25C282.14,286.13,282.84,285.24,283,285.32Z" transform="translate(-54.71 -8.4)" style="fill:#e8505b"/><path d="M288.86,277.26c.12.09-.47,1.05-1.31,2.14s-1.62,1.91-1.73,1.83.47-1.05,1.31-2.14S288.75,277.17,288.86,277.26Z" transform="translate(-54.71 -8.4)" style="fill:#e8505b"/><path d="M295.47,269.77c.1.1-.57,1-1.5,2s-1.78,1.76-1.89,1.66.57-1,1.5-2S295.37,269.67,295.47,269.77Z" transform="translate(-54.71 -8.4)" style="fill:#e8505b"/><path d="M302.71,262.88c.09.11-.66.95-1.67,1.87s-1.93,1.6-2,1.49.65-.94,1.68-1.87S302.61,262.77,302.71,262.88Z" transform="translate(-54.71 -8.4)" style="fill:#e8505b"/><path d="M310.52,264.63c.08.12-.74.89-1.83,1.73s-2.05-6.58-2.14-6.69.72,7.12,1.82,6.27S310.43,264.51,310.52,264.63Z" transform="translate(-54.71 -8.4)" style="fill:#e8505b"/><path d="M318.83,259.06c.07.13-.81.83-2,1.57a6.31,6.31,0,0,1-2.25,1.13c-.08-.12.8-.82,2-1.57A6.48,6.48,0,0,1,318.83,259.06Z" transform="translate(-54.71 -8.4)" style="fill:#e8505b"/><path d="M327.58,254.22c.07.13-.87.75-2.09,1.39a6.28,6.28,0,0,1-2.33.94c-.07-.13.86-.75,2.09-1.4A6.27,6.27,0,0,1,327.58,254.22Z" transform="translate(-54.71 -8.4)" style="fill:#e8505b"/><path d="M336.72,250.13a6.16,6.16,0,0,1-2.21,1.21,6.27,6.27,0,0,1-2.4.74,6,6,0,0,1,2.2-1.21A6.34,6.34,0,0,1,336.72,250.13Z" transform="translate(-54.71 -8.4)" style="fill:#e8505b"/><path d="M346.16,246.84a6.15,6.15,0,0,1-2.3,1,6.35,6.35,0,0,1-2.46.53,6,6,0,0,1,2.3-1A6.4,6.4,0,0,1,346.16,246.84Z" transform="translate(-54.71 -8.4)" style="fill:#e8505b"/><path d="M355.85,244.39a11.88,11.88,0,0,1-4.87,1.12,6.18,6.18,0,0,1,2.37-.81A6.29,6.29,0,0,1,355.85,244.39Z" transform="translate(-54.71 -8.4)" style="fill:#e8505b"/><path d="M365.72,242.82a6.3,6.3,0,0,1-2.44.59,6.05,6.05,0,0,1-2.52.08,6.37,6.37,0,0,1,2.44-.59A6.24,6.24,0,0,1,365.72,242.82Z" transform="translate(-54.71 -8.4)" style="fill:#e8505b"/><path d="M375.69,242.16a6.3,6.3,0,0,1-2.49.35,6.65,6.65,0,0,1-2.5-.14,5.93,5.93,0,0,1,2.48-.38A6.27,6.27,0,0,1,375.69,242.16Z" transform="translate(-54.71 -8.4)" style="fill:#e8505b"/><path d="M385.69,242.43a6.38,6.38,0,0,1-2.51.13,6.46,6.46,0,0,1-2.49-.38,11.95,11.95,0,0,1,5,.25Z" transform="translate(-54.71 -8.4)" style="fill:#e8505b"/><path d="M395.61,243.6a6.33,6.33,0,0,1-2.51-.09,6.25,6.25,0,0,1-2.44-.61,6.31,6.31,0,0,1,2.51.09A6,6,0,0,1,395.61,243.6Z" transform="translate(-54.71 -8.4)" style="fill:#e8505b"/><path d="M405.39,245.63a6.12,6.12,0,0,1-2.49-.3,6.27,6.27,0,0,1-2.38-.82,6.29,6.29,0,0,1,2.5.31A6.18,6.18,0,0,1,405.39,245.63Z" transform="translate(-54.71 -8.4)" style="fill:#e8505b"/><path d="M415,248.51a6.44,6.44,0,0,1-2.46-.52,6.34,6.34,0,0,1-2.3-1,6.07,6.07,0,0,1,2.46.52A6.13,6.13,0,0,1,415,248.51Z" transform="translate(-54.71 -8.4)" style="fill:#e8505b"/><path d="M424.27,252.19a12.07,12.07,0,0,1-4.61-1.94,6.06,6.06,0,0,1,2.41.73A6,6,0,0,1,424.27,252.19Z" transform="translate(-54.71 -8.4)" style="fill:#e8505b"/><path d="M433.23,256.64a12.29,12.29,0,0,1-4.43-2.32,6.09,6.09,0,0,1,2.34.93C432.37,255.89,433.3,256.51,433.23,256.64Z" transform="translate(-54.71 -8.4)" style="fill:#e8505b"/><path d="M441.79,261.83a6.31,6.31,0,0,1-2.25-1.13c-1.17-.74-2.05-1.44-2-1.56a6.35,6.35,0,0,1,2.25,1.12C441,261,441.87,261.71,441.79,261.83Z" transform="translate(-54.71 -8.4)" style="fill:#e8505b"/><path d="M449.86,259.73a6.37,6.37,0,0,1-2.14-1.31c-1.1-.84-1.92,6.39-1.83,6.27A6.18,6.18,0,0,1,448,266C449.13,266.84,450,259.62,449.86,259.73Z" transform="translate(-54.71 -8.4)" style="fill:#e8505b"/><path d="M457.39,266.3c-.1.11-1-.56-2-1.49s-1.77-1.77-1.67-1.88,1,.56,2,1.5S457.49,266.2,457.39,266.3Z" transform="translate(-54.71 -8.4)" style="fill:#e8505b"/><path d="M464.3,273.52c-.11.1-.95-.65-1.88-1.67a6.3,6.3,0,0,1-1.5-2c.11-.1.95.65,1.88,1.67S464.41,273.43,464.3,273.52Z" transform="translate(-54.71 -8.4)" style="fill:#e8505b"/><path d="M469.61,280.1c-.12.09-.68-.46-1.26-1.21s-1-1.44-.85-1.53.68.45,1.26,1.21S469.72,280,469.61,280.1Z" transform="translate(-54.71 -8.4)" style="fill:#e8505b"/></g></svg>