<svg xmlns="http://www.w3.org/2000/svg" xmlns:xlink="http://www.w3.org/1999/xlink" viewBox="0 0 2811.67 2800"><defs><linearGradient id="linear-gradient" x1="566.45" y1="1386.59" x2="3071.72" y2="1386.59" gradientTransform="matrix(1, 0.03, 0, 1, 0.5, -87.36)" gradientUnits="userSpaceOnUse"><stop offset="0" stop-color="#40447e"/><stop offset="1" stop-color="#3c3b6b"/></linearGradient><linearGradient id="linear-gradient-2" x1="2389.84" y1="1065.82" x2="1304.17" y2="2291.58" gradientTransform="matrix(1, 0.03, 0, 1, 0.5, -87.36)" gradientUnits="userSpaceOnUse"><stop offset="0" stop-color="#aa80f9"/><stop offset="1" stop-color="#6165d7"/></linearGradient><linearGradient id="linear-gradient-3" x1="752.13" y1="2434.8" x2="2347.51" y2="2434.8" gradientUnits="userSpaceOnUse"><stop offset="0" stop-color="#444b8c"/><stop offset="1" stop-color="#26264f"/></linearGradient><linearGradient id="linear-gradient-4" x1="752.13" y1="3048.23" x2="3155.51" y2="3048.23" xlink:href="#linear-gradient-3"/><linearGradient id="linear-gradient-5" x1="1953.01" y1="1042.95" x2="1699.59" y2="1286.53" gradientUnits="userSpaceOnUse"><stop offset="0" stop-color="#ff9085"/><stop offset="1" stop-color="#fb6fbb"/></linearGradient><linearGradient id="linear-gradient-6" x1="1261.87" y1="1844.72" x2="828.91" y2="2566.31" xlink:href="#linear-gradient-5"/><linearGradient id="linear-gradient-7" x1="1656.59" y1="1900.64" x2="956.98" y2="493.88" xlink:href="#linear-gradient-5"/><linearGradient id="linear-gradient-8" x1="1131.72" y1="1627.73" x2="1807.23" y2="1627.73" gradientUnits="userSpaceOnUse"><stop offset="0" stop-color="#311944"/><stop offset="1" stop-color="#893976"/></linearGradient><linearGradient id="linear-gradient-9" x1="1684.64" y1="1279.21" x2="1406.81" y2="1792.77" gradientUnits="userSpaceOnUse"><stop offset="0" stop-color="#e38ddd"/><stop offset="1" stop-color="#9571f6"/></linearGradient><linearGradient id="linear-gradient-10" x1="1439.05" y1="1684.78" x2="1514.91" y2="1684.78" xlink:href="#linear-gradient-8"/><linearGradient id="linear-gradient-11" x1="1604.36" y1="1235.78" x2="1326.53" y2="1749.34" xlink:href="#linear-gradient-9"/><linearGradient id="linear-gradient-12" x1="3193.14" y1="2223.45" x2="3634.62" y2="2223.45" gradientTransform="matrix(-1, 0, 0, 1, 6054.28, 0)" gradientUnits="userSpaceOnUse"><stop offset="0" stop-color="#444b8c"/><stop offset="1" stop-color="#3e4177"/></linearGradient><linearGradient id="linear-gradient-13" x1="3306.91" y1="2986.45" x2="3471.69" y2="2986.45" gradientTransform="matrix(-1, 0, 0, 1, 6054.28, 0)" xlink:href="#linear-gradient-2"/><linearGradient id="linear-gradient-14" x1="3494.4" y1="2697.69" x2="3436.76" y2="3058.53" gradientTransform="matrix(-1, 0, 0, 1, 6054.28, 0)" gradientUnits="userSpaceOnUse"><stop offset="0" stop-color="#311944"/><stop offset="1" stop-color="#a03976"/></linearGradient><linearGradient id="linear-gradient-15" x1="3193.14" y1="2223.48" x2="3634.62" y2="2223.48" xlink:href="#linear-gradient-12"/><linearGradient id="linear-gradient-16" x1="3437.78" y1="2413.07" x2="3815.27" y2="2413.07" xlink:href="#linear-gradient-12"/><linearGradient id="linear-gradient-17" x1="3681.16" y1="1143.4" x2="3407.19" y2="2119.01" gradientTransform="matrix(-1, 0, 0, 1, 6054.28, 0)" gradientUnits="userSpaceOnUse"><stop offset="0" stop-color="#ffc444"/><stop offset="1" stop-color="#f36f56"/></linearGradient><linearGradient id="linear-gradient-18" x1="3241.65" y1="1621.08" x2="3289.26" y2="1775.61" xlink:href="#linear-gradient-17"/><linearGradient id="linear-gradient-19" x1="3837.74" y1="1187.37" x2="3563.77" y2="2162.98" xlink:href="#linear-gradient-17"/><linearGradient id="linear-gradient-20" x1="4013.54" y1="1236.74" x2="3739.57" y2="2212.34" xlink:href="#linear-gradient-17"/><linearGradient id="linear-gradient-21" x1="3485.78" y1="1530.99" x2="3651.17" y2="1829.18" gradientTransform="matrix(-1, 0, 0, 1, 6054.28, 0)" gradientUnits="userSpaceOnUse"><stop offset="0.49" stop-color="#ebeff2"/><stop offset="1" stop-color="#fff"/></linearGradient><linearGradient id="linear-gradient-22" x1="3748.67" y1="1848.13" x2="3556.56" y2="1641.81" xlink:href="#linear-gradient-21"/><linearGradient id="linear-gradient-23" x1="3597.28" y1="1054.61" x2="3565.53" y2="1325.24" xlink:href="#linear-gradient-14"/><linearGradient id="linear-gradient-24" x1="3302.16" y1="1594.83" x2="3378.54" y2="1594.83" xlink:href="#linear-gradient-14"/><linearGradient id="linear-gradient-25" x1="2541.2" y1="2587.83" x2="2466.87" y2="2399.06" gradientTransform="matrix(-0.88, -0.48, -0.48, 0.88, 5888.21, 210.43)" gradientUnits="userSpaceOnUse"><stop offset="0" stop-color="#311944"/><stop offset="1" stop-color="#6b3976"/></linearGradient><linearGradient id="linear-gradient-26" x1="3568.58" y1="1091.19" x2="3538.51" y2="1166.37" xlink:href="#linear-gradient-14"/></defs><g style="isolation:isolate"><g id="Illustration"><path d="M1130.48,623.29c-94.43,135.19,16.29,354.35-123.83,456-136.4,99-304-63.25-432.5,21.94C383.46,1227.63,418.28,1805.9,697.08,2165.19c83.85,108,153.9,150.09,184.93,272.29,66.63,262.4-167.53,418.49-123,548.27C859.37,3278,2402.41,3523.16,3021.54,2645c289.16-410.15,332.43-1002.41,74.07-1452.24C2628.76,379.9,1342.37,320,1130.48,623.29Z" transform="translate(-454.58 -455)" style="fill:#f4f7fa"/><path d="M3136.14,974.29l-56.31.1A401.5,401.5,0,0,0,3053.71,868l47.61-27.61c13-7.54,17.45-24.56,10-38.05l-20-36c-7.55-13.57-24.3-18.56-37.45-11.1l-47,26.69a413.6,413.6,0,0,0-77.57-82.09l27-46.45c7.76-13.33,3.15-30.87-10.31-39.22l-36-22.33c-13.6-8.45-31.06-4.46-39,8.95l-27.11,46a420.84,420.84,0,0,0-112.15-34.2V558c0-16.09-13.23-29.73-29.6-30.48l-43.82-2c-16.58-.76-30.07,11.81-30.07,28.07v55.12a426.32,426.32,0,0,0-117.44,26.84l-29.25-49.83c-8.59-14.64-27.69-20.32-42.67-12.64l-40.07,20.55a28.75,28.75,0,0,0-11.59,40.81l30.3,51a423.36,423.36,0,0,0-87.94,83.36l-54.82-31c-15.54-8.8-35.49-4.24-44.52,10.23l-24.1,38.6c-9.09,14.56-3.69,33.46,12,42.16l56.72,31.39a404.9,404.9,0,0,0-31,115.65l-68.05.12c-18.31,0-33.2,13.91-33.2,31v45.45c0,17.09,14.89,30.76,33.2,30.53l69.85-.87a401.37,401.37,0,0,0,34.1,112.44l-61.65,35c-15.72,8.92-21.12,27.89-12,42.33l24.1,38.26c9,14.33,29,18.61,44.52,9.6l62.36-36.17a415.59,415.59,0,0,0,86.05,76.92l-36,61c-8.77,14.87-3.57,33.08,11.59,40.64l40.07,20c15,7.47,34.08,1.52,42.67-13.25l35.66-61.24a422.8,422.8,0,0,0,111,23v68.27c0,16.27,13.49,28.64,30.07,27.65l43.82-2.62c16.37-1,29.6-14.81,29.6-30.89v-67.54a426,426,0,0,0,106.18-32.83l33.08,55.65c7.9,13.29,25.36,17,39,8.4l36-22.84c13.46-8.54,18.07-26.15,10.31-39.36l-32.11-54.71a422.75,422.75,0,0,0,76.1-78.17l53.56,29.64c13.15,7.27,29.9,2,37.45-11.63l20-36.26c7.49-13.59,3-30.54-10-37.91l-51.8-29.3a405.07,405.07,0,0,0,28.8-104.42l57.82-.72c14.91-.19,27-12.78,27-28.13V1002C3163.09,986.69,3151.05,974.27,3136.14,974.29Zm-455.85,336c-166.61,6.18-306-123.13-306-289s139.43-297,306-292.93c160.95,3.91,287.47,133.31,287.47,289.14S2841.24,1304.32,2680.29,1310.3Z" transform="translate(-454.58 -455)" style="fill:#97a6b7"/><polygon points="2039.28 115.98 1999.18 114.59 1985.35 150.55 2039.28 115.98" style="fill:#97a6b7"/><polygon points="2436.94 132.57 2483.19 133.03 2483.19 167.14 2436.94 132.57" style="fill:#97a6b7"/><polygon points="2613.18 297.12 2659.27 298.98 2647.75 324.79 2613.18 297.12" style="fill:#97a6b7"/><polygon points="2685.55 519.78 2732.1 523.46 2716.89 546.05 2685.55 519.78" style="fill:#97a6b7"/><polygon points="2608.11 839.22 2653.28 845.67 2658.81 808.8 2608.11 839.22" style="fill:#97a6b7"/><polygon points="2435.24 1005.63 2475.81 1013 2479.04 983.04 2435.24 1005.63" style="fill:#97a6b7"/><polygon points="2232.42 1077.54 2196.01 1071.09 2227.35 1024.53 2232.42 1077.54" style="fill:#97a6b7"/><polygon points="2035.13 1038.36 1992.72 1029.6 2025.45 989.96 2035.13 1038.36" style="fill:#97a6b7"/><polygon points="1796.82 278.69 1841.07 280.08 1823.55 312.35 1796.82 278.69" style="fill:#97a6b7"/><polygon points="1708.77 625.8 1749.34 631.79 1746.11 598.6 1708.77 625.8" style="fill:#97a6b7"/><polygon points="1795.89 868.72 1835.54 875.18 1838.76 848.9 1795.89 868.72" style="fill:#97a6b7"/><path d="M3181.63,978l-56.77.1a404.67,404.67,0,0,0-26.34-107.31l48-27.83c13.12-7.61,17.6-24.77,10-38.36l-20.17-36.27c-7.61-13.68-24.5-18.71-37.76-11.18L3051.22,784A416.75,416.75,0,0,0,2973,701.24l27.27-46.83c7.82-13.44,3.18-31.12-10.39-39.54l-36.29-22.51c-13.72-8.52-31.32-4.49-39.29,9L2887,647.74a424.06,424.06,0,0,0-113.08-34.48v-55c0-16.22-13.34-30-29.85-30.72l-44.18-2c-16.72-.76-30.32,11.91-30.32,28.3v55.57a429.91,429.91,0,0,0-118.41,27.06l-29.49-50.24c-8.67-14.76-27.92-20.49-43-12.74l-40.4,20.72a29,29,0,0,0-11.69,41.14l30.56,51.39a426.74,426.74,0,0,0-88.67,84l-55.28-31.26c-15.67-8.87-35.78-4.27-44.89,10.31l-24.3,38.91c-9.16,14.68-3.72,33.74,12.13,42.51l57.2,31.64A408.34,408.34,0,0,0,2282,979.5l-68.6.12c-18.47,0-33.49,14-33.49,31.25v45.82c0,17.23,15,31,33.49,30.78l70.43-.88A404.42,404.42,0,0,0,2318.23,1200l-62.16,35.27c-15.85,9-21.29,28.13-12.13,42.68l24.3,38.57c9.11,14.45,29.22,18.76,44.89,9.68l62.88-36.46a419.36,419.36,0,0,0,86.76,77.54l-36.25,61.48c-8.84,15-3.59,33.35,11.69,41l40.4,20.15c15.11,7.53,34.36,1.54,43-13.35l36-61.75a426.46,426.46,0,0,0,111.95,23.21v68.83c0,16.4,13.6,28.87,30.32,27.87L2744,1532c16.51-1,29.85-14.93,29.85-31.14v-68.09A429.69,429.69,0,0,0,2881,1399.68l33.35,56.1c8,13.4,25.57,17.17,39.29,8.47l36.29-23c13.57-8.61,18.21-26.36,10.39-39.69l-32.38-55.15a425.65,425.65,0,0,0,76.74-78.81l54,29.88c13.26,7.34,30.15,2.08,37.76-11.71l20.17-36.56c7.56-13.7,3.08-30.79-10-38.22l-52.22-29.54a408.22,408.22,0,0,0,29-105.27l58.3-.73c15-.18,27.18-12.88,27.18-28.35v-41.15C3208.81,990.45,3196.66,977.92,3181.63,978ZM2722,1316.69c-168,6.23-308.57-124.13-308.57-291.37S2554,725.92,2722,730c162.29,4,289.85,134.4,289.85,291.49S2884.29,1310.67,2722,1316.69Z" transform="translate(-454.58 -455)" style="fill:#d8dee8"/><path d="M2802.1,1093.48c-132.48-55.31-277.34-34.62-394.06,42.43-42.65-214.73-178.16-399.83-379.94-484.08-330.64-138.05-714,47-856.25,413.24a778.7,778.7,0,0,0-53.16,286.26,327.83,327.83,0,0,0-54.63-29.14C883.42,1246.77,674,1347.85,596.25,1548s3,430.79,186.36,498.91c97.91,36.38,252.82,42.25,252.82,42.25s1506.83-61.23,1553.31-59.26c185.62,7.83,368.56-113,446.23-313C3132.08,1466.83,3027.82,1187.73,2802.1,1093.48Z" transform="translate(-454.58 -455)" style="fill:url(#linear-gradient)"/><path d="M2846.9,1095.18c-132.48-55.31-277.34-34.63-394.06,42.43-42.64-214.73-178.15-399.83-379.94-484.08-330.64-138-714,47-856.24,413.23A778.79,778.79,0,0,0,1163.49,1353a328.82,328.82,0,0,0-54.62-29.13c-180.65-75.43-390.1,25.66-467.82,225.77s5.72,423.48,186.37,498.91c38.23,16,252.82,42.24,252.82,42.24s1506.83-61.22,1553.31-59.26c185.61,7.83,368.56-113,446.22-313C3176.89,1468.53,3072.63,1189.42,2846.9,1095.18Z" transform="translate(-454.58 -455)" style="fill:url(#linear-gradient-2)"/><path d="M3155.51,3030.75,752.13,3010.27v60.61c0,16.45,10.49,30.44,24.68,32.94l679.6,119.36a95.42,95.42,0,0,0,24.39,1.12l1648.59-136.09c14.72-1.22,26.12-15.25,26.12-32.15Z" transform="translate(-454.58 -455)" style="fill:#26264f"/><path d="M2283.33,2933.62,777,3044.5c-27,2-48.88-19.1-48.88-47.1V1875.67c0-28,21.92-50.69,48.88-50.69H2283.33c22.21,0,40.16,20.51,40.16,45.82v1014C2323.49,2910.14,2305.54,2932,2283.33,2933.62Z" transform="translate(-454.58 -455)" style="fill:#26264f"/><path d="M2307.35,2933.62,801,3044.5c-27,2-48.87-19.1-48.87-47.1V1875.67c0-28,21.92-50.69,48.87-50.69H2307.35c22.21,0,40.16,20.51,40.16,45.82v1014C2347.51,2910.14,2329.56,2932,2307.35,2933.62Z" transform="translate(-454.58 -455)" style="fill:url(#linear-gradient-3)"/><path d="M2260.42,2862.12l-1403,96.33c-21.94,1.5-39.76-15.8-39.76-38.66V1937.71c0-22.86,17.82-41.46,39.76-41.56l1403-6.05c18.32-.08,33.14,16.74,33.14,37.56v894.49C2293.56,2843,2278.74,2860.87,2260.42,2862.12Z" transform="translate(-454.58 -455)" style="fill:#fff"/><path d="M1607.38,1855.66c0,10.42-7.76,18.89-17.33,18.92s-17.37-8.41-17.37-18.85,7.78-18.93,17.37-18.93S1607.38,1845.23,1607.38,1855.66Z" transform="translate(-454.58 -455)" style="fill:#fff"/><path d="M2367.39,2927.46,752.13,3044.18l704.28,123.7a95.42,95.42,0,0,0,24.39,1.12l1674.71-138.25-762.43-102.49A125.4,125.4,0,0,0,2367.39,2927.46Z" transform="translate(-454.58 -455)" style="fill:url(#linear-gradient-4)"/><polygon points="533.25 2590.19 1877.99 2491.57 2294.18 2547.07 961.02 2652.49 533.25 2590.19" style="fill:#26264f"/><path d="M1423.52,2917.94l-572.35,38.51a29.08,29.08,0,0,1-31-29V1925a29.07,29.07,0,0,1,29-29.08l574.42-2.32Z" transform="translate(-454.58 -455)" style="fill:#d8dee8"/><polygon points="1708.07 1916.31 1105.04 1937.5 1105.04 1876.52 1708.07 1857.62 1708.07 1916.31" style="fill:#d8dee8"/><polygon points="1708.07 2012.45 1105.04 2037.39 1105.04 1976.41 1708.07 1953.76 1708.07 2012.45" style="fill:#d8dee8"/><polygon points="909.91 1927.26 563.64 1939.06 563.64 1893.49 909.91 1882.64 909.91 1927.26" style="fill:#fff"/><polygon points="909.91 2000.36 563.64 2013.72 563.64 1968.15 909.91 1955.74 909.91 2000.36" style="fill:#fff"/><polygon points="909.91 2073.46 563.64 2088.38 563.64 2042.81 909.91 2028.84 909.91 2073.46" style="fill:#fff"/><polygon points="909.91 2146.56 563.64 2163.04 563.64 2117.47 909.91 2101.94 909.91 2146.56" style="fill:#fff"/><polygon points="1371.52 2124.6 1105.04 2137.28 1105.04 2076.3 1371.52 2064.64 1371.52 2124.6" style="fill:#d8dee8"/><path d="M1783.19,2101.8v91.59c0,26.49,22.28,47.37,49.67,46.66l67.94-1.77c27.07-.71,48.94-22.52,48.94-48.73v-90.63Zm62.56,94.69,12.63-38.26a16.5,16.5,0,0,1-9.07-14.69c0-9.4,7.88-17.17,17.59-17.36s17.56,7.27,17.56,16.66a17.33,17.33,0,0,1-9,15l12.58,37.63Z" transform="translate(-454.58 -455)" style="fill:#d8dee8"/><path d="M1930.43,2091a12.61,12.61,0,0,1-13-12.46c0-26.92-22.61-48.53-50.48-48.18s-50.79,22.7-50.79,49.79a13.29,13.29,0,0,1-13.25,13,12.78,12.78,0,0,1-13.27-12.56c0-41.24,34.78-75.18,77.31-75.65,42.31-.48,76.56,32.36,76.56,73.19A13.11,13.11,0,0,1,1930.43,2091Z" transform="translate(-454.58 -455)" style="fill:#d8dee8"/><path d="M801,3044.5l1498.72-110.32,7.63-.57c10.19-.75,19.45-5.78,26.53-13.42-107.85-5.9-174.84-44.18-218.05-83.72-86.78-79.42-71.73-157.74-165.31-210-116.72-65.13-208.49,17.4-297.06-64-53.7-49.36-27.34-86.17-93.41-159.95-73.18-81.7-120.83-54.24-194.38-127.77-93-93-46.48-165.33-126.58-232.09-97.18-81-202-6-294.48-83.7-39.9-33.5-61.79-82.2-73.22-134H801c-27,0-48.88,22.69-48.88,50.69V2997.4C752.13,3025.4,774.05,3046.48,801,3044.5Z" transform="translate(-454.58 -455)" style="fill:#fff;mix-blend-mode:soft-light;opacity:0.48"/><path d="M1447.36,2181.9a115.82,115.82,0,0,1-63-16.31c-57.55-34.49-142.57-91.46-219.07-166-97.07-94.62-152.84-190.81-165-285.26l-.19-1.48-2.37-403c0-79.65,51.95-144.31,149.49-186.79,80.58-35.1,187.39-52.49,300.23-49.23,111.52,3.23,214.71,26.24,291.1,64.58,90.79,45.58,138.43,109.63,138.43,185.57l-2.16,385.1-.17,1.41c-11.15,90.45-62.47,183.94-153.16,278.48-72.75,75.83-155,135.92-211.41,173.15A119.91,119.91,0,0,1,1447.36,2181.9Z" transform="translate(-454.58 -455)" style="fill:url(#linear-gradient-5)"/><path d="M1469.49,2181.9a113.14,113.14,0,0,1-62.22-16.31c-56.78-34.49-140.69-91.46-216.17-166-95.79-94.62-150.82-190.81-162.86-285.26l-.19-1.48-2.34-403c0-79.65,51.27-144.31,147.51-186.79,79.53-35.1,184.92-52.49,296.27-49.23,110,3.23,211.88,26.24,287.25,64.58,89.6,45.58,136.61,109.63,136.61,185.57l-2.13,385.1-.18,1.41c-11,90.45-61.63,183.94-151.13,278.48-71.79,75.83-152.9,135.92-208.61,173.15A117.27,117.27,0,0,1,1469.49,2181.9Z" transform="translate(-454.58 -455)" style="fill:url(#linear-gradient-6)"/><path d="M1052.32,1310.09l2.36,401c26.39,204.6,266.83,370.24,371.55,433.18,30,18,68.36,17,98.15-2.64,102.53-67.48,329.81-237.33,354.09-434l2.16-384C1880.63,1038.62,1052.32,1012.57,1052.32,1310.09Z" transform="translate(-454.58 -455)" style="fill:url(#linear-gradient-7)"/><path d="M1475.43,2082.44a14.38,14.38,0,0,1-7.76-2.06c-43.12-26.11-126.7-80.8-199.42-152.22C1189.71,1851,1144.41,1776,1134,1705.54l-2.3-394.34c.09-37.84,30-70.22,88.76-96.13,65.54-28.93,158.62-44.11,255-41.82,95.37,2.26,185.73,21.46,248.34,52.53,55.37,27.47,83.37,59.87,83.46,96.39l-2.15,380.7c-9.7,68.17-52.21,141.67-126.86,218.92C1608,1994.43,1526,2052,1483.18,2080A14.8,14.8,0,0,1,1475.43,2082.44Z" transform="translate(-454.58 -455)" style="fill:url(#linear-gradient-8)"/><path d="M1465.59,2055.48c-43.54-26.82-121-78.6-188.53-145.09-73.82-72.64-116.53-142.35-126.57-206.85l-2.29-392.06c.07-27,24.94-51.87,73.72-73.47,62.09-27.49,151-42,243.67-39.9,91.73,2.06,178.2,20.18,237.61,49.58,46.17,22.84,69.53,47.76,69.59,74.14l-2.14,379.3c-9.42,62.58-49.71,131-120.17,203.8C1585.07,1972.51,1508.94,2026.85,1465.59,2055.48Z" transform="translate(-454.58 -455)" style="fill:#f4f7fa"/><path d="M1621.4,1542.18l-293.23,2.6c-22.54.2-40.9,17.78-40.9,39.24v187.87c0,21.34,18.29,37.88,40.75,37l292.19-12c20.79-.85,37.64-18.06,37.75-38.45l.93-179.47A36.76,36.76,0,0,0,1621.4,1542.18Z" transform="translate(-454.58 -455)" style="fill:url(#linear-gradient-9)"/><path d="M1514.91,1649.91c.06-20.75-17.75-37.15-39.49-35.78-19.25,1.22-35.22,16.77-36.3,35.43a35.29,35.29,0,0,0,18.9,33.37,13.09,13.09,0,0,1,6.57,14l-8.47,47.46a9.54,9.54,0,0,0,10,11.13l21.45-.75c6.27-.22,11.05-5.84,10-11.78l-8.2-47c-1-5.61,1.91-11.18,7-14.23A37.48,37.48,0,0,0,1514.91,1649.91Z" transform="translate(-454.58 -455)" style="fill:url(#linear-gradient-10)"/><path d="M1617.28,1523.54a15.64,15.64,0,0,1-15.89-15.63l.18-40.92c.18-41.11-33.8-74.92-76.15-75.34l-95.71-1c-43.83-.44-79.87,33.74-79.91,76.15l0,42.21c0,9-7.64,16.28-17.07,16.34s-17.12-7.18-17.11-16.18v-42.39c0-60.61,51.64-109.27,114.17-108.4l95.75,1.33c60.16.84,108.21,49,107.93,107.25l-.2,40.76A16,16,0,0,1,1617.28,1523.54Z" transform="translate(-454.58 -455)" style="fill:url(#linear-gradient-11)"/><path d="M2484.2,1860c81.42-39.76,240.22,104.25,317.5,242.2,30.8,55,67,119.51,58.08,196.24-15.73,136-166.62,255.34-374.32,295.17q-8.76-31.32-17.54-62.64c22.71-23.65,56.67-57.8,100.08-96.92,66.66-60.1,80.36-64.1,83.56-83.08,10.47-62.14-149.34-114.17-206.19-223.44C2396.5,2033.58,2421.66,1890.54,2484.2,1860Z" transform="translate(-454.58 -455)" style="fill:url(#linear-gradient-12)"/><path d="M2591.16,2953.29s-13.36,33-6.71,45.89,38.72,4.74,83.94,11.65,76.43,17.49,78.93,8.12-91.21-58.83-98.7-65.66S2591.16,2953.29,2591.16,2953.29Z" transform="translate(-454.58 -455)" style="fill:url(#linear-gradient-13)"/><path d="M2603.14,2904l31.63,49.3s-14.58,14.38-39.34,9l-34.79-46.7Z" transform="translate(-454.58 -455)" style="fill:url(#linear-gradient-14)"/><path d="M2445.37,2127.53c-48.87-94-23.71-237,38.83-267.53,16.4-8,36-8.46,57.36-3.1-11.26,32.51-9,56-3.47,72.67,24.78,74.27,131.91,65.82,165.38,150.35,21.16,53.44-12.49,79.95,17.54,122.78,31.12,44.39,82,37,97.73,80.19,11.71,32.22-11.38,50.54-2.51,77.68,2.48,7.57,7.35,15.16,15.55,22.37-55,99-183.12,179.38-346.32,210.67q-8.76-31.32-17.54-62.64c22.71-23.65,56.67-57.8,100.08-96.92,66.66-60.1,80.36-64.1,83.56-83.08C2662,2288.83,2502.22,2236.8,2445.37,2127.53Z" transform="translate(-454.58 -455)" style="mix-blend-mode:multiply;opacity:0.30000000000000004;fill:url(#linear-gradient-15)"/><path d="M2539.76,1889.48c-3.52,142.37-1.55,296.32,8.76,460.21a5260.45,5260.45,0,0,0,68,574.19l-40.18,12.79c-137.75-134.22-179-252.28-190.25-337.21-8-60,4.09-65.19-6.67-140.33-20.51-143.08-74-192.09-111.55-326-14.1-50.28-29.79-126.23-28.79-225.24Z" transform="translate(-454.58 -455)" style="fill:url(#linear-gradient-16)"/><path d="M2638.43,1634.45c-2.5.57-13.36,4.18-17.65,49.55-10.35,109.38,46.6,153.67,32.58,213-13.47,56.94-82.12,84.57-152.78,113-47.22,19-193.28,77.78-278.22,11.69-35.74-27.81-39.66-61.39-65.16-184.83-64.79-313.61-89.9-340.56-62.64-408.45,46.79-116.58,172.1-164.87,192.94-172.9,222.3-85.66,484.81,71.77,588.54,252.63,13.66,23.82,95.24,166,37.92,233.5-34.67,40.81-114.35,47.4-166.93,19.57C2676.77,1724,2661.84,1629.08,2638.43,1634.45Z" transform="translate(-454.58 -455)" style="fill:url(#linear-gradient-17)"/><path d="M2881.39,1717.41a5,5,0,0,0,4.56-7.1c-1.91-4.17-47.79-102.65-153.83-141.51a5,5,0,0,0-3.45,9.41c102,37.38,147.7,135.28,148.15,136.26A5,5,0,0,0,2881.39,1717.41Z" transform="translate(-454.58 -455)" style="fill:url(#linear-gradient-18)"/><path d="M2239.89,1388.31c14,38.19-28.06,71.29-10,112.76,25.86,59.44,128.64,28.93,165.39,87.71,43.55,69.65-56.18,183.91-15,223,18.75,17.81,40.41-5,95.22,7.51,78.06,17.83,101.52,79.52,137.82,70.17,11.42-3,25.26-13.31,36.91-45.22,5.08,17.7,7.49,34.51,3.19,52.73-13.47,56.94-82.12,84.57-152.78,113-47.22,19-193.28,77.78-278.22,11.69-35.74-27.81-39.66-61.39-65.16-184.83-64.79-313.61-89.9-340.56-62.64-408.45,14.86-37,37.64-67.13,62.47-91.27C2210.57,1349,2232.55,1368.31,2239.89,1388.31Z" transform="translate(-454.58 -455)" style="mix-blend-mode:multiply;opacity:0.30000000000000004;fill:url(#linear-gradient-19)"/><path d="M2374.27,1627.92c-6,5.46-66.81,59-140,40.73-63.72-15.93-102.83-77.87-109.68-130-16.3-124,145.2-228,125.29-253.09-11.86-14.94-75.44,14-117.78,40.09-43.94,27.09-162.7,100.3-188,243.95-2.15,12.21-30.07,183.48,67.7,254.21,90.4,65.4,267.47,29.83,387.4-124.87Z" transform="translate(-454.58 -455)" style="fill:url(#linear-gradient-20)"/><path d="M2766.37,1514.7,2694,1746a18.72,18.72,0,0,1-17.21,13.12l-389.66,13.77a18.74,18.74,0,0,1-19-22.7L2318.5,1518a18.75,18.75,0,0,1,17.73-14.76l411.68-12.81A18.73,18.73,0,0,1,2766.37,1514.7Z" transform="translate(-454.58 -455)" style="fill:#d8dee8"/><path d="M2762.9,1522.3l-70.28,224.49a18.18,18.18,0,0,1-16.71,12.74l-378.18,13.36a18.19,18.19,0,0,1-18.41-22l48.9-225.4a18.18,18.18,0,0,1,17.21-14.32L2745,1498.7A18.19,18.19,0,0,1,2762.9,1522.3Z" transform="translate(-454.58 -455)" style="fill:url(#linear-gradient-21)"/><path d="M2279.32,1750.86,2326,1535.71c7.92,18.73,18.13,28.19,27.91,33,28.14,13.9,50.05-11.15,111.51-8.77,23.5.91,71.55,2.77,101.48,33.83C2595,1623,2583.08,1653,2600.73,1694c8.92,20.73,25.45,44.22,57.32,66.14l-360.32,12.73A18.19,18.19,0,0,1,2279.32,1750.86Z" transform="translate(-454.58 -455)" style="fill:url(#linear-gradient-22)"/><path d="M2516.65,1233.21a26.63,26.63,0,0,0,19.3,33.2c17.8,4.29,39.48,10.23,48.85,15.59,17.19,9.84-52.36-1.53-116.32-3-39.94-.93-69.78-5.42-86.56-8.65a4.44,4.44,0,0,1-.5-8.58c16-5.2,42-12.86,63.94-15.62,27.19-3.42,56.35-63.42,56.35-63.42l23.3,21.17Z" transform="translate(-454.58 -455)" style="fill:url(#linear-gradient-23)"/><path d="M2748.11,1588.42l-4.42-7.24a31,31,0,0,0-33.75-22.92l-23.23,2.87a12.5,12.5,0,0,0-10.69,15c2.16,10.37,7.72,22.77,22,21.81,24.25-1.64,39.75,33.7,39.75,33.7l9.3-13.11A27.34,27.34,0,0,0,2748.11,1588.42Z" transform="translate(-454.58 -455)" style="fill:url(#linear-gradient-24)"/><path d="M2568.59,1202.46c20.09-3,42.6-19.87,42.17-33.83-.6-19.18-44.46-29.69-66.61-35s-31.63-3.39-38,1.45-10.77,13.8-12.16,21.43c-.76,4.16-.8,9.89-.09,21.29.63,10.13.45,9.68.71,12.67.63,7.19,2.59,19.82,9.59,37.34a91.65,91.65,0,0,1,11.66-10.79,80.34,80.34,0,0,1,17.74-10.45C2548.09,1200.73,2556.39,1204.27,2568.59,1202.46Z" transform="translate(-454.58 -455)" style="fill:url(#linear-gradient-25)"/><path d="M2493.52,1208.29s1.3,28,27.68,40.28c23.62,11,55-38.31,46.35-57.14-2.88-6.28-11.79-13.11-20.92-15.23-5.39-1.25-8-.17-16.81-2.39-8.09-2-9.66-3.92-12.78-3.29-3.91.78-8.89,5.23-12.61,22.63-1.94-6.79-6.24-11.34-10.89-11.62a8.8,8.8,0,0,0-4.66,1.29C2482.49,1186.92,2483.74,1197.3,2493.52,1208.29Z" transform="translate(-454.58 -455)" style="fill:url(#linear-gradient-26)"/></g></g></svg>