<?xml version="1.0" encoding="utf-8"?>
<!-- Generator: Adobe Illustrator 26.0.1, SVG Export Plug-In . SVG Version: 6.00 Build 0)  -->
<svg version="1.1" id="Layer_1" xmlns="http://www.w3.org/2000/svg" xmlns:xlink="http://www.w3.org/1999/xlink" x="0px" y="0px"
	 viewBox="0 0 394 295" style="enable-background:new 0 0 394 295;" xml:space="preserve">
<style type="text/css">
	.st0{fill:none;stroke:#0A1A35;stroke-width:1.5;stroke-linecap:round;stroke-linejoin:round;}
	.st1{fill:none;stroke:#0A1A35;stroke-width:3;stroke-linecap:round;stroke-linejoin:round;}
	.st2{fill:#858CC5;}
	.st3{fill:#FFFFFF;}
	.st4{fill:#FACCD4;}
	.st5{fill:#41BFB5;}
	.st6{fill:#0A1A35;stroke:#0A1A35;stroke-width:1.5;stroke-linecap:round;stroke-linejoin:round;}
	.st7{fill:#FFFFFF;stroke:#0A1A35;stroke-width:1.5;stroke-linecap:round;stroke-linejoin:round;}
	.st8{fill:#F4DC8E;stroke:#0A1A35;stroke-width:1.5;stroke-linecap:round;stroke-linejoin:round;}
	.st9{fill:#D1D1D6;stroke:#0A1A35;stroke-width:1.5;stroke-linecap:round;stroke-linejoin:round;}
	.st10{fill:#F599AA;}
	.st11{opacity:0.45;}
	.st12{fill:none;stroke:#858CC5;stroke-width:1.5;stroke-linecap:round;stroke-linejoin:round;}
	.st13{fill:#0A1A35;}
	.st14{font-family:'Arial-BoldMT';}
	.st15{font-size:20.0138px;}
	.st16{font-size:11.6747px;}
</style>
<g>
	<g id="Layer_1_00000065050679809510408240000009577427209557477304_">
		<line class="st0" x1="168.77" y1="83.14" x2="160.92" y2="82.03"/>
		<line class="st0" x1="351.85" y1="288.2" x2="358.07" y2="293.12"/>
		<line class="st0" x1="231.21" y1="41.83" x2="234.66" y2="48.97"/>
		<line class="st0" x1="5.33" y1="175.99" x2="11.55" y2="180.91"/>
		<line class="st0" x1="362.84" y1="190.53" x2="370.31" y2="187.87"/>
		<line class="st0" x1="266.03" y1="288.9" x2="267.82" y2="296.63"/>
		<line class="st0" x1="49.17" y1="274.4" x2="45.68" y2="281.52"/>
		<line class="st0" x1="372.05" y1="85.88" x2="368.56" y2="93"/>
		<path class="st0" d="M38.89,140.93c0-0.97-0.79-1.76-1.76-1.76s-1.76,0.79-1.76,1.76c0,0.97,0.79,1.76,1.76,1.76
			C38.1,142.69,38.89,141.9,38.89,140.93L38.89,140.93z"/>
		<path class="st0" d="M392.51,125.69c0-0.97-0.79-1.76-1.76-1.76c-0.97,0-1.76,0.79-1.76,1.76c0,0.97,0.79,1.76,1.76,1.76
			S392.51,126.66,392.51,125.69C392.51,125.69,392.51,125.69,392.51,125.69z"/>
		<path class="st0" d="M62.5,56.45c0-0.97-0.79-1.76-1.76-1.76c-0.97,0-1.76,0.79-1.76,1.76c0,0.97,0.79,1.76,1.76,1.76h0
			C61.71,58.21,62.5,57.42,62.5,56.45z"/>
		<path class="st0" d="M10.2,251.53c0.01-0.97-0.77-1.77-1.74-1.78c-0.97-0.01-1.77,0.77-1.78,1.74c-0.01,0.97,0.77,1.77,1.74,1.78
			c0.01,0,0.01,0,0.02,0C9.41,253.27,10.19,252.49,10.2,251.53z"/>
		<path class="st0" d="M340.08,52.94c0.01-0.97-0.78-1.76-1.75-1.77c-0.97-0.01-1.76,0.78-1.77,1.75c-0.01,0.97,0.78,1.76,1.75,1.77
			c0,0,0.01,0,0.01,0C339.29,54.69,340.08,53.91,340.08,52.94z"/>
		<path class="st0" d="M191.83,58.21c0-0.97-0.79-1.76-1.76-1.76c-0.97,0-1.76,0.79-1.76,1.76c0,0.97,0.79,1.76,1.76,1.76l0,0
			C191.04,59.97,191.83,59.18,191.83,58.21z"/>
		<path class="st0" d="M81.09,294.53c0.01-0.97-0.77-1.77-1.74-1.78c-0.97-0.01-1.77,0.77-1.78,1.74c-0.01,0.97,0.77,1.77,1.74,1.78
			c0.01,0,0.01,0,0.02,0C80.3,296.27,81.08,295.49,81.09,294.53z"/>
		<path class="st0" d="M373.81,238.37c0-0.97-0.79-1.76-1.76-1.76c-0.97,0-1.76,0.79-1.76,1.76c0,0.97,0.79,1.76,1.76,1.76
			c0.97,0.01,1.75-0.77,1.76-1.74C373.81,238.38,373.81,238.37,373.81,238.37z"/>
		<line class="st1" x1="379.31" y1="270.97" x2="379.31" y2="270.97"/>
		<line class="st1" x1="11.55" y1="125.69" x2="11.55" y2="125.69"/>
		<line class="st1" x1="293.22" y1="52.93" x2="293.22" y2="52.93"/>
		<line class="st1" x1="0.58" y1="290.66" x2="0.58" y2="290.66"/>
		<line class="st1" x1="127.01" y1="51.17" x2="127.01" y2="51.17"/>
		<line class="st1" x1="384.15" y1="52.93" x2="384.15" y2="52.93"/>
		<line class="st1" x1="198.51" y1="299.03" x2="198.51" y2="299.03"/>
		<line class="st0" x1="18.75" y1="51.39" x2="14.36" y2="57.99"/>
		<path class="st2" d="M76.69,277.37c68.43,33.14,182.67,8.76,225.17-24.9c55.22-43.76,68.54-146.44,11.29-181.11
			c-32.57-19.74-85.3-15.09-127.57,42.24c-39.28,53.26-67.83,27.45-112.15,43.07C17.31,176.43,18.2,249.05,76.69,277.37z"/>
		<path class="st3" d="M112.06,109.46h182.61c6.63,0,12,5.37,12,12v117.62c0,6.63-5.37,12-12,12H112.06c-6.63,0-12-5.37-12-12
			V121.46C100.06,114.83,105.43,109.46,112.06,109.46z"/>
		<path class="st4" d="M274.27,105.27c-0.72-7,2.62-16.59,7.5-15.72s-1.19,8.37,2.81,16.19L274.27,105.27z"/>
		<path class="st5" d="M275.58,109.46c0,0,7.9-7.81,12-21.74s22.29-14.37,25.66,3.23s-12.42,42.32-12.42,42.32L275.58,109.46z"/>
		<path class="st0" d="M301.88,91.84c-0.03,11.35-5.13,22.09-13.89,29.3"/>
		<path class="st0" d="M324.64,96.05c0,0,2.64,9.14-4.17,16"/>
		<path class="st0" d="M107.39,242.66c0,0,1.72,8.25-2.68,15.51"/>
		<path class="st0" d="M98.96,242.66c-0.29,4.31-1.53,8.49-3.63,12.26"/>
		<path class="st5" d="M181.12,248.12c10.69,13.66,21.54,13.23,34.58,13.18c13.04-0.05,27.87,3.59,34.43,12s26.38,10.72,25.49-9.46
			c-0.89-20.18-30.12-38.27-53.67-37.47s-39.37-2.78-39.37-2.78L181.12,248.12z"/>
		<path class="st0" d="M181.87,234.95c36.61,18.89,62.22,6.53,77.9,26.35"/>
		<path class="st0" d="M284.58,263.59c0,0,5.88,4,5.69,14.37"/>
		<path class="st4" d="M109.1,106.9c-4.61-9.5-3.47-24.46,3.07-24.31s0.09,16.07,8.74,22.92L109.1,106.9z"/>
		<path class="st5" d="M86.02,125.69c0,0-25.73-46.77-1.1-54c20.71-6.13,16.35,34.58,38.74,43.58L86.02,125.69z"/>
		<path class="st0" d="M87.12,83.98c0,0,2.95,20.82,16.46,36.84"/>
		<path class="st0" d="M72.16,178.52c0,0,12.48,3.51,23.17,1.44"/>
		<path class="st0" d="M66.88,112.42c4.68,2.16,8.48,5.86,10.78,10.48"/>
		<path class="st0" d="M133.49,90.8c0,0-3.34,5.82,0,15.88"/>
		<path class="st6" d="M104.72,103.34h182.61c6.63,0,12,5.37,12,12v117.62c0,6.63-5.37,12-12,12H104.72c-6.63,0-12-5.37-12-12
			V115.34C92.72,108.71,98.09,103.34,104.72,103.34z"/>
		<path class="st7" d="M100.39,103.34H283c6.63,0,12,5.37,12,12v117.62c0,6.63-5.37,12-12,12H100.39c-6.63,0-12-5.37-12-12V115.34
			C88.39,108.71,93.76,103.34,100.39,103.34z"/>
		<path class="st8" d="M95.06,244.97h193.26c3.68,0.01,6.66-2.97,6.67-6.65c0-0.01,0-0.01,0-0.02v-6.8H88.39v6.77
			c-0.02,3.68,2.94,6.68,6.62,6.7C95.03,244.97,95.04,244.97,95.06,244.97z"/>
		<path class="st9" d="M194.98,238.27c0-1.82-1.47-3.29-3.29-3.29s-3.29,1.47-3.29,3.29s1.47,3.29,3.29,3.29h0
			C193.51,241.56,194.98,240.08,194.98,238.27z"/>
		<path class="st8" d="M288.32,103.35H95.06c-3.68,0-6.67,2.99-6.67,6.67h206.6C294.99,106.33,292,103.35,288.32,103.35
			L288.32,103.35z"/>
		<rect x="102.15" y="121.13" class="st4" width="74.7" height="50.74"/>
		<rect x="102.15" y="170.06" class="st10" width="74.7" height="1.82"/>
		<rect x="105.67" y="124.66" class="st0" width="3.43" height="3.43"/>
		<line class="st0" x1="115.96" y1="128.08" x2="112.53" y2="128.08"/>
		<polyline class="st0" points="114.84,157.5 124.89,138.02 134.72,152.83 146.31,141.15 153.76,149.87 165.56,155.52 		"/>
		<path class="st7" d="M116.07,157.5c0-0.68-0.55-1.23-1.23-1.23c-0.68,0-1.23,0.55-1.23,1.23c0,0.68,0.55,1.23,1.23,1.23l0,0
			C115.52,158.73,116.07,158.18,116.07,157.5z"/>
		<path class="st7" d="M147.58,141.15c0-0.68-0.55-1.23-1.23-1.23c-0.68,0-1.23,0.55-1.23,1.23c0,0.68,0.55,1.23,1.23,1.23l0,0
			C147.03,142.38,147.58,141.83,147.58,141.15z"/>
		<circle class="st7" cx="134.72" cy="152.83" r="1.23"/>
		<path class="st7" d="M154.99,149.87c0-0.68-0.55-1.23-1.23-1.23c-0.68,0-1.23,0.55-1.23,1.23c0,0.68,0.55,1.23,1.23,1.23l0,0
			C154.44,151.1,154.99,150.55,154.99,149.87z"/>
		<path class="st7" d="M126.12,138.03c0-0.68-0.55-1.23-1.23-1.23s-1.23,0.55-1.23,1.23s0.55,1.23,1.23,1.23
			C125.57,139.26,126.12,138.71,126.12,138.03L126.12,138.03z"/>
		<path class="st7" d="M166.79,155.52c0-0.68-0.55-1.23-1.23-1.23c-0.68,0-1.23,0.55-1.23,1.23c0,0.68,0.55,1.23,1.23,1.23
			c0,0,0,0,0,0C166.24,156.75,166.79,156.2,166.79,155.52z"/>
		<line class="st0" x1="114.84" y1="163.68" x2="165.56" y2="163.68"/>
		<rect x="153.64" y="124.66" class="st3" width="19.47" height="3.43"/>
		<rect x="163.18" y="129.71" class="st2" width="9.93" height="3.43"/>
		<rect x="102.15" y="176.43" class="st4" width="74.7" height="43.94"/>
		<rect x="102.15" y="218.56" class="st10" width="74.7" height="1.82"/>
		<rect x="105.67" y="179.96" class="st0" width="3.43" height="3.43"/>
		<line class="st0" x1="115.96" y1="183.38" x2="112.53" y2="183.38"/>
		<rect x="109.1" y="187.97" class="st2" width="64.01" height="2.46"/>
		<rect x="109.1" y="193.79" class="st3" width="64.01" height="2.46"/>
		<rect x="109.1" y="199.61" class="st3" width="39.67" height="2.46"/>
		<rect x="109.1" y="205.43" class="st2" width="28.7" height="2.46"/>
		<rect x="140.87" y="205.43" class="st2" width="16.12" height="2.46"/>
		<rect x="109.1" y="211.25" class="st3" width="17.46" height="2.46"/>
		<rect x="184.75" y="121.13" class="st4" width="96.48" height="12.56"/>
		<rect x="184.75" y="133.7" class="st10" width="96.48" height="1.82"/>
		<line class="st0" x1="188.27" y1="124.66" x2="191.7" y2="124.66"/>
		<line class="st0" x1="195.13" y1="124.66" x2="198.55" y2="124.66"/>
		<rect x="188.27" y="123.33" class="st0" width="3.43" height="1.33"/>
		<rect x="191.7" y="127.66" class="st2" width="34.27" height="2.46"/>
		<rect x="228.06" y="127.66" class="st3" width="14.38" height="2.46"/>
		<rect x="184.75" y="138.06" class="st4" width="96.48" height="12.56"/>
		<rect x="184.75" y="150.63" class="st10" width="96.48" height="1.82"/>
		<line class="st0" x1="188.27" y1="141.59" x2="191.7" y2="141.59"/>
		<line class="st0" x1="195.13" y1="141.59" x2="198.55" y2="141.59"/>
		<rect x="188.27" y="140.26" class="st0" width="3.43" height="1.33"/>
		<rect x="191.7" y="144.59" class="st2" width="15.67" height="2.46"/>
		<rect x="226.52" y="144.59" class="st2" width="45.75" height="2.46"/>
		<rect x="209.97" y="144.59" class="st3" width="14.38" height="2.46"/>
		<rect x="184.75" y="154.99" class="st4" width="96.48" height="12.56"/>
		<rect x="184.75" y="167.56" class="st10" width="96.48" height="1.82"/>
		<line class="st0" x1="188.27" y1="158.52" x2="191.7" y2="158.52"/>
		<line class="st0" x1="195.13" y1="158.52" x2="198.55" y2="158.52"/>
		<rect x="188.27" y="157.19" class="st0" width="3.43" height="1.33"/>
		<rect x="191.7" y="161.52" class="st2" width="34.27" height="2.46"/>
		<rect x="184.75" y="171.92" class="st4" width="96.48" height="12.56"/>
		<rect x="184.75" y="184.49" class="st10" width="96.48" height="1.82"/>
		<line class="st0" x1="188.27" y1="175.44" x2="191.7" y2="175.44"/>
		<line class="st0" x1="195.13" y1="175.44" x2="198.55" y2="175.44"/>
		<rect x="188.27" y="174.12" class="st0" width="3.43" height="1.33"/>
		<rect x="191.7" y="178.45" class="st2" width="24.01" height="2.46"/>
		<rect x="218.48" y="178.45" class="st3" width="40.41" height="2.46"/>
		<rect x="261.93" y="178.45" class="st3" width="6.65" height="2.46"/>
		<rect x="184.75" y="191.67" class="st4" width="96.48" height="28.7"/>
		<rect x="184.75" y="218.56" class="st10" width="96.48" height="1.82"/>
		<rect x="188.27" y="195.2" class="st0" width="3.43" height="3.43"/>
		<line class="st0" x1="198.55" y1="198.62" x2="195.13" y2="198.62"/>
		<rect x="203.04" y="199.1" class="st2" width="13.86" height="13.86"/>
		<line class="st0" x1="206.54" y1="209.46" x2="213.4" y2="202.59"/>
		<line class="st0" x1="213.4" y1="209.46" x2="206.54" y2="202.59"/>
		<rect x="221.95" y="199.1" class="st2" width="13.86" height="13.86"/>
		<line class="st0" x1="225.45" y1="209.46" x2="232.31" y2="202.59"/>
		<rect x="240.86" y="199.1" class="st2" width="13.86" height="13.86"/>
		<rect x="245" y="202.92" class="st0" width="6.22" height="6.22"/>
		<rect x="259.77" y="199.1" class="st2" width="13.86" height="13.86"/>
		<line class="st0" x1="263.59" y1="202.92" x2="263.59" y2="202.92"/>
		<line class="st0" x1="269.81" y1="202.92" x2="269.81" y2="202.92"/>
		<line class="st0" x1="263.59" y1="209.13" x2="263.59" y2="209.13"/>
		<line class="st0" x1="269.81" y1="209.13" x2="269.81" y2="209.13"/>
		<g class="st11">
			<path class="st2" d="M264.33,185.51h73.89c3.98,0,7.2,3.22,7.2,7.2v73.89c0,3.98-3.22,7.2-7.2,7.2h-73.89
				c-3.98,0-7.2-3.22-7.2-7.2v-73.89C257.13,188.73,260.35,185.51,264.33,185.51z"/>
			<path class="st12" d="M264.33,185.51h73.89c3.98,0,7.2,3.22,7.2,7.2v73.89c0,3.98-3.22,7.2-7.2,7.2h-73.89
				c-3.98,0-7.2-3.22-7.2-7.2v-73.89C257.13,188.73,260.35,185.51,264.33,185.51z"/>
		</g>
		<path class="st3" d="M257.33,178.51h73.89c3.98,0,7.2,3.22,7.2,7.2v73.89c0,3.98-3.22,7.2-7.2,7.2h-73.89
			c-3.98,0-7.2-3.22-7.2-7.2v-73.89C250.13,181.73,253.35,178.51,257.33,178.51z"/>
		<path class="st0" d="M257.33,178.51h73.89c3.98,0,7.2,3.22,7.2,7.2v73.89c0,3.98-3.22,7.2-7.2,7.2h-73.89
			c-3.98,0-7.2-3.22-7.2-7.2v-73.89C250.13,181.73,253.35,178.51,257.33,178.51z"/>
		<line class="st0" x1="255.32" y1="186.47" x2="258.47" y2="183.31"/>
		<line class="st0" x1="255.32" y1="183.31" x2="258.47" y2="186.47"/>
		<path class="st2" d="M267.33,208.13c-3.7-0.01-6.7,2.99-6.71,6.69c0,0.01,0,0.01,0,0.02v1.62h13.42v-1.62
			C274.04,211.13,271.04,208.13,267.33,208.13L267.33,208.13z"/>
		<path class="st2" d="M271.14,202.98c0-2.1-1.71-3.81-3.81-3.81s-3.81,1.71-3.81,3.81s1.71,3.81,3.81,3.81l0,0
			C269.43,206.78,271.14,205.08,271.14,202.98z"/>
		<rect x="258.47" y="192.91" class="st0" width="17.71" height="23.55"/>
		<rect x="280.57" y="207.97" class="st2" width="19.47" height="3.43"/>
		<rect x="280.57" y="213.02" class="st2" width="9.93" height="3.43"/>
		<path class="st0" d="M330.07,214.37c0-1.15-0.94-2.09-2.09-2.09c-1.15,0-2.09,0.94-2.09,2.09c0,1.15,0.94,2.09,2.09,2.09l0,0
			C329.13,216.45,330.07,215.52,330.07,214.37z"/>
		<rect x="258.47" y="221.94" class="st4" width="71.59" height="14.08"/>
		<rect x="262.27" y="225.13" class="st2" width="64.01" height="2.46"/>
		<rect x="262.27" y="230.95" class="st3" width="24.2" height="2.46"/>
		<rect x="258.47" y="241.5" class="st4" width="71.59" height="14.08"/>
		<rect x="262.27" y="244.69" class="st2" width="29.29" height="2.46"/>
		<rect x="293.72" y="244.69" class="st3" width="32.55" height="2.46"/>
		<rect x="275.62" y="250.51" class="st3" width="23.38" height="2.46"/>
		<rect x="262.27" y="250.51" class="st3" width="11.18" height="2.46"/>
		<path class="st0" d="M253.32,225.17c-8.51,0-8.05-7.13-17.47-7.13l0,0c-2.53-0.01-4.58-2.06-4.59-4.59v-1.83"/>
		<path class="st6" d="M256.48,225.17L256.48,225.17c0-0.87-0.71-1.58-1.58-1.58l0,0l0,0c-0.87,0-1.58,0.71-1.58,1.58l0,0l0,0
			c0,0.87,0.71,1.58,1.58,1.58l0,0l0,0C255.77,226.75,256.48,226.04,256.48,225.17L256.48,225.17z"/>
		<path class="st6" d="M232.84,210.04L232.84,210.04c0-0.87-0.71-1.58-1.58-1.58l0,0l0,0c-0.87,0-1.58,0.71-1.58,1.58l0,0l0,0
			c0,0.87,0.71,1.58,1.58,1.58l0,0l0,0C232.13,211.62,232.84,210.91,232.84,210.04L232.84,210.04z"/>
		<g class="st11">
			<path class="st2" d="M302.72,114.24h47.26c3.98,0,7.2,3.22,7.2,7.2v47.26c0,3.98-3.22,7.2-7.2,7.2h-47.26
				c-3.98,0-7.2-3.22-7.2-7.2v-47.26C295.52,117.46,298.74,114.24,302.72,114.24z"/>
			<path class="st12" d="M302.72,114.24h47.26c3.98,0,7.2,3.22,7.2,7.2v47.26c0,3.98-3.22,7.2-7.2,7.2h-47.26
				c-3.98,0-7.2-3.22-7.2-7.2v-47.26C295.52,117.46,298.74,114.24,302.72,114.24z"/>
		</g>
		<path class="st3" d="M295.72,107.24h47.26c3.98,0,7.2,3.22,7.2,7.2v47.26c0,3.98-3.22,7.2-7.2,7.2h-47.26
			c-3.98,0-7.2-3.22-7.2-7.2v-47.26C288.52,110.46,291.74,107.24,295.72,107.24z"/>
		<path class="st0" d="M295.72,107.24h47.26c3.98,0,7.2,3.22,7.2,7.2v47.26c0,3.98-3.22,7.2-7.2,7.2h-47.26
			c-3.98,0-7.2-3.22-7.2-7.2v-47.26C288.52,110.46,291.74,107.24,295.72,107.24z"/>
		<line class="st0" x1="293.71" y1="115.19" x2="296.87" y2="112.03"/>
		<line class="st0" x1="293.71" y1="112.03" x2="296.87" y2="115.19"/>
		<path class="st0" d="M275.22,124.53c9.42,0,9,7.14,17.47,7.14"/>
		<path class="st6" d="M295.85,131.67L295.85,131.67c0-0.87-0.71-1.58-1.58-1.58l0,0c-0.87,0-1.58,0.71-1.58,1.58l0,0
			c0,0.87,0.71,1.58,1.58,1.58l0,0C295.14,133.25,295.85,132.54,295.85,131.67z"/>
		<path class="st6" d="M275.22,124.53L275.22,124.53c0.01-0.87-0.69-1.57-1.56-1.58c-0.01,0-0.01,0-0.02,0l0,0
			c-0.87,0-1.58,0.71-1.58,1.58l0,0c0,0.87,0.71,1.58,1.58,1.58l0,0C274.51,126.11,275.22,125.4,275.22,124.53z"/>
		<path class="st6" d="M295.85,141.46L295.85,141.46c0-0.87-0.71-1.58-1.58-1.58l0,0c-0.87,0-1.58,0.71-1.58,1.58l0,0
			c0,0.87,0.71,1.58,1.58,1.58l0,0C295.14,143.04,295.85,142.33,295.85,141.46z"/>
		<path class="st6" d="M275.22,141.46L275.22,141.46c0.01-0.87-0.69-1.57-1.56-1.58c-0.01,0-0.01,0-0.02,0l0,0
			c-0.87,0-1.58,0.71-1.58,1.58l0,0c0,0.87,0.71,1.58,1.58,1.58l0,0C274.51,143.04,275.22,142.33,275.22,141.46z"/>
		<line class="st0" x1="275.22" y1="141.45" x2="292.69" y2="141.45"/>
		<path class="st0" d="M275.22,158.39c9.42,0,9-7.14,17.47-7.14"/>
		<path class="st6" d="M295.85,151.27L295.85,151.27c0,0.87-0.71,1.58-1.58,1.58l0,0c-0.87,0-1.58-0.71-1.58-1.58l0,0
			c0-0.87,0.71-1.58,1.58-1.58l0,0C295.14,149.69,295.85,150.4,295.85,151.27z"/>
		<path class="st6" d="M275.22,158.39L275.22,158.39c0,0.87-0.71,1.58-1.58,1.58l0,0c-0.87,0-1.58-0.71-1.58-1.58l0,0
			c0-0.87,0.71-1.58,1.58-1.58l0,0c0.87-0.01,1.57,0.69,1.58,1.56C275.22,158.37,275.22,158.38,275.22,158.39z"/>
		<g class="st11">
			<path class="st2" d="M129.19,243.28h55.64c3.98,0,7.2,3.22,7.2,7.2v23.56c0,3.98-3.22,7.2-7.2,7.2h-55.64
				c-3.98,0-7.2-3.22-7.2-7.2v-23.56C121.99,246.5,125.21,243.28,129.19,243.28z"/>
			<path class="st12" d="M129.19,243.28h55.64c3.98,0,7.2,3.22,7.2,7.2v23.56c0,3.98-3.22,7.2-7.2,7.2h-55.64
				c-3.98,0-7.2-3.22-7.2-7.2v-23.56C121.99,246.5,125.21,243.28,129.19,243.28z"/>
		</g>
		<path class="st3" d="M122.19,236.28h55.64c3.98,0,7.2,3.22,7.2,7.2v23.56c0,3.98-3.22,7.2-7.2,7.2h-55.64
			c-3.98,0-7.2-3.22-7.2-7.2v-23.56C114.99,239.5,118.21,236.28,122.19,236.28z"/>
		<path class="st0" d="M122.19,236.28h55.64c3.98,0,7.2,3.22,7.2,7.2v23.56c0,3.98-3.22,7.2-7.2,7.2h-55.64
			c-3.98,0-7.2-3.22-7.2-7.2v-23.56C114.99,239.5,118.21,236.28,122.19,236.28z"/>
		<line class="st0" x1="120.18" y1="244.24" x2="123.34" y2="241.08"/>
		<line class="st0" x1="120.18" y1="241.08" x2="123.34" y2="244.24"/>
		<path class="st0" d="M150.2,238.37c0-8.51-7.14-8-7.14-17.47l0,0c0.03-2.53-2-4.6-4.53-4.63c-0.02,0-0.03,0-0.05,0h-1.83"/>
		<path class="st6" d="M150.06,238.36h0.28c0.8,0,1.44,0.64,1.44,1.44v0.28c0,0.8-0.64,1.44-1.44,1.44h-0.28
			c-0.8,0-1.44-0.64-1.44-1.44v-0.28C148.62,239,149.27,238.36,150.06,238.36z"/>
		<path class="st6" d="M135.07,217.89L135.07,217.89c-0.87,0-1.58-0.71-1.58-1.58l0,0l0,0c0-0.87,0.71-1.58,1.58-1.58l0,0l0,0
			c0.87,0,1.58,0.71,1.58,1.58l0,0l0,0C136.65,217.18,135.94,217.89,135.07,217.89L135.07,217.89z"/>
		<g class="st11">
			<path class="st2" d="M210.68,261.91h26.43c3.98,0,7.2,3.22,7.2,7.2v11.42c0,3.98-3.22,7.2-7.2,7.2h-26.43
				c-3.98,0-7.2-3.22-7.2-7.2v-11.42C203.48,265.13,206.7,261.91,210.68,261.91z"/>
			<path class="st12" d="M210.68,261.91h26.43c3.98,0,7.2,3.22,7.2,7.2v11.42c0,3.98-3.22,7.2-7.2,7.2h-26.43
				c-3.98,0-7.2-3.22-7.2-7.2v-11.42C203.48,265.13,206.7,261.91,210.68,261.91z"/>
		</g>
		<path class="st3" d="M203.68,254.91h26.43c3.98,0,7.2,3.22,7.2,7.2v11.42c0,3.98-3.22,7.2-7.2,7.2h-26.43
			c-3.98,0-7.2-3.22-7.2-7.2v-11.42C196.48,258.13,199.7,254.91,203.68,254.91z"/>
		<path class="st0" d="M203.68,254.91h26.43c3.98,0,7.2,3.22,7.2,7.2v11.42c0,3.98-3.22,7.2-7.2,7.2h-26.43
			c-3.98,0-7.2-3.22-7.2-7.2v-11.42C196.48,258.13,199.7,254.91,203.68,254.91z"/>
		<line class="st0" x1="201.67" y1="262.87" x2="204.83" y2="259.71"/>
		<line class="st0" x1="201.67" y1="259.71" x2="204.83" y2="262.87"/>
		<path class="st6" d="M211.42,273.27c0-0.82-0.66-1.48-1.48-1.48c-0.82,0-1.48,0.66-1.48,1.48c0,0.82,0.66,1.48,1.48,1.48
			c0,0,0,0,0,0C210.76,274.75,211.42,274.09,211.42,273.27z"/>
		<path class="st6" d="M226.9,262.36c0-0.82-0.66-1.48-1.48-1.48c-0.82,0-1.48,0.66-1.48,1.48c0,0.82,0.66,1.48,1.48,1.48
			c0,0,0,0,0,0C226.24,263.84,226.9,263.18,226.9,262.36z"/>
		<path class="st0" d="M209.94,273.27c0,0,12.9,3.41,15.48-10.94"/>
		<path class="st0" d="M181.12,262.27c9.42,0,9,7.14,17.47,7.14"/>
		<path class="st6" d="M201.75,269.4L201.75,269.4c0-0.87-0.71-1.58-1.58-1.58l0,0l0,0c-0.87,0-1.58,0.71-1.58,1.58l0,0l0,0
			c0,0.87,0.71,1.58,1.58,1.58l0,0l0,0C201.04,270.98,201.75,270.27,201.75,269.4L201.75,269.4z"/>
		<path class="st6" d="M181.12,262.27L181.12,262.27c0.01-0.87-0.69-1.57-1.56-1.58c-0.01,0-0.01,0-0.02,0l0,0
			c-0.87,0-1.58,0.71-1.58,1.58l0,0l0,0c0,0.87,0.71,1.58,1.58,1.58l0,0l0,0C180.41,263.85,181.12,263.14,181.12,262.27
			L181.12,262.27z"/>
		<g class="st11">
			<path class="st2" d="M71.74,192.75h23.38c4.23,0,7.66,3.43,7.66,7.66v46.8c0,4.23-3.43,7.66-7.66,7.66H71.74
				c-4.23,0-7.66-3.43-7.66-7.66v-46.8C64.08,196.18,67.51,192.75,71.74,192.75z"/>
			<path class="st12" d="M71.74,192.75h23.38c4.23,0,7.66,3.43,7.66,7.66v46.8c0,4.23-3.43,7.66-7.66,7.66H71.74
				c-4.23,0-7.66-3.43-7.66-7.66v-46.8C64.08,196.18,67.51,192.75,71.74,192.75z"/>
		</g>
		<path class="st3" d="M64.74,185.75h23.38c4.23,0,7.66,3.43,7.66,7.66v46.8c0,4.23-3.43,7.66-7.66,7.66H64.74
			c-4.23,0-7.66-3.43-7.66-7.66v-46.8C57.08,189.18,60.51,185.75,64.74,185.75z"/>
		<path class="st0" d="M64.74,185.75h23.38c4.23,0,7.66,3.43,7.66,7.66v46.8c0,4.23-3.43,7.66-7.66,7.66H64.74
			c-4.23,0-7.66-3.43-7.66-7.66v-46.8C57.08,189.18,60.51,185.75,64.74,185.75z"/>
		<line class="st0" x1="62.27" y1="193.71" x2="65.43" y2="190.55"/>
		<line class="st0" x1="62.27" y1="190.55" x2="65.43" y2="193.71"/>
		<path class="st2" d="M89.39,209.02c0-0.11-0.05-0.21-0.13-0.29c-0.09-0.07-0.2-0.11-0.31-0.1c-8,0.47-12.12-6.69-12.16-6.76
			c-0.13-0.2-0.4-0.25-0.6-0.12c-0.05,0.03-0.09,0.08-0.12,0.12c0,0.07-4.16,7.23-12.16,6.76c-0.11-0.01-0.22,0.03-0.3,0.1
			c-0.09,0.07-0.14,0.18-0.14,0.29c0,0.2-0.74,19.14,12.9,21.26h0.12C90.13,228.16,89.4,209.27,89.39,209.02z"/>
		<path class="st0" d="M109.01,194.49c-9.42,0-9,7.14-17.47,7.14"/>
		<path class="st6" d="M88.39,201.63L88.39,201.63c-0.01-0.87,0.69-1.57,1.56-1.58c0,0,0.01,0,0.01,0l0,0
			c0.87-0.02,1.6,0.67,1.62,1.54c0,0.01,0,0.03,0,0.04l0,0c0,0.87-0.71,1.58-1.58,1.58l0,0l0,0c-0.87,0.02-1.59-0.66-1.61-1.53
			C88.39,201.66,88.39,201.64,88.39,201.63z"/>
		<path class="st6" d="M109.01,194.49L109.01,194.49c0-0.87,0.71-1.58,1.58-1.58l0,0l0,0c0.87,0,1.58,0.71,1.58,1.58l0,0l0,0
			c0,0.87-0.71,1.58-1.58,1.58c0,0-0.01,0-0.01,0l0,0C109.71,196.06,109.01,195.36,109.01,194.49z"/>
		<g class="st11">
			<path class="st2" d="M71.28,125.09h24.3c3.98,0,7.2,3.22,7.2,7.2v38.4c0,3.98-3.22,7.2-7.2,7.2h-24.3c-3.98,0-7.2-3.22-7.2-7.2
				v-38.4C64.08,128.31,67.3,125.09,71.28,125.09z"/>
			<path class="st12" d="M71.28,125.09h24.3c3.98,0,7.2,3.22,7.2,7.2v38.4c0,3.98-3.22,7.2-7.2,7.2h-24.3c-3.98,0-7.2-3.22-7.2-7.2
				v-38.4C64.08,128.31,67.3,125.09,71.28,125.09z"/>
		</g>
		<path class="st3" d="M64.28,118.09h24.3c3.98,0,7.2,3.22,7.2,7.2v38.4c0,3.98-3.22,7.2-7.2,7.2h-24.3c-3.98,0-7.2-3.22-7.2-7.2
			v-38.4C57.08,121.31,60.3,118.09,64.28,118.09z"/>
		<path class="st0" d="M64.28,118.09h24.3c3.98,0,7.2,3.22,7.2,7.2v38.4c0,3.98-3.22,7.2-7.2,7.2h-24.3c-3.98,0-7.2-3.22-7.2-7.2
			v-38.4C57.08,121.31,60.3,118.09,64.28,118.09z"/>
		<line class="st0" x1="62.27" y1="126.05" x2="65.43" y2="122.89"/>
		<line class="st0" x1="62.27" y1="122.89" x2="65.43" y2="126.05"/>
		<text transform="matrix(1 0 0 1 61.0709 150.9978)" class="st13 st14 st15">&lt;/&gt;</text>
		<path class="st0" d="M109.01,138.18c-9.42,0-9-7.14-17.47-7.14"/>
		<path class="st6" d="M88.39,131.04L88.39,131.04c-0.01,0.87,0.69,1.57,1.56,1.58c0,0,0.01,0,0.01,0l0,0
			c0.87,0.02,1.6-0.67,1.62-1.54c0-0.01,0-0.03,0-0.04l0,0c0-0.87-0.71-1.58-1.58-1.58l0,0l0,0c-0.87-0.02-1.59,0.66-1.61,1.53
			C88.39,131,88.39,131.02,88.39,131.04z"/>
		<path class="st6" d="M109.01,138.18L109.01,138.18c0,0.87,0.71,1.58,1.58,1.58l0,0l0,0c0.87,0,1.58-0.71,1.58-1.58l0,0l0,0
			c0-0.87-0.71-1.58-1.58-1.58l0,0l0,0C109.72,136.6,109.01,137.31,109.01,138.18L109.01,138.18z"/>
		<g class="st11">
			<path class="st2" d="M132.06,107.71h26.43c3.98,0,7.2,3.22,7.2,7.2v11.42c0,3.98-3.22,7.2-7.2,7.2h-26.43
				c-3.98,0-7.2-3.22-7.2-7.2v-11.42C124.86,110.93,128.08,107.71,132.06,107.71z"/>
			<path class="st12" d="M132.06,107.71h26.43c3.98,0,7.2,3.22,7.2,7.2v11.42c0,3.98-3.22,7.2-7.2,7.2h-26.43
				c-3.98,0-7.2-3.22-7.2-7.2v-11.42C124.86,110.93,128.08,107.71,132.06,107.71z"/>
		</g>
		<path class="st3" d="M125.06,100.71h26.43c3.98,0,7.2,3.22,7.2,7.2v11.42c0,3.98-3.22,7.2-7.2,7.2h-26.43
			c-3.98,0-7.2-3.22-7.2-7.2v-11.42C117.86,103.93,121.08,100.71,125.06,100.71z"/>
		<path class="st0" d="M125.06,100.71h26.43c3.98,0,7.2,3.22,7.2,7.2v11.42c0,3.98-3.22,7.2-7.2,7.2h-26.43
			c-3.98,0-7.2-3.22-7.2-7.2v-11.42C117.86,103.93,121.08,100.71,125.06,100.71z"/>
		<line class="st0" x1="123.05" y1="108.66" x2="126.21" y2="105.5"/>
		<line class="st0" x1="123.05" y1="105.5" x2="126.21" y2="108.66"/>
		<text transform="matrix(1 0 0 1 126.3509 118.2979)" class="st13 st14 st16">J</text>
		<text transform="matrix(1 0 0 1 130.6709 118.2979)" class="st13 st14 st16">A</text>
		<text transform="matrix(1 0 0 1 137.2009 118.2979)" class="st13 st14 st16">V</text>
		<text transform="matrix(1 0 0 1 143.0409 118.2979)" class="st13 st14 st16">A</text>
		<g class="st11">
			<path class="st2" d="M179.83,113.44h79.92c2.89,0,5.24,2.35,5.24,5.24v1.03c0,2.89-2.35,5.24-5.24,5.24h-79.92
				c-2.89,0-5.24-2.35-5.24-5.24v-1.03C174.59,115.78,176.94,113.44,179.83,113.44z"/>
			<path class="st12" d="M179.83,113.44h79.92c2.89,0,5.24,2.35,5.24,5.24v1.03c0,2.89-2.35,5.24-5.24,5.24h-79.92
				c-2.89,0-5.24-2.35-5.24-5.24v-1.03C174.59,115.78,176.94,113.44,179.83,113.44z"/>
		</g>
		<path class="st3" d="M174.25,107.86h79.92c2.89,0,5.24,2.35,5.24,5.24v1.03c0,2.89-2.35,5.24-5.24,5.24h-79.92
			c-2.89,0-5.24-2.35-5.24-5.24v-1.03C169.01,110.2,171.36,107.86,174.25,107.86z"/>
		<path class="st0" d="M174.25,107.86h79.92c2.89,0,5.24,2.35,5.24,5.24v1.03c0,2.89-2.35,5.24-5.24,5.24h-79.92
			c-2.89,0-5.24-2.35-5.24-5.24v-1.03C169.01,110.2,171.36,107.86,174.25,107.86z"/>
		<path class="st4" d="M252.73,111.74h-59.94c-1.04,0-1.88,0.84-1.88,1.88l0,0l0,0c0,1.04,0.84,1.88,1.88,1.88l0,0h59.94
			c1.03-0.02,1.85-0.85,1.85-1.88l0,0C254.58,112.59,253.76,111.75,252.73,111.74z"/>
		<path class="st2" d="M241.04,111.74h-48.25c-1.04,0-1.88,0.84-1.88,1.88c0,1.04,0.84,1.88,1.88,1.88h48.25V111.74z"/>
		<rect x="182.52" y="112.07" class="st0" width="3.16" height="3.16"/>
		<g class="st11">
			<path class="st2" d="M179.83,97.42h79.92c2.89,0,5.24,2.35,5.24,5.24v1.03c0,2.89-2.35,5.24-5.24,5.24h-79.92
				c-2.89,0-5.24-2.35-5.24-5.24v-1.03C174.59,99.76,176.94,97.42,179.83,97.42z"/>
			<path class="st12" d="M179.83,97.42h79.92c2.89,0,5.24,2.35,5.24,5.24v1.03c0,2.89-2.35,5.24-5.24,5.24h-79.92
				c-2.89,0-5.24-2.35-5.24-5.24v-1.03C174.59,99.76,176.94,97.42,179.83,97.42z"/>
		</g>
		<path class="st3" d="M174.25,91.84h79.92c2.89,0,5.24,2.35,5.24,5.24v1.03c0,2.89-2.35,5.24-5.24,5.24h-79.92
			c-2.89,0-5.24-2.35-5.24-5.24v-1.03C169.01,94.18,171.36,91.84,174.25,91.84z"/>
		<path class="st0" d="M174.25,91.84h79.92c2.89,0,5.24,2.35,5.24,5.24v1.03c0,2.89-2.35,5.24-5.24,5.24h-79.92
			c-2.89,0-5.24-2.35-5.24-5.24v-1.03C169.01,94.18,171.36,91.84,174.25,91.84z"/>
		<path class="st4" d="M252.73,95.72h-59.94c-1.03,0-1.87,0.84-1.88,1.87l0,0c0,1.04,0.84,1.88,1.88,1.88l0,0h59.94
			c1.03-0.02,1.85-0.85,1.85-1.88l0,0C254.58,96.57,253.75,95.73,252.73,95.72z"/>
		<path class="st2" d="M206.27,95.72h-13.48c-1.04-0.08-1.94,0.7-2.01,1.74c-0.08,1.04,0.7,1.94,1.74,2.01
			c0.09,0.01,0.18,0.01,0.27,0h13.48V95.72z"/>
		<rect x="182.52" y="96.04" class="st0" width="3.16" height="3.16"/>
		<g class="st11">
			<path class="st2" d="M179.83,129.47h79.92c2.89,0,5.24,2.35,5.24,5.24v1.03c0,2.89-2.35,5.24-5.24,5.24h-79.92
				c-2.89,0-5.24-2.35-5.24-5.24v-1.03C174.59,131.81,176.94,129.47,179.83,129.47z"/>
			<path class="st12" d="M179.83,129.47h79.92c2.89,0,5.24,2.35,5.24,5.24v1.03c0,2.89-2.35,5.24-5.24,5.24h-79.92
				c-2.89,0-5.24-2.35-5.24-5.24v-1.03C174.59,131.81,176.94,129.47,179.83,129.47z"/>
		</g>
		<path class="st3" d="M174.25,123.88h79.92c2.89,0,5.24,2.35,5.24,5.24v1.03c0,2.89-2.35,5.24-5.24,5.24h-79.92
			c-2.89,0-5.24-2.35-5.24-5.24v-1.03C169.01,126.22,171.36,123.88,174.25,123.88z"/>
		<path class="st0" d="M174.25,123.88h79.92c2.89,0,5.24,2.35,5.24,5.24v1.03c0,2.89-2.35,5.24-5.24,5.24h-79.92
			c-2.89,0-5.24-2.35-5.24-5.24v-1.03C169.01,126.22,171.36,123.88,174.25,123.88z"/>
		<path class="st4" d="M252.73,127.76h-59.94c-1.04,0-1.88,0.84-1.88,1.88l0,0l0,0c0,1.04,0.84,1.88,1.88,1.88l0,0h59.94
			c1.04,0,1.88-0.84,1.88-1.88l0,0l0,0C254.61,128.6,253.77,127.76,252.73,127.76L252.73,127.76z"/>
		<path class="st2" d="M250.45,127.76h-57.66c-1.04,0-1.88,0.84-1.88,1.88c0,1.04,0.84,1.88,1.88,1.88h57.66L250.45,127.76z"/>
		<rect x="182.52" y="128.09" class="st0" width="3.16" height="3.16"/>
		<path class="st0" d="M172.79,98.18c-9.42,0-9,7.14-17.47,7.14"/>
		<path class="st6" d="M152.16,105.32L152.16,105.32c0-0.87,0.71-1.58,1.58-1.58l0,0l0,0c0.87,0,1.58,0.71,1.58,1.58l0,0l0,0
			c0,0.87-0.71,1.58-1.58,1.58l0,0l0,0C152.87,106.9,152.16,106.19,152.16,105.32L152.16,105.32z"/>
		<path class="st6" d="M172.79,98.18L172.79,98.18c0-0.87,0.71-1.58,1.58-1.58l0,0l0,0c0.87,0,1.58,0.71,1.58,1.58l0,0l0,0
			c0,0.87-0.71,1.58-1.58,1.58l0,0l0,0C173.5,99.76,172.79,99.05,172.79,98.18L172.79,98.18z"/>
		<path class="st6" d="M152.16,114L152.16,114c0-0.87,0.71-1.58,1.58-1.58l0,0l0,0c0.87,0,1.58,0.71,1.58,1.58l0,0l0,0
			c0,0.87-0.71,1.58-1.58,1.58l0,0l0,0C152.87,115.58,152.16,114.87,152.16,114L152.16,114z"/>
		<path class="st6" d="M172.79,114L172.79,114c0-0.87,0.71-1.58,1.58-1.58l0,0l0,0c0.87,0,1.58,0.71,1.58,1.58l0,0l0,0
			c0,0.87-0.71,1.58-1.58,1.58l0,0l0,0C173.5,115.58,172.79,114.87,172.79,114L172.79,114z"/>
		<line class="st0" x1="172.79" y1="114" x2="155.32" y2="114"/>
		<path class="st0" d="M172.79,129.27c-9.42,0-9-7.14-17.47-7.14"/>
		<path class="st6" d="M152.16,122.12L152.16,122.12c0,0.87,0.71,1.58,1.58,1.58l0,0l0,0c0.87,0.01,1.57-0.69,1.58-1.56
			c0-0.01,0-0.01,0-0.02l0,0c0-0.87-0.71-1.58-1.58-1.58l0,0l0,0C152.87,120.54,152.16,121.25,152.16,122.12L152.16,122.12z"/>
		<path class="st6" d="M172.79,129.27L172.79,129.27c0,0.87,0.71,1.58,1.58,1.58l0,0l0,0c0.87,0,1.58-0.71,1.58-1.58l0,0l0,0
			c0-0.87-0.71-1.58-1.58-1.58l0,0l0,0C173.5,127.69,172.79,128.4,172.79,129.27L172.79,129.27z"/>
	</g>
</g>
</svg>
